<svg width="25" height="25" viewBox="0 0 25 25" fill="none" xmlns="http://www.w3.org/2000/svg">
    <path d="M21.6141 7.33184V7.33335C21.7789 6.9855 21.875 6.62231 21.875 6.25V4.6875C21.875 2.09961 17.6773 0 12.5 0C7.32271 0 3.125 2.09961 3.125 4.6875C3.125 4.55933 3.14331 4.43418 3.16313 4.30908C1.22681 5.16665 0 6.41787 0 7.8125V9.375C0 10.8246 1.31836 12.1201 3.38594 12.9791C3.22114 13.3271 3.125 13.6902 3.125 14.0625V15.625C3.125 16.1743 3.32339 16.6977 3.67129 17.1875C3.32339 17.6773 3.125 18.2007 3.125 18.75V20.3125C3.125 22.9004 7.32271 25 12.5 25C17.6773 25 21.875 22.9004 21.875 20.3125V18.75C21.875 18.1915 21.669 17.659 21.312 17.1631C21.3089 17.1661 21.3059 17.1707 21.3028 17.1738C21.5652 16.8015 21.7712 16.4139 21.8369 16.0034C23.7732 15.1443 25 13.8946 25 12.5V10.9375C25 9.48794 23.6816 8.19092 21.6141 7.33184ZM12.5 0.78125C17.5644 0.78125 21.0938 2.83965 21.0938 4.6875C21.0938 6.53384 17.5644 8.59375 12.5 8.59375C7.4356 8.59375 3.90625 6.53384 3.90625 4.6875C3.90625 2.83965 7.4356 0.78125 12.5 0.78125ZM0.78125 7.8125C0.78125 6.9 1.64644 5.94023 3.125 5.19868V6.25C3.125 8.83789 7.32271 10.9375 12.5 10.9375C13.2736 10.9375 14.0213 10.8856 14.74 10.7971C13.3072 11.3479 11.4868 11.7188 9.375 11.7188C4.3106 11.7188 0.78125 9.65884 0.78125 7.8125ZM21.0938 18.75C21.0938 20.5963 17.5644 22.6562 12.5 22.6562C7.4356 22.6562 3.90625 20.5963 3.90625 18.75C3.90625 18.4433 4.0375 18.132 4.22212 17.8238C4.22061 17.8223 4.21753 17.8192 4.21602 17.8162C5.78921 19.3008 8.90811 20.3125 12.5 20.3125C16.0965 20.3125 19.2001 19.2932 20.7703 17.8055C20.7687 17.807 20.7687 17.807 20.7672 17.8085C20.9595 18.1213 21.0938 18.4372 21.0938 18.75ZM17.8681 17.0471C16.4337 17.5995 14.6133 17.9688 12.5 17.9688C7.4356 17.9688 3.90625 15.9088 3.90625 14.0625C3.90625 13.797 3.9978 13.5284 4.13667 13.2629C4.90269 13.5208 5.74951 13.7238 6.65439 13.8596C7.82012 15.7852 11.3938 17.1875 15.625 17.1875C16.4017 17.1875 17.1524 17.1356 17.8741 17.0456C17.8726 17.0456 17.8711 17.0471 17.8681 17.0471ZM15.625 14.8438C13.62 14.8438 11.8713 14.5142 10.4706 14.0091C14.8758 13.7497 18.3548 11.9812 18.7118 9.75342C19.7753 9.28193 20.6269 8.69443 21.1746 8.02612C21.1731 8.02612 21.1731 8.02612 21.1731 8.02612C23.0652 8.79517 24.2188 9.8938 24.2188 10.9375C24.2188 12.7838 20.6894 14.8438 15.625 14.8438ZM14.1693 5.82583C14.1693 5.66104 14.0381 5.53438 13.7757 5.45044C13.5132 5.36499 12.9288 5.25513 12.024 5.12388C11.2107 5.00942 10.5744 4.89497 10.1166 4.78208C9.65884 4.66919 9.28652 4.51045 9.00117 4.30903C8.71582 4.10454 8.57241 3.8665 8.57241 3.59795C8.57241 3.24395 8.82876 2.92349 9.33843 2.6397C9.8481 2.35742 10.6507 2.18496 11.7463 2.1209V1.5625H13.2264V2.121C14.8805 2.20342 15.9517 2.58486 16.4384 3.27153L14.3998 3.61333C14.0016 3.14336 13.3881 2.90835 12.555 2.90835C12.1369 2.90835 11.8012 2.96025 11.5495 3.06704C11.2961 3.1708 11.1695 3.29897 11.1695 3.44854C11.1695 3.60112 11.2916 3.71709 11.5357 3.79951C11.7784 3.88037 12.3018 3.97959 13.1013 4.10166C13.9802 4.23291 14.6699 4.35649 15.1689 4.47397C15.6694 4.58994 16.0676 4.75171 16.3667 4.95767C16.6643 5.16367 16.8137 5.40474 16.8137 5.67939C16.8137 6.10361 16.5055 6.45454 15.8906 6.73682C15.2757 7.01909 14.3876 7.18545 13.2264 7.23579V7.95898H11.7463V7.23877C9.80996 7.15791 8.61211 6.69556 8.14981 5.8563L10.4386 5.61216C10.6507 6.14014 11.3526 6.4041 12.5443 6.4041C13.1012 6.4041 13.5133 6.34766 13.7757 6.23472C14.0382 6.12178 14.1693 5.98604 14.1693 5.82583Z" fill="black"/>
</svg>
