<svg width="56" height="56" viewBox="0 0 56 56" fill="none" xmlns="http://www.w3.org/2000/svg">
    <path d="M28.6609 1.19526L28.1306 1.01848L27.6003 1.19526C27.4235 1.37203 21.7666 4.20046 21.7666 10.2109L21.5898 33.7222C18.9382 34.2525 16.4633 34.6061 16.6401 35.1364L16.4633 36.3738C16.4633 37.0809 21.0595 37.788 24.4183 37.9648L26.0093 48.3946C24.9486 48.3946 24.0647 49.2785 24.0647 50.3392L24.0647 51.3998C24.0647 52.4605 24.9486 53.3444 26.0093 53.3444L29.5448 53.3444C30.6055 53.3444 31.4893 52.4605 31.4893 51.3998V50.3392C31.4893 49.2785 30.6055 48.3946 29.5448 48.3946L31.3126 37.788C34.6713 37.6113 39.2675 36.9041 39.2675 36.197L39.2675 34.7828C39.2675 34.4293 36.7926 33.7222 34.141 33.5454L34.141 9.85732C34.4945 4.20046 28.8377 1.37203 28.6609 1.19526ZM32.0197 33.1918H29.1912L27.9538 10.0341L26.7164 33.1918H24.2415L24.2415 10.2109C24.2415 6.67534 26.8932 4.73079 28.1306 3.84691C29.368 4.73079 32.0197 6.67534 31.8429 10.0341L32.0197 33.1918Z" fill="#5FCA06"/>
</svg>
