<svg width="15" height="14" viewBox="0 0 15 14" fill="none" xmlns="http://www.w3.org/2000/svg">
    <path d="M5.15776 0.0273166C5.14085 0.0357704 5.12817 0.0526776 5.12817 0.0632448C5.12817 0.0716987 5.21482 0.22598 5.32261 0.405622C5.42828 0.583152 5.59313 0.862126 5.68824 1.02486C5.78334 1.1876 5.95876 1.48771 6.07922 1.6906C6.19969 1.89349 6.39835 2.23586 6.52305 2.45143C6.64774 2.66701 6.79991 2.92696 6.8612 3.03263C7.01759 3.30104 7.18244 3.58635 7.24584 3.69837C7.29023 3.77656 7.44662 4.0492 7.64317 4.38523C7.6643 4.41905 7.84817 4.74241 8.05529 5.10381C8.2603 5.46309 8.45262 5.7949 8.48009 5.83717L8.53082 5.91748H9.73548C10.845 5.91748 10.9401 5.91537 10.9401 5.88155C10.9401 5.86253 10.8894 5.76109 10.826 5.65541C10.5322 5.15664 9.79888 3.89914 9.71012 3.74063C9.68053 3.6878 9.60867 3.56522 9.55161 3.46589C9.49243 3.36656 9.4248 3.25243 9.40367 3.21227C9.38042 3.17212 9.2832 3.00516 9.1881 2.84454C9.0951 2.68391 9.01691 2.54865 9.01691 2.54443C9.01691 2.5402 8.94294 2.41128 8.85206 2.257C8.76118 2.10272 8.65762 1.92307 8.62169 1.85967C8.50968 1.65889 8.04261 0.843105 7.93694 0.659236C7.87988 0.564131 7.83338 0.481707 7.83338 0.475366C7.83338 0.471139 7.79111 0.392942 7.73827 0.304177C7.68544 0.217526 7.64317 0.137216 7.64317 0.130875C7.64106 0.122421 7.62415 0.0949469 7.60301 0.0695853L7.56497 0.0230894L6.37722 0.0167494C5.72205 0.0125222 5.17467 0.0188627 5.15776 0.0273166Z" fill="#E31313"/>
    <path d="M8.81419 0.0504942C8.80362 0.0779686 8.88816 0.230137 9.3975 1.08819C9.50105 1.2615 9.98926 2.09631 10.0527 2.20832C10.0738 2.24213 10.1774 2.42389 10.2851 2.60987C10.3929 2.79586 10.4986 2.9755 10.5176 3.01143C10.5535 3.07483 10.9974 3.84201 11.0671 3.96248C11.1876 4.16959 11.7624 5.16925 11.828 5.28338C11.9209 5.44611 12.033 5.63844 12.1598 5.84767C12.2084 5.9322 12.2506 6.00406 12.2506 6.00829C12.2506 6.01251 12.3119 6.1203 12.388 6.24711C12.4641 6.37391 12.5254 6.49861 12.5254 6.52185C12.5254 6.5599 12.4831 6.64655 12.3986 6.78392C12.388 6.80083 12.2993 6.953 12.202 7.12207C12.033 7.41373 11.8237 7.77724 11.7434 7.91461C11.7223 7.94843 11.6187 8.13018 11.5109 8.31617C11.4032 8.50215 11.2954 8.68813 11.2721 8.72829C11.2489 8.76844 11.2003 8.85509 11.1664 8.9185C11.1305 8.9819 11.0079 9.19536 10.8917 9.39402C10.6529 9.80192 10.617 9.86321 10.543 9.99635C10.5134 10.0492 10.45 10.1612 10.3993 10.2436C10.3485 10.3282 10.3063 10.4021 10.3063 10.4106C10.3063 10.4169 10.2788 10.4634 10.2429 10.5141C10.2091 10.5649 10.1795 10.6114 10.1795 10.6177C10.1795 10.624 10.1182 10.7318 10.0442 10.8565C9.97024 10.9812 9.78848 11.294 9.64054 11.5497C9.49049 11.8055 9.24533 12.2239 9.09316 12.4796C8.94099 12.7354 8.8163 12.9636 8.8163 12.9869C8.8163 13.0291 8.83321 13.0291 10.0062 13.0355C10.6994 13.0376 11.2108 13.0313 11.232 13.0207C11.2531 13.0101 11.289 12.9657 11.3123 12.9192C11.363 12.8241 11.904 11.8773 12.1259 11.4969C12.2084 11.3511 12.3352 11.1334 12.4049 11.0108C12.6226 10.6304 13.4342 9.22706 13.6392 8.87623C13.6984 8.7769 13.8252 8.55921 13.9203 8.39014C14.0175 8.22106 14.1781 7.94631 14.2753 7.77724C14.3747 7.60816 14.5775 7.25945 14.7276 7.00161L15.0002 6.53242L14.9643 6.46268C14.9453 6.42464 14.7424 6.0738 14.5163 5.68493C14.288 5.29606 14.0724 4.92409 14.0365 4.86069C13.9985 4.79729 13.9139 4.64934 13.8463 4.5331C13.7787 4.41687 13.6561 4.20341 13.5715 4.05758C13.487 3.91175 13.2101 3.432 12.9544 2.99029C12.4726 2.15971 11.5025 0.471069 11.3419 0.18364L11.2489 0.0209055H10.0379C9.00017 0.0209055 8.82475 0.0251331 8.81419 0.0504942Z" fill="#E31313"/>
    <path d="M8.51835 7.16021C8.50567 7.16866 8.42959 7.29335 8.34716 7.43918C8.16541 7.76043 8.15273 7.78367 7.96252 8.11126C7.88009 8.25497 7.81246 8.37755 7.81246 8.38389C7.81246 8.38812 7.78499 8.43461 7.74906 8.48534C7.71524 8.53606 7.68566 8.58255 7.68566 8.5889C7.68566 8.59735 7.64761 8.66498 7.60112 8.74106C7.55462 8.81715 7.51658 8.88478 7.51658 8.889C7.51658 8.89323 7.47431 8.9672 7.42359 9.05174C7.32637 9.21447 6.9544 9.85907 6.86564 10.0176C6.83817 10.0704 6.78744 10.155 6.75574 10.2078C6.72404 10.2606 6.64584 10.3938 6.58244 10.5037C6.47465 10.6897 6.36053 10.882 5.95897 11.571C5.87655 11.7104 5.69691 12.0148 5.55953 12.2473C5.42216 12.4797 5.29747 12.689 5.28479 12.7122C5.2721 12.7355 5.23195 12.8052 5.19391 12.8686C5.15587 12.9299 5.1305 12.9954 5.13896 13.0144C5.14953 13.0419 5.29958 13.044 6.36053 13.0314C7.02415 13.0229 7.57576 13.0102 7.58421 13.0018C7.59689 12.9891 7.82092 12.5981 7.9752 12.3212C8.00479 12.2684 8.12102 12.0634 8.23515 11.8668C8.34716 11.6682 8.46552 11.4653 8.49299 11.4125C8.66207 11.1123 9.46729 9.71747 9.60255 9.49556C9.65116 9.41102 9.69343 9.33705 9.69343 9.33283C9.69343 9.32649 9.74203 9.24618 9.7991 9.15107C9.85827 9.05597 9.90477 8.97566 9.90477 8.97143C9.90477 8.9672 9.9724 8.85308 10.0527 8.7157C10.1351 8.58044 10.2007 8.46632 10.2007 8.46209C10.2007 8.45786 10.2556 8.36064 10.3253 8.24652C10.393 8.13239 10.5219 7.91048 10.6128 7.75409C10.7037 7.5998 10.8157 7.40748 10.86 7.32928C10.9065 7.25109 10.9382 7.17712 10.9298 7.16444C10.915 7.13907 8.55639 7.13485 8.51835 7.16021Z" fill="#E31313"/>
    <path d="M3.78982 0L7.57965 6.53498L3.78982 13.07L0 6.53498L3.78982 0Z" fill="#E31313"/>
</svg>
