<svg width="49" height="49" viewBox="0 0 49 49" fill="none" xmlns="http://www.w3.org/2000/svg">
    <path d="M11.3218 33.8746L14.3236 36.8764L8.04868 43.1514L5.04682 40.1495L11.3218 33.8746Z" fill="#D5302E" stroke="black" stroke-width="0.2"/>
    <path d="M7.59414 40.7335C8.96615 42.1055 8.96615 44.33 7.59414 45.702C6.22213 47.074 3.99767 47.074 2.62566 45.702C1.25365 44.33 1.25365 42.1055 2.62566 40.7335C3.99767 39.3615 6.22213 39.3615 7.59414 40.7335Z" fill="#D5302E" stroke="black" stroke-width="0.2"/>
    <path d="M47.3207 0.160282L47.321 0.160157C47.905 -0.0925935 48.4976 0.501703 48.2442 1.08726L48.244 1.08755L44.3964 10.0563L44.3964 10.0563C44.3545 10.154 44.2964 10.2386 44.2195 10.3054L44.2187 10.3062L16.1485 35.2864L13.1374 32.2753L38.1013 4.18643C38.1015 4.1863 38.1016 4.18617 38.1017 4.18604C38.1702 4.11075 38.256 4.04904 38.3519 4.00795L38.3519 4.00794L47.3207 0.160282Z" fill="#D5302E" stroke="black" stroke-width="0.2"/>
    <path d="M16.8383 40.7926L7.4086 31.3629C6.58449 30.5388 6.58423 29.188 7.40868 28.3597C8.23283 27.5356 9.58364 27.5354 10.4119 28.3599L19.8414 37.7895C20.6655 38.6135 20.6658 39.9643 19.8414 40.7926C19.0131 41.6169 17.6624 41.6167 16.8383 40.7926Z" fill="#D5302E" stroke="black" stroke-width="0.2"/>
</svg>
