<svg width="55" height="54" viewBox="0 0 55 54" fill="none" xmlns="http://www.w3.org/2000/svg">
    <g filter="url(#filter0_d)">
        <path d="M11.3121 4.60099C11.0813 4.75963 10.7929 4.97596 10.6775 5.12018C10.4179 5.43747 10.3891 6.5047 10.6486 6.96621C10.8794 7.41329 11.788 7.94691 12.2928 7.94691C12.4947 7.94691 12.7254 8.03344 12.7831 8.14881C12.8408 8.24977 13.3888 8.88434 13.9801 9.53333C14.5714 10.1967 15.6964 11.437 16.4752 12.3024C17.2395 13.1533 17.8741 13.9176 17.8741 13.9753C17.8741 14.0474 16.8501 14.9993 15.6098 16.0954C14.3551 17.177 13.3167 18.1289 13.2879 18.1866C13.2302 18.3452 15.2781 20.6383 15.48 20.6383C15.5666 20.6383 15.8262 20.2633 16.0569 19.8018C16.6482 18.6625 17.7299 17.0905 18.4654 16.3117L19.0711 15.6627L19.3884 17.2203C19.5615 18.0712 19.749 18.8211 19.8355 18.8932C19.9076 18.9798 20.4124 18.9221 21.1191 18.749C22.4603 18.4317 24.3352 18.1 25.6332 17.9558C26.1235 17.9125 26.5273 17.7972 26.5273 17.7251C26.5273 17.6529 26.0947 17.0905 25.561 16.4848L24.6092 15.3743L22.8641 14.783C21.9123 14.4512 21.1046 14.1195 21.0902 14.0474C21.0469 13.9321 23.6429 12.2735 23.8592 12.2735C23.8881 12.2735 24.3496 12.0716 24.8688 11.8409C25.388 11.5957 25.9072 11.4082 26.0226 11.4082C26.4985 11.4082 26.3254 11.0621 25.287 9.9083C24.6813 9.23047 24.1477 8.66801 24.09 8.66801C24.0467 8.66801 22.9795 9.5766 21.7392 10.6871C20.4845 11.7976 19.4028 12.7062 19.3307 12.7062C19.2586 12.7062 19.0567 12.5331 18.8836 12.3024C18.7106 12.086 18.3644 11.6822 18.1193 11.4082C17.8597 11.1342 17.2395 10.4131 16.7203 9.82177C16.2011 9.23047 15.7541 8.71127 15.7108 8.66801C15.6675 8.62474 15.2637 8.16324 14.8022 7.62962C14.0667 6.79314 13.9513 6.57681 13.908 5.97109C13.8648 5.37978 13.7782 5.20672 13.3167 4.8029C12.6822 4.25486 11.9899 4.19717 11.3121 4.60099Z" fill="#F05016"/>
        <path d="M47.9004 4.51424C47.4389 4.745 46.9774 5.55263 46.9774 6.14393C46.9774 6.49006 46.8476 6.79292 46.5592 7.11021C46.3429 7.36981 45.1603 8.7399 43.9488 10.1388C42.7374 11.5378 41.6701 12.6915 41.598 12.6915C41.5115 12.706 40.9202 12.23 40.2856 11.6532C37.8339 9.44658 37.0118 8.7399 36.8532 8.7399C36.5936 8.7399 34.5456 11.1195 34.6899 11.2493C34.762 11.307 35.209 11.5089 35.685 11.6964C37.7617 12.5041 40.1414 13.9318 39.7808 14.1626C39.6655 14.2347 38.8578 14.5087 37.9781 14.7972L36.3628 15.3164L35.3965 16.4701C34.8629 17.1047 34.4447 17.6527 34.4879 17.6816C34.5168 17.7104 35.2956 17.8402 36.2042 17.9556C37.5743 18.1431 40.0549 18.5757 40.9346 18.7921C41.1509 18.8353 41.3384 18.3161 41.6845 16.6288L41.872 15.7346L42.4345 16.2682C43.0258 16.8451 44.6266 19.1959 45.0449 20.09C45.3189 20.7102 45.5929 20.7823 45.8958 20.3352C46.0112 20.1766 46.4438 19.6862 46.8476 19.2536C47.2515 18.8209 47.5832 18.3882 47.5832 18.2729C47.5832 18.1142 44.0786 14.8981 43.1989 14.2491C42.896 14.0328 42.9537 13.9463 44.6266 12.1291C45.4054 11.2638 47.1072 9.36005 47.8572 8.4803C48.1745 8.13418 48.4629 7.94669 48.6937 7.94669C49.6455 7.94669 50.4676 7.08137 50.4676 6.08624C50.4676 4.77384 49.0975 3.93736 47.9004 4.51424Z" fill="#F05016"/>
        <path d="M27.1759 19.6286C25.0415 19.8738 22.8637 20.2344 21.3061 20.5805C20.4552 20.768 19.7341 20.9266 19.6909 20.9266C19.5467 20.9266 19.5899 23.2341 19.7486 24.835C20.3687 30.9211 22.7051 37.137 25.8491 41.0886C27.3922 43.0068 30.1613 45.4441 30.8103 45.4441C31.2429 45.4441 32.8005 44.2326 34.185 42.8193C38.6559 38.2475 41.7854 30.4452 42.1893 22.8592C42.2758 21.0708 42.2614 20.9555 42.0162 20.8833C41.3672 20.6959 37.8338 20.0324 36.3916 19.8305C34.5023 19.5709 28.7912 19.4556 27.1759 19.6286Z" fill="#F05016"/>
        <path d="M18.6385 35.4495C16.7925 37.4975 15.9993 38.3772 14.4129 40.18C13.5764 41.1174 12.6245 42.1846 12.2928 42.5452C11.9467 42.9057 11.615 43.4393 11.5429 43.7134C11.2112 45.0546 10.4757 49.1937 10.5622 49.2803C10.6199 49.338 11.9034 48.963 13.4322 48.4726C15.8695 47.6794 16.2733 47.4919 16.7204 47.0304C17.1098 46.641 21.2778 41.9106 22.5902 40.3674C22.7777 40.1511 22.7344 40.0069 22.2008 39.0983C21.4797 37.858 20.4125 35.5937 20.1673 34.7717C20.0663 34.4544 19.9365 34.1948 19.8788 34.1948C19.8212 34.1948 19.2587 34.7573 18.6385 35.4495Z" fill="#F05016"/>
        <path d="M41.3962 34.9592C41.3096 35.19 41.2375 35.4063 41.2375 35.4352C41.2375 35.6227 39.4925 38.9974 39.0165 39.7474L38.4829 40.5694L39.3338 41.5213C39.7953 42.0549 41.1366 43.5836 42.3192 44.9393C43.5018 46.2806 44.5257 47.4343 44.6123 47.492C44.6988 47.5497 45.1315 47.7083 45.5641 47.8381C47.2227 48.3429 49.8331 49.2082 50.0638 49.338C50.4244 49.5399 50.5109 49.2803 50.3378 48.5015C50.2513 48.1266 50.0494 47.1459 49.8907 46.3094C49.285 43.1077 49.386 43.3529 47.9438 41.7665C46.2852 39.9204 42.3913 35.5505 41.9154 34.9881L41.5548 34.5554L41.3962 34.9592Z" fill="#F05016"/>
    </g>
    <line x1="34.9305" y1="19.5178" x2="25.9305" y2="41.5178" stroke="black"/>
    <path d="M8.09559 11.0116C7.28668 11.3343 5.621 11.1728 4.37399 11.0594C4.33828 11.0567 4.30257 11.065 4.27174 11.0832C4.2409 11.1014 4.21642 11.1287 4.20163 11.1613C4.18684 11.1939 4.18246 11.2303 4.18907 11.2655C4.19568 11.3007 4.21297 11.333 4.23859 11.3581C5.14568 12.2213 6.36484 13.3677 6.65522 14.1887L8.09559 11.0116Z" fill="#B32E00" stroke="black" stroke-width="0.2" stroke-linecap="round" stroke-linejoin="round"/>
    <path d="M9.53559 7.83485C9.24521 7.01378 8.02605 5.86739 7.11897 5.0042C7.09334 4.97917 7.07605 4.94685 7.06944 4.91165C7.06283 4.87644 7.06721 4.84005 7.082 4.80743C7.0968 4.7748 7.12127 4.74752 7.15211 4.7293C7.18295 4.71107 7.21865 4.70278 7.25436 4.70555C8.50138 4.81894 10.1671 4.98041 10.976 4.65771L9.53559 7.83485Z" fill="#A73006" stroke="black" stroke-width="0.2" stroke-linecap="round" stroke-linejoin="round"/>
    <path d="M4.6891 7.72841C4.66415 7.70386 4.64734 7.67224 4.64094 7.63783C4.63454 7.60342 4.63886 7.56788 4.65331 7.536C4.66776 7.50412 4.69165 7.47745 4.72175 7.45959C4.75185 7.44172 4.78671 7.43353 4.82161 7.43611C6.09803 7.50155 9.65403 7.57397 10.1783 6.41749C10.6349 5.41034 9.66961 3.75472 9.05987 2.8693C9.04011 2.83651 9.03145 2.79822 9.03519 2.76012C9.03892 2.72202 9.05484 2.68614 9.08059 2.65781C9.10634 2.62948 9.14054 2.61021 9.17811 2.60287C9.21568 2.59552 9.25462 2.60049 9.28914 2.61703L13.7192 4.94336C14.8598 5.46045 14.6551 8.37048 13.2637 11.4396C11.8723 14.5087 9.81852 16.5804 8.67793 16.0633L4.00296 14.2771C3.96776 14.2621 3.93836 14.2361 3.91913 14.203C3.89989 14.1699 3.89185 14.1314 3.89619 14.0934C3.90053 14.0554 3.91702 14.0197 3.94322 13.9918C3.96941 13.9639 4.00392 13.9452 4.0416 13.9384C5.10303 13.8107 6.99078 13.4485 7.44738 12.4413C7.97744 11.2722 5.57949 8.64532 4.6891 7.72841Z" fill="#F5931F"/>
    <path d="M11.07 14.8918L8.22346 7.32369C7.09531 7.46651 5.95633 7.50407 4.82122 7.43588C4.78632 7.4333 4.75146 7.44149 4.72136 7.45936C4.69126 7.47722 4.66737 7.50389 4.65292 7.53577C4.63847 7.56765 4.63415 7.60319 4.64055 7.6376C4.64695 7.67201 4.66376 7.70363 4.68871 7.72818C5.5791 8.64508 7.97705 11.2719 7.45275 12.4284C6.99615 13.4356 5.11475 13.8006 4.04697 13.9255C4.00929 13.9322 3.97478 13.951 3.94859 13.9789C3.92239 14.0068 3.9059 14.0424 3.90156 14.0805C3.89722 14.1185 3.90527 14.1569 3.9245 14.19C3.94374 14.2231 3.97313 14.2491 4.00833 14.2642L8.67754 16.0631C9.29073 16.3411 10.1702 15.8627 11.07 14.8918Z" fill="#F38400"/>
    <path d="M4.6891 7.72841C4.66415 7.70386 4.64734 7.67224 4.64094 7.63783C4.63454 7.60342 4.63886 7.56788 4.65331 7.536C4.66776 7.50412 4.69165 7.47745 4.72175 7.45959C4.75185 7.44172 4.78671 7.43353 4.82161 7.43611C6.09803 7.50155 9.65403 7.57397 10.1783 6.41749C10.6349 5.41034 9.66961 3.75472 9.05987 2.8693C9.04011 2.83651 9.03145 2.79822 9.03519 2.76012C9.03892 2.72202 9.05484 2.68614 9.08059 2.65781C9.10634 2.62948 9.14054 2.61021 9.17811 2.60287C9.21568 2.59552 9.25462 2.60049 9.28914 2.61703L13.7192 4.94336C14.8598 5.46045 14.6551 8.37048 13.2637 11.4396C11.8723 14.5087 9.81852 16.5804 8.67793 16.0633L4.00296 14.2771C3.96776 14.2621 3.93836 14.2361 3.91913 14.203C3.89989 14.1699 3.89185 14.1314 3.89619 14.0934C3.90053 14.0554 3.91702 14.0197 3.94322 13.9918C3.96941 13.9639 4.00392 13.9452 4.0416 13.9384C5.10303 13.8107 6.99078 13.4485 7.44738 12.4413C7.97744 11.2722 5.57949 8.64531 4.6891 7.72841Z" stroke="black" stroke-width="0.2" stroke-linecap="round" stroke-linejoin="round"/>
    <path d="M10.4318 8.8148C10.1369 8.6811 9.80091 8.67003 9.49783 8.78403C9.19474 8.89802 8.94936 9.12775 8.81566 9.42267C8.68195 9.71759 8.67088 10.0535 8.78488 10.3566C8.89887 10.6597 9.1286 10.9051 9.42352 11.0388L10.0589 11.3269C10.3539 11.4606 10.6898 11.4717 10.9929 11.3577C11.296 11.2437 11.5414 11.0139 11.6751 10.719C11.8088 10.4241 11.8199 10.0881 11.7059 9.78505C11.5919 9.48197 11.3621 9.23658 11.0672 9.10288L10.4318 8.8148Z" fill="#F14C14"/>
    <path d="M11.1986 10.5029C11.0649 10.7978 10.8196 11.0275 10.5165 11.1415C10.2134 11.2555 9.87744 11.2444 9.58252 11.1107L10.0591 11.3268C10.354 11.4605 10.69 11.4715 10.993 11.3576C11.2961 11.2436 11.5415 11.0138 11.6752 10.7189C11.8089 10.424 11.82 10.088 11.706 9.78495C11.592 9.48187 11.3623 9.23648 11.0674 9.10278L10.5908 8.88672C10.8857 9.02043 11.1154 9.26581 11.2294 9.56889C11.3434 9.87198 11.3324 10.2079 11.1986 10.5029Z" fill="#E04122"/>
    <path d="M8.81576 9.42307C8.68206 9.71799 8.67098 10.0539 8.78498 10.357C8.89898 10.6601 9.12871 10.9055 9.42363 11.0392L10.0591 11.3273C10.0847 11.341 10.1112 11.353 10.1385 11.3633C9.87012 11.2162 9.66723 10.9731 9.57042 10.6828C9.47362 10.3925 9.49004 10.0763 9.61641 9.79754C9.74277 9.5188 9.96976 9.29808 10.2519 9.17956C10.5341 9.06104 10.8506 9.05346 11.1381 9.15835C11.1124 9.14462 11.0859 9.13259 11.0587 9.12234L10.4232 8.83427C10.1316 8.702 9.7997 8.68961 9.49902 8.79974C9.19834 8.90988 8.95296 9.13373 8.81576 9.42307Z" fill="#FF866E"/>
    <path d="M10.4318 8.8148C10.1369 8.6811 9.80091 8.67003 9.49783 8.78403C9.19474 8.89802 8.94936 9.12775 8.81566 9.42267C8.68195 9.71759 8.67088 10.0535 8.78488 10.3566C8.89887 10.6597 9.1286 10.9051 9.42352 11.0388L10.0589 11.3269C10.3539 11.4606 10.6898 11.4717 10.9929 11.3577C11.296 11.2437 11.5414 11.0139 11.6751 10.719C11.8088 10.4241 11.8199 10.0881 11.7059 9.78505C11.5919 9.48197 11.3621 9.23658 11.0672 9.10288L10.4318 8.8148Z" stroke="black" stroke-width="0.2" stroke-linecap="round" stroke-linejoin="round"/>
    <path d="M12.6961 6.77813C12.8552 6.42719 12.6997 6.01372 12.3488 5.85462C11.9978 5.69552 11.5844 5.85104 11.4253 6.20198C11.2662 6.55291 11.4217 6.96638 11.7726 7.12548C12.1236 7.28458 12.537 7.12906 12.6961 6.77813Z" fill="#F14C14" stroke="black" stroke-width="0.2" stroke-linecap="round" stroke-linejoin="round"/>
    <path d="M9.38315 14.0853C9.54225 13.7343 9.38673 13.3209 9.0358 13.1618C8.68486 13.0027 8.27139 13.1582 8.11229 13.5091C7.95319 13.86 8.10871 14.2735 8.45965 14.4326C8.81058 14.5917 9.22405 14.4362 9.38315 14.0853Z" fill="#F14C14" stroke="black" stroke-width="0.2" stroke-linecap="round" stroke-linejoin="round"/>
    <path d="M10.2663 16.7835C11.4069 17.3006 13.4607 15.2289 14.8521 12.1598C16.2435 9.09068 16.4482 6.18066 15.3076 5.66357L13.7191 4.94338C14.8596 5.46047 14.6549 8.3705 13.2635 11.4396C11.8721 14.5087 9.81833 16.5804 8.67773 16.0634L10.2663 16.7835Z" fill="url(#paint0_linear)"/>
    <path d="M13.2635 11.4396C11.8721 14.5087 9.81833 16.5804 8.67773 16.0634L9.47202 16.4234C10.6126 16.9405 12.6664 14.8688 14.0578 11.7997C15.4492 8.73059 15.6539 5.82057 14.5133 5.30347L13.7191 4.94338C14.8596 5.46047 14.6549 8.3705 13.2635 11.4396Z" fill="#BE3A0A"/>
    <path d="M10.2663 16.7835C11.4069 17.3006 13.4607 15.2289 14.8521 12.1598C16.2435 9.09068 16.4482 6.18066 15.3076 5.66356L13.7191 4.94338C14.8596 5.46047 14.6549 8.3705 13.2635 11.4396C11.8721 14.5087 9.81833 16.5804 8.67773 16.0634L10.2663 16.7835Z" stroke="black" stroke-width="0.2" stroke-linecap="round" stroke-linejoin="round"/>
    <path d="M4.35638 11.2321C4.55525 10.7934 4.36086 10.2766 3.92219 10.0777C3.48352 9.8788 2.96668 10.0732 2.76781 10.5119C2.56893 10.9505 2.76333 11.4674 3.202 11.6662C3.64067 11.8651 4.1575 11.6707 4.35638 11.2321Z" fill="#F14C14"/>
    <path d="M3.86998 11.6891C3.65322 11.7706 3.41295 11.7627 3.20203 11.6671C2.9911 11.5714 2.8268 11.3959 2.74527 11.1792C2.66375 10.9624 2.67166 10.7222 2.76729 10.5112C2.86291 10.3003 3.03841 10.136 3.25517 10.0545L3.86998 11.6891Z" fill="#FF866E"/>
    <path d="M4.35638 11.2321C4.55525 10.7934 4.36086 10.2766 3.92219 10.0777C3.48352 9.8788 2.96668 10.0732 2.76781 10.5119C2.56893 10.9505 2.76333 11.4674 3.202 11.6662C3.64067 11.8651 4.1575 11.6707 4.35638 11.2321Z" stroke="black" stroke-width="0.2" stroke-linecap="round" stroke-linejoin="round"/>
    <path d="M7.23772 4.87805C7.4366 4.43938 7.24221 3.92255 6.80353 3.72367C6.36486 3.5248 5.84803 3.71919 5.64916 4.15786C5.45028 4.59654 5.64468 5.11337 6.08335 5.31224C6.52202 5.51112 7.03885 5.31672 7.23772 4.87805Z" fill="#F14C14"/>
    <path d="M6.75084 5.33495C6.53408 5.41648 6.29381 5.40857 6.08289 5.31294C5.97845 5.26559 5.88436 5.19814 5.80599 5.11443C5.72762 5.03072 5.6665 4.93239 5.62613 4.82506C5.58576 4.71773 5.56693 4.6035 5.57071 4.48889C5.57449 4.37429 5.6008 4.26154 5.64815 4.1571C5.74377 3.94618 5.91927 3.78188 6.13603 3.70035L6.75084 5.33495Z" fill="#FF866E"/>
    <path d="M7.23772 4.87805C7.4366 4.43938 7.24221 3.92255 6.80353 3.72367C6.36486 3.5248 5.84803 3.71919 5.64916 4.15786C5.45028 4.59654 5.64468 5.11337 6.08335 5.31224C6.52202 5.51112 7.03885 5.31672 7.23772 4.87805Z" stroke="black" stroke-width="0.2" stroke-linecap="round" stroke-linejoin="round"/>
    <path d="M3.92677 14.2927C4.16542 13.7663 3.93215 13.1461 3.40575 12.9074C2.87934 12.6688 2.25914 12.902 2.02049 13.4285C1.78184 13.9549 2.01511 14.5751 2.54152 14.8137C3.06793 15.0524 3.68812 14.8191 3.92677 14.2927Z" fill="#F14C14"/>
    <path d="M3.34194 14.8395C3.08493 14.926 2.80439 14.9093 2.55944 14.793C2.31449 14.6767 2.12424 14.4698 2.02878 14.216C1.93332 13.9622 1.9401 13.6813 2.04769 13.4324C2.15528 13.1835 2.35528 12.9861 2.60555 12.8817L3.34194 14.8395Z" fill="#FF866E"/>
    <path d="M3.92677 14.2927C4.16542 13.7663 3.93215 13.1461 3.40575 12.9074C2.87934 12.6688 2.25914 12.902 2.02049 13.4285C1.78184 13.9549 2.01511 14.5751 2.54152 14.8137C3.06793 15.0524 3.68812 14.8191 3.92677 14.2927Z" stroke="black" stroke-width="0.2" stroke-linecap="round" stroke-linejoin="round"/>
    <path d="M5.00295 7.6949C5.2416 7.16849 5.00832 6.54829 4.48192 6.30964C3.95551 6.07099 3.33531 6.30427 3.09666 6.83067C2.85801 7.35708 3.09129 7.97728 3.61769 8.21593C4.1441 8.45458 4.7643 8.2213 5.00295 7.6949Z" fill="#F14C14"/>
    <path d="M4.41811 8.24139C4.1611 8.32784 3.88057 8.31115 3.63561 8.19485C3.39066 8.07855 3.20041 7.8717 3.10495 7.6179C3.00949 7.3641 3.01627 7.08315 3.12386 6.83425C3.23145 6.58534 3.43145 6.38792 3.68173 6.28356L4.41811 8.24139Z" fill="#FF866E"/>
    <path d="M5.00295 7.6949C5.2416 7.16849 5.00832 6.54829 4.48192 6.30964C3.95551 6.07099 3.33531 6.30427 3.09666 6.83067C2.85801 7.35708 3.09129 7.97728 3.61769 8.21593C4.1441 8.45458 4.7643 8.2213 5.00295 7.6949Z" stroke="black" stroke-width="0.2" stroke-linecap="round" stroke-linejoin="round"/>
    <path d="M9.25636 2.53767C9.49501 2.01127 9.26174 1.39107 8.73534 1.15242C8.20893 0.913768 7.58873 1.14704 7.35008 1.67345C7.11143 2.19985 7.3447 2.82005 7.87111 3.0587C8.39752 3.29735 9.01771 3.06408 9.25636 2.53767Z" fill="#F14C14"/>
    <path d="M8.6713 3.08417C8.54159 3.13825 8.40231 3.16566 8.26177 3.16475C8.12124 3.16384 7.98233 3.13463 7.85332 3.07887C7.72432 3.02311 7.60787 2.94193 7.51092 2.84019C7.41397 2.73845 7.33851 2.61822 7.28903 2.48668C7.23956 2.35513 7.21708 2.21498 7.22295 2.07456C7.22882 1.93414 7.26291 1.79635 7.32318 1.66939C7.38346 1.54244 7.46869 1.42893 7.5738 1.33563C7.6789 1.24232 7.80171 1.17115 7.93492 1.12634L8.6713 3.08417Z" fill="#FF866E"/>
    <path d="M9.25636 2.53767C9.49501 2.01127 9.26174 1.39107 8.73534 1.15242C8.20893 0.913768 7.58873 1.14704 7.35008 1.67345C7.11143 2.19985 7.3447 2.82005 7.87111 3.0587C8.39752 3.29735 9.01771 3.06408 9.25636 2.53767Z" stroke="black" stroke-width="0.2" stroke-linecap="round" stroke-linejoin="round"/>
    <path d="M29.2158 28.6318C29.1605 29.3968 28.8773 29.999 28.3662 30.4385C27.8584 30.8779 27.1878 31.0977 26.3545 31.0977C25.443 31.0977 24.7253 30.7917 24.2012 30.1797C23.6803 29.5645 23.4199 28.7214 23.4199 27.6504V27.2158C23.4199 26.5322 23.5404 25.93 23.7812 25.4092C24.0221 24.8883 24.3656 24.4896 24.8115 24.2129C25.2607 23.9329 25.7816 23.793 26.374 23.793C27.1943 23.793 27.8551 24.0127 28.3564 24.4521C28.8577 24.8916 29.1475 25.5085 29.2256 26.3027H27.7607C27.7249 25.8438 27.5964 25.5117 27.375 25.3066C27.1569 25.0983 26.8232 24.9941 26.374 24.9941C25.8857 24.9941 25.5195 25.1699 25.2754 25.5215C25.0345 25.8698 24.9108 26.4118 24.9043 27.1475V27.6846C24.9043 28.4528 25.0199 29.0143 25.251 29.3691C25.4854 29.724 25.8532 29.9014 26.3545 29.9014C26.807 29.9014 27.1439 29.7988 27.3652 29.5938C27.5898 29.3854 27.7184 29.0648 27.751 28.6318H29.2158Z" fill="black"/>
    <path d="M31.6348 38V30.8906H34.125C34.9876 30.8906 35.6419 31.0566 36.0879 31.3887C36.5339 31.7174 36.7568 32.2008 36.7568 32.8389C36.7568 33.1872 36.6673 33.4948 36.4883 33.7617C36.3092 34.0254 36.0602 34.2191 35.7412 34.3428C36.1058 34.4339 36.3923 34.6178 36.6006 34.8945C36.8122 35.1712 36.918 35.5098 36.918 35.9102C36.918 36.5938 36.6999 37.1113 36.2637 37.4629C35.8275 37.8145 35.2057 37.9935 34.3984 38H31.6348ZM33.0996 34.9043V36.8232H34.3545C34.6995 36.8232 34.9681 36.7419 35.1602 36.5791C35.3555 36.4131 35.4531 36.1852 35.4531 35.8955C35.4531 35.2445 35.1162 34.9141 34.4424 34.9043H33.0996ZM33.0996 33.8691H34.1836C34.9225 33.8561 35.292 33.5615 35.292 32.9854C35.292 32.6631 35.1976 32.432 35.0088 32.292C34.8232 32.1488 34.5286 32.0771 34.125 32.0771H33.0996V33.8691Z" fill="black"/>
    <defs>
        <filter id="filter0_d" x="6.46777" y="0.328735" width="47.9998" height="53.0749" filterUnits="userSpaceOnUse" color-interpolation-filters="sRGB">
            <feFlood flood-opacity="0" result="BackgroundImageFix"/>
            <feColorMatrix in="SourceAlpha" type="matrix" values="0 0 0 0 0 0 0 0 0 0 0 0 0 0 0 0 0 0 127 0"/>
            <feOffset/>
            <feGaussianBlur stdDeviation="2"/>
            <feColorMatrix type="matrix" values="0 0 0 0 0 0 0 0 0 0 0 0 0 0 0 0 0 0 0.25 0"/>
            <feBlend mode="normal" in2="BackgroundImageFix" result="effect1_dropShadow"/>
            <feBlend mode="normal" in="SourceGraphic" in2="effect1_dropShadow" result="shape"/>
        </filter>
        <linearGradient id="paint0_linear" x1="11.1984" y1="10.5034" x2="14.8521" y2="12.1598" gradientUnits="userSpaceOnUse">
            <stop offset="0.84375" stop-color="#BE3A0A"/>
            <stop offset="1"/>
        </linearGradient>
    </defs>
</svg>
