<svg width="56" height="56" viewBox="0 0 56 56" fill="none" xmlns="http://www.w3.org/2000/svg">
    <path d="M27.2468 54.7123L27.7771 54.8891L28.3075 54.7123C28.4842 54.5356 34.1411 51.7071 34.1411 45.6967L34.3179 22.1854C36.9695 21.6551 39.4444 21.3015 39.2676 20.7712L39.4444 19.5338C39.4444 18.8267 34.8482 18.1196 31.4894 17.9428L29.8985 7.51296C30.9591 7.51296 31.843 6.62907 31.843 5.56841L31.843 4.50775C31.843 3.44709 30.9591 2.56321 29.8985 2.56321L26.3629 2.56321C25.3023 2.56321 24.4184 3.44709 24.4184 4.50775V5.56841C24.4184 6.62907 25.3023 7.51296 26.3629 7.51296L24.5951 18.1196C21.2364 18.2963 16.6402 19.0034 16.6402 19.7105L16.6402 21.1248C16.6402 21.4783 19.1151 22.1854 21.7667 22.3622L21.7667 46.0503C21.4132 51.7071 27.07 54.5356 27.2468 54.7123ZM23.888 22.7158H26.7165L27.9539 45.8735L29.1913 22.7158H31.6662L31.6662 45.6967C31.6662 49.2323 29.0146 51.1768 27.7771 52.0607C26.5397 51.1768 23.888 49.2323 24.0648 45.8735L23.888 22.7158Z" fill="#D5302E"/>
</svg>
