<svg width="20" height="20" viewBox="0 0 20 20" fill="none" xmlns="http://www.w3.org/2000/svg">
    <path d="M10 20C15.5228 20 20 15.5228 20 10C20 4.47715 15.5228 0 10 0C4.47715 0 0 4.47715 0 10C0 15.5228 4.47715 20 10 20Z" fill="#F05016"/>
    <path d="M13.1421 11.9866C12.7064 11.9866 12.3055 12.1352 11.9872 12.3845L7.97836 10.4293C7.98161 10.3843 7.98333 10.3389 7.98333 10.2931C7.98333 10.2717 7.98284 10.2504 7.98211 10.229L12.0584 8.24094C12.3644 8.45809 12.7383 8.58574 13.1421 8.58574C14.1776 8.58574 15.017 7.74631 15.017 6.71084C15.017 5.67537 14.1776 4.83594 13.1421 4.83594C12.1067 4.83594 11.2672 5.67537 11.2672 6.71084C11.2672 6.76687 11.2698 6.82229 11.2747 6.87705L7.27688 8.82687C6.95639 8.57115 6.5503 8.4182 6.10842 8.4182C5.07293 8.4182 4.23352 9.25764 4.23352 10.2931C4.23352 11.3286 5.07295 12.168 6.10842 12.168C6.52362 12.168 6.90719 12.0329 7.21788 11.8045L11.2691 13.7804C11.2679 13.8073 11.2672 13.8343 11.2672 13.8615C11.2672 14.897 12.1066 15.7364 13.1421 15.7364C14.1776 15.7364 15.017 14.897 15.017 13.8615C15.017 12.826 14.1776 11.9866 13.1421 11.9866Z" fill="white"/>
</svg>
