<svg width="20" height="20" viewBox="0 0 20 20" fill="none" xmlns="http://www.w3.org/2000/svg">
    <g clip-path="url(#clip0)">
        <path d="M19.3338 0.0100098H14.0024C13.8124 0.0100098 13.4932 0.169285 13.4033 0.282577L6.63974 9.55384L4.32859 7.24536C4.07002 6.98678 3.65084 6.98678 3.39227 7.24536L1.51829 9.11667C1.25972 9.37524 1.25972 9.79442 1.51829 10.0523L4.32792 12.8593L0.591295 16.5926H0.593294C0.589962 16.5959 0.585297 16.5986 0.581298 16.6019C-0.194417 17.377 -0.194417 18.6338 0.581298 19.4089C1.35701 20.1839 2.61522 20.1839 3.39093 19.4089C3.39493 19.4056 3.39693 19.4002 3.40093 19.3962C3.40093 19.3969 3.40093 19.3996 3.40093 19.3996L7.13689 15.6663L9.94653 18.4732C10.2051 18.7318 10.6243 18.7318 10.8835 18.4732L12.7568 16.6013C13.0161 16.3427 13.0161 15.9242 12.7568 15.6663L10.4457 13.3578L19.7283 6.60159C19.8389 6.51296 20.0002 6.23573 20.0002 6.00781V0.676432C20.0002 0.307901 19.7016 0.0100098 19.3338 0.0100098ZM2.45528 18.4732C2.19671 18.7318 1.77686 18.7318 1.51829 18.4732C1.25972 18.2147 1.25972 17.7955 1.51829 17.5376C1.77686 17.2797 2.19671 17.279 2.45528 17.5376C2.71385 17.7962 2.71385 18.2147 2.45528 18.4732ZM3.8601 17.0698L2.92377 16.1341L5.26491 13.795L6.20124 14.7306L3.8601 17.0698ZM11.3533 16.1341L10.4164 17.0691L2.92377 9.5845L3.8601 8.64884L11.3533 16.1341ZM18.6673 5.82055L9.54801 12.4594L9.01154 11.9236L15.8484 5.09348C16.1069 4.83491 16.1069 4.41639 15.8484 4.15849C15.5898 3.90058 15.1706 3.89992 14.912 4.15849L8.07522 10.988L7.53875 10.4522L14.1836 1.34285H18.6667V5.82055H18.6673Z" fill="black"/>
    </g>
    <defs>
        <clipPath id="clip0">
            <rect width="20" height="20" fill="white"/>
        </clipPath>
    </defs>
</svg>
