<svg width="80" height="80" viewBox="0 0 80 80" fill="none" xmlns="http://www.w3.org/2000/svg">
    <rect x="0.5" y="0.5" width="79" height="79" rx="39.5" stroke="black"/>
    <path d="M40 37.5C41.9778 37.5 43.9112 36.9135 45.5557 35.8147C47.2002 34.7159 48.4819 33.1541 49.2388 31.3268C49.9957 29.4996 50.1937 27.4889 49.8079 25.5491C49.422 23.6093 48.4696 21.8275 47.0711 20.4289C45.6725 19.0304 43.8907 18.078 41.9509 17.6922C40.0111 17.3063 38.0004 17.5043 36.1732 18.2612C34.3459 19.0181 32.7841 20.2998 31.6853 21.9443C30.5865 23.5888 30 25.5222 30 27.5C30 30.1522 31.0536 32.6957 32.9289 34.5711C34.8043 36.4464 37.3478 37.5 40 37.5ZM40 22.5C40.9889 22.5 41.9556 22.7932 42.7779 23.3427C43.6001 23.8921 44.241 24.673 44.6194 25.5866C44.9978 26.5002 45.0969 27.5056 44.9039 28.4755C44.711 29.4454 44.2348 30.3363 43.5355 31.0355C42.8363 31.7348 41.9454 32.211 40.9755 32.4039C40.0055 32.5969 39.0002 32.4978 38.0866 32.1194C37.173 31.741 36.3921 31.1001 35.8427 30.2779C35.2932 29.4556 35 28.4889 35 27.5C35 26.1739 35.5268 24.9022 36.4645 23.9645C37.4021 23.0268 38.6739 22.5 40 22.5Z" fill="black"/>
    <path d="M40 42.5002C35.3587 42.5002 30.9075 44.344 27.6256 47.6259C24.3437 50.9078 22.5 55.359 22.5 60.0002C22.5 60.6633 22.7634 61.2992 23.2322 61.768C23.7011 62.2369 24.337 62.5002 25 62.5002C25.663 62.5002 26.2989 62.2369 26.7678 61.768C27.2366 61.2992 27.5 60.6633 27.5 60.0002C27.5 56.685 28.817 53.5056 31.1612 51.1614C33.5054 48.8172 36.6848 47.5002 40 47.5002C43.3152 47.5002 46.4946 48.8172 48.8388 51.1614C51.183 53.5056 52.5 56.685 52.5 60.0002C52.5 60.6633 52.7634 61.2992 53.2322 61.768C53.7011 62.2369 54.337 62.5002 55 62.5002C55.663 62.5002 56.2989 62.2369 56.7678 61.768C57.2366 61.2992 57.5 60.6633 57.5 60.0002C57.5 55.359 55.6563 50.9078 52.3744 47.6259C49.0925 44.344 44.6413 42.5002 40 42.5002Z" fill="black"/>
</svg>
