<svg width="80" height="80" viewBox="0 0 80 80" fill="none" xmlns="http://www.w3.org/2000/svg">
<circle cx="40" cy="40" r="40" fill="black"/>
<path d="M31.8707 43.1745L34.2415 16.5742L41.9264 15.0832L37.2046 50.7576L30.003 52.1549L11.4402 20.9981L19.102 19.5115L31.8707 43.1745Z" fill="white"/>
<path d="M59.3634 56.064C59.0932 54.7637 58.4263 53.8586 57.3629 53.3488C56.2963 52.8236 54.4871 52.4107 51.9353 52.11C49.3803 51.7941 47.3269 51.3967 45.7753 50.9179C41.5452 49.606 39.0693 47.2137 38.3476 43.7411C37.9725 41.9359 38.1448 40.2314 38.8647 38.6275C39.5968 37.0054 40.8311 35.6121 42.5678 34.4476C44.3199 33.2801 46.3847 32.4657 48.7622 32.0044C51.1551 31.5401 53.3778 31.5625 55.4304 32.0714C57.4798 32.565 59.1821 33.5 60.5373 34.8763C61.9078 36.2496 62.8013 37.9383 63.2178 39.9424L56.3152 41.2816C55.9973 39.7518 55.2677 38.6599 54.1265 38.006C52.9821 37.3368 51.5356 37.1718 49.787 37.5111C48.0997 37.8385 46.8629 38.4524 46.0767 39.353C45.2872 40.2382 45.0133 41.2622 45.2549 42.4248C45.4807 43.511 46.2144 44.3156 47.456 44.8386C48.7131 45.3586 50.4744 45.7331 52.74 45.9619C56.9116 46.378 60.0759 47.284 62.233 48.6798C64.3901 50.0756 65.7389 52.0738 66.2794 54.6745C66.8803 57.5658 66.2557 60.0504 64.4056 62.1282C62.5523 64.1906 59.7696 65.582 56.0576 66.3022C53.4806 66.8021 51.0368 66.7909 48.7261 66.2684C46.4122 65.7306 44.5253 64.7518 43.0654 63.3322C41.6208 61.9096 40.6743 60.1197 40.2261 57.9627L47.1516 56.619C47.9178 60.3059 50.5097 61.7208 54.9273 60.8637C56.5686 60.5452 57.7811 59.9678 58.5647 59.1314C59.3451 58.2798 59.6114 57.2573 59.3634 56.064Z" fill="white"/>
</svg>
