<svg width="210" height="229" viewBox="0 0 210 229" fill="none" xmlns="http://www.w3.org/2000/svg">
    <g filter="url(#filter0_d)">
        <path d="M62.4896 10.1953C59.6349 10.9992 57.0427 13.493 56.0091 16.4133C55.7794 17.0531 55.3364 18.5625 55.0247 19.7438C54.713 20.9414 54.2864 22.1391 54.0896 22.418C53.8599 22.7133 53.7122 23.1727 53.6958 23.5992C53.6794 23.993 53.4333 24.8625 53.1544 25.5352C52.8755 26.2078 52.2685 27.832 51.8091 29.1445C51.3497 30.457 50.7919 32.0156 50.5786 32.6063C50.3654 33.2133 50.1357 34.2469 50.07 34.9031C49.9224 36.5602 49.4138 37.7578 46.5427 43.3524C44.1638 48.0117 43.2614 50.1938 43.0318 51.8836C42.8513 53.2617 42.638 53.7047 41.8833 54.3281C41.4732 54.6563 41.1614 54.968 41.1779 55.0336C41.2271 55.2141 40.62 56.0672 40.5216 55.9688C40.4724 55.9195 40.6036 55.6899 40.8333 55.4602C41.0466 55.2141 41.1286 55.05 40.9974 55.0992C40.8661 55.132 40.5216 55.5094 40.2427 55.9031C39.9638 56.3133 39.1763 57.1336 38.52 57.7078C37.8474 58.2984 37.0107 59.2008 36.6825 59.7094C36.338 60.2016 35.6818 61.0055 35.2224 61.4649L34.3693 62.318L33.6966 61.6617C32.9091 60.907 32.4661 60.6445 31.9247 60.6445C30.8419 60.6445 30.8911 61.5633 32.0396 63.1711C33.0075 64.5164 33.0404 64.582 32.7614 64.8609C32.6302 64.9922 32.4005 64.9594 31.8919 64.7297C30.9732 64.3195 29.7591 64.3195 29.3325 64.7461C28.7091 65.3695 28.988 65.9602 30.1693 66.6C30.6779 66.8789 30.6943 66.9281 30.4154 67.0758C30.12 67.2399 28.2497 67.6828 26.8388 67.9289C26.5107 67.9945 25.9364 68.2899 25.5755 68.5852C25.0669 69.0117 24.706 69.1594 23.9677 69.2578C22.3599 69.4547 22.0318 69.668 21.638 70.7672C20.9161 72.7852 20.8669 72.8344 19.3575 73.2281C18.6029 73.425 17.8154 73.7039 17.6021 73.8352C17.2739 74.0484 17.2411 74.1633 17.356 74.6719C17.438 75 17.8646 75.8695 18.3075 76.6078C18.7505 77.3461 19.3411 78.3961 19.62 78.9539C19.9646 79.643 20.4404 80.2336 21.2279 80.9063C22.6224 82.1367 23.1474 82.875 23.5904 84.1875C23.7872 84.7617 24.0661 85.2703 24.2138 85.3359C24.3614 85.4016 25.5427 85.4344 26.8388 85.4344C30.4482 85.4016 31.0388 85.0734 33.5325 81.8578C35.2552 79.6102 35.5341 79.3477 36.2396 79.3477C37.1747 79.3477 39.6685 78.8719 40.2919 78.5766C40.8661 78.2977 41.4075 77.6086 41.588 76.8867C41.6372 76.657 41.9654 76.0664 42.2935 75.5742C43.163 74.2945 43.4419 73.6875 43.4419 73.1461C43.4419 72.8344 43.606 72.5227 43.9505 72.1945C44.2294 71.932 44.6068 71.4234 44.8036 71.0625L45.1318 70.4063L45.263 70.8984C45.3779 71.2758 45.2794 71.6859 44.8364 72.7852C44.5411 73.5563 44.0325 75.0656 43.7044 76.1484C43.3927 77.2313 42.9333 78.7734 42.7036 79.5938C42.1458 81.5133 42.113 82.8094 42.6216 84.8273C42.8349 85.6969 43.0646 86.4023 43.1138 86.4023C43.1794 86.4023 43.3763 86.1234 43.5896 85.7789C43.7864 85.4508 44.2786 84.7781 44.6888 84.2859L45.4435 83.4L45.3286 80.8406C45.263 79.4297 45.1482 77.8547 45.0825 77.3297C44.9513 76.5258 44.9841 76.2141 45.2794 75.443C45.9849 73.507 45.9193 73.5563 46.2474 74.918C46.9857 77.9859 47.4122 80.25 47.8716 83.7609C48.1341 85.8281 48.3638 87.6164 48.3638 87.7148C48.3638 87.8133 48.4294 87.8625 48.5114 87.8133C48.5935 87.7477 48.7739 88.1742 48.8888 88.732C49.0364 89.3883 49.2005 89.7492 49.3318 89.7164C49.4302 89.7 49.5122 89.7656 49.4794 89.8805C49.463 89.9953 49.5614 90.2414 49.7255 90.4219C49.8732 90.6023 50.1029 90.8977 50.2341 91.0781C50.4146 91.3242 50.4146 91.193 50.1849 90.5859C49.7911 89.5195 49.6271 88.8141 49.7911 88.9125C49.8568 88.9617 49.8896 88.6828 49.8732 88.2891C49.8404 87.8953 49.8896 87.4359 49.988 87.2719C50.1357 87.0094 50.1521 87.0258 50.1685 87.4195C50.1685 87.6492 50.2341 87.8789 50.2997 87.9117C50.3818 87.9281 50.6279 88.5516 50.8739 89.2734C51.1036 89.9953 51.2677 90.3234 51.2185 90.0117C51.1529 89.5359 51.2021 89.5852 51.5466 90.3891C51.7763 90.9141 52.1208 91.6031 52.3013 91.8984L52.6458 92.4727L52.2685 92.6203C52.0552 92.7023 50.9396 93.0305 49.7583 93.3586C41.0958 95.7047 3.60754 105.877 2.13098 106.287C0.785668 106.648 0.227856 106.877 0.113012 107.123C-0.280738 107.845 0.424731 110.306 1.14661 110.749C1.34348 110.864 8.26692 109.059 28.8732 103.465C43.9669 99.3797 56.4193 96 56.5341 95.9508C56.813 95.8523 56.7802 96.4922 56.4685 97.1156C56.3208 97.4109 55.9927 97.8375 55.7302 98.0836C55.4185 98.3789 55.2544 98.6906 55.2544 99.0023C55.2544 100.085 54.5818 101.316 51.9239 105.155C49.5779 108.502 49.3482 108.764 47.0349 110.618C44.6724 112.521 43.2614 114.014 41.063 116.918C38.1427 120.79 34.763 123.776 28.5614 127.976C26.7404 129.206 25.1982 130.289 25.1489 130.355C25.1161 130.437 24.9685 130.962 24.8536 131.536C24.6568 132.553 24.6896 133.652 24.9849 136.195L25.0833 137.18L24.0169 138.656C23.4099 139.46 22.7044 140.412 22.4255 140.74C22.163 141.084 21.8349 141.609 21.7036 141.921C21.4904 142.446 21.4904 142.545 21.8349 143.299C22.3271 144.398 23.7216 145.645 25.0669 146.187C26.0185 146.58 26.2646 146.613 27.413 146.515C28.6927 146.4 28.7091 146.4 29.9068 145.399C31.9575 143.693 33.9427 140.855 37.1091 135.145C39.2255 131.323 40.1935 129.387 42.1294 125.121C43.6224 121.823 44.3114 120.544 43.606 122.332C41.8669 126.795 40.2755 130.141 36.0099 138.41C33.27 143.726 31.9575 147.516 31.9575 150.108C31.9575 152.273 32.745 153.389 34.9927 154.423C36.2888 155.03 41.8833 156.949 42.3427 156.949C42.72 156.949 42.7036 157.13 42.1622 158.836C41.6208 160.542 40.9646 161.625 39.0943 163.922C37.4208 165.973 36.9614 166.662 35.9279 168.598C34.4841 171.321 33.0075 175.341 31.695 180.082C31.531 180.673 31.2685 181.329 31.1044 181.559C30.9404 181.788 30.7271 182.412 30.6122 182.953C30.481 183.609 30.2513 184.151 29.9068 184.594C29.1193 185.578 28.9716 185.923 29.0208 186.874C29.0536 187.58 28.988 187.842 28.6927 188.22C28.381 188.613 28.3318 188.827 28.3974 189.466C28.4794 190.139 28.4302 190.352 27.9216 191.189C27.6263 191.698 27.3638 192.206 27.3638 192.321C27.3638 192.42 27.1013 192.928 26.7896 193.453C25.9364 194.897 25.6739 195.848 25.7724 197.194C25.838 198.309 25.8216 198.359 25.2802 199.08C24.8044 199.704 24.7224 199.917 24.8208 200.36C24.8864 200.787 24.788 201.148 24.345 202.017C23.6724 203.363 23.0161 204.216 20.9654 206.414C20.1286 207.316 19.1114 208.498 18.7013 209.039C18.2911 209.58 17.6021 210.401 17.1755 210.86C16.7654 211.303 16.2896 211.91 16.1419 212.189C16.0107 212.468 15.6333 212.862 15.3216 213.042C14.5013 213.551 14.0419 214.847 14.5177 215.273C14.9935 215.716 16.7654 216.816 16.995 216.832C17.0935 216.832 17.3396 216.98 17.52 217.16C17.9138 217.554 18.8654 217.603 19.2427 217.226C19.3904 217.078 19.5216 216.98 19.538 217.013C19.5544 217.045 19.6529 217.226 19.7513 217.406C20.0138 217.898 20.6208 218.145 21.5724 218.145C23.0818 218.145 25.0013 216.898 25.7888 215.405C25.92 215.159 26.4286 214.568 26.9208 214.092C27.9216 213.157 28.8732 211.828 29.5786 210.434C29.8247 209.941 30.5794 208.514 31.2685 207.284C32.1872 205.659 32.6138 205.036 32.8435 205.02C33.3521 205.02 34.4185 203.805 34.5333 203.116C34.5989 202.706 34.8122 202.345 35.1075 202.099C35.5505 201.722 35.5833 201.607 35.5505 200.787C35.5013 199.901 35.5013 199.901 36.2396 199.409C37.7982 198.342 38.0607 197.916 37.831 196.833C37.7325 196.324 37.7818 196.177 38.2904 195.635C38.6677 195.209 38.8482 194.848 38.8482 194.52C38.8482 193.945 39.5208 192.567 40.1935 191.73C40.4396 191.419 40.6529 191.091 40.6529 190.992C40.6529 190.894 40.8169 190.746 41.0302 190.664C41.2271 190.566 41.4075 190.336 41.4404 190.123C41.4732 189.909 41.6864 189.466 41.8997 189.138C42.195 188.712 42.2935 188.367 42.2771 187.891C42.2607 187.514 42.3099 187.071 42.4083 186.891C42.5068 186.71 42.556 186.366 42.5068 186.12C42.4411 185.808 42.5724 185.48 42.9169 184.971C43.5075 184.085 45.8208 180.328 46.5427 179.048C46.838 178.507 47.6583 176.653 48.3638 174.914C50.1193 170.599 50.513 169.877 51.9239 168.352C52.5802 167.63 53.4661 166.563 53.8599 165.973C54.9263 164.43 56.2388 161.445 57.338 158.114L58.2896 155.194L59.356 154.636C60.045 154.275 60.8654 153.635 61.6857 152.798C62.8177 151.65 63.0146 151.355 63.72 149.681C64.9669 146.728 65.8529 142.134 66.181 136.802L66.2958 134.965L67.9693 131.667C68.888 129.846 69.6919 128.435 69.7411 128.517C69.8724 128.714 70.0036 131.995 70.1841 138.443L70.3153 143.808L70.8403 144.973L71.3818 146.121L72.3005 146.023C73.0716 145.924 73.3997 145.777 74.3677 145.055C75.0075 144.595 76.3693 143.332 77.4028 142.282C79.6341 140.018 79.8966 139.887 81.3896 140.494C81.931 140.707 82.8169 140.92 83.3583 140.97C84.2607 141.035 84.4739 141.002 85.1794 140.592C85.8521 140.215 86.1474 139.87 86.9513 138.574C87.4763 137.721 87.9193 136.95 87.9521 136.852C87.9849 136.77 88.5591 137.114 89.2318 137.639C97.9107 144.398 101.274 146.63 108.69 150.452C110.97 151.634 111.397 152.044 111.397 153.077C111.397 153.75 111.249 154.062 110.166 155.686C108.722 157.868 108.066 159.115 107.623 160.559C106.639 163.758 106.475 169.91 107.311 172.699C107.935 174.783 108.099 175.816 107.935 176.505C107.853 176.834 107.836 177.277 107.869 177.506C107.918 177.736 107.869 177.966 107.771 178.015C107.508 178.179 107.558 178.622 107.869 178.966C108.132 179.262 108.115 179.278 107.787 179.524C107.361 179.82 107.328 180.131 107.672 180.41C108.001 180.689 108.001 182.707 107.656 182.707C107.344 182.707 107.361 183.298 107.689 183.429C107.82 183.478 107.886 183.609 107.836 183.691C107.771 183.79 107.836 184.052 107.984 184.266C108.312 184.774 108.329 185.89 108.001 186.152C107.689 186.415 107.689 186.563 108.033 186.891C108.427 187.301 108.443 189.073 108.05 189.204C107.705 189.302 107.656 189.926 107.984 189.926C108.165 189.926 108.197 190.09 108.132 190.582C108.066 191.074 108.115 191.32 108.312 191.55C108.575 191.845 108.575 191.911 108.345 192.37C108.017 192.994 108.017 193.913 108.345 194.536C108.542 194.946 108.558 195.143 108.411 195.602C108.247 196.078 108.263 196.242 108.493 196.603C108.804 197.063 108.772 197.571 108.345 199.523C107.689 202.493 108.542 207.005 109.953 208.022C110.429 208.366 110.626 208.383 113.497 208.383C116.368 208.366 116.647 208.35 118.583 207.841C121.208 207.169 122.602 207.152 124.85 207.759C126.097 208.088 126.589 208.153 126.917 208.038C127.229 207.923 127.508 207.94 127.852 208.071C129.443 208.727 132.462 208.662 133.397 207.956C133.824 207.645 133.955 207.628 134.579 207.792C135.514 208.022 137.253 208.022 137.958 207.792C139.025 207.431 139.583 206.627 139.238 205.955C138.976 205.463 138.779 205.348 138.139 205.348C137.794 205.348 137.22 205.118 136.629 204.757C135.53 204.084 134.956 203.92 133.02 203.723C131.79 203.592 131.347 203.445 129.575 202.591C128.443 202.066 127.179 201.476 126.753 201.312C126.31 201.148 125.965 200.918 125.965 200.803C125.965 200.688 125.818 200.524 125.621 200.426C125.44 200.311 125.326 200.196 125.375 200.147C125.539 199.983 124.801 199.458 124.554 199.556C124.423 199.605 124.144 199.458 123.898 199.195C123.668 198.949 123.39 198.802 123.258 198.851C123.111 198.9 122.848 198.72 122.586 198.375C122.356 198.063 122.044 197.801 121.929 197.801C121.798 197.801 121.618 197.62 121.536 197.391C121.454 197.161 121.273 196.98 121.158 196.98C120.781 196.98 119.895 195.832 119.895 195.34C119.895 195.077 119.764 194.749 119.616 194.602C119.354 194.339 119.37 194.273 119.813 193.486C120.387 192.452 120.436 191.435 119.944 190.779C119.682 190.434 119.649 190.238 119.764 190.024C119.846 189.86 119.879 189.565 119.829 189.352C119.78 189.138 119.813 188.909 119.911 188.859C120.01 188.794 120.059 188.498 120.043 188.203C120.01 187.908 120.076 187.563 120.19 187.432C120.42 187.137 120.158 186.809 119.698 186.809C119.452 186.809 119.403 186.661 119.403 185.955C119.403 185.217 119.468 185.037 119.862 184.725L120.305 184.348L119.944 184.036C119.419 183.593 119.452 182.937 120.059 182.379C120.584 181.887 120.683 181.313 120.371 180.705C120.24 180.476 120.24 180.328 120.371 180.197C120.683 179.885 120.584 179.262 120.19 179.081C119.829 178.917 119.813 178.868 119.846 176.505C119.862 174.98 119.993 173.29 120.223 171.879C120.404 170.665 120.748 168.434 120.961 166.924C121.601 162.577 122.881 157.08 123.751 154.931C124.538 152.979 124.866 151.535 124.833 150.009C124.817 148.385 124.604 147.516 123.833 145.875C123.127 144.333 122.307 143.234 120.207 140.871C119.354 139.92 117.139 137.344 115.285 135.129C110.79 129.78 108.148 126.975 103.111 122.201C99.7646 119.034 98.895 118.132 98.895 117.804C98.895 117.509 98.5833 117.066 97.9271 116.377C97.0903 115.491 96.8607 115.097 96.2208 113.473C95.8107 112.439 95.4989 111.57 95.5153 111.537C95.5482 111.52 96.1716 111.947 96.9099 112.488C98.3864 113.604 98.8786 114.162 100.372 116.426C101.536 118.198 102.078 118.821 102.701 119.149C103.292 119.461 104.211 119.445 104.851 119.116C105.572 118.755 106.442 117.902 106.442 117.558C106.442 117.41 106.163 116.885 105.835 116.409C105.507 115.917 105.195 115.228 105.146 114.867C105.064 114.293 104.949 114.162 104.293 113.801C103.883 113.571 103.013 112.931 102.357 112.373C100.782 111.045 94.7935 106.927 92.9068 105.877C90.7083 104.663 87.6568 102.546 87.0169 101.791C86.6888 101.414 86.2786 100.627 86.0489 99.9539C85.8193 99.3141 85.5239 98.4938 85.3927 98.1328C85.245 97.7719 85.1302 96.968 85.1138 96.3609C85.1138 95.7047 85.0153 95.0484 84.8677 94.7695C84.7364 94.507 84.6708 94.0969 84.7036 93.8344C84.7528 93.5883 84.6872 92.3086 84.556 90.9961C84.4247 89.6836 84.3755 88.568 84.4411 88.4859C84.5068 88.4203 86.1802 87.9117 88.1653 87.3703C91.4794 86.468 91.8732 86.3859 93.3169 86.4188C95.4989 86.4516 95.4169 86.468 95.581 85.8609C95.7122 85.3523 95.7614 85.3195 97.681 84.8109L99.6333 84.2695L100.782 85.4016C102.16 86.7469 102.833 87.2227 103.358 87.2227C103.866 87.2227 106.114 84.7453 106.54 83.7281C106.803 83.0719 106.918 82.957 107.311 82.957C107.869 82.957 108.657 82.5633 108.788 82.2188C108.919 81.8906 110.101 81.8906 111.019 82.2188C111.626 82.432 111.79 82.432 112.283 82.2188C112.939 81.9563 113.119 81.6117 112.873 81.0867C112.709 80.7258 112.791 80.7094 118.32 79.2164C121.388 78.3797 123.997 77.707 124.111 77.707C124.21 77.707 124.325 77.8055 124.374 77.9039C124.423 78.068 124.505 78.0352 124.669 77.8383C124.801 77.6906 128.41 76.4438 133.381 74.8524C140.829 72.457 141.912 72.1453 142.224 72.3258C142.519 72.5063 142.601 72.4899 142.749 72.2602C142.913 72.0141 143.192 72.1289 145.489 73.2774C146.883 73.9992 148.803 75.0164 149.754 75.5578C150.706 76.1156 151.641 76.5586 151.838 76.5586C152.035 76.5586 154.217 75.7219 156.678 74.6883C169.114 69.5039 176.201 66.1242 182.403 62.3836C185.29 60.6445 189.622 57.8063 189.622 57.6586C189.622 57.4617 188.457 57.3633 184.043 57.1828C177.908 56.9367 172.428 57.1664 164.274 58.0359C157.58 58.7414 148.163 60.0211 147.671 60.3C147.49 60.382 146.883 61.2516 146.309 62.2359C145.472 63.6797 142.339 68.5852 142.109 68.8313C142.076 68.8641 141.945 68.7984 141.814 68.7C141.633 68.5359 141.535 68.5688 141.322 68.8641C141.108 69.1758 139.927 69.4711 132.38 71.1609C127.606 72.2274 123.537 73.0477 123.357 72.9984C123.111 72.9328 123.012 72.982 123.012 73.1625C123.012 73.4742 123.521 73.3102 116.154 75.3117L110.527 76.8375L109.756 75.6727C108.804 74.2289 108.378 73.9828 107.295 74.3109C106.803 74.4422 106.343 74.475 106.032 74.393C105.72 74.3109 105.458 74.3438 105.277 74.475C105.129 74.5734 104.637 74.918 104.211 75.2297C103.768 75.5414 103.128 76.05 102.8 76.3617L102.209 76.9359L101.356 76.2141C100.142 75.1969 99.256 74.0977 97.9107 71.9649C97.2544 70.9313 96.5653 69.8484 96.3685 69.5859C96.1552 69.307 95.8599 68.7 95.6958 68.2078C95.4169 67.3547 94.7114 66.3539 93.0872 64.5492C92.6278 64.0406 91.9388 63.2367 91.545 62.7445C91.1677 62.2688 89.8224 60.7758 88.5591 59.4141C86.3607 57.068 85.2778 55.5258 85.2778 54.7875C85.2778 54.3609 84.8841 53.9836 83.8997 53.4586C83.1286 53.032 83.0794 52.9664 82.8661 52.0641C82.538 50.5711 81.2747 48.4711 79.995 47.257C79.0927 46.4039 78.6989 46.1578 77.7966 45.8953C77.206 45.6984 76.6153 45.5508 76.5005 45.5508C76.3857 45.5508 76.2544 45.4524 76.2052 45.3375C76.0903 45.0422 76.3364 42.532 76.5497 41.7117C76.6482 41.3508 76.681 40.8422 76.6318 40.5797C76.5333 40.0711 76.7958 38.5945 77.1732 37.6758C77.7474 36.2156 77.9443 34.7555 78.0755 30.7031C78.1575 28.4391 78.2396 26.3719 78.256 26.1094C78.3052 25.4367 77.9114 22.3195 77.6982 21.5156C77.5997 21.1547 77.5341 20.7774 77.5505 20.6953C77.6818 20.3016 77.5341 18.907 77.3208 18.2672C77.1896 17.8899 77.0091 17.2172 76.9107 16.7578C76.0739 13.0008 72.7107 10.3594 68.8716 10.4578C68.0513 10.4742 67.2802 10.4086 66.9849 10.2774C66.2138 9.94923 63.5232 9.90001 62.4896 10.1953ZM77.5505 22.5492C77.5669 22.7625 77.5013 22.8774 77.4028 22.8281C77.3208 22.7789 77.2388 22.4508 77.2552 22.1227C77.2552 21.6305 77.288 21.5813 77.4028 21.8438C77.4849 22.0242 77.5505 22.3359 77.5505 22.5492ZM77.7802 27.6024C77.8786 28.1766 77.6325 33.4266 77.4028 35.2149C77.1568 37.2492 77.0747 37.5774 76.8778 37.3805C76.7466 37.2492 76.763 37.0524 76.8943 36.7242C77.0091 36.4617 77.0911 35.8055 77.0747 35.2805C77.0747 34.7391 77.1075 33.9024 77.1568 33.4102C77.206 32.918 77.2716 31.4414 77.3044 30.1289C77.3536 28.8164 77.3864 27.6188 77.3864 27.4547C77.4028 27.0281 77.6818 27.1266 77.7802 27.6024ZM74.4497 38.8078C74.3185 39.0703 74.3185 39.1524 74.4661 39.1524C74.6958 39.1524 74.5646 40.432 74.2693 40.9899C74.1216 41.3016 74.1216 41.3344 74.3021 41.1539C74.4169 41.0555 74.581 40.957 74.663 40.957C74.7614 40.957 74.7614 41.0391 74.663 41.1539C74.4825 41.4 74.1216 42.6305 74.138 42.9422C74.138 43.0734 74.2528 42.9094 74.3677 42.5977C74.6466 41.8758 74.6794 42.3024 74.4333 43.7461C74.3349 44.3367 74.2528 44.9438 74.2364 45.1078C74.22 45.3539 74.1216 45.3867 73.7114 45.2883C73.4489 45.2227 72.8091 45.1242 72.3169 45.075C71.4146 44.9766 71.4146 44.9766 71.2997 44.3203C71.2341 43.9594 71.1849 43.3359 71.1849 42.9258C71.1685 42.2203 71.2341 42.1219 72.2349 41.1211C72.8255 40.5469 73.3013 39.9891 73.3013 39.8906C73.3013 39.6609 74.4661 38.2828 74.5646 38.3977C74.6138 38.4305 74.5646 38.6274 74.4497 38.8078ZM72.9732 45.3867C73.1536 45.5016 73.1044 45.5344 72.7271 45.5344C72.4646 45.518 72.0544 45.4524 71.8247 45.3867C71.4638 45.2719 71.4966 45.2555 72.0708 45.2391C72.4318 45.2391 72.8419 45.3047 72.9732 45.3867ZM84.9661 54.4594C85.1302 54.7547 85.0646 54.7383 84.638 54.3445C84.0474 53.7867 83.9982 53.6719 84.4575 53.918C84.638 54.0164 84.8677 54.2461 84.9661 54.4594ZM52.4489 75.7383C52.4489 75.9024 52.3997 75.8695 52.3013 75.6563C52.1044 75.2133 52.1044 74.9508 52.3013 75.2461C52.3833 75.3774 52.4489 75.607 52.4489 75.7383ZM93.9403 77.6906C95.4497 78.4453 95.581 78.5602 96.1716 79.5117C96.5161 80.0695 96.7622 80.5453 96.7458 80.5617C96.713 80.5945 96.106 80.7586 95.4005 80.9555L94.1372 81.3L93.5302 80.1188C93.2185 79.4625 92.6935 78.5438 92.3982 78.068C91.4466 76.6078 91.6599 76.5422 93.9403 77.6906ZM53.0724 77.7399C53.0232 77.8711 52.9739 77.8219 52.9739 77.6414C52.9575 77.4609 53.0068 77.3625 53.056 77.4281C53.1052 77.4774 53.1216 77.625 53.0724 77.7399ZM87.8372 79.118C88.313 79.9219 88.9528 80.9883 89.2646 81.4805C89.5927 81.9727 89.8224 82.3992 89.806 82.432C89.7732 82.4484 88.8052 82.7273 87.6403 83.0555C86.4755 83.3672 85.4583 83.6461 85.3599 83.6789C85.0974 83.7773 85.1794 82.2352 85.4583 81.8086C85.6224 81.5461 85.7536 80.8406 85.8193 79.9547C85.9013 78.8555 85.9997 78.3961 86.2786 78.0188C86.4591 77.7563 86.7052 77.5594 86.8036 77.5922C86.9021 77.625 87.3614 78.2977 87.8372 79.118ZM53.5482 79.6102C53.6794 80.4141 53.8271 82.2516 53.8599 83.6953C53.9747 87.8953 54.1388 90.4547 54.27 90.0938C54.3685 89.8148 54.4177 89.8477 54.5982 90.3727C54.7458 90.7828 54.8771 90.9305 54.9591 90.7828C55.0411 90.6516 55.0904 90.75 55.1068 91.0289C55.1232 91.2914 55.1396 91.5703 55.156 91.6688C55.1724 91.8492 54.4013 92.1445 53.3513 92.3578C52.8591 92.4563 52.8427 92.4234 52.5638 91.5539C52.3997 91.0453 52.3177 90.6023 52.3669 90.5367C52.4161 90.4875 52.4654 90.5695 52.4654 90.7172C52.4654 90.8648 52.5474 90.9961 52.6294 90.9961C52.8099 90.9961 52.695 90.307 52.4161 89.7656C52.3177 89.5852 52.2193 88.6992 52.1864 87.7969C52.1536 86.7961 52.1864 86.2875 52.2685 86.4844C52.3833 86.7305 52.4489 86.55 52.5474 85.7461C52.6786 84.6961 52.6786 84.6961 52.8263 85.2539C52.9247 85.5656 52.9575 86.4516 52.9083 87.2227C52.7771 89.2898 53.0888 88.4367 53.3677 85.9102C53.5646 84.0234 53.5646 83.4492 53.3677 81.2672C53.2364 79.8891 53.1216 78.593 53.1216 78.3797C53.1216 77.625 53.3021 78.1664 53.5482 79.6102ZM119.895 181.411C119.895 181.493 119.829 181.559 119.731 181.559C119.649 181.559 119.567 181.444 119.567 181.296C119.567 181.165 119.649 181.099 119.731 181.148C119.829 181.198 119.895 181.313 119.895 181.411ZM108.854 193.404C108.804 193.535 108.755 193.486 108.755 193.305C108.739 193.125 108.788 193.027 108.837 193.092C108.886 193.141 108.903 193.289 108.854 193.404ZM34.8122 201.312C34.763 201.459 34.6482 201.574 34.5661 201.574C34.4677 201.574 34.4841 201.427 34.5825 201.23C34.7958 200.836 34.9763 200.902 34.8122 201.312Z" fill="black"/>
    </g>
    <defs>
        <filter id="filter0_d" x="0" y="0" width="209.622" height="228.145" filterUnits="userSpaceOnUse" color-interpolation-filters="sRGB">
            <feFlood flood-opacity="0" result="BackgroundImageFix"/>
            <feColorMatrix in="SourceAlpha" type="matrix" values="0 0 0 0 0 0 0 0 0 0 0 0 0 0 0 0 0 0 127 0"/>
            <feOffset dx="10"/>
            <feGaussianBlur stdDeviation="5"/>
            <feColorMatrix type="matrix" values="0 0 0 0 0.4 0 0 0 0 0.564706 0 0 0 0 0.45098 0 0 0 1 0"/>
            <feBlend mode="normal" in2="BackgroundImageFix" result="effect1_dropShadow"/>
            <feBlend mode="normal" in="SourceGraphic" in2="effect1_dropShadow" result="shape"/>
        </filter>
    </defs>
</svg>
