<svg width="150" height="150" viewBox="0 0 150 150" fill="none" xmlns="http://www.w3.org/2000/svg">
    <path d="M75 150C116.421 150 150 116.421 150 75C150 33.5786 116.421 0 75 0C33.5786 0 0 33.5786 0 75C0 116.421 33.5786 150 75 150Z" fill="black"/>
    <path d="M51.0474 54.4214L75.0005 129.703L39.4224 107.343L51.0474 54.3745L75.0005 21.6558V44.6245L39.4224 107.437H110.625L75.0005 44.5776V21.6089L99.0005 54.3745L110.625 107.343L75.0005 129.656L99.0005 54.3745" fill="black"/>
    <path d="M51.0474 54.4214L75.0005 129.703L39.4224 107.343L51.0474 54.3745L75.0005 21.6558V44.6245L39.4224 107.437H110.625L75.0005 44.5776V21.6089L99.0005 54.3745L110.625 107.343L75.0005 129.656L99.0005 54.3745" stroke="white" stroke-width="0.64" stroke-linecap="round" stroke-linejoin="round"/>
</svg>
