<svg width="206" height="247" viewBox="0 0 206 247" fill="none" xmlns="http://www.w3.org/2000/svg">
    <g filter="url(#filter0_d)">
        <mask id="path-1-inside-1" fill="white">
            <path d="M95.18 10.045C95.18 10.1183 96.3697 11.2714 97.7975 12.5894C103.582 17.8976 105.778 21.467 105.797 25.6404C105.815 30.3447 102.666 34.0605 97.3765 35.5797C96.5162 35.836 95.4728 36.0923 95.0518 36.1655L94.283 36.2936L93.9352 35.1404C93.6058 34.0605 93.5326 33.9689 92.8736 33.7859C92.3794 33.6578 91.995 33.3649 91.6106 32.8341C91.2445 32.3215 90.9699 32.1019 90.7869 32.1751C89.9815 32.5046 88.9015 32.4314 87.5653 31.9371C86.4121 31.5161 86.1376 31.3331 85.9179 30.8755C85.7715 30.5643 85.1308 28.1664 84.4902 25.5489C83.8312 22.9131 83.2272 20.5701 83.1356 20.3321C82.9526 19.8562 82.7695 20.3504 80.7195 26.8668C80.1154 28.8254 79.6944 29.8504 79.5297 29.8504C79.4015 29.8504 79.1819 30.1433 79.0721 30.4911C78.9073 30.9853 78.7609 31.1317 78.4314 31.1317C77.8823 31.1317 77.6443 30.8206 77.4979 29.8871C77.3514 28.9718 77.2416 29.0084 77.1135 29.9786C76.967 31.0036 76.2166 32.3948 75.6857 32.5961C75.3929 32.7059 75.0634 32.7059 74.7522 32.5961C74.0017 32.3032 73.8736 32.3582 73.1963 33.2734C72.0615 34.8109 71.9333 35.0672 71.9333 35.7445C71.9333 36.5499 72.0431 36.5316 69.4073 36.2387C62.653 35.5065 57.784 32.5229 55.862 27.9651C55.4593 26.9949 55.3861 26.5556 55.3861 24.9082C55.3678 22.8032 55.5875 21.9063 56.6491 19.783C57.5643 17.9526 59.1568 15.9391 61.9391 13.047C63.3302 11.6192 64.3736 10.4477 64.2272 10.4477C63.8794 10.4477 61.39 11.8572 59.5778 13.0836C54.2878 16.6712 51.4324 21.3572 51.4324 26.4641C51.4324 32.0104 54.1597 36.9709 58.9555 40.1375C61.9574 42.1327 64.8861 43.3774 67.6501 43.8716C69.2243 44.1645 69.389 44.2194 69.3341 44.5672C69.2975 44.8784 69.1327 44.9699 68.4555 45.0065C67.4304 45.0797 65.7647 44.7686 64.7397 44.3109C63.8062 43.8716 62.9641 43.835 62.9641 44.2194C62.9641 44.3659 63.2021 44.7686 63.5133 45.098C63.9892 45.6655 65.6366 48.704 65.4902 48.7772C65.2705 48.8871 64.0441 49.3264 63.4767 49.4911C62.9092 49.6558 62.7811 49.784 62.7445 50.2416C62.6713 50.9921 62.0855 51.2666 60.5663 51.2666C59.6327 51.2666 59.2483 51.1751 58.8823 50.9005C58.2599 50.4063 57.7657 50.4429 57.3264 50.9921C56.8688 51.5595 56.0085 51.5961 55.0017 51.0836L54.2878 50.7175L53.2994 51.1751L52.3293 51.6327L51.1029 51.0104C49.6934 50.2965 45.5383 48.704 45.1173 48.704C44.8977 48.704 44.8611 48.8321 44.9526 49.1982C45.2272 50.4063 46.2156 53.2801 46.6915 54.3601L47.2223 55.5499L46.7464 56.0441C46.3986 56.4102 46.2339 56.8129 46.1424 57.6183C46.0509 58.4053 45.8495 58.9179 45.3736 59.5951C44.678 60.5836 44.2936 61.5537 44.2936 62.2859C44.2936 62.5422 44.1655 62.9998 44.0191 63.2743C43.8726 63.5672 43.7445 63.9882 43.7445 64.2262C43.7445 64.4824 43.5798 64.7204 43.2869 64.8485C42.573 65.178 42.7927 65.5624 44.1106 66.3129C45.0258 66.8254 45.7031 67.0634 47.0393 67.283C47.9911 67.4294 49.0345 67.5942 49.3273 67.6491L49.8765 67.7406V69.8822C49.8765 71.9872 49.9131 72.1337 50.81 74.9709C51.6337 77.4969 52.1828 79.8764 52.2378 81.1944C52.2561 81.4506 52.1279 81.5788 51.7984 81.6154C51.0297 81.7252 50.6636 82.2011 50.7551 82.9333C50.7917 83.2811 50.7551 83.7753 50.6453 84.0316C50.4805 84.4709 50.1327 87.2531 50.1327 88.2416C50.1327 89.2666 50.1693 89.8158 50.2609 90.1269C50.3707 90.493 52.0181 91.3533 52.5855 91.3533C52.7869 91.3533 52.9699 91.5181 53.0248 91.7377C53.0981 91.9574 53.336 92.5065 53.574 92.9641C53.8119 93.4034 53.9767 93.8061 53.9584 93.8244C53.9218 93.8611 53.1896 93.7146 52.311 93.5133L50.7368 93.1472L50.4073 91.9391C50.0778 90.7493 49.4189 89.7059 48.9613 89.7059C48.8331 89.7059 48.467 89.9073 48.1742 90.1636C47.4786 90.7493 46.4719 91.1703 45.7763 91.1703C45.1539 91.1703 44.2936 91.5181 44.2936 91.7743C44.2936 91.8659 43.5248 92.7445 42.6096 93.7146C41.6761 94.6848 40.5229 95.9478 40.0287 96.5152C39.5528 97.1009 38.9304 97.6684 38.6559 97.7965C38.3813 97.9246 38.1433 98.2175 38.1067 98.4371C38.0701 98.6568 36.9536 99.8466 35.5258 101.201C34.153 102.519 32.7252 104.002 32.3774 104.496C32.0297 105.008 31.572 105.503 31.3524 105.612C31.1327 105.722 30.8948 106.015 30.8216 106.253C30.7667 106.509 30.5653 106.766 30.3823 106.821C30.2175 106.876 29.943 107.223 29.7965 107.608C29.6318 108.01 29.2474 108.468 28.8081 108.761C28.1674 109.2 27.9661 109.237 26.7763 109.164L25.4584 109.072L25.257 108.029C25.1289 107.461 24.3967 104.734 23.6096 101.97C22.1453 96.8081 16.9102 76.6366 14.7503 67.8321C14.073 65.1048 12.4622 59.3023 11.126 54.9275C9.20403 48.521 8.17899 45.519 5.90924 39.5518C4.35336 35.4699 2.99883 32.0653 2.90731 31.9738C2.81579 31.8822 2.68766 31.8639 2.61444 31.9188C2.54122 31.9921 2.79748 35.5248 3.18187 39.7897C3.78592 46.5258 4.04218 48.5576 5.23197 55.6597C5.96415 60.1443 7.11733 66.2763 7.77629 69.2965C10.0094 79.4005 14.073 99.0229 15.0065 104.148C15.5008 106.93 15.995 109.493 16.1048 109.841C16.1963 110.17 16.2695 110.463 16.2329 110.463C16.2146 110.481 15.4825 110.848 14.5855 111.287C12.9747 112.074 12.4439 112.623 12.4439 113.465C12.4439 113.666 12.3158 113.868 12.1694 113.941C12.0229 113.996 11.8948 114.234 11.8948 114.472C11.8948 114.875 11.785 114.929 10.6318 115.131C9.91791 115.241 8.72812 115.332 7.97764 115.332C6.84276 115.332 6.5682 115.387 6.42176 115.662C6.33024 115.826 5.7811 116.138 5.17706 116.339L4.1154 116.705L4.75606 116.815C5.19536 116.888 4.90249 116.943 3.89575 116.961C2.79748 116.98 2.35818 117.053 2.24835 117.236C2.10191 117.51 0.546037 118.243 0.0335128 118.279C-0.131227 118.297 0.326384 118.371 1.07687 118.444C1.80904 118.535 2.48631 118.682 2.55952 118.81C2.65105 118.975 3.01714 118.92 3.95066 118.627C4.90249 118.334 11.2907 117.181 12.0961 117.163C12.1694 117.163 12.2792 117.382 12.3341 117.639C12.4622 118.114 12.4805 118.114 13.5056 117.986L14.5489 117.858L14.1645 118.297C13.7984 118.682 13.7435 119.341 13.9998 120.201C14.0913 120.494 17.2397 120 18.1366 119.542C18.5393 119.323 19.0335 119.213 19.2166 119.268C19.546 119.377 19.5277 119.414 19.1067 120.036C18.3013 121.226 18.704 122.745 20.022 123.551C20.3514 123.752 20.7541 124.082 20.9372 124.283C21.3033 124.686 21.4131 124.612 19.6193 125.052C18.5942 125.308 17.9536 125.766 18.6308 125.766C18.8322 125.766 19.4362 125.674 19.9487 125.546C21.0287 125.29 21.23 125.436 21.23 126.443C21.23 127.175 21.7792 127.779 22.4198 127.779C22.8774 127.779 23.6096 128.347 23.6096 128.694C23.6096 128.951 24.9825 129.317 25.4767 129.189C26.1356 129.024 26.9044 128.347 26.9044 127.962C26.9044 127.706 27.2705 127.45 28.1308 127.029C28.9362 126.644 29.8697 125.967 30.7483 125.143C31.4988 124.429 32.5056 123.514 32.9815 123.148C34.4458 121.958 35.4526 119.945 34.7387 119.67C34.5923 119.615 34.7021 119.506 34.9767 119.359C35.416 119.158 35.5441 119.213 36.6973 120.091C37.4661 120.677 38.0701 121.007 38.3264 120.97C38.6742 120.915 38.7108 120.823 38.6559 120.036C38.5826 119.176 38.6193 119.103 39.4979 118.261C40.468 117.327 43.4699 115.698 44.2204 115.698C44.4584 115.698 45.2089 115.405 45.8861 115.039C46.8562 114.527 47.2406 114.417 47.7349 114.508C48.5769 114.673 48.9796 114.49 49.2358 113.868C49.4738 113.282 50.7734 112.22 51.2493 112.22C51.5056 112.22 53.0065 111.507 55.5326 110.134C56.0268 109.877 56.6125 109.658 56.8322 109.658C57.2532 109.658 57.8389 109.145 57.8389 108.761C57.8389 108.34 58.7175 107.644 59.2667 107.644C59.9988 107.644 62.5615 105.777 62.7079 105.137C62.7994 104.825 62.7262 104.441 62.5248 104.075C62.232 103.526 62.232 103.434 62.4699 102.94C62.6347 102.647 62.8909 102.281 63.0557 102.153C63.4401 101.823 63.8794 100.981 63.8794 100.542C63.8794 100.359 63.9892 100.048 64.1356 99.8649C64.3553 99.5537 64.4102 99.5903 64.8495 100.341C65.1058 100.78 65.4536 101.604 65.6 102.171C65.9295 103.434 66.3322 104.276 66.9362 104.935C67.1925 105.191 67.3572 105.503 67.284 105.594C67.2291 105.686 67.3938 106.033 67.6501 106.381C68.126 107.04 68.1443 107.809 67.6684 108.651C67.5586 108.852 67.4853 109.072 67.4853 109.127C67.5036 109.2 67.3206 109.438 67.0826 109.658C66.4603 110.244 66.4969 110.463 67.3572 111.14C68.2541 111.873 68.6385 112.879 68.309 113.721C68.1443 114.161 68.1626 114.307 68.4372 114.582C68.7484 114.893 68.73 114.929 68.1443 115.296C67.8148 115.515 67.3389 116.101 67.0826 116.595C66.8447 117.089 66.4054 117.675 66.1125 117.876C65.5451 118.261 65.3986 118.572 64.8678 120.329C64.5749 121.336 64.5749 121.464 64.8495 122.361C65.0325 122.892 65.1607 123.368 65.1607 123.423C65.1607 123.496 64.758 123.386 64.2455 123.185C63.7512 123.002 63.2204 122.892 63.074 122.947C62.5248 123.166 61.3167 126.37 61.3167 127.614C61.3167 128.072 61.1886 128.53 61.0239 128.713C60.7493 129.024 60.7493 129.115 61.0605 129.957C61.3717 130.836 61.3717 130.891 61.0422 131.623C60.8591 132.044 60.548 132.447 60.3832 132.557C60.2002 132.648 59.9988 133.014 59.9256 133.344C59.7975 134.076 59.706 134.112 57.3264 134.296C56.3929 134.35 55.6058 134.479 55.5509 134.552C55.5142 134.625 56.3562 135.101 57.4545 135.595L59.4314 136.51L59.5595 137.297C59.6327 137.718 59.889 138.341 60.1636 138.689C60.5846 139.256 60.6212 139.421 60.5114 140.318C60.4381 141.032 60.4747 141.526 60.6761 141.983C60.8225 142.349 60.9507 143.082 60.9507 143.612C60.9507 144.583 60.6578 145.187 59.5595 146.505C59.1385 146.999 59.1385 147.035 59.4131 147.694C60.0354 149.122 60.0904 149.049 57.8023 150.147C56.6674 150.715 55.3678 151.337 54.9102 151.538L54.0865 151.904L54.8187 152.087C55.2214 152.179 56.5942 152.527 57.8755 152.856L60.2002 153.46L60.31 154.156C60.4015 154.705 60.6578 155.053 61.573 155.84C62.1954 156.389 62.8726 157.158 63.0557 157.542C63.257 157.945 63.6231 158.531 63.8611 158.86C64.1905 159.318 64.3004 159.684 64.2821 160.233C64.2455 161.093 64.337 161.313 64.9044 161.606C65.3437 161.844 66.863 164.333 66.7166 164.571C66.6616 164.663 66.7166 164.937 66.8447 165.157C66.9545 165.395 67.1193 166.145 67.1925 166.823C67.3572 168.561 67.5586 168.726 69.1144 168.47C69.7734 168.36 70.3408 168.232 70.3774 168.195C70.4141 168.159 70.5422 167.719 70.6703 167.225C70.7801 166.713 70.9083 166.218 70.9449 166.09C70.9815 165.926 71.2011 165.944 71.8235 166.145C72.5008 166.383 72.6838 166.548 72.8485 167.06C72.9767 167.427 73.0316 167.719 72.995 167.756C72.0981 168.378 71.4025 169.056 71.3476 169.385C71.2744 169.788 71.8967 171.673 72.4275 172.717C72.5923 173.009 72.7753 173.394 72.8485 173.54C72.9218 173.687 73.1414 173.888 73.3611 173.998C73.6356 174.108 73.7638 174.346 73.7638 174.675C73.7638 174.968 73.9102 175.279 74.1482 175.426C74.3861 175.609 74.4959 175.847 74.4593 176.139C74.4044 176.506 74.1848 176.615 72.7021 177.018C71.7686 177.256 71.0364 177.549 71.073 177.659C71.1462 177.897 72.5008 178.574 73.7088 178.958C74.4959 179.215 74.679 179.361 74.7705 179.8C74.8437 180.075 75.1 180.478 75.3563 180.679C76.0701 181.246 76.2166 182.454 75.6491 183.37C75.4295 183.754 75.2281 184.12 75.2281 184.193C75.2281 184.267 75.5027 184.376 75.8322 184.431C76.3447 184.541 76.4179 184.614 76.4728 185.2C76.4911 185.548 76.6925 186.097 76.9121 186.39C77.2782 186.921 77.2782 186.976 77.0037 187.452C76.8389 187.726 76.7474 188.001 76.8206 188.074C76.8755 188.129 76.7657 188.184 76.546 188.184C76.0701 188.184 75.8505 188.513 76.125 188.788C76.2349 188.898 76.3264 189.136 76.3264 189.3C76.3264 189.483 76.4911 189.904 76.6925 190.252C76.8938 190.582 77.1318 191.387 77.2233 192.028C77.3514 193.016 77.3148 193.346 77.0403 193.986C76.8572 194.426 76.7657 194.773 76.8206 194.773C76.8938 194.773 76.7474 194.975 76.5277 195.213C76.0152 195.762 76.125 195.981 77.0586 196.256C77.626 196.421 77.7907 196.567 77.7907 196.878C77.7907 197.08 77.9189 197.428 78.0653 197.629C78.2117 197.812 78.3399 198.324 78.3399 198.745C78.3399 199.166 78.4131 199.569 78.5229 199.624C78.6327 199.679 78.706 199.935 78.706 200.173C78.706 200.411 78.7975 200.832 78.9256 201.088C79.0904 201.473 79.0904 201.656 78.9256 201.93C78.7975 202.132 78.7426 202.37 78.7975 202.461C78.8524 202.534 78.8158 202.809 78.7426 203.047C78.6327 203.322 78.6694 203.669 78.8158 204.017C78.9439 204.31 79.0537 204.969 79.0721 205.481C79.0721 206.269 78.9439 206.58 78.1568 207.806C77.6626 208.593 77.1684 209.582 77.0403 210.003C76.7474 211.119 76.125 212.291 75.1915 213.444C74.7522 213.993 74.0017 214.927 73.5258 215.531C72.757 216.482 72.6838 216.665 72.7753 217.27C72.8668 217.819 72.757 218.112 72.1347 219.082C71.0181 220.784 70.7984 221.406 70.652 223.328C70.5422 224.683 70.5605 225.177 70.7618 225.561C71.0913 226.184 71.8967 226.623 72.7387 226.623C73.2512 226.623 73.5075 226.77 74.1115 227.392C74.8254 228.142 74.8986 228.179 75.9969 228.197C76.6742 228.197 77.1501 228.289 77.205 228.417C77.2416 228.545 77.0586 229.094 76.8023 229.662C76.5277 230.247 76.3264 231.034 76.3264 231.455C76.3264 232.096 76.4362 232.334 77.022 232.902C78.3216 234.183 82.495 235.556 86.8514 236.141C87.7667 236.27 88.9381 236.434 89.469 236.507C90.6221 236.672 92.0133 236.416 92.5258 235.958C92.7272 235.775 93.0749 235.537 93.2946 235.428C93.5326 235.318 93.8437 234.952 94.0085 234.64C94.2647 234.128 94.283 233.89 94.0817 232.81C93.8803 231.657 93.8986 231.51 94.2647 230.742L94.6674 229.918L94.3013 228.856C94.0817 228.289 93.7888 227.465 93.6424 227.044C93.2946 226.074 93.2214 224.445 93.5143 223.896C93.9352 223.145 93.6058 221.919 92.6539 220.692C91.6106 219.356 91.3726 218.166 91.7936 216.501C91.9401 215.915 92.0682 215.146 92.0682 214.798C92.0682 214.268 92.1231 214.176 92.4892 214.176C92.7272 214.176 93.4227 213.81 94.0451 213.352C95.0701 212.602 95.18 212.455 95.18 211.87C95.18 211.522 95.2715 211.046 95.3813 210.845C95.4911 210.643 95.7474 209.82 95.9304 209.014C96.3331 207.367 96.7724 206.397 97.4497 205.774C97.706 205.518 97.9256 205.17 97.9256 204.987C97.9256 204.603 98.3832 204.402 99.6645 204.218C101.074 204.017 101.989 203.743 101.916 203.523C101.879 203.431 101.111 202.955 100.214 202.498C98.5663 201.638 98.5663 201.638 98.4381 200.814C98.3649 200.356 98.2551 199.716 98.1819 199.404C98.0904 198.892 98.1453 198.727 98.6578 198.251C99.152 197.794 99.2252 197.592 99.152 197.098C99.0971 196.732 99.1886 196.256 99.4083 195.835C99.6096 195.451 99.7561 194.902 99.7561 194.59C99.7561 193.858 100.086 193.254 101.092 192.028L101.916 191.039L101.568 190.161C101.385 189.666 101.22 189.044 101.22 188.751C101.22 188.312 101.349 188.202 102.209 187.836C103.765 187.195 103.82 186.994 102.612 186.463C102.044 186.207 101.587 185.914 101.587 185.823C101.587 185.713 101.916 184.999 102.3 184.23C102.978 182.93 103.087 182.821 104.113 182.326C105.815 181.521 105.778 181.393 103.746 181.137C103.087 181.045 102.868 180.935 102.868 180.716C102.868 180.551 102.74 180.258 102.593 180.057C102.447 179.874 102.282 179.343 102.209 178.867C102.008 177.457 101.349 176.377 100.488 176.03C100.086 175.865 99.5913 175.737 99.4083 175.737C99.152 175.737 98.969 175.481 98.731 174.767C98.5663 174.254 98.2002 173.485 97.9439 173.083C97.0104 171.673 96.6443 170.465 96.6443 168.781C96.6443 167.921 96.6992 166.804 96.7541 166.273L96.8823 165.34L97.8158 165.431C98.7127 165.523 98.8042 165.505 99.2618 164.937C99.6096 164.534 99.7561 164.15 99.7561 163.674V162.979L101.184 164.37C103.142 166.292 104.46 167.17 105.577 167.28C106.089 167.317 106.529 167.28 106.602 167.17C106.657 167.06 106.547 166.621 106.364 166.164C106.016 165.358 105.76 163.784 105.412 160.27C105.211 158.238 104.955 157.048 104.131 154.54L103.563 152.856L104.314 149.964C104.717 148.39 105.192 146.523 105.339 145.827C105.504 145.113 105.833 144.07 106.089 143.484C106.401 142.825 106.529 142.276 106.455 142.002C106.401 141.764 106.584 140.629 106.876 139.476C107.737 136.108 107.755 134.991 107.078 128.969C106.84 126.791 106.382 124.484 106.089 124.027C105.961 123.825 105.632 123.002 105.339 122.196C104.808 120.695 104.058 119.762 102.3 118.426C101.367 117.712 100.799 116.43 100.744 114.875C100.726 114.179 100.69 113.538 100.69 113.465C100.671 113.41 100.269 113.209 99.7561 113.044L98.8408 112.733V111.854C98.8408 111.067 98.9141 110.902 99.5913 110.225C100.25 109.566 100.342 109.402 100.232 108.889C100.14 108.45 100.232 108.193 100.58 107.717C100.836 107.388 101.037 107.04 101.037 106.949C101.037 106.857 101.202 106.638 101.403 106.454C101.678 106.198 101.715 106.052 101.568 105.777C101.422 105.484 101.477 105.283 101.843 104.734C102.099 104.368 102.319 103.965 102.319 103.837C102.319 103.709 102.666 103.27 103.069 102.849C103.49 102.409 104.332 101.476 104.936 100.78C106.089 99.4256 108.103 97.5402 108.762 97.1925C109.091 97.0094 109.201 97.046 109.402 97.3206C110.043 98.1626 110.025 98.2358 109.091 99.2792C108.615 99.8466 108.139 100.506 108.085 100.725C108.011 100.963 107.865 101.256 107.755 101.402C107.499 101.714 107.06 102.885 107.041 103.251C107.041 103.398 106.95 103.8 106.858 104.148C106.693 104.661 106.73 104.899 106.986 105.375C107.279 105.942 107.297 106.033 107.005 106.729C106.492 107.992 106.62 109.731 107.371 112.092C108.048 114.197 108.634 115.405 109.274 115.973C109.457 116.138 109.677 116.522 109.732 116.815C109.805 117.108 110.043 117.474 110.281 117.639C110.72 117.931 112.478 120.915 113.008 122.288C113.192 122.727 113.375 123.441 113.411 123.844C113.466 124.246 113.594 124.667 113.704 124.796C113.814 124.924 113.832 125.381 113.759 125.912L113.649 126.809L114.528 127.12C115.004 127.303 115.663 127.505 115.955 127.578C116.614 127.724 116.614 127.852 116.193 131.019C115.901 133.161 115.718 133.563 114.601 134.625C114.29 134.936 114.034 135.284 114.034 135.412C114.034 135.705 113.869 135.705 113.301 135.376C112.661 135.009 112.386 135.046 112.386 135.485C112.386 135.943 112.679 136.51 113.173 137.06L113.539 137.481L113.063 137.92C112.789 138.176 112.569 138.524 112.569 138.707C112.569 139.073 111.672 141.05 111.05 142.057C110.83 142.404 110.629 142.77 110.611 142.88C110.592 142.972 110.281 143.869 109.915 144.857C109.201 146.852 109.091 147.914 109.567 147.914C109.732 147.914 110.574 147.164 111.453 146.248L113.027 144.601L113.704 144.876L114.363 145.168L114.088 146.303C113.887 147.09 113.796 148.317 113.796 150.111C113.796 152.508 113.85 152.893 114.29 154.138C114.894 155.84 115.772 157.176 116.871 158.091C117.621 158.695 117.713 158.842 117.621 159.336C117.566 159.647 117.511 161.844 117.493 164.223L117.456 168.543L116.981 168.433C116.413 168.269 116.395 168.14 115.846 164.205L115.443 161.185L114.546 160.233C114.07 159.72 113.667 159.135 113.667 158.97C113.667 158.787 113.613 158.695 113.558 158.75C113.503 158.823 113.466 161.185 113.484 164.04C113.503 169.586 113.594 170.428 114.546 173.174C114.93 174.309 115.187 174.73 116.029 175.554L117.054 176.56V178.208C117.054 179.105 117.127 180.057 117.218 180.295C117.365 180.716 117.347 180.716 116.523 180.606C116.047 180.533 115.406 180.349 115.077 180.221C114.455 179.965 112.99 178.647 112.624 178.025C112.24 177.366 112.569 179.471 113.246 181.96C114.345 186.024 115.608 188.165 117.237 188.678C117.749 188.843 117.804 188.953 117.987 190.051C118.097 190.71 118.372 191.552 118.61 191.918C118.976 192.522 118.994 192.632 118.756 192.87C118.61 193.016 117.969 193.199 117.31 193.272C115.937 193.437 114.857 193.089 113.905 192.174L113.32 191.607L113.667 192.742C114.308 194.883 116.029 198.05 117.292 199.368C118.536 200.704 119.232 200.997 120.403 200.649C120.971 200.484 121.008 200.503 121.245 201.07C121.374 201.4 121.795 201.967 122.161 202.315C122.82 202.955 122.82 202.955 122.545 203.596C122.216 204.402 120.824 205.665 119.964 205.939C119.305 206.159 118.042 206.122 117.438 205.848C117.109 205.701 117.109 205.719 117.438 206.232C118.207 207.458 119.507 208.776 120.733 209.6C121.868 210.387 122.179 210.497 123.314 210.607C124.705 210.753 125.181 210.607 126.279 209.673L126.865 209.179L127.597 209.783C128.055 210.131 128.75 210.46 129.373 210.607C129.94 210.753 130.434 210.936 130.471 211.046C130.508 211.156 130.727 211.522 130.947 211.851C131.203 212.236 131.313 212.584 131.24 212.73C131.166 212.876 131.038 213.188 130.965 213.444L130.837 213.902L131.368 213.389C132.265 212.565 132.375 212.693 132.228 214.451C132.155 215.311 132.155 216.007 132.21 216.007C132.375 216.007 133.18 214.377 133.326 213.755C133.491 213.078 133.839 213.206 134.04 214.011C134.187 214.56 134.223 214.597 134.37 214.268C134.443 214.066 134.516 213.737 134.516 213.535C134.553 212.986 135.505 212.529 136.658 212.529H137.646V213.389C137.646 214.67 138.104 217.05 138.58 218.203C139.55 220.601 141.069 221.864 142.955 221.864C144.455 221.864 145.426 221.388 146.652 220.052C148.263 218.313 149.489 215.402 149.874 212.437L150.002 211.357L150.478 212.272C150.807 212.913 150.935 213.389 150.88 213.828L150.807 214.451L151.265 213.902L151.741 213.352V214.579C151.741 215.274 151.814 215.823 151.887 215.823C152.088 215.823 152.656 214.615 152.656 214.176C152.656 213.975 152.747 213.81 152.839 213.81C152.949 213.81 153.022 213.956 153.022 214.121C153.022 214.377 153.059 214.396 153.187 214.194C153.48 213.737 154.285 214.506 154.322 215.274C154.376 216.391 154.395 216.464 154.523 216.665C154.614 216.794 154.578 217.306 154.486 217.837C154.376 218.368 154.303 219.008 154.303 219.283C154.322 219.722 154.34 219.741 154.56 219.429C154.871 219.027 155.402 219.21 155.402 219.722C155.402 220.088 155.402 220.088 155.676 219.741C155.987 219.356 155.987 219.265 155.603 221.223C155.511 221.718 155.383 222.505 155.328 222.962C155.255 223.731 155.255 223.768 155.511 223.42C155.676 223.218 156.006 222.651 156.244 222.175C156.719 221.242 157.049 221.15 157.25 221.882C157.342 222.267 157.397 222.175 157.69 221.297C158.001 220.326 158.037 220.29 158.568 220.363C159.575 220.509 159.941 219.411 159.245 218.295C158.934 217.782 158.916 217.672 159.154 217.581C159.3 217.526 159.648 217.562 159.904 217.654C161.003 218.075 163.126 217.379 164.206 216.244C166.256 214.121 166.695 210.57 165.396 206.818C165.011 205.719 164.993 205.555 165.249 205.665C165.414 205.738 165.689 205.829 165.853 205.884C166.018 205.939 166.256 206.195 166.402 206.452L166.622 206.946L166.75 206.397L166.86 205.848L167.153 206.397C167.318 206.69 167.665 207.147 167.94 207.403L168.434 207.861L168.288 207.312C168.233 207.001 168.05 206.488 167.922 206.14C167.629 205.427 167.702 205.225 168.123 205.573C168.508 205.902 168.672 205.683 168.361 205.244C167.995 204.713 168.16 203.23 168.617 202.992C168.874 202.864 169.038 202.864 169.24 203.029C169.441 203.193 169.496 203.193 169.496 203.01C169.496 202.846 169.624 202.882 169.899 203.12L170.283 203.468L170.137 202.827C170.063 202.48 169.954 201.857 169.88 201.454C169.807 201.052 169.642 200.539 169.533 200.32C169.276 199.862 169.24 199.166 169.478 199.166C170.1 199.166 172.242 203.102 172.242 204.273C172.26 204.731 172.26 204.731 172.534 204.383C172.681 204.182 173.01 203.358 173.248 202.553C173.816 200.594 173.633 199.148 172.644 198.013C172.022 197.318 172.626 197.574 174.145 198.654C175.024 199.295 176.049 200.008 176.415 200.246L177.092 200.686L176.726 200.246C176.543 200.008 175.921 199.331 175.353 198.727L174.347 197.665L175.262 198.324C175.774 198.691 176.671 199.331 177.275 199.734C178.355 200.466 178.355 200.448 176.543 198.672C175.536 197.684 174.072 196.274 173.267 195.542C171.839 194.224 171.839 194.224 172.059 193.657C172.223 193.272 172.388 193.144 172.589 193.218C174.182 193.803 177.641 196.823 178.355 198.233L178.776 199.057L178.904 198.471C179.252 196.897 178.154 192.815 176.836 190.875C175.774 189.3 174.603 188.495 171.656 187.36C170.137 186.774 169.862 186.61 169.862 186.262C169.862 185.896 169.935 185.859 170.649 185.914C175.481 186.298 178.52 186.829 180.9 187.726C181.577 187.982 182.291 188.184 182.474 188.184C182.657 188.184 183.297 188.422 183.883 188.733C184.469 189.026 184.981 189.282 185 189.282C185.018 189.282 184.908 189.044 184.762 188.751C184.286 187.799 181.376 184.889 179.783 183.791C178.264 182.711 175.573 181.521 173.633 181.027L172.736 180.807L173.175 180.459L173.614 180.112L173.212 180.203C172.974 180.258 172.626 180.368 172.406 180.423C172.205 180.478 171.784 180.423 171.491 180.313C170.942 180.075 170.942 180.002 171.271 179.068C171.418 178.72 171.125 178.812 170.667 179.233C170.283 179.599 170.173 179.617 169.423 179.398C168.636 179.178 168.599 179.16 168.215 177.915C167.977 177.219 167.739 176.652 167.665 176.652C167.592 176.652 167.409 177.165 167.263 177.787C167.007 178.922 166.988 178.94 166.311 178.995C165.762 179.05 165.56 178.958 165.268 178.592C165.066 178.318 164.718 178.025 164.517 177.915C164.188 177.732 164.151 177.75 164.261 178.025C164.627 178.977 164.609 179.215 164.169 179.215C163.931 179.215 163.382 179.013 162.961 178.757C162.138 178.299 161.973 178.336 162.449 178.849C162.723 179.141 162.559 179.178 160.216 179.251C158.019 179.343 157.525 179.416 156.408 179.855C154.56 180.587 152.217 182.363 151.631 183.443L151.393 183.937L152.162 183.718C152.711 183.553 153.882 183.534 156.317 183.626C159.685 183.754 162.302 184.193 165.67 185.182C167.153 185.621 166.732 186.17 164.92 186.17C163.327 186.17 159.538 185.603 158.733 185.255C158.275 185.054 157.873 184.907 157.836 184.962C157.745 185.054 159.3 186.06 161.076 187.086C163.382 188.403 166.091 190.069 166.366 190.307C166.512 190.454 165.744 190.106 164.627 189.557C162.522 188.513 161.479 188.22 162.357 188.934C162.613 189.136 163.364 189.721 164.06 190.216C164.737 190.728 165.286 191.167 165.286 191.204C165.286 191.241 164.828 191.076 164.279 190.838C163.73 190.582 163.272 190.417 163.272 190.472C163.272 190.508 163.895 191.003 164.645 191.57C165.396 192.119 166.018 192.632 166.018 192.687C166.018 192.815 165.725 192.632 164.938 192.046L164.316 191.57L164.554 192.028C164.682 192.284 165.03 192.778 165.304 193.144C165.597 193.51 165.835 193.986 165.835 194.206C165.835 194.407 166.073 194.755 166.384 194.993C166.933 195.396 167.849 196.75 167.849 197.135C167.849 197.501 167.409 197.336 166.97 196.823L166.549 196.329L166.677 196.787L166.787 197.244L166.311 196.805C165.762 196.293 165.707 196.494 166.11 197.482C166.274 197.849 166.348 198.343 166.293 198.581C166.238 198.837 166.293 199.203 166.439 199.423C166.878 200.1 166.952 200.741 166.64 201.015C166.384 201.217 166.293 201.18 166 200.814L165.652 200.356V200.796C165.652 201.198 165.597 201.162 164.92 200.429C164.133 199.551 164.041 199.624 164.462 200.814C164.828 201.857 164.81 202.04 164.334 201.619C163.95 201.271 163.95 201.271 164.078 201.729C164.243 202.315 164.243 202.37 164.224 203.358L164.188 204.182L163.657 203.34C162.302 201.217 159.85 199.148 158.678 199.166C156.976 199.203 156.189 201.93 156.097 208.099C156.06 210.387 156.024 210.881 155.804 210.79C155.676 210.735 155.402 210.698 155.2 210.698C154.999 210.698 154.852 210.57 154.852 210.369C154.852 210.204 154.688 209.783 154.486 209.454C154.175 208.941 154.139 208.74 154.285 208.191L154.468 207.532L153.974 208.026C153.681 208.282 153.388 208.502 153.315 208.502C153.242 208.502 153.187 208.154 153.205 207.715C153.242 207.294 153.242 206.653 153.223 206.305L153.168 205.665L152.729 206.58C152.491 207.074 152.29 207.678 152.29 207.898C152.29 208.465 151.997 208.428 151.85 207.861C151.704 207.275 151.375 207.44 151.375 208.099C151.356 208.392 151.1 208.886 150.734 209.307L150.093 210.021L150.075 209.49C150.038 208.044 149.562 205.591 149.087 204.456C148.098 202.022 146.524 200.631 144.767 200.631C142.552 200.631 140.612 202.315 139.22 205.463C138.726 206.598 138.012 208.959 138.012 209.527C138.012 210.241 137.774 210.369 136.859 210.131C136.383 210.021 135.999 209.82 135.999 209.691C135.999 209.563 135.834 209.27 135.651 209.014C135.358 208.648 135.322 208.428 135.45 207.898C135.614 207.147 135.486 207.019 135.12 207.586C134.992 207.788 134.772 207.953 134.626 207.953C134.425 207.953 134.351 207.641 134.315 206.635L134.26 205.298L133.711 206.433C133.418 207.074 133.107 207.586 133.034 207.586C132.979 207.586 132.85 207.312 132.777 207.001L132.649 206.397L132.429 206.909L132.228 207.403L131.587 206.744C131.258 206.397 130.581 205.848 130.105 205.536C129.153 204.932 129.135 204.914 129.428 204.164C129.537 203.889 129.684 202.955 129.757 202.095C129.885 200.741 129.849 200.246 129.409 198.251C129.135 196.988 128.842 195.597 128.769 195.139C128.622 194.169 128.329 193.529 128.311 194.133C128.311 194.718 127.103 197.428 126.371 198.544C126.005 199.093 125.693 199.533 125.657 199.533C125.62 199.533 125.382 199.166 125.126 198.709L124.668 197.885L125.181 196.823C125.474 196.256 125.822 195.359 125.986 194.865C126.352 193.712 126.664 190.527 126.664 188.111C126.645 186.317 126.645 186.28 126.352 186.811C125.675 188.074 123.479 190.38 122.966 190.38C122.875 190.38 122.82 190.106 122.801 189.776C122.801 189.465 122.692 188.861 122.563 188.458C122.362 187.744 122.362 187.726 123.277 186.5C123.863 185.713 124.357 184.816 124.613 184.029C124.998 182.802 125.785 179.306 126.005 177.805L126.114 177.055L125.053 178.098C123.955 179.215 123.277 179.636 122.362 179.837L121.813 179.947L121.831 178.299L121.868 176.652L122.655 176.048C123.607 175.334 124.613 173.595 125.291 171.435C125.675 170.245 125.822 169.129 126.114 165.395C126.316 162.869 126.481 160.562 126.481 160.27V159.72L126.133 160.27C125.95 160.581 125.492 161.075 125.126 161.368C124.467 161.899 124.449 161.972 123.826 164.937C123.479 166.603 123.149 168.14 123.094 168.36C123.021 168.671 122.856 168.781 122.472 168.781C121.959 168.781 121.959 168.781 122.087 167.921C122.179 167.427 122.289 165.212 122.362 162.997L122.49 158.933L123.186 158.549C124.192 157.981 125.254 156.627 125.84 155.163C126.243 154.119 126.352 153.497 126.426 151.74C126.572 148.793 126.096 146.065 124.906 142.935C124.577 142.075 124.577 142.057 124.98 141.636C125.254 141.343 125.382 140.977 125.382 140.446C125.382 139.695 125.401 139.695 126.279 139.421C128.476 138.762 129.043 138.011 128.421 136.529C128.219 136.071 128.183 135.504 128.256 134.497C128.384 132.813 128.073 131.092 127.451 130.031C127.121 129.463 127.03 129.097 127.121 128.731C127.176 128.438 127.121 127.962 126.975 127.614C126.792 127.193 126.755 126.791 126.865 126.26C127.231 124.448 127.542 121.794 127.451 121.336C127.396 121.025 127.506 120.586 127.78 120.11C128.183 119.377 128.183 119.359 127.853 118.737C127.524 118.133 127.524 118.078 127.927 115.918C128.238 114.252 128.311 113.337 128.238 112.111C128.183 111.214 128.055 108.706 127.927 106.546C127.725 102.647 127.725 102.611 127.213 102.043C126.773 101.531 126.718 101.348 126.792 100.634C126.883 99.9015 126.847 99.7917 126.462 99.5903C126.224 99.4622 125.62 99.0961 125.108 98.7483C124.412 98.2724 123.918 98.1077 123.039 98.0162C121.959 97.888 121.85 97.8331 121.245 97.1192C120.55 96.2589 120.458 95.6366 120.898 94.5932C121.044 94.2271 121.172 93.4767 121.172 92.9458C121.172 91.2984 121.3 90.9506 122.179 90.4198C122.838 89.9988 122.966 89.8158 123.039 89.23C123.113 88.6809 123.058 88.4246 122.765 88.1135C122.527 87.8389 122.435 87.5643 122.527 87.2715C122.6 86.9603 122.508 86.6674 122.252 86.3379C122.051 86.0816 121.941 85.7705 121.996 85.679C122.069 85.5691 122.014 85.3495 121.886 85.1847C121.758 85.0383 121.666 84.6356 121.703 84.2878C121.721 83.9034 121.593 83.4092 121.3 82.8967C121.044 82.4574 120.788 81.8167 120.733 81.4689C120.605 80.7551 120.989 78.5585 121.447 77.2589C121.612 76.8013 121.703 76.2705 121.648 76.0874C121.593 75.8861 121.85 74.9892 122.197 74.0923C123.021 72.0056 123.277 69.9371 122.929 68.4179L122.692 67.3745L124.339 66.5325C126.316 65.5258 127.689 64.6289 129.007 63.4391C130.508 62.0845 130.636 61.4256 129.482 60.8764C129.116 60.7117 128.787 60.4371 128.75 60.2724C128.695 60.1077 128.567 59.8148 128.476 59.6501C128.384 59.467 128.311 59.046 128.311 58.6799C128.311 58.1674 128.219 58.0027 127.762 57.7647C127.469 57.6 127.213 57.362 127.213 57.1973C127.213 57.0508 126.92 56.5017 126.572 55.9709C126.133 55.3119 125.931 54.8177 125.931 54.3601C125.931 53.8109 125.803 53.573 125.291 53.1154L124.632 52.5479L125.089 51.047C125.51 49.6375 125.931 47.679 126.206 45.8119C126.316 45.1712 126.279 45.0431 126.023 45.0431C125.62 45.0431 122.087 46.9285 120.074 48.2098L118.518 49.2165L117.951 48.8687C117.273 48.466 116.633 48.4294 116.157 48.7955C115.974 48.942 115.406 49.1982 114.93 49.3447C114.052 49.6375 114.034 49.6375 113.448 49.1982L112.862 48.7223L112.13 49.1616C111.178 49.6924 109.457 50.0585 108.469 49.9121C107.883 49.8206 107.627 49.6558 107.297 49.1616C107.078 48.8138 106.73 48.521 106.547 48.521C106.364 48.521 105.87 48.3928 105.449 48.2464C105.028 48.1 104.57 48.0267 104.424 48.0816C104.277 48.1549 104.021 48.6674 103.856 49.2348C103.692 49.8023 103.325 50.5894 103.051 50.9921C102.538 51.7242 102.538 51.7608 102.52 54.9275C102.502 59.5585 102.666 59.046 101.111 59.0643L99.7744 59.1009L99.39 57.4169C99.1703 56.5017 98.9141 55.3851 98.8225 54.9458C98.731 54.4882 98.548 53.994 98.4015 53.8475C98.1819 53.573 97.8707 52.731 97.8341 52.2734C97.8341 52.1635 97.6511 51.8707 97.4131 51.6327C96.9372 51.1202 96.9189 50.9738 97.2667 50.8456C97.706 50.6626 99.8842 47.1847 100.195 46.178C100.342 45.6472 100.598 45.0431 100.744 44.8235C101.111 44.3109 101.111 43.7801 100.781 43.652C100.635 43.5971 99.7927 43.7984 98.8958 44.0913C96.6626 44.8601 95.6193 44.9882 95.3813 44.5306C95.2166 44.2194 95.3447 44.1645 96.7907 43.8716C100.616 43.0845 105.723 39.625 107.773 36.4583C110.409 32.3764 110.903 26.8485 109.073 22.2175C107.847 19.124 104.955 15.7011 101.678 13.4497C99.2984 11.8206 95.18 9.66066 95.18 10.045ZM115.315 142.331C115.187 142.496 115.04 142.569 114.985 142.514C114.93 142.478 115.004 142.313 115.132 142.148C115.26 141.983 115.406 141.91 115.461 141.965C115.516 142.002 115.443 142.166 115.315 142.331ZM122.984 143.741C123.991 146.139 124.595 150.239 124.247 152.454C124.028 153.918 123.424 155.309 122.673 156.096C122.033 156.792 121.721 156.847 121.282 156.352C120.77 155.803 120.129 155.73 119.287 156.133C118.591 156.481 118.536 156.481 118.134 156.188C117.585 155.767 116.706 154.266 116.322 153.058C115.919 151.849 115.864 148.738 116.212 146.999L116.431 145.791L118.207 145.754C119.928 145.718 120.806 145.443 120.806 144.967C120.806 144.692 122.252 142.972 122.472 142.972C122.563 142.972 122.801 143.32 122.984 143.741ZM120.879 161.642C120.806 162.905 120.696 164.498 120.623 165.212C120.495 166.383 120.495 166.42 120.458 165.578C120.403 163.162 120.202 161.642 119.964 161.642C119.818 161.642 119.708 161.661 119.708 161.679C119.69 162.228 119.14 166.127 119.067 166.182C118.994 166.273 119.049 161.551 119.14 159.629C119.159 159.428 119.378 159.354 120.074 159.354H121.008L120.879 161.642ZM120.403 172.167C120.44 172.662 120.422 173.247 120.349 173.485C120.257 173.87 120.147 173.925 119.561 173.87C118.921 173.815 118.884 173.778 118.829 173.083C118.793 172.698 118.811 172.094 118.884 171.783C118.976 171.216 119.031 171.179 119.671 171.234C120.349 171.27 120.349 171.27 120.403 172.167ZM120.349 177.402C120.422 177.622 120.422 178.226 120.349 178.775C120.239 179.709 120.202 179.764 119.708 179.764C119.415 179.764 119.067 179.819 118.921 179.874C118.61 179.983 118.445 179.013 118.573 177.787L118.665 177.018H119.452C120.092 177.018 120.257 177.091 120.349 177.402ZM167.08 182.143C166.97 182.546 166.824 182.875 166.732 182.875C166.64 182.875 166.311 182.638 165.981 182.326C165.469 181.869 165.414 181.759 165.652 181.594C165.798 181.503 166.219 181.411 166.586 181.411H167.263L167.08 182.143ZM170.338 183.04C170.1 183.406 169.862 183.242 169.862 182.747C169.862 182.29 169.88 182.271 170.155 182.546C170.32 182.711 170.393 182.93 170.338 183.04ZM120.477 182.967C120.55 183.059 120.623 183.681 120.623 184.34V185.53L119.909 185.548C119.232 185.585 119.195 185.548 119.086 184.907C118.957 184.139 118.939 182.967 119.049 182.857C119.214 182.711 120.349 182.784 120.477 182.967ZM121.191 189.099C121.264 189.355 121.319 189.849 121.337 190.197C121.355 190.783 121.282 190.893 120.715 191.149C120.074 191.442 120.056 191.442 119.818 190.948C119.671 190.691 119.525 190.087 119.507 189.648C119.452 188.861 119.47 188.824 119.982 188.715C120.824 188.532 121.062 188.605 121.191 189.099ZM122.618 194.664C122.893 195.762 122.875 196.476 122.6 196.366C122.472 196.329 122.124 196.366 121.85 196.439C121.264 196.604 121.136 196.402 120.898 194.993C120.788 194.279 120.806 194.224 121.209 194.224C121.429 194.224 121.758 194.133 121.904 194.041C122.344 193.767 122.399 193.803 122.618 194.664ZM124.101 199.935L124.449 200.722L124.009 201.18L123.552 201.638L123.113 201.18C122.399 200.448 122.344 199.862 122.948 199.496C123.662 199.057 123.717 199.075 124.101 199.935ZM160.435 202.168C160.984 202.699 161.662 203.541 161.973 204.017L162.522 204.877L162.138 205.408C161.808 205.829 161.79 205.976 161.991 206.214C162.119 206.36 162.485 206.488 162.797 206.488C163.327 206.488 163.419 206.561 163.693 207.349C164.718 210.296 164.426 213.169 162.925 214.78C161.826 215.988 160.875 216.098 159.904 215.183C159.52 214.835 159.154 214.542 159.081 214.542C159.008 214.542 158.806 214.249 158.623 213.883C158.349 213.297 158.349 213.169 158.568 212.913C159.355 212.016 159.3 211.138 158.403 210.735C157.818 210.46 157.708 209.673 157.854 206.891C158.074 202.827 158.44 201.18 159.099 201.18C159.3 201.18 159.904 201.619 160.435 202.168ZM145.645 203.157C146.634 203.706 147.659 206.14 147.842 208.41L147.933 209.691L147.366 209.911C146.615 210.186 146.597 210.79 147.348 211.211C148.007 211.595 148.025 211.87 147.531 213.828C146.597 217.434 144.986 219.667 143.302 219.667C141.765 219.667 140.648 218.13 140.099 215.311C139.696 213.169 139.715 213.078 140.593 213.078C141.454 213.078 141.948 212.858 142.222 212.327C142.643 211.54 141.801 210.698 140.575 210.698C140.081 210.698 140.026 210.643 140.026 210.131C140.026 208.52 141.527 204.859 142.625 203.761C143.687 202.699 144.474 202.534 145.645 203.157ZM165.835 202.901C165.835 203.175 165.506 203.468 165.359 203.322C165.231 203.193 165.487 202.644 165.67 202.644C165.762 202.644 165.835 202.754 165.835 202.901ZM126.938 203.56L127.231 204.109H126.645C126.334 204.109 125.84 204.273 125.547 204.493C125.254 204.694 125.016 204.804 125.016 204.713C125.016 204.639 124.961 204.383 124.906 204.145C124.797 203.797 124.851 203.743 125.364 203.743C125.73 203.743 126.005 203.614 126.151 203.376C126.462 202.882 126.609 202.919 126.938 203.56ZM167.116 203.981C167.116 204.292 166.421 204.951 166.274 204.786C166.201 204.731 166.293 204.548 166.457 204.383C166.622 204.218 166.75 203.999 166.75 203.907C166.75 203.816 166.842 203.743 166.933 203.743C167.043 203.743 167.116 203.852 167.116 203.981ZM129.72 207.806C130.251 208.245 130.672 208.648 130.672 208.703C130.691 208.776 130.343 208.758 129.922 208.648C129.043 208.465 128.11 207.678 128.256 207.294C128.402 206.873 128.732 207.001 129.72 207.806ZM134.351 209.6C134.351 209.875 134.26 209.82 133.876 209.399C133.528 208.996 133.528 208.996 133.949 209.216C134.168 209.325 134.351 209.508 134.351 209.6ZM153.223 210.167C153.443 210.588 153.187 210.625 152.29 210.296C151.741 210.112 151.722 210.076 151.997 209.875C152.381 209.582 152.985 209.728 153.223 210.167ZM133.162 211.76C133.052 211.888 132.338 211.412 132.338 211.229C132.338 211.138 132.539 211.192 132.777 211.375C133.015 211.559 133.198 211.723 133.162 211.76ZM152.29 211.98C152.29 212.382 151.832 212.309 151.667 211.87C151.613 211.705 151.686 211.613 151.924 211.613C152.162 211.613 152.29 211.742 152.29 211.98Z"/>
        </mask>
        <path d="M95.18 10.045C95.18 10.1183 96.3697 11.2714 97.7975 12.5894C103.582 17.8976 105.778 21.467 105.797 25.6404C105.815 30.3447 102.666 34.0605 97.3765 35.5797C96.5162 35.836 95.4728 36.0923 95.0518 36.1655L94.283 36.2936L93.9352 35.1404C93.6058 34.0605 93.5326 33.9689 92.8736 33.7859C92.3794 33.6578 91.995 33.3649 91.6106 32.8341C91.2445 32.3215 90.9699 32.1019 90.7869 32.1751C89.9815 32.5046 88.9015 32.4314 87.5653 31.9371C86.4121 31.5161 86.1376 31.3331 85.9179 30.8755C85.7715 30.5643 85.1308 28.1664 84.4902 25.5489C83.8312 22.9131 83.2272 20.5701 83.1356 20.3321C82.9526 19.8562 82.7695 20.3504 80.7195 26.8668C80.1154 28.8254 79.6944 29.8504 79.5297 29.8504C79.4015 29.8504 79.1819 30.1433 79.0721 30.4911C78.9073 30.9853 78.7609 31.1317 78.4314 31.1317C77.8823 31.1317 77.6443 30.8206 77.4979 29.8871C77.3514 28.9718 77.2416 29.0084 77.1135 29.9786C76.967 31.0036 76.2166 32.3948 75.6857 32.5961C75.3929 32.7059 75.0634 32.7059 74.7522 32.5961C74.0017 32.3032 73.8736 32.3582 73.1963 33.2734C72.0615 34.8109 71.9333 35.0672 71.9333 35.7445C71.9333 36.5499 72.0431 36.5316 69.4073 36.2387C62.653 35.5065 57.784 32.5229 55.862 27.9651C55.4593 26.9949 55.3861 26.5556 55.3861 24.9082C55.3678 22.8032 55.5875 21.9063 56.6491 19.783C57.5643 17.9526 59.1568 15.9391 61.9391 13.047C63.3302 11.6192 64.3736 10.4477 64.2272 10.4477C63.8794 10.4477 61.39 11.8572 59.5778 13.0836C54.2878 16.6712 51.4324 21.3572 51.4324 26.4641C51.4324 32.0104 54.1597 36.9709 58.9555 40.1375C61.9574 42.1327 64.8861 43.3774 67.6501 43.8716C69.2243 44.1645 69.389 44.2194 69.3341 44.5672C69.2975 44.8784 69.1327 44.9699 68.4555 45.0065C67.4304 45.0797 65.7647 44.7686 64.7397 44.3109C63.8062 43.8716 62.9641 43.835 62.9641 44.2194C62.9641 44.3659 63.2021 44.7686 63.5133 45.098C63.9892 45.6655 65.6366 48.704 65.4902 48.7772C65.2705 48.8871 64.0441 49.3264 63.4767 49.4911C62.9092 49.6558 62.7811 49.784 62.7445 50.2416C62.6713 50.9921 62.0855 51.2666 60.5663 51.2666C59.6327 51.2666 59.2483 51.1751 58.8823 50.9005C58.2599 50.4063 57.7657 50.4429 57.3264 50.9921C56.8688 51.5595 56.0085 51.5961 55.0017 51.0836L54.2878 50.7175L53.2994 51.1751L52.3293 51.6327L51.1029 51.0104C49.6934 50.2965 45.5383 48.704 45.1173 48.704C44.8977 48.704 44.8611 48.8321 44.9526 49.1982C45.2272 50.4063 46.2156 53.2801 46.6915 54.3601L47.2223 55.5499L46.7464 56.0441C46.3986 56.4102 46.2339 56.8129 46.1424 57.6183C46.0509 58.4053 45.8495 58.9179 45.3736 59.5951C44.678 60.5836 44.2936 61.5537 44.2936 62.2859C44.2936 62.5422 44.1655 62.9998 44.0191 63.2743C43.8726 63.5672 43.7445 63.9882 43.7445 64.2262C43.7445 64.4824 43.5798 64.7204 43.2869 64.8485C42.573 65.178 42.7927 65.5624 44.1106 66.3129C45.0258 66.8254 45.7031 67.0634 47.0393 67.283C47.9911 67.4294 49.0345 67.5942 49.3273 67.6491L49.8765 67.7406V69.8822C49.8765 71.9872 49.9131 72.1337 50.81 74.9709C51.6337 77.4969 52.1828 79.8764 52.2378 81.1944C52.2561 81.4506 52.1279 81.5788 51.7984 81.6154C51.0297 81.7252 50.6636 82.2011 50.7551 82.9333C50.7917 83.2811 50.7551 83.7753 50.6453 84.0316C50.4805 84.4709 50.1327 87.2531 50.1327 88.2416C50.1327 89.2666 50.1693 89.8158 50.2609 90.1269C50.3707 90.493 52.0181 91.3533 52.5855 91.3533C52.7869 91.3533 52.9699 91.5181 53.0248 91.7377C53.0981 91.9574 53.336 92.5065 53.574 92.9641C53.8119 93.4034 53.9767 93.8061 53.9584 93.8244C53.9218 93.8611 53.1896 93.7146 52.311 93.5133L50.7368 93.1472L50.4073 91.9391C50.0778 90.7493 49.4189 89.7059 48.9613 89.7059C48.8331 89.7059 48.467 89.9073 48.1742 90.1636C47.4786 90.7493 46.4719 91.1703 45.7763 91.1703C45.1539 91.1703 44.2936 91.5181 44.2936 91.7743C44.2936 91.8659 43.5248 92.7445 42.6096 93.7146C41.6761 94.6848 40.5229 95.9478 40.0287 96.5152C39.5528 97.1009 38.9304 97.6684 38.6559 97.7965C38.3813 97.9246 38.1433 98.2175 38.1067 98.4371C38.0701 98.6568 36.9536 99.8466 35.5258 101.201C34.153 102.519 32.7252 104.002 32.3774 104.496C32.0297 105.008 31.572 105.503 31.3524 105.612C31.1327 105.722 30.8948 106.015 30.8216 106.253C30.7667 106.509 30.5653 106.766 30.3823 106.821C30.2175 106.876 29.943 107.223 29.7965 107.608C29.6318 108.01 29.2474 108.468 28.8081 108.761C28.1674 109.2 27.9661 109.237 26.7763 109.164L25.4584 109.072L25.257 108.029C25.1289 107.461 24.3967 104.734 23.6096 101.97C22.1453 96.8081 16.9102 76.6366 14.7503 67.8321C14.073 65.1048 12.4622 59.3023 11.126 54.9275C9.20403 48.521 8.17899 45.519 5.90924 39.5518C4.35336 35.4699 2.99883 32.0653 2.90731 31.9738C2.81579 31.8822 2.68766 31.8639 2.61444 31.9188C2.54122 31.9921 2.79748 35.5248 3.18187 39.7897C3.78592 46.5258 4.04218 48.5576 5.23197 55.6597C5.96415 60.1443 7.11733 66.2763 7.77629 69.2965C10.0094 79.4005 14.073 99.0229 15.0065 104.148C15.5008 106.93 15.995 109.493 16.1048 109.841C16.1963 110.17 16.2695 110.463 16.2329 110.463C16.2146 110.481 15.4825 110.848 14.5855 111.287C12.9747 112.074 12.4439 112.623 12.4439 113.465C12.4439 113.666 12.3158 113.868 12.1694 113.941C12.0229 113.996 11.8948 114.234 11.8948 114.472C11.8948 114.875 11.785 114.929 10.6318 115.131C9.91791 115.241 8.72812 115.332 7.97764 115.332C6.84276 115.332 6.5682 115.387 6.42176 115.662C6.33024 115.826 5.7811 116.138 5.17706 116.339L4.1154 116.705L4.75606 116.815C5.19536 116.888 4.90249 116.943 3.89575 116.961C2.79748 116.98 2.35818 117.053 2.24835 117.236C2.10191 117.51 0.546037 118.243 0.0335128 118.279C-0.131227 118.297 0.326384 118.371 1.07687 118.444C1.80904 118.535 2.48631 118.682 2.55952 118.81C2.65105 118.975 3.01714 118.92 3.95066 118.627C4.90249 118.334 11.2907 117.181 12.0961 117.163C12.1694 117.163 12.2792 117.382 12.3341 117.639C12.4622 118.114 12.4805 118.114 13.5056 117.986L14.5489 117.858L14.1645 118.297C13.7984 118.682 13.7435 119.341 13.9998 120.201C14.0913 120.494 17.2397 120 18.1366 119.542C18.5393 119.323 19.0335 119.213 19.2166 119.268C19.546 119.377 19.5277 119.414 19.1067 120.036C18.3013 121.226 18.704 122.745 20.022 123.551C20.3514 123.752 20.7541 124.082 20.9372 124.283C21.3033 124.686 21.4131 124.612 19.6193 125.052C18.5942 125.308 17.9536 125.766 18.6308 125.766C18.8322 125.766 19.4362 125.674 19.9487 125.546C21.0287 125.29 21.23 125.436 21.23 126.443C21.23 127.175 21.7792 127.779 22.4198 127.779C22.8774 127.779 23.6096 128.347 23.6096 128.694C23.6096 128.951 24.9825 129.317 25.4767 129.189C26.1356 129.024 26.9044 128.347 26.9044 127.962C26.9044 127.706 27.2705 127.45 28.1308 127.029C28.9362 126.644 29.8697 125.967 30.7483 125.143C31.4988 124.429 32.5056 123.514 32.9815 123.148C34.4458 121.958 35.4526 119.945 34.7387 119.67C34.5923 119.615 34.7021 119.506 34.9767 119.359C35.416 119.158 35.5441 119.213 36.6973 120.091C37.4661 120.677 38.0701 121.007 38.3264 120.97C38.6742 120.915 38.7108 120.823 38.6559 120.036C38.5826 119.176 38.6193 119.103 39.4979 118.261C40.468 117.327 43.4699 115.698 44.2204 115.698C44.4584 115.698 45.2089 115.405 45.8861 115.039C46.8562 114.527 47.2406 114.417 47.7349 114.508C48.5769 114.673 48.9796 114.49 49.2358 113.868C49.4738 113.282 50.7734 112.22 51.2493 112.22C51.5056 112.22 53.0065 111.507 55.5326 110.134C56.0268 109.877 56.6125 109.658 56.8322 109.658C57.2532 109.658 57.8389 109.145 57.8389 108.761C57.8389 108.34 58.7175 107.644 59.2667 107.644C59.9988 107.644 62.5615 105.777 62.7079 105.137C62.7994 104.825 62.7262 104.441 62.5248 104.075C62.232 103.526 62.232 103.434 62.4699 102.94C62.6347 102.647 62.8909 102.281 63.0557 102.153C63.4401 101.823 63.8794 100.981 63.8794 100.542C63.8794 100.359 63.9892 100.048 64.1356 99.8649C64.3553 99.5537 64.4102 99.5903 64.8495 100.341C65.1058 100.78 65.4536 101.604 65.6 102.171C65.9295 103.434 66.3322 104.276 66.9362 104.935C67.1925 105.191 67.3572 105.503 67.284 105.594C67.2291 105.686 67.3938 106.033 67.6501 106.381C68.126 107.04 68.1443 107.809 67.6684 108.651C67.5586 108.852 67.4853 109.072 67.4853 109.127C67.5036 109.2 67.3206 109.438 67.0826 109.658C66.4603 110.244 66.4969 110.463 67.3572 111.14C68.2541 111.873 68.6385 112.879 68.309 113.721C68.1443 114.161 68.1626 114.307 68.4372 114.582C68.7484 114.893 68.73 114.929 68.1443 115.296C67.8148 115.515 67.3389 116.101 67.0826 116.595C66.8447 117.089 66.4054 117.675 66.1125 117.876C65.5451 118.261 65.3986 118.572 64.8678 120.329C64.5749 121.336 64.5749 121.464 64.8495 122.361C65.0325 122.892 65.1607 123.368 65.1607 123.423C65.1607 123.496 64.758 123.386 64.2455 123.185C63.7512 123.002 63.2204 122.892 63.074 122.947C62.5248 123.166 61.3167 126.37 61.3167 127.614C61.3167 128.072 61.1886 128.53 61.0239 128.713C60.7493 129.024 60.7493 129.115 61.0605 129.957C61.3717 130.836 61.3717 130.891 61.0422 131.623C60.8591 132.044 60.548 132.447 60.3832 132.557C60.2002 132.648 59.9988 133.014 59.9256 133.344C59.7975 134.076 59.706 134.112 57.3264 134.296C56.3929 134.35 55.6058 134.479 55.5509 134.552C55.5142 134.625 56.3562 135.101 57.4545 135.595L59.4314 136.51L59.5595 137.297C59.6327 137.718 59.889 138.341 60.1636 138.689C60.5846 139.256 60.6212 139.421 60.5114 140.318C60.4381 141.032 60.4747 141.526 60.6761 141.983C60.8225 142.349 60.9507 143.082 60.9507 143.612C60.9507 144.583 60.6578 145.187 59.5595 146.505C59.1385 146.999 59.1385 147.035 59.4131 147.694C60.0354 149.122 60.0904 149.049 57.8023 150.147C56.6674 150.715 55.3678 151.337 54.9102 151.538L54.0865 151.904L54.8187 152.087C55.2214 152.179 56.5942 152.527 57.8755 152.856L60.2002 153.46L60.31 154.156C60.4015 154.705 60.6578 155.053 61.573 155.84C62.1954 156.389 62.8726 157.158 63.0557 157.542C63.257 157.945 63.6231 158.531 63.8611 158.86C64.1905 159.318 64.3004 159.684 64.2821 160.233C64.2455 161.093 64.337 161.313 64.9044 161.606C65.3437 161.844 66.863 164.333 66.7166 164.571C66.6616 164.663 66.7166 164.937 66.8447 165.157C66.9545 165.395 67.1193 166.145 67.1925 166.823C67.3572 168.561 67.5586 168.726 69.1144 168.47C69.7734 168.36 70.3408 168.232 70.3774 168.195C70.4141 168.159 70.5422 167.719 70.6703 167.225C70.7801 166.713 70.9083 166.218 70.9449 166.09C70.9815 165.926 71.2011 165.944 71.8235 166.145C72.5008 166.383 72.6838 166.548 72.8485 167.06C72.9767 167.427 73.0316 167.719 72.995 167.756C72.0981 168.378 71.4025 169.056 71.3476 169.385C71.2744 169.788 71.8967 171.673 72.4275 172.717C72.5923 173.009 72.7753 173.394 72.8485 173.54C72.9218 173.687 73.1414 173.888 73.3611 173.998C73.6356 174.108 73.7638 174.346 73.7638 174.675C73.7638 174.968 73.9102 175.279 74.1482 175.426C74.3861 175.609 74.4959 175.847 74.4593 176.139C74.4044 176.506 74.1848 176.615 72.7021 177.018C71.7686 177.256 71.0364 177.549 71.073 177.659C71.1462 177.897 72.5008 178.574 73.7088 178.958C74.4959 179.215 74.679 179.361 74.7705 179.8C74.8437 180.075 75.1 180.478 75.3563 180.679C76.0701 181.246 76.2166 182.454 75.6491 183.37C75.4295 183.754 75.2281 184.12 75.2281 184.193C75.2281 184.267 75.5027 184.376 75.8322 184.431C76.3447 184.541 76.4179 184.614 76.4728 185.2C76.4911 185.548 76.6925 186.097 76.9121 186.39C77.2782 186.921 77.2782 186.976 77.0037 187.452C76.8389 187.726 76.7474 188.001 76.8206 188.074C76.8755 188.129 76.7657 188.184 76.546 188.184C76.0701 188.184 75.8505 188.513 76.125 188.788C76.2349 188.898 76.3264 189.136 76.3264 189.3C76.3264 189.483 76.4911 189.904 76.6925 190.252C76.8938 190.582 77.1318 191.387 77.2233 192.028C77.3514 193.016 77.3148 193.346 77.0403 193.986C76.8572 194.426 76.7657 194.773 76.8206 194.773C76.8938 194.773 76.7474 194.975 76.5277 195.213C76.0152 195.762 76.125 195.981 77.0586 196.256C77.626 196.421 77.7907 196.567 77.7907 196.878C77.7907 197.08 77.9189 197.428 78.0653 197.629C78.2117 197.812 78.3399 198.324 78.3399 198.745C78.3399 199.166 78.4131 199.569 78.5229 199.624C78.6327 199.679 78.706 199.935 78.706 200.173C78.706 200.411 78.7975 200.832 78.9256 201.088C79.0904 201.473 79.0904 201.656 78.9256 201.93C78.7975 202.132 78.7426 202.37 78.7975 202.461C78.8524 202.534 78.8158 202.809 78.7426 203.047C78.6327 203.322 78.6694 203.669 78.8158 204.017C78.9439 204.31 79.0537 204.969 79.0721 205.481C79.0721 206.269 78.9439 206.58 78.1568 207.806C77.6626 208.593 77.1684 209.582 77.0403 210.003C76.7474 211.119 76.125 212.291 75.1915 213.444C74.7522 213.993 74.0017 214.927 73.5258 215.531C72.757 216.482 72.6838 216.665 72.7753 217.27C72.8668 217.819 72.757 218.112 72.1347 219.082C71.0181 220.784 70.7984 221.406 70.652 223.328C70.5422 224.683 70.5605 225.177 70.7618 225.561C71.0913 226.184 71.8967 226.623 72.7387 226.623C73.2512 226.623 73.5075 226.77 74.1115 227.392C74.8254 228.142 74.8986 228.179 75.9969 228.197C76.6742 228.197 77.1501 228.289 77.205 228.417C77.2416 228.545 77.0586 229.094 76.8023 229.662C76.5277 230.247 76.3264 231.034 76.3264 231.455C76.3264 232.096 76.4362 232.334 77.022 232.902C78.3216 234.183 82.495 235.556 86.8514 236.141C87.7667 236.27 88.9381 236.434 89.469 236.507C90.6221 236.672 92.0133 236.416 92.5258 235.958C92.7272 235.775 93.0749 235.537 93.2946 235.428C93.5326 235.318 93.8437 234.952 94.0085 234.64C94.2647 234.128 94.283 233.89 94.0817 232.81C93.8803 231.657 93.8986 231.51 94.2647 230.742L94.6674 229.918L94.3013 228.856C94.0817 228.289 93.7888 227.465 93.6424 227.044C93.2946 226.074 93.2214 224.445 93.5143 223.896C93.9352 223.145 93.6058 221.919 92.6539 220.692C91.6106 219.356 91.3726 218.166 91.7936 216.501C91.9401 215.915 92.0682 215.146 92.0682 214.798C92.0682 214.268 92.1231 214.176 92.4892 214.176C92.7272 214.176 93.4227 213.81 94.0451 213.352C95.0701 212.602 95.18 212.455 95.18 211.87C95.18 211.522 95.2715 211.046 95.3813 210.845C95.4911 210.643 95.7474 209.82 95.9304 209.014C96.3331 207.367 96.7724 206.397 97.4497 205.774C97.706 205.518 97.9256 205.17 97.9256 204.987C97.9256 204.603 98.3832 204.402 99.6645 204.218C101.074 204.017 101.989 203.743 101.916 203.523C101.879 203.431 101.111 202.955 100.214 202.498C98.5663 201.638 98.5663 201.638 98.4381 200.814C98.3649 200.356 98.2551 199.716 98.1819 199.404C98.0904 198.892 98.1453 198.727 98.6578 198.251C99.152 197.794 99.2252 197.592 99.152 197.098C99.0971 196.732 99.1886 196.256 99.4083 195.835C99.6096 195.451 99.7561 194.902 99.7561 194.59C99.7561 193.858 100.086 193.254 101.092 192.028L101.916 191.039L101.568 190.161C101.385 189.666 101.22 189.044 101.22 188.751C101.22 188.312 101.349 188.202 102.209 187.836C103.765 187.195 103.82 186.994 102.612 186.463C102.044 186.207 101.587 185.914 101.587 185.823C101.587 185.713 101.916 184.999 102.3 184.23C102.978 182.93 103.087 182.821 104.113 182.326C105.815 181.521 105.778 181.393 103.746 181.137C103.087 181.045 102.868 180.935 102.868 180.716C102.868 180.551 102.74 180.258 102.593 180.057C102.447 179.874 102.282 179.343 102.209 178.867C102.008 177.457 101.349 176.377 100.488 176.03C100.086 175.865 99.5913 175.737 99.4083 175.737C99.152 175.737 98.969 175.481 98.731 174.767C98.5663 174.254 98.2002 173.485 97.9439 173.083C97.0104 171.673 96.6443 170.465 96.6443 168.781C96.6443 167.921 96.6992 166.804 96.7541 166.273L96.8823 165.34L97.8158 165.431C98.7127 165.523 98.8042 165.505 99.2618 164.937C99.6096 164.534 99.7561 164.15 99.7561 163.674V162.979L101.184 164.37C103.142 166.292 104.46 167.17 105.577 167.28C106.089 167.317 106.529 167.28 106.602 167.17C106.657 167.06 106.547 166.621 106.364 166.164C106.016 165.358 105.76 163.784 105.412 160.27C105.211 158.238 104.955 157.048 104.131 154.54L103.563 152.856L104.314 149.964C104.717 148.39 105.192 146.523 105.339 145.827C105.504 145.113 105.833 144.07 106.089 143.484C106.401 142.825 106.529 142.276 106.455 142.002C106.401 141.764 106.584 140.629 106.876 139.476C107.737 136.108 107.755 134.991 107.078 128.969C106.84 126.791 106.382 124.484 106.089 124.027C105.961 123.825 105.632 123.002 105.339 122.196C104.808 120.695 104.058 119.762 102.3 118.426C101.367 117.712 100.799 116.43 100.744 114.875C100.726 114.179 100.69 113.538 100.69 113.465C100.671 113.41 100.269 113.209 99.7561 113.044L98.8408 112.733V111.854C98.8408 111.067 98.9141 110.902 99.5913 110.225C100.25 109.566 100.342 109.402 100.232 108.889C100.14 108.45 100.232 108.193 100.58 107.717C100.836 107.388 101.037 107.04 101.037 106.949C101.037 106.857 101.202 106.638 101.403 106.454C101.678 106.198 101.715 106.052 101.568 105.777C101.422 105.484 101.477 105.283 101.843 104.734C102.099 104.368 102.319 103.965 102.319 103.837C102.319 103.709 102.666 103.27 103.069 102.849C103.49 102.409 104.332 101.476 104.936 100.78C106.089 99.4256 108.103 97.5402 108.762 97.1925C109.091 97.0094 109.201 97.046 109.402 97.3206C110.043 98.1626 110.025 98.2358 109.091 99.2792C108.615 99.8466 108.139 100.506 108.085 100.725C108.011 100.963 107.865 101.256 107.755 101.402C107.499 101.714 107.06 102.885 107.041 103.251C107.041 103.398 106.95 103.8 106.858 104.148C106.693 104.661 106.73 104.899 106.986 105.375C107.279 105.942 107.297 106.033 107.005 106.729C106.492 107.992 106.62 109.731 107.371 112.092C108.048 114.197 108.634 115.405 109.274 115.973C109.457 116.138 109.677 116.522 109.732 116.815C109.805 117.108 110.043 117.474 110.281 117.639C110.72 117.931 112.478 120.915 113.008 122.288C113.192 122.727 113.375 123.441 113.411 123.844C113.466 124.246 113.594 124.667 113.704 124.796C113.814 124.924 113.832 125.381 113.759 125.912L113.649 126.809L114.528 127.12C115.004 127.303 115.663 127.505 115.955 127.578C116.614 127.724 116.614 127.852 116.193 131.019C115.901 133.161 115.718 133.563 114.601 134.625C114.29 134.936 114.034 135.284 114.034 135.412C114.034 135.705 113.869 135.705 113.301 135.376C112.661 135.009 112.386 135.046 112.386 135.485C112.386 135.943 112.679 136.51 113.173 137.06L113.539 137.481L113.063 137.92C112.789 138.176 112.569 138.524 112.569 138.707C112.569 139.073 111.672 141.05 111.05 142.057C110.83 142.404 110.629 142.77 110.611 142.88C110.592 142.972 110.281 143.869 109.915 144.857C109.201 146.852 109.091 147.914 109.567 147.914C109.732 147.914 110.574 147.164 111.453 146.248L113.027 144.601L113.704 144.876L114.363 145.168L114.088 146.303C113.887 147.09 113.796 148.317 113.796 150.111C113.796 152.508 113.85 152.893 114.29 154.138C114.894 155.84 115.772 157.176 116.871 158.091C117.621 158.695 117.713 158.842 117.621 159.336C117.566 159.647 117.511 161.844 117.493 164.223L117.456 168.543L116.981 168.433C116.413 168.269 116.395 168.14 115.846 164.205L115.443 161.185L114.546 160.233C114.07 159.72 113.667 159.135 113.667 158.97C113.667 158.787 113.613 158.695 113.558 158.75C113.503 158.823 113.466 161.185 113.484 164.04C113.503 169.586 113.594 170.428 114.546 173.174C114.93 174.309 115.187 174.73 116.029 175.554L117.054 176.56V178.208C117.054 179.105 117.127 180.057 117.218 180.295C117.365 180.716 117.347 180.716 116.523 180.606C116.047 180.533 115.406 180.349 115.077 180.221C114.455 179.965 112.99 178.647 112.624 178.025C112.24 177.366 112.569 179.471 113.246 181.96C114.345 186.024 115.608 188.165 117.237 188.678C117.749 188.843 117.804 188.953 117.987 190.051C118.097 190.71 118.372 191.552 118.61 191.918C118.976 192.522 118.994 192.632 118.756 192.87C118.61 193.016 117.969 193.199 117.31 193.272C115.937 193.437 114.857 193.089 113.905 192.174L113.32 191.607L113.667 192.742C114.308 194.883 116.029 198.05 117.292 199.368C118.536 200.704 119.232 200.997 120.403 200.649C120.971 200.484 121.008 200.503 121.245 201.07C121.374 201.4 121.795 201.967 122.161 202.315C122.82 202.955 122.82 202.955 122.545 203.596C122.216 204.402 120.824 205.665 119.964 205.939C119.305 206.159 118.042 206.122 117.438 205.848C117.109 205.701 117.109 205.719 117.438 206.232C118.207 207.458 119.507 208.776 120.733 209.6C121.868 210.387 122.179 210.497 123.314 210.607C124.705 210.753 125.181 210.607 126.279 209.673L126.865 209.179L127.597 209.783C128.055 210.131 128.75 210.46 129.373 210.607C129.94 210.753 130.434 210.936 130.471 211.046C130.508 211.156 130.727 211.522 130.947 211.851C131.203 212.236 131.313 212.584 131.24 212.73C131.166 212.876 131.038 213.188 130.965 213.444L130.837 213.902L131.368 213.389C132.265 212.565 132.375 212.693 132.228 214.451C132.155 215.311 132.155 216.007 132.21 216.007C132.375 216.007 133.18 214.377 133.326 213.755C133.491 213.078 133.839 213.206 134.04 214.011C134.187 214.56 134.223 214.597 134.37 214.268C134.443 214.066 134.516 213.737 134.516 213.535C134.553 212.986 135.505 212.529 136.658 212.529H137.646V213.389C137.646 214.67 138.104 217.05 138.58 218.203C139.55 220.601 141.069 221.864 142.955 221.864C144.455 221.864 145.426 221.388 146.652 220.052C148.263 218.313 149.489 215.402 149.874 212.437L150.002 211.357L150.478 212.272C150.807 212.913 150.935 213.389 150.88 213.828L150.807 214.451L151.265 213.902L151.741 213.352V214.579C151.741 215.274 151.814 215.823 151.887 215.823C152.088 215.823 152.656 214.615 152.656 214.176C152.656 213.975 152.747 213.81 152.839 213.81C152.949 213.81 153.022 213.956 153.022 214.121C153.022 214.377 153.059 214.396 153.187 214.194C153.48 213.737 154.285 214.506 154.322 215.274C154.376 216.391 154.395 216.464 154.523 216.665C154.614 216.794 154.578 217.306 154.486 217.837C154.376 218.368 154.303 219.008 154.303 219.283C154.322 219.722 154.34 219.741 154.56 219.429C154.871 219.027 155.402 219.21 155.402 219.722C155.402 220.088 155.402 220.088 155.676 219.741C155.987 219.356 155.987 219.265 155.603 221.223C155.511 221.718 155.383 222.505 155.328 222.962C155.255 223.731 155.255 223.768 155.511 223.42C155.676 223.218 156.006 222.651 156.244 222.175C156.719 221.242 157.049 221.15 157.25 221.882C157.342 222.267 157.397 222.175 157.69 221.297C158.001 220.326 158.037 220.29 158.568 220.363C159.575 220.509 159.941 219.411 159.245 218.295C158.934 217.782 158.916 217.672 159.154 217.581C159.3 217.526 159.648 217.562 159.904 217.654C161.003 218.075 163.126 217.379 164.206 216.244C166.256 214.121 166.695 210.57 165.396 206.818C165.011 205.719 164.993 205.555 165.249 205.665C165.414 205.738 165.689 205.829 165.853 205.884C166.018 205.939 166.256 206.195 166.402 206.452L166.622 206.946L166.75 206.397L166.86 205.848L167.153 206.397C167.318 206.69 167.665 207.147 167.94 207.403L168.434 207.861L168.288 207.312C168.233 207.001 168.05 206.488 167.922 206.14C167.629 205.427 167.702 205.225 168.123 205.573C168.508 205.902 168.672 205.683 168.361 205.244C167.995 204.713 168.16 203.23 168.617 202.992C168.874 202.864 169.038 202.864 169.24 203.029C169.441 203.193 169.496 203.193 169.496 203.01C169.496 202.846 169.624 202.882 169.899 203.12L170.283 203.468L170.137 202.827C170.063 202.48 169.954 201.857 169.88 201.454C169.807 201.052 169.642 200.539 169.533 200.32C169.276 199.862 169.24 199.166 169.478 199.166C170.1 199.166 172.242 203.102 172.242 204.273C172.26 204.731 172.26 204.731 172.534 204.383C172.681 204.182 173.01 203.358 173.248 202.553C173.816 200.594 173.633 199.148 172.644 198.013C172.022 197.318 172.626 197.574 174.145 198.654C175.024 199.295 176.049 200.008 176.415 200.246L177.092 200.686L176.726 200.246C176.543 200.008 175.921 199.331 175.353 198.727L174.347 197.665L175.262 198.324C175.774 198.691 176.671 199.331 177.275 199.734C178.355 200.466 178.355 200.448 176.543 198.672C175.536 197.684 174.072 196.274 173.267 195.542C171.839 194.224 171.839 194.224 172.059 193.657C172.223 193.272 172.388 193.144 172.589 193.218C174.182 193.803 177.641 196.823 178.355 198.233L178.776 199.057L178.904 198.471C179.252 196.897 178.154 192.815 176.836 190.875C175.774 189.3 174.603 188.495 171.656 187.36C170.137 186.774 169.862 186.61 169.862 186.262C169.862 185.896 169.935 185.859 170.649 185.914C175.481 186.298 178.52 186.829 180.9 187.726C181.577 187.982 182.291 188.184 182.474 188.184C182.657 188.184 183.297 188.422 183.883 188.733C184.469 189.026 184.981 189.282 185 189.282C185.018 189.282 184.908 189.044 184.762 188.751C184.286 187.799 181.376 184.889 179.783 183.791C178.264 182.711 175.573 181.521 173.633 181.027L172.736 180.807L173.175 180.459L173.614 180.112L173.212 180.203C172.974 180.258 172.626 180.368 172.406 180.423C172.205 180.478 171.784 180.423 171.491 180.313C170.942 180.075 170.942 180.002 171.271 179.068C171.418 178.72 171.125 178.812 170.667 179.233C170.283 179.599 170.173 179.617 169.423 179.398C168.636 179.178 168.599 179.16 168.215 177.915C167.977 177.219 167.739 176.652 167.665 176.652C167.592 176.652 167.409 177.165 167.263 177.787C167.007 178.922 166.988 178.94 166.311 178.995C165.762 179.05 165.56 178.958 165.268 178.592C165.066 178.318 164.718 178.025 164.517 177.915C164.188 177.732 164.151 177.75 164.261 178.025C164.627 178.977 164.609 179.215 164.169 179.215C163.931 179.215 163.382 179.013 162.961 178.757C162.138 178.299 161.973 178.336 162.449 178.849C162.723 179.141 162.559 179.178 160.216 179.251C158.019 179.343 157.525 179.416 156.408 179.855C154.56 180.587 152.217 182.363 151.631 183.443L151.393 183.937L152.162 183.718C152.711 183.553 153.882 183.534 156.317 183.626C159.685 183.754 162.302 184.193 165.67 185.182C167.153 185.621 166.732 186.17 164.92 186.17C163.327 186.17 159.538 185.603 158.733 185.255C158.275 185.054 157.873 184.907 157.836 184.962C157.745 185.054 159.3 186.06 161.076 187.086C163.382 188.403 166.091 190.069 166.366 190.307C166.512 190.454 165.744 190.106 164.627 189.557C162.522 188.513 161.479 188.22 162.357 188.934C162.613 189.136 163.364 189.721 164.06 190.216C164.737 190.728 165.286 191.167 165.286 191.204C165.286 191.241 164.828 191.076 164.279 190.838C163.73 190.582 163.272 190.417 163.272 190.472C163.272 190.508 163.895 191.003 164.645 191.57C165.396 192.119 166.018 192.632 166.018 192.687C166.018 192.815 165.725 192.632 164.938 192.046L164.316 191.57L164.554 192.028C164.682 192.284 165.03 192.778 165.304 193.144C165.597 193.51 165.835 193.986 165.835 194.206C165.835 194.407 166.073 194.755 166.384 194.993C166.933 195.396 167.849 196.75 167.849 197.135C167.849 197.501 167.409 197.336 166.97 196.823L166.549 196.329L166.677 196.787L166.787 197.244L166.311 196.805C165.762 196.293 165.707 196.494 166.11 197.482C166.274 197.849 166.348 198.343 166.293 198.581C166.238 198.837 166.293 199.203 166.439 199.423C166.878 200.1 166.952 200.741 166.64 201.015C166.384 201.217 166.293 201.18 166 200.814L165.652 200.356V200.796C165.652 201.198 165.597 201.162 164.92 200.429C164.133 199.551 164.041 199.624 164.462 200.814C164.828 201.857 164.81 202.04 164.334 201.619C163.95 201.271 163.95 201.271 164.078 201.729C164.243 202.315 164.243 202.37 164.224 203.358L164.188 204.182L163.657 203.34C162.302 201.217 159.85 199.148 158.678 199.166C156.976 199.203 156.189 201.93 156.097 208.099C156.06 210.387 156.024 210.881 155.804 210.79C155.676 210.735 155.402 210.698 155.2 210.698C154.999 210.698 154.852 210.57 154.852 210.369C154.852 210.204 154.688 209.783 154.486 209.454C154.175 208.941 154.139 208.74 154.285 208.191L154.468 207.532L153.974 208.026C153.681 208.282 153.388 208.502 153.315 208.502C153.242 208.502 153.187 208.154 153.205 207.715C153.242 207.294 153.242 206.653 153.223 206.305L153.168 205.665L152.729 206.58C152.491 207.074 152.29 207.678 152.29 207.898C152.29 208.465 151.997 208.428 151.85 207.861C151.704 207.275 151.375 207.44 151.375 208.099C151.356 208.392 151.1 208.886 150.734 209.307L150.093 210.021L150.075 209.49C150.038 208.044 149.562 205.591 149.087 204.456C148.098 202.022 146.524 200.631 144.767 200.631C142.552 200.631 140.612 202.315 139.22 205.463C138.726 206.598 138.012 208.959 138.012 209.527C138.012 210.241 137.774 210.369 136.859 210.131C136.383 210.021 135.999 209.82 135.999 209.691C135.999 209.563 135.834 209.27 135.651 209.014C135.358 208.648 135.322 208.428 135.45 207.898C135.614 207.147 135.486 207.019 135.12 207.586C134.992 207.788 134.772 207.953 134.626 207.953C134.425 207.953 134.351 207.641 134.315 206.635L134.26 205.298L133.711 206.433C133.418 207.074 133.107 207.586 133.034 207.586C132.979 207.586 132.85 207.312 132.777 207.001L132.649 206.397L132.429 206.909L132.228 207.403L131.587 206.744C131.258 206.397 130.581 205.848 130.105 205.536C129.153 204.932 129.135 204.914 129.428 204.164C129.537 203.889 129.684 202.955 129.757 202.095C129.885 200.741 129.849 200.246 129.409 198.251C129.135 196.988 128.842 195.597 128.769 195.139C128.622 194.169 128.329 193.529 128.311 194.133C128.311 194.718 127.103 197.428 126.371 198.544C126.005 199.093 125.693 199.533 125.657 199.533C125.62 199.533 125.382 199.166 125.126 198.709L124.668 197.885L125.181 196.823C125.474 196.256 125.822 195.359 125.986 194.865C126.352 193.712 126.664 190.527 126.664 188.111C126.645 186.317 126.645 186.28 126.352 186.811C125.675 188.074 123.479 190.38 122.966 190.38C122.875 190.38 122.82 190.106 122.801 189.776C122.801 189.465 122.692 188.861 122.563 188.458C122.362 187.744 122.362 187.726 123.277 186.5C123.863 185.713 124.357 184.816 124.613 184.029C124.998 182.802 125.785 179.306 126.005 177.805L126.114 177.055L125.053 178.098C123.955 179.215 123.277 179.636 122.362 179.837L121.813 179.947L121.831 178.299L121.868 176.652L122.655 176.048C123.607 175.334 124.613 173.595 125.291 171.435C125.675 170.245 125.822 169.129 126.114 165.395C126.316 162.869 126.481 160.562 126.481 160.27V159.72L126.133 160.27C125.95 160.581 125.492 161.075 125.126 161.368C124.467 161.899 124.449 161.972 123.826 164.937C123.479 166.603 123.149 168.14 123.094 168.36C123.021 168.671 122.856 168.781 122.472 168.781C121.959 168.781 121.959 168.781 122.087 167.921C122.179 167.427 122.289 165.212 122.362 162.997L122.49 158.933L123.186 158.549C124.192 157.981 125.254 156.627 125.84 155.163C126.243 154.119 126.352 153.497 126.426 151.74C126.572 148.793 126.096 146.065 124.906 142.935C124.577 142.075 124.577 142.057 124.98 141.636C125.254 141.343 125.382 140.977 125.382 140.446C125.382 139.695 125.401 139.695 126.279 139.421C128.476 138.762 129.043 138.011 128.421 136.529C128.219 136.071 128.183 135.504 128.256 134.497C128.384 132.813 128.073 131.092 127.451 130.031C127.121 129.463 127.03 129.097 127.121 128.731C127.176 128.438 127.121 127.962 126.975 127.614C126.792 127.193 126.755 126.791 126.865 126.26C127.231 124.448 127.542 121.794 127.451 121.336C127.396 121.025 127.506 120.586 127.78 120.11C128.183 119.377 128.183 119.359 127.853 118.737C127.524 118.133 127.524 118.078 127.927 115.918C128.238 114.252 128.311 113.337 128.238 112.111C128.183 111.214 128.055 108.706 127.927 106.546C127.725 102.647 127.725 102.611 127.213 102.043C126.773 101.531 126.718 101.348 126.792 100.634C126.883 99.9015 126.847 99.7917 126.462 99.5903C126.224 99.4622 125.62 99.0961 125.108 98.7483C124.412 98.2724 123.918 98.1077 123.039 98.0162C121.959 97.888 121.85 97.8331 121.245 97.1192C120.55 96.2589 120.458 95.6366 120.898 94.5932C121.044 94.2271 121.172 93.4767 121.172 92.9458C121.172 91.2984 121.3 90.9506 122.179 90.4198C122.838 89.9988 122.966 89.8158 123.039 89.23C123.113 88.6809 123.058 88.4246 122.765 88.1135C122.527 87.8389 122.435 87.5643 122.527 87.2715C122.6 86.9603 122.508 86.6674 122.252 86.3379C122.051 86.0816 121.941 85.7705 121.996 85.679C122.069 85.5691 122.014 85.3495 121.886 85.1847C121.758 85.0383 121.666 84.6356 121.703 84.2878C121.721 83.9034 121.593 83.4092 121.3 82.8967C121.044 82.4574 120.788 81.8167 120.733 81.4689C120.605 80.7551 120.989 78.5585 121.447 77.2589C121.612 76.8013 121.703 76.2705 121.648 76.0874C121.593 75.8861 121.85 74.9892 122.197 74.0923C123.021 72.0056 123.277 69.9371 122.929 68.4179L122.692 67.3745L124.339 66.5325C126.316 65.5258 127.689 64.6289 129.007 63.4391C130.508 62.0845 130.636 61.4256 129.482 60.8764C129.116 60.7117 128.787 60.4371 128.75 60.2724C128.695 60.1077 128.567 59.8148 128.476 59.6501C128.384 59.467 128.311 59.046 128.311 58.6799C128.311 58.1674 128.219 58.0027 127.762 57.7647C127.469 57.6 127.213 57.362 127.213 57.1973C127.213 57.0508 126.92 56.5017 126.572 55.9709C126.133 55.3119 125.931 54.8177 125.931 54.3601C125.931 53.8109 125.803 53.573 125.291 53.1154L124.632 52.5479L125.089 51.047C125.51 49.6375 125.931 47.679 126.206 45.8119C126.316 45.1712 126.279 45.0431 126.023 45.0431C125.62 45.0431 122.087 46.9285 120.074 48.2098L118.518 49.2165L117.951 48.8687C117.273 48.466 116.633 48.4294 116.157 48.7955C115.974 48.942 115.406 49.1982 114.93 49.3447C114.052 49.6375 114.034 49.6375 113.448 49.1982L112.862 48.7223L112.13 49.1616C111.178 49.6924 109.457 50.0585 108.469 49.9121C107.883 49.8206 107.627 49.6558 107.297 49.1616C107.078 48.8138 106.73 48.521 106.547 48.521C106.364 48.521 105.87 48.3928 105.449 48.2464C105.028 48.1 104.57 48.0267 104.424 48.0816C104.277 48.1549 104.021 48.6674 103.856 49.2348C103.692 49.8023 103.325 50.5894 103.051 50.9921C102.538 51.7242 102.538 51.7608 102.52 54.9275C102.502 59.5585 102.666 59.046 101.111 59.0643L99.7744 59.1009L99.39 57.4169C99.1703 56.5017 98.9141 55.3851 98.8225 54.9458C98.731 54.4882 98.548 53.994 98.4015 53.8475C98.1819 53.573 97.8707 52.731 97.8341 52.2734C97.8341 52.1635 97.6511 51.8707 97.4131 51.6327C96.9372 51.1202 96.9189 50.9738 97.2667 50.8456C97.706 50.6626 99.8842 47.1847 100.195 46.178C100.342 45.6472 100.598 45.0431 100.744 44.8235C101.111 44.3109 101.111 43.7801 100.781 43.652C100.635 43.5971 99.7927 43.7984 98.8958 44.0913C96.6626 44.8601 95.6193 44.9882 95.3813 44.5306C95.2166 44.2194 95.3447 44.1645 96.7907 43.8716C100.616 43.0845 105.723 39.625 107.773 36.4583C110.409 32.3764 110.903 26.8485 109.073 22.2175C107.847 19.124 104.955 15.7011 101.678 13.4497C99.2984 11.8206 95.18 9.66066 95.18 10.045ZM115.315 142.331C115.187 142.496 115.04 142.569 114.985 142.514C114.93 142.478 115.004 142.313 115.132 142.148C115.26 141.983 115.406 141.91 115.461 141.965C115.516 142.002 115.443 142.166 115.315 142.331ZM122.984 143.741C123.991 146.139 124.595 150.239 124.247 152.454C124.028 153.918 123.424 155.309 122.673 156.096C122.033 156.792 121.721 156.847 121.282 156.352C120.77 155.803 120.129 155.73 119.287 156.133C118.591 156.481 118.536 156.481 118.134 156.188C117.585 155.767 116.706 154.266 116.322 153.058C115.919 151.849 115.864 148.738 116.212 146.999L116.431 145.791L118.207 145.754C119.928 145.718 120.806 145.443 120.806 144.967C120.806 144.692 122.252 142.972 122.472 142.972C122.563 142.972 122.801 143.32 122.984 143.741ZM120.879 161.642C120.806 162.905 120.696 164.498 120.623 165.212C120.495 166.383 120.495 166.42 120.458 165.578C120.403 163.162 120.202 161.642 119.964 161.642C119.818 161.642 119.708 161.661 119.708 161.679C119.69 162.228 119.14 166.127 119.067 166.182C118.994 166.273 119.049 161.551 119.14 159.629C119.159 159.428 119.378 159.354 120.074 159.354H121.008L120.879 161.642ZM120.403 172.167C120.44 172.662 120.422 173.247 120.349 173.485C120.257 173.87 120.147 173.925 119.561 173.87C118.921 173.815 118.884 173.778 118.829 173.083C118.793 172.698 118.811 172.094 118.884 171.783C118.976 171.216 119.031 171.179 119.671 171.234C120.349 171.27 120.349 171.27 120.403 172.167ZM120.349 177.402C120.422 177.622 120.422 178.226 120.349 178.775C120.239 179.709 120.202 179.764 119.708 179.764C119.415 179.764 119.067 179.819 118.921 179.874C118.61 179.983 118.445 179.013 118.573 177.787L118.665 177.018H119.452C120.092 177.018 120.257 177.091 120.349 177.402ZM167.08 182.143C166.97 182.546 166.824 182.875 166.732 182.875C166.64 182.875 166.311 182.638 165.981 182.326C165.469 181.869 165.414 181.759 165.652 181.594C165.798 181.503 166.219 181.411 166.586 181.411H167.263L167.08 182.143ZM170.338 183.04C170.1 183.406 169.862 183.242 169.862 182.747C169.862 182.29 169.88 182.271 170.155 182.546C170.32 182.711 170.393 182.93 170.338 183.04ZM120.477 182.967C120.55 183.059 120.623 183.681 120.623 184.34V185.53L119.909 185.548C119.232 185.585 119.195 185.548 119.086 184.907C118.957 184.139 118.939 182.967 119.049 182.857C119.214 182.711 120.349 182.784 120.477 182.967ZM121.191 189.099C121.264 189.355 121.319 189.849 121.337 190.197C121.355 190.783 121.282 190.893 120.715 191.149C120.074 191.442 120.056 191.442 119.818 190.948C119.671 190.691 119.525 190.087 119.507 189.648C119.452 188.861 119.47 188.824 119.982 188.715C120.824 188.532 121.062 188.605 121.191 189.099ZM122.618 194.664C122.893 195.762 122.875 196.476 122.6 196.366C122.472 196.329 122.124 196.366 121.85 196.439C121.264 196.604 121.136 196.402 120.898 194.993C120.788 194.279 120.806 194.224 121.209 194.224C121.429 194.224 121.758 194.133 121.904 194.041C122.344 193.767 122.399 193.803 122.618 194.664ZM124.101 199.935L124.449 200.722L124.009 201.18L123.552 201.638L123.113 201.18C122.399 200.448 122.344 199.862 122.948 199.496C123.662 199.057 123.717 199.075 124.101 199.935ZM160.435 202.168C160.984 202.699 161.662 203.541 161.973 204.017L162.522 204.877L162.138 205.408C161.808 205.829 161.79 205.976 161.991 206.214C162.119 206.36 162.485 206.488 162.797 206.488C163.327 206.488 163.419 206.561 163.693 207.349C164.718 210.296 164.426 213.169 162.925 214.78C161.826 215.988 160.875 216.098 159.904 215.183C159.52 214.835 159.154 214.542 159.081 214.542C159.008 214.542 158.806 214.249 158.623 213.883C158.349 213.297 158.349 213.169 158.568 212.913C159.355 212.016 159.3 211.138 158.403 210.735C157.818 210.46 157.708 209.673 157.854 206.891C158.074 202.827 158.44 201.18 159.099 201.18C159.3 201.18 159.904 201.619 160.435 202.168ZM145.645 203.157C146.634 203.706 147.659 206.14 147.842 208.41L147.933 209.691L147.366 209.911C146.615 210.186 146.597 210.79 147.348 211.211C148.007 211.595 148.025 211.87 147.531 213.828C146.597 217.434 144.986 219.667 143.302 219.667C141.765 219.667 140.648 218.13 140.099 215.311C139.696 213.169 139.715 213.078 140.593 213.078C141.454 213.078 141.948 212.858 142.222 212.327C142.643 211.54 141.801 210.698 140.575 210.698C140.081 210.698 140.026 210.643 140.026 210.131C140.026 208.52 141.527 204.859 142.625 203.761C143.687 202.699 144.474 202.534 145.645 203.157ZM165.835 202.901C165.835 203.175 165.506 203.468 165.359 203.322C165.231 203.193 165.487 202.644 165.67 202.644C165.762 202.644 165.835 202.754 165.835 202.901ZM126.938 203.56L127.231 204.109H126.645C126.334 204.109 125.84 204.273 125.547 204.493C125.254 204.694 125.016 204.804 125.016 204.713C125.016 204.639 124.961 204.383 124.906 204.145C124.797 203.797 124.851 203.743 125.364 203.743C125.73 203.743 126.005 203.614 126.151 203.376C126.462 202.882 126.609 202.919 126.938 203.56ZM167.116 203.981C167.116 204.292 166.421 204.951 166.274 204.786C166.201 204.731 166.293 204.548 166.457 204.383C166.622 204.218 166.75 203.999 166.75 203.907C166.75 203.816 166.842 203.743 166.933 203.743C167.043 203.743 167.116 203.852 167.116 203.981ZM129.72 207.806C130.251 208.245 130.672 208.648 130.672 208.703C130.691 208.776 130.343 208.758 129.922 208.648C129.043 208.465 128.11 207.678 128.256 207.294C128.402 206.873 128.732 207.001 129.72 207.806ZM134.351 209.6C134.351 209.875 134.26 209.82 133.876 209.399C133.528 208.996 133.528 208.996 133.949 209.216C134.168 209.325 134.351 209.508 134.351 209.6ZM153.223 210.167C153.443 210.588 153.187 210.625 152.29 210.296C151.741 210.112 151.722 210.076 151.997 209.875C152.381 209.582 152.985 209.728 153.223 210.167ZM133.162 211.76C133.052 211.888 132.338 211.412 132.338 211.229C132.338 211.138 132.539 211.192 132.777 211.375C133.015 211.559 133.198 211.723 133.162 211.76ZM152.29 211.98C152.29 212.382 151.832 212.309 151.667 211.87C151.613 211.705 151.686 211.613 151.924 211.613C152.162 211.613 152.29 211.742 152.29 211.98Z" fill="black" stroke="white" stroke-width="2" mask="url(#path-1-inside-1)"/>
    </g>
    <defs>
        <filter id="filter0_d" x="0" y="0" width="205.002" height="246.558" filterUnits="userSpaceOnUse" color-interpolation-filters="sRGB">
            <feFlood flood-opacity="0" result="BackgroundImageFix"/>
            <feColorMatrix in="SourceAlpha" type="matrix" values="0 0 0 0 0 0 0 0 0 0 0 0 0 0 0 0 0 0 127 0"/>
            <feOffset dx="10"/>
            <feGaussianBlur stdDeviation="5"/>
            <feColorMatrix type="matrix" values="0 0 0 0 0 0 0 0 0 0.0745098 0 0 0 0 0.133333 0 0 0 1 0"/>
            <feBlend mode="normal" in2="BackgroundImageFix" result="effect1_dropShadow"/>
            <feBlend mode="normal" in="SourceGraphic" in2="effect1_dropShadow" result="shape"/>
        </filter>
    </defs>
</svg>
