<svg width="205" height="247" viewBox="0 0 205 247" fill="none" xmlns="http://www.w3.org/2000/svg">
    <g filter="url(#filter0_d)">
        <mask id="path-1-inside-1" fill="white">
            <path d="M89.821 10.045C89.821 10.1183 88.6312 11.2714 87.2035 12.5894C81.4193 17.8976 79.2228 21.467 79.2045 25.6404C79.1862 30.3447 82.3345 34.0605 87.6245 35.5797C88.4848 35.836 89.5281 36.0923 89.9491 36.1655L90.7179 36.2936L91.0657 35.1404C91.3951 34.0605 91.4684 33.9689 92.1273 33.7859C92.6215 33.6578 93.0059 33.3649 93.3903 32.8341C93.7564 32.3215 94.0309 32.1019 94.214 32.1751C95.0194 32.5046 96.0993 32.4314 97.4355 31.9371C98.5887 31.5161 98.8633 31.3331 99.0829 30.8755C99.2294 30.5643 99.87 28.1664 100.511 25.5489C101.17 22.9131 101.774 20.5701 101.865 20.3321C102.048 19.8562 102.231 20.3504 104.281 26.8668C104.885 28.8254 105.306 29.8504 105.471 29.8504C105.599 29.8504 105.819 30.1433 105.929 30.4911C106.093 30.9853 106.24 31.1317 106.569 31.1317C107.118 31.1317 107.356 30.8206 107.503 29.8871C107.649 28.9718 107.759 29.0084 107.887 29.9786C108.034 31.0036 108.784 32.3948 109.315 32.5961C109.608 32.7059 109.937 32.7059 110.249 32.5961C110.999 32.3032 111.127 32.3582 111.804 33.2734C112.939 34.8109 113.067 35.0672 113.067 35.7445C113.067 36.5499 112.958 36.5316 115.593 36.2387C122.348 35.5065 127.217 32.5229 129.139 27.9651C129.541 26.9949 129.614 26.5556 129.614 24.9082C129.633 22.8032 129.413 21.9063 128.351 19.783C127.436 17.9526 125.844 15.9391 123.061 13.047C121.67 11.6192 120.627 10.4477 120.773 10.4477C121.121 10.4477 123.611 11.8572 125.423 13.0836C130.713 16.6712 133.568 21.3572 133.568 26.4641C133.568 32.0104 130.841 36.9709 126.045 40.1375C123.043 42.1327 120.115 43.3774 117.351 43.8716C115.776 44.1645 115.612 44.2194 115.667 44.5672C115.703 44.8784 115.868 44.9699 116.545 45.0065C117.57 45.0797 119.236 44.7686 120.261 44.3109C121.194 43.8716 122.036 43.835 122.036 44.2194C122.036 44.3659 121.799 44.7686 121.487 45.098C121.011 45.6655 119.364 48.704 119.51 48.7772C119.73 48.8871 120.957 49.3264 121.524 49.4911C122.091 49.6558 122.22 49.784 122.256 50.2416C122.329 50.9921 122.915 51.2666 124.434 51.2666C125.368 51.2666 125.752 51.1751 126.118 50.9005C126.741 50.4063 127.235 50.4429 127.674 50.9921C128.132 51.5595 128.992 51.5961 129.999 51.0836L130.713 50.7175L131.701 51.1751L132.671 51.6327L133.898 51.0104C135.307 50.2965 139.462 48.704 139.883 48.704C140.103 48.704 140.139 48.8321 140.048 49.1982C139.773 50.4063 138.785 53.2801 138.309 54.3601L137.778 55.5499L138.254 56.0441C138.602 56.4102 138.767 56.8129 138.858 57.6183C138.95 58.4053 139.151 58.9179 139.627 59.5951C140.322 60.5836 140.707 61.5537 140.707 62.2859C140.707 62.5422 140.835 62.9998 140.981 63.2743C141.128 63.5672 141.256 63.9882 141.256 64.2262C141.256 64.4824 141.421 64.7204 141.714 64.8485C142.427 65.178 142.208 65.5624 140.89 66.3129C139.975 66.8254 139.297 67.0634 137.961 67.283C137.009 67.4294 135.966 67.5942 135.673 67.6491L135.124 67.7406V69.8822C135.124 71.9872 135.087 72.1337 134.19 74.9709C133.367 77.4969 132.818 79.8764 132.763 81.1944C132.744 81.4506 132.873 81.5788 133.202 81.6154C133.971 81.7252 134.337 82.2011 134.245 82.9333C134.209 83.2811 134.245 83.7753 134.355 84.0316C134.52 84.4709 134.868 87.2531 134.868 88.2416C134.868 89.2666 134.831 89.8158 134.74 90.1269C134.63 90.493 132.982 91.3533 132.415 91.3533C132.214 91.3533 132.031 91.5181 131.976 91.7377C131.902 91.9574 131.664 92.5065 131.427 92.9641C131.189 93.4034 131.024 93.8061 131.042 93.8244C131.079 93.8611 131.811 93.7146 132.69 93.5133L134.264 93.1472L134.593 91.9391C134.923 90.7493 135.582 89.7059 136.039 89.7059C136.167 89.7059 136.533 89.9073 136.826 90.1636C137.522 90.7493 138.529 91.1703 139.224 91.1703C139.847 91.1703 140.707 91.5181 140.707 91.7743C140.707 91.8659 141.476 92.7445 142.391 93.7146C143.324 94.6848 144.477 95.9478 144.972 96.5152C145.448 97.1009 146.07 97.6684 146.345 97.7965C146.619 97.9246 146.857 98.2175 146.894 98.4371C146.93 98.6568 148.047 99.8466 149.475 101.201C150.847 102.519 152.275 104.002 152.623 104.496C152.971 105.008 153.428 105.503 153.648 105.612C153.868 105.722 154.106 106.015 154.179 106.253C154.234 106.509 154.435 106.766 154.618 106.821C154.783 106.876 155.057 107.223 155.204 107.608C155.369 108.01 155.753 108.468 156.192 108.761C156.833 109.2 157.034 109.237 158.224 109.164L159.542 109.072L159.743 108.029C159.871 107.461 160.604 104.734 161.391 101.97C162.855 96.8081 168.09 76.6366 170.25 67.8321C170.927 65.1048 172.538 59.3023 173.874 54.9275C175.796 48.521 176.821 45.519 179.091 39.5518C180.647 35.4699 182.001 32.0653 182.093 31.9738C182.184 31.8822 182.312 31.8639 182.386 31.9188C182.459 31.9921 182.203 35.5248 181.818 39.7897C181.214 46.5258 180.958 48.5576 179.768 55.6597C179.036 60.1443 177.883 66.2763 177.224 69.2965C174.991 79.4005 170.927 99.0229 169.994 104.148C169.499 106.93 169.005 109.493 168.895 109.841C168.804 110.17 168.731 110.463 168.767 110.463C168.786 110.481 169.518 110.848 170.415 111.287C172.025 112.074 172.556 112.623 172.556 113.465C172.556 113.666 172.684 113.868 172.831 113.941C172.977 113.996 173.105 114.234 173.105 114.472C173.105 114.875 173.215 114.929 174.368 115.131C175.082 115.241 176.272 115.332 177.022 115.332C178.157 115.332 178.432 115.387 178.578 115.662C178.67 115.826 179.219 116.138 179.823 116.339L180.885 116.705L180.244 116.815C179.805 116.888 180.098 116.943 181.104 116.961C182.203 116.98 182.642 117.053 182.752 117.236C182.898 117.51 184.454 118.243 184.966 118.279C185.131 118.297 184.674 118.371 183.923 118.444C183.191 118.535 182.514 118.682 182.441 118.81C182.349 118.975 181.983 118.92 181.049 118.627C180.098 118.334 173.709 117.181 172.904 117.163C172.831 117.163 172.721 117.382 172.666 117.639C172.538 118.114 172.52 118.114 171.495 117.986L170.451 117.858L170.836 118.297C171.202 118.682 171.257 119.341 171 120.201C170.909 120.494 167.76 120 166.864 119.542C166.461 119.323 165.967 119.213 165.784 119.268C165.454 119.377 165.472 119.414 165.893 120.036C166.699 121.226 166.296 122.745 164.978 123.551C164.649 123.752 164.246 124.082 164.063 124.283C163.697 124.686 163.587 124.612 165.381 125.052C166.406 125.308 167.047 125.766 166.369 125.766C166.168 125.766 165.564 125.674 165.051 125.546C163.972 125.29 163.77 125.436 163.77 126.443C163.77 127.175 163.221 127.779 162.58 127.779C162.123 127.779 161.391 128.347 161.391 128.694C161.391 128.951 160.018 129.317 159.524 129.189C158.865 129.024 158.096 128.347 158.096 127.962C158.096 127.706 157.73 127.45 156.869 127.029C156.064 126.644 155.131 125.967 154.252 125.143C153.501 124.429 152.495 123.514 152.019 123.148C150.554 121.958 149.548 119.945 150.262 119.67C150.408 119.615 150.298 119.506 150.024 119.359C149.584 119.158 149.456 119.213 148.303 120.091C147.534 120.677 146.93 121.007 146.674 120.97C146.326 120.915 146.29 120.823 146.345 120.036C146.418 119.176 146.381 119.103 145.503 118.261C144.532 117.327 141.53 115.698 140.78 115.698C140.542 115.698 139.792 115.405 139.114 115.039C138.144 114.527 137.76 114.417 137.266 114.508C136.424 114.673 136.021 114.49 135.765 113.868C135.527 113.282 134.227 112.22 133.751 112.22C133.495 112.22 131.994 111.507 129.468 110.134C128.974 109.877 128.388 109.658 128.168 109.658C127.747 109.658 127.162 109.145 127.162 108.761C127.162 108.34 126.283 107.644 125.734 107.644C125.002 107.644 122.439 105.777 122.293 105.137C122.201 104.825 122.274 104.441 122.476 104.075C122.769 103.526 122.769 103.434 122.531 102.94C122.366 102.647 122.11 102.281 121.945 102.153C121.561 101.823 121.121 100.981 121.121 100.542C121.121 100.359 121.011 100.048 120.865 99.8649C120.645 99.5537 120.59 99.5903 120.151 100.341C119.895 100.78 119.547 101.604 119.401 102.171C119.071 103.434 118.668 104.276 118.064 104.935C117.808 105.191 117.643 105.503 117.717 105.594C117.772 105.686 117.607 106.033 117.351 106.381C116.875 107.04 116.856 107.809 117.332 108.651C117.442 108.852 117.515 109.072 117.515 109.127C117.497 109.2 117.68 109.438 117.918 109.658C118.54 110.244 118.504 110.463 117.643 111.14C116.747 111.873 116.362 112.879 116.692 113.721C116.856 114.161 116.838 114.307 116.563 114.582C116.252 114.893 116.271 114.929 116.856 115.296C117.186 115.515 117.662 116.101 117.918 116.595C118.156 117.089 118.595 117.675 118.888 117.876C119.456 118.261 119.602 118.572 120.133 120.329C120.426 121.336 120.426 121.464 120.151 122.361C119.968 122.892 119.84 123.368 119.84 123.423C119.84 123.496 120.243 123.386 120.755 123.185C121.249 123.002 121.78 122.892 121.927 122.947C122.476 123.166 123.684 126.37 123.684 127.614C123.684 128.072 123.812 128.53 123.977 128.713C124.251 129.024 124.251 129.115 123.94 129.957C123.629 130.836 123.629 130.891 123.958 131.623C124.141 132.044 124.453 132.447 124.617 132.557C124.8 132.648 125.002 133.014 125.075 133.344C125.203 134.076 125.295 134.112 127.674 134.296C128.608 134.35 129.395 134.479 129.45 134.552C129.486 134.625 128.644 135.101 127.546 135.595L125.569 136.51L125.441 137.297C125.368 137.718 125.112 138.341 124.837 138.689C124.416 139.256 124.379 139.421 124.489 140.318C124.562 141.032 124.526 141.526 124.324 141.983C124.178 142.349 124.05 143.082 124.05 143.612C124.05 144.583 124.343 145.187 125.441 146.505C125.862 146.999 125.862 147.035 125.587 147.694C124.965 149.122 124.91 149.049 127.198 150.147C128.333 150.715 129.633 151.337 130.09 151.538L130.914 151.904L130.182 152.087C129.779 152.179 128.406 152.527 127.125 152.856L124.8 153.46L124.691 154.156C124.599 154.705 124.343 155.053 123.428 155.84C122.805 156.389 122.128 157.158 121.945 157.542C121.744 157.945 121.378 158.531 121.14 158.86C120.81 159.318 120.7 159.684 120.719 160.233C120.755 161.093 120.664 161.313 120.096 161.606C119.657 161.844 118.138 164.333 118.284 164.571C118.339 164.663 118.284 164.937 118.156 165.157C118.046 165.395 117.881 166.145 117.808 166.823C117.643 168.561 117.442 168.726 115.886 168.47C115.227 168.36 114.66 168.232 114.623 168.195C114.587 168.159 114.458 167.719 114.33 167.225C114.221 166.713 114.092 166.218 114.056 166.09C114.019 165.926 113.8 165.944 113.177 166.145C112.5 166.383 112.317 166.548 112.152 167.06C112.024 167.427 111.969 167.719 112.006 167.756C112.903 168.378 113.598 169.056 113.653 169.385C113.726 169.788 113.104 171.673 112.573 172.717C112.408 173.009 112.225 173.394 112.152 173.54C112.079 173.687 111.859 173.888 111.64 173.998C111.365 174.108 111.237 174.346 111.237 174.675C111.237 174.968 111.091 175.279 110.853 175.426C110.615 175.609 110.505 175.847 110.541 176.139C110.596 176.506 110.816 176.615 112.299 177.018C113.232 177.256 113.964 177.549 113.928 177.659C113.854 177.897 112.5 178.574 111.292 178.958C110.505 179.215 110.322 179.361 110.23 179.8C110.157 180.075 109.901 180.478 109.644 180.679C108.931 181.246 108.784 182.454 109.352 183.37C109.571 183.754 109.773 184.12 109.773 184.193C109.773 184.267 109.498 184.376 109.169 184.431C108.656 184.541 108.583 184.614 108.528 185.2C108.51 185.548 108.308 186.097 108.089 186.39C107.723 186.921 107.723 186.976 107.997 187.452C108.162 187.726 108.253 188.001 108.18 188.074C108.125 188.129 108.235 188.184 108.455 188.184C108.931 188.184 109.15 188.513 108.876 188.788C108.766 188.898 108.674 189.136 108.674 189.3C108.674 189.483 108.51 189.904 108.308 190.252C108.107 190.582 107.869 191.387 107.777 192.028C107.649 193.016 107.686 193.346 107.96 193.986C108.144 194.426 108.235 194.773 108.18 194.773C108.107 194.773 108.253 194.975 108.473 195.213C108.986 195.762 108.876 195.981 107.942 196.256C107.375 196.421 107.21 196.567 107.21 196.878C107.21 197.08 107.082 197.428 106.935 197.629C106.789 197.812 106.661 198.324 106.661 198.745C106.661 199.166 106.588 199.569 106.478 199.624C106.368 199.679 106.295 199.935 106.295 200.173C106.295 200.411 106.203 200.832 106.075 201.088C105.91 201.473 105.91 201.656 106.075 201.93C106.203 202.132 106.258 202.37 106.203 202.461C106.148 202.534 106.185 202.809 106.258 203.047C106.368 203.322 106.331 203.669 106.185 204.017C106.057 204.31 105.947 204.969 105.929 205.481C105.929 206.269 106.057 206.58 106.844 207.806C107.338 208.593 107.832 209.582 107.96 210.003C108.253 211.119 108.876 212.291 109.809 213.444C110.249 213.993 110.999 214.927 111.475 215.531C112.244 216.482 112.317 216.665 112.225 217.27C112.134 217.819 112.244 218.112 112.866 219.082C113.983 220.784 114.202 221.406 114.349 223.328C114.458 224.683 114.44 225.177 114.239 225.561C113.909 226.184 113.104 226.623 112.262 226.623C111.749 226.623 111.493 226.77 110.889 227.392C110.175 228.142 110.102 228.179 109.004 228.197C108.327 228.197 107.851 228.289 107.796 228.417C107.759 228.545 107.942 229.094 108.198 229.662C108.473 230.247 108.674 231.034 108.674 231.455C108.674 232.096 108.565 232.334 107.979 232.902C106.679 234.183 102.506 235.556 98.1494 236.141C97.2342 236.27 96.0627 236.434 95.5319 236.507C94.3787 236.672 92.9876 236.416 92.4751 235.958C92.2737 235.775 91.926 235.537 91.7063 235.428C91.4684 235.318 91.1572 234.952 90.9924 234.64C90.7362 234.128 90.7179 233.89 90.9192 232.81C91.1206 231.657 91.1023 231.51 90.7362 230.742L90.3335 229.918L90.6996 228.856C90.9192 228.289 91.2121 227.465 91.3585 227.044C91.7063 226.074 91.7795 224.445 91.4867 223.896C91.0657 223.145 91.3951 221.919 92.347 220.692C93.3903 219.356 93.6283 218.166 93.2073 216.501C93.0608 215.915 92.9327 215.146 92.9327 214.798C92.9327 214.268 92.8778 214.176 92.5117 214.176C92.2737 214.176 91.5782 213.81 90.9558 213.352C89.9308 212.602 89.821 212.455 89.821 211.87C89.821 211.522 89.7294 211.046 89.6196 210.845C89.5098 210.643 89.2535 209.82 89.0705 209.014C88.6678 207.367 88.2285 206.397 87.5512 205.774C87.295 205.518 87.0753 205.17 87.0753 204.987C87.0753 204.603 86.6177 204.402 85.3364 204.218C83.927 204.017 83.0118 203.743 83.085 203.523C83.1216 203.431 83.8904 202.955 84.7873 202.498C86.4347 201.638 86.4347 201.638 86.5628 200.814C86.636 200.356 86.7458 199.716 86.8191 199.404C86.9106 198.892 86.8557 198.727 86.3432 198.251C85.8489 197.794 85.7757 197.592 85.8489 197.098C85.9039 196.732 85.8123 196.256 85.5927 195.835C85.3913 195.451 85.2449 194.902 85.2449 194.59C85.2449 193.858 84.9154 193.254 83.9087 192.028L83.085 191.039L83.4328 190.161C83.6158 189.666 83.7806 189.044 83.7806 188.751C83.7806 188.312 83.6524 188.202 82.7921 187.836C81.2363 187.195 81.1814 186.994 82.3894 186.463C82.9569 186.207 83.4145 185.914 83.4145 185.823C83.4145 185.713 83.085 184.999 82.7006 184.23C82.0234 182.93 81.9135 182.821 80.8885 182.326C79.1862 181.521 79.2228 181.393 81.2546 181.137C81.9135 181.045 82.1332 180.935 82.1332 180.716C82.1332 180.551 82.2613 180.258 82.4077 180.057C82.5542 179.874 82.7189 179.343 82.7921 178.867C82.9935 177.457 83.6524 176.377 84.5127 176.03C84.9154 175.865 85.4096 175.737 85.5927 175.737C85.8489 175.737 86.032 175.481 86.2699 174.767C86.4347 174.254 86.8008 173.485 87.057 173.083C87.9905 171.673 88.3566 170.465 88.3566 168.781C88.3566 167.921 88.3017 166.804 88.2468 166.273L88.1187 165.34L87.1852 165.431C86.2882 165.523 86.1967 165.505 85.7391 164.937C85.3913 164.534 85.2449 164.15 85.2449 163.674V162.979L83.8172 164.37C81.8586 166.292 80.5407 167.17 79.4241 167.28C78.9116 167.317 78.4723 167.28 78.3991 167.17C78.3442 167.06 78.454 166.621 78.6371 166.164C78.9848 165.358 79.2411 163.784 79.5889 160.27C79.7902 158.238 80.0465 157.048 80.8702 154.54L81.4376 152.856L80.6871 149.964C80.2844 148.39 79.8085 146.523 79.6621 145.827C79.4974 145.113 79.1679 144.07 78.9116 143.484C78.6005 142.825 78.4723 142.276 78.5455 142.002C78.6005 141.764 78.4174 140.629 78.1245 139.476C77.2643 136.108 77.2459 134.991 77.9232 128.969C78.1612 126.791 78.6188 124.484 78.9116 124.027C79.0398 123.825 79.3692 123.002 79.6621 122.196C80.1929 120.695 80.9434 119.762 82.7006 118.426C83.6341 117.712 84.2016 116.43 84.2565 114.875C84.2748 114.179 84.3114 113.538 84.3114 113.465C84.3297 113.41 84.7324 113.209 85.2449 113.044L86.1601 112.733V111.854C86.1601 111.067 86.0869 110.902 85.4096 110.225C84.7507 109.566 84.6592 109.402 84.769 108.889C84.8605 108.45 84.769 108.193 84.4212 107.717C84.165 107.388 83.9636 107.04 83.9636 106.949C83.9636 106.857 83.7989 106.638 83.5975 106.454C83.323 106.198 83.2863 106.052 83.4328 105.777C83.5792 105.484 83.5243 105.283 83.1582 104.734C82.902 104.368 82.6823 103.965 82.6823 103.837C82.6823 103.709 82.3345 103.27 81.9318 102.849C81.5108 102.409 80.6688 101.476 80.0648 100.78C78.9116 99.4256 76.8982 97.5402 76.2392 97.1925C75.9097 97.0094 75.7999 97.046 75.5986 97.3206C74.9579 98.1626 74.9762 98.2358 75.9097 99.2792C76.3856 99.8466 76.8616 100.506 76.9165 100.725C76.9897 100.963 77.1361 101.256 77.2459 101.402C77.5022 101.714 77.9415 102.885 77.9598 103.251C77.9598 103.398 78.0513 103.8 78.1429 104.148C78.3076 104.661 78.271 104.899 78.0147 105.375C77.7219 105.942 77.7036 106.033 77.9964 106.729C78.5089 107.992 78.3808 109.731 77.6303 112.092C76.9531 114.197 76.3673 115.405 75.7267 115.973C75.5436 116.138 75.324 116.522 75.2691 116.815C75.1959 117.108 74.9579 117.474 74.72 117.639C74.2807 117.931 72.5234 120.915 71.9926 122.288C71.8096 122.727 71.6265 123.441 71.5899 123.844C71.535 124.246 71.4069 124.667 71.2971 124.796C71.1872 124.924 71.1689 125.381 71.2421 125.912L71.352 126.809L70.4734 127.12C69.9975 127.303 69.3385 127.505 69.0456 127.578C68.3867 127.724 68.3867 127.852 68.8077 131.019C69.1005 133.161 69.2836 133.563 70.4002 134.625C70.7113 134.936 70.9676 135.284 70.9676 135.412C70.9676 135.705 71.1323 135.705 71.6998 135.376C72.3404 135.009 72.615 135.046 72.615 135.485C72.615 135.943 72.3221 136.51 71.8279 137.06L71.4618 137.481L71.9377 137.92C72.2123 138.176 72.4319 138.524 72.4319 138.707C72.4319 139.073 73.3288 141.05 73.9512 142.057C74.1708 142.404 74.3722 142.77 74.3905 142.88C74.4088 142.972 74.72 143.869 75.086 144.857C75.7999 146.852 75.9097 147.914 75.4338 147.914C75.2691 147.914 74.4271 147.164 73.5485 146.248L71.9743 144.601L71.2971 144.876L70.6381 145.168L70.9127 146.303C71.114 147.09 71.2055 148.317 71.2055 150.111C71.2055 152.508 71.1506 152.893 70.7113 154.138C70.1073 155.84 69.2287 157.176 68.1304 158.091C67.38 158.695 67.2884 158.842 67.38 159.336C67.4349 159.647 67.4898 161.844 67.5081 164.223L67.5447 168.543L68.0206 168.433C68.588 168.269 68.6063 168.14 69.1555 164.205L69.5582 161.185L70.4551 160.233C70.931 159.72 71.3337 159.135 71.3337 158.97C71.3337 158.787 71.3886 158.695 71.4435 158.75C71.4984 158.823 71.535 161.185 71.5167 164.04C71.4984 169.586 71.4069 170.428 70.4551 173.174C70.0707 174.309 69.8144 174.73 68.9724 175.554L67.9474 176.56V178.208C67.9474 179.105 67.8742 180.057 67.7826 180.295C67.6362 180.716 67.6545 180.716 68.4782 180.606C68.9541 180.533 69.5948 180.349 69.9242 180.221C70.5466 179.965 72.0109 178.647 72.377 178.025C72.7614 177.366 72.4319 179.471 71.7547 181.96C70.6564 186.024 69.3934 188.165 67.7643 188.678C67.2518 188.843 67.1969 188.953 67.0139 190.051C66.904 190.71 66.6295 191.552 66.3915 191.918C66.0254 192.522 66.0071 192.632 66.2451 192.87C66.3915 193.016 67.0322 193.199 67.6911 193.272C69.0639 193.437 70.1439 193.089 71.0957 192.174L71.6814 191.607L71.3337 192.742C70.693 194.883 68.9724 198.05 67.7094 199.368C66.4647 200.704 65.7692 200.997 64.5977 200.649C64.0303 200.484 63.9937 200.503 63.7557 201.07C63.6276 201.4 63.2066 201.967 62.8405 202.315C62.1815 202.955 62.1815 202.955 62.4561 203.596C62.7856 204.402 64.1767 205.665 65.037 205.939C65.696 206.159 66.959 206.122 67.563 205.848C67.8925 205.701 67.8925 205.719 67.563 206.232C66.7942 207.458 65.4946 208.776 64.2682 209.6C63.1334 210.387 62.8222 210.497 61.6873 210.607C60.2962 210.753 59.8203 210.607 58.722 209.673L58.1363 209.179L57.4041 209.783C56.9465 210.131 56.251 210.46 55.6286 210.607C55.0612 210.753 54.567 210.936 54.5304 211.046C54.4938 211.156 54.2741 211.522 54.0545 211.851C53.7982 212.236 53.6884 212.584 53.7616 212.73C53.8348 212.876 53.9629 213.188 54.0361 213.444L54.1643 213.902L53.6335 213.389C52.7365 212.565 52.6267 212.693 52.7732 214.451C52.8464 215.311 52.8464 216.007 52.7915 216.007C52.6267 216.007 51.8213 214.377 51.6749 213.755C51.5102 213.078 51.1624 213.206 50.961 214.011C50.8146 214.56 50.778 214.597 50.6316 214.268C50.5583 214.066 50.4851 213.737 50.4851 213.535C50.4485 212.986 49.4967 212.529 48.3435 212.529H47.3551V213.389C47.3551 214.67 46.8975 217.05 46.4216 218.203C45.4514 220.601 43.9322 221.864 42.0469 221.864C40.5459 221.864 39.5758 221.388 38.3494 220.052C36.7386 218.313 35.5122 215.402 35.1279 212.437L34.9997 211.357L34.5238 212.272C34.1943 212.913 34.0662 213.389 34.1211 213.828L34.1943 214.451L33.7367 213.902L33.2608 213.352V214.579C33.2608 215.274 33.1876 215.823 33.1144 215.823C32.913 215.823 32.3456 214.615 32.3456 214.176C32.3456 213.975 32.2541 213.81 32.1626 213.81C32.0527 213.81 31.9795 213.956 31.9795 214.121C31.9795 214.377 31.9429 214.396 31.8148 214.194C31.5219 213.737 30.7165 214.506 30.6799 215.274C30.625 216.391 30.6067 216.464 30.4786 216.665C30.3871 216.794 30.4237 217.306 30.5152 217.837C30.625 218.368 30.6982 219.008 30.6982 219.283C30.6799 219.722 30.6616 219.741 30.442 219.429C30.1308 219.027 29.6 219.21 29.6 219.722C29.6 220.088 29.6 220.088 29.3254 219.741C29.0142 219.356 29.0142 219.265 29.3986 221.223C29.4901 221.718 29.6183 222.505 29.6732 222.962C29.7464 223.731 29.7464 223.768 29.4901 223.42C29.3254 223.218 28.9959 222.651 28.758 222.175C28.2821 221.242 27.9526 221.15 27.7512 221.882C27.6597 222.267 27.6048 222.175 27.3119 221.297C27.0008 220.326 26.9642 220.29 26.4333 220.363C25.4266 220.509 25.0605 219.411 25.7561 218.295C26.0672 217.782 26.0856 217.672 25.8476 217.581C25.7012 217.526 25.3534 217.562 25.0971 217.654C23.9989 218.075 21.8756 217.379 20.7956 216.244C18.7455 214.121 18.3062 210.57 19.6059 206.818C19.9902 205.719 20.0085 205.555 19.7523 205.665C19.5875 205.738 19.313 205.829 19.1482 205.884C18.9835 205.939 18.7455 206.195 18.5991 206.452L18.3795 206.946L18.2513 206.397L18.1415 205.848L17.8486 206.397C17.6839 206.69 17.3361 207.147 17.0616 207.403L16.5673 207.861L16.7138 207.312C16.7687 207.001 16.9517 206.488 17.0799 206.14C17.3727 205.427 17.2995 205.225 16.8785 205.573C16.4941 205.902 16.3294 205.683 16.6405 205.244C17.0066 204.713 16.8419 203.23 16.3843 202.992C16.128 202.864 15.9633 202.864 15.7619 203.029C15.5606 203.193 15.5057 203.193 15.5057 203.01C15.5057 202.846 15.3776 202.882 15.103 203.12L14.7186 203.468L14.865 202.827C14.9383 202.48 15.0481 201.857 15.1213 201.454C15.1945 201.052 15.3593 200.539 15.4691 200.32C15.7253 199.862 15.7619 199.166 15.524 199.166C14.9017 199.166 12.7601 203.102 12.7601 204.273C12.7417 204.731 12.7417 204.731 12.4672 204.383C12.3208 204.182 11.9913 203.358 11.7533 202.553C11.1859 200.594 11.3689 199.148 12.3574 198.013C12.9797 197.318 12.3757 197.574 10.8564 198.654C9.97781 199.295 8.95277 200.008 8.58669 200.246L7.90942 200.686L8.27551 200.246C8.45856 200.008 9.0809 199.331 9.64833 198.727L10.6551 197.665L9.73985 198.324C9.22733 198.691 8.33043 199.331 7.72638 199.734C6.64644 200.466 6.64644 200.448 8.45856 198.672C9.46529 197.684 10.9296 196.274 11.735 195.542C13.1628 194.224 13.1628 194.224 12.9431 193.657C12.7784 193.272 12.6136 193.144 12.4123 193.218C10.8198 193.803 7.36031 196.823 6.64644 198.233L6.22543 199.057L6.09731 198.471C5.74953 196.897 6.84778 192.815 8.16568 190.875C9.22733 189.3 10.3988 188.495 13.3458 187.36C14.865 186.774 15.1396 186.61 15.1396 186.262C15.1396 185.896 15.0664 185.859 14.3525 185.914C9.5202 186.298 6.48169 186.829 4.10214 187.726C3.42488 187.982 2.71101 188.184 2.52797 188.184C2.34494 188.184 1.70428 188.422 1.11855 188.733C0.532806 189.026 0.0202942 189.282 0.00198364 189.282C-0.0163116 189.282 0.0935059 189.044 0.239944 188.751C0.715851 187.799 3.62624 184.889 5.2187 183.791C6.73796 182.711 9.42868 181.521 11.3689 181.027L12.2658 180.807L11.8265 180.459L11.3872 180.112L11.7899 180.203C12.0279 180.258 12.3757 180.368 12.5953 180.423C12.7967 180.478 13.2177 180.423 13.5105 180.313C14.0597 180.075 14.0597 180.002 13.7302 179.068C13.5837 178.72 13.8766 178.812 14.3342 179.233C14.7186 179.599 14.8284 179.617 15.5789 179.398C16.366 179.178 16.4026 179.16 16.787 177.915C17.0249 177.219 17.2629 176.652 17.3361 176.652C17.4093 176.652 17.5924 177.165 17.7388 177.787C17.9951 178.922 18.0134 178.94 18.6906 178.995C19.2398 179.05 19.4411 178.958 19.734 178.592C19.9353 178.318 20.2831 178.025 20.4845 177.915C20.8139 177.732 20.8505 177.75 20.7407 178.025C20.3746 178.977 20.3929 179.215 20.8322 179.215C21.0702 179.215 21.6193 179.013 22.0403 178.757C22.864 178.299 23.0287 178.336 22.5528 178.849C22.2783 179.141 22.443 179.178 24.7859 179.251C26.9825 179.343 27.4767 179.416 28.5932 179.855C30.442 180.587 32.7849 182.363 33.3707 183.443L33.6086 183.937L32.8398 183.718C32.2907 183.553 31.1192 183.534 28.6848 183.626C25.3168 183.754 22.6993 184.193 19.3313 185.182C17.8486 185.621 18.2696 186.17 20.0818 186.17C21.6742 186.17 25.4632 185.603 26.2686 185.255C26.7262 185.054 27.1289 184.907 27.1655 184.962C27.257 185.054 25.7012 186.06 23.9256 187.086C21.6193 188.403 18.9103 190.069 18.6357 190.307C18.4893 190.454 19.2581 190.106 20.3746 189.557C22.4796 188.513 23.5229 188.22 22.6443 188.934C22.3881 189.136 21.6376 189.721 20.9421 190.216C20.2648 190.728 19.7157 191.167 19.7157 191.204C19.7157 191.241 20.1733 191.076 20.7224 190.838C21.2715 190.582 21.7291 190.417 21.7291 190.472C21.7291 190.508 21.1068 191.003 20.3563 191.57C19.6059 192.119 18.9835 192.632 18.9835 192.687C18.9835 192.815 19.2764 192.632 20.0634 192.046L20.6858 191.57L20.4478 192.028C20.3197 192.284 19.9719 192.778 19.6974 193.144C19.4045 193.51 19.1665 193.986 19.1665 194.206C19.1665 194.407 18.9286 194.755 18.6174 194.993C18.0683 195.396 17.1531 196.75 17.1531 197.135C17.1531 197.501 17.5924 197.336 18.0317 196.823L18.4527 196.329L18.3246 196.787L18.2147 197.244L18.6906 196.805C19.2398 196.293 19.2947 196.494 18.892 197.482C18.7272 197.849 18.654 198.343 18.7089 198.581C18.7639 198.837 18.7089 199.203 18.5625 199.423C18.1232 200.1 18.05 200.741 18.3612 201.015C18.6174 201.217 18.7089 201.18 19.0018 200.814L19.3496 200.356V200.796C19.3496 201.198 19.4045 201.162 20.0818 200.429C20.8688 199.551 20.9604 199.624 20.5394 200.814C20.1733 201.857 20.1916 202.04 20.6675 201.619C21.0519 201.271 21.0519 201.271 20.9238 201.729C20.759 202.315 20.759 202.37 20.7773 203.358L20.8139 204.182L21.3448 203.34C22.6993 201.217 25.152 199.148 26.3235 199.166C28.0258 199.203 28.8129 201.93 28.9044 208.099C28.941 210.387 28.9776 210.881 29.1973 210.79C29.3254 210.735 29.6 210.698 29.8013 210.698C30.0027 210.698 30.1491 210.57 30.1491 210.369C30.1491 210.204 30.3138 209.783 30.5152 209.454C30.8264 208.941 30.863 208.74 30.7165 208.191L30.5335 207.532L31.0277 208.026C31.3206 208.282 31.6134 208.502 31.6867 208.502C31.7599 208.502 31.8148 208.154 31.7965 207.715C31.7599 207.294 31.7599 206.653 31.7782 206.305L31.8331 205.665L32.2724 206.58C32.5103 207.074 32.7117 207.678 32.7117 207.898C32.7117 208.465 33.0046 208.428 33.151 207.861C33.2974 207.275 33.6269 207.44 33.6269 208.099C33.6452 208.392 33.9015 208.886 34.2675 209.307L34.9082 210.021L34.9265 209.49C34.9631 208.044 35.439 205.591 35.9149 204.456C36.9034 202.022 38.4775 200.631 40.2347 200.631C42.4496 200.631 44.3898 202.315 45.7809 205.463C46.2751 206.598 46.989 208.959 46.989 209.527C46.989 210.241 47.227 210.369 48.1422 210.131C48.6181 210.021 49.0025 209.82 49.0025 209.691C49.0025 209.563 49.1672 209.27 49.3503 209.014C49.6431 208.648 49.6797 208.428 49.5516 207.898C49.3869 207.147 49.515 207.019 49.8811 207.586C50.0092 207.788 50.2289 207.953 50.3753 207.953C50.5766 207.953 50.6499 207.641 50.6865 206.635L50.7414 205.298L51.2905 206.433C51.5834 207.074 51.8945 207.586 51.9678 207.586C52.0227 207.586 52.1508 207.312 52.224 207.001L52.3522 206.397L52.5718 206.909L52.7732 207.403L53.4138 206.744C53.7433 206.397 54.4205 205.848 54.8965 205.536C55.8483 204.932 55.8666 204.914 55.5737 204.164C55.4639 203.889 55.3174 202.955 55.2442 202.095C55.1161 200.741 55.1527 200.246 55.592 198.251C55.8666 196.988 56.1594 195.597 56.2327 195.139C56.3791 194.169 56.672 193.529 56.6903 194.133C56.6903 194.718 57.8983 197.428 58.6305 198.544C58.9966 199.093 59.3078 199.533 59.3444 199.533C59.381 199.533 59.6189 199.166 59.8752 198.709L60.3328 197.885L59.8203 196.823C59.5274 196.256 59.1796 195.359 59.0149 194.865C58.6488 193.712 58.3376 190.527 58.3376 188.111C58.3559 186.317 58.3559 186.28 58.6488 186.811C59.3261 188.074 61.5226 190.38 62.0351 190.38C62.1266 190.38 62.1815 190.106 62.1998 189.776C62.1998 189.465 62.3097 188.861 62.4378 188.458C62.6391 187.744 62.6391 187.726 61.7239 186.5C61.1382 185.713 60.644 184.816 60.3877 184.029C60.0033 182.802 59.2163 179.306 58.9966 177.805L58.8868 177.055L59.9484 178.098C61.0467 179.215 61.7239 179.636 62.6391 179.837L63.1883 179.947L63.17 178.299L63.1334 176.652L62.3463 176.048C61.3945 175.334 60.3877 173.595 59.7105 171.435C59.3261 170.245 59.1796 169.129 58.8868 165.395C58.6854 162.869 58.5207 160.562 58.5207 160.27V159.72L58.8685 160.27C59.0515 160.581 59.5091 161.075 59.8752 161.368C60.5342 161.899 60.5525 161.972 61.1748 164.937C61.5226 166.603 61.8521 168.14 61.907 168.36C61.9802 168.671 62.1449 168.781 62.5293 168.781C63.0418 168.781 63.0418 168.781 62.9137 167.921C62.8222 167.427 62.7124 165.212 62.6391 162.997L62.511 158.933L61.8155 158.549C60.8087 157.981 59.7471 156.627 59.1613 155.163C58.7586 154.119 58.6488 153.497 58.5756 151.74C58.4292 148.793 58.9051 146.065 60.0949 142.935C60.4243 142.075 60.4243 142.057 60.0216 141.636C59.7471 141.343 59.6189 140.977 59.6189 140.446C59.6189 139.695 59.6006 139.695 58.722 139.421C56.5255 138.762 55.9581 138.011 56.5804 136.529C56.7818 136.071 56.8184 135.504 56.7452 134.497C56.6171 132.813 56.9282 131.092 57.5506 130.031C57.88 129.463 57.9716 129.097 57.88 128.731C57.8251 128.438 57.88 127.962 58.0265 127.614C58.2095 127.193 58.2461 126.791 58.1363 126.26C57.7702 124.448 57.459 121.794 57.5506 121.336C57.6055 121.025 57.4957 120.586 57.2211 120.11C56.8184 119.377 56.8184 119.359 57.1479 118.737C57.4773 118.133 57.4773 118.078 57.0747 115.918C56.7635 114.252 56.6903 113.337 56.7635 112.111C56.8184 111.214 56.9465 108.706 57.0747 106.546C57.276 102.647 57.276 102.611 57.7885 102.043C58.2278 101.531 58.2827 101.348 58.2095 100.634C58.118 99.9015 58.1546 99.7917 58.539 99.5903C58.777 99.4622 59.381 99.0961 59.8935 98.7483C60.5891 98.2724 61.0833 98.1077 61.9619 98.0162C63.0418 97.888 63.1517 97.8331 63.7557 97.1192C64.4513 96.2589 64.5428 95.6366 64.1035 94.5932C63.9571 94.2271 63.8289 93.4767 63.8289 92.9458C63.8289 91.2984 63.7008 90.9506 62.8222 90.4198C62.1632 89.9988 62.0351 89.8158 61.9619 89.23C61.8887 88.6809 61.9436 88.4246 62.2365 88.1135C62.4744 87.8389 62.5659 87.5643 62.4744 87.2715C62.4012 86.9603 62.4927 86.6674 62.749 86.3379C62.9503 86.0816 63.0602 85.7705 63.0052 85.679C62.932 85.5691 62.9869 85.3495 63.1151 85.1847C63.2432 85.0383 63.3347 84.6356 63.2981 84.2878C63.2798 83.9034 63.4079 83.4092 63.7008 82.8967C63.9571 82.4574 64.2133 81.8167 64.2682 81.4689C64.3964 80.7551 64.012 78.5585 63.5544 77.2589C63.3896 76.8013 63.2981 76.2705 63.353 76.0874C63.4079 75.8861 63.1517 74.9892 62.8039 74.0923C61.9802 72.0056 61.7239 69.9371 62.0717 68.4179L62.3097 67.3745L60.6623 66.5325C58.6854 65.5258 57.3126 64.6289 55.9947 63.4391C54.4938 62.0845 54.3656 61.4256 55.5188 60.8764C55.8849 60.7117 56.2144 60.4371 56.251 60.2724C56.3059 60.1077 56.434 59.8148 56.5255 59.6501C56.6171 59.467 56.6903 59.046 56.6903 58.6799C56.6903 58.1674 56.7818 58.0027 57.2394 57.7647C57.5323 57.6 57.7885 57.362 57.7885 57.1973C57.7885 57.0508 58.0814 56.5017 58.4292 55.9709C58.8685 55.3119 59.0698 54.8177 59.0698 54.3601C59.0698 53.8109 59.198 53.573 59.7105 53.1154L60.3694 52.5479L59.9118 51.047C59.4908 49.6375 59.0698 47.679 58.7953 45.8119C58.6854 45.1712 58.722 45.0431 58.9783 45.0431C59.381 45.0431 62.9137 46.9285 64.9272 48.2098L66.483 49.2165L67.0505 48.8687C67.7277 48.466 68.3684 48.4294 68.8443 48.7955C69.0273 48.942 69.5948 49.1982 70.0707 49.3447C70.9493 49.6375 70.9676 49.6375 71.5533 49.1982L72.1391 48.7223L72.8712 49.1616C73.8231 49.6924 75.5436 50.0585 76.5321 49.9121C77.1178 49.8206 77.3741 49.6558 77.7036 49.1616C77.9232 48.8138 78.271 48.521 78.454 48.521C78.6371 48.521 79.1313 48.3928 79.5523 48.2464C79.9733 48.1 80.4309 48.0267 80.5773 48.0816C80.7238 48.1549 80.98 48.6674 81.1448 49.2348C81.3095 49.8023 81.6756 50.5894 81.9501 50.9921C82.4627 51.7242 82.4627 51.7608 82.481 54.9275C82.4993 59.5585 82.3345 59.046 83.8904 59.0643L85.2266 59.1009L85.611 57.4169C85.8306 56.5017 86.0869 55.3851 86.1784 54.9458C86.2699 54.4882 86.453 53.994 86.5994 53.8475C86.8191 53.573 87.1302 52.731 87.1668 52.2734C87.1668 52.1635 87.3499 51.8707 87.5878 51.6327C88.0638 51.1202 88.0821 50.9738 87.7343 50.8456C87.295 50.6626 85.1168 47.1847 84.8056 46.178C84.6592 45.6472 84.4029 45.0431 84.2565 44.8235C83.8904 44.3109 83.8904 43.7801 84.2199 43.652C84.3663 43.5971 85.2083 43.7984 86.1052 44.0913C88.3383 44.8601 89.3817 44.9882 89.6196 44.5306C89.7844 44.2194 89.6562 44.1645 88.2102 43.8716C84.3846 43.0845 79.2777 39.625 77.2276 36.4583C74.5918 32.3764 74.0976 26.8485 75.928 22.2175C77.1544 19.124 80.0465 15.7011 83.323 13.4497C85.7025 11.8206 89.821 9.66066 89.821 10.045ZM69.6863 142.331C69.8144 142.496 69.9609 142.569 70.0158 142.514C70.0707 142.478 69.9975 142.313 69.8693 142.148C69.7412 141.983 69.5948 141.91 69.5399 141.965C69.4849 142.002 69.5582 142.166 69.6863 142.331ZM62.0168 143.741C61.0101 146.139 60.406 150.239 60.7538 152.454C60.9735 153.918 61.5775 155.309 62.328 156.096C62.9686 156.792 63.2798 156.847 63.7191 156.352C64.2316 155.803 64.8723 155.73 65.7143 156.133C66.4098 156.481 66.4647 156.481 66.8674 156.188C67.4166 155.767 68.2952 154.266 68.6796 153.058C69.0822 151.849 69.1372 148.738 68.7894 146.999L68.5697 145.791L66.7942 145.754C65.0736 145.718 64.195 145.443 64.195 144.967C64.195 144.692 62.749 142.972 62.5293 142.972C62.4378 142.972 62.1998 143.32 62.0168 143.741ZM64.1218 161.642C64.195 162.905 64.3048 164.498 64.3781 165.212C64.5062 166.383 64.5062 166.42 64.5428 165.578C64.5977 163.162 64.799 161.642 65.037 161.642C65.1834 161.642 65.2933 161.661 65.2933 161.679C65.3116 162.228 65.8607 166.127 65.9339 166.182C66.0071 166.273 65.9522 161.551 65.8607 159.629C65.8424 159.428 65.6227 159.354 64.9272 159.354H63.9937L64.1218 161.642ZM64.5977 172.167C64.5611 172.662 64.5794 173.247 64.6526 173.485C64.7441 173.87 64.854 173.925 65.4397 173.87C66.0803 173.815 66.117 173.778 66.1719 173.083C66.2085 172.698 66.1902 172.094 66.117 171.783C66.0254 171.216 65.9705 171.179 65.3299 171.234C64.6526 171.27 64.6526 171.27 64.5977 172.167ZM64.6526 177.402C64.5794 177.622 64.5794 178.226 64.6526 178.775C64.7624 179.709 64.799 179.764 65.2933 179.764C65.5861 179.764 65.9339 179.819 66.0803 179.874C66.3915 179.983 66.5563 179.013 66.4281 177.787L66.3366 177.018H65.5495C64.9089 177.018 64.7441 177.091 64.6526 177.402ZM17.9219 182.143C18.0317 182.546 18.1781 182.875 18.2696 182.875C18.3612 182.875 18.6906 182.638 19.0201 182.326C19.5326 181.869 19.5875 181.759 19.3496 181.594C19.2032 181.503 18.7822 181.411 18.4161 181.411H17.7388L17.9219 182.143ZM14.6637 183.04C14.9017 183.406 15.1396 183.242 15.1396 182.747C15.1396 182.29 15.1213 182.271 14.8467 182.546C14.682 182.711 14.6088 182.93 14.6637 183.04ZM64.5245 182.967C64.4513 183.059 64.3781 183.681 64.3781 184.34V185.53L65.0919 185.548C65.7692 185.585 65.8058 185.548 65.9156 184.907C66.0437 184.139 66.062 182.967 65.9522 182.857C65.7875 182.711 64.6526 182.784 64.5245 182.967ZM63.8106 189.099C63.7374 189.355 63.6825 189.849 63.6642 190.197C63.6459 190.783 63.7191 190.893 64.2865 191.149C64.9272 191.442 64.9455 191.442 65.1834 190.948C65.3299 190.691 65.4763 190.087 65.4946 189.648C65.5495 188.861 65.5312 188.824 65.0187 188.715C64.1767 188.532 63.9388 188.605 63.8106 189.099ZM62.3829 194.664C62.1083 195.762 62.1266 196.476 62.4012 196.366C62.5293 196.329 62.8771 196.366 63.1517 196.439C63.7374 196.604 63.8655 196.402 64.1035 194.993C64.2133 194.279 64.195 194.224 63.7923 194.224C63.5727 194.224 63.2432 194.133 63.0968 194.041C62.6575 193.767 62.6025 193.803 62.3829 194.664ZM60.9002 199.935L60.5525 200.722L60.9918 201.18L61.4494 201.638L61.8887 201.18C62.6025 200.448 62.6575 199.862 62.0534 199.496C61.3395 199.057 61.2846 199.075 60.9002 199.935ZM24.5663 202.168C24.0172 202.699 23.3399 203.541 23.0287 204.017L22.4796 204.877L22.864 205.408C23.1935 205.829 23.2118 205.976 23.0104 206.214C22.8823 206.36 22.5162 206.488 22.205 206.488C21.6742 206.488 21.5827 206.561 21.3081 207.349C20.2831 210.296 20.576 213.169 22.0769 214.78C23.1752 215.988 24.127 216.098 25.0971 215.183C25.4815 214.835 25.8476 214.542 25.9208 214.542C25.994 214.542 26.1954 214.249 26.3784 213.883C26.653 213.297 26.653 213.169 26.4333 212.913C25.6463 212.016 25.7012 211.138 26.5981 210.735C27.1838 210.46 27.2936 209.673 27.1472 206.891C26.9276 202.827 26.5615 201.18 25.9025 201.18C25.7012 201.18 25.0971 201.619 24.5663 202.168ZM39.3561 203.157C38.3677 203.706 37.3427 206.14 37.1596 208.41L37.0681 209.691L37.6355 209.911C38.386 210.186 38.4043 210.79 37.6538 211.211C36.9949 211.595 36.9766 211.87 37.4708 213.828C38.4043 217.434 40.0151 219.667 41.6991 219.667C43.2366 219.667 44.3532 218.13 44.9023 215.311C45.305 213.169 45.2867 213.078 44.4081 213.078C43.5478 213.078 43.0536 212.858 42.779 212.327C42.358 211.54 43.2 210.698 44.4264 210.698C44.9206 210.698 44.9755 210.643 44.9755 210.131C44.9755 208.52 43.4746 204.859 42.3763 203.761C41.3147 202.699 40.5276 202.534 39.3561 203.157ZM19.1665 202.901C19.1665 203.175 19.496 203.468 19.6425 203.322C19.7706 203.193 19.5143 202.644 19.3313 202.644C19.2398 202.644 19.1665 202.754 19.1665 202.901ZM58.0631 203.56L57.7702 204.109H58.3559C58.6671 204.109 59.1613 204.273 59.4542 204.493C59.7471 204.694 59.985 204.804 59.985 204.713C59.985 204.639 60.0399 204.383 60.0949 204.145C60.2047 203.797 60.1498 203.743 59.6373 203.743C59.2712 203.743 58.9966 203.614 58.8502 203.376C58.539 202.882 58.3926 202.919 58.0631 203.56ZM17.8852 203.981C17.8852 204.292 18.5808 204.951 18.7272 204.786C18.8005 204.731 18.7089 204.548 18.5442 204.383C18.3795 204.218 18.2513 203.999 18.2513 203.907C18.2513 203.816 18.1598 203.743 18.0683 203.743C17.9585 203.743 17.8852 203.852 17.8852 203.981ZM55.2808 207.806C54.75 208.245 54.329 208.648 54.329 208.703C54.3107 208.776 54.6585 208.758 55.0795 208.648C55.9581 208.465 56.8916 207.678 56.7452 207.294C56.5987 206.873 56.2693 207.001 55.2808 207.806ZM50.6499 209.6C50.6499 209.875 50.7414 209.82 51.1258 209.399C51.4736 208.996 51.4736 208.996 51.0526 209.216C50.8329 209.325 50.6499 209.508 50.6499 209.6ZM31.7782 210.167C31.5585 210.588 31.8148 210.625 32.7117 210.296C33.2608 210.112 33.2791 210.076 33.0046 209.875C32.6202 209.582 32.0161 209.728 31.7782 210.167ZM51.8396 211.76C51.9495 211.888 52.6633 211.412 52.6633 211.229C52.6633 211.138 52.462 211.192 52.224 211.375C51.9861 211.559 51.803 211.723 51.8396 211.76ZM32.7117 211.98C32.7117 212.382 33.1693 212.309 33.334 211.87C33.3889 211.705 33.3157 211.613 33.0778 211.613C32.8398 211.613 32.7117 211.742 32.7117 211.98Z"/>
        </mask>
        <path d="M89.821 10.045C89.821 10.1183 88.6312 11.2714 87.2035 12.5894C81.4193 17.8976 79.2228 21.467 79.2045 25.6404C79.1862 30.3447 82.3345 34.0605 87.6245 35.5797C88.4848 35.836 89.5281 36.0923 89.9491 36.1655L90.7179 36.2936L91.0657 35.1404C91.3951 34.0605 91.4684 33.9689 92.1273 33.7859C92.6215 33.6578 93.0059 33.3649 93.3903 32.8341C93.7564 32.3215 94.0309 32.1019 94.214 32.1751C95.0194 32.5046 96.0993 32.4314 97.4355 31.9371C98.5887 31.5161 98.8633 31.3331 99.0829 30.8755C99.2294 30.5643 99.87 28.1664 100.511 25.5489C101.17 22.9131 101.774 20.5701 101.865 20.3321C102.048 19.8562 102.231 20.3504 104.281 26.8668C104.885 28.8254 105.306 29.8504 105.471 29.8504C105.599 29.8504 105.819 30.1433 105.929 30.4911C106.093 30.9853 106.24 31.1317 106.569 31.1317C107.118 31.1317 107.356 30.8206 107.503 29.8871C107.649 28.9718 107.759 29.0084 107.887 29.9786C108.034 31.0036 108.784 32.3948 109.315 32.5961C109.608 32.7059 109.937 32.7059 110.249 32.5961C110.999 32.3032 111.127 32.3582 111.804 33.2734C112.939 34.8109 113.067 35.0672 113.067 35.7445C113.067 36.5499 112.958 36.5316 115.593 36.2387C122.348 35.5065 127.217 32.5229 129.139 27.9651C129.541 26.9949 129.614 26.5556 129.614 24.9082C129.633 22.8032 129.413 21.9063 128.351 19.783C127.436 17.9526 125.844 15.9391 123.061 13.047C121.67 11.6192 120.627 10.4477 120.773 10.4477C121.121 10.4477 123.611 11.8572 125.423 13.0836C130.713 16.6712 133.568 21.3572 133.568 26.4641C133.568 32.0104 130.841 36.9709 126.045 40.1375C123.043 42.1327 120.115 43.3774 117.351 43.8716C115.776 44.1645 115.612 44.2194 115.667 44.5672C115.703 44.8784 115.868 44.9699 116.545 45.0065C117.57 45.0797 119.236 44.7686 120.261 44.3109C121.194 43.8716 122.036 43.835 122.036 44.2194C122.036 44.3659 121.799 44.7686 121.487 45.098C121.011 45.6655 119.364 48.704 119.51 48.7772C119.73 48.8871 120.957 49.3264 121.524 49.4911C122.091 49.6558 122.22 49.784 122.256 50.2416C122.329 50.9921 122.915 51.2666 124.434 51.2666C125.368 51.2666 125.752 51.1751 126.118 50.9005C126.741 50.4063 127.235 50.4429 127.674 50.9921C128.132 51.5595 128.992 51.5961 129.999 51.0836L130.713 50.7175L131.701 51.1751L132.671 51.6327L133.898 51.0104C135.307 50.2965 139.462 48.704 139.883 48.704C140.103 48.704 140.139 48.8321 140.048 49.1982C139.773 50.4063 138.785 53.2801 138.309 54.3601L137.778 55.5499L138.254 56.0441C138.602 56.4102 138.767 56.8129 138.858 57.6183C138.95 58.4053 139.151 58.9179 139.627 59.5951C140.322 60.5836 140.707 61.5537 140.707 62.2859C140.707 62.5422 140.835 62.9998 140.981 63.2743C141.128 63.5672 141.256 63.9882 141.256 64.2262C141.256 64.4824 141.421 64.7204 141.714 64.8485C142.427 65.178 142.208 65.5624 140.89 66.3129C139.975 66.8254 139.297 67.0634 137.961 67.283C137.009 67.4294 135.966 67.5942 135.673 67.6491L135.124 67.7406V69.8822C135.124 71.9872 135.087 72.1337 134.19 74.9709C133.367 77.4969 132.818 79.8764 132.763 81.1944C132.744 81.4506 132.873 81.5788 133.202 81.6154C133.971 81.7252 134.337 82.2011 134.245 82.9333C134.209 83.2811 134.245 83.7753 134.355 84.0316C134.52 84.4709 134.868 87.2531 134.868 88.2416C134.868 89.2666 134.831 89.8158 134.74 90.1269C134.63 90.493 132.982 91.3533 132.415 91.3533C132.214 91.3533 132.031 91.5181 131.976 91.7377C131.902 91.9574 131.664 92.5065 131.427 92.9641C131.189 93.4034 131.024 93.8061 131.042 93.8244C131.079 93.8611 131.811 93.7146 132.69 93.5133L134.264 93.1472L134.593 91.9391C134.923 90.7493 135.582 89.7059 136.039 89.7059C136.167 89.7059 136.533 89.9073 136.826 90.1636C137.522 90.7493 138.529 91.1703 139.224 91.1703C139.847 91.1703 140.707 91.5181 140.707 91.7743C140.707 91.8659 141.476 92.7445 142.391 93.7146C143.324 94.6848 144.477 95.9478 144.972 96.5152C145.448 97.1009 146.07 97.6684 146.345 97.7965C146.619 97.9246 146.857 98.2175 146.894 98.4371C146.93 98.6568 148.047 99.8466 149.475 101.201C150.847 102.519 152.275 104.002 152.623 104.496C152.971 105.008 153.428 105.503 153.648 105.612C153.868 105.722 154.106 106.015 154.179 106.253C154.234 106.509 154.435 106.766 154.618 106.821C154.783 106.876 155.057 107.223 155.204 107.608C155.369 108.01 155.753 108.468 156.192 108.761C156.833 109.2 157.034 109.237 158.224 109.164L159.542 109.072L159.743 108.029C159.871 107.461 160.604 104.734 161.391 101.97C162.855 96.8081 168.09 76.6366 170.25 67.8321C170.927 65.1048 172.538 59.3023 173.874 54.9275C175.796 48.521 176.821 45.519 179.091 39.5518C180.647 35.4699 182.001 32.0653 182.093 31.9738C182.184 31.8822 182.312 31.8639 182.386 31.9188C182.459 31.9921 182.203 35.5248 181.818 39.7897C181.214 46.5258 180.958 48.5576 179.768 55.6597C179.036 60.1443 177.883 66.2763 177.224 69.2965C174.991 79.4005 170.927 99.0229 169.994 104.148C169.499 106.93 169.005 109.493 168.895 109.841C168.804 110.17 168.731 110.463 168.767 110.463C168.786 110.481 169.518 110.848 170.415 111.287C172.025 112.074 172.556 112.623 172.556 113.465C172.556 113.666 172.684 113.868 172.831 113.941C172.977 113.996 173.105 114.234 173.105 114.472C173.105 114.875 173.215 114.929 174.368 115.131C175.082 115.241 176.272 115.332 177.022 115.332C178.157 115.332 178.432 115.387 178.578 115.662C178.67 115.826 179.219 116.138 179.823 116.339L180.885 116.705L180.244 116.815C179.805 116.888 180.098 116.943 181.104 116.961C182.203 116.98 182.642 117.053 182.752 117.236C182.898 117.51 184.454 118.243 184.966 118.279C185.131 118.297 184.674 118.371 183.923 118.444C183.191 118.535 182.514 118.682 182.441 118.81C182.349 118.975 181.983 118.92 181.049 118.627C180.098 118.334 173.709 117.181 172.904 117.163C172.831 117.163 172.721 117.382 172.666 117.639C172.538 118.114 172.52 118.114 171.495 117.986L170.451 117.858L170.836 118.297C171.202 118.682 171.257 119.341 171 120.201C170.909 120.494 167.76 120 166.864 119.542C166.461 119.323 165.967 119.213 165.784 119.268C165.454 119.377 165.472 119.414 165.893 120.036C166.699 121.226 166.296 122.745 164.978 123.551C164.649 123.752 164.246 124.082 164.063 124.283C163.697 124.686 163.587 124.612 165.381 125.052C166.406 125.308 167.047 125.766 166.369 125.766C166.168 125.766 165.564 125.674 165.051 125.546C163.972 125.29 163.77 125.436 163.77 126.443C163.77 127.175 163.221 127.779 162.58 127.779C162.123 127.779 161.391 128.347 161.391 128.694C161.391 128.951 160.018 129.317 159.524 129.189C158.865 129.024 158.096 128.347 158.096 127.962C158.096 127.706 157.73 127.45 156.869 127.029C156.064 126.644 155.131 125.967 154.252 125.143C153.501 124.429 152.495 123.514 152.019 123.148C150.554 121.958 149.548 119.945 150.262 119.67C150.408 119.615 150.298 119.506 150.024 119.359C149.584 119.158 149.456 119.213 148.303 120.091C147.534 120.677 146.93 121.007 146.674 120.97C146.326 120.915 146.29 120.823 146.345 120.036C146.418 119.176 146.381 119.103 145.503 118.261C144.532 117.327 141.53 115.698 140.78 115.698C140.542 115.698 139.792 115.405 139.114 115.039C138.144 114.527 137.76 114.417 137.266 114.508C136.424 114.673 136.021 114.49 135.765 113.868C135.527 113.282 134.227 112.22 133.751 112.22C133.495 112.22 131.994 111.507 129.468 110.134C128.974 109.877 128.388 109.658 128.168 109.658C127.747 109.658 127.162 109.145 127.162 108.761C127.162 108.34 126.283 107.644 125.734 107.644C125.002 107.644 122.439 105.777 122.293 105.137C122.201 104.825 122.274 104.441 122.476 104.075C122.769 103.526 122.769 103.434 122.531 102.94C122.366 102.647 122.11 102.281 121.945 102.153C121.561 101.823 121.121 100.981 121.121 100.542C121.121 100.359 121.011 100.048 120.865 99.8649C120.645 99.5537 120.59 99.5903 120.151 100.341C119.895 100.78 119.547 101.604 119.401 102.171C119.071 103.434 118.668 104.276 118.064 104.935C117.808 105.191 117.643 105.503 117.717 105.594C117.772 105.686 117.607 106.033 117.351 106.381C116.875 107.04 116.856 107.809 117.332 108.651C117.442 108.852 117.515 109.072 117.515 109.127C117.497 109.2 117.68 109.438 117.918 109.658C118.54 110.244 118.504 110.463 117.643 111.14C116.747 111.873 116.362 112.879 116.692 113.721C116.856 114.161 116.838 114.307 116.563 114.582C116.252 114.893 116.271 114.929 116.856 115.296C117.186 115.515 117.662 116.101 117.918 116.595C118.156 117.089 118.595 117.675 118.888 117.876C119.456 118.261 119.602 118.572 120.133 120.329C120.426 121.336 120.426 121.464 120.151 122.361C119.968 122.892 119.84 123.368 119.84 123.423C119.84 123.496 120.243 123.386 120.755 123.185C121.249 123.002 121.78 122.892 121.927 122.947C122.476 123.166 123.684 126.37 123.684 127.614C123.684 128.072 123.812 128.53 123.977 128.713C124.251 129.024 124.251 129.115 123.94 129.957C123.629 130.836 123.629 130.891 123.958 131.623C124.141 132.044 124.453 132.447 124.617 132.557C124.8 132.648 125.002 133.014 125.075 133.344C125.203 134.076 125.295 134.112 127.674 134.296C128.608 134.35 129.395 134.479 129.45 134.552C129.486 134.625 128.644 135.101 127.546 135.595L125.569 136.51L125.441 137.297C125.368 137.718 125.112 138.341 124.837 138.689C124.416 139.256 124.379 139.421 124.489 140.318C124.562 141.032 124.526 141.526 124.324 141.983C124.178 142.349 124.05 143.082 124.05 143.612C124.05 144.583 124.343 145.187 125.441 146.505C125.862 146.999 125.862 147.035 125.587 147.694C124.965 149.122 124.91 149.049 127.198 150.147C128.333 150.715 129.633 151.337 130.09 151.538L130.914 151.904L130.182 152.087C129.779 152.179 128.406 152.527 127.125 152.856L124.8 153.46L124.691 154.156C124.599 154.705 124.343 155.053 123.428 155.84C122.805 156.389 122.128 157.158 121.945 157.542C121.744 157.945 121.378 158.531 121.14 158.86C120.81 159.318 120.7 159.684 120.719 160.233C120.755 161.093 120.664 161.313 120.096 161.606C119.657 161.844 118.138 164.333 118.284 164.571C118.339 164.663 118.284 164.937 118.156 165.157C118.046 165.395 117.881 166.145 117.808 166.823C117.643 168.561 117.442 168.726 115.886 168.47C115.227 168.36 114.66 168.232 114.623 168.195C114.587 168.159 114.458 167.719 114.33 167.225C114.221 166.713 114.092 166.218 114.056 166.09C114.019 165.926 113.8 165.944 113.177 166.145C112.5 166.383 112.317 166.548 112.152 167.06C112.024 167.427 111.969 167.719 112.006 167.756C112.903 168.378 113.598 169.056 113.653 169.385C113.726 169.788 113.104 171.673 112.573 172.717C112.408 173.009 112.225 173.394 112.152 173.54C112.079 173.687 111.859 173.888 111.64 173.998C111.365 174.108 111.237 174.346 111.237 174.675C111.237 174.968 111.091 175.279 110.853 175.426C110.615 175.609 110.505 175.847 110.541 176.139C110.596 176.506 110.816 176.615 112.299 177.018C113.232 177.256 113.964 177.549 113.928 177.659C113.854 177.897 112.5 178.574 111.292 178.958C110.505 179.215 110.322 179.361 110.23 179.8C110.157 180.075 109.901 180.478 109.644 180.679C108.931 181.246 108.784 182.454 109.352 183.37C109.571 183.754 109.773 184.12 109.773 184.193C109.773 184.267 109.498 184.376 109.169 184.431C108.656 184.541 108.583 184.614 108.528 185.2C108.51 185.548 108.308 186.097 108.089 186.39C107.723 186.921 107.723 186.976 107.997 187.452C108.162 187.726 108.253 188.001 108.18 188.074C108.125 188.129 108.235 188.184 108.455 188.184C108.931 188.184 109.15 188.513 108.876 188.788C108.766 188.898 108.674 189.136 108.674 189.3C108.674 189.483 108.51 189.904 108.308 190.252C108.107 190.582 107.869 191.387 107.777 192.028C107.649 193.016 107.686 193.346 107.96 193.986C108.144 194.426 108.235 194.773 108.18 194.773C108.107 194.773 108.253 194.975 108.473 195.213C108.986 195.762 108.876 195.981 107.942 196.256C107.375 196.421 107.21 196.567 107.21 196.878C107.21 197.08 107.082 197.428 106.935 197.629C106.789 197.812 106.661 198.324 106.661 198.745C106.661 199.166 106.588 199.569 106.478 199.624C106.368 199.679 106.295 199.935 106.295 200.173C106.295 200.411 106.203 200.832 106.075 201.088C105.91 201.473 105.91 201.656 106.075 201.93C106.203 202.132 106.258 202.37 106.203 202.461C106.148 202.534 106.185 202.809 106.258 203.047C106.368 203.322 106.331 203.669 106.185 204.017C106.057 204.31 105.947 204.969 105.929 205.481C105.929 206.269 106.057 206.58 106.844 207.806C107.338 208.593 107.832 209.582 107.96 210.003C108.253 211.119 108.876 212.291 109.809 213.444C110.249 213.993 110.999 214.927 111.475 215.531C112.244 216.482 112.317 216.665 112.225 217.27C112.134 217.819 112.244 218.112 112.866 219.082C113.983 220.784 114.202 221.406 114.349 223.328C114.458 224.683 114.44 225.177 114.239 225.561C113.909 226.184 113.104 226.623 112.262 226.623C111.749 226.623 111.493 226.77 110.889 227.392C110.175 228.142 110.102 228.179 109.004 228.197C108.327 228.197 107.851 228.289 107.796 228.417C107.759 228.545 107.942 229.094 108.198 229.662C108.473 230.247 108.674 231.034 108.674 231.455C108.674 232.096 108.565 232.334 107.979 232.902C106.679 234.183 102.506 235.556 98.1494 236.141C97.2342 236.27 96.0627 236.434 95.5319 236.507C94.3787 236.672 92.9876 236.416 92.4751 235.958C92.2737 235.775 91.926 235.537 91.7063 235.428C91.4684 235.318 91.1572 234.952 90.9924 234.64C90.7362 234.128 90.7179 233.89 90.9192 232.81C91.1206 231.657 91.1023 231.51 90.7362 230.742L90.3335 229.918L90.6996 228.856C90.9192 228.289 91.2121 227.465 91.3585 227.044C91.7063 226.074 91.7795 224.445 91.4867 223.896C91.0657 223.145 91.3951 221.919 92.347 220.692C93.3903 219.356 93.6283 218.166 93.2073 216.501C93.0608 215.915 92.9327 215.146 92.9327 214.798C92.9327 214.268 92.8778 214.176 92.5117 214.176C92.2737 214.176 91.5782 213.81 90.9558 213.352C89.9308 212.602 89.821 212.455 89.821 211.87C89.821 211.522 89.7294 211.046 89.6196 210.845C89.5098 210.643 89.2535 209.82 89.0705 209.014C88.6678 207.367 88.2285 206.397 87.5512 205.774C87.295 205.518 87.0753 205.17 87.0753 204.987C87.0753 204.603 86.6177 204.402 85.3364 204.218C83.927 204.017 83.0118 203.743 83.085 203.523C83.1216 203.431 83.8904 202.955 84.7873 202.498C86.4347 201.638 86.4347 201.638 86.5628 200.814C86.636 200.356 86.7458 199.716 86.8191 199.404C86.9106 198.892 86.8557 198.727 86.3432 198.251C85.8489 197.794 85.7757 197.592 85.8489 197.098C85.9039 196.732 85.8123 196.256 85.5927 195.835C85.3913 195.451 85.2449 194.902 85.2449 194.59C85.2449 193.858 84.9154 193.254 83.9087 192.028L83.085 191.039L83.4328 190.161C83.6158 189.666 83.7806 189.044 83.7806 188.751C83.7806 188.312 83.6524 188.202 82.7921 187.836C81.2363 187.195 81.1814 186.994 82.3894 186.463C82.9569 186.207 83.4145 185.914 83.4145 185.823C83.4145 185.713 83.085 184.999 82.7006 184.23C82.0234 182.93 81.9135 182.821 80.8885 182.326C79.1862 181.521 79.2228 181.393 81.2546 181.137C81.9135 181.045 82.1332 180.935 82.1332 180.716C82.1332 180.551 82.2613 180.258 82.4077 180.057C82.5542 179.874 82.7189 179.343 82.7921 178.867C82.9935 177.457 83.6524 176.377 84.5127 176.03C84.9154 175.865 85.4096 175.737 85.5927 175.737C85.8489 175.737 86.032 175.481 86.2699 174.767C86.4347 174.254 86.8008 173.485 87.057 173.083C87.9905 171.673 88.3566 170.465 88.3566 168.781C88.3566 167.921 88.3017 166.804 88.2468 166.273L88.1187 165.34L87.1852 165.431C86.2882 165.523 86.1967 165.505 85.7391 164.937C85.3913 164.534 85.2449 164.15 85.2449 163.674V162.979L83.8172 164.37C81.8586 166.292 80.5407 167.17 79.4241 167.28C78.9116 167.317 78.4723 167.28 78.3991 167.17C78.3442 167.06 78.454 166.621 78.6371 166.164C78.9848 165.358 79.2411 163.784 79.5889 160.27C79.7902 158.238 80.0465 157.048 80.8702 154.54L81.4376 152.856L80.6871 149.964C80.2844 148.39 79.8085 146.523 79.6621 145.827C79.4974 145.113 79.1679 144.07 78.9116 143.484C78.6005 142.825 78.4723 142.276 78.5455 142.002C78.6005 141.764 78.4174 140.629 78.1245 139.476C77.2643 136.108 77.2459 134.991 77.9232 128.969C78.1612 126.791 78.6188 124.484 78.9116 124.027C79.0398 123.825 79.3692 123.002 79.6621 122.196C80.1929 120.695 80.9434 119.762 82.7006 118.426C83.6341 117.712 84.2016 116.43 84.2565 114.875C84.2748 114.179 84.3114 113.538 84.3114 113.465C84.3297 113.41 84.7324 113.209 85.2449 113.044L86.1601 112.733V111.854C86.1601 111.067 86.0869 110.902 85.4096 110.225C84.7507 109.566 84.6592 109.402 84.769 108.889C84.8605 108.45 84.769 108.193 84.4212 107.717C84.165 107.388 83.9636 107.04 83.9636 106.949C83.9636 106.857 83.7989 106.638 83.5975 106.454C83.323 106.198 83.2863 106.052 83.4328 105.777C83.5792 105.484 83.5243 105.283 83.1582 104.734C82.902 104.368 82.6823 103.965 82.6823 103.837C82.6823 103.709 82.3345 103.27 81.9318 102.849C81.5108 102.409 80.6688 101.476 80.0648 100.78C78.9116 99.4256 76.8982 97.5402 76.2392 97.1925C75.9097 97.0094 75.7999 97.046 75.5986 97.3206C74.9579 98.1626 74.9762 98.2358 75.9097 99.2792C76.3856 99.8466 76.8616 100.506 76.9165 100.725C76.9897 100.963 77.1361 101.256 77.2459 101.402C77.5022 101.714 77.9415 102.885 77.9598 103.251C77.9598 103.398 78.0513 103.8 78.1429 104.148C78.3076 104.661 78.271 104.899 78.0147 105.375C77.7219 105.942 77.7036 106.033 77.9964 106.729C78.5089 107.992 78.3808 109.731 77.6303 112.092C76.9531 114.197 76.3673 115.405 75.7267 115.973C75.5436 116.138 75.324 116.522 75.2691 116.815C75.1959 117.108 74.9579 117.474 74.72 117.639C74.2807 117.931 72.5234 120.915 71.9926 122.288C71.8096 122.727 71.6265 123.441 71.5899 123.844C71.535 124.246 71.4069 124.667 71.2971 124.796C71.1872 124.924 71.1689 125.381 71.2421 125.912L71.352 126.809L70.4734 127.12C69.9975 127.303 69.3385 127.505 69.0456 127.578C68.3867 127.724 68.3867 127.852 68.8077 131.019C69.1005 133.161 69.2836 133.563 70.4002 134.625C70.7113 134.936 70.9676 135.284 70.9676 135.412C70.9676 135.705 71.1323 135.705 71.6998 135.376C72.3404 135.009 72.615 135.046 72.615 135.485C72.615 135.943 72.3221 136.51 71.8279 137.06L71.4618 137.481L71.9377 137.92C72.2123 138.176 72.4319 138.524 72.4319 138.707C72.4319 139.073 73.3288 141.05 73.9512 142.057C74.1708 142.404 74.3722 142.77 74.3905 142.88C74.4088 142.972 74.72 143.869 75.086 144.857C75.7999 146.852 75.9097 147.914 75.4338 147.914C75.2691 147.914 74.4271 147.164 73.5485 146.248L71.9743 144.601L71.2971 144.876L70.6381 145.168L70.9127 146.303C71.114 147.09 71.2055 148.317 71.2055 150.111C71.2055 152.508 71.1506 152.893 70.7113 154.138C70.1073 155.84 69.2287 157.176 68.1304 158.091C67.38 158.695 67.2884 158.842 67.38 159.336C67.4349 159.647 67.4898 161.844 67.5081 164.223L67.5447 168.543L68.0206 168.433C68.588 168.269 68.6063 168.14 69.1555 164.205L69.5582 161.185L70.4551 160.233C70.931 159.72 71.3337 159.135 71.3337 158.97C71.3337 158.787 71.3886 158.695 71.4435 158.75C71.4984 158.823 71.535 161.185 71.5167 164.04C71.4984 169.586 71.4069 170.428 70.4551 173.174C70.0707 174.309 69.8144 174.73 68.9724 175.554L67.9474 176.56V178.208C67.9474 179.105 67.8742 180.057 67.7826 180.295C67.6362 180.716 67.6545 180.716 68.4782 180.606C68.9541 180.533 69.5948 180.349 69.9242 180.221C70.5466 179.965 72.0109 178.647 72.377 178.025C72.7614 177.366 72.4319 179.471 71.7547 181.96C70.6564 186.024 69.3934 188.165 67.7643 188.678C67.2518 188.843 67.1969 188.953 67.0139 190.051C66.904 190.71 66.6295 191.552 66.3915 191.918C66.0254 192.522 66.0071 192.632 66.2451 192.87C66.3915 193.016 67.0322 193.199 67.6911 193.272C69.0639 193.437 70.1439 193.089 71.0957 192.174L71.6814 191.607L71.3337 192.742C70.693 194.883 68.9724 198.05 67.7094 199.368C66.4647 200.704 65.7692 200.997 64.5977 200.649C64.0303 200.484 63.9937 200.503 63.7557 201.07C63.6276 201.4 63.2066 201.967 62.8405 202.315C62.1815 202.955 62.1815 202.955 62.4561 203.596C62.7856 204.402 64.1767 205.665 65.037 205.939C65.696 206.159 66.959 206.122 67.563 205.848C67.8925 205.701 67.8925 205.719 67.563 206.232C66.7942 207.458 65.4946 208.776 64.2682 209.6C63.1334 210.387 62.8222 210.497 61.6873 210.607C60.2962 210.753 59.8203 210.607 58.722 209.673L58.1363 209.179L57.4041 209.783C56.9465 210.131 56.251 210.46 55.6286 210.607C55.0612 210.753 54.567 210.936 54.5304 211.046C54.4938 211.156 54.2741 211.522 54.0545 211.851C53.7982 212.236 53.6884 212.584 53.7616 212.73C53.8348 212.876 53.9629 213.188 54.0361 213.444L54.1643 213.902L53.6335 213.389C52.7365 212.565 52.6267 212.693 52.7732 214.451C52.8464 215.311 52.8464 216.007 52.7915 216.007C52.6267 216.007 51.8213 214.377 51.6749 213.755C51.5102 213.078 51.1624 213.206 50.961 214.011C50.8146 214.56 50.778 214.597 50.6316 214.268C50.5583 214.066 50.4851 213.737 50.4851 213.535C50.4485 212.986 49.4967 212.529 48.3435 212.529H47.3551V213.389C47.3551 214.67 46.8975 217.05 46.4216 218.203C45.4514 220.601 43.9322 221.864 42.0469 221.864C40.5459 221.864 39.5758 221.388 38.3494 220.052C36.7386 218.313 35.5122 215.402 35.1279 212.437L34.9997 211.357L34.5238 212.272C34.1943 212.913 34.0662 213.389 34.1211 213.828L34.1943 214.451L33.7367 213.902L33.2608 213.352V214.579C33.2608 215.274 33.1876 215.823 33.1144 215.823C32.913 215.823 32.3456 214.615 32.3456 214.176C32.3456 213.975 32.2541 213.81 32.1626 213.81C32.0527 213.81 31.9795 213.956 31.9795 214.121C31.9795 214.377 31.9429 214.396 31.8148 214.194C31.5219 213.737 30.7165 214.506 30.6799 215.274C30.625 216.391 30.6067 216.464 30.4786 216.665C30.3871 216.794 30.4237 217.306 30.5152 217.837C30.625 218.368 30.6982 219.008 30.6982 219.283C30.6799 219.722 30.6616 219.741 30.442 219.429C30.1308 219.027 29.6 219.21 29.6 219.722C29.6 220.088 29.6 220.088 29.3254 219.741C29.0142 219.356 29.0142 219.265 29.3986 221.223C29.4901 221.718 29.6183 222.505 29.6732 222.962C29.7464 223.731 29.7464 223.768 29.4901 223.42C29.3254 223.218 28.9959 222.651 28.758 222.175C28.2821 221.242 27.9526 221.15 27.7512 221.882C27.6597 222.267 27.6048 222.175 27.3119 221.297C27.0008 220.326 26.9642 220.29 26.4333 220.363C25.4266 220.509 25.0605 219.411 25.7561 218.295C26.0672 217.782 26.0856 217.672 25.8476 217.581C25.7012 217.526 25.3534 217.562 25.0971 217.654C23.9989 218.075 21.8756 217.379 20.7956 216.244C18.7455 214.121 18.3062 210.57 19.6059 206.818C19.9902 205.719 20.0085 205.555 19.7523 205.665C19.5875 205.738 19.313 205.829 19.1482 205.884C18.9835 205.939 18.7455 206.195 18.5991 206.452L18.3795 206.946L18.2513 206.397L18.1415 205.848L17.8486 206.397C17.6839 206.69 17.3361 207.147 17.0616 207.403L16.5673 207.861L16.7138 207.312C16.7687 207.001 16.9517 206.488 17.0799 206.14C17.3727 205.427 17.2995 205.225 16.8785 205.573C16.4941 205.902 16.3294 205.683 16.6405 205.244C17.0066 204.713 16.8419 203.23 16.3843 202.992C16.128 202.864 15.9633 202.864 15.7619 203.029C15.5606 203.193 15.5057 203.193 15.5057 203.01C15.5057 202.846 15.3776 202.882 15.103 203.12L14.7186 203.468L14.865 202.827C14.9383 202.48 15.0481 201.857 15.1213 201.454C15.1945 201.052 15.3593 200.539 15.4691 200.32C15.7253 199.862 15.7619 199.166 15.524 199.166C14.9017 199.166 12.7601 203.102 12.7601 204.273C12.7417 204.731 12.7417 204.731 12.4672 204.383C12.3208 204.182 11.9913 203.358 11.7533 202.553C11.1859 200.594 11.3689 199.148 12.3574 198.013C12.9797 197.318 12.3757 197.574 10.8564 198.654C9.97781 199.295 8.95277 200.008 8.58669 200.246L7.90942 200.686L8.27551 200.246C8.45856 200.008 9.0809 199.331 9.64833 198.727L10.6551 197.665L9.73985 198.324C9.22733 198.691 8.33043 199.331 7.72638 199.734C6.64644 200.466 6.64644 200.448 8.45856 198.672C9.46529 197.684 10.9296 196.274 11.735 195.542C13.1628 194.224 13.1628 194.224 12.9431 193.657C12.7784 193.272 12.6136 193.144 12.4123 193.218C10.8198 193.803 7.36031 196.823 6.64644 198.233L6.22543 199.057L6.09731 198.471C5.74953 196.897 6.84778 192.815 8.16568 190.875C9.22733 189.3 10.3988 188.495 13.3458 187.36C14.865 186.774 15.1396 186.61 15.1396 186.262C15.1396 185.896 15.0664 185.859 14.3525 185.914C9.5202 186.298 6.48169 186.829 4.10214 187.726C3.42488 187.982 2.71101 188.184 2.52797 188.184C2.34494 188.184 1.70428 188.422 1.11855 188.733C0.532806 189.026 0.0202942 189.282 0.00198364 189.282C-0.0163116 189.282 0.0935059 189.044 0.239944 188.751C0.715851 187.799 3.62624 184.889 5.2187 183.791C6.73796 182.711 9.42868 181.521 11.3689 181.027L12.2658 180.807L11.8265 180.459L11.3872 180.112L11.7899 180.203C12.0279 180.258 12.3757 180.368 12.5953 180.423C12.7967 180.478 13.2177 180.423 13.5105 180.313C14.0597 180.075 14.0597 180.002 13.7302 179.068C13.5837 178.72 13.8766 178.812 14.3342 179.233C14.7186 179.599 14.8284 179.617 15.5789 179.398C16.366 179.178 16.4026 179.16 16.787 177.915C17.0249 177.219 17.2629 176.652 17.3361 176.652C17.4093 176.652 17.5924 177.165 17.7388 177.787C17.9951 178.922 18.0134 178.94 18.6906 178.995C19.2398 179.05 19.4411 178.958 19.734 178.592C19.9353 178.318 20.2831 178.025 20.4845 177.915C20.8139 177.732 20.8505 177.75 20.7407 178.025C20.3746 178.977 20.3929 179.215 20.8322 179.215C21.0702 179.215 21.6193 179.013 22.0403 178.757C22.864 178.299 23.0287 178.336 22.5528 178.849C22.2783 179.141 22.443 179.178 24.7859 179.251C26.9825 179.343 27.4767 179.416 28.5932 179.855C30.442 180.587 32.7849 182.363 33.3707 183.443L33.6086 183.937L32.8398 183.718C32.2907 183.553 31.1192 183.534 28.6848 183.626C25.3168 183.754 22.6993 184.193 19.3313 185.182C17.8486 185.621 18.2696 186.17 20.0818 186.17C21.6742 186.17 25.4632 185.603 26.2686 185.255C26.7262 185.054 27.1289 184.907 27.1655 184.962C27.257 185.054 25.7012 186.06 23.9256 187.086C21.6193 188.403 18.9103 190.069 18.6357 190.307C18.4893 190.454 19.2581 190.106 20.3746 189.557C22.4796 188.513 23.5229 188.22 22.6443 188.934C22.3881 189.136 21.6376 189.721 20.9421 190.216C20.2648 190.728 19.7157 191.167 19.7157 191.204C19.7157 191.241 20.1733 191.076 20.7224 190.838C21.2715 190.582 21.7291 190.417 21.7291 190.472C21.7291 190.508 21.1068 191.003 20.3563 191.57C19.6059 192.119 18.9835 192.632 18.9835 192.687C18.9835 192.815 19.2764 192.632 20.0634 192.046L20.6858 191.57L20.4478 192.028C20.3197 192.284 19.9719 192.778 19.6974 193.144C19.4045 193.51 19.1665 193.986 19.1665 194.206C19.1665 194.407 18.9286 194.755 18.6174 194.993C18.0683 195.396 17.1531 196.75 17.1531 197.135C17.1531 197.501 17.5924 197.336 18.0317 196.823L18.4527 196.329L18.3246 196.787L18.2147 197.244L18.6906 196.805C19.2398 196.293 19.2947 196.494 18.892 197.482C18.7272 197.849 18.654 198.343 18.7089 198.581C18.7639 198.837 18.7089 199.203 18.5625 199.423C18.1232 200.1 18.05 200.741 18.3612 201.015C18.6174 201.217 18.7089 201.18 19.0018 200.814L19.3496 200.356V200.796C19.3496 201.198 19.4045 201.162 20.0818 200.429C20.8688 199.551 20.9604 199.624 20.5394 200.814C20.1733 201.857 20.1916 202.04 20.6675 201.619C21.0519 201.271 21.0519 201.271 20.9238 201.729C20.759 202.315 20.759 202.37 20.7773 203.358L20.8139 204.182L21.3448 203.34C22.6993 201.217 25.152 199.148 26.3235 199.166C28.0258 199.203 28.8129 201.93 28.9044 208.099C28.941 210.387 28.9776 210.881 29.1973 210.79C29.3254 210.735 29.6 210.698 29.8013 210.698C30.0027 210.698 30.1491 210.57 30.1491 210.369C30.1491 210.204 30.3138 209.783 30.5152 209.454C30.8264 208.941 30.863 208.74 30.7165 208.191L30.5335 207.532L31.0277 208.026C31.3206 208.282 31.6134 208.502 31.6867 208.502C31.7599 208.502 31.8148 208.154 31.7965 207.715C31.7599 207.294 31.7599 206.653 31.7782 206.305L31.8331 205.665L32.2724 206.58C32.5103 207.074 32.7117 207.678 32.7117 207.898C32.7117 208.465 33.0046 208.428 33.151 207.861C33.2974 207.275 33.6269 207.44 33.6269 208.099C33.6452 208.392 33.9015 208.886 34.2675 209.307L34.9082 210.021L34.9265 209.49C34.9631 208.044 35.439 205.591 35.9149 204.456C36.9034 202.022 38.4775 200.631 40.2347 200.631C42.4496 200.631 44.3898 202.315 45.7809 205.463C46.2751 206.598 46.989 208.959 46.989 209.527C46.989 210.241 47.227 210.369 48.1422 210.131C48.6181 210.021 49.0025 209.82 49.0025 209.691C49.0025 209.563 49.1672 209.27 49.3503 209.014C49.6431 208.648 49.6797 208.428 49.5516 207.898C49.3869 207.147 49.515 207.019 49.8811 207.586C50.0092 207.788 50.2289 207.953 50.3753 207.953C50.5766 207.953 50.6499 207.641 50.6865 206.635L50.7414 205.298L51.2905 206.433C51.5834 207.074 51.8945 207.586 51.9678 207.586C52.0227 207.586 52.1508 207.312 52.224 207.001L52.3522 206.397L52.5718 206.909L52.7732 207.403L53.4138 206.744C53.7433 206.397 54.4205 205.848 54.8965 205.536C55.8483 204.932 55.8666 204.914 55.5737 204.164C55.4639 203.889 55.3174 202.955 55.2442 202.095C55.1161 200.741 55.1527 200.246 55.592 198.251C55.8666 196.988 56.1594 195.597 56.2327 195.139C56.3791 194.169 56.672 193.529 56.6903 194.133C56.6903 194.718 57.8983 197.428 58.6305 198.544C58.9966 199.093 59.3078 199.533 59.3444 199.533C59.381 199.533 59.6189 199.166 59.8752 198.709L60.3328 197.885L59.8203 196.823C59.5274 196.256 59.1796 195.359 59.0149 194.865C58.6488 193.712 58.3376 190.527 58.3376 188.111C58.3559 186.317 58.3559 186.28 58.6488 186.811C59.3261 188.074 61.5226 190.38 62.0351 190.38C62.1266 190.38 62.1815 190.106 62.1998 189.776C62.1998 189.465 62.3097 188.861 62.4378 188.458C62.6391 187.744 62.6391 187.726 61.7239 186.5C61.1382 185.713 60.644 184.816 60.3877 184.029C60.0033 182.802 59.2163 179.306 58.9966 177.805L58.8868 177.055L59.9484 178.098C61.0467 179.215 61.7239 179.636 62.6391 179.837L63.1883 179.947L63.17 178.299L63.1334 176.652L62.3463 176.048C61.3945 175.334 60.3877 173.595 59.7105 171.435C59.3261 170.245 59.1796 169.129 58.8868 165.395C58.6854 162.869 58.5207 160.562 58.5207 160.27V159.72L58.8685 160.27C59.0515 160.581 59.5091 161.075 59.8752 161.368C60.5342 161.899 60.5525 161.972 61.1748 164.937C61.5226 166.603 61.8521 168.14 61.907 168.36C61.9802 168.671 62.1449 168.781 62.5293 168.781C63.0418 168.781 63.0418 168.781 62.9137 167.921C62.8222 167.427 62.7124 165.212 62.6391 162.997L62.511 158.933L61.8155 158.549C60.8087 157.981 59.7471 156.627 59.1613 155.163C58.7586 154.119 58.6488 153.497 58.5756 151.74C58.4292 148.793 58.9051 146.065 60.0949 142.935C60.4243 142.075 60.4243 142.057 60.0216 141.636C59.7471 141.343 59.6189 140.977 59.6189 140.446C59.6189 139.695 59.6006 139.695 58.722 139.421C56.5255 138.762 55.9581 138.011 56.5804 136.529C56.7818 136.071 56.8184 135.504 56.7452 134.497C56.6171 132.813 56.9282 131.092 57.5506 130.031C57.88 129.463 57.9716 129.097 57.88 128.731C57.8251 128.438 57.88 127.962 58.0265 127.614C58.2095 127.193 58.2461 126.791 58.1363 126.26C57.7702 124.448 57.459 121.794 57.5506 121.336C57.6055 121.025 57.4957 120.586 57.2211 120.11C56.8184 119.377 56.8184 119.359 57.1479 118.737C57.4773 118.133 57.4773 118.078 57.0747 115.918C56.7635 114.252 56.6903 113.337 56.7635 112.111C56.8184 111.214 56.9465 108.706 57.0747 106.546C57.276 102.647 57.276 102.611 57.7885 102.043C58.2278 101.531 58.2827 101.348 58.2095 100.634C58.118 99.9015 58.1546 99.7917 58.539 99.5903C58.777 99.4622 59.381 99.0961 59.8935 98.7483C60.5891 98.2724 61.0833 98.1077 61.9619 98.0162C63.0418 97.888 63.1517 97.8331 63.7557 97.1192C64.4513 96.2589 64.5428 95.6366 64.1035 94.5932C63.9571 94.2271 63.8289 93.4767 63.8289 92.9458C63.8289 91.2984 63.7008 90.9506 62.8222 90.4198C62.1632 89.9988 62.0351 89.8158 61.9619 89.23C61.8887 88.6809 61.9436 88.4246 62.2365 88.1135C62.4744 87.8389 62.5659 87.5643 62.4744 87.2715C62.4012 86.9603 62.4927 86.6674 62.749 86.3379C62.9503 86.0816 63.0602 85.7705 63.0052 85.679C62.932 85.5691 62.9869 85.3495 63.1151 85.1847C63.2432 85.0383 63.3347 84.6356 63.2981 84.2878C63.2798 83.9034 63.4079 83.4092 63.7008 82.8967C63.9571 82.4574 64.2133 81.8167 64.2682 81.4689C64.3964 80.7551 64.012 78.5585 63.5544 77.2589C63.3896 76.8013 63.2981 76.2705 63.353 76.0874C63.4079 75.8861 63.1517 74.9892 62.8039 74.0923C61.9802 72.0056 61.7239 69.9371 62.0717 68.4179L62.3097 67.3745L60.6623 66.5325C58.6854 65.5258 57.3126 64.6289 55.9947 63.4391C54.4938 62.0845 54.3656 61.4256 55.5188 60.8764C55.8849 60.7117 56.2144 60.4371 56.251 60.2724C56.3059 60.1077 56.434 59.8148 56.5255 59.6501C56.6171 59.467 56.6903 59.046 56.6903 58.6799C56.6903 58.1674 56.7818 58.0027 57.2394 57.7647C57.5323 57.6 57.7885 57.362 57.7885 57.1973C57.7885 57.0508 58.0814 56.5017 58.4292 55.9709C58.8685 55.3119 59.0698 54.8177 59.0698 54.3601C59.0698 53.8109 59.198 53.573 59.7105 53.1154L60.3694 52.5479L59.9118 51.047C59.4908 49.6375 59.0698 47.679 58.7953 45.8119C58.6854 45.1712 58.722 45.0431 58.9783 45.0431C59.381 45.0431 62.9137 46.9285 64.9272 48.2098L66.483 49.2165L67.0505 48.8687C67.7277 48.466 68.3684 48.4294 68.8443 48.7955C69.0273 48.942 69.5948 49.1982 70.0707 49.3447C70.9493 49.6375 70.9676 49.6375 71.5533 49.1982L72.1391 48.7223L72.8712 49.1616C73.8231 49.6924 75.5436 50.0585 76.5321 49.9121C77.1178 49.8206 77.3741 49.6558 77.7036 49.1616C77.9232 48.8138 78.271 48.521 78.454 48.521C78.6371 48.521 79.1313 48.3928 79.5523 48.2464C79.9733 48.1 80.4309 48.0267 80.5773 48.0816C80.7238 48.1549 80.98 48.6674 81.1448 49.2348C81.3095 49.8023 81.6756 50.5894 81.9501 50.9921C82.4627 51.7242 82.4627 51.7608 82.481 54.9275C82.4993 59.5585 82.3345 59.046 83.8904 59.0643L85.2266 59.1009L85.611 57.4169C85.8306 56.5017 86.0869 55.3851 86.1784 54.9458C86.2699 54.4882 86.453 53.994 86.5994 53.8475C86.8191 53.573 87.1302 52.731 87.1668 52.2734C87.1668 52.1635 87.3499 51.8707 87.5878 51.6327C88.0638 51.1202 88.0821 50.9738 87.7343 50.8456C87.295 50.6626 85.1168 47.1847 84.8056 46.178C84.6592 45.6472 84.4029 45.0431 84.2565 44.8235C83.8904 44.3109 83.8904 43.7801 84.2199 43.652C84.3663 43.5971 85.2083 43.7984 86.1052 44.0913C88.3383 44.8601 89.3817 44.9882 89.6196 44.5306C89.7844 44.2194 89.6562 44.1645 88.2102 43.8716C84.3846 43.0845 79.2777 39.625 77.2276 36.4583C74.5918 32.3764 74.0976 26.8485 75.928 22.2175C77.1544 19.124 80.0465 15.7011 83.323 13.4497C85.7025 11.8206 89.821 9.66066 89.821 10.045ZM69.6863 142.331C69.8144 142.496 69.9609 142.569 70.0158 142.514C70.0707 142.478 69.9975 142.313 69.8693 142.148C69.7412 141.983 69.5948 141.91 69.5399 141.965C69.4849 142.002 69.5582 142.166 69.6863 142.331ZM62.0168 143.741C61.0101 146.139 60.406 150.239 60.7538 152.454C60.9735 153.918 61.5775 155.309 62.328 156.096C62.9686 156.792 63.2798 156.847 63.7191 156.352C64.2316 155.803 64.8723 155.73 65.7143 156.133C66.4098 156.481 66.4647 156.481 66.8674 156.188C67.4166 155.767 68.2952 154.266 68.6796 153.058C69.0822 151.849 69.1372 148.738 68.7894 146.999L68.5697 145.791L66.7942 145.754C65.0736 145.718 64.195 145.443 64.195 144.967C64.195 144.692 62.749 142.972 62.5293 142.972C62.4378 142.972 62.1998 143.32 62.0168 143.741ZM64.1218 161.642C64.195 162.905 64.3048 164.498 64.3781 165.212C64.5062 166.383 64.5062 166.42 64.5428 165.578C64.5977 163.162 64.799 161.642 65.037 161.642C65.1834 161.642 65.2933 161.661 65.2933 161.679C65.3116 162.228 65.8607 166.127 65.9339 166.182C66.0071 166.273 65.9522 161.551 65.8607 159.629C65.8424 159.428 65.6227 159.354 64.9272 159.354H63.9937L64.1218 161.642ZM64.5977 172.167C64.5611 172.662 64.5794 173.247 64.6526 173.485C64.7441 173.87 64.854 173.925 65.4397 173.87C66.0803 173.815 66.117 173.778 66.1719 173.083C66.2085 172.698 66.1902 172.094 66.117 171.783C66.0254 171.216 65.9705 171.179 65.3299 171.234C64.6526 171.27 64.6526 171.27 64.5977 172.167ZM64.6526 177.402C64.5794 177.622 64.5794 178.226 64.6526 178.775C64.7624 179.709 64.799 179.764 65.2933 179.764C65.5861 179.764 65.9339 179.819 66.0803 179.874C66.3915 179.983 66.5563 179.013 66.4281 177.787L66.3366 177.018H65.5495C64.9089 177.018 64.7441 177.091 64.6526 177.402ZM17.9219 182.143C18.0317 182.546 18.1781 182.875 18.2696 182.875C18.3612 182.875 18.6906 182.638 19.0201 182.326C19.5326 181.869 19.5875 181.759 19.3496 181.594C19.2032 181.503 18.7822 181.411 18.4161 181.411H17.7388L17.9219 182.143ZM14.6637 183.04C14.9017 183.406 15.1396 183.242 15.1396 182.747C15.1396 182.29 15.1213 182.271 14.8467 182.546C14.682 182.711 14.6088 182.93 14.6637 183.04ZM64.5245 182.967C64.4513 183.059 64.3781 183.681 64.3781 184.34V185.53L65.0919 185.548C65.7692 185.585 65.8058 185.548 65.9156 184.907C66.0437 184.139 66.062 182.967 65.9522 182.857C65.7875 182.711 64.6526 182.784 64.5245 182.967ZM63.8106 189.099C63.7374 189.355 63.6825 189.849 63.6642 190.197C63.6459 190.783 63.7191 190.893 64.2865 191.149C64.9272 191.442 64.9455 191.442 65.1834 190.948C65.3299 190.691 65.4763 190.087 65.4946 189.648C65.5495 188.861 65.5312 188.824 65.0187 188.715C64.1767 188.532 63.9388 188.605 63.8106 189.099ZM62.3829 194.664C62.1083 195.762 62.1266 196.476 62.4012 196.366C62.5293 196.329 62.8771 196.366 63.1517 196.439C63.7374 196.604 63.8655 196.402 64.1035 194.993C64.2133 194.279 64.195 194.224 63.7923 194.224C63.5727 194.224 63.2432 194.133 63.0968 194.041C62.6575 193.767 62.6025 193.803 62.3829 194.664ZM60.9002 199.935L60.5525 200.722L60.9918 201.18L61.4494 201.638L61.8887 201.18C62.6025 200.448 62.6575 199.862 62.0534 199.496C61.3395 199.057 61.2846 199.075 60.9002 199.935ZM24.5663 202.168C24.0172 202.699 23.3399 203.541 23.0287 204.017L22.4796 204.877L22.864 205.408C23.1935 205.829 23.2118 205.976 23.0104 206.214C22.8823 206.36 22.5162 206.488 22.205 206.488C21.6742 206.488 21.5827 206.561 21.3081 207.349C20.2831 210.296 20.576 213.169 22.0769 214.78C23.1752 215.988 24.127 216.098 25.0971 215.183C25.4815 214.835 25.8476 214.542 25.9208 214.542C25.994 214.542 26.1954 214.249 26.3784 213.883C26.653 213.297 26.653 213.169 26.4333 212.913C25.6463 212.016 25.7012 211.138 26.5981 210.735C27.1838 210.46 27.2936 209.673 27.1472 206.891C26.9276 202.827 26.5615 201.18 25.9025 201.18C25.7012 201.18 25.0971 201.619 24.5663 202.168ZM39.3561 203.157C38.3677 203.706 37.3427 206.14 37.1596 208.41L37.0681 209.691L37.6355 209.911C38.386 210.186 38.4043 210.79 37.6538 211.211C36.9949 211.595 36.9766 211.87 37.4708 213.828C38.4043 217.434 40.0151 219.667 41.6991 219.667C43.2366 219.667 44.3532 218.13 44.9023 215.311C45.305 213.169 45.2867 213.078 44.4081 213.078C43.5478 213.078 43.0536 212.858 42.779 212.327C42.358 211.54 43.2 210.698 44.4264 210.698C44.9206 210.698 44.9755 210.643 44.9755 210.131C44.9755 208.52 43.4746 204.859 42.3763 203.761C41.3147 202.699 40.5276 202.534 39.3561 203.157ZM19.1665 202.901C19.1665 203.175 19.496 203.468 19.6425 203.322C19.7706 203.193 19.5143 202.644 19.3313 202.644C19.2398 202.644 19.1665 202.754 19.1665 202.901ZM58.0631 203.56L57.7702 204.109H58.3559C58.6671 204.109 59.1613 204.273 59.4542 204.493C59.7471 204.694 59.985 204.804 59.985 204.713C59.985 204.639 60.0399 204.383 60.0949 204.145C60.2047 203.797 60.1498 203.743 59.6373 203.743C59.2712 203.743 58.9966 203.614 58.8502 203.376C58.539 202.882 58.3926 202.919 58.0631 203.56ZM17.8852 203.981C17.8852 204.292 18.5808 204.951 18.7272 204.786C18.8005 204.731 18.7089 204.548 18.5442 204.383C18.3795 204.218 18.2513 203.999 18.2513 203.907C18.2513 203.816 18.1598 203.743 18.0683 203.743C17.9585 203.743 17.8852 203.852 17.8852 203.981ZM55.2808 207.806C54.75 208.245 54.329 208.648 54.329 208.703C54.3107 208.776 54.6585 208.758 55.0795 208.648C55.9581 208.465 56.8916 207.678 56.7452 207.294C56.5987 206.873 56.2693 207.001 55.2808 207.806ZM50.6499 209.6C50.6499 209.875 50.7414 209.82 51.1258 209.399C51.4736 208.996 51.4736 208.996 51.0526 209.216C50.8329 209.325 50.6499 209.508 50.6499 209.6ZM31.7782 210.167C31.5585 210.588 31.8148 210.625 32.7117 210.296C33.2608 210.112 33.2791 210.076 33.0046 209.875C32.6202 209.582 32.0161 209.728 31.7782 210.167ZM51.8396 211.76C51.9495 211.888 52.6633 211.412 52.6633 211.229C52.6633 211.138 52.462 211.192 52.224 211.375C51.9861 211.559 51.803 211.723 51.8396 211.76ZM32.7117 211.98C32.7117 212.382 33.1693 212.309 33.334 211.87C33.3889 211.705 33.3157 211.613 33.0778 211.613C32.8398 211.613 32.7117 211.742 32.7117 211.98Z" fill="black" stroke="white" stroke-width="2" mask="url(#path-1-inside-1)"/>
    </g>
    <defs>
        <filter id="filter0_d" x="0" y="0" width="205" height="246.558" filterUnits="userSpaceOnUse" color-interpolation-filters="sRGB">
            <feFlood flood-opacity="0" result="BackgroundImageFix"/>
            <feColorMatrix in="SourceAlpha" type="matrix" values="0 0 0 0 0 0 0 0 0 0 0 0 0 0 0 0 0 0 127 0"/>
            <feOffset dx="10"/>
            <feGaussianBlur stdDeviation="5"/>
            <feColorMatrix type="matrix" values="0 0 0 0 0 0 0 0 0 0.0745098 0 0 0 0 0.133333 0 0 0 1 0"/>
            <feBlend mode="normal" in2="BackgroundImageFix" result="effect1_dropShadow"/>
            <feBlend mode="normal" in="SourceGraphic" in2="effect1_dropShadow" result="shape"/>
        </filter>
    </defs>
</svg>
