<svg width="154" height="300" viewBox="0 0 154 300" fill="none" xmlns="http://www.w3.org/2000/svg">
    <g filter="url(#filter0_d)">
        <mask id="path-1-inside-1" fill="white">
            <path d="M1.37812 10.7795C1.3125 11.3045 1.15937 14.892 1.02812 18.742C0.896875 22.592 0.7 28.542 0.546875 31.9763L0.30625 38.2107L1.42187 40.442L2.5375 42.6514L2.975 48.317C3.21562 51.4232 3.47812 54.967 3.56562 56.192C3.675 57.8982 3.78437 58.4451 4.025 58.4451C4.50625 58.4451 4.65937 59.2107 4.94375 62.9295C5.075 64.8545 5.25 66.9326 5.31562 67.5451L5.44687 68.6607L4.59375 68.792C3.9375 68.9014 3.47812 69.2295 2.42812 70.3014L1.07187 71.6795L0.546875 74.3482L0 76.9951L0.6125 84.8482C0.940625 89.1576 1.33437 93.3139 1.46562 94.1014C1.575 94.8889 1.79375 97.6451 1.90312 100.226C2.20937 106.636 2.82187 109.764 4.41875 112.914C4.94375 113.942 7.54687 117.858 9.34062 120.351L10.2156 121.555L12.075 140.695C13.0812 151.217 14.0219 160.82 14.1531 162.023C14.2844 163.226 15.75 178.386 17.4344 195.711C19.1187 213.036 20.6281 228.633 20.8031 230.383C20.9781 232.133 22.225 244.864 23.5594 258.711C24.8937 272.536 26.0312 284.086 26.0969 284.348C26.1844 284.83 26.2937 284.851 28.1531 284.851H30.1219L30.0125 284.02C29.9469 283.583 28.8094 272.033 27.4969 258.383C24.9156 231.914 24.3906 226.489 23.8875 221.305C23.7125 219.489 22.3781 205.861 20.9344 191.008C19.4906 176.155 18.1562 162.505 17.9812 160.711C17.8062 158.895 17.5219 155.898 17.325 154.039C15.7937 138.573 14.3719 123.545 14.3719 122.976V122.32H16.1875H18.0031L19.6875 123.873C20.6062 124.726 21.3719 125.317 21.3719 125.164C21.3719 125.033 21.4812 124.989 21.5906 125.055C21.7219 125.142 25.9656 123.479 31.0625 121.38C36.1375 119.279 40.4469 117.508 40.6 117.464C40.8406 117.398 41.3875 118.317 42.5031 120.592L44.0781 123.808L44.1219 131.748L44.1656 139.711L43.4 142.095L42.6125 144.501L43.7937 145.748C44.7562 146.755 44.9531 147.083 44.8219 147.498C44.7125 147.936 44.6687 147.958 44.6031 147.63C44.5594 147.389 44.3625 147.258 44.1656 147.301C43.8375 147.367 43.7937 147.805 43.7937 151.108V154.826L43.1375 155.614C42.7875 156.051 42.4156 156.423 42.35 156.423C42.1531 156.445 41.9344 153.404 41.9344 150.561C41.9344 144.173 40.5562 138.989 38.15 136.386C37.2969 135.445 35.9187 134.57 35.3281 134.57C35.0437 134.57 33.1844 137.305 33.1844 137.742C33.1844 137.851 33.7312 138.508 34.3875 139.142C36.8594 141.57 37.5594 143.517 37.7125 148.395C37.8219 151.48 37.8 151.851 37.4719 151.873C37.275 151.895 37.0344 151.917 36.925 151.939C36.4875 151.983 36.225 152.486 36.2906 153.076C36.3344 153.536 36.4875 153.733 36.8594 153.776C37.3844 153.864 37.5375 154.258 37.0125 154.258C36.7719 154.258 36.6844 154.542 36.6844 155.439C36.6844 156.423 36.75 156.62 37.1219 156.73C37.4719 156.817 37.5594 157.036 37.5594 157.845C37.5594 158.414 37.4281 159.048 37.2969 159.289C37.0781 159.639 37.0781 159.814 37.3187 160.208C37.5156 160.514 37.5812 161.258 37.5375 162.548C37.45 165.151 37.7781 169.592 38.0406 169.023C38.1937 168.651 38.2156 168.673 38.1281 169.133C37.4937 172.414 35.8094 184.905 35.9625 185.145C36.0062 185.255 36.3781 185.32 36.7937 185.32H37.5156L37.4281 186.567C37.3625 187.267 37.1437 191.095 36.9031 195.098L36.5094 202.361L37.1437 205.489C37.4937 207.217 37.8219 208.836 37.8875 209.098C37.9969 209.58 38.0844 209.601 40.5125 209.601H43.0062L43.1375 210.52C43.9469 216.623 44.0781 218.876 44.1 227.43C44.1 240.598 43.925 239.33 47.9281 254.73C50.9906 266.476 51.3406 268.008 51.3406 269.626C51.3406 270.611 51.2531 271.508 51.1437 271.639C51.0125 271.748 51.1 272.426 51.3844 273.411L51.8437 274.964L50.7719 276.539C50.1812 277.414 49.2406 278.683 48.6719 279.383C46.6594 281.876 45.3906 283.78 45.325 284.37C45.2812 284.83 45.5875 285.376 46.7906 286.842L48.3 288.723L51.7344 288.876C53.6156 288.942 56.525 289.073 58.1656 289.139L61.1625 289.292L62.7156 287.805L64.2469 286.317V284.173V282.051L65.1219 281.001C65.6031 280.411 65.9969 279.886 65.9969 279.82C65.9969 279.755 65.7562 278.858 65.45 277.83C65.0125 276.276 64.9469 275.708 65.0344 274.133C65.1437 272.47 65.1 272.098 64.575 270.742C64.2687 269.911 63.9406 269.123 63.8531 268.992C63.7656 268.883 63.7 267.439 63.6781 265.82C63.6562 264.201 63.5469 257.989 63.3937 252.039C63.1531 241.976 63.0875 240.861 62.475 236.289C62.0812 233.445 61.6875 231.28 61.5344 231.148C61.3812 231.017 60.8781 228.458 60.375 225.395L59.5 219.883L60.5719 214.895C61.1406 212.161 61.6656 209.733 61.7312 209.47C61.8187 209.033 62.0156 209.011 65.6031 208.858C67.6812 208.792 70.525 208.705 71.9031 208.705L74.4187 208.661L74.8125 209.951C76.4969 215.464 77.5687 218.483 78.7062 220.714L80.0187 223.273L80.4125 228.633C80.7187 232.548 81.0687 235.348 81.7469 239.023L82.6656 244.055L85.6844 251.055C88.6812 258.011 88.7031 258.076 89.2719 261.336C89.6437 263.545 89.8406 265.426 89.8406 267.067C89.8406 268.401 89.95 269.78 90.0594 270.086C90.1906 270.414 90.475 271.398 90.7156 272.317C91.1312 273.892 91.1312 274.067 90.7812 277.48L90.4312 281.045L91.35 282.708L92.2687 284.392L93.275 284.458C94.2812 284.523 94.3031 284.545 95.2875 286.142L96.2937 287.783L98.4812 288.68C101.369 289.883 103.316 290.101 105.372 289.423C106.159 289.183 107.866 288.855 109.2 288.723L111.606 288.461L112.087 287.258C112.437 286.405 112.569 285.595 112.591 284.458C112.591 282.926 112.547 282.817 111.584 281.395C110.95 280.476 110.622 280.126 110.687 280.476L110.819 281.023L110.447 280.476C110.25 280.17 109.616 279.448 109.025 278.88C107.166 277.042 103.622 272.776 103.622 272.405C103.622 272.208 103.95 271.026 104.366 269.823L105.109 267.592L104.366 266.411L103.622 265.208L103.184 258.251C102.878 253.22 102.484 249.108 101.741 243.508L100.712 235.742L98.6125 230.951C97.125 227.561 96.4031 226.117 96.075 225.964C95.8125 225.855 95.5062 225.461 95.375 225.111C95.2 224.651 95.2 224.52 95.375 224.63C95.5062 224.717 95.55 224.651 95.4844 224.455C95.4187 224.28 94.85 222.486 94.2375 220.451L93.1219 216.776V212.423V208.07H93.9531C94.7625 208.07 94.8062 208.114 95.9656 210.083C99.4 215.901 105.219 223.908 106.378 224.389C107.844 225.001 107.931 224.87 111.453 217.761C124.753 190.876 130.812 170.205 132.759 144.851C133.109 140.17 133.109 123.829 132.759 119.039C132.125 110.77 131.819 108.255 131.075 105.389C129.566 99.4826 127.881 96.5076 125.366 95.2826L124.162 94.692L116.287 94.5389C111.956 94.4514 106.203 94.4295 103.512 94.4951L98.6125 94.6045L94.7625 92.0232C90.3219 89.0701 86.7781 87.1889 82.6875 85.5701C80.85 84.8482 79.7562 84.3014 79.6906 84.0826C79.625 83.8639 79.3844 83.0107 79.1437 82.1795C78.6844 80.5826 78.3562 78.417 78.1375 75.8357C77.9187 72.9701 77.525 61.617 77.5687 59.4076C77.6125 58.1826 77.525 57.0014 77.4156 56.7826C77.2844 56.542 76.9344 55.2732 76.6281 53.9389C75.8406 50.592 75.1406 48.9951 72.2312 43.8982C70.8531 41.492 69.475 38.867 69.1469 38.0357C68.6219 36.7451 68.4687 36.5701 67.9656 36.5701C67.4844 36.5701 67.2219 36.8107 66.5875 37.817C66.15 38.517 64.5531 40.5514 63.0437 42.367C58.4062 47.8357 56.4812 51.1826 55.7594 54.9451C55.475 56.4107 55.1687 60.6545 54.7094 69.1639C54.1406 80.2764 53.4406 83.142 50.925 84.8264C50.4656 85.1107 48.7375 85.8982 47.0531 86.5764C41.7156 88.7201 39.5719 90.1201 37.9094 92.592C36.6844 94.4295 33.0969 97.0982 26.8625 100.861C23.6687 102.786 20.5844 104.645 20.0375 105.017L19.0094 105.651L19.2062 106.614C19.4906 108.123 19.4469 108.101 18.5281 106.176C18.0687 105.192 16.8437 103.223 15.8156 101.801C14.8094 100.401 13.5406 98.4326 12.9937 97.4264C12.4687 96.4201 11.9437 95.6326 11.8344 95.6764C11.725 95.7201 11.5719 94.9545 11.4844 93.992C11.375 93.0295 11.1125 90.2514 10.8719 87.8232L10.4344 83.4264L11.5062 82.267C12.3812 81.3045 12.5781 80.9982 12.4687 80.517C12.4031 80.1889 12.4906 79.7076 12.6219 79.4232C12.9937 78.767 13.1906 70.367 12.8625 70.1482C12.7312 70.0826 12.6219 69.7107 12.6219 69.3389C12.6219 68.8357 12.4031 68.4639 11.7031 67.8295C11.1781 67.3482 10.6969 66.9764 10.6312 66.9764C10.5437 66.9764 10.4125 67.217 10.3469 67.5232C10.2156 68.0264 9.275 68.5076 8.99062 68.2232C8.72812 67.9607 8.09375 59.0139 8.29062 58.0514C8.44375 57.242 8.33437 56.4107 7.80937 53.8514C7.4375 52.1014 6.86875 49.0826 6.51875 47.1357L5.90625 43.592L6.60625 41.7764C7 40.7701 7.4375 39.6545 7.59062 39.3045C7.83125 38.7357 7.67812 37.817 6.3875 31.867C4.83437 24.6263 3.60937 18.7857 2.5375 13.492C2.16562 11.6764 1.79375 10.1232 1.68437 10.0139C1.575 9.92636 1.44375 10.2545 1.37812 10.7795ZM9.275 81.3264C9.20937 81.392 9.0125 81.4139 8.85937 81.3482C8.68437 81.2826 8.75 81.217 8.99062 81.217C9.23125 81.1951 9.3625 81.2607 9.275 81.3264ZM21.7437 124.333C21.6781 124.508 21.6125 124.442 21.6125 124.201C21.5906 123.961 21.6562 123.829 21.7219 123.917C21.7875 123.983 21.8094 124.18 21.7437 124.333Z"/>
        </mask>
        <path d="M1.37812 10.7795C1.3125 11.3045 1.15937 14.892 1.02812 18.742C0.896875 22.592 0.7 28.542 0.546875 31.9763L0.30625 38.2107L1.42187 40.442L2.5375 42.6514L2.975 48.317C3.21562 51.4232 3.47812 54.967 3.56562 56.192C3.675 57.8982 3.78437 58.4451 4.025 58.4451C4.50625 58.4451 4.65937 59.2107 4.94375 62.9295C5.075 64.8545 5.25 66.9326 5.31562 67.5451L5.44687 68.6607L4.59375 68.792C3.9375 68.9014 3.47812 69.2295 2.42812 70.3014L1.07187 71.6795L0.546875 74.3482L0 76.9951L0.6125 84.8482C0.940625 89.1576 1.33437 93.3139 1.46562 94.1014C1.575 94.8889 1.79375 97.6451 1.90312 100.226C2.20937 106.636 2.82187 109.764 4.41875 112.914C4.94375 113.942 7.54687 117.858 9.34062 120.351L10.2156 121.555L12.075 140.695C13.0812 151.217 14.0219 160.82 14.1531 162.023C14.2844 163.226 15.75 178.386 17.4344 195.711C19.1187 213.036 20.6281 228.633 20.8031 230.383C20.9781 232.133 22.225 244.864 23.5594 258.711C24.8937 272.536 26.0312 284.086 26.0969 284.348C26.1844 284.83 26.2937 284.851 28.1531 284.851H30.1219L30.0125 284.02C29.9469 283.583 28.8094 272.033 27.4969 258.383C24.9156 231.914 24.3906 226.489 23.8875 221.305C23.7125 219.489 22.3781 205.861 20.9344 191.008C19.4906 176.155 18.1562 162.505 17.9812 160.711C17.8062 158.895 17.5219 155.898 17.325 154.039C15.7937 138.573 14.3719 123.545 14.3719 122.976V122.32H16.1875H18.0031L19.6875 123.873C20.6062 124.726 21.3719 125.317 21.3719 125.164C21.3719 125.033 21.4812 124.989 21.5906 125.055C21.7219 125.142 25.9656 123.479 31.0625 121.38C36.1375 119.279 40.4469 117.508 40.6 117.464C40.8406 117.398 41.3875 118.317 42.5031 120.592L44.0781 123.808L44.1219 131.748L44.1656 139.711L43.4 142.095L42.6125 144.501L43.7937 145.748C44.7562 146.755 44.9531 147.083 44.8219 147.498C44.7125 147.936 44.6687 147.958 44.6031 147.63C44.5594 147.389 44.3625 147.258 44.1656 147.301C43.8375 147.367 43.7937 147.805 43.7937 151.108V154.826L43.1375 155.614C42.7875 156.051 42.4156 156.423 42.35 156.423C42.1531 156.445 41.9344 153.404 41.9344 150.561C41.9344 144.173 40.5562 138.989 38.15 136.386C37.2969 135.445 35.9187 134.57 35.3281 134.57C35.0437 134.57 33.1844 137.305 33.1844 137.742C33.1844 137.851 33.7312 138.508 34.3875 139.142C36.8594 141.57 37.5594 143.517 37.7125 148.395C37.8219 151.48 37.8 151.851 37.4719 151.873C37.275 151.895 37.0344 151.917 36.925 151.939C36.4875 151.983 36.225 152.486 36.2906 153.076C36.3344 153.536 36.4875 153.733 36.8594 153.776C37.3844 153.864 37.5375 154.258 37.0125 154.258C36.7719 154.258 36.6844 154.542 36.6844 155.439C36.6844 156.423 36.75 156.62 37.1219 156.73C37.4719 156.817 37.5594 157.036 37.5594 157.845C37.5594 158.414 37.4281 159.048 37.2969 159.289C37.0781 159.639 37.0781 159.814 37.3187 160.208C37.5156 160.514 37.5812 161.258 37.5375 162.548C37.45 165.151 37.7781 169.592 38.0406 169.023C38.1937 168.651 38.2156 168.673 38.1281 169.133C37.4937 172.414 35.8094 184.905 35.9625 185.145C36.0062 185.255 36.3781 185.32 36.7937 185.32H37.5156L37.4281 186.567C37.3625 187.267 37.1437 191.095 36.9031 195.098L36.5094 202.361L37.1437 205.489C37.4937 207.217 37.8219 208.836 37.8875 209.098C37.9969 209.58 38.0844 209.601 40.5125 209.601H43.0062L43.1375 210.52C43.9469 216.623 44.0781 218.876 44.1 227.43C44.1 240.598 43.925 239.33 47.9281 254.73C50.9906 266.476 51.3406 268.008 51.3406 269.626C51.3406 270.611 51.2531 271.508 51.1437 271.639C51.0125 271.748 51.1 272.426 51.3844 273.411L51.8437 274.964L50.7719 276.539C50.1812 277.414 49.2406 278.683 48.6719 279.383C46.6594 281.876 45.3906 283.78 45.325 284.37C45.2812 284.83 45.5875 285.376 46.7906 286.842L48.3 288.723L51.7344 288.876C53.6156 288.942 56.525 289.073 58.1656 289.139L61.1625 289.292L62.7156 287.805L64.2469 286.317V284.173V282.051L65.1219 281.001C65.6031 280.411 65.9969 279.886 65.9969 279.82C65.9969 279.755 65.7562 278.858 65.45 277.83C65.0125 276.276 64.9469 275.708 65.0344 274.133C65.1437 272.47 65.1 272.098 64.575 270.742C64.2687 269.911 63.9406 269.123 63.8531 268.992C63.7656 268.883 63.7 267.439 63.6781 265.82C63.6562 264.201 63.5469 257.989 63.3937 252.039C63.1531 241.976 63.0875 240.861 62.475 236.289C62.0812 233.445 61.6875 231.28 61.5344 231.148C61.3812 231.017 60.8781 228.458 60.375 225.395L59.5 219.883L60.5719 214.895C61.1406 212.161 61.6656 209.733 61.7312 209.47C61.8187 209.033 62.0156 209.011 65.6031 208.858C67.6812 208.792 70.525 208.705 71.9031 208.705L74.4187 208.661L74.8125 209.951C76.4969 215.464 77.5687 218.483 78.7062 220.714L80.0187 223.273L80.4125 228.633C80.7187 232.548 81.0687 235.348 81.7469 239.023L82.6656 244.055L85.6844 251.055C88.6812 258.011 88.7031 258.076 89.2719 261.336C89.6437 263.545 89.8406 265.426 89.8406 267.067C89.8406 268.401 89.95 269.78 90.0594 270.086C90.1906 270.414 90.475 271.398 90.7156 272.317C91.1312 273.892 91.1312 274.067 90.7812 277.48L90.4312 281.045L91.35 282.708L92.2687 284.392L93.275 284.458C94.2812 284.523 94.3031 284.545 95.2875 286.142L96.2937 287.783L98.4812 288.68C101.369 289.883 103.316 290.101 105.372 289.423C106.159 289.183 107.866 288.855 109.2 288.723L111.606 288.461L112.087 287.258C112.437 286.405 112.569 285.595 112.591 284.458C112.591 282.926 112.547 282.817 111.584 281.395C110.95 280.476 110.622 280.126 110.687 280.476L110.819 281.023L110.447 280.476C110.25 280.17 109.616 279.448 109.025 278.88C107.166 277.042 103.622 272.776 103.622 272.405C103.622 272.208 103.95 271.026 104.366 269.823L105.109 267.592L104.366 266.411L103.622 265.208L103.184 258.251C102.878 253.22 102.484 249.108 101.741 243.508L100.712 235.742L98.6125 230.951C97.125 227.561 96.4031 226.117 96.075 225.964C95.8125 225.855 95.5062 225.461 95.375 225.111C95.2 224.651 95.2 224.52 95.375 224.63C95.5062 224.717 95.55 224.651 95.4844 224.455C95.4187 224.28 94.85 222.486 94.2375 220.451L93.1219 216.776V212.423V208.07H93.9531C94.7625 208.07 94.8062 208.114 95.9656 210.083C99.4 215.901 105.219 223.908 106.378 224.389C107.844 225.001 107.931 224.87 111.453 217.761C124.753 190.876 130.812 170.205 132.759 144.851C133.109 140.17 133.109 123.829 132.759 119.039C132.125 110.77 131.819 108.255 131.075 105.389C129.566 99.4826 127.881 96.5076 125.366 95.2826L124.162 94.692L116.287 94.5389C111.956 94.4514 106.203 94.4295 103.512 94.4951L98.6125 94.6045L94.7625 92.0232C90.3219 89.0701 86.7781 87.1889 82.6875 85.5701C80.85 84.8482 79.7562 84.3014 79.6906 84.0826C79.625 83.8639 79.3844 83.0107 79.1437 82.1795C78.6844 80.5826 78.3562 78.417 78.1375 75.8357C77.9187 72.9701 77.525 61.617 77.5687 59.4076C77.6125 58.1826 77.525 57.0014 77.4156 56.7826C77.2844 56.542 76.9344 55.2732 76.6281 53.9389C75.8406 50.592 75.1406 48.9951 72.2312 43.8982C70.8531 41.492 69.475 38.867 69.1469 38.0357C68.6219 36.7451 68.4687 36.5701 67.9656 36.5701C67.4844 36.5701 67.2219 36.8107 66.5875 37.817C66.15 38.517 64.5531 40.5514 63.0437 42.367C58.4062 47.8357 56.4812 51.1826 55.7594 54.9451C55.475 56.4107 55.1687 60.6545 54.7094 69.1639C54.1406 80.2764 53.4406 83.142 50.925 84.8264C50.4656 85.1107 48.7375 85.8982 47.0531 86.5764C41.7156 88.7201 39.5719 90.1201 37.9094 92.592C36.6844 94.4295 33.0969 97.0982 26.8625 100.861C23.6687 102.786 20.5844 104.645 20.0375 105.017L19.0094 105.651L19.2062 106.614C19.4906 108.123 19.4469 108.101 18.5281 106.176C18.0687 105.192 16.8437 103.223 15.8156 101.801C14.8094 100.401 13.5406 98.4326 12.9937 97.4264C12.4687 96.4201 11.9437 95.6326 11.8344 95.6764C11.725 95.7201 11.5719 94.9545 11.4844 93.992C11.375 93.0295 11.1125 90.2514 10.8719 87.8232L10.4344 83.4264L11.5062 82.267C12.3812 81.3045 12.5781 80.9982 12.4687 80.517C12.4031 80.1889 12.4906 79.7076 12.6219 79.4232C12.9937 78.767 13.1906 70.367 12.8625 70.1482C12.7312 70.0826 12.6219 69.7107 12.6219 69.3389C12.6219 68.8357 12.4031 68.4639 11.7031 67.8295C11.1781 67.3482 10.6969 66.9764 10.6312 66.9764C10.5437 66.9764 10.4125 67.217 10.3469 67.5232C10.2156 68.0264 9.275 68.5076 8.99062 68.2232C8.72812 67.9607 8.09375 59.0139 8.29062 58.0514C8.44375 57.242 8.33437 56.4107 7.80937 53.8514C7.4375 52.1014 6.86875 49.0826 6.51875 47.1357L5.90625 43.592L6.60625 41.7764C7 40.7701 7.4375 39.6545 7.59062 39.3045C7.83125 38.7357 7.67812 37.817 6.3875 31.867C4.83437 24.6263 3.60937 18.7857 2.5375 13.492C2.16562 11.6764 1.79375 10.1232 1.68437 10.0139C1.575 9.92636 1.44375 10.2545 1.37812 10.7795ZM9.275 81.3264C9.20937 81.392 9.0125 81.4139 8.85937 81.3482C8.68437 81.2826 8.75 81.217 8.99062 81.217C9.23125 81.1951 9.3625 81.2607 9.275 81.3264ZM21.7437 124.333C21.6781 124.508 21.6125 124.442 21.6125 124.201C21.5906 123.961 21.6562 123.829 21.7219 123.917C21.7875 123.983 21.8094 124.18 21.7437 124.333Z" fill="black" stroke="white" stroke-width="2" mask="url(#path-1-inside-1)"/>
    </g>
    <defs>
        <filter id="filter0_d" x="0" y="-0.000244141" width="153.022" height="299.803" filterUnits="userSpaceOnUse" color-interpolation-filters="sRGB">
            <feFlood flood-opacity="0" result="BackgroundImageFix"/>
            <feColorMatrix in="SourceAlpha" type="matrix" values="0 0 0 0 0 0 0 0 0 0 0 0 0 0 0 0 0 0 127 0"/>
            <feOffset dx="10"/>
            <feGaussianBlur stdDeviation="5"/>
            <feColorMatrix type="matrix" values="0 0 0 0 0.445833 0 0 0 0 0.445833 0 0 0 0 0.445833 0 0 0 1 0"/>
            <feBlend mode="normal" in2="BackgroundImageFix" result="effect1_dropShadow"/>
            <feBlend mode="normal" in="SourceGraphic" in2="effect1_dropShadow" result="shape"/>
        </filter>
    </defs>
</svg>
