<svg width="215" height="225" viewBox="0 0 215 225" fill="none" xmlns="http://www.w3.org/2000/svg">
    <g filter="url(#filter0_d)">
        <path d="M112.974 10.3038C113.056 10.4797 113.138 10.7516 113.138 10.9115C113.138 11.3593 113.597 11.9191 113.957 11.9191C114.17 11.9191 114.317 11.7752 114.383 11.4713C114.432 11.2314 114.514 10.9275 114.546 10.7996C114.596 10.6237 114.858 10.5597 115.463 10.5437C115.938 10.5277 116.806 10.4637 117.396 10.3997C118.362 10.2878 118.657 10.3358 120.36 10.8636C121.785 11.2954 122.522 11.4393 123.406 11.4393C124.487 11.4393 124.635 11.4873 125.159 11.9191C126.796 13.3265 125.896 15.4376 123.521 15.8374C122.899 15.9334 122.833 15.9814 122.735 16.5252C122.375 18.6842 122.997 20.5235 125.06 23.4183C125.634 24.2339 126.518 25.7053 127.009 26.6809C128.352 29.3358 128.565 29.6077 129.302 29.7516C129.679 29.8156 130.383 30.1994 131.071 30.7112C132.954 32.1026 133.298 32.2625 134.379 32.2146C135.312 32.1666 135.329 32.1666 135.607 32.7104C135.836 33.1422 135.902 33.638 135.885 34.9494C135.853 36.8366 135.951 37.1405 136.786 38.1321C137.605 39.0917 137.621 39.5715 136.835 40.787C136.344 41.5546 136.328 41.6666 136.229 43.7457C136.131 46.2247 135.967 46.6885 135.28 46.5125C135.034 46.4646 134.608 46.3206 134.313 46.1927C134.019 46.0807 133.576 45.9848 133.331 45.9848C132.807 45.9848 132.528 46.2886 129.384 50.095C127.058 52.8939 126.37 53.5496 124.864 54.2853C124.258 54.5732 123.652 54.973 123.537 55.1649C123.406 55.3568 123.226 55.9966 123.144 56.6043C122.948 57.9157 122.293 59.3072 120.524 62.1859C119.394 64.0412 118.706 65.3366 118.706 65.6245C118.706 65.6885 119.148 65.3046 119.705 64.7769C120.966 63.5614 121.507 62.6657 121.572 61.6902C121.621 60.9705 121.654 60.9385 122.26 60.7625C122.604 60.6506 123.046 60.6026 123.243 60.6506C123.537 60.7146 123.619 60.6666 123.619 60.4267C123.619 59.8989 124.078 59.4671 125.044 59.0992C126.256 58.6194 126.469 58.4595 127.713 57.0521C128.27 56.4124 128.958 55.7726 129.22 55.6447C129.859 55.3248 131.136 54.941 131.595 54.941C131.857 54.941 131.971 54.845 131.971 54.6371C131.971 54.1253 132.987 53.5016 133.838 53.5016C134.428 53.5016 134.706 53.3896 135.361 52.8939L136.147 52.3021L137.998 52.3341C139.03 52.3661 139.996 52.3181 140.143 52.2221C140.307 52.1422 140.537 51.8543 140.651 51.5824C140.88 51.0386 140.831 51.0546 142.289 51.0866C142.928 51.1026 144.074 50.9587 145.188 50.7188C147.464 50.207 147.824 50.207 149.151 50.7188C150.101 51.0866 150.559 51.1506 153.327 51.2785C157.274 51.4705 158.076 51.6144 158.78 52.3021C159.075 52.59 159.321 52.9898 159.321 53.1817C159.321 53.5496 159.321 53.5496 159.714 53.1338C160.189 52.638 160.991 52.462 162.203 52.622C163.268 52.7499 163.415 52.638 163.415 51.7423C163.415 50.9587 163.988 49.0395 164.561 47.872C165.102 46.7524 165.118 46.7684 165.61 48.5437C166.101 50.3029 166.609 50.4149 166.838 48.7996C167.002 47.6161 167.214 47.4082 167.755 47.904C168.623 48.6876 169.016 49.8551 169.638 53.2137C170.277 56.7802 171.112 58.0757 173.176 58.6834C173.438 58.7634 173.552 58.6674 173.798 58.1396C174.191 57.26 174.993 56.7802 176.729 56.4124C178.121 56.1085 178.171 56.1085 178.318 56.3804C178.596 56.8922 178.498 57.276 177.876 58.1556C177.401 58.8434 177.172 59.4351 176.762 61.1144C176.484 62.2659 176.107 63.4494 175.927 63.7533C175.747 64.0412 175.174 64.6169 174.65 65.0008L173.7 65.7045L174.371 66.3602L175.043 67.0159L174.879 67.9755C174.568 69.7987 174.65 70.4385 175.387 71.8779L176.042 73.1893L175.632 74.0849C175.141 75.0925 175.092 76.308 175.37 79.6186C175.501 81.2179 175.485 81.8737 175.19 84.0168C174.846 86.6876 174.879 87.4393 175.387 87.9831C175.567 88.175 175.747 88.5908 175.812 88.9107C175.894 89.3905 175.812 89.6464 175.403 90.2861C174.65 91.4696 174.551 92.0134 174.551 95.0841C174.535 99.9141 173.994 101.114 171.997 100.682C171.292 100.522 171.243 100.538 170.834 101.002C170.326 101.609 169.524 102.025 168.213 102.345C167.034 102.649 166.69 102.665 166.69 102.425C166.69 102.329 166.363 101.897 165.97 101.465C165.004 100.426 164.774 99.6102 164.66 97.0033C164.545 94.6203 164.398 93.8526 163.89 93.2929L163.562 92.925L163.644 93.3248C164.021 95.1961 163.874 97.5151 163.218 100.154C162.793 101.929 162.596 102.009 161.564 100.906C160.025 99.2583 159.812 99.0504 159.616 99.1144C159.501 99.1624 158.911 99.978 158.305 100.938C157.208 102.713 155.947 104.04 155.374 104.04C155.063 104.04 154.997 103.88 154.834 102.697C154.752 102.121 154.359 101.481 154.178 101.657C154.129 101.689 154.293 103.017 154.522 104.6C154.834 106.759 154.948 108.263 154.965 110.582L154.997 113.7L155.98 114.116C156.504 114.356 157.061 114.676 157.192 114.836C157.323 114.996 157.47 115.619 157.536 116.259C157.601 117.203 157.716 117.523 158.142 118.098C159.026 119.282 158.813 120.082 157.519 120.497C157.208 120.593 156.7 120.817 156.422 120.993C155.947 121.281 155.882 121.393 155.882 122.033C155.882 123.152 156.504 125.759 157.077 126.959C157.503 127.902 157.618 128.046 157.912 127.95C158.109 127.886 159.354 127.79 160.713 127.71C163.3 127.582 164.349 127.343 166.101 126.479C167.395 125.839 168.901 125.327 169.589 125.295C169.949 125.279 170.588 125.423 171.063 125.647C171.849 125.983 172.013 125.999 172.783 125.839C173.585 125.679 173.7 125.695 174.306 126.031C174.666 126.239 175.599 126.959 176.386 127.614C178.727 129.614 182.134 132.093 185.344 134.188C187.03 135.259 188.685 136.427 189.061 136.779C190.552 138.186 191.288 139.673 191.6 141.896C191.829 143.544 192.091 144.263 193.221 146.343C194.449 148.63 194.482 148.805 193.942 150.181C193.532 151.236 193.516 151.428 193.598 153.252C193.68 155.411 193.581 155.763 192.762 155.922C192.206 156.05 190.683 155.667 189.569 155.123C188.472 154.579 185.95 152.116 185.131 150.773C184.181 149.237 183.821 148.134 183.821 146.742C183.804 145.783 183.87 145.431 184.181 144.935C184.377 144.599 184.541 144.247 184.541 144.167C184.541 144.071 183.903 144.023 182.985 144.039C180.938 144.071 180.758 143.912 179.726 141.225C179.235 139.993 179.186 139.353 179.481 138.618C179.645 138.25 179.661 138.026 179.53 137.818C179.235 137.338 174.993 134.667 174.076 134.38C172.357 133.836 171.374 134.012 168.295 135.403C165.315 136.747 156.946 139.865 155.489 140.185C155.03 140.281 154.555 140.409 154.424 140.441C154.064 140.553 155.03 141.449 157.192 143.032C158.224 143.784 159.583 144.871 160.222 145.463C161.433 146.598 161.843 146.854 163.366 147.398C163.89 147.59 164.496 147.862 164.709 147.99C165.675 148.614 166.69 151.093 166.805 153.14L166.887 154.499L166.035 155.619C165.02 156.946 164.774 157.394 163.906 159.521C163.12 161.472 162.809 162.496 161.876 166.494C160.549 172.044 159.861 173.643 158.305 174.667C157.896 174.938 157.094 175.258 156.537 175.386C154.768 175.77 153.949 176.266 152.852 177.673C151.493 179.401 151.362 179.465 149.02 179.225C146.285 178.953 144.238 178.585 143.779 178.297C143.435 178.073 143.402 177.977 143.484 177.21C143.583 176.282 144.369 174.507 145.286 173.083C146.121 171.82 148.266 169.661 149.249 169.117C150.248 168.557 150.854 168.541 151.706 169.053C152.574 169.565 152.688 169.549 152.999 168.909C153.343 168.173 153.343 168.173 152.688 168.173C151.902 168.173 151.214 167.805 151.001 167.262C150.854 166.91 150.494 164.479 150.477 163.807C150.477 163.743 150.69 163.695 150.952 163.695C151.214 163.695 151.509 163.583 151.624 163.455C151.738 163.327 152.574 162.832 153.474 162.384C154.375 161.92 155.423 161.248 155.783 160.896C156.995 159.745 158.829 155.763 158.829 154.291C158.829 153.028 157.306 152.196 151.837 150.485C148.152 149.333 145.597 148.246 143.124 146.758C140.209 144.999 139.947 144.967 138.129 146.183C136.36 147.382 133.953 148.182 127.058 149.909C121.31 151.364 120.442 151.604 118.297 152.34C114.89 153.508 114.333 153.635 111.337 153.875C108.569 154.083 105.932 154.467 105.474 154.723C105.31 154.819 105.441 154.963 105.981 155.267C107.062 155.891 108.241 157.25 109.093 158.849C109.813 160.241 111.14 163.935 110.976 164.111C110.911 164.159 110.6 164.127 110.256 164.031C109.895 163.935 108.585 163.727 107.324 163.551C103.869 163.071 103.541 162.928 101.625 161.168C99.8727 159.553 99.4633 159.313 98.0876 159.137C97.0723 159.009 96.4335 158.513 96.4335 157.858C96.4335 157.618 96.368 157.298 96.2698 157.138C96.0733 156.786 93.9606 155.507 92.0118 154.579L90.6198 153.907L88.9821 154.035C88.0813 154.115 86.2471 154.163 84.9206 154.179C82.939 154.179 82.4641 154.227 82.3494 154.419C81.9728 155.075 81.1703 156.034 80.81 156.258C80.2859 156.594 79.2051 156.594 78.2552 156.258C77.8458 156.114 77.158 155.938 76.7158 155.875L75.9297 155.747L75.6021 156.482C74.3739 159.297 73.8498 159.889 71.0494 161.6C69.5591 162.496 69.2315 162.624 68.1998 162.752C66.382 162.96 66.3328 162.992 64.7607 164.479C63.7617 165.422 62.9756 166.014 62.3696 166.27C58.7012 167.853 58.3245 168.189 57.1618 170.764C55.6223 174.203 54.8362 179.609 55.0655 185.398C55.262 190.74 55.8352 193.267 57.8168 197.553C59.0451 200.208 59.995 201.567 61.0759 202.271C61.5672 202.591 62.0912 202.991 62.255 203.167C62.6808 203.63 62.779 204.478 62.4679 205.182C62.1404 205.949 62.1404 207.437 62.4515 209.068C62.8118 210.891 62.7954 211.035 62.2222 211.035C60.9121 211.035 57.6531 210.092 55.737 209.164C53.2804 207.965 51.5609 206.381 51.5609 205.31C51.5609 205.102 51.7901 204.526 52.0686 204.03C52.5762 203.135 52.5762 203.103 52.3306 202.527C52.0522 201.903 52.0194 201.887 49.8413 201.439C49.0388 201.279 48.7604 201.135 48.3674 200.672C48.089 200.352 47.2701 199.52 46.5332 198.816C45.2066 197.537 44.5352 196.497 44.5188 195.714C44.5188 195.522 44.6662 195.058 44.8627 194.706C45.1248 194.194 45.1575 194.002 44.9937 193.827C44.6498 193.411 44.9446 191.859 45.7634 189.764L46.5495 187.765V185.126C46.5659 182.999 46.4677 181.944 46.1074 179.688C45.8453 178.153 45.6161 176.794 45.5669 176.666C45.5178 176.506 45.3376 176.618 44.961 177.05C43.4871 178.793 42.3407 181.208 41.4727 184.359C41.1615 185.526 40.6375 187.381 40.31 188.485C38.7541 193.747 38.6886 194.322 39.3437 196.721C39.5566 197.505 39.9333 199.168 40.1789 200.4C40.8176 203.742 41.3581 204.718 43.0449 205.582C44.4042 206.285 44.6007 206.701 44.4369 208.46C44.1749 211.163 44.2404 212.139 44.7481 213.066C45.3049 214.106 45.223 214.474 44.3878 214.618C42.1441 214.97 38.8524 214.218 36.3795 212.763C35.0857 212.011 33.6609 210.46 33.2351 209.356C32.7766 208.172 32.8093 207.517 33.317 206.525C33.6773 205.837 33.7264 205.598 33.6118 205.134L33.4644 204.59L32.1215 204.574C30.926 204.558 30.7131 204.51 30.0744 204.078C29.1737 203.47 28.3548 201.935 27.8144 199.808L27.4213 198.257L27.8144 197.841C28.1583 197.473 28.2238 197.233 28.3221 195.554C28.4531 193.395 28.5841 192.963 29.2883 192.451C30.3528 191.683 31.6138 188.373 32.3999 184.327C33.0877 180.68 33.3334 179.017 33.5463 176.33C34.054 169.869 34.5289 166.558 35.0857 165.742C35.446 165.199 36.5924 164.623 38.6395 163.919C40.572 163.263 41.4563 162.688 42.8647 161.2C44.3387 159.633 44.4369 159.345 44.4205 156.978C44.4205 155.219 44.3387 154.627 43.7491 152.18C42.9139 148.726 42.6846 147.302 42.8156 146.391C42.9139 145.767 42.8647 145.623 42.3571 145.031C41.3745 143.896 41.3908 142.296 42.4553 137.034C42.963 134.555 43.3888 131.709 43.2742 131.709C43.2578 131.709 42.7665 132.156 42.1933 132.716C40.8831 133.996 37.1492 136.491 37.1492 136.075C37.1492 135.915 37.3785 135.499 37.6405 135.163C38.3775 134.204 38.2301 134.14 37.2966 134.987C36.2321 135.963 34.4962 136.731 32.4654 137.114C29.4684 137.706 28.7479 137.658 29.3866 136.97C29.8451 136.475 29.4848 136.347 28.4695 136.603C27.9781 136.731 26.8318 136.827 25.8819 136.827H24.1951L24.2442 136.379L24.2934 135.947L22.6557 135.851C20.9525 135.755 20.0026 135.467 19.3475 134.875C19.1346 134.683 18.9709 134.412 18.9709 134.252C18.9709 134.044 18.7416 133.932 18.021 133.788C16.5143 133.484 14.6637 132.764 12.3218 131.565C11.11 130.941 9.93082 130.317 9.70154 130.157L9.25937 129.885L9.81618 129.71C10.111 129.614 10.3894 129.438 10.4221 129.342C10.4549 129.246 9.88168 128.462 9.12836 127.614C7.47429 125.695 6.22964 123.84 5.29616 121.905C4.16615 119.554 3.87137 118.562 3.74036 116.483C3.64209 115.044 3.54384 114.484 3.29817 114.084C3.11803 113.796 2.69223 113.125 2.3647 112.597C1.70963 111.557 1.62773 111.317 1.03816 108.806C0.825272 107.863 0.497726 106.791 0.301208 106.407C-0.0918427 105.608 -0.0918427 105.64 0.252075 105.64C0.415848 105.64 0.841644 105.864 1.18556 106.119C2.20093 106.871 2.31557 106.727 1.69324 105.512C0.514114 103.209 0.514114 100.986 1.69324 96.4435C2.11905 94.8602 2.52846 93.1969 2.61035 92.7651C2.87238 91.4696 2.80687 89.7743 2.46295 88.7828L2.15179 87.8871H2.57759C2.80687 87.8871 3.31456 87.9991 3.69122 88.143C4.08427 88.287 4.42818 88.3829 4.47731 88.3509C4.60832 88.207 4.05151 86.0159 3.34731 83.8888C2.02078 79.9705 1.95528 78.5311 3.00339 75.8922C3.67485 74.2289 3.88774 72.8535 3.59296 72.0378C3.49471 71.7499 3.44557 71.494 3.47832 71.446C3.52745 71.4141 3.87137 71.638 4.24803 71.9578C4.64108 72.2777 5.09964 72.5336 5.29616 72.5336C5.6237 72.5336 5.64008 72.4696 5.57457 71.0462C5.52544 69.8467 5.59094 69.143 5.95123 67.4957C6.5408 64.7928 6.4753 63.6253 5.57457 61.9301C5.42717 61.6582 7.0321 61.8501 7.93283 62.2019C9.0956 62.6817 9.24298 62.5858 9.39038 61.1944C9.55415 59.755 9.7998 58.8913 10.1601 58.4915C10.6023 58.0597 10.7824 58.0437 10.7824 58.4595C10.7824 59.0513 11.2246 59.8509 12.0762 60.7466C13.0588 61.8341 13.4027 62.4418 14.3198 64.8728C15.0895 66.92 15.8101 68.1994 16.4324 68.5992C16.6453 68.7432 16.8746 68.8551 16.9074 68.8551C16.9565 68.8551 16.8255 68.4233 16.6453 67.8955C16.3669 67.1599 16.3342 66.888 16.4816 66.744C16.5798 66.6481 16.6945 66.5841 16.7272 66.6321C16.76 66.6641 17.4151 67.7356 18.152 69.0151C19.8716 71.9418 21.5093 74.2928 22.5901 75.3644C23.0487 75.8282 23.4418 76.212 23.4581 76.212C23.4909 76.212 23.5564 75.9881 23.6055 75.7322C23.7529 75.0445 24.146 75.1405 24.7028 76.0041C25.4234 77.1077 25.538 77.6035 26.0129 81.6338C26.1931 83.1051 26.3077 83.505 27.8635 87.3274L28.3712 88.6068L28.3876 92.2853C28.4039 96.2036 28.5513 97.1632 28.9444 95.8518C29.2555 94.8602 29.5831 94.2844 29.8615 94.2844C30.058 94.2844 30.1071 94.5563 30.1071 95.6758C30.1071 97.0193 30.2873 98.0429 31.2535 102.361C31.7448 104.536 31.7448 106.919 31.2699 108.359C31.0898 108.934 30.926 109.462 30.926 109.542C30.926 109.622 31.2535 109.638 31.6629 109.59C32.3835 109.494 32.3835 109.494 32.2361 109.878C32.1543 110.086 31.8922 110.55 31.6629 110.901C31.4173 111.237 31.1225 111.861 30.9915 112.293C30.5329 113.764 29.8124 114.612 26.9628 117.027C26.3405 117.571 25.7345 118.242 25.538 118.642C25.1449 119.426 25.0958 120.593 25.4234 121.473C25.6199 121.985 25.7018 122.033 26.2586 122.033C26.8481 122.033 26.9137 122.081 27.0611 122.593C27.3067 123.472 29.1245 125.119 30.6803 125.903C32.4818 126.799 33.5954 127.135 34.3324 126.991C34.6599 126.927 35.8882 126.831 37.0673 126.783C39.5566 126.655 40.0479 126.463 42.4717 124.736C53.7881 116.675 58.2918 113.86 62.6153 112.133C66.1527 110.726 66.5457 110.678 71.8355 110.726C75.684 110.773 76.6339 110.726 77.3708 110.518C77.8622 110.39 78.2552 110.198 78.2552 110.134C78.2552 110.054 78.0096 109.35 77.6984 108.55C76.4046 105.24 75.7987 102.681 75.7987 100.506C75.7987 99.4663 75.7823 99.4343 75.3401 99.3543C75.0945 99.3223 73.424 98.9865 71.6226 98.6346C66.3328 97.595 59.7984 96.5875 46.9753 94.8442C40.5065 93.9646 37.313 92.7811 37.313 91.2777C37.313 90.8619 37.3949 90.7659 37.837 90.622C39.2455 90.1902 41.1452 89.9343 43.0449 89.9343C45.4032 89.9183 46.353 90.0462 51.3971 91.0058C55.9826 91.8855 58.9796 92.3173 66.7914 93.2449C74.1446 94.1245 77.3053 94.5243 79.4343 94.8602C80.3187 95.0041 81.1212 95.0841 81.2358 95.0361C81.3668 94.9881 80.9246 94.4604 80.1222 93.6927C79.3852 93.005 78.4353 92.0614 78.0096 91.5816L77.2398 90.7179L77.3381 89.1826C77.4527 87.7912 77.42 87.5353 77.0433 86.4477C76.814 85.792 76.6175 85.0563 76.6175 84.8164C76.6175 84.2887 77.7311 82.6573 79.811 80.1304C82.0874 77.3636 85.5265 73.5252 86.4764 72.7095C87.4754 71.8459 87.721 71.3501 88.4744 68.8871C89.1131 66.76 90.3577 64.2011 93.1582 59.1792C94.0425 57.5959 95.0088 55.6287 95.3035 54.813C95.6638 53.7895 95.9586 53.2297 96.2534 53.0058C96.4827 52.8299 97.0723 52.3981 97.5308 52.0622C98.0057 51.7104 99.0866 50.6068 99.9218 49.6152C102.051 47.1363 103.377 46.1287 105.703 45.2331C106.669 44.8812 107.079 44.8013 108.503 44.8013H110.19L110.583 43.5858C111.042 42.2263 111.386 40.9469 112.254 37.2684C113.154 33.4141 114.104 30.9511 115.365 29.2398C115.627 28.888 115.611 28.872 114.874 28.5201C113.99 28.1043 113.924 27.9604 114.628 27.9444C115.251 27.9284 115.857 27.5605 116.004 27.1127C116.069 26.9208 116.086 26.7449 116.037 26.6969C116.004 26.6649 115.529 26.8248 115.005 27.0647C114.121 27.4646 113.859 27.4966 112.073 27.5125H110.108L110.026 27.9763C109.928 28.5681 109.535 28.728 109.535 28.2003C109.535 27.9923 109.437 27.6725 109.306 27.4966C109.077 27.2087 109.044 27.2407 108.716 27.9923C108.274 28.9999 108.274 28.9999 107.963 28.5681L107.701 28.2162L107.046 28.9519C106.358 29.7196 105.752 29.9915 105.375 29.6716C105.179 29.5277 105.081 29.5757 104.835 29.9435C104.688 30.1834 103.967 31.143 103.246 32.0706C101.707 34.0698 101.15 35.1733 101.052 36.4208C101.019 36.9326 100.937 37.3484 100.904 37.3484C100.855 37.3484 100.642 37.2045 100.413 37.0285C99.8563 36.5967 99.6762 36.6287 99.8072 37.1085C99.8891 37.4604 99.8236 37.5403 99.1521 37.8122C98.3824 38.1481 98.3333 38.212 98.104 39.5875C97.9894 40.2112 97.9238 40.3072 97.498 40.3871C96.5646 40.579 96.2862 40.8669 95.5001 42.4023C94.6812 44.0176 94.1572 44.4974 93.4202 44.3215C93.0927 44.2415 93.0599 44.2895 93.1254 44.6733C93.1909 45.1851 92.8306 45.5849 92.1101 45.7609L91.6187 45.8728L91.979 45.313C92.3721 44.7053 92.454 44.2255 92.1756 44.2255C91.8316 44.2255 91.0619 44.7053 90.9637 44.9772C90.8818 45.1531 90.9637 45.345 91.2093 45.521C91.5696 45.7928 91.5696 45.7928 90.6034 46.2407C89.6863 46.6885 89.5225 46.7045 87.4263 46.7045C85.0516 46.7045 84.0199 46.4806 83.3975 45.8088C83.2338 45.6329 83.1683 45.505 83.2502 45.537C83.4139 45.5849 83.4958 45.473 83.4958 45.1691C83.4958 45.0412 83.2502 45.0092 82.7097 45.0732C81.7599 45.1851 81.6125 45.1051 81.4815 44.4014C81.4159 44.1136 81.0229 43.4258 80.6135 42.8981C79.8929 41.9545 79.8601 41.8745 79.9256 41.0428C80.0075 40.1952 80.0403 40.1472 81.3013 38.9957L82.5951 37.8282L82.202 37.5083C81.8909 37.2524 81.5797 37.1885 80.5643 37.1885H79.3033L79.1232 36.5008C79.0085 36.1329 78.4681 35.0774 77.9113 34.1497C77.3381 33.2221 76.7485 32.0386 76.5848 31.5109C75.9461 29.5277 76.7813 27.5445 78.6646 26.5849C79.5981 26.1211 81.547 26.0252 82.677 26.393C84.2 26.8888 85.4447 28.3442 85.461 29.6396C85.461 30.1194 85.4938 30.1674 85.8213 30.0715C86.2963 29.9275 86.935 29.5437 86.935 29.3838C86.935 29.3198 86.7876 29.1758 86.6074 29.0639C86.3454 28.904 86.1325 28.3922 86.3126 28.3922C86.3454 28.3922 87.2461 28.2802 88.327 28.1523C89.3915 28.0243 90.2922 27.9124 90.3086 27.9124C90.5051 27.9124 90.8654 27.3206 90.8654 27.0327C90.8654 26.489 91.4058 26.2011 92.6341 26.0732C93.5021 25.9772 93.8624 25.8333 94.7631 25.2255C95.369 24.8417 96.0896 24.4099 96.3844 24.2819C97.9238 23.6582 103.345 22.8105 105.818 22.7945C107.586 22.7945 109.126 23.1464 112.204 24.2339C113.662 24.7457 115.316 25.2575 115.857 25.3694L116.856 25.5614L117.363 26.5689C117.871 27.5605 118.248 27.9284 118.985 28.1523C119.771 28.3762 119.345 27.1447 117.838 24.7297C117.019 23.4183 116.987 23.3383 116.987 22.2028C116.987 21.1792 116.937 20.9713 116.544 20.4915C115.807 19.5959 114.579 19.212 112.336 19.196L110.452 19.164L110.223 18.5083C110.043 17.9806 109.912 17.8366 109.617 17.8366C109.42 17.8366 106.931 18.0445 104.114 18.3164C101.281 18.5723 95.4018 19.0681 91.0292 19.4359C83.2993 20.0597 81.2849 20.2836 74.9798 21.1152C69.4772 21.8509 64.3512 21.8189 60.388 21.0353C58.9796 20.7474 57.129 20.0437 57.129 19.7718C57.129 19.4839 63.2376 17.8206 66.8733 17.1329C72.0484 16.1413 76.2245 15.6775 86.8531 14.8779C98.9392 13.9822 101.56 13.7104 107.079 12.8627C109.944 12.4149 109.699 12.5588 109.699 11.2794C109.699 9.99991 109.682 9.99991 111.5 9.99991C112.614 9.99991 112.827 10.0479 112.974 10.3038ZM109.077 76.34C108.471 77.0437 108.372 77.2196 108.569 77.3476C109.109 77.7154 109.863 77.9553 111.091 78.1312C111.828 78.2272 112.778 78.4991 113.253 78.723C113.826 79.0109 114.235 79.1068 114.514 79.0269C114.759 78.9629 115.513 78.3871 116.2 77.7314C116.888 77.0757 117.724 76.404 118.067 76.26C118.411 76.1001 118.706 75.9082 118.706 75.8442C118.706 75.5083 118.1 75.5883 117.199 76.0361C116.2 76.5319 115.758 76.6439 115.758 76.404C115.758 76.34 115.84 76.196 115.955 76.0841C116.086 75.9561 116.135 75.3644 116.119 74.2928C116.069 72.8055 116.102 72.6615 116.462 72.3097C116.675 72.1178 116.937 71.9099 117.068 71.8619C117.363 71.7659 117.085 71.0622 116.397 70.1346L115.938 69.5109L112.876 72.5016C111.206 74.1489 109.486 75.8762 109.077 76.34ZM6.68819 75.8282C6.91747 76.6279 7.98196 77.9393 7.99835 77.4275C7.99835 77.2516 7.73631 76.6758 7.42516 76.1161C7.114 75.5723 6.85196 74.9806 6.85196 74.8206C6.83559 74.5487 6.83559 74.5487 6.67181 74.8206C6.5408 75.0445 6.5408 75.3164 6.68819 75.8282ZM154.178 81.4418C153.769 82.6573 153.425 84.9444 153.425 86.3678C153.425 88.143 153.638 88.3189 156.176 88.7508C157.012 88.8947 157.994 89.1506 158.338 89.3265C158.698 89.5024 159.01 89.6464 159.042 89.6464C159.075 89.6464 159.042 89.1346 158.961 88.5269C158.715 86.5757 158.224 85.6001 155.554 81.9216C155.063 81.2499 154.621 80.6902 154.555 80.6902C154.49 80.6902 154.326 81.026 154.178 81.4418ZM159.223 83.0412C159.403 83.2171 159.501 82.9772 159.37 82.6733C159.255 82.3854 159.239 82.3854 159.19 82.6573C159.157 82.8173 159.173 82.9932 159.223 83.0412ZM107.259 86.8955C107.095 91.6775 107.128 92.5412 107.537 93.2769C107.897 93.9326 108.471 94.4124 108.683 94.2045C108.749 94.1565 108.847 92.925 108.896 91.4696C109.06 87.7272 109.257 87.1035 110.288 86.7676C111.435 86.3998 113.466 86.9435 113.875 87.7432C114.235 88.4149 114.17 89.0706 113.629 90.2861C113.138 91.3897 113.04 91.9654 113.269 92.3333C113.466 92.6371 114.235 91.9974 114.546 91.2777C114.743 90.7979 115.201 86.7996 115.054 86.6716C115.038 86.6557 113.875 86.4158 112.483 86.1279C110.501 85.744 107.324 84.8644 107.324 84.7045C107.324 84.7045 107.291 85.6801 107.259 86.8955ZM10.504 89.3105C9.99632 90.0462 9.97995 91.5016 10.4713 92.4772C10.6514 92.861 10.8643 93.1649 10.9298 93.1649C11.0936 93.1649 11.4375 90.7659 11.4375 89.5984C11.4375 88.7988 11.3884 88.6708 11.1591 88.7188C10.9953 88.7508 10.7005 89.0067 10.504 89.3105ZM153.425 90.638C153.425 91.4056 153.867 93.0849 154.244 93.8046C154.719 94.7003 155.538 95.5799 156.16 95.8198C156.684 96.0437 158.109 96.1237 158.535 95.9637C158.715 95.8998 158.748 95.6599 158.698 95.0201C158.649 94.3324 158.715 93.9646 159.059 93.2449C159.288 92.7331 159.485 92.3013 159.485 92.2693C159.485 92.2533 158.879 92.0454 158.125 91.8215C157.388 91.5976 156.078 91.1338 155.227 90.7819C154.375 90.4301 153.622 90.1422 153.54 90.1422C153.474 90.1262 153.425 90.3661 153.425 90.638ZM166.69 91.7255C166.494 91.8535 166.494 91.8855 166.772 91.8855C166.952 91.8855 167.214 91.8055 167.345 91.7255C167.542 91.5976 167.542 91.5656 167.264 91.5656C167.083 91.5656 166.821 91.6456 166.69 91.7255ZM85.33 101.034L84.7896 101.242L85.1663 101.801C85.9523 102.921 87.7374 103.832 89.9974 104.248L90.5379 104.344L89.8992 103.113C89.2441 101.849 88.6218 101.146 87.9176 100.858C87.4099 100.65 86.0506 100.73 85.33 101.034Z" fill="black"/>
    </g>
    <defs>
        <filter id="filter0_d" x="0" y="0" width="214.275" height="224.704" filterUnits="userSpaceOnUse" color-interpolation-filters="sRGB">
            <feFlood flood-opacity="0" result="BackgroundImageFix"/>
            <feColorMatrix in="SourceAlpha" type="matrix" values="0 0 0 0 0 0 0 0 0 0 0 0 0 0 0 0 0 0 127 0"/>
            <feOffset dx="10"/>
            <feGaussianBlur stdDeviation="5"/>
            <feColorMatrix type="matrix" values="0 0 0 0 0.0117647 0 0 0 0 0.301961 0 0 0 0 0.647059 0 0 0 1 0"/>
            <feBlend mode="normal" in2="BackgroundImageFix" result="effect1_dropShadow"/>
            <feBlend mode="normal" in="SourceGraphic" in2="effect1_dropShadow" result="shape"/>
        </filter>
    </defs>
</svg>
