<svg width="210" height="225" viewBox="0 0 210 225" fill="none" xmlns="http://www.w3.org/2000/svg">
    <g filter="url(#filter0_d)">
        <path d="M79.3967 10.3038C79.3168 10.4797 79.2368 10.7516 79.2368 10.9115C79.2368 11.3593 78.789 11.9191 78.4371 11.9191C78.2292 11.9191 78.0853 11.7752 78.0213 11.4713C77.9733 11.2314 77.8934 10.9275 77.8614 10.7996C77.8134 10.6237 77.5575 10.5597 76.9658 10.5437C76.502 10.5277 75.6543 10.4637 75.0786 10.3997C74.1349 10.2878 73.8471 10.3358 72.1838 10.8636C70.7924 11.2954 70.0727 11.4393 69.209 11.4393C68.1535 11.4393 68.0095 11.4873 67.4977 11.9191C65.8984 13.3265 66.778 15.4376 69.0971 15.8374C69.7048 15.9334 69.7688 15.9814 69.8647 16.5252C70.2166 18.6842 69.6089 20.5235 67.5937 23.4183C67.0339 24.2339 66.1703 25.7053 65.6905 26.6809C64.3791 29.3358 64.1711 29.6077 63.4515 29.7516C63.0836 29.8156 62.3959 30.1994 61.7242 30.7112C59.885 32.1026 59.5491 32.2625 58.4935 32.2146C57.5819 32.1666 57.5659 32.1666 57.294 32.7104C57.0701 33.1422 57.0062 33.638 57.0222 34.9494C57.0541 36.8366 56.9582 37.1405 56.1425 38.1321C55.3429 39.0917 55.3269 39.5715 56.0945 40.787C56.5743 41.5546 56.5903 41.6666 56.6863 43.7457C56.7823 46.2247 56.9422 46.6885 57.6139 46.5125C57.8538 46.4646 58.2696 46.3206 58.5575 46.1927C58.8454 46.0807 59.2772 45.9848 59.5171 45.9848C60.0289 45.9848 60.3008 46.2886 63.3715 50.095C65.6425 52.8939 66.3142 53.5496 67.7856 54.2853C68.3774 54.5732 68.9691 54.973 69.0811 55.1649C69.209 55.3568 69.3849 55.9966 69.4649 56.6043C69.6568 57.9157 70.2966 59.3072 72.0238 62.1859C73.1274 64.0412 73.7991 65.3366 73.7991 65.6245C73.7991 65.6885 73.3673 65.3046 72.8235 64.7769C71.592 63.5614 71.0642 62.6657 71.0003 61.6902C70.9523 60.9705 70.9203 60.9385 70.3286 60.7625C69.9927 60.6506 69.5609 60.6026 69.3689 60.6506C69.0811 60.7146 69.0011 60.6666 69.0011 60.4267C69.0011 59.8989 68.5533 59.4671 67.6097 59.0992C66.4262 58.6194 66.2183 58.4595 65.0028 57.0521C64.459 56.4124 63.7873 55.7726 63.5314 55.6447C62.9077 55.3248 61.6602 54.941 61.2124 54.941C60.9565 54.941 60.8445 54.845 60.8445 54.6371C60.8445 54.1253 59.853 53.5016 59.0213 53.5016C58.4456 53.5016 58.1737 53.3896 57.5339 52.8939L56.7663 52.3021L54.959 52.3341C53.9515 52.3661 53.0078 52.3181 52.8639 52.2221C52.704 52.1422 52.4801 51.8543 52.3681 51.5824C52.1442 51.0386 52.1922 51.0546 50.7688 51.0866C50.1451 51.1026 49.0255 50.9587 47.938 50.7188C45.7149 50.207 45.3631 50.207 44.0676 50.7188C43.14 51.0866 42.6922 51.1506 39.9893 51.2785C36.135 51.4705 35.3513 51.6144 34.6636 52.3021C34.3757 52.59 34.1358 52.9898 34.1358 53.1817C34.1358 53.5496 34.1358 53.5496 33.752 53.1338C33.2882 52.638 32.5045 52.462 31.321 52.622C30.2814 52.7499 30.1375 52.638 30.1375 51.7423C30.1375 50.9587 29.5777 49.0395 29.0179 47.872C28.4902 46.7524 28.4742 46.7684 27.9944 48.5437C27.5146 50.3029 27.0188 50.4149 26.7949 48.7996C26.635 47.6161 26.427 47.4082 25.8993 47.904C25.0516 48.6876 24.6678 49.8551 24.06 53.2137C23.4363 56.7802 22.6206 58.0757 20.6055 58.6834C20.3496 58.7634 20.2376 58.6674 19.9977 58.1396C19.6139 57.26 18.8302 56.7802 17.135 56.4124C15.7755 56.1085 15.7275 56.1085 15.5836 56.3804C15.3117 56.8922 15.4077 57.276 16.0154 58.1556C16.4792 58.8434 16.7031 59.4351 17.103 61.1144C17.3749 62.2659 17.7427 63.4494 17.9186 63.7533C18.0945 64.0412 18.6543 64.6169 19.1661 65.0008L20.0937 65.7045L19.438 66.3602L18.7823 67.0159L18.9422 67.9755C19.2461 69.7987 19.1661 70.4385 18.4464 71.8779L17.8067 73.1893L18.2065 74.0849C18.6863 75.0925 18.7343 76.308 18.4624 79.6186C18.3344 81.2179 18.3504 81.8737 18.6383 84.0168C18.9742 86.6876 18.9422 87.4393 18.4464 87.9831C18.2705 88.175 18.0945 88.5908 18.0306 88.9107C17.9506 89.3905 18.0306 89.6464 18.4304 90.2861C19.1661 91.4696 19.2621 92.0134 19.2621 95.0841C19.278 99.9141 19.8058 101.114 21.757 100.682C22.4447 100.522 22.4927 100.538 22.8925 101.002C23.3883 101.609 24.172 102.025 25.4515 102.345C26.603 102.649 26.9388 102.665 26.9388 102.425C26.9388 102.329 27.2587 101.897 27.6425 101.465C28.5861 100.426 28.81 99.6102 28.922 97.0033C29.0339 94.6203 29.1779 93.8526 29.6737 93.2929L29.9935 92.925L29.9136 93.3248C29.5457 95.1961 29.6897 97.5151 30.3294 100.154C30.7452 101.929 30.9371 102.009 31.9447 100.906C33.4481 99.2583 33.656 99.0504 33.8479 99.1144C33.9599 99.1624 34.5356 99.978 35.1274 100.938C36.1989 102.713 37.4304 104.04 37.9902 104.04C38.294 104.04 38.358 103.88 38.5179 102.697C38.5979 102.121 38.9818 101.481 39.1577 101.657C39.2057 101.689 39.0457 103.017 38.8218 104.6C38.5179 106.759 38.406 108.263 38.39 110.582L38.358 113.7L37.3984 114.116C36.8866 114.356 36.3429 114.676 36.2149 114.836C36.087 114.996 35.943 115.619 35.8791 116.259C35.8151 117.203 35.7031 117.523 35.2873 118.098C34.4237 119.282 34.6316 120.082 35.8951 120.497C36.1989 120.593 36.6947 120.817 36.9666 120.993C37.4304 121.281 37.4944 121.393 37.4944 122.033C37.4944 123.152 36.8866 125.759 36.3269 126.959C35.911 127.902 35.7991 128.046 35.5112 127.95C35.3193 127.886 34.1038 127.79 32.7764 127.71C30.2494 127.582 29.2259 127.343 27.5146 126.479C26.2511 125.839 24.7797 125.327 24.108 125.295C23.7562 125.279 23.1324 125.423 22.6686 125.647C21.9009 125.983 21.741 125.999 20.9893 125.839C20.2057 125.679 20.0937 125.695 19.502 126.031C19.1501 126.239 18.2385 126.959 17.4708 127.614C15.1838 129.614 11.8572 132.093 8.7225 134.188C7.07519 135.259 5.45987 136.427 5.09202 136.779C3.63664 138.186 2.91694 139.673 2.61307 141.896C2.38916 143.544 2.13327 144.263 1.02973 146.343C-0.169761 148.63 -0.201747 148.805 0.32603 150.181C0.725862 151.236 0.741855 151.428 0.661889 153.252C0.581923 155.411 0.677882 155.763 1.47755 155.922C2.02132 156.05 3.50869 155.667 4.59623 155.123C5.66778 154.579 8.13074 152.116 8.93041 150.773C9.85802 149.237 10.2099 148.134 10.2099 146.742C10.2259 145.783 10.1619 145.431 9.85802 144.935C9.6661 144.599 9.50617 144.247 9.50617 144.167C9.50617 144.071 10.1299 144.023 11.0255 144.039C13.0247 144.071 13.2006 143.912 14.2082 141.225C14.688 139.993 14.736 139.353 14.4481 138.618C14.2882 138.25 14.2722 138.026 14.4001 137.818C14.688 137.338 18.8302 134.667 19.7259 134.38C21.4052 133.836 22.3647 134.012 25.3715 135.403C28.2823 136.747 36.4548 139.865 37.8782 140.185C38.326 140.281 38.7898 140.409 38.9178 140.441C39.2696 140.553 38.326 141.449 36.2149 143.032C35.2073 143.784 33.8799 144.871 33.2562 145.463C32.0727 146.598 31.6728 146.854 30.1855 147.398C29.6737 147.59 29.0819 147.862 28.874 147.99C27.9304 148.614 26.9388 151.093 26.8269 153.14L26.7469 154.499L27.5786 155.619C28.5701 156.946 28.81 157.394 29.6577 159.521C30.4254 161.472 30.7292 162.496 31.6408 166.494C32.9363 172.044 33.608 173.643 35.1274 174.667C35.5272 174.938 36.3109 175.258 36.8546 175.386C38.5819 175.77 39.3816 176.266 40.4531 177.673C41.7806 179.401 41.9085 179.465 44.1956 179.225C46.8664 178.953 48.8656 178.585 49.3134 178.297C49.6493 178.073 49.6812 177.977 49.6013 177.21C49.5053 176.282 48.7376 174.507 47.842 173.083C47.0264 171.82 44.9312 169.661 43.9717 169.117C42.9961 168.557 42.4043 168.541 41.5727 169.053C40.725 169.565 40.6131 169.549 40.3092 168.909C39.9733 168.173 39.9733 168.173 40.6131 168.173C41.3807 168.173 42.0525 167.805 42.2604 167.262C42.4043 166.91 42.7562 164.479 42.7722 163.807C42.7722 163.743 42.5642 163.695 42.3084 163.695C42.0525 163.695 41.7646 163.583 41.6526 163.455C41.5407 163.327 40.725 162.832 39.8454 162.384C38.9658 161.92 37.9422 161.248 37.5903 160.896C36.4068 159.745 34.6156 155.763 34.6156 154.291C34.6156 153.028 36.103 152.196 41.4447 150.485C45.0432 149.333 47.5382 148.246 49.9531 146.758C52.7999 144.999 53.0558 144.967 54.8311 146.183C56.5584 147.382 58.9094 148.182 65.6425 149.909C71.2562 151.364 72.1038 151.604 74.1989 152.34C77.5255 153.508 78.0693 153.635 80.9961 153.875C83.6989 154.083 86.2738 154.467 86.7216 154.723C86.8816 154.819 86.7536 154.963 86.2259 155.267C85.1703 155.891 84.0188 157.25 83.1871 158.849C82.4834 160.241 81.188 163.935 81.3479 164.111C81.4119 164.159 81.7158 164.127 82.0516 164.031C82.4035 163.935 83.6829 163.727 84.9144 163.551C88.289 163.071 88.6088 162.928 90.4801 161.168C92.1913 159.553 92.5912 159.313 93.9346 159.137C94.9262 159.009 95.5499 158.513 95.5499 157.858C95.5499 157.618 95.6139 157.298 95.7099 157.138C95.9018 156.786 97.9649 155.507 99.8681 154.579L101.228 153.907L102.827 154.035C103.706 154.115 105.498 154.163 106.793 154.179C108.728 154.179 109.192 154.227 109.304 154.419C109.672 155.075 110.456 156.034 110.808 156.258C111.319 156.594 112.375 156.594 113.302 156.258C113.702 156.114 114.374 155.938 114.806 155.875L115.573 155.747L115.893 156.482C117.093 159.297 117.605 159.889 120.339 161.6C121.795 162.496 122.115 162.624 123.122 162.752C124.898 162.96 124.946 162.992 126.481 164.479C127.456 165.422 128.224 166.014 128.816 166.27C132.398 167.853 132.766 168.189 133.902 170.764C135.405 174.203 136.173 179.609 135.949 185.398C135.757 190.74 135.197 193.267 133.262 197.553C132.063 200.208 131.135 201.567 130.079 202.271C129.6 202.591 129.088 202.991 128.928 203.167C128.512 203.63 128.416 204.478 128.72 205.182C129.04 205.949 129.04 207.437 128.736 209.068C128.384 210.891 128.4 211.035 128.96 211.035C130.239 211.035 133.422 210.092 135.293 209.164C137.692 207.965 139.371 206.381 139.371 205.31C139.371 205.102 139.148 204.526 138.876 204.03C138.38 203.135 138.38 203.103 138.62 202.527C138.892 201.903 138.924 201.887 141.051 201.439C141.834 201.279 142.106 201.135 142.49 200.672C142.762 200.352 143.562 199.52 144.281 198.816C145.577 197.537 146.233 196.497 146.249 195.714C146.249 195.522 146.105 195.058 145.913 194.706C145.657 194.194 145.625 194.002 145.785 193.827C146.121 193.411 145.833 191.859 145.033 189.764L144.265 187.765V185.126C144.249 182.999 144.345 181.944 144.697 179.688C144.953 178.153 145.177 176.794 145.225 176.666C145.273 176.506 145.449 176.618 145.817 177.05C147.256 178.793 148.376 181.208 149.223 184.359C149.527 185.526 150.039 187.381 150.359 188.485C151.878 193.747 151.942 194.322 151.302 196.721C151.095 197.505 150.727 199.168 150.487 200.4C149.863 203.742 149.335 204.718 147.688 205.582C146.361 206.285 146.169 206.701 146.329 208.46C146.584 211.163 146.52 212.139 146.025 213.066C145.481 214.106 145.561 214.474 146.377 214.618C148.568 214.97 151.782 214.218 154.197 212.763C155.461 212.011 156.852 210.46 157.268 209.356C157.716 208.172 157.684 207.517 157.188 206.525C156.836 205.837 156.788 205.598 156.9 205.134L157.044 204.59L158.355 204.574C159.523 204.558 159.731 204.51 160.355 204.078C161.234 203.47 162.034 201.935 162.562 199.808L162.946 198.257L162.562 197.841C162.226 197.473 162.162 197.233 162.066 195.554C161.938 193.395 161.81 192.963 161.122 192.451C160.083 191.683 158.851 188.373 158.084 184.327C157.412 180.68 157.172 179.017 156.964 176.33C156.468 169.869 156.004 166.558 155.461 165.742C155.109 165.199 153.989 164.623 151.99 163.919C150.103 163.263 149.239 162.688 147.864 161.2C146.425 159.633 146.329 159.345 146.345 156.978C146.345 155.219 146.425 154.627 147 152.18C147.816 148.726 148.04 147.302 147.912 146.391C147.816 145.767 147.864 145.623 148.36 145.031C149.319 143.896 149.303 142.296 148.264 137.034C147.768 134.555 147.352 131.709 147.464 131.709C147.48 131.709 147.96 132.156 148.52 132.716C149.799 133.996 153.446 136.491 153.446 136.075C153.446 135.915 153.222 135.499 152.966 135.163C152.246 134.204 152.39 134.14 153.302 134.987C154.341 135.963 156.036 136.731 158.02 137.114C160.946 137.706 161.65 137.658 161.026 136.97C160.579 136.475 160.93 136.347 161.922 136.603C162.402 136.731 163.521 136.827 164.449 136.827H166.096L166.048 136.379L166 135.947L167.6 135.851C169.263 135.755 170.191 135.467 170.83 134.875C171.038 134.683 171.198 134.412 171.198 134.252C171.198 134.044 171.422 133.932 172.126 133.788C173.597 133.484 175.404 132.764 177.691 131.565C178.875 130.941 180.026 130.317 180.25 130.157L180.682 129.885L180.138 129.71C179.85 129.614 179.579 129.438 179.547 129.342C179.515 129.246 180.074 128.462 180.81 127.614C182.425 125.695 183.641 123.84 184.552 121.905C185.656 119.554 185.944 118.562 186.072 116.483C186.168 115.044 186.264 114.484 186.504 114.084C186.68 113.796 187.095 113.125 187.415 112.597C188.055 111.557 188.135 111.317 188.711 108.806C188.919 107.863 189.238 106.791 189.43 106.407C189.814 105.608 189.814 105.64 189.478 105.64C189.318 105.64 188.903 105.864 188.567 106.119C187.575 106.871 187.463 106.727 188.071 105.512C189.222 103.209 189.222 100.986 188.071 96.4435C187.655 94.8602 187.255 93.1969 187.175 92.7651C186.919 91.4696 186.983 89.7743 187.319 88.7828L187.623 87.8871H187.207C186.983 87.8871 186.488 87.9991 186.12 88.143C185.736 88.287 185.4 88.3829 185.352 88.3509C185.224 88.207 185.768 86.0159 186.456 83.8888C187.751 79.9705 187.815 78.5311 186.792 75.8922C186.136 74.2289 185.928 72.8535 186.216 72.0378C186.312 71.7499 186.36 71.494 186.328 71.446C186.28 71.4141 185.944 71.638 185.576 71.9578C185.192 72.2777 184.744 72.5336 184.552 72.5336C184.233 72.5336 184.217 72.4696 184.281 71.0462C184.329 69.8467 184.265 69.143 183.913 67.4957C183.337 64.7928 183.401 63.6253 184.281 61.9301C184.425 61.6582 182.857 61.8501 181.978 62.2019C180.842 62.6817 180.698 62.5858 180.554 61.1944C180.394 59.755 180.154 58.8913 179.802 58.4915C179.371 58.0597 179.195 58.0437 179.195 58.4595C179.195 59.0513 178.763 59.8509 177.931 60.7466C176.972 61.8341 176.636 62.4418 175.74 64.8728C174.988 66.92 174.285 68.1994 173.677 68.5992C173.469 68.7432 173.245 68.8551 173.213 68.8551C173.165 68.8551 173.293 68.4233 173.469 67.8955C173.741 67.1599 173.773 66.888 173.629 66.744C173.533 66.6481 173.421 66.5841 173.389 66.6321C173.357 66.6641 172.717 67.7356 171.998 69.0151C170.318 71.9418 168.719 74.2928 167.664 75.3644C167.216 75.8282 166.832 76.212 166.816 76.212C166.784 76.212 166.72 75.9881 166.672 75.7322C166.528 75.0445 166.144 75.1405 165.6 76.0041C164.897 77.1077 164.785 77.6035 164.321 81.6338C164.145 83.1051 164.033 83.505 162.514 87.3274L162.018 88.6068L162.002 92.2853C161.986 96.2036 161.842 97.1632 161.458 95.8518C161.154 94.8602 160.834 94.2844 160.563 94.2844C160.371 94.2844 160.323 94.5563 160.323 95.6758C160.323 97.0193 160.147 98.0429 159.203 102.361C158.723 104.536 158.723 106.919 159.187 108.359C159.363 108.934 159.523 109.462 159.523 109.542C159.523 109.622 159.203 109.638 158.803 109.59C158.1 109.494 158.1 109.494 158.244 109.878C158.324 110.086 158.579 110.55 158.803 110.901C159.043 111.237 159.331 111.861 159.459 112.293C159.907 113.764 160.611 114.612 163.393 117.027C164.001 117.571 164.593 118.242 164.785 118.642C165.169 119.426 165.217 120.593 164.897 121.473C164.705 121.985 164.625 122.033 164.081 122.033C163.505 122.033 163.441 122.081 163.297 122.593C163.058 123.472 161.282 125.119 159.763 125.903C158.004 126.799 156.916 127.135 156.196 126.991C155.877 126.927 154.677 126.831 153.526 126.783C151.095 126.655 150.615 126.463 148.248 124.736C137.196 116.675 132.798 113.86 128.576 112.133C125.121 110.726 124.738 110.678 119.572 110.726C115.813 110.773 114.886 110.726 114.166 110.518C113.686 110.39 113.302 110.198 113.302 110.134C113.302 110.054 113.542 109.35 113.846 108.55C115.11 105.24 115.701 102.681 115.701 100.506C115.701 99.4663 115.717 99.4343 116.149 99.3543C116.389 99.3223 118.02 98.9865 119.78 98.6346C124.946 97.595 131.327 96.5875 143.85 94.8442C150.167 93.9646 153.286 92.7811 153.286 91.2777C153.286 90.8619 153.206 90.7659 152.774 90.622C151.398 90.1902 149.543 89.9343 147.688 89.9343C145.385 89.9183 144.457 90.0462 139.531 91.0058C135.053 91.8855 132.127 92.3173 124.498 93.2449C117.317 94.1245 114.23 94.5243 112.151 94.8602C111.287 95.0041 110.504 95.0841 110.392 95.0361C110.264 94.9881 110.696 94.4604 111.479 93.6927C112.199 93.005 113.127 92.0614 113.542 91.5816L114.294 90.7179L114.198 89.1826C114.086 87.7912 114.118 87.5353 114.486 86.4477C114.71 85.792 114.902 85.0563 114.902 84.8164C114.902 84.2887 113.814 82.6573 111.783 80.1304C109.56 77.3636 106.201 73.5252 105.274 72.7095C104.298 71.8459 104.058 71.3501 103.323 68.8871C102.699 66.76 101.483 64.2011 98.7486 59.1792C97.8849 57.5959 96.9413 55.6287 96.6535 54.813C96.3016 53.7895 96.0137 53.2297 95.7259 53.0058C95.502 52.8299 94.9262 52.3981 94.4784 52.0622C94.0146 51.7104 92.959 50.6068 92.1434 49.6152C90.0642 47.1363 88.7688 46.1287 86.4977 45.2331C85.5541 44.8812 85.1543 44.8013 83.7629 44.8013H82.1156L81.7318 43.5858C81.2839 42.2263 80.9481 40.9469 80.1004 37.2684C79.2208 33.4141 78.2932 30.9511 77.0617 29.2398C76.8058 28.888 76.8218 28.872 77.5415 28.5201C78.4052 28.1043 78.4691 27.9604 77.7814 27.9444C77.1737 27.9284 76.5819 27.5605 76.438 27.1127C76.374 26.9208 76.358 26.7449 76.406 26.6969C76.438 26.6649 76.9018 26.8248 77.4136 27.0647C78.2772 27.4646 78.5331 27.4966 80.2764 27.5125H82.1955L82.2755 27.9763C82.3715 28.5681 82.7553 28.728 82.7553 28.2003C82.7553 27.9923 82.8513 27.6725 82.9792 27.4966C83.2031 27.2087 83.2351 27.2407 83.555 27.9923C83.9868 28.9999 83.9868 28.9999 84.2907 28.5681L84.5466 28.2162L85.1863 28.9519C85.858 29.7196 86.4498 29.9915 86.8176 29.6716C87.0095 29.5277 87.1055 29.5757 87.3454 29.9435C87.4893 30.1834 88.193 31.143 88.8967 32.0706C90.4001 34.0698 90.9439 35.1733 91.0398 36.4208C91.0718 36.9326 91.1518 37.3484 91.1838 37.3484C91.2318 37.3484 91.4397 37.2045 91.6636 37.0285C92.2073 36.5967 92.3833 36.6287 92.2553 37.1085C92.1753 37.4604 92.2393 37.5403 92.8951 37.8122C93.6467 38.1481 93.6947 38.212 93.9186 39.5875C94.0306 40.2112 94.0945 40.3072 94.5104 40.3871C95.422 40.579 95.6939 40.8669 96.4615 42.4023C97.2612 44.0176 97.773 44.4974 98.4927 44.3215C98.8126 44.2415 98.8445 44.2895 98.7806 44.6733C98.7166 45.1851 99.0685 45.5849 99.7721 45.7609L100.252 45.8728L99.9001 45.313C99.5163 44.7053 99.4363 44.2255 99.7082 44.2255C100.044 44.2255 100.796 44.7053 100.892 44.9772C100.972 45.1531 100.892 45.345 100.652 45.521C100.3 45.7928 100.3 45.7928 101.244 46.2407C102.139 46.6885 102.299 46.7045 104.346 46.7045C106.665 46.7045 107.673 46.4806 108.281 45.8088C108.44 45.6329 108.504 45.505 108.425 45.537C108.265 45.5849 108.185 45.473 108.185 45.1691C108.185 45.0412 108.425 45.0092 108.952 45.0732C109.88 45.1851 110.024 45.1051 110.152 44.4014C110.216 44.1136 110.6 43.4258 110.999 42.8981C111.703 41.9545 111.735 41.8745 111.671 41.0428C111.591 40.1952 111.559 40.1472 110.328 38.9957L109.064 37.8282L109.448 37.5083C109.752 37.2524 110.056 37.1885 111.047 37.1885H112.279L112.455 36.5008C112.567 36.1329 113.095 35.0774 113.638 34.1497C114.198 33.2221 114.774 32.0386 114.934 31.5109C115.558 29.5277 114.742 27.5445 112.903 26.5849C111.991 26.1211 110.088 26.0252 108.984 26.393C107.497 26.8888 106.281 28.3442 106.265 29.6396C106.265 30.1194 106.233 30.1674 105.914 30.0715C105.45 29.9275 104.826 29.5437 104.826 29.3838C104.826 29.3198 104.97 29.1758 105.146 29.0639C105.402 28.904 105.61 28.3922 105.434 28.3922C105.402 28.3922 104.522 28.2802 103.467 28.1523C102.427 28.0243 101.547 27.9124 101.531 27.9124C101.339 27.9124 100.988 27.3206 100.988 27.0327C100.988 26.489 100.46 26.2011 99.2604 26.0732C98.4127 25.9772 98.0609 25.8333 97.1812 25.2255C96.5895 24.8417 95.8858 24.4099 95.5979 24.2819C94.0945 23.6582 88.8008 22.8105 86.3858 22.7945C84.6585 22.7945 83.1552 23.1464 80.1484 24.2339C78.725 24.7457 77.1097 25.2575 76.5819 25.3694L75.6063 25.5614L75.1105 26.5689C74.6147 27.5605 74.2469 27.9284 73.5272 28.1523C72.7595 28.3762 73.1754 27.1447 74.6467 24.7297C75.4464 23.4183 75.4784 23.3383 75.4784 22.2028C75.4784 21.1792 75.5264 20.9713 75.9102 20.4915C76.6299 19.5959 77.8294 19.212 80.0205 19.196L81.8597 19.164L82.0836 18.5083C82.2595 17.9806 82.3875 17.8366 82.6754 17.8366C82.8673 17.8366 85.2982 18.0445 88.0491 18.3164C90.8159 18.5723 96.5575 19.0681 100.828 19.4359C108.377 20.0597 110.344 20.2836 116.501 21.1152C121.875 21.8509 126.881 21.8189 130.751 21.0353C132.127 20.7474 133.934 20.0437 133.934 19.7718C133.934 19.4839 127.968 17.8206 124.418 17.1329C119.364 16.1413 115.286 15.6775 104.906 14.8779C93.103 13.9822 90.544 13.7104 85.1543 12.8627C82.3555 12.4149 82.5954 12.5588 82.5954 11.2794C82.5954 9.99991 82.6114 9.99991 80.8361 9.99991C79.7486 9.99991 79.5407 10.0479 79.3967 10.3038ZM83.2031 76.34C83.7949 77.0437 83.8908 77.2196 83.6989 77.3476C83.1711 77.7154 82.4355 77.9553 81.236 78.1312C80.5163 78.2272 79.5887 78.4991 79.1248 78.723C78.5651 79.0109 78.1653 79.1068 77.8934 79.0269C77.6535 78.9629 76.9178 78.3871 76.2461 77.7314C75.5743 77.0757 74.7587 76.404 74.4228 76.26C74.087 76.1001 73.7991 75.9082 73.7991 75.8442C73.7991 75.5083 74.3908 75.5883 75.2705 76.0361C76.2461 76.5319 76.6779 76.6439 76.6779 76.404C76.6779 76.34 76.5979 76.196 76.486 76.0841C76.358 75.9561 76.31 75.3644 76.326 74.2928C76.374 72.8055 76.342 72.6615 75.9902 72.3097C75.7822 72.1178 75.5264 71.9099 75.3984 71.8619C75.1105 71.7659 75.3824 71.0622 76.0541 70.1346L76.502 69.5109L79.4927 72.5016C81.124 74.1489 82.8033 75.8762 83.2031 76.34ZM183.193 75.8282C182.969 76.6279 181.93 77.9393 181.914 77.4275C181.914 77.2516 182.169 76.6758 182.473 76.1161C182.777 75.5723 183.033 74.9806 183.033 74.8206C183.049 74.5487 183.049 74.5487 183.209 74.8206C183.337 75.0445 183.337 75.3164 183.193 75.8282ZM39.1577 81.4418C39.5575 82.6573 39.8934 84.9444 39.8934 86.3678C39.8934 88.143 39.6855 88.3189 37.2065 88.7508C36.3908 88.8947 35.4312 89.1506 35.0954 89.3265C34.7435 89.5024 34.4397 89.6464 34.4077 89.6464C34.3757 89.6464 34.4077 89.1346 34.4876 88.5269C34.7275 86.5757 35.2073 85.6001 37.8142 81.9216C38.294 81.2499 38.7259 80.6902 38.7898 80.6902C38.8538 80.6902 39.0137 81.026 39.1577 81.4418ZM34.2318 83.0412C34.0558 83.2171 33.9599 82.9772 34.0878 82.6733C34.1998 82.3854 34.2158 82.3854 34.2637 82.6573C34.2957 82.8173 34.2797 82.9932 34.2318 83.0412ZM84.9784 86.8955C85.1383 91.6775 85.1063 92.5412 84.7065 93.2769C84.3546 93.9326 83.7949 94.4124 83.587 94.2045C83.523 94.1565 83.427 92.925 83.3791 91.4696C83.2191 87.7272 83.0272 87.1035 82.0196 86.7676C80.9001 86.3998 78.9169 86.9435 78.5171 87.7432C78.1653 88.4149 78.2292 89.0706 78.757 90.2861C79.2368 91.3897 79.3328 91.9654 79.1088 92.3333C78.9169 92.6371 78.1653 91.9974 77.8614 91.2777C77.6695 90.7979 77.2216 86.7996 77.3656 86.6716C77.3816 86.6557 78.5171 86.4158 79.8765 86.1279C81.8117 85.744 84.9144 84.8644 84.9144 84.7045C84.9144 84.7045 84.9464 85.6801 84.9784 86.8955ZM179.467 89.3105C179.962 90.0462 179.978 91.5016 179.499 92.4772C179.323 92.861 179.115 93.1649 179.051 93.1649C178.891 93.1649 178.555 90.7659 178.555 89.5984C178.555 88.7988 178.603 88.6708 178.827 88.7188C178.987 88.7508 179.275 89.0067 179.467 89.3105ZM39.8934 90.638C39.8934 91.4056 39.4616 93.0849 39.0937 93.8046C38.6299 94.7003 37.8302 95.5799 37.2225 95.8198C36.7107 96.0437 35.3193 96.1237 34.9035 95.9637C34.7275 95.8998 34.6956 95.6599 34.7435 95.0201C34.7915 94.3324 34.7275 93.9646 34.3917 93.2449C34.1678 92.7331 33.9759 92.3013 33.9759 92.2693C33.9759 92.2533 34.5676 92.0454 35.3033 91.8215C36.023 91.5976 37.3025 91.1338 38.1341 90.7819C38.9658 90.4301 39.7015 90.1422 39.7814 90.1422C39.8454 90.1262 39.8934 90.3661 39.8934 90.638ZM26.9388 91.7255C27.1307 91.8535 27.1307 91.8855 26.8589 91.8855C26.6829 91.8855 26.427 91.8055 26.2991 91.7255C26.1072 91.5976 26.1072 91.5656 26.3791 91.5656C26.555 91.5656 26.8109 91.6456 26.9388 91.7255ZM106.393 101.034L106.921 101.242L106.553 101.801C105.786 102.921 104.042 103.832 101.835 104.248L101.308 104.344L101.931 103.113C102.571 101.849 103.179 101.146 103.866 100.858C104.362 100.65 105.69 100.73 106.393 101.034Z" fill="black"/>
    </g>
    <defs>
        <filter id="filter0_d" x="0" y="0" width="209.725" height="224.704" filterUnits="userSpaceOnUse" color-interpolation-filters="sRGB">
            <feFlood flood-opacity="0" result="BackgroundImageFix"/>
            <feColorMatrix in="SourceAlpha" type="matrix" values="0 0 0 0 0 0 0 0 0 0 0 0 0 0 0 0 0 0 127 0"/>
            <feOffset dx="10"/>
            <feGaussianBlur stdDeviation="5"/>
            <feColorMatrix type="matrix" values="0 0 0 0 0.0117647 0 0 0 0 0.301961 0 0 0 0 0.647059 0 0 0 1 0"/>
            <feBlend mode="normal" in2="BackgroundImageFix" result="effect1_dropShadow"/>
            <feBlend mode="normal" in="SourceGraphic" in2="effect1_dropShadow" result="shape"/>
        </filter>
    </defs>
</svg>
