<svg width="150" height="150" viewBox="0 0 150 150" fill="none" xmlns="http://www.w3.org/2000/svg">
    <path d="M75 150C116.421 150 150 116.421 150 75C150 33.5786 116.421 0 75 0C33.5786 0 0 33.5786 0 75C0 116.421 33.5786 150 75 150Z" fill="#1C75BC"/>
    <path d="M124.547 60.7964L114.985 90.7026C114.985 90.7026 109.125 105.609 95.1099 105.609H27.5161L32.3442 90.7026H93.563L103.219 60.7964H42.0474L46.7817 45.937H114C128.766 45.937 124.547 60.8433 124.547 60.8433V60.7964ZM29.9067 68.9058H66.1411L61.5005 82.7339H25.1724L29.9067 68.9058Z" fill="white"/>
</svg>
