<svg width="153" height="300" viewBox="0 0 153 300" fill="none" xmlns="http://www.w3.org/2000/svg">
    <g filter="url(#filter0_d)">
        <path d="M90.2899 11.7938C87.9492 14.2656 86.8992 15.7094 86.8992 16.4312C86.8992 17.0438 87.3149 17.8313 88.0586 18.6844C88.4524 19.1438 88.4742 19.275 88.2336 20.0188C87.9492 20.8281 87.993 20.9813 89.043 23.475C90.443 26.8 92.543 31.2188 93.4399 32.7063C93.8117 33.3406 94.0742 33.9531 94.0086 34.0625C93.943 34.1719 94.0524 34.3906 94.2274 34.5656C94.4024 34.7625 94.5555 35.0031 94.5555 35.1344C94.5555 35.2656 94.7524 35.4625 94.993 35.5938C95.2336 35.725 95.4305 36.0312 95.4305 36.2719C95.4305 36.5125 95.5836 36.7531 95.7586 36.8188C96.3492 37.0594 103.087 47.625 106.434 53.5531C108.752 57.6656 112.099 64.5781 112.143 65.3219C112.165 65.65 112.34 66.0875 112.559 66.3063C112.799 66.5688 112.887 66.875 112.799 67.225C112.712 67.5969 112.777 67.7937 113.018 67.8813C113.215 67.9469 113.368 68.2094 113.368 68.4281C113.368 68.6687 113.499 69.0844 113.674 69.3469C114.134 70.0469 115.271 74.9031 115.687 77.8125C116.102 80.7656 116.387 93.6062 116.059 94.0656C115.949 94.1969 115.884 94.8313 115.905 95.4656C115.927 96.1875 115.862 96.6906 115.665 96.8438C115.337 97.1062 115.446 99.4906 115.818 100.256C116.124 100.913 115.971 101.984 115.555 101.941C115.205 101.897 111.574 101.153 89.9617 96.625C57.3461 89.8 59.7086 90.325 59.2492 89.7125C59.0086 89.3844 58.4399 88.8594 57.9586 88.5094L57.1055 87.8969L58.5055 88.0281C59.8836 88.1375 59.9274 88.1375 60.4961 87.4375C60.8242 87.0656 61.0867 86.5625 61.0867 86.3219C61.0867 85.8188 61.4149 85.0969 61.9399 84.5063C62.3336 84.0688 62.4211 83.5 62.3992 81.7937C62.3774 80.3938 62.5961 80.0875 63.7336 79.8906C64.2149 79.8031 64.6742 79.5844 64.7399 79.4094C64.8055 79.2125 64.3899 78.1188 63.8211 76.9375C63.0555 75.3844 62.793 74.5969 62.8367 74.0719C63.0555 71.8406 62.9242 70.9219 62.1149 69.325C61.6774 68.45 61.1086 67.4219 60.8461 67.0719C60.6055 66.7219 60.4524 66.2844 60.518 66.1094C60.5836 65.9344 62.4867 62.7625 64.7617 59.0656C67.0367 55.3688 72.2867 46.575 76.3992 39.5312C84.668 25.4 84.2086 26.2094 83.9024 26.5156C83.7711 26.625 78.3899 35.5938 71.9149 46.4L60.168 66.0656L59.7524 65.5406C59.5336 65.2563 59.3367 64.7969 59.3367 64.5125C59.3367 63.025 57.3242 60.9688 54.7867 59.8531C53.9774 59.5031 52.4024 58.7375 51.2867 58.1687C49.2742 57.1625 49.2086 57.1406 47.3492 57.1844C46.2992 57.2063 44.8992 57.3375 44.243 57.4469C43.2149 57.6219 43.018 57.6 42.8211 57.2937C42.2742 56.4187 41.5961 55.9594 40.4586 55.7188C39.3649 55.4563 39.168 55.4781 38.643 55.8063C38.2492 56.0906 37.8555 56.1562 37.3305 56.0469C36.8274 55.9594 36.4336 56.025 36.1055 56.2656C35.8211 56.4625 35.143 56.5938 34.4649 56.5938C33.393 56.5938 33.2836 56.6375 32.5399 57.5344L31.7524 58.475L30.4399 58.1469L29.1274 57.7969L27.7055 58.5625C26.0649 59.4375 24.9492 60.5969 24.5992 61.8219C24.2274 62.9812 24.2711 63.3094 24.8617 65.0813C25.3649 66.5688 25.8024 68.5156 25.693 68.9094C25.5617 69.4125 26.1742 70.8344 26.7211 71.3156C27.2024 71.7094 27.3117 71.9062 27.1367 72.2125C27.0274 72.4313 26.9836 72.8469 27.0711 73.175C27.1586 73.5031 27.2242 74.4656 27.2461 75.3406C27.2899 76.85 27.3336 76.9594 28.1211 77.7469C28.5586 78.2281 28.9305 78.7312 28.9305 78.8844C28.9305 79.0375 29.2586 79.475 29.6742 79.8469C30.2649 80.4156 30.418 80.7438 30.5055 81.6844C30.6149 82.8 30.6149 82.8 29.9149 82.9313C28.843 83.15 26.568 83.0406 25.3867 82.7344C24.7961 82.5594 23.9649 82.1219 23.5274 81.75C22.8055 81.1156 22.6524 81.0719 21.7336 81.2031C20.4211 81.4 20.3555 81.4656 20.5086 82.1656C20.6399 82.7563 20.5961 82.7781 19.2399 83.0188C18.4742 83.1719 17.4024 83.2812 16.8555 83.2812C15.5211 83.2812 13.1586 82.4719 12.6336 81.8156C12.3055 81.4219 11.9117 81.2688 10.9055 81.1594L9.63674 81.0281L9.70236 82.2094L9.78986 83.3906L7.25236 83.4563C4.84611 83.5 4.69299 83.4781 3.88361 82.9313C3.16174 82.45 2.87736 82.3844 2.04611 82.4938C1.52111 82.5594 1.01799 82.6687 0.974237 82.7344C0.908612 82.8 1.01799 83.6531 1.23674 84.6594C1.49924 85.8625 1.82736 86.7594 2.28674 87.3938C2.63674 87.9187 2.92111 88.3781 2.87736 88.4C2.83361 88.4438 2.26486 88.7281 1.65236 89.0563C0.0117367 89.8656 -0.163263 90.2375 0.0992368 92.25C0.361737 94.175 0.777362 95.0719 2.08986 96.5375C2.98674 97.5437 3.29299 97.6969 6.04924 98.6813C7.68986 99.2719 9.02424 99.8625 9.02424 99.9938C9.02424 100.913 9.54924 105.747 9.92111 108.109C10.6649 113.119 12.0867 118.916 12.7867 119.747C12.918 119.9 13.4649 120.031 14.0336 120.031C15.6086 120.031 20.8805 119.397 21.143 119.178C21.2742 119.069 22.2149 118.762 23.243 118.478C24.2711 118.216 26.1305 117.603 27.3992 117.144C28.668 116.663 30.1336 116.137 30.6805 115.984C31.6867 115.678 36.9805 114.562 37.4399 114.562C37.8117 114.562 37.7242 114.956 37.2211 115.656C36.6742 116.378 36.6742 116.444 37.768 120.469C38.2055 122.088 38.5555 123.903 38.5555 124.472C38.5555 125.719 38.8617 126.375 39.4086 126.375C39.7149 126.375 40.0211 127.031 40.8305 129.481C41.8149 132.391 41.8805 132.653 41.7274 134.075C41.5961 135.497 41.618 135.606 42.0555 135.716C42.5586 135.847 42.5586 135.978 41.793 139.391C41.2461 141.775 40.8305 142.628 39.6711 143.766C39.0367 144.356 38.7742 144.794 38.818 145.188C38.8399 145.494 38.5774 146.259 38.2711 146.872C37.7024 147.988 37.6367 148.031 36.7617 148.031C34.8586 148.031 33.0211 148.491 32.4305 149.125C31.0305 150.634 29.7617 153.5 30.5055 153.5C30.6805 153.5 30.7024 154.134 30.6149 155.819C30.418 158.925 30.768 159.625 32.4742 159.625C32.9992 159.625 33.1086 159.713 33.043 159.997C32.9774 160.216 31.818 163.322 30.4617 166.931C28.5149 172.116 28.0336 173.603 28.143 174.15C28.2305 174.522 28.8867 176.119 29.6086 177.716L30.943 180.581L30.3742 184.934C28.9961 195.697 28.5149 201.516 28.2742 210.156C28.143 214.356 27.9461 217.769 27.7492 218.884C27.5742 219.891 27.3555 221.509 27.268 222.45C27.1805 223.391 27.0492 224.156 26.9617 224.156C26.8742 224.156 26.6336 223.959 26.4149 223.719C26.1961 223.478 25.9555 223.281 25.868 223.281C25.518 223.281 23.8992 225.644 23.8992 226.147C23.8992 226.431 24.1617 227.066 24.4899 227.525C24.993 228.291 25.0367 228.466 24.7961 229.056C24.6649 229.428 24.0742 231.069 23.5274 232.688C22.2586 236.341 22.193 237.347 22.6742 244.719C22.8492 247.672 23.068 251.609 23.1555 253.469L23.3086 256.881L22.0617 259.922C21.3836 261.584 20.8367 263.116 20.8367 263.291C20.8367 263.488 21.0992 263.881 21.3836 264.166C22.1274 264.866 22.0836 265.631 21.1649 267.753C20.2461 269.853 20.2242 270.225 20.9461 270.794C21.2524 271.034 21.493 271.319 21.493 271.428C21.493 272.172 19.6555 276.372 18.8899 277.356L18.0149 278.516L18.6492 278.691L19.3055 278.844L18.868 279.894C18.6492 280.463 18.2117 281.512 17.9055 282.234C17.4461 283.306 17.3367 283.919 17.3367 285.472C17.3367 287.244 17.3805 287.441 17.8836 287.9C19.0211 288.95 23.3961 289.869 27.4211 289.891C30.0242 289.891 30.1992 289.869 31.0305 289.322C31.5992 288.95 32.1461 288.294 32.5399 287.528C33.1524 286.369 33.1742 286.259 32.9117 285.253C32.7586 284.684 32.0149 282.912 31.2274 281.316C30.4617 279.719 29.9367 278.406 30.068 278.363C30.1992 278.319 30.1555 277.816 29.9586 276.984C29.2805 274.359 29.2805 273.769 29.893 272.544C30.1992 271.931 30.4617 271.275 30.4617 271.078C30.4617 270.903 30.1117 270.356 29.6524 269.875L28.8649 268.978L29.4336 268.388C30.1336 267.644 30.1555 267.272 29.5867 265.763C28.843 263.837 28.843 263.947 31.3586 255.328C32.0586 252.922 32.9117 250.253 33.218 249.422C34.7492 245.353 35.2961 243.734 35.7117 242.138C36.2586 239.928 37.0242 235.466 37.0242 234.328C37.0242 232.95 37.2211 232.534 37.8992 232.403C38.7086 232.228 39.2117 230.959 39.2117 229.1V227.722L41.093 227.35C43.5211 226.869 43.9367 226.672 44.3524 225.775C44.5492 225.359 44.8992 224.988 45.1836 224.922C45.4461 224.878 46.343 224.659 47.1742 224.484C48.0055 224.309 48.7274 224.178 48.7711 224.244C48.8149 224.287 48.9242 226.694 48.9899 229.581C49.1211 234.678 49.143 234.853 49.5805 234.963C50.5867 235.225 56.3836 233.956 58.0024 233.125C58.4399 232.906 59.2055 232.425 59.7305 232.053C60.4961 231.484 60.6492 231.244 60.6492 230.653C60.6492 230.106 60.7805 229.866 61.2836 229.559C61.8305 229.231 61.9399 229.231 62.1805 229.516C62.3336 229.691 62.5742 229.844 62.7274 229.844C63.0774 229.844 64.8274 228.925 66.5117 227.831C67.2555 227.35 67.9117 226.978 67.9774 227.022C68.0211 227.066 67.9555 228.597 67.8242 230.391C67.4742 235.663 67.6055 236.953 68.8086 239.862C69.9242 242.553 73.5774 249.969 75.3492 253.075C76.4211 255 76.443 255.088 76.3336 256.378C76.1805 257.975 76.3555 258.369 77.4711 258.916C78.8055 259.616 78.893 259.791 78.368 261.322C77.7555 263.138 77.7992 263.706 78.6086 264.538L79.2867 265.238L79.0024 266.397C78.718 267.513 78.718 267.556 79.243 267.95L79.8117 268.366L79.4836 270.859C79.1992 273.156 79.1992 273.441 79.5274 274.141C79.9867 275.103 81.3867 276.022 82.568 276.153C83.093 276.219 85.193 276 87.2711 275.694C91.7774 275.016 93.1555 274.994 96.743 275.562C99.7399 276.044 102.452 276.131 103.109 275.781C103.437 275.584 103.524 275.3 103.524 274.272C103.524 271.888 102.977 271.188 100.834 270.881C99.4336 270.663 97.7055 270.05 95.4086 268.978C93.8117 268.212 93.4836 267.972 93.3742 267.469C93.2867 267.009 92.9367 266.659 91.9961 266.091C91.2961 265.653 90.0055 264.8 89.1305 264.188C87.643 263.138 87.5555 263.028 87.9274 262.766C88.2992 262.481 88.2992 262.416 87.9711 261.847C87.7524 261.453 87.468 261.234 87.1617 261.256C86.6586 261.278 86.6805 261.322 85.6086 257.581C85.2149 256.159 85.2149 256.138 85.6086 256.028C85.8711 255.963 86.0242 255.722 86.0242 255.372C86.0242 254.716 85.4774 254.103 85.0399 254.256C84.8211 254.344 84.668 254.103 84.493 253.425C84.3617 252.922 84.1649 252.134 84.0336 251.719C83.7711 250.691 83.7711 250.691 84.2742 250.559C84.5586 250.494 84.7117 250.253 84.7117 249.903C84.7117 249.225 84.1649 248.634 83.7274 248.788C83.3336 248.941 83.2899 248.831 82.7649 246.359L82.3711 244.391L82.8305 244.281C83.7055 244.041 83.443 242.225 82.568 242.356C82.2836 242.4 82.1524 242.072 81.9555 240.891C81.5836 238.791 81.5836 238.003 81.9774 237.85C82.5024 237.653 82.4149 236.384 81.868 236.253C81.3867 236.122 81.2992 235.859 81.1024 233.781C81.0367 232.994 80.9055 231.987 80.8399 231.528C80.7524 230.872 80.7961 230.719 81.0805 230.719C81.4524 230.719 81.7805 229.822 81.5617 229.297C81.4961 229.122 81.2555 228.969 81.0367 228.969C80.7086 228.969 80.5774 228.772 80.468 228.159C80.293 226.978 80.3149 226.737 80.5774 226.913C81.0149 227.175 81.2117 226.497 81.2117 224.747C81.2117 222.713 80.8399 221.684 79.9211 221.203C79.1117 220.787 79.068 220.372 79.7024 218.578C80.3586 216.763 80.2055 213.787 79.3524 211.578C78.6961 209.894 78.543 208.888 78.0399 202.938C77.6899 198.759 77.5149 196.966 76.9461 192.131L76.618 189.287L78.1055 187.319C80.4242 184.234 82.4805 181.85 82.9617 181.675C83.2024 181.588 83.3992 181.369 83.3992 181.194C83.3992 181.041 83.5961 180.844 83.8367 180.778C84.0774 180.713 84.2742 180.516 84.2742 180.319C84.2742 179.881 85.6742 178.372 90.8149 173.319C95.0586 169.119 101.293 162.556 103.655 159.756L104.946 158.247L105.055 159.8C105.165 161.506 105.384 161.878 106.171 161.769C106.63 161.703 106.718 161.55 106.849 160.391C107.243 157.219 108.162 154.594 108.884 154.594C109.08 154.594 109.212 154.397 109.212 154.069C109.212 153.784 109.365 153.5 109.54 153.413C109.715 153.347 109.868 153.106 109.868 152.866C109.868 152.625 110.065 152.319 110.305 152.188C110.546 152.056 110.743 151.794 110.743 151.575C110.743 151.378 111.246 150.459 111.859 149.562C114.899 145.034 117.065 138.909 118.837 129.766C119.209 127.841 119.624 126.047 119.755 125.784C119.887 125.544 119.909 125.216 119.821 125.084C119.734 124.931 119.799 124.691 119.93 124.516C120.062 124.341 120.127 124.1 120.04 123.969C119.974 123.859 120.062 123.684 120.237 123.619C120.434 123.553 120.587 123.291 120.587 123.05C120.587 122.481 120.937 121.847 121.834 120.797C122.534 119.966 122.555 119.922 122.162 119.55C121.943 119.309 121.418 119.134 120.959 119.113C120.127 119.091 120.062 118.981 120.302 118.106C120.39 117.734 120.543 117.625 120.827 117.691C121.462 117.866 122.162 117.231 122.074 116.575C122.03 116.181 122.162 115.853 122.512 115.591C122.84 115.306 122.993 114.956 122.993 114.453C122.993 114.038 123.102 113.644 123.212 113.578C123.54 113.381 123.474 112.244 123.102 111.938C122.862 111.741 122.84 111.588 123.015 111.369C123.409 110.887 123.168 109.466 122.621 109.203C122.184 108.963 122.227 108.941 123.212 108.678C123.824 108.525 124.305 108.328 124.305 108.241C124.305 108.175 123.627 107.409 122.774 106.578C121.943 105.747 121.243 104.959 121.243 104.85C121.243 104.588 123.059 104.85 123.934 105.244C124.327 105.419 124.94 105.616 125.29 105.703C125.662 105.769 126.209 106.075 126.515 106.381L127.084 106.906L129.796 106.688C131.284 106.556 132.662 106.425 132.837 106.403C133.012 106.381 131.94 105.659 130.474 104.784L127.805 103.209L126.821 103.647C126.274 103.887 125.749 104.041 125.662 103.975C125.574 103.931 124.962 103.822 124.305 103.734C121.768 103.45 121.571 103.363 121.571 102.531C121.571 101.809 121.615 101.766 122.402 101.7C122.862 101.656 123.299 101.481 123.365 101.328C123.409 101.153 123.168 100.409 122.796 99.6656C122.359 98.8125 122.162 98.1344 122.249 97.8281C122.315 97.5437 122.293 97.2812 122.162 97.2156C122.052 97.1281 121.943 94.9406 121.921 92.3156C121.834 81.5094 121.09 75.8219 119.099 70.8125C118.552 69.4344 118.115 68.0781 118.137 67.8156C118.159 67.575 118.027 67.2906 117.852 67.225C117.677 67.1594 117.524 66.875 117.524 66.5688C117.524 66.2625 117.437 65.9563 117.305 65.8906C117.196 65.825 117.087 65.5625 117.087 65.3219C117.087 65.0813 116.89 64.6219 116.649 64.2937C116.059 63.4844 115.752 61.2094 115.949 59.2844C116.146 57.6 115.971 56.8125 115.446 56.8125C114.855 56.8125 114.287 57.6219 114.134 58.7156C113.893 60.4219 113.805 60.5094 113.324 59.5469C112.077 57.0969 108.14 50.8406 103.371 43.7312C100.44 39.3781 98.0555 35.6594 98.0555 35.4844C98.0555 35.3094 97.9461 35.1562 97.8148 35.1562C97.6617 35.1562 97.618 34.9594 97.6836 34.6969C97.7711 34.3688 97.6836 34.1938 97.3773 34.1281C97.1149 34.0625 96.9617 33.8219 96.9617 33.5156C96.9617 33.2313 96.743 32.8813 96.4367 32.6844C95.8242 32.2688 91.6024 23.9125 90.7055 21.3313C89.568 17.9844 90.3336 14.6812 92.9149 11.9906C93.5711 11.2906 94.118 10.6125 94.118 10.5031C94.118 10.1969 93.593 10 92.6961 10C92.0836 10 91.7336 10.2406 90.2899 11.7938ZM34.1367 77.3969C34.7492 77.6156 34.8149 77.725 35.0555 79.1906C35.4711 81.8594 35.668 82.0781 35.6899 79.8906L35.7117 77.9438L36.6524 78.8188C38.5555 80.6125 39.168 81.05 40.3274 81.2906C42.3836 81.75 42.6461 81.925 42.8867 82.8438L43.0836 83.675L42.3617 83.325C41.9461 83.15 41.618 82.8656 41.618 82.7125C41.618 82.1219 39.9992 81.8813 38.1836 82.2094C37.243 82.3844 36.3242 82.5156 36.1492 82.5156C35.9742 82.5156 35.7774 82.5813 35.7117 82.6469C35.5805 82.8438 31.4899 83.7188 31.3586 83.6094C31.3149 83.5656 31.2274 82.8219 31.1617 81.9688C31.0524 80.1969 31.3586 79.8906 31.7524 81.4219C31.8836 81.9688 32.0586 82.4062 32.1242 82.4062C32.3649 82.4062 31.9711 80.1313 31.643 79.6062C31.3367 79.1469 31.3586 79.125 31.8399 79.125C32.6492 79.125 33.3055 78.5344 33.3055 77.7906C33.3055 77.4406 33.3492 77.1562 33.393 77.1562C33.4149 77.1562 33.7649 77.2656 34.1367 77.3969ZM32.6711 89.625C33.1961 89.8656 34.0711 90.0625 34.618 90.0625C35.2961 90.0625 36.018 90.2812 36.9149 90.7625C37.9649 91.3094 38.5555 91.4625 39.9336 91.55C40.8524 91.6156 41.618 91.7031 41.618 91.7906C41.618 91.8562 41.3117 92.0969 40.9617 92.2937C40.4586 92.5781 40.3055 92.8188 40.3055 93.3C40.3055 93.6938 40.1742 94 39.9555 94.0875C39.693 94.1969 39.6274 94.4594 39.693 95.1813L39.7586 96.1438L38.8836 96.2969C38.4024 96.3625 37.7242 96.5594 37.418 96.7125C36.8711 96.9969 36.6961 96.975 35.2305 96.2531C33.2399 95.2906 30.1117 94.7219 28.9305 95.0938C28.2742 95.2906 27.618 95.2031 24.6649 94.5906L21.1649 93.825L22.193 93.3875C22.8274 93.1031 23.3305 92.6875 23.5274 92.3156C23.768 91.8562 24.293 91.5063 25.518 91.0031C26.4367 90.6094 27.3555 90.3688 27.618 90.4344C28.1211 90.5656 31.5555 89.6469 31.5555 89.3625C31.5555 89.1219 31.5992 89.1219 32.6711 89.625ZM87.6649 97.5C102.584 100.65 115.009 103.253 115.293 103.341C116.08 103.538 115.927 104.391 114.987 105.025C114.549 105.309 114.068 105.506 113.937 105.463C113.784 105.397 113.062 105.659 112.318 106.031C110.787 106.797 110.634 106.797 109.54 106.359C109.102 106.163 108.271 106.031 107.724 106.053C106.893 106.097 106.477 105.944 105.515 105.353C104.53 104.741 104.137 104.609 102.999 104.609C101.774 104.588 101.49 104.5 100.221 103.647C98.9086 102.75 98.7555 102.706 97.6617 102.816C97.0274 102.881 96.1524 103.144 95.7367 103.384C94.9274 103.866 94.0961 103.822 93.4617 103.297C93.2867 103.144 92.6961 102.881 92.1492 102.75C91.6242 102.597 90.7055 102.247 90.1367 101.963C88.9555 101.372 88.6055 101.328 87.1617 101.7C86.418 101.875 85.8711 102.247 85.0836 103.034C84.1211 104.019 83.9461 104.106 82.7649 104.216C81.4961 104.347 81.4524 104.325 80.7742 103.538C80.0086 102.684 79.4617 102.488 76.6836 102.072C75.4805 101.897 74.8024 101.875 74.6055 102.028C74.4086 102.181 73.5336 102.072 71.7399 101.678L69.1805 101.109L68.9617 100.3C68.743 99.5563 68.6555 99.4906 67.5836 99.25C66.9711 99.1188 65.768 98.9656 64.9149 98.9C62.6617 98.7469 61.9617 98.5938 61.9617 98.3313C61.9617 98.2 62.268 97.6094 62.6399 97.0188C63.4492 95.75 63.3617 95.2906 62.0492 94.3063L61.2617 93.6938L58.9211 94.2844C57.6524 94.6125 56.2961 94.875 55.9024 94.875C55.268 94.875 55.2024 94.8094 55.0711 93.9781C54.8961 92.9719 55.1149 92.7094 56.0555 92.6875C56.3617 92.6656 57.3024 92.425 58.1336 92.1406C58.9867 91.8562 59.8617 91.6594 60.1024 91.7031C60.343 91.7469 72.7461 94.35 87.6649 97.5ZM43.7617 94C44.593 94 44.6805 94.0437 44.6805 94.5469C44.6805 95.2031 44.6586 95.2031 43.5867 94.6562C43.1055 94.4156 42.5805 94.2188 42.4055 94.2188C42.2305 94.2188 42.0117 94.1094 41.9242 93.9563C41.8149 93.7812 41.9242 93.7594 42.2961 93.8469C42.5805 93.9344 43.2367 94 43.7617 94ZM83.5305 114.125C83.9242 114.256 84.3617 114.672 84.6024 115.131C85.0617 115.984 86.0242 116.772 86.6149 116.794C89.0211 116.816 92.2805 116.291 93.1336 115.744C93.6367 115.416 93.7024 115.438 94.3805 115.941C95.3867 116.684 95.9336 116.772 97.3555 116.378C99.2586 115.853 100.702 115.613 101.774 115.634C102.321 115.634 103.284 115.547 103.94 115.438C105.012 115.241 105.143 115.262 105.449 115.678C105.734 116.072 105.952 116.116 107.659 116.072C109.321 116.05 109.737 116.116 111.224 116.728C112.143 117.1 113.193 117.406 113.543 117.406C113.915 117.406 114.352 117.472 114.549 117.538C114.987 117.713 115.009 118.894 114.571 119.463C114.396 119.703 114.243 120.141 114.243 120.447C114.243 120.753 114.09 121.3 113.915 121.65C113.674 122.088 113.652 122.372 113.805 122.525C114.112 122.831 114.09 123.597 113.762 123.925C113.543 124.144 113.543 124.253 113.784 124.406C114.046 124.559 114.046 124.669 113.849 124.909C113.696 125.084 113.63 125.369 113.718 125.566C113.98 126.288 112.165 135.038 110.765 139.631C109.409 144.116 107.199 149.213 106.477 149.497C106.302 149.562 106.149 149.781 106.149 150.022C106.149 150.241 105.952 150.525 105.69 150.656C105.427 150.809 105.296 151.05 105.362 151.225C105.427 151.422 105.252 151.772 104.946 152.056C104.64 152.341 104.399 152.691 104.399 152.822C104.399 153.566 99.7836 159.625 95.3211 164.766C91.668 168.944 83.3992 177.606 82.918 177.738C82.7211 177.781 82.4805 178 82.4149 178.219C82.3492 178.416 82.043 178.7 81.7367 178.853C81.4305 178.984 81.2555 179.203 81.3211 179.312C81.3867 179.444 81.2992 179.531 81.1024 179.531C80.9274 179.531 80.6649 179.794 80.5555 180.1C80.4242 180.406 79.8117 181.281 79.1774 182.025C78.5649 182.769 77.6461 183.95 77.1649 184.628C76.2024 185.984 75.9617 186.138 75.9617 185.372C75.9617 184.234 74.1461 176.578 72.6805 171.547C72.4399 170.716 72.243 169.709 72.243 169.316C72.243 168.769 70.668 163.388 69.2899 159.253C69.2461 159.122 69.618 158.881 70.1211 158.706C70.9524 158.444 71.0399 158.334 71.193 157.547C71.2805 157.066 71.3461 156.016 71.3461 155.206C71.368 153.938 71.3024 153.697 70.9305 153.5C70.6899 153.369 70.4055 153.325 70.2961 153.391C70.1867 153.456 70.0336 153.084 69.9461 152.581C69.8586 152.056 69.7055 151.291 69.5742 150.853C69.3992 150.219 69.4211 149.956 69.7274 149.497C70.0336 149.038 70.0336 148.797 69.8367 148.097C69.7055 147.637 69.4867 144.619 69.3774 141.359C69.2461 138.122 69.1149 135.431 69.0711 135.387C69.0274 135.322 69.2242 135.103 69.5086 134.863C69.968 134.491 70.0336 134.316 69.9242 133.506C69.8149 132.85 70.0117 131.581 70.6242 129.066C71.3024 126.134 71.4992 125.566 71.8055 125.653C72.4617 125.828 72.7242 125.172 72.6367 123.531C72.6149 122.7 72.6149 122.022 72.6805 122.066C72.7461 122.088 73.1617 122.306 73.6211 122.547C74.0586 122.766 74.4305 123.028 74.4305 123.137C74.4305 123.4 77.4274 124.844 78.018 124.844C79.1336 124.844 81.2336 121.606 81.9774 118.741C82.1524 117.997 82.3711 116.619 82.4586 115.656C82.5242 114.694 82.6555 113.906 82.743 113.906C82.8305 113.906 83.1805 114.016 83.5305 114.125ZM68.8524 212.891C69.1805 214.116 69.3774 218.578 69.093 218.841C68.743 219.191 68.5461 218.403 68.4367 216.128C68.3492 214.706 68.2399 213 68.1742 212.344C68.043 210.812 68.3711 211.097 68.8524 212.891ZM37.6805 225.578C37.6805 226.737 37.6149 227 37.3305 227C37.1117 227 37.0242 226.869 37.1117 226.672C37.1774 226.497 37.2867 225.863 37.3742 225.25C37.4617 224.659 37.5492 224.156 37.593 224.156C37.6367 224.156 37.6805 224.791 37.6805 225.578Z" fill="black"/>
    </g>
    <defs>
        <filter id="filter0_d" x="0" y="0" width="152.855" height="299.891" filterUnits="userSpaceOnUse" color-interpolation-filters="sRGB">
            <feFlood flood-opacity="0" result="BackgroundImageFix"/>
            <feColorMatrix in="SourceAlpha" type="matrix" values="0 0 0 0 0 0 0 0 0 0 0 0 0 0 0 0 0 0 127 0"/>
            <feOffset dx="10"/>
            <feGaussianBlur stdDeviation="5"/>
            <feColorMatrix type="matrix" values="0 0 0 0 0.109804 0 0 0 0 0.458824 0 0 0 0 0.737255 0 0 0 1 0"/>
            <feBlend mode="normal" in2="BackgroundImageFix" result="effect1_dropShadow"/>
            <feBlend mode="normal" in="SourceGraphic" in2="effect1_dropShadow" result="shape"/>
        </filter>
    </defs>
</svg>
