<svg width="200" height="101" viewBox="0 0 200 101" fill="none" xmlns="http://www.w3.org/2000/svg">
<path d="M173.937 0.749574C173.622 1.16987 173.079 1.92291 172.694 2.44829C172.238 3.06123 172.011 3.56909 172.011 3.93686C172.011 4.23457 171.853 4.74243 171.66 5.04015C171.468 5.35537 171.363 5.74065 171.415 5.88075C171.555 6.21349 171.17 6.70384 170.907 6.54623C170.802 6.47618 170.767 6.54623 170.82 6.70384C170.89 6.84394 170.697 7.43937 170.435 8.03479C170.154 8.61271 169.331 10.5216 168.613 12.2903C166.214 18.1921 165.146 20.7664 164.831 21.4669C164.655 21.8522 163.517 25.7925 162.291 30.2232C159.507 40.3454 159.419 40.6431 159.227 40.6431C159.051 40.6431 158.736 40.3454 158.263 39.6975C158.071 39.4348 157.773 39.0495 157.58 38.8394C157.405 38.6292 157.073 38.2089 156.845 37.9112C156.022 36.8604 152.449 36.0198 151.346 36.6153C151.101 36.7378 150.786 36.7554 150.383 36.6328C149.857 36.4927 149.735 36.5102 149.525 36.8254C149.314 37.1231 149.139 37.1757 148.579 37.0706C147.984 36.983 147.878 37.0181 147.791 37.3158C147.633 37.9287 146.88 37.7711 146.46 37.0356C145.952 36.1599 145.549 36.3 145.217 37.4384C145.076 37.9812 144.849 38.384 144.674 38.4191C144.183 38.5416 144.096 39.8726 144.499 40.6957C144.744 41.186 144.796 41.4837 144.674 41.6238C144.586 41.7289 144.551 41.9391 144.621 42.0967C144.674 42.2368 144.516 42.7797 144.271 43.3051C144.026 43.8129 143.798 44.4609 143.763 44.7236C143.693 45.354 143.395 45.5467 142.415 45.5467C140.908 45.5467 140.891 46.2296 142.344 46.8776C142.852 47.1053 143.36 47.438 143.465 47.6482C143.57 47.8408 143.781 47.9984 143.938 47.9984C144.148 47.9984 144.183 48.121 144.113 48.5063C144.061 48.769 144.078 49.0667 144.183 49.1718C144.393 49.3819 143.973 51.5009 143.605 52.0613C143.43 52.324 143.343 52.8669 143.36 53.6024L143.378 54.7407L143.956 54.6882C144.446 54.6357 144.639 54.7407 145.182 55.3187C145.689 55.8791 146.005 56.0367 146.653 56.1242L147.476 56.2468L147.581 57.245C147.721 58.541 148.001 59.7668 148.211 60.0295C148.316 60.1346 148.702 60.2747 149.087 60.3448L149.77 60.4673L149.752 61.7107C149.735 62.3937 149.647 63.1117 149.56 63.3219C149.472 63.5145 148.859 64.0399 148.194 64.4952C147.003 65.3358 147.003 65.3358 146.495 66.8594L145.987 68.4005L144.569 69.1361C143.43 69.749 142.975 70.0992 142.204 71.0624C141.364 72.1132 141.154 72.516 140.593 74.3548C140.225 75.5106 139.753 76.8416 139.525 77.3319C139.297 77.8048 138.982 78.6279 138.807 79.1182C138.632 79.6261 138.404 80.0464 138.282 80.0464C138.106 80.0464 138.071 80.8344 138.124 83.4088C138.212 88.1197 138.194 88.0146 138.789 87.9796C139.455 87.927 140.331 87.244 141.206 86.0707C142.047 84.9849 142.029 84.4946 141.189 83.8641C140.523 83.3913 140.488 82.6207 141.084 81.9377C141.399 81.5525 141.504 81.1672 141.591 80.0989C141.767 77.8573 142.642 76.0885 144.551 74.0571C145.847 72.6911 147.073 71.9206 147.23 72.3759C147.581 73.4967 148.054 75.8259 148.141 76.8941C148.264 78.6279 148.684 79.3809 149.84 79.9588C150.54 80.3091 150.978 80.3966 152.064 80.3966C153.342 80.3966 153.447 80.4317 154.13 80.9921C154.533 81.3248 155.006 81.6575 155.199 81.7101C155.444 81.7801 155.549 81.9728 155.549 82.3055C155.549 83.2862 154.446 87.6818 153.955 88.645L153.465 89.6257L151.398 90.2912C148.141 91.342 147.248 91.7973 146.863 92.5854C146.547 93.2508 146.495 93.2683 145.392 93.3909C142.66 93.6886 142.047 93.8813 141.714 94.4942C141.609 94.6869 141.014 95.1772 140.383 95.5975L139.262 96.333V97.2787C139.262 98.7147 139.928 99.8706 140.978 100.291C142.064 100.729 147.458 100.799 149.647 100.413C150.943 100.186 151.171 100.186 152.064 100.448C153.815 100.974 155.899 100.554 160.803 98.6797C161.135 98.5571 161.871 98.4521 162.414 98.4345C162.974 98.4345 163.832 98.2769 164.34 98.1018C166.232 97.4013 167.685 97.2087 172.974 96.946C175.198 96.8234 175.828 96.7008 177.089 96.0704C177.597 95.8077 178.385 95.6325 179.278 95.545C180.697 95.4224 184.059 94.6869 184.707 94.3716C184.9 94.2666 185.268 93.9864 185.53 93.7587C186.003 93.3034 188.192 92.6554 189.261 92.6554C189.558 92.6554 189.979 92.5503 190.206 92.4277C190.557 92.2526 191.397 91.0443 191.747 90.2037C191.8 90.0636 191.958 89.8184 192.08 89.6783C192.273 89.4331 192.22 89.2229 191.73 88.2422C191.415 87.5943 191.099 86.9288 191.064 86.7362C190.872 85.9831 190.119 85.738 188.175 85.7555L186.371 85.773V85.055C186.371 84.2844 186.879 83.1636 187.86 81.8327C188.367 81.1322 188.595 80.9921 189.891 80.5367C190.732 80.2565 191.555 80.0814 191.8 80.1339C192.413 80.2565 193.376 79.6436 193.376 79.1182C193.376 78.8905 193.481 78.5578 193.621 78.3827C193.831 78.085 193.936 78.0675 194.269 78.2426C194.497 78.3652 194.987 78.5753 195.355 78.7154C196.879 79.3284 197.054 78.1025 195.6 77.1568C195.18 76.8941 195.11 76.754 195.197 76.3337C195.25 76.036 195.215 75.8434 195.092 75.8434C194.76 75.8434 195.04 74.1271 195.46 73.6718C196.09 73.0063 196.511 71.4827 196.616 69.5038C196.703 67.7351 196.703 67.665 196.161 66.5617C195.355 64.8805 193.201 62.3237 191.852 61.4305C191.257 61.0453 190.749 60.6425 190.749 60.5724C190.749 60.5024 190.592 60.4323 190.416 60.4323C190.206 60.4323 189.751 59.9945 189.191 59.224C188.035 57.6303 186.546 56.5095 184.305 55.5463C182.693 54.8633 180.802 54.4781 179.121 54.4781H177.79L178.175 53.5499C178.438 52.972 178.56 52.324 178.543 51.7986C178.508 50.9055 178.123 50.0999 177.72 50.0999C177.405 50.0999 176.984 50.6253 176.844 51.2207C176.687 51.8687 176.494 51.641 176.231 50.5552C176.109 50.0824 175.863 49.4695 175.671 49.2068C175.145 48.4537 175.233 48.2086 176.126 47.9809C176.564 47.8758 176.914 47.7182 176.914 47.6657C176.914 47.5956 176.792 47.1228 176.634 46.6149C176.389 45.7568 176.389 45.6692 176.669 45.3365C176.932 45.0563 176.949 44.9337 176.774 44.671C176.441 44.1106 176.529 43.8129 177.142 43.5502C177.895 43.2 178.315 42.8497 178.315 42.552C178.315 42.4119 178.123 41.9041 177.877 41.4312C177.65 40.9409 177.44 40.4155 177.44 40.2404C177.44 40.0827 177.352 39.9426 177.247 39.9426C177.159 39.9426 177.089 39.8025 177.124 39.6274C177.212 39.102 176.687 38.1213 175.899 37.3508C175.478 36.948 175.023 36.6153 174.883 36.6153C174.743 36.6153 174.638 36.4752 174.638 36.3C174.638 36.1249 174.48 35.8622 174.287 35.7046C173.902 35.3544 173.674 34.6539 173.832 34.2336C173.885 34.0935 174.007 34.0059 174.112 34.0759C174.287 34.181 175.251 33.7432 175.426 33.463C175.496 33.3579 175.443 33.1653 175.338 33.0252C175.233 32.8851 175.04 32.062 174.918 31.1864L174.69 29.5752L175.145 29.6803C175.391 29.7328 175.776 29.8204 175.986 29.8904C176.389 29.9955 176.389 29.9955 176.126 29.26C175.828 28.4194 175.793 27.859 176.021 27.859C176.336 27.859 176.581 28.3669 176.739 29.3125C176.914 30.4158 177.072 30.7836 177.58 31.2564C178 31.6242 178.315 31.5016 178.315 30.9587C178.333 30.7486 178.438 30.3283 178.56 30.0481L178.771 29.5227L178.893 30.0831C178.981 30.5034 179.121 30.6785 179.471 30.7661C179.874 30.8711 180.049 30.7836 180.539 30.2407C180.872 29.8904 181.205 29.6453 181.275 29.6803C181.345 29.7328 181.52 30.5034 181.643 31.3965C181.765 32.2897 181.94 33.1828 182.028 33.3754C182.343 33.9709 182.921 34.5138 183.254 34.5138C183.499 34.5138 183.569 34.3737 183.569 33.8133C183.569 32.4823 184.445 32.71 185.32 34.2686C186.021 35.4945 186.546 35.7396 186.861 35.0216C187.177 34.2686 187.79 34.3386 188.367 35.2143C188.84 35.9323 189.453 36.1424 189.628 35.6521C189.751 35.3544 190.504 35.3018 190.662 35.582C190.872 35.9148 191.677 36.1249 191.817 35.8797C191.922 35.7221 192.168 35.7046 192.851 35.8447C193.341 35.9498 193.779 35.9673 193.831 35.8972C193.919 35.7396 193.288 35.0391 193.043 35.0391C192.833 35.0391 192.641 34.1985 192.763 33.7957C192.886 33.4455 192.028 32.4998 191.397 32.3072C191.187 32.2371 191.117 32.097 191.187 31.8869C191.257 31.6767 191.082 31.414 190.662 31.0288C190.311 30.731 190.136 30.4859 190.241 30.4859C190.381 30.4859 190.399 30.2932 190.329 29.943C190.224 29.4176 190.241 29.4001 190.714 29.5227C191.099 29.6102 192.098 30.0481 192.903 30.4508C192.973 30.4859 193.026 30.3458 193.026 30.1531C193.026 29.6978 193.026 29.6978 194.059 30.2582C194.9 30.731 194.935 30.731 195.18 30.4158C195.407 30.1181 195.443 30.1181 195.968 30.3808C196.633 30.731 197.229 30.731 197.667 30.4158C197.912 30.2407 198.297 30.2057 198.928 30.2582C199.698 30.3458 199.873 30.3107 199.961 30.0481C200.048 29.8554 199.978 29.6803 199.803 29.5752C199.628 29.4877 199.505 29.3125 199.505 29.1899C199.505 28.7872 198.91 28.1917 198.455 28.1217C197.632 27.9991 196.616 27.5438 196.563 27.2636C196.528 27.106 196.318 26.9834 196.09 26.9834C195.845 26.9834 195.302 26.8082 194.865 26.5981C194.252 26.3004 194.077 26.1253 194.147 25.8801C194.199 25.6699 194.094 25.5123 193.814 25.4072C193.586 25.3197 193.008 24.9694 192.518 24.6192C191.607 23.9537 191.397 23.4458 191.852 22.973C192.028 22.7804 191.993 22.7628 191.695 22.8504C191.415 22.938 191.222 22.8504 190.977 22.5702C190.802 22.3425 190.364 22.0098 189.996 21.8347C189.646 21.642 189.348 21.4319 189.348 21.3443C189.348 21.2743 189.243 21.2042 189.12 21.2042C188.98 21.2042 188.788 20.9065 188.683 20.5563C188.42 19.7157 188.735 19.2078 189.698 18.8225C190.084 18.6649 190.399 18.4723 190.399 18.4022C190.399 18.2096 189.401 17.8768 188.805 17.8768C188.543 17.8768 188.262 17.7893 188.192 17.6842C188.122 17.5441 188.035 17.5616 187.947 17.7192C187.842 17.8768 187.737 17.8768 187.509 17.6492C187.334 17.4741 186.931 17.3515 186.494 17.334C186.091 17.334 185.443 17.2289 185.058 17.1063C184.515 16.9487 184.375 16.8086 184.41 16.5459C184.48 16.0906 185.04 15.6527 185.863 15.4076C186.564 15.1974 186.634 15.1099 186.406 14.8121C186.073 14.3393 185.408 14.1992 183.587 14.1992C181.362 14.1992 180.749 14.0416 180.89 13.4987C180.942 13.3061 181.205 13.0084 181.485 12.8507C181.748 12.6931 181.94 12.518 181.905 12.4655C181.87 12.4129 180.872 12.3779 179.681 12.3954C177.335 12.448 176.039 12.2203 176.039 11.7825C176.039 11.6249 176.319 11.2046 176.669 10.8368L177.317 10.1888L176.809 10.0838C176.529 10.0137 176.126 9.90863 175.934 9.82107C175.723 9.73351 175.391 9.716 175.198 9.76853C174.953 9.82107 174.813 9.75102 174.743 9.50585C174.673 9.33072 174.235 8.96296 173.744 8.68276C172.834 8.19241 172.799 8.10484 173.167 7.12414C173.237 6.94901 173.184 6.84394 173.009 6.84394C172.816 6.84394 172.869 6.63379 173.254 5.91577C174.025 4.53228 174.112 4.2696 174.603 2.36073C175.198 -0.0735159 174.953 -0.65143 173.937 0.749574ZM166.809 23.6735C167.212 23.8836 168.088 24.4791 168.736 25.0044L169.944 25.9676L169.139 26.7907C168.561 27.3862 168.281 27.8415 168.088 28.5595C167.948 29.0849 167.703 29.8204 167.563 30.1882C167.23 30.9412 167.335 31.2564 167.843 31.0813C168.158 30.9937 168.193 31.0288 168.105 31.379C168.053 31.6067 167.948 32.2196 167.878 32.71L167.755 33.6381H168.648C169.331 33.6381 169.541 33.7082 169.594 33.9358C169.857 35.0742 168.806 36.3701 167.685 36.3C167.23 36.265 166.809 36.4401 165.916 37.0181C165.268 37.4384 164.568 37.8762 164.358 37.9812C164.043 38.1564 163.99 38.2965 164.078 38.7868C164.235 39.8201 164.025 40.2754 163.184 40.6431C162.764 40.8183 162.379 41.081 162.326 41.2386C162.151 41.7114 161.205 41.5888 160.733 41.0459L160.33 40.5731L160.715 39.1721C161.748 35.5295 164.375 26.0552 164.69 24.9169C164.953 23.9712 165.146 23.5859 165.426 23.4809C165.951 23.2707 166.004 23.2707 166.809 23.6735ZM166.267 43.2L166.827 43.4802L166.372 43.8304C166.109 44.0056 165.846 44.4083 165.794 44.7236C165.724 45.0388 165.531 45.5291 165.356 45.8444C165.163 46.1596 164.971 46.7025 164.901 47.0352C164.778 47.7182 164.498 47.9109 163.237 48.1035C162.589 48.2086 162.554 48.1911 162.554 47.7708C162.554 47.5256 162.361 46.9477 162.116 46.4923C161.871 46.037 161.678 45.4416 161.678 45.1439V44.6185L162.606 44.7411C163.587 44.8462 163.885 44.7061 164.515 43.8304C164.708 43.5502 165.514 42.9198 165.671 42.9198C165.706 42.9198 165.969 43.0424 166.267 43.2ZM151.871 51.1332V53.5849L151.363 53.9352C151.083 54.1453 150.803 54.3029 150.75 54.3029C150.68 54.3029 150.645 53.9177 150.663 53.4623C150.68 52.9194 150.593 52.4641 150.4 52.1489C150.225 51.9037 150.12 51.5535 150.155 51.3783C150.19 51.2032 150.103 50.9755 149.945 50.853C149.717 50.6603 149.717 50.6428 149.962 50.6253C150.33 50.6253 150.891 49.9948 150.733 49.7497C150.593 49.522 151.293 48.6989 151.644 48.6989C151.819 48.6989 151.871 49.2243 151.871 51.1332ZM192.623 69.5739C192.938 70.3795 193.201 71.1675 193.201 71.3426C193.201 71.7279 192.553 72.6911 192.308 72.6911C192.203 72.6911 191.905 72.2008 191.625 71.5878C191.257 70.7822 191.117 70.1168 191.029 68.9784L190.924 67.4373L191.485 67.7876C191.905 68.0328 192.168 68.4531 192.623 69.5739ZM182.571 77.2444C182.728 77.437 183.166 77.6296 183.534 77.6997C184.27 77.8223 184.27 77.8048 184.725 80.1865C184.777 80.4141 184.988 80.7819 185.215 80.9921C185.618 81.3423 185.618 81.3948 185.373 81.8852C185.215 82.1829 184.76 82.7608 184.357 83.2161C183.954 83.654 183.411 84.3194 183.149 84.7222C182.693 85.4052 182.641 85.4227 181.467 85.5278C180.82 85.5803 179.961 85.7029 179.594 85.7905C177.3 86.3859 175.548 86.491 174.603 86.1057C174.13 85.8956 173.727 85.8781 172.711 86.0182C171.013 86.2283 170.715 86.2458 169.524 86.2108C168.596 86.1758 168.508 86.1407 168.508 85.773C168.508 85.0375 168.718 84.5996 169.069 84.5996C169.629 84.5996 170.014 84.3019 170.277 83.689C170.785 82.4456 174.095 79.7487 175.723 79.2583C175.951 79.1883 176.476 78.9431 176.914 78.7154C177.475 78.4352 178.07 78.2951 178.998 78.2601C180.189 78.19 180.329 78.155 180.749 77.6647C181.45 76.8241 182.08 76.684 182.571 77.2444ZM159.962 85.5979C160.663 85.5103 161.713 85.4052 162.291 85.3877C162.869 85.3527 163.71 85.2651 164.165 85.2126C165.233 85.055 165.373 85.3352 164.796 86.3859L164.393 87.139L162.939 87.3491C162.134 87.4542 161.381 87.6293 161.276 87.7169C161.1 87.8745 158.999 88.4874 157.178 88.9252C156.67 89.0478 156.67 88.8377 157.125 87.4016C157.318 86.8062 157.475 86.1758 157.475 86.0006C157.475 85.843 157.65 85.4753 157.861 85.2126L158.246 84.7222L158.456 85.2301L158.666 85.7555L159.962 85.5979Z" fill="black"/>
<path d="M103.329 15.373C103.084 15.408 102.769 15.5656 102.664 15.7057C102.541 15.8458 102.331 15.9509 102.208 15.9509C102.068 15.9509 101.963 16.091 101.963 16.2661C101.963 16.4413 101.875 16.6689 101.77 16.774C101.648 16.8966 101.543 17.1593 101.525 17.3869C101.455 18.0349 101.455 18.0524 101.192 18.0524C101.035 18.0524 100.947 18.2801 100.947 18.7704C100.93 19.1732 100.842 19.5935 100.755 19.6811C100.369 20.0664 100.58 20.5042 101.525 21.2397C102.593 22.0628 102.839 22.5707 102.488 23.2361C102.156 23.8316 101.963 23.7615 101.963 23.061C101.963 22.2379 101.683 21.5549 101.333 21.5549C101.175 21.5549 100.562 22.0453 99.9666 22.6407C99.091 23.5339 98.7932 23.9892 98.408 25.0224C97.76 26.7737 97.7775 26.9138 98.6006 26.8437C99.1085 26.7912 99.3536 26.8787 99.7389 27.229C100.299 27.7544 100.334 27.9645 99.8615 28.0871C99.6338 28.1397 99.5113 28.3323 99.5113 28.595C99.5113 29.1904 97.7775 31.5546 95.4834 34.0589C93.5044 36.2129 93.4519 36.248 92.7164 36.2655C92.121 36.2655 91.8758 36.3705 91.543 36.7383L91.1227 37.2287L91.1052 36.7558C91.1052 36.1954 90.3172 35.2147 89.8618 35.2147C89.6517 35.2147 89.4941 35.0396 89.424 34.7244C89.354 34.4617 89.2139 34.199 89.1088 34.1289C89.0037 34.0589 88.8987 33.5861 88.8811 33.0782C88.8111 31.5721 88.706 30.9417 88.5309 30.8891C88.2332 30.784 87.0773 32.2551 87.0773 32.7104C87.0773 33.0957 87.0248 33.1132 86.4294 33.0081C86.0616 32.9381 85.7464 32.8155 85.7114 32.7455C85.6763 32.6579 85.4662 32.3251 85.221 31.9749C84.9934 31.6246 84.8007 31.2394 84.8007 31.0993C84.8007 30.9417 84.6956 30.8891 84.538 30.9417C84.3979 31.0117 84.2753 31.1868 84.2753 31.362C84.2753 31.5371 84.1878 31.7122 84.0827 31.7472C83.9776 31.7823 83.855 32.2376 83.8025 32.763C83.7675 33.2883 83.6624 33.8137 83.5573 33.9188C83.3997 34.1289 82.0162 34.6018 81.7535 34.5317C81.6835 34.5142 81.4908 34.6018 81.3507 34.7244C81.1931 34.847 80.983 34.952 80.8779 34.9695C80.7728 34.9695 80.5977 35.0046 80.4751 35.0046C80.335 35.0221 80.3175 35.1972 80.4051 35.5124C80.5977 36.2655 80.4576 36.5982 79.7921 36.8784C79.4594 37.0185 79.1967 37.2462 79.1967 37.3863C79.1967 37.5439 78.8815 37.8591 78.4962 38.1043C78.1109 38.3495 77.7957 38.6297 77.7957 38.7172C77.7957 38.8223 77.6031 38.9799 77.3579 39.0675C77.0777 39.1726 76.9201 39.3652 76.9201 39.6104C76.9201 39.8205 76.7099 40.2233 76.4647 40.521C76.1495 40.8888 76.0444 41.169 76.1145 41.4492C76.1845 41.6768 76.2721 42.3423 76.3422 42.9202C76.4122 43.6383 76.5173 43.971 76.6749 43.971C76.815 43.971 76.9201 44.1636 76.9201 44.3913C76.9201 44.6715 77.1127 44.9517 77.4279 45.1794C78.2685 45.7748 79.7396 45.442 80.6853 44.4263C80.8779 44.2162 81.3507 43.8484 81.7535 43.5857C83.0845 42.7276 85.0284 43.2705 85.6063 44.654C86.0441 45.7222 86.2543 47.8588 86.1492 50.3631L86.0441 52.9024L85.4662 53.6204C84.9583 54.2509 84.8883 54.4785 84.8357 55.5818C84.7832 56.5625 84.8533 56.9828 85.0984 57.4732C85.4312 58.0861 85.4312 58.1211 85.0984 58.8742C84.7132 59.7673 84.3979 60.9407 84.1002 62.5343C83.9426 63.3574 83.6449 64.0404 83.0495 64.986C82.2264 66.2995 81.8061 67.3502 81.5084 68.8388C81.4208 69.3467 81.2807 69.6094 81.1406 69.5743C80.7728 69.5043 80.0723 70.0472 80.0723 70.4149C80.0723 70.7827 81.2106 73.1469 81.6134 73.6022C81.9462 73.9875 82.7868 74.005 83.4698 73.6548C83.75 73.4971 84.0127 73.4271 84.0652 73.4796C84.1878 73.6022 83.7675 76.4217 83.4522 77.5951C83.2946 78.1205 82.9969 79.0136 82.7693 79.5565C82.1563 81.0275 82.2089 81.7981 83.0144 82.9014C83.3647 83.4092 83.7675 83.9696 83.8726 84.1623C83.9951 84.3549 84.2929 84.8628 84.5555 85.3006C84.8182 85.7384 85.186 86.2638 85.3786 86.4739C85.7114 86.8592 85.7114 86.8942 85.4487 87.5247C85.2911 87.8925 85.0809 88.5404 84.9758 88.9782C84.8357 89.5211 84.5205 90.029 83.9251 90.6419C83.4522 91.1148 82.7868 91.9729 82.454 92.5508C81.8936 93.4965 81.2457 94.0569 79.8096 94.8625C79.4244 95.0726 79.1617 95.9132 79.3018 96.4211C79.582 97.3142 80.5452 97.8921 82.6292 98.4C83.8726 98.6977 84.3629 98.7152 87.2525 98.5926C89.0388 98.5226 91.2103 98.365 92.0684 98.2599C92.944 98.1548 94.7128 97.9972 96.0087 97.9271C97.6199 97.8221 98.5481 97.682 98.8983 97.4893C99.196 97.3317 99.6689 97.2091 99.9491 97.2091C101.298 97.2091 107.76 96.1409 108.968 95.7206C110.842 95.0726 114.152 94.2845 116.568 93.8818C119.038 93.4965 119.335 93.3038 119.283 92.148C119.265 91.7102 119.388 90.9221 119.546 90.3968C119.703 89.8714 119.826 89.276 119.826 89.0658C119.826 88.5754 119.335 87.5772 119.038 87.4722C118.915 87.4196 118.775 87.0869 118.705 86.7191C118.6 86.0011 118.005 85.1255 117.654 85.1255C117.532 85.1255 117.304 84.7927 117.146 84.3724C116.831 83.5669 116.428 79.0661 116.603 78.4007C116.674 78.1205 116.586 77.8052 116.341 77.4725C115.745 76.6494 115.483 75.2659 115.623 73.5147C115.64 73.357 115.71 73.2169 115.815 73.2169C115.903 73.2169 115.973 73.1294 115.973 73.0243C115.973 72.9192 116.096 72.7266 116.236 72.5865C116.376 72.4289 116.498 72.1662 116.498 71.9911C116.498 71.6758 116.551 71.6758 116.989 71.851C117.532 72.0961 118.95 73.1994 118.95 73.3921C118.95 73.4621 118.758 73.6022 118.512 73.7073C117.969 73.9525 117.882 74.9157 118.39 75.0908C118.898 75.2834 119.966 76.2116 120.053 76.5443C120.106 76.7545 120.421 76.9121 121.157 77.0522C123.381 77.4725 123.696 77.5601 123.994 77.8227C125.062 78.7509 125.745 77.9979 125.167 76.5093C125.062 76.2466 125.132 76.2291 125.675 76.3167C126.095 76.3867 126.446 76.3167 126.743 76.124C127.181 75.8438 127.339 75.3185 127.006 75.3185C126.918 75.3185 126.831 75.1959 126.831 75.0558C126.831 74.9332 126.691 74.723 126.533 74.6355C126.358 74.5304 126.27 74.4428 126.34 74.4428C126.428 74.4428 125.938 73.9174 125.272 73.252C123.994 72.0086 124.064 72.1487 123.066 68.5761C122.715 67.3502 122.278 66.4571 121.77 65.9142C121.577 65.7041 121.122 64.916 120.754 64.163C119.913 62.4117 118.968 61.1158 118.092 60.4853C117.567 60.1351 117.286 59.7323 117.024 59.0318C116.341 57.228 115.78 56.5975 113.907 55.5818C112.978 55.0739 112.068 54.6536 111.91 54.6536C111.735 54.6536 111.35 54.496 111.035 54.3034C110.719 54.1108 110.334 53.9531 110.176 53.9531C109.896 53.9531 109.126 52.3595 108.863 51.2737L108.758 50.8009H110.352C111.297 50.8009 112.19 50.6958 112.523 50.5732C112.838 50.4331 113.381 50.2755 113.749 50.2055C114.975 49.9778 115.202 48.5593 114.484 45.6347C113.889 43.218 112.208 40.3634 110.299 38.5596C109.949 38.2269 109.669 37.7891 109.669 37.6139C109.669 37.0535 109.283 35.8627 108.933 35.3548C108.758 35.1096 108.618 34.8119 108.618 34.7069C108.618 34.6018 108.548 34.5142 108.478 34.5142C108.39 34.5142 108.215 34.234 108.092 33.9013C107.847 33.2708 107.655 33.1658 106.516 33.0607C106.184 33.0257 105.728 32.9031 105.501 32.7805L105.098 32.5703L105.518 32.0625C105.833 31.6947 105.973 31.2569 106.078 30.3988C106.254 28.7001 106.201 26.9838 105.973 26.7036C105.868 26.5635 105.816 26.4584 105.868 26.4584C106.008 26.4584 105.658 25.6704 104.975 24.497C104.432 23.5514 104.415 23.4638 104.66 22.991C104.8 22.7108 105.343 22.1328 105.868 21.6775C106.761 20.9245 106.814 20.8194 106.919 19.9088C106.989 19.1907 106.919 18.7179 106.656 18.0174C106.464 17.5095 106.254 17.0542 106.184 17.0017C106.131 16.9491 105.938 16.704 105.763 16.4413C105.518 16.056 104.065 15.1629 103.854 15.2679C103.819 15.2854 103.592 15.338 103.329 15.373ZM100.212 30.6439C100.212 31.1868 100.282 31.362 100.562 31.4495C100.755 31.5021 100.912 31.6071 100.912 31.6772C100.912 31.9399 99.4937 33.3059 99.0734 33.4635C98.8283 33.551 98.5656 33.8137 98.478 34.0589C98.3904 34.2866 98.1102 34.6193 97.8651 34.8294C97.6199 35.0221 97.4097 35.2673 97.4097 35.3723C97.4097 35.4774 97.3222 35.565 97.2171 35.565C97.1295 35.565 96.8844 35.9327 96.6917 36.3881C96.4991 36.8609 96.1138 37.7365 95.8336 38.367C95.5534 38.9974 95.2907 39.6454 95.2382 39.803C95.1156 40.2058 94.6603 40.2058 94.5377 39.803C94.4852 39.6454 94.3976 38.8573 94.3626 38.0693L94.31 36.6332L96.1839 34.7069C97.2171 33.6386 98.4955 32.15 99.0034 31.3795C99.5288 30.6089 100.002 29.9785 100.089 29.961C100.159 29.961 100.212 30.2762 100.212 30.6439ZM98.5481 42.2548C98.8983 43.4456 98.9158 43.4106 98.1628 43.4806L97.4973 43.5332L97.3397 44.9867C97.2171 46.3177 97.1646 46.4578 96.7618 46.6154C96.2714 46.7905 96.0087 46.703 96.0087 46.3177C96.0087 46.02 95.641 45.337 95.3958 45.1618C95.0631 44.9517 95.1857 44.0936 95.5359 44.041C95.9912 43.971 96.2714 43.7083 97.1821 42.4649C97.6374 41.852 98.0577 41.3441 98.1453 41.3441C98.2153 41.3441 98.3904 41.7469 98.5481 42.2548ZM89.6692 71.6758C89.1263 73.1994 88.3032 76.3692 88.3032 76.9646C88.3032 77.1047 88.0756 77.9103 87.7954 78.7684C87.5152 79.609 87.1474 81.01 86.9723 81.8506C86.8147 82.7087 86.6045 83.3567 86.4994 83.3217C85.9215 83.129 85.6588 80.5022 86.0966 79.4864C86.2367 79.1712 86.622 78.1555 86.9723 77.2448C88.2332 73.8299 89.2664 71.4657 89.4941 71.4657C89.6342 71.4657 89.7042 71.5708 89.6692 71.6758ZM95.5709 73.7423C96.1313 74.0225 96.7268 74.2677 96.9019 74.2677C97.1821 74.2677 97.4097 74.653 97.9351 75.9664C98.0402 76.2816 98.2503 76.6144 98.3729 76.7195C98.6707 76.9646 100.562 77.0522 101 76.842C101.227 76.7195 101.35 76.737 101.403 76.8771C101.438 76.9821 101.735 77.0697 102.068 77.0697C102.681 77.0697 102.734 77.1398 102.681 77.9453C102.646 78.5232 101.473 82.1133 101.122 82.7087C100.965 82.9714 100.509 83.4268 100.089 83.7245C99.6689 84.0222 99.3361 84.3374 99.3361 84.4075C99.3361 84.7052 98.4255 85.4582 97.9526 85.5633C97.4623 85.6684 96.0087 87.4021 96.0087 87.8749C96.0087 87.9975 95.9387 88.1026 95.8336 88.1026C95.7461 88.1026 95.6585 88.015 95.6585 87.9275C95.6585 87.6648 94.7654 87.3671 94.4501 87.5247C94.2925 87.5947 94.0824 87.6473 93.9773 87.6648C93.8722 87.6648 93.6446 87.7699 93.4869 87.91C93.3293 88.0501 93.0841 88.0851 92.909 88.015C92.7339 87.9275 92.4712 87.8925 92.3136 87.91C92.0859 87.9275 92.0159 87.7348 91.9458 86.9993C91.8933 86.2638 91.7357 85.896 91.2804 85.3356C90.7375 84.6526 90.6324 84.6001 89.8443 84.6001C89.389 84.6001 89.0037 84.5301 89.0037 84.4425C89.0037 84.1623 89.5641 82.9364 89.8969 82.5336C90.3522 81.9382 90.9476 80.3095 91.1052 79.1362C91.1928 78.5933 91.4029 77.9278 91.5956 77.6476C91.7882 77.3849 92.5062 76.2641 93.2242 75.1783C93.9248 74.1101 94.5027 73.2169 94.5202 73.2169C94.5377 73.2169 95.0105 73.4446 95.5709 73.7423ZM108.828 75.2484C110.036 76.5443 110.632 76.807 111.56 76.4743L112.26 76.2291L112.978 77.1047C114.257 78.6809 115.132 82.5336 114.73 84.7752C114.537 85.8435 114.555 86.0361 114.8 86.4214C115.185 86.9993 115.167 87.0519 114.677 87.0519C114.449 87.0519 113.977 87.2445 113.626 87.4897C113.259 87.7348 112.908 87.8925 112.821 87.8399C112.733 87.7874 112.611 87.8574 112.523 87.98C112.12 88.663 109.774 89.1709 109.091 88.7331C108.863 88.5754 108.618 88.5054 108.565 88.5754C108.355 88.7681 106.867 88.8031 106.867 88.593C106.867 88.4879 106.621 88.4529 106.219 88.5229C105.851 88.5754 105.43 88.628 105.29 88.6105C105.15 88.6105 104.748 88.6105 104.415 88.6105C104.082 88.6105 103.714 88.5229 103.592 88.4178C103.469 88.3128 103.189 88.2952 102.979 88.3478C102.751 88.4178 102.051 88.5054 101.42 88.5579L100.282 88.663L100.457 87.6823C100.632 86.7717 100.667 86.7016 101.122 86.7016C101.49 86.7016 101.735 86.5265 102.138 85.9661C102.418 85.5808 102.664 85.1255 102.664 84.9679C102.664 84.8278 102.891 84.2323 103.171 83.6369C103.452 83.059 103.819 82.2709 103.977 81.8857C104.135 81.5004 104.555 80.7473 104.923 80.222C106.078 78.4882 106.219 77.7702 105.728 76.3692C105.378 75.3885 105.378 75.371 105.956 75.2659C106.219 75.2134 106.709 74.9682 107.042 74.7405C107.374 74.4954 107.707 74.2852 107.777 74.2852C107.847 74.2677 108.32 74.7055 108.828 75.2484Z" fill="black"/>
<path d="M33.0853 19.5755C32.9276 19.8382 32.1046 22.8853 31.9119 23.9186C31.6142 25.4772 30.9662 29.3124 29.7929 36.3525C28.3043 45.3539 28.4269 44.9161 27.2711 44.8811C26.6932 44.8636 26.5531 44.9862 26.6582 45.459C26.6757 45.5466 26.7107 46.2996 26.7282 47.0877C26.7457 48.5062 26.7632 48.5762 27.3236 49.0666C27.9366 49.6095 28.0416 50.1699 27.6213 50.7303C27.1485 51.3432 27.3762 52.3765 27.9891 52.3765C28.4795 52.3765 28.7597 51.8161 28.7597 50.8354C28.7597 50.2925 28.8647 49.6445 28.9873 49.3993C29.2675 48.8389 30.1607 48.6463 31.264 48.8915C31.7193 48.9965 32.2271 49.0316 32.4023 48.9615C33.0853 48.6638 33.5056 48.7689 33.1553 49.1542C33.0853 49.2417 32.9101 49.697 32.8051 50.1699C32.4548 51.5884 31.6492 52.9719 30.651 53.83C29.863 54.5305 29.6878 54.6006 29.5302 54.3729C29.4076 54.2328 29.1274 54.0927 28.9173 54.0577C28.2343 53.9876 27.8665 53.76 26.9384 52.8668C26.4655 52.4115 25.9752 52.0262 25.8526 52.0262C25.7475 52.0262 25.4848 51.6234 25.2747 51.1506C25.0645 50.6602 24.8193 50.275 24.7318 50.275C24.6442 50.275 24.294 50.0298 23.9787 49.7496C23.646 49.4519 23.2082 49.2242 22.998 49.2242C22.8054 49.2242 22.6303 49.1191 22.6303 48.979C22.6303 48.8564 22.4201 48.5938 22.1574 48.4361C21.6145 48.0859 21.2643 47.8057 20.4762 47.0351C19.6356 46.2296 17.8318 45.3014 16.0631 44.776C14.0141 44.1456 13.2085 43.6727 11.5448 42.0966C9.89865 40.538 9.46084 40.2928 9.00551 40.6956C8.83039 40.8707 8.55018 40.9933 8.39257 40.9933C7.88471 40.9933 7.56948 41.5012 7.56948 42.3418C7.56948 42.9372 7.48192 43.1999 7.18421 43.4451C6.86898 43.7078 6.81644 43.9004 6.85147 44.741C6.92152 46.142 6.64132 46.79 5.73067 47.4554C5.29285 47.7707 4.9426 48.1559 4.9426 48.3136C4.9426 48.8389 3.13881 51.0455 2.43831 51.3783C1.96547 51.5884 1.79034 51.781 1.79034 52.0963C1.79034 52.3239 1.51014 52.8668 1.15989 53.3221C0.284264 54.4605 -0.136037 55.4937 0.0390882 55.9841C0.441877 57.0348 1.29999 58.3132 1.54517 58.2081C1.68527 58.1556 1.98298 58.3132 2.22816 58.5759C2.78856 59.1713 3.62916 59.1888 4.48727 58.5934L5.13524 58.1556L6.69386 59.0487C8.8479 60.2571 10.9319 60.9401 13.0859 61.1503C15.5202 61.3779 15.5202 61.3779 16.1681 62.3936C16.4834 62.9015 17.0087 63.6195 17.324 63.9698C17.9369 64.6703 17.9194 64.5827 17.6392 66.9294C17.5867 67.2972 17.6567 67.6824 17.8143 67.9101C17.9544 68.1202 18.2171 68.8908 18.4097 69.6438C18.5849 70.4144 19.0052 71.6052 19.3204 72.3057C19.8283 73.409 19.8633 73.6017 19.6356 73.8293C19.2679 74.1971 16.5009 75.2654 15.5377 75.4055C14.9948 75.493 14.5395 75.7032 14.2242 76.0009C13.7689 76.4387 12.9984 78.19 12.9984 78.7679C12.9984 78.9255 13.4012 79.8887 13.8915 80.9044C14.9773 83.146 15.275 83.9516 15.275 84.6346C15.275 85.3526 15.7654 86.1231 16.4308 86.4384C17.1664 86.7886 17.5341 86.7711 18.7425 86.3683C19.2854 86.1757 20.2135 85.948 20.7915 85.8429C21.4569 85.7204 22.1749 85.4226 22.7529 85.0374C23.2607 84.7046 23.716 84.4244 23.7686 84.4244C24.0488 84.4244 22.8754 85.8254 22.3501 86.1056C21.9648 86.3158 21.492 86.8236 21.1242 87.4191C20.5463 88.3823 20.196 88.6274 19.3729 88.6274C19.1803 88.6274 18.5148 88.9602 17.9369 89.3454C17.0613 89.9409 16.7636 90.2736 16.3258 91.1317C15.4676 92.848 15.5552 93.2157 17.1488 94.8094C18.6549 96.2979 19.3554 96.6482 21.2293 96.7883C21.8597 96.8408 22.5602 96.9459 22.8054 97.0335C23.0506 97.121 23.9963 97.1736 24.9069 97.1736C26.1328 97.156 26.8858 97.2611 27.814 97.5413C29.4602 98.0317 30.0731 98.0667 42.2443 98.4169C47.2879 98.5746 49.2143 98.5746 49.8623 98.4169C50.3526 98.3119 51.7011 98.1718 52.8569 98.1017C54.1704 98.0317 55.0985 97.8916 55.2561 97.7515C55.4138 97.6289 56.2193 97.4713 57.0774 97.3837C57.918 97.3137 59.0564 97.0685 59.6168 96.8758C60.5975 96.4906 61.8058 95.6675 62.086 95.1771C62.2787 94.8444 62.1211 94.4066 61.8058 94.4066C61.5081 94.4066 61.1404 92.5678 61.3855 92.3226C61.4906 92.2175 61.403 92.1124 61.1228 92.0424C60.8777 91.9723 60.5975 91.7622 60.4924 91.552C60.3873 91.3419 60.2998 91.2718 60.2998 91.3769C60.2822 91.7272 59.932 91.6396 59.932 91.2893C59.932 90.9041 60.6675 90.1861 61.4556 89.7833C61.7708 89.6256 62.1035 89.3454 62.1911 89.1703C62.3837 88.8376 62.7165 83.7064 62.6639 81.9727C62.6464 81.1321 62.699 81.0095 62.9967 80.9569C63.1893 80.9394 63.7848 81.1321 64.3101 81.4123C65.1157 81.8151 65.2733 81.9727 65.2208 82.3229C65.0982 83.3737 66.3066 82.7958 66.5167 81.71C66.6393 81.0445 66.3241 80.344 65.6236 79.696C64.9581 79.1006 64.6078 78.2075 64.8355 77.7872C64.9581 77.542 64.9406 77.3143 64.7479 76.9466C64.4502 76.3862 64.3977 74.8801 64.6604 73.9344C65.2383 71.7453 65.5185 70.0992 65.6236 68.453C65.7637 66.1764 65.571 65.6159 64.0825 63.9523C62.2436 61.8858 61.7183 61.5355 59.7218 60.9401C58.7236 60.6424 57.2526 60.2921 56.447 60.152C55.3262 59.9419 54.5031 59.6442 52.9095 58.8561L50.843 57.8229L47.9884 58.068C46.4123 58.2257 44.9763 58.3482 44.7836 58.3833C44.3984 58.4183 44.3984 58.4008 44.626 56.5795C44.7136 55.7564 44.6786 55.5637 44.3984 55.3186C44.0481 55.0033 44.0131 55.0033 42.7697 55.8264C42.1217 56.2467 41.8941 56.2117 41.8941 55.7038C41.8941 55.5112 41.7014 54.6881 41.4563 53.8825C40.7908 51.5359 40.7908 51.5008 41.7189 51.2382C43.0674 50.8704 43.4527 50.6602 43.8204 50.0648C44.2057 49.4519 44.2057 49.3818 43.7504 47.7356C43.5753 47.1577 43.4177 46.0895 43.3826 45.3714C43.3476 44.6534 43.2776 43.9179 43.2075 43.7428C43.1375 43.5852 43.1725 43.3225 43.2951 43.1824C43.5753 42.8496 43.4177 42.009 42.9798 41.3786C42.7872 41.1159 42.5946 40.5905 42.5245 40.2052C42.472 39.82 42.3494 39.0494 42.2618 38.5065C42.1743 37.9461 41.9291 37.2281 41.7365 36.8954C41.3512 36.2824 40.4756 35.7921 40.1603 36.0022C39.8801 36.1598 39.9327 35.4593 40.2129 35.2317C40.4756 35.004 40.7382 33.533 40.6682 32.5873C40.6507 32.2546 40.5106 31.7467 40.3705 31.4665C40.2304 31.2038 40.1603 30.801 40.2129 30.6084C40.2654 30.3807 40.1078 29.8904 39.7926 29.33C39.3723 28.6119 39.1096 28.3668 38.4791 28.1216C36.2375 27.281 34.4337 28.9797 34.5038 31.8868C34.5563 33.9708 34.9066 36.0548 35.2568 36.37C35.6771 36.7553 35.6771 37.088 35.2743 37.2106C35.0992 37.2807 34.7139 37.5609 34.4337 37.8586C33.9959 38.3139 33.9259 38.5065 33.9609 39.2946C34.101 42.5344 33.9434 45.0912 33.5931 45.6341C32.9452 46.6148 32.2797 47.0351 32.017 46.6148C31.9645 46.5273 31.5442 46.5098 31.1063 46.5623C30.5109 46.6148 30.3183 46.5973 30.4058 46.4397C30.4759 46.3346 30.6335 46.2471 30.7736 46.2471C31.1939 46.2471 31.7368 45.389 31.5792 44.9687C31.3865 44.4608 30.686 44.3557 30.3883 44.7935C30.1782 45.0562 30.1256 45.0737 29.968 44.8461C29.8805 44.706 29.8454 44.3382 29.8805 44.058C29.933 43.7603 30.1432 42.4293 30.3358 41.0809C30.5284 39.7324 30.9312 37.3332 31.2114 35.7395C33.2254 24.3214 33.8383 19.663 33.3655 19.5054C33.2604 19.4704 33.1378 19.5054 33.0853 19.5755ZM12.6306 54.7582C13.2085 54.9858 13.3836 55.196 13.839 56.1942C14.557 57.7353 14.9248 58.8036 14.9248 59.3289C14.9248 60.2921 13.0334 60.2921 10.4591 59.3114C8.62023 58.6284 7.53446 58.1031 7.27177 57.7703C6.95654 57.3675 6.88649 56.7371 7.13167 56.6495C7.25426 56.597 7.39436 56.4219 7.42938 56.2643C7.49943 56.0541 8.04232 55.8089 9.25069 55.4587C10.1964 55.1785 11.1771 54.8632 11.4222 54.7231C11.9651 54.4429 11.825 54.4254 12.6306 54.7582ZM60.1772 66.5967C60.4223 66.7017 60.7901 67.122 60.9827 67.5073C61.3155 68.2253 61.3155 68.2253 60.9652 69.5388C60.0546 72.9187 60.0546 74.4248 61.0353 76.7714C61.403 77.6471 61.2629 77.9448 60.4924 77.9448C60.002 77.9448 59.7394 77.8047 59.249 77.2793C58.2158 76.1935 57.6729 75.2654 57.4977 74.3547C57.3401 73.5316 57.3752 73.3915 58.0056 72.0781C58.9688 70.0466 59.3541 68.9083 59.4942 67.5598C59.5467 66.9119 59.6343 66.3865 59.6693 66.3865C59.7043 66.3865 59.932 66.4741 60.1772 66.5967ZM48.3562 73.9869C48.3912 74.092 48.9516 74.7225 49.5996 75.4055C52.7869 78.7328 53.0671 79.1006 53.1897 79.8887C53.3648 81.1321 52.6818 82.6557 50.878 85.0023C49.8973 86.2808 49.2493 86.8762 48.8641 86.8762C48.7064 86.8762 48.3912 87.0513 48.1986 87.2615C47.7958 87.6993 47.358 87.7868 45.3966 87.7518C44.6786 87.7343 43.225 87.7168 42.1568 87.6993C41.106 87.6818 39.6875 87.6993 39.0045 87.7518L37.7786 87.8394L37.7611 87.314C37.7436 86.3158 37.1307 85.6503 36.2375 85.6503C35.6421 85.6503 35.4144 85.983 35.2918 87.0338L35.1868 87.9269L34.3812 87.9444C33.9434 87.962 33.2954 87.9795 32.9627 88.0145C31.1239 88.1721 28.4094 88.0495 28.4094 87.8043C28.4094 87.4716 27.814 87.384 26.3254 87.4891C25.1871 87.5942 24.9069 87.5592 24.9069 87.3665C24.9069 87.0338 25.2572 86.7011 25.6074 86.7011C25.765 86.7011 26.0452 86.5434 26.2379 86.3333C26.5706 85.9655 26.6582 85.195 26.9033 79.7836C27.0434 76.9991 27.1835 76.176 27.6213 75.7382C28.1817 75.1778 28.7597 75.0727 30.2132 75.2654L31.4741 75.423L30.8261 75.7557C30.1256 76.106 30.0906 76.1585 30.3008 76.4737C30.9662 77.507 34.1535 77.4895 35.1868 76.4562C35.3444 76.2811 35.6246 76.211 35.8522 76.2636C36.3076 76.3862 36.7629 76.0709 36.8505 75.5806C36.9205 75.1077 38.1989 75.0027 39.057 75.423C39.6525 75.7032 39.6875 75.7032 39.9677 75.3529C40.1778 75.1077 40.7032 74.9151 41.7365 74.7225C42.542 74.5649 43.9605 74.2496 44.8712 74.022C46.5699 73.6017 48.2161 73.5842 48.3562 73.9869ZM23.9087 77.8747C23.9437 78.1199 23.9262 78.5752 23.8562 78.908C23.7861 79.2232 23.8211 80.3965 23.9262 81.5173C24.0488 82.6381 24.0663 83.5488 23.9963 83.5488C23.9262 83.5488 23.7336 83.3562 23.5759 83.1285C23.2782 82.6557 22.21 82.2529 20.8615 82.0602C20.161 81.9727 19.9859 82.0252 19.513 82.4105C19.2153 82.6557 18.9526 83.076 18.9176 83.3386C18.7775 84.547 17.4991 83.6539 16.7811 81.8676C16.2382 80.5191 16.1857 79.3808 16.6585 78.8029C16.9737 78.4176 17.1488 78.3826 19.3379 78.2775C21.0717 78.19 21.9123 78.0674 22.6303 77.8047C23.8562 77.3494 23.8036 77.3494 23.9087 77.8747ZM57.5678 80.5366C59.249 81.4648 60.2297 83.4437 60.0721 85.6328C59.9495 87.2264 59.5467 88.1021 58.5485 88.9602L57.7079 89.6607L56.7797 89.363C56.0617 89.1353 55.8341 89.1178 55.764 89.2929C55.6764 89.5906 55.5013 89.5556 54.9409 89.1178C54.4155 88.715 53.9952 88.6099 52.6993 88.6274C52.0689 88.6449 51.7887 88.5574 51.6135 88.3297C51.3158 87.9094 51.4209 87.7168 52.314 87.0688C52.8394 86.6835 53.2247 86.2107 53.5399 85.5102C53.8026 84.9673 54.2754 83.9516 54.5907 83.2861C54.9234 82.6031 55.3787 81.6049 55.6239 81.0445C56.1318 79.8887 56.3069 79.8361 57.5678 80.5366Z" fill="black"/>
</svg>
