<svg width="200" height="87" viewBox="0 0 200 87" fill="none" xmlns="http://www.w3.org/2000/svg">
<path d="M94.3596 0.937853C93.8641 1.68109 93.4571 2.91981 92.183 7.5208C91.3336 10.6353 90.4488 13.8383 90.2541 14.6523C89.9002 15.9972 89.8294 16.1211 89.4932 16.0326C88.396 15.7141 88.1483 15.6964 88.1483 15.9972C88.1483 16.1565 88.2014 16.2804 88.2899 16.2804C88.3607 16.2804 88.6438 16.4927 88.9092 16.7228C89.3162 17.0944 89.3693 17.2183 89.2101 17.5191C89.0685 17.7845 88.9092 17.8376 88.5376 17.7668C87.9006 17.643 87.5997 17.9969 87.5289 18.9702C87.5112 19.3949 87.4759 19.7311 87.4582 19.7311C87.4405 19.7311 87.3874 20.2266 87.352 20.8283C87.3166 21.4476 87.1396 22.1378 86.9804 22.3855C86.7503 22.7394 86.7326 22.881 86.9096 23.0934C87.0865 23.3057 87.0688 23.3765 86.8388 23.465C86.6618 23.5358 86.5734 23.6773 86.6264 23.8189C86.6795 23.9428 86.6264 24.0666 86.5203 24.102C86.4141 24.1374 86.3079 24.3675 86.2725 24.6152C86.2548 24.8453 86.184 25.27 86.1309 25.5708C85.8478 27.0042 85.8478 27.1989 86.1663 27.6236C86.538 28.1014 87.0865 29.1631 87.0865 29.4109C87.0865 29.4993 87.2812 29.8533 87.5289 30.2249C88.2545 31.322 89.0685 34.0826 88.98 35.1267C88.8915 36.1354 88.9623 36.4539 89.2985 36.4539C89.8294 36.4539 89.8825 37.5157 89.387 38.312C89.1924 38.6305 88.9092 39.6038 88.75 40.4532C88.5199 41.745 88.3607 42.1344 87.936 42.5945C87.4405 43.1076 87.4051 43.2492 87.3697 44.5764C87.352 45.355 87.2989 46.0452 87.2458 46.0983C87.175 46.1514 86.3256 46.2398 85.3169 46.2929C83.9012 46.346 83.1049 46.5053 81.6184 46.9831C79.4064 47.6909 78.734 47.744 77.9023 47.2308C77.3537 46.8946 77.0705 46.8592 75.3186 46.9123L73.3544 46.9831L72.4873 47.6909C72.0095 48.0802 71.4255 48.5934 71.1954 48.8235C70.753 49.2659 69.9213 50.947 69.9213 51.3894C69.9213 51.761 69.4258 52.6281 68.9657 53.0705C68.6118 53.4068 68.5587 53.566 68.7003 53.8138C68.8242 54.0615 68.7888 54.2739 68.5764 54.5924C68.2579 55.0879 68.2048 55.1056 67.143 55.0348C66.6829 55.0171 66.3821 55.0879 66.3821 55.1941C66.3821 55.3002 66.2759 55.3887 66.1344 55.3887C65.7627 55.3887 65.1257 56.2735 65.1788 56.6982C65.2142 56.946 65.3734 57.0699 65.6389 57.0699C65.8866 57.0699 66.2228 57.2999 66.4883 57.6538C66.7537 57.9724 67.1076 58.2201 67.32 58.2201C67.5501 58.2201 67.8509 58.4325 68.0632 58.751C68.2579 59.0341 68.5056 59.2819 68.6118 59.2819C68.718 59.2819 69.2135 58.8572 69.709 58.3263C70.2576 57.76 70.8415 57.3176 71.1424 57.2468C71.4255 57.1937 71.7617 57.0168 71.8856 56.8752C71.9918 56.7336 72.1864 56.6275 72.2926 56.6275C72.5757 56.6275 73.8145 55.3356 73.8145 55.0348C73.8145 54.9109 73.956 54.6455 74.1153 54.4508C74.3277 54.2208 74.4338 53.7961 74.4338 53.0351C74.4515 52.4335 74.54 51.7787 74.6462 51.5841C74.7524 51.3894 74.9647 50.8054 75.1417 50.2923C75.4425 49.3544 75.8672 48.9297 76.3627 49.1243C76.7166 49.2659 76.7166 49.4428 76.3804 49.726C75.7256 50.2569 75.3894 51.0355 75.0532 52.6635C74.7524 54.1323 74.717 54.7517 74.8054 57.0699L74.9293 59.7774L74.2569 60.6091C73.549 61.4585 72.558 62.0602 70.5053 62.8388L69.4081 63.2635L69.0542 64.5907C68.8596 65.3162 68.541 66.7496 68.3287 67.776C67.9571 69.7756 67.6385 70.9259 67.4085 71.2444C67.32 71.3683 67.3023 71.7753 67.3731 72.1469L67.4793 72.8548L66.5768 72.9786C64.9664 73.191 64.2586 74.4651 65.0549 75.7392C65.285 76.1108 65.5681 76.4648 65.6743 76.5356C65.8866 76.6771 65.9043 77.9512 65.692 78.3583C65.6212 78.5175 65.4973 79.0838 65.4442 79.5793C65.285 80.9773 65.6566 81.3135 67.7978 81.7736C68.718 81.9683 70.2045 82.1629 71.0716 82.216C72.3103 82.2868 72.9297 82.4284 73.8145 82.8177C74.4515 83.1008 75.5664 83.4193 76.2919 83.5078C77.0175 83.614 78.3447 83.7733 79.2118 83.8971C80.0966 84.0033 81.2114 84.1626 81.6892 84.2511C83.6358 84.6227 85.0338 84.7642 88.5022 84.9412C92.1476 85.1182 93.6872 85.3128 97.2618 86.003C101.155 86.7639 102.641 86.8701 106.358 86.7108C110.021 86.5515 111.029 86.41 112.587 85.8614C113.312 85.6137 113.56 85.4544 113.595 85.1359C113.648 84.7465 113.648 84.7465 113.153 85.012C112.87 85.1536 112.534 85.4013 112.41 85.5429C112.073 85.9499 111.454 85.9145 111.578 85.5075C111.702 85.1182 110.976 84.3395 110.852 84.7112C110.729 85.0297 110.481 84.9943 110.41 84.6404C110.375 84.4103 110.215 84.4811 109.667 84.9943C109.295 85.3482 108.906 85.649 108.835 85.649C108.605 85.649 108.64 85.1536 108.87 85.0828C109.012 85.0297 108.977 84.9058 108.764 84.7112C108.216 84.1449 108.676 83.9148 110.233 83.9856C111.808 84.0741 112.463 83.8086 112.109 83.2247C112.003 83.0477 111.79 82.9061 111.666 82.9061C111.33 82.9061 109.844 82.0213 109.154 81.402C108.693 80.995 108.357 80.8888 107.349 80.7826C106.658 80.7295 105.455 80.5526 104.659 80.3933L103.208 80.1102L103.119 79.3846C102.889 77.5265 102.871 74.6421 103.084 73.1733C103.208 72.3062 103.261 71.3506 103.19 71.0498C102.96 69.988 103.615 64.5553 104.057 63.7413C104.199 63.4758 106.11 62.6441 106.57 62.6441C106.729 62.6441 107.119 62.8388 107.455 63.0865C108.605 63.9182 109.667 64.3783 111.773 64.9446C113.418 65.4047 114.002 65.6525 114.356 66.0241C115.276 67.0151 115.471 69.1209 114.852 71.4214C114.639 72.1823 114.409 73.2795 114.356 73.8458C114.232 74.8721 114.02 75.2083 113.418 75.2083C113.011 75.2083 112.923 75.3853 112.781 76.6594C112.622 77.9866 112.675 78.3229 113.047 78.4644C113.595 78.6768 114.958 77.4734 115.312 76.4294C115.471 76.0047 115.807 75.4384 116.055 75.173C116.497 74.7129 116.533 74.5359 116.657 72.4301C116.745 71.1736 116.887 69.7226 116.993 69.1917C117.347 67.3159 117.488 66.0949 117.347 66.0418C117.099 65.9533 116.427 64.4314 116.551 64.2545C116.604 64.1483 116.462 63.989 116.25 63.8652C116.02 63.7413 115.56 63.4404 115.223 63.175C114.887 62.9096 114.321 62.5556 113.985 62.361C113.648 62.184 112.781 61.5116 112.073 60.8922C110.923 59.8835 110.782 59.7066 110.888 59.2996C110.959 59.0518 111.1 58.7156 111.224 58.574C111.684 58.0254 112.056 57.1052 111.861 56.9106C111.773 56.8221 111.684 56.5921 111.684 56.4328C111.684 56.2558 111.454 55.7603 111.171 55.3356L110.64 54.5747L110.888 53.4245C111.012 52.8051 111.295 51.8318 111.489 51.2655C111.684 50.6993 111.985 49.3898 112.127 48.3457C112.286 47.3016 112.48 46.3814 112.551 46.3106C112.622 46.2398 113.047 46.3814 113.471 46.6292C113.896 46.8592 114.392 47.0716 114.551 47.0716C114.852 47.0716 116.073 47.4255 117.028 47.8148C117.329 47.921 117.648 48.2926 117.895 48.7881C118.426 49.9029 119.134 50.3099 120.267 50.1684C120.762 50.1153 121.275 50.0622 121.435 50.0622C121.612 50.0622 121.789 49.7437 121.948 49.142C122.072 48.6288 122.231 48.1333 122.319 48.0272C122.408 47.921 122.408 47.4432 122.319 46.9654C122.213 46.2929 121.877 45.6736 120.851 44.1871C119.7 42.5591 119.523 42.2051 119.594 41.7096C119.754 40.5063 119.7 40.2055 119.134 39.533C118.763 39.0729 118.586 38.6659 118.586 38.2766C118.586 37.8165 117.595 35.8522 116.851 34.8613C116.71 34.6666 116.32 35.4275 116.409 35.7461C116.533 36.1885 116.073 36.2239 115.312 35.8168C115.011 35.6576 114.569 35.5868 114.303 35.6399C113.985 35.7107 113.825 35.6576 113.861 35.5337C113.914 35.2329 113.064 34.8613 112.604 34.9851C112.392 35.0382 112.215 35.1798 112.215 35.3037C112.215 35.5514 111.613 35.7461 110.622 35.8522C110.286 35.8876 109.49 36.0115 108.853 36.1354C107.95 36.3123 107.667 36.4539 107.526 36.7724C107.384 37.091 107.207 37.1618 106.499 37.1618H105.65L105.791 36.0469C106.163 33.1978 105.738 30.0125 104.907 29.4816C104.199 29.0216 101.173 27.9775 100.005 27.7828C99.3676 27.6766 98.5713 27.5351 98.2351 27.4643C97.368 27.2696 96.9433 27.3758 97.0494 27.8005C97.1202 28.0483 97.0317 28.1721 96.7132 28.2429C96.4832 28.296 96.2885 28.4376 96.2885 28.5261C96.2885 28.6145 96.2 28.6676 96.0938 28.6322C95.9877 28.5968 95.9169 28.5084 95.9169 28.4376C95.9346 28.3668 95.8107 28.066 95.6514 27.7651C95.386 27.2342 95.386 26.8803 95.6691 25.8363C95.7222 25.5885 95.8107 25.2346 95.8461 25.0399C95.8815 24.8453 96.0408 24.0136 96.2 23.1818C96.4655 21.7485 96.4655 21.6246 96.1646 20.6336C95.8461 19.5895 95.8284 19.5718 94.8728 19.2356C93.6695 18.8286 92.2361 18.9171 91.7229 19.4303C91.5283 19.6249 91.2982 19.8019 91.192 19.8373C91.0682 19.8727 90.9443 20.7221 90.8735 21.89C90.7673 23.5535 90.8027 23.9074 91.0328 24.1374C91.2451 24.3675 91.2628 24.5444 91.1389 25.0753C90.6788 26.8626 90.2895 27.1812 89.387 26.5264C89.1039 26.2964 88.8561 26.0309 88.8385 25.9424C88.7854 25.3408 88.9446 23.1464 89.1393 22.0316C89.2278 21.3945 89.8294 20.0496 90.1126 19.8196C90.3426 19.6249 90.6258 18.9171 90.6965 18.4039C90.785 17.6607 90.8735 17.6076 91.9176 17.6076C92.7847 17.6076 92.8378 17.5722 92.8378 17.1652C92.8378 16.7936 92.7316 16.7051 92.0945 16.5812C91.2097 16.4042 91.1566 16.2096 91.6698 14.9178C91.8468 14.4577 92.2892 12.9889 92.6608 11.6794C93.0147 10.3699 93.4925 8.68874 93.7226 7.94551C94.1473 6.6183 95.0852 2.79594 95.3152 1.55722C95.4391 0.867068 95.3152 -4.02441e-05 95.0852 -4.02441e-05C95.0144 -4.02441e-05 94.6959 0.424666 94.3596 0.937853ZM96.7486 37.9935C96.8017 38.3651 96.9787 39.2499 97.1202 39.9754C97.2972 40.8956 97.3149 41.338 97.191 41.4619C96.8017 41.8512 96.5716 41.2319 96.5186 39.6038C96.4832 38.7013 96.377 37.8873 96.2885 37.7988C96.0408 37.5511 96.0762 37.3387 96.377 37.3387C96.5363 37.3387 96.6778 37.5865 96.7486 37.9935ZM82.8395 61.14C83.4765 62.1663 83.1757 63.4051 81.8308 65.3693C80.8575 66.785 80.8398 66.7496 83.7774 70.6074C84.5383 71.616 85.4408 72.9786 85.7593 73.6334C86.0956 74.2882 86.6264 75.0491 86.9627 75.3145C87.5997 75.8454 88.0775 76.5886 87.9006 76.7656C87.8475 76.8187 87.5997 76.6771 87.3697 76.4648L86.9273 76.0578L86.3256 76.4294C85.8301 76.7302 85.4408 76.801 84.2375 76.801C82.0255 76.801 79.141 76.4471 78.2916 76.0755C77.8846 75.8985 77.4245 75.7923 77.2829 75.8454C77.0175 75.9516 75.6372 75.4915 74.5577 74.9429C74.1507 74.7306 73.9029 74.6952 73.7614 74.819C73.6198 74.9429 73.2659 74.9429 72.6996 74.8013C72.0626 74.6598 71.6378 74.6598 71.0539 74.819C70.0098 75.1022 69.7444 75.0845 69.3551 74.7306C68.9127 74.3412 68.948 73.4741 69.4081 72.9609C69.7267 72.6424 69.8152 72.2354 69.939 70.8905C70.2045 67.6875 70.5407 66.8204 71.7263 66.1126C72.151 65.8648 73.7437 65.2454 75.2832 64.6969C78.5216 63.582 80.4682 62.5556 81.6007 61.37C82.0432 60.9099 82.4148 60.5206 82.4325 60.5206C82.4502 60.5206 82.6271 60.8037 82.8395 61.14ZM91.369 62.4495C91.8114 62.7326 92.36 63.0157 92.59 63.0865C92.8201 63.1573 93.174 63.3166 93.3687 63.4228C93.9526 63.7944 95.9346 64.1483 97.4034 64.1483H98.7837L98.9429 64.7677C99.0314 65.1039 99.2261 66.0595 99.3676 66.8912C99.5092 67.7229 99.7569 69.0324 99.9339 69.7933C100.093 70.572 100.182 71.4745 100.129 71.8107C100.058 72.1646 100.182 73.0671 100.376 73.9519C100.659 75.1022 100.73 75.8808 100.677 77.1903C100.642 78.1459 100.536 78.9953 100.429 79.1015C100.252 79.2784 99.173 79.1369 98.1466 78.7653C97.8635 78.6768 97.1379 78.4644 96.5539 78.3229C95.97 78.1813 94.8905 77.8982 94.165 77.7035C93.4394 77.5088 92.6254 77.3319 92.36 77.3319C92.0237 77.3319 91.776 77.1903 91.5636 76.8364C91.4044 76.5709 90.8558 75.9516 90.3603 75.4738C89.8471 74.9783 88.98 73.9519 88.4137 73.1733C87.8475 72.3947 86.9627 71.2267 86.4495 70.5897C84.3083 67.953 84.3967 66.7496 86.945 64.166C87.8298 63.2812 88.6615 62.5733 88.8031 62.6087C89.1393 62.6795 90.0949 62.3079 90.0949 62.0955C90.0949 61.8124 90.555 61.9363 91.369 62.4495Z" fill="black"/>
<path d="M24.513 4.56584C24.1414 4.84898 21.9648 7.83962 21.9648 8.03428C21.9648 8.08736 20.9915 9.62692 19.8058 11.4496C18.6379 13.29 17.3815 15.272 17.0276 15.8736C16.6736 16.4753 16.3374 16.9885 16.2843 16.9885C16.072 16.9885 15.895 15.3251 16.1074 15.2543C16.3374 15.1835 16.3728 14.0509 16.1428 13.9094C16.0543 13.8563 15.7357 13.3785 15.4526 12.8476C15.1164 12.2636 14.5855 11.662 14.0015 11.255C13.1698 10.6533 13.0459 10.6179 12.7097 10.848C12.285 11.1311 11.2409 13.0423 11.064 13.8917C10.9932 14.1748 10.8693 14.511 10.7808 14.6349C10.5508 14.9358 10.7808 15.8736 11.1171 15.9975C11.3471 16.086 11.3825 16.2984 11.2763 17.2185C11.1879 18.068 11.2232 18.4042 11.4533 18.7227C11.5949 18.9351 11.701 19.3775 11.6656 19.6783C11.6303 20.1561 11.5064 20.28 11.0463 20.4215C10.3561 20.6162 10.0553 20.4215 9.55981 19.4306C9.36515 19.0589 9.09971 18.7581 8.94045 18.7581C8.7104 18.7581 8.67501 18.8997 8.78118 19.5898C8.88736 20.4392 8.88736 20.4392 8.12643 20.917C6.97618 21.6249 6.62226 22.1027 6.49839 23.076C6.39221 24.0138 6.0029 24.5978 5.50741 24.5978C5.01192 24.5978 4.44564 25.2703 4.44564 25.8896C4.44564 26.2082 4.23329 26.7744 4.00324 27.1638C3.49005 27.9778 3.45466 28.4379 3.80858 29.2873C4.26868 30.349 4.87035 30.5791 6.79922 30.3314C7.3478 30.2606 7.8079 30.2606 7.8079 30.3314C7.8079 30.4021 7.64863 30.6853 7.43628 30.9507C7.13545 31.3577 7.08236 31.6055 7.18854 32.2071C7.3478 33.145 7.68403 33.2689 8.35648 32.6318C8.81658 32.1894 8.86966 32.0302 8.78118 31.5347C8.62192 30.7207 8.81658 30.2075 9.24128 30.3137C9.41824 30.3667 9.57751 30.3314 9.57751 30.2606C9.57751 30.1721 9.73677 30.0482 9.93143 29.9951C10.1261 29.942 10.2854 29.7651 10.2854 29.6412C10.2854 29.4996 10.4446 29.305 10.6216 29.1988C10.9047 29.0572 11.0286 29.128 11.3294 29.6058C11.5418 29.942 11.6126 30.2429 11.5241 30.3314C11.4356 30.4198 11.4179 30.703 11.471 30.9684C11.5595 31.4285 11.4356 31.7293 10.6747 32.9681C10.4977 33.2866 9.96682 33.6582 9.31207 33.9414C7.70172 34.6846 7.10005 35.0208 7.10005 35.2509C7.10005 35.357 7.27702 35.711 7.47167 36.0472C7.84329 36.6312 7.84329 36.6666 7.52476 36.8966C7.3301 37.0382 7.11775 37.162 7.02927 37.162C6.94079 37.162 6.40991 37.4806 5.84363 37.8699C5.27736 38.2592 4.6403 38.5777 4.42794 38.5777C3.91476 38.5777 2.69373 39.2856 2.58755 39.6395C2.53446 39.7988 2.18054 40.2589 1.80892 40.6659C0.817942 41.7276 0.039314 43.4619 0.00392185 44.6652C-0.0314703 45.6562 0.163187 46.134 0.977207 47.0719C1.20726 47.3196 1.4727 47.9213 1.59657 48.4345C1.79123 49.2131 1.77353 49.4254 1.52579 49.8855C1.38422 50.1864 1.17186 50.4341 1.06569 50.4341C0.941815 50.4341 0.906423 50.5934 0.959511 50.8234C1.0126 51.0358 0.994903 51.3366 0.888726 51.5136C0.78255 51.7436 0.817942 52.0445 1.0126 52.5576C1.26034 53.1593 1.38422 53.2655 1.80892 53.2655C2.10976 53.2655 2.3752 53.1593 2.42829 53C2.56986 52.6638 2.92378 52.6638 3.20691 53C3.33079 53.1416 3.57853 53.2655 3.75549 53.2655C4.00324 53.2655 4.12711 53.4248 4.21559 53.7964C4.26868 54.1503 4.44564 54.3626 4.69339 54.4334C4.90574 54.4865 5.25966 54.805 5.48971 55.1413C5.89672 55.7252 5.91442 55.8491 5.80824 57.6541L5.70206 59.5299L6.49839 60.7863C9.86064 65.989 10.1084 66.396 10.1084 66.9623C10.1084 67.2985 8.28569 68.4133 7.3478 68.6434C5.25966 69.1743 3.84397 70.1829 3.17152 71.634L2.8176 72.4127L3.22461 72.8374C3.43696 73.0674 3.79089 73.3152 3.98554 73.3682C4.1979 73.439 4.60491 73.6691 4.88804 73.8814C5.18888 74.1115 6.53378 74.6955 7.89638 75.1909C9.25898 75.6864 10.5685 76.2173 10.8162 76.3589C12.0904 77.0844 12.7451 77.403 13.5591 77.7038C14.0369 77.8631 14.8863 78.1816 15.4172 78.3939C17.47 79.1903 19.0803 79.6681 19.9297 79.7565C20.4252 79.7919 21.1508 79.9866 21.5578 80.1635C21.9825 80.3582 22.3895 80.5175 22.4957 80.5175C22.6018 80.5175 22.8142 80.5883 22.9911 80.6944C23.3982 80.9068 26.5304 81.8801 27.8753 82.1986C29.1317 82.4994 30.4766 82.5348 31.9631 82.2871C32.547 82.1986 33.3788 82.0747 33.8212 82.0216C34.2636 81.9685 35.0245 81.7385 35.52 81.4908C36.0155 81.243 36.918 80.9599 37.5373 80.8537C38.5283 80.6944 39.6609 80.3582 42.5807 79.3495C43.5717 79.0133 44.4919 78.4293 44.368 78.2347C44.3149 78.1639 44.2442 77.8807 44.1911 77.5976C44.0672 76.9075 43.7487 76.6243 42.9169 76.5005C42.5453 76.4474 42.1029 76.3058 41.9614 76.1819C41.8198 76.0581 41.2712 75.7395 40.7757 75.4918C40.2625 75.244 39.8378 74.9609 39.8378 74.8901C39.8378 74.8193 39.4485 74.3061 38.9707 73.7753C38.2806 72.9966 38.0682 72.625 37.9797 71.9526C37.909 71.4925 37.6612 70.9085 37.4489 70.643C36.5817 69.599 35.2014 66.0952 34.7767 63.8831C34.5821 62.8391 34.2813 61.9897 33.8035 61.1049C32.8125 59.2999 32.6001 58.4327 32.5824 56.1853C32.5824 55.1236 32.5116 53.9202 32.4055 53.5309C32.1046 52.2568 32.1754 51.6197 32.7063 51.1066C33.5203 50.3633 34.1043 49.6555 34.2282 49.3193C34.2989 49.1423 34.529 49.0184 34.7944 49.0184C35.3076 49.0184 35.3607 48.7353 34.9537 48.2929C34.6706 47.9921 34.706 47.8682 35.3961 46.4348C36.1924 44.7714 36.2986 44.0635 35.8031 43.568C35.5377 43.3026 35.4846 42.9664 35.5023 41.5861C35.5377 39.7103 35.6615 39.1086 36.0509 39.1086C36.918 39.1086 38.2452 37.7106 38.2452 36.7904C38.2452 36.4188 38.1036 36.2595 37.5196 36.0118C36.7056 35.6402 36.564 35.4278 36.4225 34.313L36.3163 33.4813L37.148 33.1804C38.1213 32.8088 38.546 32.4903 38.8999 31.8001C39.1831 31.2515 39.0592 30.296 38.7053 30.1544C38.5814 30.1013 37.9266 30.3844 37.2542 30.7561C35.4846 31.7647 35.4138 31.7824 34.7944 30.9153C34.1397 30.0305 32.2993 28.9157 31.1667 28.7033C30.7243 28.6325 29.9811 28.6148 29.4856 28.6856C29.0078 28.7387 28.5831 28.7741 28.5477 28.7564C28.53 28.7387 28.6185 28.1016 28.7778 27.3584C28.937 26.6152 29.0786 25.0579 29.0963 23.89C29.114 22.0142 29.0786 21.7134 28.7601 21.3063C28.5654 21.0409 28.2823 20.7755 28.1407 20.7047C28.0168 20.6339 27.716 20.4923 27.5036 20.3685C27.2382 20.2446 27.0966 20.2446 27.0966 20.3508C27.0966 20.6339 26.7073 20.5631 26.4596 20.2092C26.2295 19.926 26.2295 19.926 26.2118 20.2446C26.2118 20.5631 26.1941 20.5631 25.734 20.2623C25.327 19.9791 24.9554 19.9614 22.9558 20.0499C21.1154 20.1207 20.5668 20.0853 20.2836 19.8907C20.1067 19.7491 19.7351 19.6429 19.4696 19.6429C18.9741 19.6429 18.7795 19.3067 18.7795 18.3688C18.7795 17.3601 18.0893 17.8025 17.7885 18.9882C17.7177 19.289 17.5054 19.5544 17.2399 19.6606C16.6206 19.8907 16.5144 19.873 16.302 19.4483C16.1251 19.1474 16.3374 18.705 17.7354 16.316C18.6379 14.7942 20.1067 12.4229 20.9915 11.0603C21.8763 9.69771 22.9735 8.01658 23.4159 7.34413C24.8846 5.07903 25.3447 3.89339 24.513 4.56584ZM21.5224 31.2339C21.7878 32.2602 21.9648 33.145 21.9117 33.1981C21.8586 33.2512 21.5224 33.2158 21.1331 33.1096C20.7614 33.0035 20.1952 32.915 19.8943 32.915C19.4165 32.915 19.2396 32.7911 18.8503 32.2248C18.2486 31.2869 18.0893 30.1898 18.514 29.7297C18.7618 29.4465 19.0626 29.3758 19.9297 29.3758H21.0269L21.5224 31.2339ZM33.4672 47.1957C33.4672 47.6204 33.3964 47.9567 33.2903 47.9567C33.0071 47.9567 31.6976 47.3904 31.6976 47.2665C31.6976 47.2134 31.6445 47.0011 31.5914 46.8064C31.503 46.4879 31.5914 46.4525 32.4763 46.4525H33.4672V47.1957ZM14.9571 52.8408C15.0279 53.2124 15.1695 53.6902 15.2403 53.8848C15.3287 54.0795 15.4349 54.4511 15.488 54.6989C15.7004 55.6368 16.6736 55.4775 17.7354 54.3096C18.5494 53.4424 18.9918 53.4071 19.2927 54.2388C19.7174 55.4421 21.08 56.0438 24.3184 56.4508C25.0262 56.5393 25.9818 56.7693 26.4419 56.964C27.2382 57.3002 27.2736 57.3533 27.309 58.0788C27.3798 59.4591 27.2913 59.9723 26.8489 60.8217C26.4065 61.7065 24.8846 63.3523 24.513 63.3523C24.3891 63.3523 24.2653 63.4761 24.1945 63.6177C24.1414 63.7593 23.8936 63.8831 23.6459 63.8831C23.0088 63.8831 21.8763 65.0688 21.717 65.9182C21.5932 66.5376 21.5755 66.5553 21.2746 66.2898C21.0977 66.1305 20.8322 66.0067 20.673 66.0067C20.5137 66.0067 20.3544 65.9359 20.2836 65.8474C20.2306 65.7589 19.9474 65.6351 19.6643 65.5643C19.3634 65.4935 19.1688 65.3696 19.2219 65.2988C19.3811 65.0334 17.9832 62.4321 17.3815 61.8658C17.0099 61.5119 16.8329 61.1756 16.8329 60.8217C16.8329 60.1316 16.5675 59.6715 15.6827 58.8398C13.3645 56.6631 11.6833 54.4865 11.701 53.6725C11.7187 53.1062 12.3027 52.6107 13.1344 52.4692C13.5591 52.3984 14.0369 52.2745 14.1785 52.186C14.6032 51.9383 14.7802 52.0975 14.9571 52.8408ZM10.7101 57.0171C10.5331 57.601 10.5862 58.6982 10.8339 59.1406C10.9578 59.3706 11.2763 59.8307 11.5595 60.1847C12.9575 61.9189 13.8423 64.2725 13.2052 64.5202C13.0636 64.591 12.9398 64.7856 12.9398 64.9626C12.9398 65.1396 12.8513 65.2988 12.7451 65.2988C12.3381 65.2988 10.6039 63.2638 10.073 62.1312C9.5952 61.1402 9.50672 60.7155 9.43594 59.2291C9.38285 58.1496 9.43594 57.0878 9.57751 56.4862L9.78986 55.4952L10.3207 56.0792C10.6924 56.4862 10.7985 56.7516 10.7101 57.0171ZM30.6713 60.9987C30.9721 61.6711 31.2906 62.6267 31.3614 63.1576C31.4499 63.7947 31.7684 64.5556 32.3347 65.5466C33.4141 67.3693 33.945 68.431 34.1043 69.0858C34.2105 69.5459 34.1928 69.5813 33.8035 69.4574C32.9894 69.192 32.8479 69.2451 32.7948 69.8998C32.7594 70.236 32.6355 70.5723 32.5293 70.643C32.3701 70.7315 32.4055 70.997 32.6355 71.634C32.7948 72.1295 32.9363 72.5719 32.9363 72.6427C32.9363 72.8905 32.0869 72.4834 31.1137 71.7225C29.9457 70.8377 29.4325 70.6077 28.6716 70.6077C28.3708 70.6077 27.7691 70.4484 27.309 70.2714C26.8489 70.0945 25.9287 69.7582 25.2385 69.5459C23.929 69.1389 23.3805 68.785 23.3805 68.3249C23.3628 68.1656 23.0442 67.8117 22.6549 67.5462C22.2479 67.2631 21.9648 67.0153 22.0002 66.9623C22.0533 66.9269 22.6549 66.9623 23.3628 67.0507C24.8492 67.2454 25.4509 67.1038 26.088 66.4668C26.3357 66.219 26.6542 66.0067 26.7958 66.0067C27.2559 66.0067 27.8399 65.1396 28.1407 64.0247C28.4592 62.8922 29.8218 59.813 30.0165 59.813C30.0873 59.813 30.3704 60.3439 30.6713 60.9987Z" fill="black"/>
<path d="M169.71 14.3159C169.356 14.7052 169.002 15.2892 168.931 15.6077C168.86 15.9262 168.595 16.5102 168.33 16.8995C167.728 17.8374 167.692 19.3593 168.276 20.5449C168.489 20.9873 168.666 21.4474 168.666 21.589C168.666 21.7128 168.79 21.9606 168.931 22.1198C169.285 22.5092 169.09 23.0047 168.577 23.0047C168.347 23.0047 168.135 23.0577 168.099 23.1285C168.011 23.3409 166.135 24.2434 165.781 24.2434C165.622 24.2434 165.48 24.3142 165.48 24.3849C165.48 24.4734 165.109 24.8097 164.649 25.1282C164.171 25.4644 163.463 26.0661 163.056 26.4908C162.525 27.0394 162.171 27.2517 161.8 27.2517C161.517 27.2517 161.145 27.411 160.968 27.6056C160.791 27.8003 160.331 28.0126 159.959 28.0657C158.898 28.2427 158.898 28.2604 160.03 30.4547C160.207 30.8086 160.349 31.2687 160.349 31.4634C160.349 31.6757 160.508 31.8527 160.72 31.9058C160.986 31.9766 161.074 32.1004 160.986 32.2951C160.915 32.4898 161.216 33.056 161.835 33.9054C162.826 35.2857 162.861 35.445 162.561 36.8784C162.437 37.5331 162.454 37.6216 163.003 38.064C163.552 38.5241 163.569 38.5595 163.357 39.1966C163.091 40.0283 163.233 41.1785 163.729 42.1695C163.941 42.5765 164.082 42.9481 164.047 42.9835C164.012 43.0189 163.587 43.0543 163.091 43.0897C161.198 43.1782 159.11 43.4967 158.721 43.7445C158.49 43.9037 157.942 44.0807 157.517 44.1515C157.075 44.2223 156.438 44.5054 156.102 44.7531C155.765 45.0186 155.093 45.3725 154.633 45.5495C154.155 45.7264 153.73 46.0096 153.677 46.1688C153.624 46.3281 153.164 46.8413 152.668 47.3368C151.996 47.9915 151.66 48.487 151.412 49.1949C151.164 49.9381 150.775 50.5044 149.749 51.6015C148.315 53.1057 146.351 56.0786 145.909 57.4059C145.679 58.0783 145.661 58.3791 145.838 59.2285C146.015 60.131 146.174 60.3788 147.077 61.2459C147.643 61.7945 148.244 62.5377 148.386 62.8916C148.528 63.2456 149.076 64.0242 149.572 64.5905C150.704 65.9 151.306 66.0062 151.872 65.0329C152.385 64.1658 152.952 64.2011 153.553 65.1213C153.907 65.6522 154.173 65.8469 154.668 65.9354C155.022 66.0062 155.464 66.2008 155.659 66.3778C155.854 66.5547 156.349 66.714 156.809 66.7494C157.694 66.8025 157.712 66.8733 157.429 68.3597C157.305 68.9614 157.34 69.0676 157.889 69.5454C158.225 69.8462 159.004 70.4479 159.641 70.9257C160.649 71.6512 160.809 71.8459 160.879 72.4475C160.95 72.9961 161.092 73.1908 161.517 73.4385C162.313 73.8455 163.888 75.7036 163.888 76.2168C163.888 76.5353 163.976 76.6238 164.313 76.6238C164.896 76.6238 165.003 76.8362 164.702 77.4555C164.578 77.721 164.348 78.1811 164.224 78.4819C164.029 78.8889 163.817 79.0305 163.304 79.119C162.932 79.172 162.543 79.3136 162.419 79.4375C162.313 79.5437 161.906 79.6321 161.517 79.6321C160.667 79.6321 160.419 79.7737 160.331 80.2338C160.278 80.4816 160.012 80.6408 159.375 80.8001C158.756 80.9593 158.331 81.2071 157.96 81.6318C157.676 81.968 157.181 82.3219 156.88 82.4458C155.695 82.9059 154.491 84.9233 155.128 85.4011C155.5 85.6842 159.145 86.162 162.472 86.3567C166.542 86.6044 187.707 86.7991 189.547 86.6221C189.883 86.5867 191.441 86.4274 192.998 86.2859C196.626 85.9496 198.271 85.578 198.979 84.941C199.386 84.5693 199.492 84.3747 199.404 84.0385C199.28 83.5607 197.528 82.2866 196.997 82.2866C196.803 82.2866 196.077 81.7203 195.351 81.0124C194.644 80.3223 193.688 79.4021 193.246 78.9774L192.432 78.1988L191.281 78.8181C190.131 79.4552 189.547 79.6144 189.547 79.2782C189.547 79.172 189.352 79.1013 189.105 79.1013C188.857 79.1013 188.662 79.0128 188.662 78.9243C188.662 78.6589 188.202 78.7119 187.954 79.0128C187.618 79.4198 187.14 79.3313 186.68 78.7473C186.45 78.4465 185.973 77.8802 185.601 77.4555C185.229 77.0485 184.875 76.4822 184.805 76.1991C184.698 75.7921 184.521 75.6328 184.097 75.5266C183.672 75.4205 183.53 75.2789 183.53 74.9781C183.53 74.4472 182.893 73.4385 182.557 73.4385C182.416 73.4385 182.221 73.2792 182.115 73.0846C181.92 72.713 181.867 72.7838 183.371 71.4035C185.159 69.74 185.601 69.4746 186.45 69.5277C186.893 69.5454 187.654 69.4392 188.167 69.2799C188.662 69.1384 189.459 69.0145 189.901 69.0145C190.786 69.0145 190.857 68.9614 192.998 66.5193C193.387 66.0769 194.219 65.139 194.856 64.4135C195.493 63.688 196.307 62.8032 196.661 62.4492C197.794 61.299 197.864 61.0866 197.811 59.494C197.74 57.6713 197.599 57.512 194.98 56.1317C192.927 55.07 192.485 54.6983 191.511 53.3888L190.927 52.5571L191.051 50.3628C191.211 47.7261 190.963 46.7351 189.866 45.5495L189.176 44.7885L189.352 43.4436C189.459 42.7004 189.547 41.1078 189.547 39.9221C189.547 38.7188 189.6 37.4801 189.653 37.1792L189.777 36.6306H192.042C194.838 36.6306 195.068 36.4891 195.405 34.6841C195.688 33.2861 195.758 33.1622 196.555 33.0383C197.387 32.8968 197.864 32.4544 197.864 31.8173C197.864 31.5165 197.953 31.3218 198.094 31.3218C198.608 31.3218 198.961 30.6848 198.82 30.0123C198.714 29.3752 198.714 29.3752 199.192 29.5522C200.324 29.9769 200.253 29.1806 199.068 28.0126C198.006 26.9686 197.617 26.827 196.342 27.0394C195.564 27.1632 195.316 27.1278 194.484 26.7208C193.953 26.4731 193.299 26.0484 193.016 25.7829C192.679 25.4644 192.308 25.3051 191.936 25.3051C191.564 25.3051 191.228 25.1459 190.945 24.845C190.591 24.4557 190.503 24.1726 190.432 22.81C190.379 21.9429 190.273 21.2173 190.166 21.182C190.078 21.1643 189.706 21.7305 189.352 22.4561C188.981 23.217 188.538 23.8718 188.255 24.031C187.813 24.2965 187.76 24.2965 187.371 23.9248C186.822 23.4117 186.61 23.4294 186.344 24.0487C185.955 24.9158 185.548 24.8627 184.221 23.801L183.017 22.8277L183.088 23.3763C183.212 24.3673 183.389 25.0397 183.637 25.3936C183.991 25.8891 183.955 26.1546 183.354 26.8978C183.07 27.2694 182.823 27.7118 182.823 27.9065C182.823 28.4727 182.504 28.6497 181.92 28.4374C181.637 28.3312 181.407 28.1896 181.407 28.1188C181.407 28.0657 181.177 27.7118 180.876 27.3402C180.593 26.9686 180.345 26.5262 180.345 26.3492C180.345 26.1369 180.221 26.013 180.009 26.013C179.814 26.013 179.478 25.7475 179.266 25.429C179.053 25.1282 178.699 24.7035 178.487 24.5088C178.275 24.3142 178.062 24.0133 177.992 23.8364C177.779 23.2524 176.948 23.4647 176.116 24.3142C175.408 25.0397 175.302 25.0928 174.877 24.8981C174.629 24.7743 174.258 24.5442 174.063 24.3849C172.665 23.1993 172.7 23.2347 172.895 22.8808C172.984 22.6861 173.355 22.2791 173.691 21.996C174.505 21.2704 174.665 20.9165 174.806 19.6247C174.895 18.7222 174.859 18.5098 174.629 18.3683C174.452 18.2798 174.328 18.0851 174.328 17.9436C174.328 17.5189 173.444 15.5546 172.948 14.8821C172.24 13.9089 171.833 13.6257 171.072 13.6257C170.488 13.6257 170.276 13.7496 169.71 14.3159ZM166.772 28.6143C166.825 28.7028 166.985 29.6584 167.162 30.7732C167.321 31.8881 167.569 33.0914 167.71 33.4276C168.029 34.1886 167.905 35.1973 167.374 36.1352C167.038 36.7368 166.932 36.8076 166.277 36.8076C165.445 36.8076 165.144 36.5599 164.72 35.5158C164.56 35.1619 164.366 34.861 164.277 34.861C164.189 34.861 163.976 34.3655 163.835 33.7462C163.675 33.1268 163.428 32.4013 163.304 32.1535C163.127 31.7996 163.091 31.4634 163.198 30.9148C163.268 30.5078 163.339 30.1185 163.357 30.03C163.357 29.9592 163.888 29.6584 164.56 29.3575C165.215 29.0744 165.87 28.7559 166.011 28.6674C166.348 28.4727 166.666 28.455 166.772 28.6143ZM175.16 31.7111C175.231 31.835 175.302 32.012 175.302 32.1181C175.355 32.7021 175.638 33.64 175.815 33.7816C175.921 33.8701 176.523 33.9939 177.16 34.0647C178.115 34.1709 178.363 34.1355 178.558 33.9054C179.018 33.3392 179.637 33.6754 179.301 34.3125C179.16 34.5602 179.177 34.8256 179.372 35.3034C179.531 35.6574 179.602 36.0113 179.567 36.0821C179.513 36.1705 178.788 36.2767 177.956 36.3475C176.31 36.4891 176.169 36.4183 175.479 35.3388C175.196 34.8787 175.089 34.8433 174.452 34.9672C173.851 35.0557 173.762 35.038 173.851 34.7902C173.921 34.631 174.152 33.817 174.364 33.0029C174.753 31.5165 174.895 31.2864 175.16 31.7111ZM178.204 37.6216C178.823 37.7455 178.876 37.9578 178.434 38.5241L178.133 38.9311L177.726 38.2233C177.301 37.4801 177.319 37.4447 178.204 37.6216ZM150.97 56.0963C150.97 56.1848 151.235 56.3795 151.554 56.5033C151.872 56.6449 152.545 57.2643 153.093 57.9367C153.606 58.5738 154.633 59.5825 155.341 60.1664C156.048 60.7504 156.862 61.5644 157.146 61.9537C157.659 62.6439 157.995 63.6349 157.818 63.8295C157.641 64.0065 156.42 63.4933 155.871 62.9978C155.553 62.7324 155.075 62.4492 154.774 62.3431C154.332 62.2015 154.208 62.0245 154.031 61.3344C153.801 60.4319 153.376 59.9541 152.297 59.4763C151.908 59.2993 151.501 59.0339 151.394 58.91C151.076 58.5207 150.403 56.3087 150.527 56.0963C150.669 55.8663 150.97 55.8663 150.97 56.0963ZM189.158 57.689C190.149 57.8836 191.317 58.0429 191.724 58.0429C192.219 58.0429 192.821 58.2376 193.529 58.6269C194.573 59.1755 194.591 59.2109 194.644 60.0249C194.679 60.5911 194.591 61.0689 194.343 61.5644C193.759 62.697 192.308 64.3073 190.998 65.2983C190.308 65.7938 189.724 66.3601 189.671 66.5547C189.583 66.891 189.087 67.1918 188.91 67.0148C188.857 66.9617 188.945 66.6786 189.087 66.3778C189.476 65.6345 189.441 64.9267 188.963 64.2188C187.813 62.5377 185.831 58.273 185.831 57.4943C185.831 57.2289 187.194 57.3174 189.158 57.689ZM180.858 59.087C181.407 59.6533 182.416 60.5558 183.088 61.0866C184.787 62.4315 185.3 62.9624 185.689 63.8472C186.061 64.6612 186.008 65.4222 185.548 66.0769C184.663 67.3511 181 70.4302 180.381 70.4302C180.31 70.4302 179.974 70.6779 179.655 70.9964C179.248 71.3858 179.018 71.5096 178.859 71.3858C177.938 70.731 177.673 70.5894 177.39 70.6779C176.983 70.8018 174.629 73.5624 174.753 73.7747C174.806 73.8632 175.567 73.8986 176.452 73.8809C177.921 73.8278 178.505 73.9517 178.045 74.2348C177.938 74.3056 177.921 74.4295 177.974 74.5357C178.045 74.6418 178.115 75.2435 178.151 75.8806C178.186 77.0131 178.186 77.0131 177.602 77.2609C177.266 77.3847 176.948 77.6856 176.894 77.8979C176.7 78.535 176.257 78.9243 175.762 78.9243C175.496 78.9243 174.983 79.0836 174.612 79.2782C173.904 79.6321 173.621 79.6144 173.621 79.1897C173.621 79.0659 173.426 78.9066 173.178 78.8535C172.877 78.7827 172.559 78.4288 172.187 77.774C171.886 77.2432 171.409 76.6061 171.126 76.3761C170.842 76.1283 170.63 75.8629 170.648 75.7921C170.665 75.7213 170.542 75.0489 170.347 74.3233C170.081 73.1908 169.904 72.8899 169.267 72.2883C168.825 71.8813 168.471 71.3504 168.4 71.0318C168.259 70.3417 167.746 69.8462 166.684 69.3861C165.834 69.0322 164.649 67.9527 163.145 66.1477C161.676 64.4135 161.782 63.9534 164.082 62.2369C165.569 61.1043 166.33 60.308 167.002 59.1401C167.356 58.503 167.498 58.4676 168.135 58.8392C168.383 58.9808 168.754 59.087 168.967 59.1047C169.179 59.1047 169.427 59.2285 169.515 59.3878C169.639 59.6179 169.834 59.6533 170.365 59.5648C170.736 59.494 171.727 59.3701 172.541 59.2993C173.638 59.1755 174.098 59.0516 174.258 58.8392C174.452 58.5915 174.682 58.5384 175.514 58.6092C176.151 58.6623 176.788 58.6092 177.16 58.4676C177.992 58.1668 178.363 58.096 179.177 58.0606C179.797 58.0429 179.956 58.1491 180.858 59.087Z" fill="black"/>
</svg>
