<svg width="35" height="54" viewBox="0 0 35 54" fill="none" xmlns="http://www.w3.org/2000/svg">
<mask id="path-1-inside-1" fill="white">
<path d="M21.6198 0.371819C21.4792 0.746883 21.4536 0.86196 21.4536 1.16031C21.4494 1.35636 21.4451 1.51406 21.4366 1.51406C21.4323 1.51406 21.3812 1.48423 21.33 1.45013C21.249 1.39898 21.2192 1.39898 21.1041 1.45439C20.8697 1.56947 20.7419 1.94453 20.8271 2.27271C20.8868 2.49008 20.9848 2.52844 21.1254 2.39205C21.2192 2.29829 21.2235 2.27271 21.1766 2.17042C21.1468 2.09797 21.1425 2.0383 21.1681 2.01273C21.2192 1.96158 21.3258 2.13206 21.3599 2.33238C21.3854 2.46025 21.3769 2.49434 21.3258 2.49434C21.1894 2.49434 21.053 2.59663 20.9379 2.77564L20.8186 2.96317H20.435C20.0812 2.96317 20.0557 2.95891 20.077 2.88219C20.0898 2.83531 20.0684 2.75859 20.0343 2.70745C19.9747 2.62221 19.9747 2.60516 20.0557 2.52418C20.1324 2.45172 20.1622 2.4432 20.2517 2.48582C20.3796 2.54123 20.4052 2.51992 20.4052 2.33665C20.4052 2.13633 20.2347 1.96584 20.0684 2.0042C19.9619 2.02551 19.9448 2.01699 19.9193 1.9147C19.8852 1.78683 19.6934 1.44161 19.638 1.40751C19.5954 1.38194 19.4249 1.86781 19.4249 2.00846C19.4249 2.09371 19.4121 2.10223 19.297 2.06813C19.118 2.01699 18.9816 2.13206 18.9816 2.34091C18.9816 2.53696 19.0541 2.61794 19.1691 2.54549C19.2629 2.49008 19.3652 2.51565 19.3993 2.6009C19.4206 2.66483 19.3098 2.92055 19.2373 2.9717C19.2118 2.98875 19.0455 3.00579 18.8708 3.00579C18.696 3.00579 18.2741 3.03563 17.9331 3.06973C17.2768 3.13366 17.2299 3.12087 17.2725 2.9376C17.281 2.89072 17.264 2.80974 17.2299 2.76286C17.183 2.69466 17.1787 2.64352 17.2128 2.51139C17.2768 2.27698 17.4046 2.15338 17.5794 2.15338C17.7158 2.15338 17.7243 2.15764 17.7115 2.30255C17.7072 2.4091 17.7286 2.46877 17.784 2.51565C17.9758 2.6563 18.2016 2.54549 18.2741 2.27698C18.3977 1.81667 17.8223 1.45013 17.3066 1.66323C17.2256 1.69733 17.1532 1.72717 17.1489 1.72717C17.1446 1.72717 17.1489 1.61209 17.1574 1.4757C17.1787 1.17309 17.1191 0.96425 16.9315 0.7C16.8548 0.589186 16.7568 0.440012 16.7227 0.367556C16.6843 0.295101 16.6375 0.235431 16.6204 0.235431C16.565 0.235431 16.2667 1.1049 16.2709 1.2626C16.2709 1.34784 16.3008 1.50127 16.3348 1.5993C16.3689 1.70159 16.3903 1.7911 16.3817 1.80388C16.3689 1.81241 16.2965 1.79962 16.2112 1.76979C16.0024 1.70159 15.7723 1.757 15.5975 1.9147C15.3972 2.09797 15.3162 2.26419 15.3546 2.42615C15.3716 2.49861 15.3887 2.69466 15.3972 2.86088C15.4057 3.03137 15.4228 3.21038 15.4398 3.26152C15.4696 3.35102 15.4611 3.35529 15.3716 3.32971C15.3162 3.31267 15.1756 3.29136 15.0562 3.28283L14.8431 3.26578L15.0477 3.30414C15.3205 3.35102 15.3503 3.38938 15.1159 3.39365C14.8772 3.39791 14.6982 3.42774 14.6044 3.47889C14.4936 3.53856 14.3956 3.52577 14.3956 3.45332C14.3956 3.41922 14.37 3.35102 14.3444 3.30414C14.2635 3.17628 14.3487 3.06973 14.5277 3.06973C14.6598 3.06973 14.6726 3.05694 14.6854 2.92908C14.7067 2.7245 14.5916 2.5668 14.4467 2.59237C14.3828 2.6009 14.2976 2.62221 14.2592 2.63925C14.2038 2.66483 14.1697 2.63073 14.1058 2.48582C14.0589 2.38353 13.9736 2.23862 13.9097 2.15764C13.8117 2.02977 13.7989 2.02125 13.7733 2.09371C13.7605 2.13633 13.7222 2.24714 13.6881 2.33665C13.654 2.42189 13.6284 2.55401 13.6284 2.62221C13.6284 2.73728 13.6156 2.75007 13.4878 2.75007C13.3045 2.75007 13.2022 2.86088 13.2022 3.05268C13.2022 3.25726 13.2704 3.31693 13.4153 3.24021C13.5133 3.18907 13.5432 3.18907 13.6242 3.24447C13.6966 3.29562 13.7051 3.32545 13.671 3.39365C13.6369 3.44905 13.6412 3.5002 13.671 3.55987C13.7094 3.62806 13.7009 3.64511 13.6199 3.66642C13.5645 3.67494 13.4025 3.7133 13.2534 3.7474L12.9848 3.80707L12.874 3.63659C12.7504 3.45332 12.7291 3.46184 12.6567 3.71757C12.6098 3.87952 12.5927 3.89657 12.3924 3.94346C12.1537 3.99886 12.0941 3.98182 12.0941 3.84117C12.0941 3.79002 12.0642 3.70904 12.0301 3.66216C11.9577 3.56839 11.9449 3.21038 12.0088 3.08677C12.0344 3.04415 12.0855 3.00579 12.1196 3.00579C12.175 3.00579 12.1836 3.03563 12.1623 3.15071C12.1367 3.27431 12.1495 3.3084 12.2304 3.36381C12.2816 3.40217 12.3583 3.432 12.4009 3.432C12.6694 3.432 12.5586 2.66483 12.2688 2.51992C12.0429 2.40484 11.979 2.40058 11.8511 2.51139L11.7233 2.61794L11.6977 2.375C11.6764 2.10649 11.557 1.84224 11.2672 1.39898L11.0925 1.12621L11.0413 1.43734C10.9689 1.88913 10.9731 2.11075 11.0712 2.41763C11.118 2.56254 11.1564 2.6904 11.1564 2.69466C11.1564 2.70319 11.118 2.70745 11.0712 2.70745C10.9603 2.70745 10.7046 2.9376 10.6705 3.06973C10.6492 3.15923 10.6066 3.10382 10.3807 2.67335C9.98006 1.90617 9.99285 1.91044 10.0269 2.55827C10.0696 3.4661 10.0696 3.55134 9.99711 3.63232C9.80958 3.84117 9.87351 4.28869 10.1335 4.54441C10.2528 4.66375 10.2912 4.73194 10.2741 4.79588C10.2486 4.88964 10.402 5.09422 10.4958 5.09422C10.5427 5.09422 10.6876 5.44371 10.6876 5.55453C10.6876 5.58436 10.743 5.72928 10.8112 5.87419C11.0072 6.3004 11.0072 6.30892 10.841 6.46236C10.76 6.53481 10.6918 6.60727 10.6961 6.62432C10.7004 6.6371 10.6748 6.7053 10.6449 6.77775C10.6151 6.84594 10.5938 6.93971 10.5981 6.97807C10.6023 7.02069 10.5895 7.05479 10.564 7.05479C10.5384 7.05479 10.5341 7.10167 10.5554 7.16986C10.5725 7.23806 10.581 7.36592 10.5768 7.45969C10.5768 7.55345 10.5981 7.70263 10.6279 7.79213C10.6577 7.87737 10.6876 7.96688 10.6918 7.98392C10.6961 8.00097 10.7089 8.03507 10.7174 8.0649C10.7302 8.09048 10.7131 8.15441 10.6876 8.20555C10.662 8.2567 10.6492 8.30784 10.6577 8.32063C10.6705 8.32915 10.7004 8.29932 10.7259 8.25244C10.7558 8.20129 10.7984 8.17572 10.8367 8.18851C10.8879 8.20982 10.8751 8.24391 10.7771 8.37178C10.7089 8.45702 10.6194 8.6275 10.581 8.7511C10.5384 8.87044 10.5 8.97273 10.4915 8.97273C10.483 8.97273 10.3381 8.84913 10.1719 8.69143C9.82662 8.3803 9.6945 8.3462 9.67319 8.56783C9.66466 8.6616 9.80531 8.99404 10.1974 9.79958L10.7387 10.8992L10.6577 11.0995C10.5469 11.3808 10.5597 12.165 10.6876 12.766C10.743 13.0132 10.7856 13.3456 10.7813 13.5119C10.7813 13.6738 10.7899 13.7719 10.8026 13.7292C10.8154 13.6866 10.8623 13.6099 10.9092 13.5587L10.9902 13.4692L10.9603 13.5971C10.9433 13.6653 10.9049 13.7591 10.8708 13.7974C10.7685 13.9125 10.824 13.9935 10.9305 13.8869C11.0157 13.8017 11.02 13.8017 11.0413 13.8784C11.0541 13.9296 11.0243 13.9892 10.9518 14.0446L10.8367 14.1341L10.9689 14.0702C11.101 14.0063 11.1053 14.0063 11.1308 14.1086C11.1479 14.181 11.1223 14.2876 11.0498 14.4282C10.679 15.157 10.5213 16.0563 10.6194 16.8491L10.6535 17.1176L10.841 17.0878L11.0285 17.0622V17.2966C11.0285 17.4287 11.0498 17.5864 11.0754 17.6546L11.1223 17.774L11.2033 17.6717C11.2502 17.612 11.2843 17.5182 11.2757 17.4586C11.2672 17.3776 11.2928 17.335 11.3695 17.2966C11.459 17.2497 11.4803 17.254 11.4888 17.3094C11.5102 17.4032 11.7019 17.352 11.8511 17.2071C12.0046 17.0622 11.996 17.1389 11.8383 17.3222C11.7701 17.4032 11.719 17.4799 11.7275 17.4884C11.7488 17.5055 12.2219 17.1901 12.32 17.092C12.3583 17.0579 12.4052 17.0281 12.4308 17.0281C12.4563 17.0281 12.4776 17.011 12.4776 16.9855C12.4776 16.9642 12.4478 16.9556 12.4137 16.9727C12.3583 16.994 12.354 16.9812 12.3967 16.8874C12.4563 16.7511 12.6268 16.7042 12.7163 16.7937C12.8271 16.9045 13.1127 17.0324 13.2789 17.0494C13.3642 17.0537 13.4494 17.0622 13.4622 17.0665C13.475 17.0707 13.5304 17.1091 13.5858 17.156C13.7137 17.2668 13.6753 17.4074 13.492 17.5182C13.4153 17.5609 13.2704 17.6759 13.1681 17.7697L12.9848 17.9402L12.8783 17.8081C12.8229 17.7313 12.7078 17.6333 12.6226 17.5779C12.4308 17.4628 12.175 17.4841 12.0131 17.6376C11.7787 17.8635 9.54106 18.4516 8.09621 18.669C7.41854 18.7713 6.42121 18.8139 5.82451 18.7756C4.75473 18.6988 4.06427 18.5241 3.22037 18.1149C2.70892 17.8635 2.63647 17.8166 2.21452 17.4032C1.59225 16.8022 1.21293 16.3334 0.846385 15.7196C0.420175 14.9993 0.10478 14.6584 0.0110136 14.8161C-0.0316073 14.88 0.0195378 14.9993 0.71426 16.4314C1.06375 17.1474 1.43455 17.9615 1.54537 18.2428C1.65618 18.5241 1.88207 19.0014 2.0483 19.3041C2.28271 19.7303 3.17349 21.6695 3.45479 22.3642C3.49741 22.4665 3.48462 22.4964 3.3184 22.6754C3.22037 22.7862 3.07972 22.9993 3.00727 23.157C2.93907 23.3147 2.79843 23.613 2.69614 23.8261C2.59384 24.035 2.44041 24.4314 2.35517 24.6999C2.26993 24.9684 2.16337 25.271 2.12075 25.3733C1.86076 25.9316 1.86076 27.1591 2.11649 27.6961C2.25714 27.9902 2.35943 28.101 2.61089 28.2332C2.92203 28.3951 3.23316 28.3227 3.88526 27.922C4.06853 27.8112 4.23049 27.7345 4.24328 27.7473C4.25606 27.7601 4.30295 27.9859 4.3413 28.2502C4.38393 28.5144 4.48622 29.0216 4.5672 29.3839C4.75047 30.1681 4.75473 30.3812 4.60982 30.9438C4.40097 31.7409 4.27737 32.4441 4.20918 33.2155C4.15377 33.8165 4.21344 34.2427 4.48622 35.1633C4.78883 36.182 5.0275 37.3455 5.25339 38.914C5.29175 39.1697 5.35995 39.5661 5.40683 39.7877C5.44945 40.0093 5.54748 40.4867 5.61567 40.8447C5.68813 41.2112 5.82025 41.7014 5.91402 41.9528C6.00352 42.2043 6.10155 42.4941 6.13139 42.6007C6.25499 43.0908 6.54055 43.5724 6.97528 44.0242C7.19265 44.2501 7.34182 44.3567 7.64017 44.5058L8.02376 44.6976L8.59062 44.6806C9.08502 44.6678 9.15321 44.6721 9.12764 44.7317C9.11485 44.7658 9.09354 44.9107 9.08076 45.0471C9.05945 45.2517 8.97847 45.4605 8.64176 46.1553C8.41161 46.6284 8.15588 47.1739 8.07064 47.3742C7.95556 47.6427 7.85754 47.7962 7.68279 47.9709C7.35035 48.3076 7.23527 48.6486 7.23527 49.2964C7.23527 49.8676 7.17134 50.1446 6.90709 50.7157C6.71529 51.1249 6.71103 51.1377 6.74513 51.419C6.79201 51.794 6.79627 52.0966 6.75365 52.7956L6.71529 53.3838H16.7355C26.598 53.3838 26.7557 53.3838 26.7557 53.3028C26.7557 53.2559 26.7003 53.0769 26.6321 52.9064C26.3934 52.314 26.3508 51.9219 26.4786 51.4573C26.5724 51.1036 26.5468 50.9501 26.3337 50.6262C26.1419 50.3364 26.1419 50.3492 26.0311 49.3561C25.98 48.9342 25.9033 48.3588 25.8564 48.0775C25.7797 47.6385 25.7754 47.5106 25.8138 47.1824C25.8393 46.9693 25.8478 46.6838 25.8308 46.5431C25.8052 46.2831 25.6646 45.9422 25.5452 45.8441C25.4984 45.8058 25.477 45.712 25.477 45.5458C25.477 45.4137 25.4472 44.9235 25.4089 44.4547C25.3705 43.9475 25.3577 43.4531 25.3748 43.2315C25.4003 42.8777 25.4046 42.8564 25.4941 42.8777C25.541 42.8862 25.7583 42.9161 25.9672 42.9416C26.5213 43.0056 27.0498 43.1079 27.1435 43.1675C27.2501 43.2357 27.3225 43.159 27.3097 42.9971C27.2757 42.6774 27.3012 42.0637 27.3865 41.1516C27.5186 39.7621 27.5058 39.8303 27.655 39.8303C27.7573 39.8303 27.8766 39.9241 28.2858 40.3162C28.7802 40.7893 28.7972 40.8021 29.0274 40.8319C29.3854 40.8788 29.6965 40.7893 30.3486 40.4526C31.0433 40.0946 31.3332 39.8516 31.7636 39.2592C31.9299 39.0333 32.1899 38.7009 32.3433 38.5176C32.5436 38.2874 32.6715 38.0829 32.7823 37.8229C32.9229 37.4947 32.94 37.4137 32.9485 37.0344C32.9528 36.8042 32.94 36.3141 32.9187 35.9475C32.8718 35.1718 32.94 33.5821 33.0678 32.4867C33.1701 31.5874 33.1701 31.3743 33.0636 30.475C32.9783 29.7419 32.8249 29.0557 32.6161 28.5144C32.5564 28.3482 32.4669 28.0669 32.4243 27.8794C32.3433 27.5512 32.3433 27.5342 32.4285 26.7713C32.6033 25.1943 32.5692 23.6514 32.3433 22.6541C32.2964 22.458 32.2666 22.2875 32.2708 22.279C32.2794 22.2747 32.3689 22.3387 32.4711 22.4239C32.5734 22.5092 32.9442 22.7777 33.298 23.0206C33.6475 23.2635 34.0993 23.596 34.2996 23.7665C34.7301 24.1245 34.8281 24.1799 34.9133 24.1074C35.0455 23.9966 35.0327 23.8176 34.8324 22.9652C34.7258 22.5006 34.6065 22.0531 34.5681 21.9721C34.534 21.8911 34.4658 21.7079 34.4275 21.5672C34.1803 20.7532 33.916 20.1906 33.639 19.8837C33.5878 19.824 33.4727 19.6408 33.3832 19.4788C33.1872 19.1165 33.0508 18.9674 32.6502 18.6647C32.4839 18.5369 32.1685 18.2726 31.9469 18.0766C31.5079 17.6845 31.4482 17.6461 31.1414 17.5566L30.9325 17.4927L30.9368 17.2497C30.9368 16.9215 30.9837 16.717 31.184 16.0819C31.3715 15.4895 31.7295 13.9381 31.8659 13.107C31.9767 12.4378 32.0279 11.9392 32.0833 10.8907C32.1089 10.4346 32.1685 9.85072 32.2112 9.595C32.3135 9.02814 32.3177 8.93011 32.2282 8.93011C32.1302 8.93011 32.0449 9.17731 31.9597 9.7527C31.8574 10.4005 31.5122 11.4234 31.1073 12.2716C30.843 12.8257 30.7834 12.9109 30.3742 13.3627C29.1425 14.7266 27.557 15.579 25.2597 16.1075C24.4243 16.2993 24.403 16.2993 24.42 16.1288C24.4328 16.0052 24.4414 15.9967 24.6459 15.9839C24.7653 15.9796 24.9272 15.9455 25.0125 15.9072C25.1105 15.8688 25.1872 15.856 25.2171 15.8816C25.2426 15.9029 25.2384 15.8901 25.2085 15.856C25.1574 15.7963 25.1318 15.7963 24.9699 15.856C24.7568 15.9285 24.4541 15.9413 24.4541 15.8773C24.4541 15.8518 24.4073 15.7836 24.3476 15.7239L24.2368 15.6131L24.4797 15.1911C24.6161 14.961 24.7482 14.7692 24.7695 14.7692C24.8505 14.7692 25.0935 14.9354 25.0935 14.9908C25.0935 15.0164 25.1062 15.0249 25.1233 15.0121C25.1361 14.9951 25.1148 14.9439 25.0721 14.897C24.9826 14.799 25.0551 14.782 25.1531 14.88C25.1915 14.9141 25.2213 14.9269 25.2213 14.9013C25.2213 14.8416 24.9912 14.7266 24.8718 14.7266C24.8079 14.7266 24.7568 14.6925 24.7312 14.6285C24.6971 14.5561 24.6545 14.5348 24.5266 14.5348C24.3774 14.5348 24.3561 14.522 24.241 14.3046C24.1728 14.181 23.9512 13.9082 23.7552 13.7037C23.4312 13.367 23.2522 13.1198 23.265 13.0345C23.2778 12.9493 23.2565 12.8896 23.2181 12.9152C23.167 12.945 23.0306 12.6552 23.069 12.5998C23.0775 12.5785 23.0604 12.5401 23.0263 12.5103C22.9667 12.4634 22.9667 12.4463 23.0306 12.3781C23.0945 12.31 23.0903 12.3057 22.9965 12.327L22.8985 12.3483L23.005 12.2545C23.0903 12.1821 23.0945 12.1736 23.0221 12.2077C22.9454 12.2418 22.9241 12.2332 22.8772 12.148C22.8303 12.0585 22.8388 12.0073 22.9454 11.7559C23.0732 11.4533 23.1116 11.4021 23.2181 11.4064C23.2608 11.4064 23.2565 11.4192 23.2011 11.4405C23.1329 11.4661 23.1286 11.4788 23.184 11.4959C23.2437 11.5215 23.5165 11.3808 23.5165 11.3254C23.5165 11.2444 23.5975 10.814 23.6273 10.7458C23.6486 10.6946 23.6443 10.6733 23.6188 10.6904C23.5932 10.7074 23.5804 10.669 23.5932 10.5966C23.6017 10.5284 23.5889 10.4602 23.5634 10.4474C23.5378 10.4304 23.5165 10.375 23.5165 10.3281C23.5165 10.2769 23.4866 10.2045 23.4526 10.1661C23.3929 10.0979 23.4014 10.0255 23.5421 9.41599C23.8063 8.24391 23.9853 7.34035 23.9853 7.15282C23.9853 7.02922 23.964 6.96102 23.9129 6.93119C23.7893 6.86299 23.6273 6.99938 23.3588 7.38723C23.1627 7.67705 23.1073 7.7282 23.086 7.66427C23.0562 7.59181 23.0519 7.59181 23.0519 7.67279C23.0434 7.82197 22.9624 7.64722 22.9624 7.481C22.9624 7.40002 22.9241 7.24658 22.8772 7.14429C22.7706 6.91414 22.7706 6.93119 22.8985 6.78201C22.9581 6.71382 23.0093 6.62858 23.0136 6.59022C23.0391 6.29613 23.0349 5.985 22.9965 5.84009C22.9667 5.74632 22.9539 5.64403 22.9581 5.6142C22.9624 5.5801 22.9368 5.51191 22.8985 5.45224C22.8644 5.39683 22.8303 5.33716 22.826 5.32011C22.8218 5.2988 22.7706 5.24766 22.7109 5.20078C22.4595 5.01324 22.4552 5.00046 22.5234 4.61687C22.5575 4.42081 22.5916 4.19918 22.6001 4.12246C22.6342 3.79855 22.6768 3.61954 22.7323 3.55561C22.7749 3.50872 22.7919 3.3766 22.7919 3.1294C22.7919 2.93334 22.7962 2.70319 22.8004 2.62221C22.809 2.38779 22.7536 2.06813 22.6513 1.79962C22.5405 1.51406 22.4723 1.48423 22.5064 1.73569C22.5234 1.88913 22.5192 1.90617 22.4808 1.83372C22.3956 1.68881 22.191 1.51406 22.1057 1.51406C22.0631 1.51406 22.0247 1.50127 22.0205 1.47996C22.0205 1.46292 22.0162 1.26686 22.0077 1.04523C22.0034 0.793766 21.9693 0.542302 21.9225 0.384605C21.8798 0.243956 21.8287 0.086258 21.8159 0.0308507C21.7946 -0.0501291 21.7562 0.0180644 21.6198 0.371819ZM22.0759 2.20452C22.0375 2.24288 22.0247 2.23436 22.0247 2.15338C22.0247 2.0724 22.0375 2.06387 22.0759 2.10223C22.1143 2.14059 22.1143 2.16616 22.0759 2.20452ZM16.484 2.62221C16.5224 2.72023 16.5266 2.7799 16.4925 2.8481C16.4499 2.93334 16.4457 2.93334 16.4457 2.86088C16.4414 2.814 16.3817 2.67335 16.3093 2.54549L16.1771 2.31534L16.305 2.40484C16.3732 2.45172 16.4542 2.54975 16.484 2.62221ZM22.1526 2.92055C22.1526 3.02711 22.1356 3.04842 22.0461 3.04842C21.9225 3.04842 21.9139 3.01858 22.0077 2.88646C22.0972 2.75859 22.1526 2.76712 22.1526 2.92055ZM16.5266 3.08677C16.5266 3.13366 16.5096 3.1848 16.484 3.19759C16.4584 3.21464 16.4414 3.17628 16.4414 3.11661C16.4414 3.05694 16.4627 3.00579 16.484 3.00579C16.5096 3.00579 16.5266 3.04415 16.5266 3.08677ZM11.3652 3.3425C11.5059 3.48315 11.5869 3.67921 11.557 3.79855C11.54 3.86248 11.5528 3.95198 11.5869 4.01165C11.6338 4.10542 11.6338 4.12673 11.5826 4.15656C11.4761 4.22475 11.4206 4.20344 11.3951 4.09689C11.3823 4.03722 11.3226 3.93919 11.2672 3.871C11.2118 3.80281 11.1649 3.70052 11.1607 3.64511C11.1607 3.58544 11.1479 3.47463 11.1308 3.39791C11.1095 3.27857 11.1138 3.26152 11.1948 3.26152C11.2416 3.26152 11.3226 3.29988 11.3652 3.3425ZM11.1138 4.33557C11.1138 4.35688 11.0967 4.36967 11.0712 4.36967C11.0498 4.36967 11.0285 4.32705 11.0285 4.27164C11.0285 4.19492 11.0371 4.19066 11.0712 4.2418C11.0925 4.2759 11.1138 4.31852 11.1138 4.33557ZM10.6449 4.54441C10.6449 4.56146 10.6279 4.58703 10.6109 4.59982C10.5895 4.61261 10.5512 4.55294 10.5256 4.46343L10.4787 4.30573L10.5597 4.40803C10.6066 4.46343 10.6449 4.5231 10.6449 4.54441ZM22.7408 7.16134C22.728 7.17413 22.7024 7.15282 22.6896 7.11019C22.6641 7.05053 22.6683 7.04626 22.7109 7.08462C22.7408 7.11446 22.7536 7.14855 22.7408 7.16134ZM10.9859 8.32915C10.9859 8.35047 11.0328 8.3803 11.0925 8.39309C11.1521 8.41013 11.199 8.43997 11.199 8.4698C11.199 8.538 11.0285 8.80225 10.9817 8.80225C10.9561 8.80225 10.9518 8.82356 10.9689 8.85339C10.9859 8.88323 10.9817 8.88749 10.9476 8.87044C10.922 8.85339 10.9092 8.82356 10.922 8.80225C10.9348 8.78094 10.9049 8.6957 10.8538 8.61045C10.7643 8.46554 10.7643 8.45276 10.8367 8.37604C10.9177 8.28653 10.9859 8.26522 10.9859 8.32915ZM10.8154 8.6957C10.8367 8.68291 10.8666 8.6957 10.8836 8.72127C10.9049 8.75536 10.8964 8.75963 10.8581 8.73832C10.8154 8.71274 10.8112 8.72127 10.8367 8.7852C10.8879 8.9088 10.8836 9.02388 10.8325 9.04519C10.7472 9.07502 10.6535 8.68291 10.7131 8.55505C10.7387 8.49964 10.7515 8.50816 10.7643 8.60193C10.7728 8.66586 10.7941 8.70848 10.8154 8.6957ZM10.743 9.22846C10.7174 9.25403 10.6023 9.10059 10.6023 9.04093C10.6023 9.01535 10.6407 9.04093 10.6876 9.10059C10.7302 9.16026 10.7558 9.21567 10.743 9.22846ZM10.8708 11.1677C10.9603 11.3552 10.9646 11.6195 10.8794 11.8667C10.841 11.969 10.8026 12.1352 10.7856 12.2418C10.7472 12.5188 10.7004 12.3909 10.6663 11.9264C10.6364 11.5428 10.6961 11.0185 10.7728 11.0185C10.7856 11.0185 10.8325 11.0867 10.8708 11.1677ZM23.2906 11.2998C23.2778 11.3126 23.2394 11.3169 23.2096 11.3041C23.1755 11.2913 23.1883 11.2785 23.2352 11.2785C23.2821 11.2743 23.3076 11.2871 23.2906 11.2998ZM11.3993 12.4122C11.3866 12.4549 11.378 12.4208 11.378 12.3398C11.378 12.2588 11.3866 12.2247 11.3993 12.2631C11.4079 12.3057 11.4079 12.3739 11.3993 12.4122ZM11.6252 12.6424C11.6252 12.668 11.6082 12.6722 11.5826 12.6594C11.5613 12.6467 11.54 12.6126 11.54 12.5913C11.54 12.5657 11.5613 12.5614 11.5826 12.5742C11.6082 12.587 11.6252 12.6211 11.6252 12.6424ZM11.4761 12.8086C11.4888 12.8299 11.4803 12.8512 11.459 12.8512C11.4334 12.8512 11.4121 12.8299 11.4121 12.8086C11.4121 12.783 11.4206 12.766 11.4292 12.766C11.442 12.766 11.4633 12.783 11.4761 12.8086ZM11.7957 13.0643C11.7701 13.1112 11.7403 13.1496 11.7275 13.1496C11.719 13.1496 11.7275 13.1112 11.7531 13.0643C11.7787 13.0175 11.8085 12.9791 11.8213 12.9791C11.8298 12.9791 11.8213 13.0175 11.7957 13.0643ZM23.0093 13.222C23.086 13.3371 23.1116 13.3925 23.0647 13.3542C22.9795 13.2817 22.8132 13.0217 22.8516 13.0217C22.8644 13.0217 22.9368 13.1112 23.0093 13.222ZM11.5656 13.1666C11.5954 13.2988 11.5485 13.4011 11.4931 13.3158C11.442 13.2348 11.4462 13.0643 11.4974 13.0643C11.5187 13.0643 11.5485 13.1112 11.5656 13.1666ZM11.9406 13.1453C11.9662 13.1879 11.7147 13.5971 11.6849 13.563C11.6551 13.5332 11.8383 13.107 11.8852 13.107C11.9023 13.107 11.9278 13.124 11.9406 13.1453ZM11.378 13.563C11.3695 13.5928 11.3397 13.6184 11.3184 13.6184C11.2928 13.6184 11.2843 13.5886 11.3013 13.5545C11.3141 13.5204 11.3056 13.4906 11.2885 13.4906C11.2203 13.4906 11.199 13.3584 11.2544 13.2988C11.297 13.2519 11.3141 13.2689 11.3525 13.3797C11.378 13.4522 11.3908 13.5374 11.378 13.563ZM24.1047 14.2876C24.1814 14.4325 24.2666 14.5561 24.2964 14.5689C24.322 14.5774 24.3391 14.5987 24.3263 14.6115C24.3135 14.62 24.241 14.6115 24.1643 14.5817C24.045 14.5433 24.0066 14.4921 23.9256 14.2918C23.8276 14.0574 23.5847 13.6866 23.4526 13.5758C23.4142 13.5417 23.363 13.4778 23.3417 13.4309C23.2437 13.222 23.9768 14.0489 24.1047 14.2876ZM11.8937 13.5545C11.881 13.5928 11.8596 13.6142 11.8511 13.6014C11.8383 13.5886 11.8426 13.563 11.8596 13.5374C11.898 13.4692 11.9236 13.482 11.8937 13.5545ZM11.2331 13.6823C11.2203 13.6951 11.1948 13.6738 11.182 13.6312C11.1564 13.5715 11.1607 13.5673 11.2033 13.6056C11.2331 13.6355 11.2459 13.6696 11.2331 13.6823ZM11.7787 13.7804C11.7062 13.8486 11.7019 13.8486 11.7574 13.7591C11.7872 13.7079 11.8213 13.6738 11.8341 13.6866C11.8469 13.6951 11.8213 13.7378 11.7787 13.7804ZM11.6252 13.7591C11.6252 13.8102 11.459 13.9381 11.4292 13.9082C11.4079 13.8827 11.5528 13.7037 11.5954 13.7037C11.6124 13.7037 11.6252 13.7292 11.6252 13.7591ZM23.6571 14.2023C23.6998 14.3131 23.7211 14.4069 23.7083 14.4197C23.6998 14.4325 23.6699 14.3856 23.6443 14.3174C23.6188 14.2492 23.5591 14.1213 23.5122 14.0318C23.4696 13.9423 23.4312 13.8571 23.4312 13.84C23.4355 13.7719 23.5889 14.0233 23.6571 14.2023ZM12.0088 14.1682C11.9918 14.2364 11.9534 14.3302 11.9278 14.3728C11.8895 14.4367 11.8852 14.4367 11.881 14.3813C11.881 14.279 11.9705 14.0446 12.0088 14.0446C12.0301 14.0446 12.0301 14.1 12.0088 14.1682ZM12.2859 14.3856C12.2475 14.5049 12.2049 14.5944 12.1921 14.5817C12.1793 14.5689 12.2049 14.4623 12.2475 14.3472C12.2901 14.2279 12.3327 14.1384 12.3413 14.1512C12.3498 14.1597 12.3242 14.2663 12.2859 14.3856ZM11.3226 14.6413C11.3013 14.7692 11.2672 15.1698 11.2416 15.5321C11.2203 15.8901 11.1692 16.3121 11.1351 16.4698C11.0967 16.6232 11.0584 16.7937 11.0498 16.8406C11.0371 16.9002 10.9859 16.9429 10.9135 16.9556C10.8453 16.9684 10.7856 16.9727 10.7771 16.9642C10.7728 16.9556 10.7515 16.7468 10.743 16.4996C10.7131 15.9626 10.7728 15.5364 10.9518 14.978C11.0626 14.6456 11.1095 14.5561 11.2161 14.4836C11.2885 14.4367 11.3525 14.3984 11.3525 14.4026C11.3567 14.4026 11.3439 14.5135 11.3226 14.6413ZM11.5059 14.6498C11.4803 14.7521 11.4505 14.9866 11.4334 15.1741C11.4036 15.579 11.3695 15.8091 11.3482 15.7836C11.3354 15.775 11.3482 15.5491 11.3695 15.2849C11.4121 14.8033 11.4888 14.4069 11.5315 14.4453C11.54 14.4581 11.5315 14.5518 11.5059 14.6498ZM11.8639 14.6285C11.8085 14.7308 11.8 14.7351 11.7957 14.6584C11.7957 14.6115 11.817 14.5518 11.8469 14.522C11.9278 14.441 11.9364 14.4964 11.8639 14.6285ZM23.7296 15.0164C23.6955 15.0761 23.687 15.0761 23.6827 15.0249C23.6784 14.9908 23.6699 14.9397 23.6699 14.9184C23.6657 14.8928 23.6401 14.8331 23.6102 14.782C23.5804 14.7308 23.5591 14.6541 23.5591 14.6115C23.5591 14.5689 23.6102 14.6285 23.6657 14.7393C23.7424 14.8928 23.7594 14.9652 23.7296 15.0164ZM12.5075 14.6925C12.4947 14.7266 12.4819 14.7138 12.4819 14.6669C12.4776 14.62 12.4904 14.5944 12.5032 14.6115C12.516 14.6243 12.5203 14.6626 12.5075 14.6925ZM24.6672 14.6413C24.6672 14.6626 24.6374 14.6839 24.5991 14.6839C24.565 14.6839 24.5479 14.6626 24.5607 14.6413C24.5735 14.6157 24.6033 14.5987 24.6289 14.5987C24.6502 14.5987 24.6672 14.6157 24.6672 14.6413ZM24.5948 14.8033C24.5777 14.8715 24.2027 15.5491 24.1473 15.6003C24.0663 15.6813 24.1643 15.4341 24.2879 15.2508C24.42 15.059 24.4371 14.9823 24.3689 14.8502C24.3135 14.7479 24.2325 14.7436 24.2709 14.8416C24.2922 14.9056 24.2837 14.9098 24.2368 14.863C24.2069 14.8374 24.1473 14.8118 24.1047 14.8118C24.0578 14.8118 24.0279 14.782 24.0279 14.7351C24.0279 14.6626 24.0492 14.6584 24.3178 14.7053C24.4882 14.7351 24.5991 14.7734 24.5948 14.8033ZM23.9853 15.0036C24.0279 15.0547 24.0279 15.0931 23.9853 15.1954C23.9555 15.2636 23.9171 15.3233 23.8958 15.3233C23.8191 15.3233 23.785 15.1826 23.8319 15.0633C23.883 14.9226 23.9086 14.9141 23.9853 15.0036ZM24.2837 15.0164C24.2837 15.059 24.2581 15.1315 24.224 15.1783C24.1686 15.2508 24.1686 15.2423 24.2112 15.0974C24.2666 14.9226 24.2837 14.9013 24.2837 15.0164ZM24.0919 15.2252C24.0535 15.2892 24.0365 15.3062 24.0492 15.2593C24.0663 15.2124 24.0919 15.1357 24.1047 15.0888C24.1174 15.042 24.1345 15.0292 24.143 15.0547C24.1558 15.0846 24.1302 15.157 24.0919 15.2252ZM12.3072 15.1997C12.3072 15.2252 12.2901 15.2295 12.2645 15.2167C12.2432 15.2039 12.2219 15.1698 12.2219 15.1485C12.2219 15.1229 12.2432 15.1187 12.2645 15.1315C12.2901 15.1442 12.3072 15.1783 12.3072 15.1997ZM11.7744 15.8134C11.736 15.9668 11.6849 16.1032 11.6636 16.116C11.6082 16.1501 11.6167 16.1075 11.719 15.7836C11.8341 15.4213 11.8767 15.4426 11.7744 15.8134ZM12.2049 15.6514C12.1154 16.0222 12.0855 16.0904 12.0259 16.0904C11.9832 16.0904 11.9662 16.0649 11.9832 16.0137C11.996 15.9754 12.0259 15.8603 12.0514 15.7623C12.0898 15.6131 12.1282 15.5577 12.2177 15.5406C12.2262 15.5364 12.2177 15.5875 12.2049 15.6514ZM12.3029 15.8859C12.2773 15.9881 12.2432 16.0478 12.2347 16.018C12.2262 15.9924 12.239 15.8859 12.2688 15.7836C12.2944 15.6813 12.3285 15.6216 12.337 15.6514C12.3455 15.677 12.3327 15.7836 12.3029 15.8859ZM23.9427 16.1416C23.9384 16.3163 23.883 16.3803 23.6955 16.4357C23.5847 16.4655 23.3119 16.5635 23.086 16.653C22.5319 16.8704 22.3615 16.8704 22.6044 16.6402C22.6811 16.5721 22.7024 16.5593 22.6854 16.6104C22.6598 16.6786 22.6641 16.6786 22.8004 16.6147C22.8772 16.5763 22.9752 16.5166 23.0178 16.4825C23.0604 16.4442 23.1627 16.4186 23.265 16.4229C23.4526 16.4314 23.6998 16.3121 23.8063 16.1672C23.8702 16.0776 23.9427 16.0649 23.9427 16.1416ZM12.0514 16.2993C12.0514 16.3504 11.9662 16.4058 11.9364 16.376C11.9065 16.3462 11.9619 16.2609 12.0131 16.2609C12.0344 16.2609 12.0514 16.278 12.0514 16.2993ZM12.2219 16.278C12.2219 16.2908 12.2049 16.3121 12.1793 16.3249C12.158 16.3376 12.1367 16.3291 12.1367 16.3078C12.1367 16.2822 12.158 16.2609 12.1793 16.2609C12.2049 16.2609 12.2219 16.2694 12.2219 16.278ZM11.6465 16.5422C11.6465 16.636 11.6252 16.6701 11.5528 16.6786C11.442 16.6957 11.4249 16.6104 11.5016 16.4698C11.5613 16.3504 11.6465 16.393 11.6465 16.5422ZM12.0003 16.5039C11.979 16.6104 11.881 16.6232 11.881 16.5209C11.881 16.4698 11.9065 16.4314 11.9491 16.4314C11.9875 16.4314 12.0088 16.4612 12.0003 16.5039ZM22.4254 16.6829C22.4382 16.7042 22.4211 16.7297 22.387 16.7425C22.3487 16.7596 22.3359 16.7468 22.3529 16.7042C22.3785 16.636 22.3956 16.6317 22.4254 16.6829ZM22.1569 16.815C22.2464 16.815 22.2549 16.8491 22.1995 16.9386C22.1739 16.977 22.1526 16.9812 22.1356 16.9471C22.1185 16.9215 22.0674 16.9002 22.0205 16.9002C21.9608 16.9002 21.9395 16.8704 21.9395 16.7894C21.9395 16.6914 21.9438 16.6871 22.0077 16.7468C22.0418 16.7852 22.11 16.815 22.1569 16.815ZM12.0088 16.8278C12.0088 16.8576 11.9491 16.9386 11.8767 17.011C11.8085 17.0792 11.7574 17.1048 11.7701 17.0707C11.7829 17.0366 11.8128 16.9556 11.8341 16.8874C11.881 16.7724 12.0088 16.7255 12.0088 16.8278ZM11.6423 16.994C11.6551 17.0494 11.6508 17.1048 11.6295 17.1261C11.5869 17.1687 11.2757 17.2455 11.2502 17.2199C11.2033 17.173 11.3098 17.0196 11.4249 16.9684C11.6082 16.8874 11.6124 16.8874 11.6423 16.994ZM11.6679 17.2412C11.6679 17.2625 11.6465 17.2838 11.621 17.2838C11.5997 17.2838 11.5911 17.2625 11.6039 17.2412C11.6167 17.2156 11.638 17.1986 11.6508 17.1986C11.6593 17.1986 11.6679 17.2156 11.6679 17.2412Z"/>
</mask>
<path d="M21.6198 0.371819C21.4792 0.746883 21.4536 0.86196 21.4536 1.16031C21.4494 1.35636 21.4451 1.51406 21.4366 1.51406C21.4323 1.51406 21.3812 1.48423 21.33 1.45013C21.249 1.39898 21.2192 1.39898 21.1041 1.45439C20.8697 1.56947 20.7419 1.94453 20.8271 2.27271C20.8868 2.49008 20.9848 2.52844 21.1254 2.39205C21.2192 2.29829 21.2235 2.27271 21.1766 2.17042C21.1468 2.09797 21.1425 2.0383 21.1681 2.01273C21.2192 1.96158 21.3258 2.13206 21.3599 2.33238C21.3854 2.46025 21.3769 2.49434 21.3258 2.49434C21.1894 2.49434 21.053 2.59663 20.9379 2.77564L20.8186 2.96317H20.435C20.0812 2.96317 20.0557 2.95891 20.077 2.88219C20.0898 2.83531 20.0684 2.75859 20.0343 2.70745C19.9747 2.62221 19.9747 2.60516 20.0557 2.52418C20.1324 2.45172 20.1622 2.4432 20.2517 2.48582C20.3796 2.54123 20.4052 2.51992 20.4052 2.33665C20.4052 2.13633 20.2347 1.96584 20.0684 2.0042C19.9619 2.02551 19.9448 2.01699 19.9193 1.9147C19.8852 1.78683 19.6934 1.44161 19.638 1.40751C19.5954 1.38194 19.4249 1.86781 19.4249 2.00846C19.4249 2.09371 19.4121 2.10223 19.297 2.06813C19.118 2.01699 18.9816 2.13206 18.9816 2.34091C18.9816 2.53696 19.0541 2.61794 19.1691 2.54549C19.2629 2.49008 19.3652 2.51565 19.3993 2.6009C19.4206 2.66483 19.3098 2.92055 19.2373 2.9717C19.2118 2.98875 19.0455 3.00579 18.8708 3.00579C18.696 3.00579 18.2741 3.03563 17.9331 3.06973C17.2768 3.13366 17.2299 3.12087 17.2725 2.9376C17.281 2.89072 17.264 2.80974 17.2299 2.76286C17.183 2.69466 17.1787 2.64352 17.2128 2.51139C17.2768 2.27698 17.4046 2.15338 17.5794 2.15338C17.7158 2.15338 17.7243 2.15764 17.7115 2.30255C17.7072 2.4091 17.7286 2.46877 17.784 2.51565C17.9758 2.6563 18.2016 2.54549 18.2741 2.27698C18.3977 1.81667 17.8223 1.45013 17.3066 1.66323C17.2256 1.69733 17.1532 1.72717 17.1489 1.72717C17.1446 1.72717 17.1489 1.61209 17.1574 1.4757C17.1787 1.17309 17.1191 0.96425 16.9315 0.7C16.8548 0.589186 16.7568 0.440012 16.7227 0.367556C16.6843 0.295101 16.6375 0.235431 16.6204 0.235431C16.565 0.235431 16.2667 1.1049 16.2709 1.2626C16.2709 1.34784 16.3008 1.50127 16.3348 1.5993C16.3689 1.70159 16.3903 1.7911 16.3817 1.80388C16.3689 1.81241 16.2965 1.79962 16.2112 1.76979C16.0024 1.70159 15.7723 1.757 15.5975 1.9147C15.3972 2.09797 15.3162 2.26419 15.3546 2.42615C15.3716 2.49861 15.3887 2.69466 15.3972 2.86088C15.4057 3.03137 15.4228 3.21038 15.4398 3.26152C15.4696 3.35102 15.4611 3.35529 15.3716 3.32971C15.3162 3.31267 15.1756 3.29136 15.0562 3.28283L14.8431 3.26578L15.0477 3.30414C15.3205 3.35102 15.3503 3.38938 15.1159 3.39365C14.8772 3.39791 14.6982 3.42774 14.6044 3.47889C14.4936 3.53856 14.3956 3.52577 14.3956 3.45332C14.3956 3.41922 14.37 3.35102 14.3444 3.30414C14.2635 3.17628 14.3487 3.06973 14.5277 3.06973C14.6598 3.06973 14.6726 3.05694 14.6854 2.92908C14.7067 2.7245 14.5916 2.5668 14.4467 2.59237C14.3828 2.6009 14.2976 2.62221 14.2592 2.63925C14.2038 2.66483 14.1697 2.63073 14.1058 2.48582C14.0589 2.38353 13.9736 2.23862 13.9097 2.15764C13.8117 2.02977 13.7989 2.02125 13.7733 2.09371C13.7605 2.13633 13.7222 2.24714 13.6881 2.33665C13.654 2.42189 13.6284 2.55401 13.6284 2.62221C13.6284 2.73728 13.6156 2.75007 13.4878 2.75007C13.3045 2.75007 13.2022 2.86088 13.2022 3.05268C13.2022 3.25726 13.2704 3.31693 13.4153 3.24021C13.5133 3.18907 13.5432 3.18907 13.6242 3.24447C13.6966 3.29562 13.7051 3.32545 13.671 3.39365C13.6369 3.44905 13.6412 3.5002 13.671 3.55987C13.7094 3.62806 13.7009 3.64511 13.6199 3.66642C13.5645 3.67494 13.4025 3.7133 13.2534 3.7474L12.9848 3.80707L12.874 3.63659C12.7504 3.45332 12.7291 3.46184 12.6567 3.71757C12.6098 3.87952 12.5927 3.89657 12.3924 3.94346C12.1537 3.99886 12.0941 3.98182 12.0941 3.84117C12.0941 3.79002 12.0642 3.70904 12.0301 3.66216C11.9577 3.56839 11.9449 3.21038 12.0088 3.08677C12.0344 3.04415 12.0855 3.00579 12.1196 3.00579C12.175 3.00579 12.1836 3.03563 12.1623 3.15071C12.1367 3.27431 12.1495 3.3084 12.2304 3.36381C12.2816 3.40217 12.3583 3.432 12.4009 3.432C12.6694 3.432 12.5586 2.66483 12.2688 2.51992C12.0429 2.40484 11.979 2.40058 11.8511 2.51139L11.7233 2.61794L11.6977 2.375C11.6764 2.10649 11.557 1.84224 11.2672 1.39898L11.0925 1.12621L11.0413 1.43734C10.9689 1.88913 10.9731 2.11075 11.0712 2.41763C11.118 2.56254 11.1564 2.6904 11.1564 2.69466C11.1564 2.70319 11.118 2.70745 11.0712 2.70745C10.9603 2.70745 10.7046 2.9376 10.6705 3.06973C10.6492 3.15923 10.6066 3.10382 10.3807 2.67335C9.98006 1.90617 9.99285 1.91044 10.0269 2.55827C10.0696 3.4661 10.0696 3.55134 9.99711 3.63232C9.80958 3.84117 9.87351 4.28869 10.1335 4.54441C10.2528 4.66375 10.2912 4.73194 10.2741 4.79588C10.2486 4.88964 10.402 5.09422 10.4958 5.09422C10.5427 5.09422 10.6876 5.44371 10.6876 5.55453C10.6876 5.58436 10.743 5.72928 10.8112 5.87419C11.0072 6.3004 11.0072 6.30892 10.841 6.46236C10.76 6.53481 10.6918 6.60727 10.6961 6.62432C10.7004 6.6371 10.6748 6.7053 10.6449 6.77775C10.6151 6.84594 10.5938 6.93971 10.5981 6.97807C10.6023 7.02069 10.5895 7.05479 10.564 7.05479C10.5384 7.05479 10.5341 7.10167 10.5554 7.16986C10.5725 7.23806 10.581 7.36592 10.5768 7.45969C10.5768 7.55345 10.5981 7.70263 10.6279 7.79213C10.6577 7.87737 10.6876 7.96688 10.6918 7.98392C10.6961 8.00097 10.7089 8.03507 10.7174 8.0649C10.7302 8.09048 10.7131 8.15441 10.6876 8.20555C10.662 8.2567 10.6492 8.30784 10.6577 8.32063C10.6705 8.32915 10.7004 8.29932 10.7259 8.25244C10.7558 8.20129 10.7984 8.17572 10.8367 8.18851C10.8879 8.20982 10.8751 8.24391 10.7771 8.37178C10.7089 8.45702 10.6194 8.6275 10.581 8.7511C10.5384 8.87044 10.5 8.97273 10.4915 8.97273C10.483 8.97273 10.3381 8.84913 10.1719 8.69143C9.82662 8.3803 9.6945 8.3462 9.67319 8.56783C9.66466 8.6616 9.80531 8.99404 10.1974 9.79958L10.7387 10.8992L10.6577 11.0995C10.5469 11.3808 10.5597 12.165 10.6876 12.766C10.743 13.0132 10.7856 13.3456 10.7813 13.5119C10.7813 13.6738 10.7899 13.7719 10.8026 13.7292C10.8154 13.6866 10.8623 13.6099 10.9092 13.5587L10.9902 13.4692L10.9603 13.5971C10.9433 13.6653 10.9049 13.7591 10.8708 13.7974C10.7685 13.9125 10.824 13.9935 10.9305 13.8869C11.0157 13.8017 11.02 13.8017 11.0413 13.8784C11.0541 13.9296 11.0243 13.9892 10.9518 14.0446L10.8367 14.1341L10.9689 14.0702C11.101 14.0063 11.1053 14.0063 11.1308 14.1086C11.1479 14.181 11.1223 14.2876 11.0498 14.4282C10.679 15.157 10.5213 16.0563 10.6194 16.8491L10.6535 17.1176L10.841 17.0878L11.0285 17.0622V17.2966C11.0285 17.4287 11.0498 17.5864 11.0754 17.6546L11.1223 17.774L11.2033 17.6717C11.2502 17.612 11.2843 17.5182 11.2757 17.4586C11.2672 17.3776 11.2928 17.335 11.3695 17.2966C11.459 17.2497 11.4803 17.254 11.4888 17.3094C11.5102 17.4032 11.7019 17.352 11.8511 17.2071C12.0046 17.0622 11.996 17.1389 11.8383 17.3222C11.7701 17.4032 11.719 17.4799 11.7275 17.4884C11.7488 17.5055 12.2219 17.1901 12.32 17.092C12.3583 17.0579 12.4052 17.0281 12.4308 17.0281C12.4563 17.0281 12.4776 17.011 12.4776 16.9855C12.4776 16.9642 12.4478 16.9556 12.4137 16.9727C12.3583 16.994 12.354 16.9812 12.3967 16.8874C12.4563 16.7511 12.6268 16.7042 12.7163 16.7937C12.8271 16.9045 13.1127 17.0324 13.2789 17.0494C13.3642 17.0537 13.4494 17.0622 13.4622 17.0665C13.475 17.0707 13.5304 17.1091 13.5858 17.156C13.7137 17.2668 13.6753 17.4074 13.492 17.5182C13.4153 17.5609 13.2704 17.6759 13.1681 17.7697L12.9848 17.9402L12.8783 17.8081C12.8229 17.7313 12.7078 17.6333 12.6226 17.5779C12.4308 17.4628 12.175 17.4841 12.0131 17.6376C11.7787 17.8635 9.54106 18.4516 8.09621 18.669C7.41854 18.7713 6.42121 18.8139 5.82451 18.7756C4.75473 18.6988 4.06427 18.5241 3.22037 18.1149C2.70892 17.8635 2.63647 17.8166 2.21452 17.4032C1.59225 16.8022 1.21293 16.3334 0.846385 15.7196C0.420175 14.9993 0.10478 14.6584 0.0110136 14.8161C-0.0316073 14.88 0.0195378 14.9993 0.71426 16.4314C1.06375 17.1474 1.43455 17.9615 1.54537 18.2428C1.65618 18.5241 1.88207 19.0014 2.0483 19.3041C2.28271 19.7303 3.17349 21.6695 3.45479 22.3642C3.49741 22.4665 3.48462 22.4964 3.3184 22.6754C3.22037 22.7862 3.07972 22.9993 3.00727 23.157C2.93907 23.3147 2.79843 23.613 2.69614 23.8261C2.59384 24.035 2.44041 24.4314 2.35517 24.6999C2.26993 24.9684 2.16337 25.271 2.12075 25.3733C1.86076 25.9316 1.86076 27.1591 2.11649 27.6961C2.25714 27.9902 2.35943 28.101 2.61089 28.2332C2.92203 28.3951 3.23316 28.3227 3.88526 27.922C4.06853 27.8112 4.23049 27.7345 4.24328 27.7473C4.25606 27.7601 4.30295 27.9859 4.3413 28.2502C4.38393 28.5144 4.48622 29.0216 4.5672 29.3839C4.75047 30.1681 4.75473 30.3812 4.60982 30.9438C4.40097 31.7409 4.27737 32.4441 4.20918 33.2155C4.15377 33.8165 4.21344 34.2427 4.48622 35.1633C4.78883 36.182 5.0275 37.3455 5.25339 38.914C5.29175 39.1697 5.35995 39.5661 5.40683 39.7877C5.44945 40.0093 5.54748 40.4867 5.61567 40.8447C5.68813 41.2112 5.82025 41.7014 5.91402 41.9528C6.00352 42.2043 6.10155 42.4941 6.13139 42.6007C6.25499 43.0908 6.54055 43.5724 6.97528 44.0242C7.19265 44.2501 7.34182 44.3567 7.64017 44.5058L8.02376 44.6976L8.59062 44.6806C9.08502 44.6678 9.15321 44.6721 9.12764 44.7317C9.11485 44.7658 9.09354 44.9107 9.08076 45.0471C9.05945 45.2517 8.97847 45.4605 8.64176 46.1553C8.41161 46.6284 8.15588 47.1739 8.07064 47.3742C7.95556 47.6427 7.85754 47.7962 7.68279 47.9709C7.35035 48.3076 7.23527 48.6486 7.23527 49.2964C7.23527 49.8676 7.17134 50.1446 6.90709 50.7157C6.71529 51.1249 6.71103 51.1377 6.74513 51.419C6.79201 51.794 6.79627 52.0966 6.75365 52.7956L6.71529 53.3838H16.7355C26.598 53.3838 26.7557 53.3838 26.7557 53.3028C26.7557 53.2559 26.7003 53.0769 26.6321 52.9064C26.3934 52.314 26.3508 51.9219 26.4786 51.4573C26.5724 51.1036 26.5468 50.9501 26.3337 50.6262C26.1419 50.3364 26.1419 50.3492 26.0311 49.3561C25.98 48.9342 25.9033 48.3588 25.8564 48.0775C25.7797 47.6385 25.7754 47.5106 25.8138 47.1824C25.8393 46.9693 25.8478 46.6838 25.8308 46.5431C25.8052 46.2831 25.6646 45.9422 25.5452 45.8441C25.4984 45.8058 25.477 45.712 25.477 45.5458C25.477 45.4137 25.4472 44.9235 25.4089 44.4547C25.3705 43.9475 25.3577 43.4531 25.3748 43.2315C25.4003 42.8777 25.4046 42.8564 25.4941 42.8777C25.541 42.8862 25.7583 42.9161 25.9672 42.9416C26.5213 43.0056 27.0498 43.1079 27.1435 43.1675C27.2501 43.2357 27.3225 43.159 27.3097 42.9971C27.2757 42.6774 27.3012 42.0637 27.3865 41.1516C27.5186 39.7621 27.5058 39.8303 27.655 39.8303C27.7573 39.8303 27.8766 39.9241 28.2858 40.3162C28.7802 40.7893 28.7972 40.8021 29.0274 40.8319C29.3854 40.8788 29.6965 40.7893 30.3486 40.4526C31.0433 40.0946 31.3332 39.8516 31.7636 39.2592C31.9299 39.0333 32.1899 38.7009 32.3433 38.5176C32.5436 38.2874 32.6715 38.0829 32.7823 37.8229C32.9229 37.4947 32.94 37.4137 32.9485 37.0344C32.9528 36.8042 32.94 36.3141 32.9187 35.9475C32.8718 35.1718 32.94 33.5821 33.0678 32.4867C33.1701 31.5874 33.1701 31.3743 33.0636 30.475C32.9783 29.7419 32.8249 29.0557 32.6161 28.5144C32.5564 28.3482 32.4669 28.0669 32.4243 27.8794C32.3433 27.5512 32.3433 27.5342 32.4285 26.7713C32.6033 25.1943 32.5692 23.6514 32.3433 22.6541C32.2964 22.458 32.2666 22.2875 32.2708 22.279C32.2794 22.2747 32.3689 22.3387 32.4711 22.4239C32.5734 22.5092 32.9442 22.7777 33.298 23.0206C33.6475 23.2635 34.0993 23.596 34.2996 23.7665C34.7301 24.1245 34.8281 24.1799 34.9133 24.1074C35.0455 23.9966 35.0327 23.8176 34.8324 22.9652C34.7258 22.5006 34.6065 22.0531 34.5681 21.9721C34.534 21.8911 34.4658 21.7079 34.4275 21.5672C34.1803 20.7532 33.916 20.1906 33.639 19.8837C33.5878 19.824 33.4727 19.6408 33.3832 19.4788C33.1872 19.1165 33.0508 18.9674 32.6502 18.6647C32.4839 18.5369 32.1685 18.2726 31.9469 18.0766C31.5079 17.6845 31.4482 17.6461 31.1414 17.5566L30.9325 17.4927L30.9368 17.2497C30.9368 16.9215 30.9837 16.717 31.184 16.0819C31.3715 15.4895 31.7295 13.9381 31.8659 13.107C31.9767 12.4378 32.0279 11.9392 32.0833 10.8907C32.1089 10.4346 32.1685 9.85072 32.2112 9.595C32.3135 9.02814 32.3177 8.93011 32.2282 8.93011C32.1302 8.93011 32.0449 9.17731 31.9597 9.7527C31.8574 10.4005 31.5122 11.4234 31.1073 12.2716C30.843 12.8257 30.7834 12.9109 30.3742 13.3627C29.1425 14.7266 27.557 15.579 25.2597 16.1075C24.4243 16.2993 24.403 16.2993 24.42 16.1288C24.4328 16.0052 24.4414 15.9967 24.6459 15.9839C24.7653 15.9796 24.9272 15.9455 25.0125 15.9072C25.1105 15.8688 25.1872 15.856 25.2171 15.8816C25.2426 15.9029 25.2384 15.8901 25.2085 15.856C25.1574 15.7963 25.1318 15.7963 24.9699 15.856C24.7568 15.9285 24.4541 15.9413 24.4541 15.8773C24.4541 15.8518 24.4073 15.7836 24.3476 15.7239L24.2368 15.6131L24.4797 15.1911C24.6161 14.961 24.7482 14.7692 24.7695 14.7692C24.8505 14.7692 25.0935 14.9354 25.0935 14.9908C25.0935 15.0164 25.1062 15.0249 25.1233 15.0121C25.1361 14.9951 25.1148 14.9439 25.0721 14.897C24.9826 14.799 25.0551 14.782 25.1531 14.88C25.1915 14.9141 25.2213 14.9269 25.2213 14.9013C25.2213 14.8416 24.9912 14.7266 24.8718 14.7266C24.8079 14.7266 24.7568 14.6925 24.7312 14.6285C24.6971 14.5561 24.6545 14.5348 24.5266 14.5348C24.3774 14.5348 24.3561 14.522 24.241 14.3046C24.1728 14.181 23.9512 13.9082 23.7552 13.7037C23.4312 13.367 23.2522 13.1198 23.265 13.0345C23.2778 12.9493 23.2565 12.8896 23.2181 12.9152C23.167 12.945 23.0306 12.6552 23.069 12.5998C23.0775 12.5785 23.0604 12.5401 23.0263 12.5103C22.9667 12.4634 22.9667 12.4463 23.0306 12.3781C23.0945 12.31 23.0903 12.3057 22.9965 12.327L22.8985 12.3483L23.005 12.2545C23.0903 12.1821 23.0945 12.1736 23.0221 12.2077C22.9454 12.2418 22.9241 12.2332 22.8772 12.148C22.8303 12.0585 22.8388 12.0073 22.9454 11.7559C23.0732 11.4533 23.1116 11.4021 23.2181 11.4064C23.2608 11.4064 23.2565 11.4192 23.2011 11.4405C23.1329 11.4661 23.1286 11.4788 23.184 11.4959C23.2437 11.5215 23.5165 11.3808 23.5165 11.3254C23.5165 11.2444 23.5975 10.814 23.6273 10.7458C23.6486 10.6946 23.6443 10.6733 23.6188 10.6904C23.5932 10.7074 23.5804 10.669 23.5932 10.5966C23.6017 10.5284 23.5889 10.4602 23.5634 10.4474C23.5378 10.4304 23.5165 10.375 23.5165 10.3281C23.5165 10.2769 23.4866 10.2045 23.4526 10.1661C23.3929 10.0979 23.4014 10.0255 23.5421 9.41599C23.8063 8.24391 23.9853 7.34035 23.9853 7.15282C23.9853 7.02922 23.964 6.96102 23.9129 6.93119C23.7893 6.86299 23.6273 6.99938 23.3588 7.38723C23.1627 7.67705 23.1073 7.7282 23.086 7.66427C23.0562 7.59181 23.0519 7.59181 23.0519 7.67279C23.0434 7.82197 22.9624 7.64722 22.9624 7.481C22.9624 7.40002 22.9241 7.24658 22.8772 7.14429C22.7706 6.91414 22.7706 6.93119 22.8985 6.78201C22.9581 6.71382 23.0093 6.62858 23.0136 6.59022C23.0391 6.29613 23.0349 5.985 22.9965 5.84009C22.9667 5.74632 22.9539 5.64403 22.9581 5.6142C22.9624 5.5801 22.9368 5.51191 22.8985 5.45224C22.8644 5.39683 22.8303 5.33716 22.826 5.32011C22.8218 5.2988 22.7706 5.24766 22.7109 5.20078C22.4595 5.01324 22.4552 5.00046 22.5234 4.61687C22.5575 4.42081 22.5916 4.19918 22.6001 4.12246C22.6342 3.79855 22.6768 3.61954 22.7323 3.55561C22.7749 3.50872 22.7919 3.3766 22.7919 3.1294C22.7919 2.93334 22.7962 2.70319 22.8004 2.62221C22.809 2.38779 22.7536 2.06813 22.6513 1.79962C22.5405 1.51406 22.4723 1.48423 22.5064 1.73569C22.5234 1.88913 22.5192 1.90617 22.4808 1.83372C22.3956 1.68881 22.191 1.51406 22.1057 1.51406C22.0631 1.51406 22.0247 1.50127 22.0205 1.47996C22.0205 1.46292 22.0162 1.26686 22.0077 1.04523C22.0034 0.793766 21.9693 0.542302 21.9225 0.384605C21.8798 0.243956 21.8287 0.086258 21.8159 0.0308507C21.7946 -0.0501291 21.7562 0.0180644 21.6198 0.371819ZM22.0759 2.20452C22.0375 2.24288 22.0247 2.23436 22.0247 2.15338C22.0247 2.0724 22.0375 2.06387 22.0759 2.10223C22.1143 2.14059 22.1143 2.16616 22.0759 2.20452ZM16.484 2.62221C16.5224 2.72023 16.5266 2.7799 16.4925 2.8481C16.4499 2.93334 16.4457 2.93334 16.4457 2.86088C16.4414 2.814 16.3817 2.67335 16.3093 2.54549L16.1771 2.31534L16.305 2.40484C16.3732 2.45172 16.4542 2.54975 16.484 2.62221ZM22.1526 2.92055C22.1526 3.02711 22.1356 3.04842 22.0461 3.04842C21.9225 3.04842 21.9139 3.01858 22.0077 2.88646C22.0972 2.75859 22.1526 2.76712 22.1526 2.92055ZM16.5266 3.08677C16.5266 3.13366 16.5096 3.1848 16.484 3.19759C16.4584 3.21464 16.4414 3.17628 16.4414 3.11661C16.4414 3.05694 16.4627 3.00579 16.484 3.00579C16.5096 3.00579 16.5266 3.04415 16.5266 3.08677ZM11.3652 3.3425C11.5059 3.48315 11.5869 3.67921 11.557 3.79855C11.54 3.86248 11.5528 3.95198 11.5869 4.01165C11.6338 4.10542 11.6338 4.12673 11.5826 4.15656C11.4761 4.22475 11.4206 4.20344 11.3951 4.09689C11.3823 4.03722 11.3226 3.93919 11.2672 3.871C11.2118 3.80281 11.1649 3.70052 11.1607 3.64511C11.1607 3.58544 11.1479 3.47463 11.1308 3.39791C11.1095 3.27857 11.1138 3.26152 11.1948 3.26152C11.2416 3.26152 11.3226 3.29988 11.3652 3.3425ZM11.1138 4.33557C11.1138 4.35688 11.0967 4.36967 11.0712 4.36967C11.0498 4.36967 11.0285 4.32705 11.0285 4.27164C11.0285 4.19492 11.0371 4.19066 11.0712 4.2418C11.0925 4.2759 11.1138 4.31852 11.1138 4.33557ZM10.6449 4.54441C10.6449 4.56146 10.6279 4.58703 10.6109 4.59982C10.5895 4.61261 10.5512 4.55294 10.5256 4.46343L10.4787 4.30573L10.5597 4.40803C10.6066 4.46343 10.6449 4.5231 10.6449 4.54441ZM22.7408 7.16134C22.728 7.17413 22.7024 7.15282 22.6896 7.11019C22.6641 7.05053 22.6683 7.04626 22.7109 7.08462C22.7408 7.11446 22.7536 7.14855 22.7408 7.16134ZM10.9859 8.32915C10.9859 8.35047 11.0328 8.3803 11.0925 8.39309C11.1521 8.41013 11.199 8.43997 11.199 8.4698C11.199 8.538 11.0285 8.80225 10.9817 8.80225C10.9561 8.80225 10.9518 8.82356 10.9689 8.85339C10.9859 8.88323 10.9817 8.88749 10.9476 8.87044C10.922 8.85339 10.9092 8.82356 10.922 8.80225C10.9348 8.78094 10.9049 8.6957 10.8538 8.61045C10.7643 8.46554 10.7643 8.45276 10.8367 8.37604C10.9177 8.28653 10.9859 8.26522 10.9859 8.32915ZM10.8154 8.6957C10.8367 8.68291 10.8666 8.6957 10.8836 8.72127C10.9049 8.75536 10.8964 8.75963 10.8581 8.73832C10.8154 8.71274 10.8112 8.72127 10.8367 8.7852C10.8879 8.9088 10.8836 9.02388 10.8325 9.04519C10.7472 9.07502 10.6535 8.68291 10.7131 8.55505C10.7387 8.49964 10.7515 8.50816 10.7643 8.60193C10.7728 8.66586 10.7941 8.70848 10.8154 8.6957ZM10.743 9.22846C10.7174 9.25403 10.6023 9.10059 10.6023 9.04093C10.6023 9.01535 10.6407 9.04093 10.6876 9.10059C10.7302 9.16026 10.7558 9.21567 10.743 9.22846ZM10.8708 11.1677C10.9603 11.3552 10.9646 11.6195 10.8794 11.8667C10.841 11.969 10.8026 12.1352 10.7856 12.2418C10.7472 12.5188 10.7004 12.3909 10.6663 11.9264C10.6364 11.5428 10.6961 11.0185 10.7728 11.0185C10.7856 11.0185 10.8325 11.0867 10.8708 11.1677ZM23.2906 11.2998C23.2778 11.3126 23.2394 11.3169 23.2096 11.3041C23.1755 11.2913 23.1883 11.2785 23.2352 11.2785C23.2821 11.2743 23.3076 11.2871 23.2906 11.2998ZM11.3993 12.4122C11.3866 12.4549 11.378 12.4208 11.378 12.3398C11.378 12.2588 11.3866 12.2247 11.3993 12.2631C11.4079 12.3057 11.4079 12.3739 11.3993 12.4122ZM11.6252 12.6424C11.6252 12.668 11.6082 12.6722 11.5826 12.6594C11.5613 12.6467 11.54 12.6126 11.54 12.5913C11.54 12.5657 11.5613 12.5614 11.5826 12.5742C11.6082 12.587 11.6252 12.6211 11.6252 12.6424ZM11.4761 12.8086C11.4888 12.8299 11.4803 12.8512 11.459 12.8512C11.4334 12.8512 11.4121 12.8299 11.4121 12.8086C11.4121 12.783 11.4206 12.766 11.4292 12.766C11.442 12.766 11.4633 12.783 11.4761 12.8086ZM11.7957 13.0643C11.7701 13.1112 11.7403 13.1496 11.7275 13.1496C11.719 13.1496 11.7275 13.1112 11.7531 13.0643C11.7787 13.0175 11.8085 12.9791 11.8213 12.9791C11.8298 12.9791 11.8213 13.0175 11.7957 13.0643ZM23.0093 13.222C23.086 13.3371 23.1116 13.3925 23.0647 13.3542C22.9795 13.2817 22.8132 13.0217 22.8516 13.0217C22.8644 13.0217 22.9368 13.1112 23.0093 13.222ZM11.5656 13.1666C11.5954 13.2988 11.5485 13.4011 11.4931 13.3158C11.442 13.2348 11.4462 13.0643 11.4974 13.0643C11.5187 13.0643 11.5485 13.1112 11.5656 13.1666ZM11.9406 13.1453C11.9662 13.1879 11.7147 13.5971 11.6849 13.563C11.6551 13.5332 11.8383 13.107 11.8852 13.107C11.9023 13.107 11.9278 13.124 11.9406 13.1453ZM11.378 13.563C11.3695 13.5928 11.3397 13.6184 11.3184 13.6184C11.2928 13.6184 11.2843 13.5886 11.3013 13.5545C11.3141 13.5204 11.3056 13.4906 11.2885 13.4906C11.2203 13.4906 11.199 13.3584 11.2544 13.2988C11.297 13.2519 11.3141 13.2689 11.3525 13.3797C11.378 13.4522 11.3908 13.5374 11.378 13.563ZM24.1047 14.2876C24.1814 14.4325 24.2666 14.5561 24.2964 14.5689C24.322 14.5774 24.3391 14.5987 24.3263 14.6115C24.3135 14.62 24.241 14.6115 24.1643 14.5817C24.045 14.5433 24.0066 14.4921 23.9256 14.2918C23.8276 14.0574 23.5847 13.6866 23.4526 13.5758C23.4142 13.5417 23.363 13.4778 23.3417 13.4309C23.2437 13.222 23.9768 14.0489 24.1047 14.2876ZM11.8937 13.5545C11.881 13.5928 11.8596 13.6142 11.8511 13.6014C11.8383 13.5886 11.8426 13.563 11.8596 13.5374C11.898 13.4692 11.9236 13.482 11.8937 13.5545ZM11.2331 13.6823C11.2203 13.6951 11.1948 13.6738 11.182 13.6312C11.1564 13.5715 11.1607 13.5673 11.2033 13.6056C11.2331 13.6355 11.2459 13.6696 11.2331 13.6823ZM11.7787 13.7804C11.7062 13.8486 11.7019 13.8486 11.7574 13.7591C11.7872 13.7079 11.8213 13.6738 11.8341 13.6866C11.8469 13.6951 11.8213 13.7378 11.7787 13.7804ZM11.6252 13.7591C11.6252 13.8102 11.459 13.9381 11.4292 13.9082C11.4079 13.8827 11.5528 13.7037 11.5954 13.7037C11.6124 13.7037 11.6252 13.7292 11.6252 13.7591ZM23.6571 14.2023C23.6998 14.3131 23.7211 14.4069 23.7083 14.4197C23.6998 14.4325 23.6699 14.3856 23.6443 14.3174C23.6188 14.2492 23.5591 14.1213 23.5122 14.0318C23.4696 13.9423 23.4312 13.8571 23.4312 13.84C23.4355 13.7719 23.5889 14.0233 23.6571 14.2023ZM12.0088 14.1682C11.9918 14.2364 11.9534 14.3302 11.9278 14.3728C11.8895 14.4367 11.8852 14.4367 11.881 14.3813C11.881 14.279 11.9705 14.0446 12.0088 14.0446C12.0301 14.0446 12.0301 14.1 12.0088 14.1682ZM12.2859 14.3856C12.2475 14.5049 12.2049 14.5944 12.1921 14.5817C12.1793 14.5689 12.2049 14.4623 12.2475 14.3472C12.2901 14.2279 12.3327 14.1384 12.3413 14.1512C12.3498 14.1597 12.3242 14.2663 12.2859 14.3856ZM11.3226 14.6413C11.3013 14.7692 11.2672 15.1698 11.2416 15.5321C11.2203 15.8901 11.1692 16.3121 11.1351 16.4698C11.0967 16.6232 11.0584 16.7937 11.0498 16.8406C11.0371 16.9002 10.9859 16.9429 10.9135 16.9556C10.8453 16.9684 10.7856 16.9727 10.7771 16.9642C10.7728 16.9556 10.7515 16.7468 10.743 16.4996C10.7131 15.9626 10.7728 15.5364 10.9518 14.978C11.0626 14.6456 11.1095 14.5561 11.2161 14.4836C11.2885 14.4367 11.3525 14.3984 11.3525 14.4026C11.3567 14.4026 11.3439 14.5135 11.3226 14.6413ZM11.5059 14.6498C11.4803 14.7521 11.4505 14.9866 11.4334 15.1741C11.4036 15.579 11.3695 15.8091 11.3482 15.7836C11.3354 15.775 11.3482 15.5491 11.3695 15.2849C11.4121 14.8033 11.4888 14.4069 11.5315 14.4453C11.54 14.4581 11.5315 14.5518 11.5059 14.6498ZM11.8639 14.6285C11.8085 14.7308 11.8 14.7351 11.7957 14.6584C11.7957 14.6115 11.817 14.5518 11.8469 14.522C11.9278 14.441 11.9364 14.4964 11.8639 14.6285ZM23.7296 15.0164C23.6955 15.0761 23.687 15.0761 23.6827 15.0249C23.6784 14.9908 23.6699 14.9397 23.6699 14.9184C23.6657 14.8928 23.6401 14.8331 23.6102 14.782C23.5804 14.7308 23.5591 14.6541 23.5591 14.6115C23.5591 14.5689 23.6102 14.6285 23.6657 14.7393C23.7424 14.8928 23.7594 14.9652 23.7296 15.0164ZM12.5075 14.6925C12.4947 14.7266 12.4819 14.7138 12.4819 14.6669C12.4776 14.62 12.4904 14.5944 12.5032 14.6115C12.516 14.6243 12.5203 14.6626 12.5075 14.6925ZM24.6672 14.6413C24.6672 14.6626 24.6374 14.6839 24.5991 14.6839C24.565 14.6839 24.5479 14.6626 24.5607 14.6413C24.5735 14.6157 24.6033 14.5987 24.6289 14.5987C24.6502 14.5987 24.6672 14.6157 24.6672 14.6413ZM24.5948 14.8033C24.5777 14.8715 24.2027 15.5491 24.1473 15.6003C24.0663 15.6813 24.1643 15.4341 24.2879 15.2508C24.42 15.059 24.4371 14.9823 24.3689 14.8502C24.3135 14.7479 24.2325 14.7436 24.2709 14.8416C24.2922 14.9056 24.2837 14.9098 24.2368 14.863C24.2069 14.8374 24.1473 14.8118 24.1047 14.8118C24.0578 14.8118 24.0279 14.782 24.0279 14.7351C24.0279 14.6626 24.0492 14.6584 24.3178 14.7053C24.4882 14.7351 24.5991 14.7734 24.5948 14.8033ZM23.9853 15.0036C24.0279 15.0547 24.0279 15.0931 23.9853 15.1954C23.9555 15.2636 23.9171 15.3233 23.8958 15.3233C23.8191 15.3233 23.785 15.1826 23.8319 15.0633C23.883 14.9226 23.9086 14.9141 23.9853 15.0036ZM24.2837 15.0164C24.2837 15.059 24.2581 15.1315 24.224 15.1783C24.1686 15.2508 24.1686 15.2423 24.2112 15.0974C24.2666 14.9226 24.2837 14.9013 24.2837 15.0164ZM24.0919 15.2252C24.0535 15.2892 24.0365 15.3062 24.0492 15.2593C24.0663 15.2124 24.0919 15.1357 24.1047 15.0888C24.1174 15.042 24.1345 15.0292 24.143 15.0547C24.1558 15.0846 24.1302 15.157 24.0919 15.2252ZM12.3072 15.1997C12.3072 15.2252 12.2901 15.2295 12.2645 15.2167C12.2432 15.2039 12.2219 15.1698 12.2219 15.1485C12.2219 15.1229 12.2432 15.1187 12.2645 15.1315C12.2901 15.1442 12.3072 15.1783 12.3072 15.1997ZM11.7744 15.8134C11.736 15.9668 11.6849 16.1032 11.6636 16.116C11.6082 16.1501 11.6167 16.1075 11.719 15.7836C11.8341 15.4213 11.8767 15.4426 11.7744 15.8134ZM12.2049 15.6514C12.1154 16.0222 12.0855 16.0904 12.0259 16.0904C11.9832 16.0904 11.9662 16.0649 11.9832 16.0137C11.996 15.9754 12.0259 15.8603 12.0514 15.7623C12.0898 15.6131 12.1282 15.5577 12.2177 15.5406C12.2262 15.5364 12.2177 15.5875 12.2049 15.6514ZM12.3029 15.8859C12.2773 15.9881 12.2432 16.0478 12.2347 16.018C12.2262 15.9924 12.239 15.8859 12.2688 15.7836C12.2944 15.6813 12.3285 15.6216 12.337 15.6514C12.3455 15.677 12.3327 15.7836 12.3029 15.8859ZM23.9427 16.1416C23.9384 16.3163 23.883 16.3803 23.6955 16.4357C23.5847 16.4655 23.3119 16.5635 23.086 16.653C22.5319 16.8704 22.3615 16.8704 22.6044 16.6402C22.6811 16.5721 22.7024 16.5593 22.6854 16.6104C22.6598 16.6786 22.6641 16.6786 22.8004 16.6147C22.8772 16.5763 22.9752 16.5166 23.0178 16.4825C23.0604 16.4442 23.1627 16.4186 23.265 16.4229C23.4526 16.4314 23.6998 16.3121 23.8063 16.1672C23.8702 16.0776 23.9427 16.0649 23.9427 16.1416ZM12.0514 16.2993C12.0514 16.3504 11.9662 16.4058 11.9364 16.376C11.9065 16.3462 11.9619 16.2609 12.0131 16.2609C12.0344 16.2609 12.0514 16.278 12.0514 16.2993ZM12.2219 16.278C12.2219 16.2908 12.2049 16.3121 12.1793 16.3249C12.158 16.3376 12.1367 16.3291 12.1367 16.3078C12.1367 16.2822 12.158 16.2609 12.1793 16.2609C12.2049 16.2609 12.2219 16.2694 12.2219 16.278ZM11.6465 16.5422C11.6465 16.636 11.6252 16.6701 11.5528 16.6786C11.442 16.6957 11.4249 16.6104 11.5016 16.4698C11.5613 16.3504 11.6465 16.393 11.6465 16.5422ZM12.0003 16.5039C11.979 16.6104 11.881 16.6232 11.881 16.5209C11.881 16.4698 11.9065 16.4314 11.9491 16.4314C11.9875 16.4314 12.0088 16.4612 12.0003 16.5039ZM22.4254 16.6829C22.4382 16.7042 22.4211 16.7297 22.387 16.7425C22.3487 16.7596 22.3359 16.7468 22.3529 16.7042C22.3785 16.636 22.3956 16.6317 22.4254 16.6829ZM22.1569 16.815C22.2464 16.815 22.2549 16.8491 22.1995 16.9386C22.1739 16.977 22.1526 16.9812 22.1356 16.9471C22.1185 16.9215 22.0674 16.9002 22.0205 16.9002C21.9608 16.9002 21.9395 16.8704 21.9395 16.7894C21.9395 16.6914 21.9438 16.6871 22.0077 16.7468C22.0418 16.7852 22.11 16.815 22.1569 16.815ZM12.0088 16.8278C12.0088 16.8576 11.9491 16.9386 11.8767 17.011C11.8085 17.0792 11.7574 17.1048 11.7701 17.0707C11.7829 17.0366 11.8128 16.9556 11.8341 16.8874C11.881 16.7724 12.0088 16.7255 12.0088 16.8278ZM11.6423 16.994C11.6551 17.0494 11.6508 17.1048 11.6295 17.1261C11.5869 17.1687 11.2757 17.2455 11.2502 17.2199C11.2033 17.173 11.3098 17.0196 11.4249 16.9684C11.6082 16.8874 11.6124 16.8874 11.6423 16.994ZM11.6679 17.2412C11.6679 17.2625 11.6465 17.2838 11.621 17.2838C11.5997 17.2838 11.5911 17.2625 11.6039 17.2412C11.6167 17.2156 11.638 17.1986 11.6508 17.1986C11.6593 17.1986 11.6679 17.2156 11.6679 17.2412Z" fill="black" stroke="#EF5017" mask="url(#path-1-inside-1)"/>
<path d="M11.2309 14.5997C11.234 14.5946 11.2369 14.5897 11.2394 14.5851C11.2648 14.5391 11.2626 14.5144 11.2394 14.5144C11.2175 14.5144 11.1924 14.5364 11.175 14.5641L11.2309 14.5997ZM11.2309 14.5997C11.2304 14.6004 11.23 14.6011 11.2295 14.6018L11.167 14.5784M11.2309 14.5997L11.1745 14.5649C11.1718 14.5693 11.1693 14.5738 11.167 14.5784M11.167 14.5784L11.2257 14.6077C11.1688 14.6926 11.1297 14.6776 11.167 14.5784Z" fill="black" stroke="#EF5017" stroke-width="0.5"/>
<path d="M25.1312 15.3028C25.1335 15.2806 25.1287 15.2593 25.1198 15.2503C25.1114 15.2392 25.1031 15.2463 25.0995 15.2656C25.0991 15.2674 25.0988 15.2694 25.0986 15.2715C25.0974 15.2809 25.0973 15.2925 25.0985 15.3057C25.0985 15.3112 25.0987 15.3161 25.099 15.3206C25.099 15.3211 25.099 15.3215 25.0991 15.322C25.1017 15.3551 25.1129 15.3611 25.124 15.3313C25.1275 15.3232 25.1297 15.3144 25.1309 15.3057C25.131 15.3048 25.1311 15.3038 25.1312 15.3028Z" fill="black" stroke="#EF5017" stroke-width="0.5"/>
<path d="M25.0883 15.4727C25.0905 15.4505 25.0858 15.4292 25.0769 15.4203C25.0685 15.4091 25.0601 15.4162 25.0565 15.4355C25.0562 15.4374 25.0559 15.4394 25.0556 15.4415C25.0545 15.4509 25.0543 15.4624 25.0555 15.4757C25.0555 15.4811 25.0557 15.486 25.056 15.4905C25.056 15.4909 25.0561 15.4914 25.0561 15.4919C25.0588 15.525 25.0699 15.531 25.0811 15.5012C25.0846 15.4931 25.0868 15.4844 25.088 15.4757C25.0881 15.4747 25.0882 15.4737 25.0883 15.4727Z" fill="black" stroke="#EF5017" stroke-width="0.5"/>
</svg>
