<svg width="25" height="50" viewBox="0 0 25 50" fill="none" xmlns="http://www.w3.org/2000/svg">
<mask id="path-1-inside-1" fill="white">
<path d="M11.6647 0.0831655C11.4823 0.134711 11.2603 0.217977 11.1691 0.261593C10.7408 0.475705 10.3998 1.01892 10.3483 1.56609C10.3166 1.88726 10.1857 2.36703 10.0628 2.6089C9.74164 3.23934 9.69009 3.76669 9.8487 4.76192C9.90817 5.13067 9.98351 5.55889 10.0152 5.7175C10.0469 5.8761 10.0707 6.07038 10.0747 6.15365C10.0787 6.23692 10.0906 6.34794 10.1064 6.39948C10.1302 6.48671 10.1342 6.48671 10.1857 6.42724C10.2492 6.3519 10.4395 6.24485 10.5069 6.24485C10.5386 6.24485 10.5386 6.26864 10.5069 6.32415C10.4791 6.37966 10.4791 6.40345 10.5069 6.40345C10.5267 6.40345 10.5465 6.41931 10.5465 6.4431C10.5465 6.46292 10.5188 6.48275 10.4871 6.48275C10.4553 6.48275 10.4276 6.51447 10.4316 6.55016C10.4316 6.59377 10.4435 6.6017 10.4553 6.56998C10.4831 6.49464 10.5307 6.51447 10.5346 6.60567C10.5386 6.65721 10.5148 6.69686 10.4633 6.70876C10.4236 6.72065 10.3879 6.74444 10.3879 6.7603C10.3879 6.77616 10.3443 6.78013 10.2967 6.7722C10.2452 6.7603 10.1778 6.77616 10.1461 6.80788C10.1144 6.8396 10.0232 6.90304 9.93989 6.95459C9.80905 7.03389 9.7575 7.04579 9.55528 7.022L9.32531 6.99424L9.15085 7.20042C9.00018 7.38281 8.90501 7.44229 8.25871 7.75553C7.16832 8.28288 6.84319 8.56043 6.75993 9.0402C6.74407 9.12743 6.68855 9.24639 6.63304 9.3019C6.5815 9.36137 6.39911 9.66272 6.22861 9.97595C6.05811 10.2892 5.79642 10.769 5.64178 11.0426C5.48715 11.3161 5.26907 11.7166 5.15408 11.9347C5.0391 12.1528 4.91221 12.3748 4.87653 12.4303C4.74568 12.6246 4.47606 13.5009 4.48399 13.6991C4.49192 13.8696 4.46813 13.9688 4.36107 14.2344C4.34125 14.278 4.29763 14.4009 4.25798 14.508C4.18265 14.7142 4.16282 14.738 3.96853 14.8886C3.52048 15.2296 3.34206 15.4081 3.235 15.6182C3.13984 15.8085 3.12398 15.872 3.14777 16.0306C3.15966 16.1376 3.15966 16.2368 3.1438 16.2526C3.12794 16.2645 3.11208 16.3081 3.10812 16.3399C3.10415 16.3755 3.08433 16.431 3.06847 16.4667C3.05261 16.5024 3.03278 16.5976 3.02882 16.6769C3.02089 16.7562 2.98917 16.9227 2.95348 17.0536C2.88608 17.3153 2.88211 17.347 2.92573 17.343C2.9971 17.3311 3.02089 17.3509 2.98124 17.3946C2.92176 17.4739 2.87418 17.7197 2.92969 17.688C2.95348 17.6721 2.97331 17.684 2.97331 17.7157C2.97331 17.7474 2.94555 17.7871 2.90987 17.799C2.83849 17.8267 2.67989 18.1638 2.71558 18.2193C2.76316 18.2986 2.64024 18.7546 2.54508 18.8458C2.49354 18.8933 2.46182 18.9607 2.47371 18.9925C2.48164 19.0202 2.44992 19.1114 2.39441 19.1907C2.31907 19.3017 2.30718 19.3493 2.3389 19.4128C2.37062 19.4722 2.36665 19.4881 2.32304 19.4881C2.29528 19.4881 2.25563 19.5317 2.24374 19.5872C2.22788 19.6427 2.1803 19.726 2.13668 19.7696C2.0891 19.8172 2.06135 19.8846 2.07324 19.9282C2.08514 19.9679 2.07721 20.0036 2.06135 20.0036C2.02963 20.0036 1.97411 20.1304 1.96222 20.2216C1.95825 20.2652 1.9186 20.3644 1.8512 20.519C1.82741 20.5745 1.80758 20.63 1.80758 20.6459C1.80362 20.6618 1.78379 20.6935 1.75604 20.7212C1.73225 20.745 1.72035 20.7926 1.73225 20.8243C1.74414 20.856 1.72035 20.9036 1.68467 20.9314C1.64105 20.9631 1.62123 21.0107 1.63709 21.0464C1.64898 21.0781 1.63709 21.1177 1.60933 21.1257C1.55779 21.1455 1.49831 21.4746 1.49434 21.7363C1.49434 21.8077 1.48245 21.8671 1.46659 21.8671C1.45469 21.8671 1.4428 21.9504 1.4428 22.0535C1.43883 22.2597 1.24455 23.2589 1.17714 23.4016C1.15732 23.4492 1.14939 23.5523 1.16128 23.6355C1.19697 23.8457 1.11766 25.4832 1.07008 25.5308C1.01854 25.5824 1.01854 25.7251 1.07008 25.7767C1.10973 25.8163 0.780636 31.5022 0.550663 34.7932C0.503083 35.4355 0.459467 36.1413 0.451537 36.3594C0.423782 37.1207 0.312761 38.219 0.253285 38.3102C0.185879 38.4133 0.181914 38.5282 0.24139 38.5877C0.269145 38.6155 0.269145 38.7701 0.24139 39.0992C0.221565 39.3569 0.189844 39.8288 0.173984 40.146C0.158124 40.5266 0.130369 40.7487 0.0946831 40.8081C0.0272774 40.9152 0.0233123 41.161 0.082788 41.2007C0.114508 41.2205 0.122438 41.3752 0.102613 41.728C0.0907181 42.0016 0.0748579 42.6083 0.0708929 43.0682C0.0669278 43.5321 0.0471026 43.9128 0.0312424 43.9128C-0.0123731 43.9128 -0.00840804 44.2181 0.0312424 44.2458C0.0510676 44.2577 0.078823 44.6027 0.0907181 45.0151C0.106578 45.4274 0.158124 46.1015 0.205704 46.5139C0.253285 46.9262 0.28897 47.3425 0.285005 47.4377C0.277075 47.5487 0.304831 47.6756 0.360341 47.7866C0.411887 47.8937 0.451537 48.0602 0.459467 48.2149C0.471362 48.5281 0.514978 48.6074 0.717195 48.7145C0.887692 48.7977 1.45073 48.9087 1.73621 48.9087C1.89481 48.9087 1.92257 48.8889 2.1803 48.6272C2.33493 48.4726 2.45785 48.3298 2.45785 48.314C2.45785 48.3021 2.56887 48.3021 2.70765 48.3219C2.98917 48.3616 4.35314 48.2942 4.75758 48.2228C4.91221 48.1911 5.11047 48.1871 5.25321 48.203C5.61006 48.2466 6.05811 48.1395 6.16517 47.9888C6.21671 47.9135 6.29998 47.8977 7.00576 47.8342C7.87014 47.7589 8.10408 47.7034 8.11201 47.5804C8.11597 47.5368 8.11994 47.3465 8.1239 47.1562L8.12787 46.8152L8.26664 46.7676C8.49265 46.6923 8.61557 46.4504 8.42921 46.4504C8.3737 46.4504 8.31819 46.4346 8.30629 46.4108C8.2944 46.387 8.31026 46.383 8.34198 46.3949C8.3737 46.4068 8.45696 46.379 8.52041 46.3354C8.58385 46.2878 8.65522 46.2522 8.67901 46.2522C8.73452 46.2522 8.76227 46.1411 8.79796 45.7605C8.81778 45.5345 8.81382 45.4433 8.77417 45.4155C8.74245 45.3838 8.73055 45.2649 8.73452 45.0151C8.74245 44.8208 8.73452 44.6542 8.71866 44.6423C8.7028 44.6344 8.69487 44.5948 8.7028 44.5551C8.70676 44.5194 8.69883 44.4481 8.67901 44.4005C8.65918 44.3529 8.65918 44.3014 8.67901 44.2934C8.69487 44.2815 8.70676 44.2339 8.7028 44.1824C8.69883 44.1309 8.70676 44.0714 8.72262 44.0516C8.76227 44.004 8.84554 43.5559 8.82571 43.5202C8.79796 43.4766 8.88519 43.0643 8.93277 43.0048C8.96053 42.9731 8.98432 42.7946 8.98828 42.6083C8.99225 42.4219 9.02 42.2237 9.04776 42.1721C9.08741 42.0968 9.08741 42.073 9.05172 42.0611C9.01207 42.0452 9.01207 42.0254 9.04776 41.958C9.07155 41.9104 9.09137 41.8153 9.08344 41.7479C9.07948 41.6765 9.09534 41.6091 9.11913 41.5932C9.14292 41.5774 9.15085 41.5338 9.13895 41.4941C9.12706 41.4545 9.13499 41.4108 9.15878 41.395C9.18257 41.3791 9.1905 41.3355 9.1786 41.2959C9.16671 41.2562 9.1786 41.2007 9.20636 41.1729C9.23411 41.1412 9.26187 41.0619 9.2698 40.9985C9.28169 40.8637 9.40065 40.4553 9.43633 40.4235C9.46012 40.4037 9.55528 40.1936 9.55528 40.1658C9.55528 40.1579 9.53149 40.1579 9.49977 40.1698C9.42047 40.2015 9.38875 40.1222 9.45616 40.0667C9.48788 40.0389 9.51563 40.0032 9.51563 39.9834C9.51563 39.9676 9.53546 39.9041 9.56321 39.8407C9.587 39.7812 9.60286 39.7138 9.5989 39.694C9.59493 39.6781 9.61872 39.6424 9.65441 39.6147C9.69406 39.5869 9.74164 39.4402 9.77732 39.234C9.80905 39.0477 9.84473 38.8613 9.86059 38.8177C9.90817 38.671 9.928 38.5401 9.97161 38.0683C9.98351 37.9414 10.0113 37.8066 10.0311 37.767C10.0509 37.7273 10.0549 37.648 10.0351 37.5806C10.0152 37.5132 10.0152 37.4339 10.0351 37.3982C10.0588 37.3625 10.0549 37.3268 10.0351 37.311C10.0113 37.2991 10.0073 37.2515 10.0271 37.2C10.043 37.1524 10.0509 37.0929 10.043 37.0651C10.0351 37.0414 10.0469 37.0096 10.0668 36.9938C10.1302 36.9581 10.1183 36.8946 10.0588 36.9184C10.0152 36.9343 10.0073 36.8946 10.0192 36.7479C10.0271 36.6449 10.0351 36.4109 10.043 36.2325C10.0469 36.0501 10.0628 35.9034 10.0747 35.9034C10.0906 35.9034 10.1025 35.8201 10.1025 35.721C10.1064 35.6219 10.1262 35.5188 10.1461 35.491C10.1659 35.4672 10.1699 35.376 10.15 35.2769C10.1342 35.1857 10.1381 35.0985 10.154 35.0866C10.1738 35.0747 10.1818 34.9875 10.1738 34.8923C10.1659 34.7971 10.1699 34.7059 10.1857 34.694C10.2135 34.6663 10.2373 34.2222 10.2333 33.8416C10.2333 33.6988 10.2412 33.5561 10.2531 33.5244C10.269 33.4926 10.2849 33.3935 10.2928 33.3063C10.3047 33.223 10.3285 33.0842 10.3483 33.0049L10.3879 32.8582L11.0937 32.8384C11.9978 32.8067 12.2436 32.7869 12.4339 32.7234L12.5885 32.6719L12.5727 32.4141C12.5648 32.2714 12.5568 32.1009 12.5529 32.0375L12.5489 31.9185H13.0842C13.5719 31.9185 13.6274 31.9264 13.6869 31.9978C13.7265 32.0414 13.7543 32.1088 13.7582 32.1445C13.7582 32.1842 13.7781 32.2159 13.7979 32.2159C13.8217 32.2159 13.8296 32.2555 13.8137 32.3071C13.8018 32.3666 13.8256 32.4578 13.8732 32.549C13.9208 32.6322 13.9486 32.7155 13.9327 32.7353C13.9208 32.7591 13.9367 32.8067 13.9684 32.8424C14.0318 32.9137 14.2102 33.7464 14.1746 33.8019C14.1508 33.8416 14.2618 34.4324 14.3133 34.5196C14.3332 34.5553 14.3688 34.698 14.3926 34.8368C14.4164 34.9756 14.4481 35.1183 14.46 35.15C14.4719 35.1817 14.4878 35.2254 14.4918 35.2492C14.5037 35.3443 14.5631 35.5307 14.5949 35.5664C14.6107 35.5901 14.6345 35.6774 14.6424 35.7646C14.6504 35.8518 14.6742 35.9549 14.69 35.9906C14.7059 36.0263 14.7059 36.0779 14.694 36.0977C14.6781 36.1215 14.6821 36.169 14.7019 36.2087C14.809 36.4149 14.8367 36.4942 14.809 36.5338C14.7931 36.5616 14.805 36.6092 14.8328 36.6409C14.8565 36.6726 14.8684 36.7083 14.8565 36.7242C14.8407 36.736 14.8526 36.7757 14.8764 36.8074C14.9041 36.8391 14.9319 36.9383 14.9358 37.0255C14.9438 37.1127 14.9676 37.2079 14.9874 37.2356C15.0191 37.2674 15.0191 37.2912 14.9914 37.311C14.9636 37.3268 14.9715 37.3705 15.0112 37.4339C15.0469 37.4854 15.0627 37.5291 15.0469 37.5291C15.031 37.5291 15.0389 37.5528 15.0627 37.5846C15.1103 37.6401 15.1301 37.7432 15.1619 38.0366C15.1698 38.108 15.1856 38.1754 15.2015 38.1912C15.2134 38.2031 15.2253 38.2547 15.2253 38.3022C15.2253 38.3459 15.2412 38.4014 15.2649 38.4252C15.2848 38.445 15.3046 38.5957 15.3125 38.7582C15.3165 38.9208 15.3363 39.0794 15.3561 39.1071C15.3799 39.1349 15.3839 39.1666 15.372 39.1825C15.3561 39.1944 15.3601 39.2261 15.3799 39.2499C15.4037 39.2776 15.4275 39.345 15.4394 39.4045C15.4473 39.464 15.4711 39.5274 15.483 39.5512C15.5147 39.6067 15.5544 39.8169 15.5544 39.9557C15.5544 40.0191 15.5703 40.0667 15.5861 40.0667C15.6059 40.0667 15.6218 40.1262 15.6218 40.2015C15.6218 40.2768 15.6416 40.3522 15.6615 40.3641C15.6852 40.376 15.7011 40.4275 15.7011 40.4751C15.7011 40.5227 15.7249 40.6099 15.7566 40.6694C15.7963 40.7407 15.8002 40.7844 15.7685 40.8161C15.7408 40.8438 15.7408 40.8716 15.7685 40.9073C15.7923 40.935 15.8201 41.0223 15.8359 41.0976C15.8994 41.4307 15.9113 41.4782 15.9469 41.5219C15.9747 41.5575 15.9747 41.5932 15.943 41.6289C15.9113 41.6686 15.9073 41.6924 15.939 41.7122C15.9588 41.7241 15.9787 41.7954 15.9787 41.8708C15.9787 41.9461 15.9985 42.0175 16.0183 42.0294C16.0421 42.0413 16.058 42.1087 16.058 42.1721C16.058 42.2395 16.0778 42.3307 16.1016 42.3743C16.1333 42.4338 16.1333 42.4616 16.0976 42.4854C16.0619 42.5092 16.0619 42.5211 16.0936 42.529C16.1254 42.5409 16.1452 42.6797 16.1531 42.9215C16.169 43.3458 16.2007 43.5599 16.276 43.7344C16.3038 43.7978 16.3197 43.9405 16.3157 44.0516C16.3078 44.1586 16.3236 44.2736 16.3434 44.2974C16.3672 44.3251 16.3712 44.3767 16.3593 44.4124C16.3434 44.4481 16.3553 44.5036 16.3791 44.5313C16.4227 44.5868 16.4465 44.8208 16.4505 45.3005C16.4545 45.6614 16.4545 45.7089 16.4584 45.7764C16.4584 45.8874 16.4267 46.0975 16.4029 46.1213C16.3871 46.1332 16.399 46.1808 16.4227 46.2284C16.4505 46.272 16.4743 46.3275 16.4743 46.3513C16.4783 46.3711 16.4941 46.4266 16.5139 46.4663C16.5377 46.5178 16.5338 46.5495 16.502 46.5614C16.4307 46.5852 16.4465 46.6487 16.5179 46.6487C16.5813 46.6487 16.5813 46.7755 16.5179 47.1046C16.506 47.1483 16.4981 47.1998 16.4981 47.2157C16.4941 47.2355 16.4783 47.2355 16.4545 47.2236C16.4346 47.2117 16.4148 47.2276 16.4148 47.2593C16.4148 47.291 16.4346 47.3307 16.4545 47.3425C16.4783 47.3544 16.4941 47.4179 16.4941 47.4774C16.4941 47.5368 16.5139 47.6042 16.5377 47.628C16.5655 47.6558 16.506 47.8065 16.3355 48.1316L16.0936 48.5955L16.1809 48.77C16.2324 48.8691 16.2879 48.9484 16.3117 48.9484C16.3355 48.9524 16.3038 48.992 16.2443 49.0436C16.1412 49.1268 16.1373 49.1347 16.2047 49.1942C16.2443 49.2259 16.4386 49.3052 16.6329 49.3687C16.9699 49.4757 17.0254 49.4837 17.6836 49.4797C18.4806 49.4797 19.0476 49.3964 19.5155 49.218C19.6305 49.1744 19.682 49.0792 19.6463 48.9801C19.6225 48.9167 19.7256 48.8691 19.9001 48.8691C19.9754 48.8691 19.9913 48.8532 19.9754 48.7739C19.9596 48.6986 19.9992 48.6312 20.1499 48.4726C20.253 48.3616 20.3402 48.2466 20.3402 48.2188C20.3402 48.1911 20.2966 48.1276 20.2411 48.0761C20.1856 48.0245 20.1459 47.9611 20.1578 47.9333C20.1657 47.9095 20.1578 47.8699 20.134 47.8461C20.1102 47.8223 20.1063 47.7827 20.1261 47.7509C20.1459 47.7232 20.1618 47.6796 20.1618 47.6597C20.1657 47.5646 20.2332 47.3386 20.2688 47.295C20.2926 47.2672 20.2887 47.2196 20.2609 47.1641C20.2371 47.1205 20.2252 47.069 20.2371 47.0531C20.249 47.0333 20.1935 46.9619 20.1182 46.8866C20.027 46.8033 19.9952 46.7478 20.023 46.728C20.0468 46.7121 20.0706 46.6487 20.0785 46.5852C20.0864 46.5218 20.0983 46.4702 20.1023 46.4702C20.134 46.4702 20.1261 46.0896 20.0944 46.0698C20.0745 46.0579 20.0745 46.0262 20.1023 45.9944C20.1301 45.9587 20.1261 45.931 20.0864 45.8993C20.0547 45.8755 20.0389 45.816 20.0508 45.7764C20.0627 45.7248 20.0468 45.6891 20.0071 45.6733C19.9556 45.6534 19.9516 45.6376 19.9873 45.594C20.0111 45.5622 20.019 45.5067 20.0032 45.471C19.9873 45.4314 19.9715 45.3561 19.9715 45.3005C19.9675 45.1935 20.0587 45.1578 20.3481 45.1459C20.4274 45.1459 20.5067 45.1221 20.5226 45.0983C20.5504 45.0507 20.5147 45.0547 20.0468 45.1261C19.9159 45.1499 19.8961 45.1419 19.9159 45.0904C19.9278 45.0547 19.9159 45.0111 19.8922 44.9913C19.8644 44.9675 19.8485 44.8723 19.8485 44.7772C19.8525 44.686 19.8366 44.5868 19.8168 44.563C19.797 44.5353 19.7653 44.337 19.7494 44.119C19.7296 43.9009 19.6979 43.6907 19.678 43.6511C19.6582 43.6075 19.6384 43.4925 19.6344 43.3854C19.6305 43.2823 19.6106 43.1634 19.5908 43.1237C19.567 43.0841 19.5631 43.0405 19.575 43.0246C19.6146 42.9889 19.6225 42.644 19.5868 42.644C19.567 42.644 19.5512 42.5686 19.5472 42.4735C19.5432 42.3823 19.5393 42.2514 19.5313 42.188C19.5274 42.1206 19.5393 42.0373 19.5591 41.9977C19.5829 41.9461 19.575 41.9025 19.5274 41.851C19.4917 41.8113 19.4719 41.7558 19.4877 41.732C19.5194 41.6805 19.5155 40.9549 19.4877 40.2689C19.4758 40.0429 19.4838 39.8367 19.5036 39.8129C19.5234 39.7891 19.5274 39.694 19.5075 39.5948C19.4877 39.4799 19.4917 39.3926 19.5194 39.349C19.5512 39.2975 19.5472 39.2657 19.4957 39.2142C19.46 39.1785 19.4282 39.1111 19.4243 39.0635C19.4203 38.9763 19.4164 38.9525 19.3688 38.6789C19.3529 38.6036 19.3331 38.3895 19.3252 38.2071C19.3172 38.0247 19.2934 37.8542 19.2736 37.8304C19.2538 37.8066 19.234 37.7114 19.2379 37.6242C19.2379 37.537 19.2221 37.4299 19.1983 37.3863C19.1547 37.307 19.1071 37.1286 19.0912 36.9938C19.0714 36.7678 19.0198 36.5378 18.9921 36.5378C18.9643 36.5378 18.8771 36.0818 18.8533 35.7844C18.8335 35.5783 18.7859 35.4117 18.7383 35.376C18.7066 35.3562 18.7106 35.3364 18.7502 35.3126C18.7938 35.2848 18.7978 35.2611 18.7661 35.2214C18.7304 35.1778 18.6511 34.7773 18.6392 34.5949C18.6392 34.5632 18.6273 34.4284 18.6194 34.2975C18.6075 34.1667 18.5916 33.9526 18.5797 33.8217C18.5718 33.6909 18.5599 33.5838 18.5559 33.5838C18.552 33.5838 18.544 33.5204 18.5321 33.4451C18.5242 33.3697 18.4965 33.2587 18.4727 33.1992C18.4489 33.1398 18.4409 33.0763 18.4528 33.0525C18.4687 33.0287 18.4608 32.9812 18.4409 32.9415C18.4211 32.9018 18.3854 32.7908 18.3616 32.6917C18.318 32.4895 18.3418 32.4538 18.544 32.4538C18.6114 32.4538 18.6828 32.4379 18.6947 32.4141C18.7066 32.3904 18.7502 32.3745 18.7859 32.3745C18.8216 32.3705 18.9445 32.2873 19.0595 32.1842L19.2657 31.9978L19.2022 31.8392C19.0952 31.5537 19.0317 31.2127 19.004 30.7687C18.9881 30.4237 18.9564 30.2651 18.8652 30.0153C18.7978 29.8408 18.7106 29.599 18.667 29.48C18.5639 29.1906 18.437 28.5244 18.437 28.2509C18.437 27.9138 18.3656 27.557 18.2308 27.208C18.1198 26.9146 17.985 26.4388 18.0286 26.4824C18.0722 26.5261 21.8073 34.4839 21.8311 34.587C21.8469 34.6465 21.9778 34.9438 22.1245 35.2492C22.2712 35.5545 22.7073 36.4823 23.0959 37.311C23.4845 38.1397 23.8374 38.8772 23.881 38.9485C23.9524 39.0715 24.9674 39.9715 24.9991 39.9438C25.0071 39.9319 24.9595 39.5314 24.896 39.0477C24.7652 38.0405 24.8286 38.2269 23.9682 36.3792C23.6708 35.7369 23.2902 34.9161 23.1276 34.5553C22.9611 34.1945 22.7946 33.8654 22.7589 33.8217C22.6717 33.7226 17.3664 22.339 17.3664 22.2557C17.3664 22.22 17.303 22.0654 17.2276 21.9107C17.1523 21.7561 17.0889 21.6253 17.0889 21.6134C17.0889 21.6054 17.1325 21.5856 17.188 21.5737C17.2752 21.5499 17.2871 21.5301 17.2871 21.3556C17.2871 21.2327 17.2673 21.1455 17.2276 21.1138C17.1721 21.0662 17.1761 21.0543 17.2475 20.9869C17.2911 20.9472 17.3268 20.8798 17.3268 20.8402C17.3268 20.7411 17.6162 20.5745 17.8343 20.5468C18.0365 20.523 18.1594 20.4239 18.1594 20.289C18.1594 20.1542 18.0088 19.9005 17.9017 19.8529C17.8264 19.8172 17.7946 19.8331 17.6797 19.948C17.6043 20.0234 17.4973 20.1106 17.4378 20.1463C17.3307 20.2018 17.3268 20.2018 17.3268 20.1027C17.3268 20.0194 17.2911 19.9837 17.1404 19.9163C17.0334 19.8687 16.8708 19.8132 16.7717 19.7894C16.6091 19.7498 16.5813 19.722 16.4822 19.5278C16.3831 19.3216 16.2959 18.9885 16.2364 18.5761L16.2126 18.3977L16.4307 18.2827C16.5615 18.2153 16.6527 18.1439 16.6527 18.1043C16.6527 17.9655 16.4386 17.347 16.391 17.347C16.2919 17.347 16.2919 17.2637 16.395 17.1448C16.5338 16.9782 16.621 16.7998 16.6487 16.6372L16.6725 16.5024L17.0096 16.4905C17.1959 16.4826 17.4299 16.4667 17.5369 16.4548C17.64 16.4469 17.7233 16.4548 17.7233 16.4747C17.7233 16.4985 17.759 16.5143 17.8026 16.5143C17.8462 16.5143 17.8819 16.4945 17.8819 16.4667C17.8819 16.3993 18.7106 16.4588 19.0595 16.55C19.2181 16.5897 19.3529 16.6134 19.3648 16.6055C19.3767 16.5936 19.4401 16.6055 19.5036 16.6333C19.571 16.661 19.797 16.6808 20.019 16.6808L20.4155 16.6848L20.8239 16.4786C21.2086 16.2843 21.2442 16.2526 21.4108 16.0068C21.6368 15.6698 21.72 15.5032 21.7518 15.3129C21.7676 15.2336 21.7914 15.1662 21.8073 15.1662C21.8628 15.1662 21.8945 15.0354 21.9104 14.7538C21.9183 14.6071 21.9064 14.4485 21.8866 14.4089C21.8549 14.3534 21.8628 14.3018 21.9024 14.2225C21.9738 14.0877 21.9461 13.937 21.8509 13.937C21.8152 13.937 21.7081 13.8577 21.613 13.7586C21.4583 13.6 21.4425 13.5643 21.4623 13.4414C21.4821 13.3145 21.4782 13.3026 21.3909 13.3026C21.2958 13.3026 21.2323 13.2233 21.1293 12.9735C21.1055 12.9141 21.0618 12.8665 21.0301 12.8665C20.9984 12.8665 20.9746 12.8427 20.9746 12.811C20.9746 12.7792 20.9508 12.7475 20.927 12.7396C20.8874 12.7237 20.8913 12.6246 20.9508 12.2836L21.0222 11.8435L20.8993 11.6611C20.816 11.5421 20.7565 11.4906 20.7169 11.5025C20.6733 11.5184 20.6574 11.4985 20.6574 11.4351C20.6574 11.3875 20.6098 11.2646 20.5504 11.1655C20.4631 11.0108 19.7256 9.90458 19.452 9.51601C19.4045 9.4486 19.345 9.36137 19.3212 9.31776C19.2934 9.27414 19.2141 9.1433 19.1428 9.02831C19.0278 8.83799 18.9723 8.79437 18.667 8.63973C18.4766 8.54457 18.2942 8.46527 18.2586 8.46527C18.2268 8.46527 18.1991 8.44941 18.1991 8.43355C18.1991 8.41373 18.1555 8.37804 18.1 8.35425C18.0444 8.33046 18.0008 8.28685 18.0008 8.25909C18.0008 8.23133 17.9691 8.18772 17.9255 8.15996C17.8858 8.13617 17.7986 7.95775 17.7233 7.74363C17.5528 7.24007 17.414 7.05768 17.0334 6.84357C16.732 6.67307 16.7162 6.66911 16.2443 6.63739C15.7051 6.6017 15.3958 6.5224 14.9477 6.30829C14.7852 6.22899 14.6226 6.16555 14.583 6.16555C14.4878 6.16555 14.4918 6.14572 14.6305 5.97126C14.7455 5.82852 14.7495 5.81266 14.7891 5.17428C14.8169 4.70244 14.8486 4.45661 14.9041 4.30197C15.0191 3.98081 14.9953 3.46535 14.8447 3.00144C14.8129 2.90628 14.7971 2.81112 14.8129 2.79129C14.8248 2.7675 14.8169 2.72785 14.7891 2.7001C14.7455 2.64459 14.6623 2.23222 14.6543 2.03397C14.6504 1.97846 14.6385 1.91502 14.6226 1.89916C14.6028 1.8833 14.5909 1.79607 14.5909 1.70487C14.5909 1.27664 14.3728 0.824629 14.0199 0.535181C13.6155 0.198152 13.0921 0.0276548 12.418 0.00386456C12.0572 -0.00803058 11.9422 0.00386456 11.6647 0.0831655ZM7.13264 15.9671C7.08902 16.1337 7.04541 16.4747 7.02955 16.772C6.98197 17.7237 7.00179 17.8386 7.25159 17.9417C7.39037 17.9972 7.39037 18.0131 7.33089 18.3739C7.27935 18.6634 7.20005 18.8537 7.12471 18.8537C7.06127 18.8537 6.88284 19.6665 6.88284 19.9639C6.87888 20.0829 6.86302 20.1939 6.83923 20.2097C6.81544 20.2256 6.8194 20.2851 6.85112 20.3723C6.87888 20.4437 6.8987 20.5904 6.8987 20.6974C6.8987 20.9393 6.77579 21.5896 6.7282 21.5896C6.71234 21.5896 6.63701 21.546 6.5696 21.4944C6.49823 21.4389 6.22861 21.2724 5.97088 21.1177C5.64971 20.9274 5.5268 20.8362 5.5942 20.8362C5.64575 20.8402 5.77263 20.8164 5.87969 20.7886C6.05415 20.7411 6.06604 20.7292 6.06604 20.6102C6.06604 20.5428 6.08587 20.4714 6.10569 20.4595C6.1612 20.4239 6.11362 20.1622 6.03432 20.0749C5.99071 20.0234 5.95899 20.0155 5.92727 20.0432C5.89158 20.071 5.87176 20.067 5.85589 20.0273C5.844 19.9956 5.79245 19.9798 5.72108 19.9877C5.66161 19.9956 5.63385 19.9917 5.66161 19.9798C5.74487 19.9401 5.71315 19.8846 5.61006 19.8846C5.53869 19.8846 5.51887 19.8687 5.53473 19.8251C5.55059 19.7894 5.53869 19.7657 5.50301 19.7657C5.47525 19.7657 5.41181 19.6824 5.36026 19.5753C5.277 19.4009 5.277 19.3771 5.33251 19.1987C5.36423 19.0956 5.5149 18.7268 5.6735 18.3779L5.95899 17.7435L6.22861 17.6206C6.49427 17.4976 6.50616 17.4858 6.63701 17.2122C6.85112 16.776 6.93439 16.5381 6.95818 16.2883C6.97007 16.1495 7.00972 16.0147 7.0573 15.9513C7.10092 15.8918 7.1366 15.8085 7.1366 15.761C7.1366 15.7173 7.15246 15.6817 7.17229 15.6817C7.19212 15.6817 7.17229 15.8125 7.13264 15.9671ZM5.39991 43.3894C5.37216 43.3973 5.35233 43.437 5.35233 43.4806C5.35233 43.5202 5.32854 43.5559 5.30475 43.5559C5.26907 43.5559 5.27303 43.5718 5.31268 43.5956C5.36423 43.6273 5.36423 43.6471 5.32061 43.7145C5.29286 43.7581 5.28096 43.8137 5.29682 43.8374C5.30872 43.8573 5.32458 43.9723 5.32854 44.0912C5.33647 44.2577 5.32458 44.3093 5.28493 44.3093C5.25321 44.3093 5.24131 44.3291 5.25321 44.3529C5.26907 44.3767 5.30475 44.3846 5.33647 44.3727C5.37612 44.3569 5.39198 44.3727 5.38405 44.4203C5.37612 44.4679 5.39595 44.4837 5.45939 44.4758C5.50697 44.4679 5.55455 44.4837 5.57041 44.5075C5.58627 44.5313 5.5149 44.5472 5.36423 44.5472H5.13426L5.24924 44.6384L5.36423 44.7335L5.24924 44.7573C5.11047 44.7851 4.8686 45.0071 4.79326 45.1737C4.76154 45.253 4.72189 45.2847 4.68224 45.2688C4.64259 45.253 4.6307 45.2649 4.65052 45.3164C4.68621 45.4036 4.47606 45.6217 4.2897 45.6971C4.21833 45.7248 4.1311 45.8001 4.09938 45.8596C4.06766 45.9231 4.01215 45.9905 3.9725 46.0103C3.93681 46.0301 3.87734 46.1134 3.84958 46.2006C3.79407 46.3552 3.74253 46.4108 3.65926 46.4108C3.62754 46.4108 3.65133 46.3394 3.7227 46.2204C3.78218 46.1173 3.95267 45.816 4.09938 45.5464C4.24609 45.2807 4.3809 45.0626 4.40072 45.0626C4.42055 45.0626 4.43244 45.0309 4.43244 44.9913C4.42848 44.9556 4.63863 44.5234 4.90032 44.0397C5.34044 43.211 5.37216 43.1594 5.40784 43.2625C5.43164 43.3418 5.43164 43.3775 5.39991 43.3894Z"/>
</mask>
<path d="M11.6647 0.0831655C11.4823 0.134711 11.2603 0.217977 11.1691 0.261593C10.7408 0.475705 10.3998 1.01892 10.3483 1.56609C10.3166 1.88726 10.1857 2.36703 10.0628 2.6089C9.74164 3.23934 9.69009 3.76669 9.8487 4.76192C9.90817 5.13067 9.98351 5.55889 10.0152 5.7175C10.0469 5.8761 10.0707 6.07038 10.0747 6.15365C10.0787 6.23692 10.0906 6.34794 10.1064 6.39948C10.1302 6.48671 10.1342 6.48671 10.1857 6.42724C10.2492 6.3519 10.4395 6.24485 10.5069 6.24485C10.5386 6.24485 10.5386 6.26864 10.5069 6.32415C10.4791 6.37966 10.4791 6.40345 10.5069 6.40345C10.5267 6.40345 10.5465 6.41931 10.5465 6.4431C10.5465 6.46292 10.5188 6.48275 10.4871 6.48275C10.4553 6.48275 10.4276 6.51447 10.4316 6.55016C10.4316 6.59377 10.4435 6.6017 10.4553 6.56998C10.4831 6.49464 10.5307 6.51447 10.5346 6.60567C10.5386 6.65721 10.5148 6.69686 10.4633 6.70876C10.4236 6.72065 10.3879 6.74444 10.3879 6.7603C10.3879 6.77616 10.3443 6.78013 10.2967 6.7722C10.2452 6.7603 10.1778 6.77616 10.1461 6.80788C10.1144 6.8396 10.0232 6.90304 9.93989 6.95459C9.80905 7.03389 9.7575 7.04579 9.55528 7.022L9.32531 6.99424L9.15085 7.20042C9.00018 7.38281 8.90501 7.44229 8.25871 7.75553C7.16832 8.28288 6.84319 8.56043 6.75993 9.0402C6.74407 9.12743 6.68855 9.24639 6.63304 9.3019C6.5815 9.36137 6.39911 9.66272 6.22861 9.97595C6.05811 10.2892 5.79642 10.769 5.64178 11.0426C5.48715 11.3161 5.26907 11.7166 5.15408 11.9347C5.0391 12.1528 4.91221 12.3748 4.87653 12.4303C4.74568 12.6246 4.47606 13.5009 4.48399 13.6991C4.49192 13.8696 4.46813 13.9688 4.36107 14.2344C4.34125 14.278 4.29763 14.4009 4.25798 14.508C4.18265 14.7142 4.16282 14.738 3.96853 14.8886C3.52048 15.2296 3.34206 15.4081 3.235 15.6182C3.13984 15.8085 3.12398 15.872 3.14777 16.0306C3.15966 16.1376 3.15966 16.2368 3.1438 16.2526C3.12794 16.2645 3.11208 16.3081 3.10812 16.3399C3.10415 16.3755 3.08433 16.431 3.06847 16.4667C3.05261 16.5024 3.03278 16.5976 3.02882 16.6769C3.02089 16.7562 2.98917 16.9227 2.95348 17.0536C2.88608 17.3153 2.88211 17.347 2.92573 17.343C2.9971 17.3311 3.02089 17.3509 2.98124 17.3946C2.92176 17.4739 2.87418 17.7197 2.92969 17.688C2.95348 17.6721 2.97331 17.684 2.97331 17.7157C2.97331 17.7474 2.94555 17.7871 2.90987 17.799C2.83849 17.8267 2.67989 18.1638 2.71558 18.2193C2.76316 18.2986 2.64024 18.7546 2.54508 18.8458C2.49354 18.8933 2.46182 18.9607 2.47371 18.9925C2.48164 19.0202 2.44992 19.1114 2.39441 19.1907C2.31907 19.3017 2.30718 19.3493 2.3389 19.4128C2.37062 19.4722 2.36665 19.4881 2.32304 19.4881C2.29528 19.4881 2.25563 19.5317 2.24374 19.5872C2.22788 19.6427 2.1803 19.726 2.13668 19.7696C2.0891 19.8172 2.06135 19.8846 2.07324 19.9282C2.08514 19.9679 2.07721 20.0036 2.06135 20.0036C2.02963 20.0036 1.97411 20.1304 1.96222 20.2216C1.95825 20.2652 1.9186 20.3644 1.8512 20.519C1.82741 20.5745 1.80758 20.63 1.80758 20.6459C1.80362 20.6618 1.78379 20.6935 1.75604 20.7212C1.73225 20.745 1.72035 20.7926 1.73225 20.8243C1.74414 20.856 1.72035 20.9036 1.68467 20.9314C1.64105 20.9631 1.62123 21.0107 1.63709 21.0464C1.64898 21.0781 1.63709 21.1177 1.60933 21.1257C1.55779 21.1455 1.49831 21.4746 1.49434 21.7363C1.49434 21.8077 1.48245 21.8671 1.46659 21.8671C1.45469 21.8671 1.4428 21.9504 1.4428 22.0535C1.43883 22.2597 1.24455 23.2589 1.17714 23.4016C1.15732 23.4492 1.14939 23.5523 1.16128 23.6355C1.19697 23.8457 1.11766 25.4832 1.07008 25.5308C1.01854 25.5824 1.01854 25.7251 1.07008 25.7767C1.10973 25.8163 0.780636 31.5022 0.550663 34.7932C0.503083 35.4355 0.459467 36.1413 0.451537 36.3594C0.423782 37.1207 0.312761 38.219 0.253285 38.3102C0.185879 38.4133 0.181914 38.5282 0.24139 38.5877C0.269145 38.6155 0.269145 38.7701 0.24139 39.0992C0.221565 39.3569 0.189844 39.8288 0.173984 40.146C0.158124 40.5266 0.130369 40.7487 0.0946831 40.8081C0.0272774 40.9152 0.0233123 41.161 0.082788 41.2007C0.114508 41.2205 0.122438 41.3752 0.102613 41.728C0.0907181 42.0016 0.0748579 42.6083 0.0708929 43.0682C0.0669278 43.5321 0.0471026 43.9128 0.0312424 43.9128C-0.0123731 43.9128 -0.00840804 44.2181 0.0312424 44.2458C0.0510676 44.2577 0.078823 44.6027 0.0907181 45.0151C0.106578 45.4274 0.158124 46.1015 0.205704 46.5139C0.253285 46.9262 0.28897 47.3425 0.285005 47.4377C0.277075 47.5487 0.304831 47.6756 0.360341 47.7866C0.411887 47.8937 0.451537 48.0602 0.459467 48.2149C0.471362 48.5281 0.514978 48.6074 0.717195 48.7145C0.887692 48.7977 1.45073 48.9087 1.73621 48.9087C1.89481 48.9087 1.92257 48.8889 2.1803 48.6272C2.33493 48.4726 2.45785 48.3298 2.45785 48.314C2.45785 48.3021 2.56887 48.3021 2.70765 48.3219C2.98917 48.3616 4.35314 48.2942 4.75758 48.2228C4.91221 48.1911 5.11047 48.1871 5.25321 48.203C5.61006 48.2466 6.05811 48.1395 6.16517 47.9888C6.21671 47.9135 6.29998 47.8977 7.00576 47.8342C7.87014 47.7589 8.10408 47.7034 8.11201 47.5804C8.11597 47.5368 8.11994 47.3465 8.1239 47.1562L8.12787 46.8152L8.26664 46.7676C8.49265 46.6923 8.61557 46.4504 8.42921 46.4504C8.3737 46.4504 8.31819 46.4346 8.30629 46.4108C8.2944 46.387 8.31026 46.383 8.34198 46.3949C8.3737 46.4068 8.45696 46.379 8.52041 46.3354C8.58385 46.2878 8.65522 46.2522 8.67901 46.2522C8.73452 46.2522 8.76227 46.1411 8.79796 45.7605C8.81778 45.5345 8.81382 45.4433 8.77417 45.4155C8.74245 45.3838 8.73055 45.2649 8.73452 45.0151C8.74245 44.8208 8.73452 44.6542 8.71866 44.6423C8.7028 44.6344 8.69487 44.5948 8.7028 44.5551C8.70676 44.5194 8.69883 44.4481 8.67901 44.4005C8.65918 44.3529 8.65918 44.3014 8.67901 44.2934C8.69487 44.2815 8.70676 44.2339 8.7028 44.1824C8.69883 44.1309 8.70676 44.0714 8.72262 44.0516C8.76227 44.004 8.84554 43.5559 8.82571 43.5202C8.79796 43.4766 8.88519 43.0643 8.93277 43.0048C8.96053 42.9731 8.98432 42.7946 8.98828 42.6083C8.99225 42.4219 9.02 42.2237 9.04776 42.1721C9.08741 42.0968 9.08741 42.073 9.05172 42.0611C9.01207 42.0452 9.01207 42.0254 9.04776 41.958C9.07155 41.9104 9.09137 41.8153 9.08344 41.7479C9.07948 41.6765 9.09534 41.6091 9.11913 41.5932C9.14292 41.5774 9.15085 41.5338 9.13895 41.4941C9.12706 41.4545 9.13499 41.4108 9.15878 41.395C9.18257 41.3791 9.1905 41.3355 9.1786 41.2959C9.16671 41.2562 9.1786 41.2007 9.20636 41.1729C9.23411 41.1412 9.26187 41.0619 9.2698 40.9985C9.28169 40.8637 9.40065 40.4553 9.43633 40.4235C9.46012 40.4037 9.55528 40.1936 9.55528 40.1658C9.55528 40.1579 9.53149 40.1579 9.49977 40.1698C9.42047 40.2015 9.38875 40.1222 9.45616 40.0667C9.48788 40.0389 9.51563 40.0032 9.51563 39.9834C9.51563 39.9676 9.53546 39.9041 9.56321 39.8407C9.587 39.7812 9.60286 39.7138 9.5989 39.694C9.59493 39.6781 9.61872 39.6424 9.65441 39.6147C9.69406 39.5869 9.74164 39.4402 9.77732 39.234C9.80905 39.0477 9.84473 38.8613 9.86059 38.8177C9.90817 38.671 9.928 38.5401 9.97161 38.0683C9.98351 37.9414 10.0113 37.8066 10.0311 37.767C10.0509 37.7273 10.0549 37.648 10.0351 37.5806C10.0152 37.5132 10.0152 37.4339 10.0351 37.3982C10.0588 37.3625 10.0549 37.3268 10.0351 37.311C10.0113 37.2991 10.0073 37.2515 10.0271 37.2C10.043 37.1524 10.0509 37.0929 10.043 37.0651C10.0351 37.0414 10.0469 37.0096 10.0668 36.9938C10.1302 36.9581 10.1183 36.8946 10.0588 36.9184C10.0152 36.9343 10.0073 36.8946 10.0192 36.7479C10.0271 36.6449 10.0351 36.4109 10.043 36.2325C10.0469 36.0501 10.0628 35.9034 10.0747 35.9034C10.0906 35.9034 10.1025 35.8201 10.1025 35.721C10.1064 35.6219 10.1262 35.5188 10.1461 35.491C10.1659 35.4672 10.1699 35.376 10.15 35.2769C10.1342 35.1857 10.1381 35.0985 10.154 35.0866C10.1738 35.0747 10.1818 34.9875 10.1738 34.8923C10.1659 34.7971 10.1699 34.7059 10.1857 34.694C10.2135 34.6663 10.2373 34.2222 10.2333 33.8416C10.2333 33.6988 10.2412 33.5561 10.2531 33.5244C10.269 33.4926 10.2849 33.3935 10.2928 33.3063C10.3047 33.223 10.3285 33.0842 10.3483 33.0049L10.3879 32.8582L11.0937 32.8384C11.9978 32.8067 12.2436 32.7869 12.4339 32.7234L12.5885 32.6719L12.5727 32.4141C12.5648 32.2714 12.5568 32.1009 12.5529 32.0375L12.5489 31.9185H13.0842C13.5719 31.9185 13.6274 31.9264 13.6869 31.9978C13.7265 32.0414 13.7543 32.1088 13.7582 32.1445C13.7582 32.1842 13.7781 32.2159 13.7979 32.2159C13.8217 32.2159 13.8296 32.2555 13.8137 32.3071C13.8018 32.3666 13.8256 32.4578 13.8732 32.549C13.9208 32.6322 13.9486 32.7155 13.9327 32.7353C13.9208 32.7591 13.9367 32.8067 13.9684 32.8424C14.0318 32.9137 14.2102 33.7464 14.1746 33.8019C14.1508 33.8416 14.2618 34.4324 14.3133 34.5196C14.3332 34.5553 14.3688 34.698 14.3926 34.8368C14.4164 34.9756 14.4481 35.1183 14.46 35.15C14.4719 35.1817 14.4878 35.2254 14.4918 35.2492C14.5037 35.3443 14.5631 35.5307 14.5949 35.5664C14.6107 35.5901 14.6345 35.6774 14.6424 35.7646C14.6504 35.8518 14.6742 35.9549 14.69 35.9906C14.7059 36.0263 14.7059 36.0779 14.694 36.0977C14.6781 36.1215 14.6821 36.169 14.7019 36.2087C14.809 36.4149 14.8367 36.4942 14.809 36.5338C14.7931 36.5616 14.805 36.6092 14.8328 36.6409C14.8565 36.6726 14.8684 36.7083 14.8565 36.7242C14.8407 36.736 14.8526 36.7757 14.8764 36.8074C14.9041 36.8391 14.9319 36.9383 14.9358 37.0255C14.9438 37.1127 14.9676 37.2079 14.9874 37.2356C15.0191 37.2674 15.0191 37.2912 14.9914 37.311C14.9636 37.3268 14.9715 37.3705 15.0112 37.4339C15.0469 37.4854 15.0627 37.5291 15.0469 37.5291C15.031 37.5291 15.0389 37.5528 15.0627 37.5846C15.1103 37.6401 15.1301 37.7432 15.1619 38.0366C15.1698 38.108 15.1856 38.1754 15.2015 38.1912C15.2134 38.2031 15.2253 38.2547 15.2253 38.3022C15.2253 38.3459 15.2412 38.4014 15.2649 38.4252C15.2848 38.445 15.3046 38.5957 15.3125 38.7582C15.3165 38.9208 15.3363 39.0794 15.3561 39.1071C15.3799 39.1349 15.3839 39.1666 15.372 39.1825C15.3561 39.1944 15.3601 39.2261 15.3799 39.2499C15.4037 39.2776 15.4275 39.345 15.4394 39.4045C15.4473 39.464 15.4711 39.5274 15.483 39.5512C15.5147 39.6067 15.5544 39.8169 15.5544 39.9557C15.5544 40.0191 15.5703 40.0667 15.5861 40.0667C15.6059 40.0667 15.6218 40.1262 15.6218 40.2015C15.6218 40.2768 15.6416 40.3522 15.6615 40.3641C15.6852 40.376 15.7011 40.4275 15.7011 40.4751C15.7011 40.5227 15.7249 40.6099 15.7566 40.6694C15.7963 40.7407 15.8002 40.7844 15.7685 40.8161C15.7408 40.8438 15.7408 40.8716 15.7685 40.9073C15.7923 40.935 15.8201 41.0223 15.8359 41.0976C15.8994 41.4307 15.9113 41.4782 15.9469 41.5219C15.9747 41.5575 15.9747 41.5932 15.943 41.6289C15.9113 41.6686 15.9073 41.6924 15.939 41.7122C15.9588 41.7241 15.9787 41.7954 15.9787 41.8708C15.9787 41.9461 15.9985 42.0175 16.0183 42.0294C16.0421 42.0413 16.058 42.1087 16.058 42.1721C16.058 42.2395 16.0778 42.3307 16.1016 42.3743C16.1333 42.4338 16.1333 42.4616 16.0976 42.4854C16.0619 42.5092 16.0619 42.5211 16.0936 42.529C16.1254 42.5409 16.1452 42.6797 16.1531 42.9215C16.169 43.3458 16.2007 43.5599 16.276 43.7344C16.3038 43.7978 16.3197 43.9405 16.3157 44.0516C16.3078 44.1586 16.3236 44.2736 16.3434 44.2974C16.3672 44.3251 16.3712 44.3767 16.3593 44.4124C16.3434 44.4481 16.3553 44.5036 16.3791 44.5313C16.4227 44.5868 16.4465 44.8208 16.4505 45.3005C16.4545 45.6614 16.4545 45.7089 16.4584 45.7764C16.4584 45.8874 16.4267 46.0975 16.4029 46.1213C16.3871 46.1332 16.399 46.1808 16.4227 46.2284C16.4505 46.272 16.4743 46.3275 16.4743 46.3513C16.4783 46.3711 16.4941 46.4266 16.5139 46.4663C16.5377 46.5178 16.5338 46.5495 16.502 46.5614C16.4307 46.5852 16.4465 46.6487 16.5179 46.6487C16.5813 46.6487 16.5813 46.7755 16.5179 47.1046C16.506 47.1483 16.4981 47.1998 16.4981 47.2157C16.4941 47.2355 16.4783 47.2355 16.4545 47.2236C16.4346 47.2117 16.4148 47.2276 16.4148 47.2593C16.4148 47.291 16.4346 47.3307 16.4545 47.3425C16.4783 47.3544 16.4941 47.4179 16.4941 47.4774C16.4941 47.5368 16.5139 47.6042 16.5377 47.628C16.5655 47.6558 16.506 47.8065 16.3355 48.1316L16.0936 48.5955L16.1809 48.77C16.2324 48.8691 16.2879 48.9484 16.3117 48.9484C16.3355 48.9524 16.3038 48.992 16.2443 49.0436C16.1412 49.1268 16.1373 49.1347 16.2047 49.1942C16.2443 49.2259 16.4386 49.3052 16.6329 49.3687C16.9699 49.4757 17.0254 49.4837 17.6836 49.4797C18.4806 49.4797 19.0476 49.3964 19.5155 49.218C19.6305 49.1744 19.682 49.0792 19.6463 48.9801C19.6225 48.9167 19.7256 48.8691 19.9001 48.8691C19.9754 48.8691 19.9913 48.8532 19.9754 48.7739C19.9596 48.6986 19.9992 48.6312 20.1499 48.4726C20.253 48.3616 20.3402 48.2466 20.3402 48.2188C20.3402 48.1911 20.2966 48.1276 20.2411 48.0761C20.1856 48.0245 20.1459 47.9611 20.1578 47.9333C20.1657 47.9095 20.1578 47.8699 20.134 47.8461C20.1102 47.8223 20.1063 47.7827 20.1261 47.7509C20.1459 47.7232 20.1618 47.6796 20.1618 47.6597C20.1657 47.5646 20.2332 47.3386 20.2688 47.295C20.2926 47.2672 20.2887 47.2196 20.2609 47.1641C20.2371 47.1205 20.2252 47.069 20.2371 47.0531C20.249 47.0333 20.1935 46.9619 20.1182 46.8866C20.027 46.8033 19.9952 46.7478 20.023 46.728C20.0468 46.7121 20.0706 46.6487 20.0785 46.5852C20.0864 46.5218 20.0983 46.4702 20.1023 46.4702C20.134 46.4702 20.1261 46.0896 20.0944 46.0698C20.0745 46.0579 20.0745 46.0262 20.1023 45.9944C20.1301 45.9587 20.1261 45.931 20.0864 45.8993C20.0547 45.8755 20.0389 45.816 20.0508 45.7764C20.0627 45.7248 20.0468 45.6891 20.0071 45.6733C19.9556 45.6534 19.9516 45.6376 19.9873 45.594C20.0111 45.5622 20.019 45.5067 20.0032 45.471C19.9873 45.4314 19.9715 45.3561 19.9715 45.3005C19.9675 45.1935 20.0587 45.1578 20.3481 45.1459C20.4274 45.1459 20.5067 45.1221 20.5226 45.0983C20.5504 45.0507 20.5147 45.0547 20.0468 45.1261C19.9159 45.1499 19.8961 45.1419 19.9159 45.0904C19.9278 45.0547 19.9159 45.0111 19.8922 44.9913C19.8644 44.9675 19.8485 44.8723 19.8485 44.7772C19.8525 44.686 19.8366 44.5868 19.8168 44.563C19.797 44.5353 19.7653 44.337 19.7494 44.119C19.7296 43.9009 19.6979 43.6907 19.678 43.6511C19.6582 43.6075 19.6384 43.4925 19.6344 43.3854C19.6305 43.2823 19.6106 43.1634 19.5908 43.1237C19.567 43.0841 19.5631 43.0405 19.575 43.0246C19.6146 42.9889 19.6225 42.644 19.5868 42.644C19.567 42.644 19.5512 42.5686 19.5472 42.4735C19.5432 42.3823 19.5393 42.2514 19.5313 42.188C19.5274 42.1206 19.5393 42.0373 19.5591 41.9977C19.5829 41.9461 19.575 41.9025 19.5274 41.851C19.4917 41.8113 19.4719 41.7558 19.4877 41.732C19.5194 41.6805 19.5155 40.9549 19.4877 40.2689C19.4758 40.0429 19.4838 39.8367 19.5036 39.8129C19.5234 39.7891 19.5274 39.694 19.5075 39.5948C19.4877 39.4799 19.4917 39.3926 19.5194 39.349C19.5512 39.2975 19.5472 39.2657 19.4957 39.2142C19.46 39.1785 19.4282 39.1111 19.4243 39.0635C19.4203 38.9763 19.4164 38.9525 19.3688 38.6789C19.3529 38.6036 19.3331 38.3895 19.3252 38.2071C19.3172 38.0247 19.2934 37.8542 19.2736 37.8304C19.2538 37.8066 19.234 37.7114 19.2379 37.6242C19.2379 37.537 19.2221 37.4299 19.1983 37.3863C19.1547 37.307 19.1071 37.1286 19.0912 36.9938C19.0714 36.7678 19.0198 36.5378 18.9921 36.5378C18.9643 36.5378 18.8771 36.0818 18.8533 35.7844C18.8335 35.5783 18.7859 35.4117 18.7383 35.376C18.7066 35.3562 18.7106 35.3364 18.7502 35.3126C18.7938 35.2848 18.7978 35.2611 18.7661 35.2214C18.7304 35.1778 18.6511 34.7773 18.6392 34.5949C18.6392 34.5632 18.6273 34.4284 18.6194 34.2975C18.6075 34.1667 18.5916 33.9526 18.5797 33.8217C18.5718 33.6909 18.5599 33.5838 18.5559 33.5838C18.552 33.5838 18.544 33.5204 18.5321 33.4451C18.5242 33.3697 18.4965 33.2587 18.4727 33.1992C18.4489 33.1398 18.4409 33.0763 18.4528 33.0525C18.4687 33.0287 18.4608 32.9812 18.4409 32.9415C18.4211 32.9018 18.3854 32.7908 18.3616 32.6917C18.318 32.4895 18.3418 32.4538 18.544 32.4538C18.6114 32.4538 18.6828 32.4379 18.6947 32.4141C18.7066 32.3904 18.7502 32.3745 18.7859 32.3745C18.8216 32.3705 18.9445 32.2873 19.0595 32.1842L19.2657 31.9978L19.2022 31.8392C19.0952 31.5537 19.0317 31.2127 19.004 30.7687C18.9881 30.4237 18.9564 30.2651 18.8652 30.0153C18.7978 29.8408 18.7106 29.599 18.667 29.48C18.5639 29.1906 18.437 28.5244 18.437 28.2509C18.437 27.9138 18.3656 27.557 18.2308 27.208C18.1198 26.9146 17.985 26.4388 18.0286 26.4824C18.0722 26.5261 21.8073 34.4839 21.8311 34.587C21.8469 34.6465 21.9778 34.9438 22.1245 35.2492C22.2712 35.5545 22.7073 36.4823 23.0959 37.311C23.4845 38.1397 23.8374 38.8772 23.881 38.9485C23.9524 39.0715 24.9674 39.9715 24.9991 39.9438C25.0071 39.9319 24.9595 39.5314 24.896 39.0477C24.7652 38.0405 24.8286 38.2269 23.9682 36.3792C23.6708 35.7369 23.2902 34.9161 23.1276 34.5553C22.9611 34.1945 22.7946 33.8654 22.7589 33.8217C22.6717 33.7226 17.3664 22.339 17.3664 22.2557C17.3664 22.22 17.303 22.0654 17.2276 21.9107C17.1523 21.7561 17.0889 21.6253 17.0889 21.6134C17.0889 21.6054 17.1325 21.5856 17.188 21.5737C17.2752 21.5499 17.2871 21.5301 17.2871 21.3556C17.2871 21.2327 17.2673 21.1455 17.2276 21.1138C17.1721 21.0662 17.1761 21.0543 17.2475 20.9869C17.2911 20.9472 17.3268 20.8798 17.3268 20.8402C17.3268 20.7411 17.6162 20.5745 17.8343 20.5468C18.0365 20.523 18.1594 20.4239 18.1594 20.289C18.1594 20.1542 18.0088 19.9005 17.9017 19.8529C17.8264 19.8172 17.7946 19.8331 17.6797 19.948C17.6043 20.0234 17.4973 20.1106 17.4378 20.1463C17.3307 20.2018 17.3268 20.2018 17.3268 20.1027C17.3268 20.0194 17.2911 19.9837 17.1404 19.9163C17.0334 19.8687 16.8708 19.8132 16.7717 19.7894C16.6091 19.7498 16.5813 19.722 16.4822 19.5278C16.3831 19.3216 16.2959 18.9885 16.2364 18.5761L16.2126 18.3977L16.4307 18.2827C16.5615 18.2153 16.6527 18.1439 16.6527 18.1043C16.6527 17.9655 16.4386 17.347 16.391 17.347C16.2919 17.347 16.2919 17.2637 16.395 17.1448C16.5338 16.9782 16.621 16.7998 16.6487 16.6372L16.6725 16.5024L17.0096 16.4905C17.1959 16.4826 17.4299 16.4667 17.5369 16.4548C17.64 16.4469 17.7233 16.4548 17.7233 16.4747C17.7233 16.4985 17.759 16.5143 17.8026 16.5143C17.8462 16.5143 17.8819 16.4945 17.8819 16.4667C17.8819 16.3993 18.7106 16.4588 19.0595 16.55C19.2181 16.5897 19.3529 16.6134 19.3648 16.6055C19.3767 16.5936 19.4401 16.6055 19.5036 16.6333C19.571 16.661 19.797 16.6808 20.019 16.6808L20.4155 16.6848L20.8239 16.4786C21.2086 16.2843 21.2442 16.2526 21.4108 16.0068C21.6368 15.6698 21.72 15.5032 21.7518 15.3129C21.7676 15.2336 21.7914 15.1662 21.8073 15.1662C21.8628 15.1662 21.8945 15.0354 21.9104 14.7538C21.9183 14.6071 21.9064 14.4485 21.8866 14.4089C21.8549 14.3534 21.8628 14.3018 21.9024 14.2225C21.9738 14.0877 21.9461 13.937 21.8509 13.937C21.8152 13.937 21.7081 13.8577 21.613 13.7586C21.4583 13.6 21.4425 13.5643 21.4623 13.4414C21.4821 13.3145 21.4782 13.3026 21.3909 13.3026C21.2958 13.3026 21.2323 13.2233 21.1293 12.9735C21.1055 12.9141 21.0618 12.8665 21.0301 12.8665C20.9984 12.8665 20.9746 12.8427 20.9746 12.811C20.9746 12.7792 20.9508 12.7475 20.927 12.7396C20.8874 12.7237 20.8913 12.6246 20.9508 12.2836L21.0222 11.8435L20.8993 11.6611C20.816 11.5421 20.7565 11.4906 20.7169 11.5025C20.6733 11.5184 20.6574 11.4985 20.6574 11.4351C20.6574 11.3875 20.6098 11.2646 20.5504 11.1655C20.4631 11.0108 19.7256 9.90458 19.452 9.51601C19.4045 9.4486 19.345 9.36137 19.3212 9.31776C19.2934 9.27414 19.2141 9.1433 19.1428 9.02831C19.0278 8.83799 18.9723 8.79437 18.667 8.63973C18.4766 8.54457 18.2942 8.46527 18.2586 8.46527C18.2268 8.46527 18.1991 8.44941 18.1991 8.43355C18.1991 8.41373 18.1555 8.37804 18.1 8.35425C18.0444 8.33046 18.0008 8.28685 18.0008 8.25909C18.0008 8.23133 17.9691 8.18772 17.9255 8.15996C17.8858 8.13617 17.7986 7.95775 17.7233 7.74363C17.5528 7.24007 17.414 7.05768 17.0334 6.84357C16.732 6.67307 16.7162 6.66911 16.2443 6.63739C15.7051 6.6017 15.3958 6.5224 14.9477 6.30829C14.7852 6.22899 14.6226 6.16555 14.583 6.16555C14.4878 6.16555 14.4918 6.14572 14.6305 5.97126C14.7455 5.82852 14.7495 5.81266 14.7891 5.17428C14.8169 4.70244 14.8486 4.45661 14.9041 4.30197C15.0191 3.98081 14.9953 3.46535 14.8447 3.00144C14.8129 2.90628 14.7971 2.81112 14.8129 2.79129C14.8248 2.7675 14.8169 2.72785 14.7891 2.7001C14.7455 2.64459 14.6623 2.23222 14.6543 2.03397C14.6504 1.97846 14.6385 1.91502 14.6226 1.89916C14.6028 1.8833 14.5909 1.79607 14.5909 1.70487C14.5909 1.27664 14.3728 0.824629 14.0199 0.535181C13.6155 0.198152 13.0921 0.0276548 12.418 0.00386456C12.0572 -0.00803058 11.9422 0.00386456 11.6647 0.0831655ZM7.13264 15.9671C7.08902 16.1337 7.04541 16.4747 7.02955 16.772C6.98197 17.7237 7.00179 17.8386 7.25159 17.9417C7.39037 17.9972 7.39037 18.0131 7.33089 18.3739C7.27935 18.6634 7.20005 18.8537 7.12471 18.8537C7.06127 18.8537 6.88284 19.6665 6.88284 19.9639C6.87888 20.0829 6.86302 20.1939 6.83923 20.2097C6.81544 20.2256 6.8194 20.2851 6.85112 20.3723C6.87888 20.4437 6.8987 20.5904 6.8987 20.6974C6.8987 20.9393 6.77579 21.5896 6.7282 21.5896C6.71234 21.5896 6.63701 21.546 6.5696 21.4944C6.49823 21.4389 6.22861 21.2724 5.97088 21.1177C5.64971 20.9274 5.5268 20.8362 5.5942 20.8362C5.64575 20.8402 5.77263 20.8164 5.87969 20.7886C6.05415 20.7411 6.06604 20.7292 6.06604 20.6102C6.06604 20.5428 6.08587 20.4714 6.10569 20.4595C6.1612 20.4239 6.11362 20.1622 6.03432 20.0749C5.99071 20.0234 5.95899 20.0155 5.92727 20.0432C5.89158 20.071 5.87176 20.067 5.85589 20.0273C5.844 19.9956 5.79245 19.9798 5.72108 19.9877C5.66161 19.9956 5.63385 19.9917 5.66161 19.9798C5.74487 19.9401 5.71315 19.8846 5.61006 19.8846C5.53869 19.8846 5.51887 19.8687 5.53473 19.8251C5.55059 19.7894 5.53869 19.7657 5.50301 19.7657C5.47525 19.7657 5.41181 19.6824 5.36026 19.5753C5.277 19.4009 5.277 19.3771 5.33251 19.1987C5.36423 19.0956 5.5149 18.7268 5.6735 18.3779L5.95899 17.7435L6.22861 17.6206C6.49427 17.4976 6.50616 17.4858 6.63701 17.2122C6.85112 16.776 6.93439 16.5381 6.95818 16.2883C6.97007 16.1495 7.00972 16.0147 7.0573 15.9513C7.10092 15.8918 7.1366 15.8085 7.1366 15.761C7.1366 15.7173 7.15246 15.6817 7.17229 15.6817C7.19212 15.6817 7.17229 15.8125 7.13264 15.9671ZM5.39991 43.3894C5.37216 43.3973 5.35233 43.437 5.35233 43.4806C5.35233 43.5202 5.32854 43.5559 5.30475 43.5559C5.26907 43.5559 5.27303 43.5718 5.31268 43.5956C5.36423 43.6273 5.36423 43.6471 5.32061 43.7145C5.29286 43.7581 5.28096 43.8137 5.29682 43.8374C5.30872 43.8573 5.32458 43.9723 5.32854 44.0912C5.33647 44.2577 5.32458 44.3093 5.28493 44.3093C5.25321 44.3093 5.24131 44.3291 5.25321 44.3529C5.26907 44.3767 5.30475 44.3846 5.33647 44.3727C5.37612 44.3569 5.39198 44.3727 5.38405 44.4203C5.37612 44.4679 5.39595 44.4837 5.45939 44.4758C5.50697 44.4679 5.55455 44.4837 5.57041 44.5075C5.58627 44.5313 5.5149 44.5472 5.36423 44.5472H5.13426L5.24924 44.6384L5.36423 44.7335L5.24924 44.7573C5.11047 44.7851 4.8686 45.0071 4.79326 45.1737C4.76154 45.253 4.72189 45.2847 4.68224 45.2688C4.64259 45.253 4.6307 45.2649 4.65052 45.3164C4.68621 45.4036 4.47606 45.6217 4.2897 45.6971C4.21833 45.7248 4.1311 45.8001 4.09938 45.8596C4.06766 45.9231 4.01215 45.9905 3.9725 46.0103C3.93681 46.0301 3.87734 46.1134 3.84958 46.2006C3.79407 46.3552 3.74253 46.4108 3.65926 46.4108C3.62754 46.4108 3.65133 46.3394 3.7227 46.2204C3.78218 46.1173 3.95267 45.816 4.09938 45.5464C4.24609 45.2807 4.3809 45.0626 4.40072 45.0626C4.42055 45.0626 4.43244 45.0309 4.43244 44.9913C4.42848 44.9556 4.63863 44.5234 4.90032 44.0397C5.34044 43.211 5.37216 43.1594 5.40784 43.2625C5.43164 43.3418 5.43164 43.3775 5.39991 43.3894Z" fill="black" stroke="#EF5017" mask="url(#path-1-inside-1)"/>
<path d="M10.3093 6.66123L10.3251 6.67511L10.3633 6.70856C10.3528 6.71612 10.3396 6.7207 10.3251 6.7207C10.2696 6.7207 10.2696 6.70881 10.3093 6.66123ZM10.3093 6.66123C10.3146 6.65513 10.3199 6.64918 10.3251 6.64355C10.3469 6.61986 10.3663 6.60175 10.3727 6.60175C10.3806 6.60175 10.3886 6.62951 10.3886 6.66123C10.3886 6.6759 10.3826 6.68973 10.3727 6.70035C10.3703 6.70294 10.3676 6.70533 10.3648 6.7075L10.3251 6.67444L10.3093 6.66123Z" fill="black" stroke="#EF5017" stroke-width="0.5"/>
<path d="M13 46.5903C13.0021 46.5696 12.9976 46.5498 12.9894 46.5415C12.9816 46.5311 12.9738 46.5377 12.9705 46.5557C12.9701 46.5574 12.9698 46.5593 12.9696 46.5613C12.9686 46.57 12.9684 46.5807 12.9695 46.5931C12.9695 46.5981 12.9697 46.6027 12.97 46.6068C12.97 46.6073 12.97 46.6077 12.9701 46.6081C12.9726 46.639 12.9829 46.6445 12.9933 46.6168C12.9966 46.6093 12.9986 46.6011 12.9997 46.5931C12.9998 46.5921 12.9999 46.5912 13 46.5903Z" fill="black" stroke="#EF5017" stroke-width="0.5"/>
</svg>
