<svg width="113" height="167" viewBox="0 0 113 167" fill="none" xmlns="http://www.w3.org/2000/svg">
<g filter="url(#filter0_d)">
<mask id="path-1-inside-1" fill="white">
<path d="M54.5212 0.329491C52.8763 0.762353 52.864 0.77472 53.47 1.21995C54.0389 1.64044 54.4594 2.24645 54.4594 2.67931C54.4594 2.96377 54.4346 2.96377 53.6184 2.9143C53.0124 2.88956 52.6784 2.80299 52.394 2.59274C51.8746 2.22172 51.689 2.24645 51.3057 2.75352C50.6502 3.60688 50.4647 4.83126 50.8233 6.04327C51.0212 6.73585 51.689 8.0097 51.8498 8.0097C51.8993 8.0097 52.0972 7.71288 52.3074 7.35423L52.6784 6.71112L53.4329 6.67401C54.1131 6.63691 54.1996 6.66165 54.2739 6.89663C54.4099 7.30476 54.2368 7.94787 53.9276 8.21995C53.7792 8.35599 53.3834 8.61571 53.0371 8.81359C52.159 9.32066 51.3057 10.1616 50.9346 10.8913C50.4152 11.9426 50.576 13.4885 51.3304 14.7871C51.5159 15.1086 51.6025 15.3684 51.5406 15.4302C51.4788 15.492 50.5636 15.6033 49.5124 15.6775C44.788 15.9867 39.5071 16.9761 34.6219 18.4602C33.8304 18.6952 33.1254 18.8931 33.0389 18.8931C32.9647 18.8931 32.5813 18.6457 32.1979 18.3489C31.8145 18.0397 30.8375 17.409 30.0459 16.9267C28.3021 15.8878 27.3004 15.0839 26.6696 14.2677L26.1996 13.6493L26.1131 15.2571C26.0636 16.2712 25.8905 17.5327 25.6555 18.6952C25.4452 19.7093 25.2721 20.773 25.2721 21.045C25.2721 21.9479 25.1731 22.0963 24.2951 22.5291C23.1696 23.098 21.6731 24.1987 20.3251 25.4355C19.311 26.3631 19.1873 26.4496 18.977 26.3012C18.841 26.2023 18.2226 25.7323 17.5795 25.25C16.9488 24.7677 15.947 24.0874 15.3657 23.7412C14.3516 23.1228 11.7915 21.9602 11.0866 21.7871C10.7527 21.7005 10.7527 21.7005 10.9382 21.9973C11.6926 23.1475 13.0901 25.8436 14.2898 28.4779C15.4028 30.9019 15.8604 32.0768 15.9965 32.9055C16.182 34.0556 16.8127 34.773 17.8887 35.0203C18.2721 35.1069 18.8534 35.8613 20.8074 38.78C21.5 39.8189 22.0318 40.7217 21.9947 40.7836C21.9452 40.8578 18.5936 40.9072 12.9541 40.9072H4L4.0371 61.2765C4.0742 82.9196 4.0742 82.7712 4.68021 87.4337C6.99293 105.169 16.2686 122.693 31.5795 138.289C36.3534 143.137 41.6466 147.738 47.0389 151.67C48.4488 152.709 54.5088 156.791 56.3392 157.941L56.6608 158.139L59.9258 155.888C66.6661 151.201 70.3392 148.443 75.1749 144.411C95.4205 127.541 106.032 109.497 108.382 87.9037C108.926 82.8949 108.926 82.7836 108.963 61.4744L109 40.9072L100.256 40.8825C92.5883 40.8454 91.5 40.8207 91.4753 40.6599C91.4505 40.5609 92.341 39.1387 93.4417 37.5185L95.4576 34.5503L96.2986 34.3525C96.8675 34.2164 97.2509 34.0309 97.4735 33.8083C97.7827 33.5115 97.8074 33.3878 97.8693 32.151L97.9435 30.8277L100.071 26.1404C101.246 23.568 102.186 21.4408 102.161 21.4161C102.074 21.3295 96.6201 24.2111 95.705 24.8171C95.235 25.1387 94.7774 25.4355 94.6908 25.485C94.6042 25.5344 94.2209 25.2995 93.7633 24.9161C92.5265 23.8648 91.5866 23.2217 90.1643 22.4178C89.2739 21.9231 88.8163 21.5892 88.7915 21.4284C88.7668 21.2924 88.6802 20.5132 88.606 19.697C88.5318 18.8807 88.2474 17.273 87.9753 16.1104C87.7032 14.9479 87.4806 13.8843 87.4806 13.7235C87.4806 13.5751 87.4435 13.4514 87.4064 13.4514C87.3693 13.4514 87.0601 13.6987 86.7262 13.9956C86.3922 14.2924 85.5512 14.8366 84.8463 15.1952C83.3251 15.9744 81.8905 16.8896 80.7774 17.8171L79.9488 18.4973L78.6131 18.1263C74.8163 17.0874 70.1908 16.2341 66.1466 15.8136C64.7862 15.6652 63.364 15.5044 62.9929 15.4549C62.2138 15.356 62.2138 15.356 62.5601 14.1934C62.8569 13.1917 62.7456 11.6705 62.3251 10.8048C61.9417 10.0132 61.0389 9.14751 60.1484 8.68991C59.1714 8.19521 58.9117 7.88603 58.9117 7.20582C58.9117 6.71112 58.9488 6.62454 59.2332 6.5256C59.4187 6.4514 59.7403 6.42666 59.9629 6.47613C60.3463 6.53797 60.5565 6.64928 61.3233 7.20582L61.6696 7.4408L61.9664 7.08214C63.1661 5.63514 63.1413 3.89133 61.9046 2.44433L61.5459 2.02384L61.1131 2.48143C60.7173 2.88956 60.606 2.93903 60.0618 2.93903C59.0353 2.93903 58.9117 2.58037 59.5919 1.57861C59.8269 1.21995 60.0247 0.92313 60.0247 0.898395C60.0247 0.811823 58.9859 0.453166 58.0459 0.230551C56.735 -0.103371 56.0548 -0.0786364 54.5212 0.329491ZM51.3799 19.3878C51.4293 19.9072 51.553 20.5009 51.6643 20.7111C51.9735 21.3171 51.924 21.5397 51.5283 21.4532C51.3304 21.4037 50.7615 21.28 50.2544 21.1687C49.0177 20.909 47.311 20.9708 46.5318 21.3295C45.2827 21.886 44.4293 22.9867 44.1943 24.3348C43.9223 25.8684 44.182 26.8578 45.8021 30.3949C46.7668 32.485 47.0389 33.5362 47.0389 35.0698V36.2447L47.4841 36.1705C48.3622 36.0221 49.6237 35.3295 50.2544 34.6369C50.9717 33.8578 51.3057 32.9549 51.4912 31.2853C51.6396 29.962 51.8498 29.4426 52.3074 29.3313C53.0371 29.1457 53.5936 29.8507 53.5936 30.9143C53.5813 33.1404 51.8375 35.651 49.5124 36.7889C48.0654 37.5062 47.2244 37.7164 45.4929 37.7783C43.7862 37.8401 42.7845 37.6793 41.288 37.0857C38.6784 36.0344 36.7986 34.0804 36.5636 32.1634C36.4399 31.0874 37.0088 30.568 37.7385 31.0874C38.1095 31.3348 38.3445 31.8295 38.765 33.1775C39.3339 34.9832 40.1873 35.7376 42.1166 36.1334C43.0318 36.3189 43.6996 36.3807 43.6996 36.2818C43.6996 36.2571 43.5512 35.8489 43.3657 35.3913C43.0442 34.5627 43.0318 34.439 42.9452 31.0751C42.8587 27.3525 42.8216 27.1175 42.129 25.8065C41.3375 24.273 39.9399 23.1722 38.3569 22.8383C37.5777 22.6652 36.106 22.7641 35.1784 23.0486C34.5353 23.2341 34.4859 23.2341 34.3375 23.0238C34.1272 22.7394 34.1272 21.1934 34.3375 21.0327C34.5353 20.8719 37.6643 20.1175 40.1131 19.6475C42.9947 19.091 45.4806 18.7571 48.7085 18.4726C48.9806 18.4602 49.6731 18.4355 50.2544 18.4479L51.3057 18.4602L51.3799 19.3878ZM66.3322 18.6457C68.8057 18.7942 71.6131 19.1157 73.8763 19.5238C75.917 19.8949 79.0954 20.7111 79.2191 20.8966C79.3551 21.1192 79.3428 22.9496 79.1943 23.0362C79.1325 23.0733 78.811 22.9744 78.4894 22.8136C76.2014 21.651 73.5795 22.5291 71.9223 25.0026C70.7968 26.6846 70.7721 26.833 70.6608 31.0751C70.5742 34.4143 70.5495 34.8595 70.3021 35.515C70.1661 35.9231 70.0671 36.2818 70.1042 36.3189C70.2156 36.4178 71.8233 36.1086 72.553 35.8366C73.9011 35.3295 74.4947 34.5503 75.1131 32.5221C75.5583 31.0132 76.424 30.3207 76.9187 31.0751C77.0671 31.2977 77.1042 31.5698 77.0671 32.0521C76.8693 34.4019 73.9258 36.9373 70.5989 37.6298C69.5353 37.8525 67.5565 37.8772 66.5053 37.6793C64.3534 37.2836 62.2756 35.9355 61.1254 34.1793C60.2226 32.8065 59.7774 30.7412 60.2102 29.9125C60.4576 29.4178 61.0265 29.2076 61.5212 29.4178C62.053 29.6281 62.3251 30.3207 62.424 31.6934C62.5477 33.5486 62.894 34.3401 63.871 34.9956C64.341 35.3171 65.7633 35.8366 66.1466 35.8366C66.258 35.8366 66.2951 35.5397 66.2827 34.7482C66.2703 33.3136 66.53 32.5344 68.1502 29.2447L69.4488 26.6228L69.3993 25.3242C69.3127 23.3949 68.7315 22.2694 67.4205 21.5521C66.8269 21.2182 66.6413 21.1811 65.3428 21.144C64.2049 21.1069 63.6979 21.144 62.8198 21.3542C62.2138 21.5026 61.6943 21.5892 61.6572 21.5521C61.6201 21.5274 61.7191 21.1316 61.8675 20.6864C62.0035 20.2412 62.1272 19.5733 62.1272 19.2023V18.5221H63.0919C63.6113 18.5221 65.0707 18.5839 66.3322 18.6457ZM88.7297 24.5203C90.8816 25.8065 93.0336 27.5132 92.8728 27.773C92.8233 27.8595 92.5512 27.9214 92.2668 27.9214C91.4876 27.9337 90.7827 28.3048 90.2756 28.9973C89.7067 29.7889 88.841 31.4337 88.2968 32.7818C87.8392 33.9072 86.7385 37.6051 86.7385 38.0009C86.7385 38.2606 87.1714 38.2111 88.0989 37.803C88.7544 37.5185 89.1625 37.1104 90.4859 35.4284C90.9558 34.8348 91.4134 34.3525 91.5124 34.3525C91.8834 34.3525 91.8463 34.773 91.3887 35.6758C90.7827 36.8383 89.4223 38.3101 88.5565 38.7429C87.3074 39.3489 85.477 39.5715 84.1166 39.2871C82.2491 38.8913 80.7032 37.5556 80.3816 36.0221C80.159 34.9832 81.3958 32.3737 82.2862 32.0026C82.9912 31.7182 83.0654 32.0521 82.583 33.2518C81.6431 35.5397 81.6926 36.7641 82.7933 37.5556C83.4982 38.0751 83.6714 38.0503 83.8693 37.4196C84.0919 36.7023 84.9205 35.4779 86.1696 34.0433C88.5565 31.2853 89.9293 28.5892 89.6572 27.1546C89.5088 26.3136 88.7668 25.6952 87.5053 25.3118C86.8251 25.1139 86.6767 24.9284 86.8746 24.5574C87.0601 24.1864 87.3693 23.8401 87.5053 23.8401C87.5671 23.8401 88.1113 24.1493 88.7297 24.5203ZM26.9417 24.7182C27.189 25.1881 27.0654 25.3613 26.3481 25.5592C25.6678 25.7571 24.7155 26.4496 24.4435 26.9567C23.7261 28.3295 24.9505 31.1369 27.6219 34.2535C29.1431 36.0344 29.8852 37.1104 30.0954 37.8772C30.182 38.1864 30.3057 38.4337 30.3551 38.4337C30.553 38.4337 31.4682 37.5309 31.6661 37.1475C31.9629 36.5662 31.9011 35.2305 31.5177 34.0062C31.1837 32.9549 31.1961 32.5715 31.5424 32.4479C31.8392 32.3242 32.6307 33.2394 32.9523 34.068C33.1007 34.4638 33.2491 35.1316 33.2862 35.5521C33.3604 36.5662 32.9523 37.4567 32.0247 38.3595C30.9982 39.3489 30.2067 39.6952 28.8216 39.7694C27.4488 39.8313 26.4717 39.6705 25.4329 39.1881C24.4187 38.7058 23.8869 38.2853 23.2067 37.3825C22.2792 36.1581 21.8463 35.1192 22.1678 34.9214C22.4028 34.773 22.6873 35.0327 23.6519 36.3313C24.7155 37.7659 25.136 38.1616 26.0265 38.545C26.5954 38.7924 28.0795 39.1263 28.1784 39.0274C28.2155 38.9903 28.03 38.6934 27.758 38.3595C27.053 37.4691 26.4346 36.1457 25.6802 33.9196C25.3216 32.8313 24.7403 31.3843 24.4064 30.6917C23.6519 29.1334 23.1325 28.6263 22.0936 28.4161C21.1908 28.2429 21.0671 28.2058 21.0671 28.0698C21.0671 27.7977 26.0636 24.3348 26.4717 24.3348C26.6572 24.3348 26.818 24.4585 26.9417 24.7182Z"/>
</mask>
<path d="M54.5212 0.329491C52.8763 0.762353 52.864 0.77472 53.47 1.21995C54.0389 1.64044 54.4594 2.24645 54.4594 2.67931C54.4594 2.96377 54.4346 2.96377 53.6184 2.9143C53.0124 2.88956 52.6784 2.80299 52.394 2.59274C51.8746 2.22172 51.689 2.24645 51.3057 2.75352C50.6502 3.60688 50.4647 4.83126 50.8233 6.04327C51.0212 6.73585 51.689 8.0097 51.8498 8.0097C51.8993 8.0097 52.0972 7.71288 52.3074 7.35423L52.6784 6.71112L53.4329 6.67401C54.1131 6.63691 54.1996 6.66165 54.2739 6.89663C54.4099 7.30476 54.2368 7.94787 53.9276 8.21995C53.7792 8.35599 53.3834 8.61571 53.0371 8.81359C52.159 9.32066 51.3057 10.1616 50.9346 10.8913C50.4152 11.9426 50.576 13.4885 51.3304 14.7871C51.5159 15.1086 51.6025 15.3684 51.5406 15.4302C51.4788 15.492 50.5636 15.6033 49.5124 15.6775C44.788 15.9867 39.5071 16.9761 34.6219 18.4602C33.8304 18.6952 33.1254 18.8931 33.0389 18.8931C32.9647 18.8931 32.5813 18.6457 32.1979 18.3489C31.8145 18.0397 30.8375 17.409 30.0459 16.9267C28.3021 15.8878 27.3004 15.0839 26.6696 14.2677L26.1996 13.6493L26.1131 15.2571C26.0636 16.2712 25.8905 17.5327 25.6555 18.6952C25.4452 19.7093 25.2721 20.773 25.2721 21.045C25.2721 21.9479 25.1731 22.0963 24.2951 22.5291C23.1696 23.098 21.6731 24.1987 20.3251 25.4355C19.311 26.3631 19.1873 26.4496 18.977 26.3012C18.841 26.2023 18.2226 25.7323 17.5795 25.25C16.9488 24.7677 15.947 24.0874 15.3657 23.7412C14.3516 23.1228 11.7915 21.9602 11.0866 21.7871C10.7527 21.7005 10.7527 21.7005 10.9382 21.9973C11.6926 23.1475 13.0901 25.8436 14.2898 28.4779C15.4028 30.9019 15.8604 32.0768 15.9965 32.9055C16.182 34.0556 16.8127 34.773 17.8887 35.0203C18.2721 35.1069 18.8534 35.8613 20.8074 38.78C21.5 39.8189 22.0318 40.7217 21.9947 40.7836C21.9452 40.8578 18.5936 40.9072 12.9541 40.9072H4L4.0371 61.2765C4.0742 82.9196 4.0742 82.7712 4.68021 87.4337C6.99293 105.169 16.2686 122.693 31.5795 138.289C36.3534 143.137 41.6466 147.738 47.0389 151.67C48.4488 152.709 54.5088 156.791 56.3392 157.941L56.6608 158.139L59.9258 155.888C66.6661 151.201 70.3392 148.443 75.1749 144.411C95.4205 127.541 106.032 109.497 108.382 87.9037C108.926 82.8949 108.926 82.7836 108.963 61.4744L109 40.9072L100.256 40.8825C92.5883 40.8454 91.5 40.8207 91.4753 40.6599C91.4505 40.5609 92.341 39.1387 93.4417 37.5185L95.4576 34.5503L96.2986 34.3525C96.8675 34.2164 97.2509 34.0309 97.4735 33.8083C97.7827 33.5115 97.8074 33.3878 97.8693 32.151L97.9435 30.8277L100.071 26.1404C101.246 23.568 102.186 21.4408 102.161 21.4161C102.074 21.3295 96.6201 24.2111 95.705 24.8171C95.235 25.1387 94.7774 25.4355 94.6908 25.485C94.6042 25.5344 94.2209 25.2995 93.7633 24.9161C92.5265 23.8648 91.5866 23.2217 90.1643 22.4178C89.2739 21.9231 88.8163 21.5892 88.7915 21.4284C88.7668 21.2924 88.6802 20.5132 88.606 19.697C88.5318 18.8807 88.2474 17.273 87.9753 16.1104C87.7032 14.9479 87.4806 13.8843 87.4806 13.7235C87.4806 13.5751 87.4435 13.4514 87.4064 13.4514C87.3693 13.4514 87.0601 13.6987 86.7262 13.9956C86.3922 14.2924 85.5512 14.8366 84.8463 15.1952C83.3251 15.9744 81.8905 16.8896 80.7774 17.8171L79.9488 18.4973L78.6131 18.1263C74.8163 17.0874 70.1908 16.2341 66.1466 15.8136C64.7862 15.6652 63.364 15.5044 62.9929 15.4549C62.2138 15.356 62.2138 15.356 62.5601 14.1934C62.8569 13.1917 62.7456 11.6705 62.3251 10.8048C61.9417 10.0132 61.0389 9.14751 60.1484 8.68991C59.1714 8.19521 58.9117 7.88603 58.9117 7.20582C58.9117 6.71112 58.9488 6.62454 59.2332 6.5256C59.4187 6.4514 59.7403 6.42666 59.9629 6.47613C60.3463 6.53797 60.5565 6.64928 61.3233 7.20582L61.6696 7.4408L61.9664 7.08214C63.1661 5.63514 63.1413 3.89133 61.9046 2.44433L61.5459 2.02384L61.1131 2.48143C60.7173 2.88956 60.606 2.93903 60.0618 2.93903C59.0353 2.93903 58.9117 2.58037 59.5919 1.57861C59.8269 1.21995 60.0247 0.92313 60.0247 0.898395C60.0247 0.811823 58.9859 0.453166 58.0459 0.230551C56.735 -0.103371 56.0548 -0.0786364 54.5212 0.329491ZM51.3799 19.3878C51.4293 19.9072 51.553 20.5009 51.6643 20.7111C51.9735 21.3171 51.924 21.5397 51.5283 21.4532C51.3304 21.4037 50.7615 21.28 50.2544 21.1687C49.0177 20.909 47.311 20.9708 46.5318 21.3295C45.2827 21.886 44.4293 22.9867 44.1943 24.3348C43.9223 25.8684 44.182 26.8578 45.8021 30.3949C46.7668 32.485 47.0389 33.5362 47.0389 35.0698V36.2447L47.4841 36.1705C48.3622 36.0221 49.6237 35.3295 50.2544 34.6369C50.9717 33.8578 51.3057 32.9549 51.4912 31.2853C51.6396 29.962 51.8498 29.4426 52.3074 29.3313C53.0371 29.1457 53.5936 29.8507 53.5936 30.9143C53.5813 33.1404 51.8375 35.651 49.5124 36.7889C48.0654 37.5062 47.2244 37.7164 45.4929 37.7783C43.7862 37.8401 42.7845 37.6793 41.288 37.0857C38.6784 36.0344 36.7986 34.0804 36.5636 32.1634C36.4399 31.0874 37.0088 30.568 37.7385 31.0874C38.1095 31.3348 38.3445 31.8295 38.765 33.1775C39.3339 34.9832 40.1873 35.7376 42.1166 36.1334C43.0318 36.3189 43.6996 36.3807 43.6996 36.2818C43.6996 36.2571 43.5512 35.8489 43.3657 35.3913C43.0442 34.5627 43.0318 34.439 42.9452 31.0751C42.8587 27.3525 42.8216 27.1175 42.129 25.8065C41.3375 24.273 39.9399 23.1722 38.3569 22.8383C37.5777 22.6652 36.106 22.7641 35.1784 23.0486C34.5353 23.2341 34.4859 23.2341 34.3375 23.0238C34.1272 22.7394 34.1272 21.1934 34.3375 21.0327C34.5353 20.8719 37.6643 20.1175 40.1131 19.6475C42.9947 19.091 45.4806 18.7571 48.7085 18.4726C48.9806 18.4602 49.6731 18.4355 50.2544 18.4479L51.3057 18.4602L51.3799 19.3878ZM66.3322 18.6457C68.8057 18.7942 71.6131 19.1157 73.8763 19.5238C75.917 19.8949 79.0954 20.7111 79.2191 20.8966C79.3551 21.1192 79.3428 22.9496 79.1943 23.0362C79.1325 23.0733 78.811 22.9744 78.4894 22.8136C76.2014 21.651 73.5795 22.5291 71.9223 25.0026C70.7968 26.6846 70.7721 26.833 70.6608 31.0751C70.5742 34.4143 70.5495 34.8595 70.3021 35.515C70.1661 35.9231 70.0671 36.2818 70.1042 36.3189C70.2156 36.4178 71.8233 36.1086 72.553 35.8366C73.9011 35.3295 74.4947 34.5503 75.1131 32.5221C75.5583 31.0132 76.424 30.3207 76.9187 31.0751C77.0671 31.2977 77.1042 31.5698 77.0671 32.0521C76.8693 34.4019 73.9258 36.9373 70.5989 37.6298C69.5353 37.8525 67.5565 37.8772 66.5053 37.6793C64.3534 37.2836 62.2756 35.9355 61.1254 34.1793C60.2226 32.8065 59.7774 30.7412 60.2102 29.9125C60.4576 29.4178 61.0265 29.2076 61.5212 29.4178C62.053 29.6281 62.3251 30.3207 62.424 31.6934C62.5477 33.5486 62.894 34.3401 63.871 34.9956C64.341 35.3171 65.7633 35.8366 66.1466 35.8366C66.258 35.8366 66.2951 35.5397 66.2827 34.7482C66.2703 33.3136 66.53 32.5344 68.1502 29.2447L69.4488 26.6228L69.3993 25.3242C69.3127 23.3949 68.7315 22.2694 67.4205 21.5521C66.8269 21.2182 66.6413 21.1811 65.3428 21.144C64.2049 21.1069 63.6979 21.144 62.8198 21.3542C62.2138 21.5026 61.6943 21.5892 61.6572 21.5521C61.6201 21.5274 61.7191 21.1316 61.8675 20.6864C62.0035 20.2412 62.1272 19.5733 62.1272 19.2023V18.5221H63.0919C63.6113 18.5221 65.0707 18.5839 66.3322 18.6457ZM88.7297 24.5203C90.8816 25.8065 93.0336 27.5132 92.8728 27.773C92.8233 27.8595 92.5512 27.9214 92.2668 27.9214C91.4876 27.9337 90.7827 28.3048 90.2756 28.9973C89.7067 29.7889 88.841 31.4337 88.2968 32.7818C87.8392 33.9072 86.7385 37.6051 86.7385 38.0009C86.7385 38.2606 87.1714 38.2111 88.0989 37.803C88.7544 37.5185 89.1625 37.1104 90.4859 35.4284C90.9558 34.8348 91.4134 34.3525 91.5124 34.3525C91.8834 34.3525 91.8463 34.773 91.3887 35.6758C90.7827 36.8383 89.4223 38.3101 88.5565 38.7429C87.3074 39.3489 85.477 39.5715 84.1166 39.2871C82.2491 38.8913 80.7032 37.5556 80.3816 36.0221C80.159 34.9832 81.3958 32.3737 82.2862 32.0026C82.9912 31.7182 83.0654 32.0521 82.583 33.2518C81.6431 35.5397 81.6926 36.7641 82.7933 37.5556C83.4982 38.0751 83.6714 38.0503 83.8693 37.4196C84.0919 36.7023 84.9205 35.4779 86.1696 34.0433C88.5565 31.2853 89.9293 28.5892 89.6572 27.1546C89.5088 26.3136 88.7668 25.6952 87.5053 25.3118C86.8251 25.1139 86.6767 24.9284 86.8746 24.5574C87.0601 24.1864 87.3693 23.8401 87.5053 23.8401C87.5671 23.8401 88.1113 24.1493 88.7297 24.5203ZM26.9417 24.7182C27.189 25.1881 27.0654 25.3613 26.3481 25.5592C25.6678 25.7571 24.7155 26.4496 24.4435 26.9567C23.7261 28.3295 24.9505 31.1369 27.6219 34.2535C29.1431 36.0344 29.8852 37.1104 30.0954 37.8772C30.182 38.1864 30.3057 38.4337 30.3551 38.4337C30.553 38.4337 31.4682 37.5309 31.6661 37.1475C31.9629 36.5662 31.9011 35.2305 31.5177 34.0062C31.1837 32.9549 31.1961 32.5715 31.5424 32.4479C31.8392 32.3242 32.6307 33.2394 32.9523 34.068C33.1007 34.4638 33.2491 35.1316 33.2862 35.5521C33.3604 36.5662 32.9523 37.4567 32.0247 38.3595C30.9982 39.3489 30.2067 39.6952 28.8216 39.7694C27.4488 39.8313 26.4717 39.6705 25.4329 39.1881C24.4187 38.7058 23.8869 38.2853 23.2067 37.3825C22.2792 36.1581 21.8463 35.1192 22.1678 34.9214C22.4028 34.773 22.6873 35.0327 23.6519 36.3313C24.7155 37.7659 25.136 38.1616 26.0265 38.545C26.5954 38.7924 28.0795 39.1263 28.1784 39.0274C28.2155 38.9903 28.03 38.6934 27.758 38.3595C27.053 37.4691 26.4346 36.1457 25.6802 33.9196C25.3216 32.8313 24.7403 31.3843 24.4064 30.6917C23.6519 29.1334 23.1325 28.6263 22.0936 28.4161C21.1908 28.2429 21.0671 28.2058 21.0671 28.0698C21.0671 27.7977 26.0636 24.3348 26.4717 24.3348C26.6572 24.3348 26.818 24.4585 26.9417 24.7182Z" fill="white" stroke="#F05016" stroke-width="2" mask="url(#path-1-inside-1)"/>
</g>
<defs>
<filter id="filter0_d" x="0" y="0" width="113" height="166.139" filterUnits="userSpaceOnUse" color-interpolation-filters="sRGB">
<feFlood flood-opacity="0" result="BackgroundImageFix"/>
<feColorMatrix in="SourceAlpha" type="matrix" values="0 0 0 0 0 0 0 0 0 0 0 0 0 0 0 0 0 0 127 0"/>
<feOffset dy="4"/>
<feGaussianBlur stdDeviation="2"/>
<feColorMatrix type="matrix" values="0 0 0 0 0 0 0 0 0 0 0 0 0 0 0 0 0 0 0.25 0"/>
<feBlend mode="normal" in2="BackgroundImageFix" result="effect1_dropShadow"/>
<feBlend mode="normal" in="SourceGraphic" in2="effect1_dropShadow" result="shape"/>
</filter>
</defs>
</svg>
