<svg width="38" height="44" viewBox="0 0 38 44" fill="none" xmlns="http://www.w3.org/2000/svg">
<mask id="path-1-inside-1" fill="white">
<path d="M7.58696 0.0459557C7.54008 0.0693932 7.4893 0.120174 7.47758 0.159237C7.46586 0.194393 7.43852 0.217831 7.41899 0.206112C7.39946 0.190487 7.38383 0.233456 7.38383 0.292049C7.38383 0.354549 7.36039 0.428768 7.33696 0.456112C7.29789 0.491268 7.29008 0.702206 7.3018 1.31549L7.31352 2.13189L7.20414 2.18267C7.04008 2.2608 6.9893 2.39361 7.00102 2.70611L7.01274 2.97955L7.14555 3.02252C7.27446 3.06549 7.33696 3.14361 7.34086 3.27642C7.34477 3.3233 7.29399 3.34674 7.14164 3.36627C6.59867 3.44049 6.23149 3.7608 6.05571 4.3233C6.00883 4.46392 5.94633 4.62799 5.91508 4.68658C5.88383 4.74127 5.86039 4.83111 5.86039 4.88189C5.86039 4.93267 5.84086 4.99517 5.81742 5.01861C5.79399 5.04205 5.77446 5.3233 5.76664 5.71783C5.75883 6.37017 5.75492 6.38189 5.59867 6.87017C5.46196 7.29596 5.41508 7.38971 5.28227 7.52252C5.11039 7.69439 4.98149 7.87408 5.00883 7.90142C5.01664 7.90924 5.09867 7.88189 5.18461 7.83892C5.40336 7.72955 5.45414 7.76471 5.68461 8.17486C5.78617 8.35846 5.91508 8.54205 5.96586 8.58502L6.06352 8.65924L5.93071 8.74127C5.76274 8.84283 5.72758 8.83892 5.67289 8.72174C5.62211 8.60846 5.59477 8.60455 5.44633 8.68267C5.34086 8.73736 5.32914 8.73736 5.27446 8.67096C5.2393 8.63189 5.06742 8.56549 4.86039 8.5108C4.54008 8.43267 4.46977 8.42877 4.20024 8.46392C4.03617 8.48736 3.84086 8.50689 3.76664 8.50689C3.69242 8.50689 3.54008 8.55377 3.4268 8.60846C3.31742 8.66705 3.14555 8.75299 3.04789 8.80377C2.72758 8.96392 2.59086 9.15533 2.63774 9.37408C2.65727 9.46002 2.64164 9.5108 2.55961 9.60846C2.32914 9.87799 2.03617 10.6006 1.9307 11.1514C1.85649 11.5381 1.86039 11.8897 1.94242 12.3077C1.9893 12.5694 1.99711 12.6827 1.96586 12.7647C1.94242 12.8311 1.93852 12.8975 1.96195 12.9366C1.9932 12.9952 1.94242 13.1749 1.75883 13.6163C1.71195 13.7217 1.71195 13.8858 1.75883 13.9952C1.78617 14.0616 1.8018 14.0499 1.87602 13.8858C1.96586 13.6866 2.02445 13.6631 1.97367 13.8467C1.94242 13.96 1.94242 14.0889 1.97758 14.4288C2.00883 14.7296 1.94242 14.9171 1.69242 15.2022C1.57133 15.3467 1.45024 15.46 1.42289 15.46C1.33305 15.46 1.18461 15.6163 1.15727 15.7335C1.14555 15.7999 1.07133 15.9991 0.993205 16.1749C0.887736 16.4131 0.844767 16.585 0.813517 16.8467C0.793986 17.0381 0.731486 17.4014 0.676799 17.6475C0.622111 17.8936 0.563517 18.3077 0.543986 18.5655C0.516642 19.0069 0.418986 19.4405 0.313517 19.6436C0.282267 19.6983 0.270549 19.8194 0.286174 19.9874C0.305705 20.2335 0.301799 20.2608 0.153361 20.5264C0.0049237 20.7999 -0.0419513 21.0147 0.0400799 21.0655C0.0674237 21.0811 0.0713299 21.1592 0.0557049 21.2608C0.0361737 21.4131 0.0439862 21.4405 0.153361 21.5577C0.219767 21.6241 0.274455 21.6944 0.274455 21.7139C0.274455 21.7296 0.301799 21.7725 0.336955 21.8038C0.38383 21.8506 0.481486 21.8663 0.762736 21.8663H1.12992L1.2393 21.7139C1.34086 21.5733 1.35258 21.5655 1.43461 21.6202C1.53617 21.6866 1.63383 21.6475 1.78617 21.4796C1.94633 21.3038 1.98149 21.1944 2.00883 20.8077C2.03617 20.4483 2.03227 20.4288 1.92289 20.2217L1.80961 20.0069L1.89945 19.8741C1.95024 19.7999 1.9893 19.71 1.9893 19.6749C1.9932 19.6124 2.33305 19.1124 2.47758 18.96C2.62992 18.796 2.71195 18.6827 2.71586 18.6241C2.72367 18.546 3.1143 18.0499 3.20805 17.9952C3.24711 17.9756 3.28227 17.9366 3.28227 17.9131C3.28227 17.8897 3.32524 17.8116 3.37992 17.7413C3.43461 17.671 3.47758 17.5772 3.47758 17.5303C3.47758 17.4874 3.52445 17.3585 3.58305 17.2452C3.64164 17.128 3.68852 16.9678 3.69242 16.8663C3.69633 16.7686 3.73149 16.5421 3.76664 16.3585C3.8018 16.1749 3.84086 15.9444 3.84867 15.8467C3.87211 15.6749 3.87602 15.671 3.98539 15.6866C4.13383 15.7061 4.15727 15.796 4.10649 16.1241C4.08305 16.2647 4.06352 16.5616 4.06352 16.7881C4.06352 17.0225 4.04399 17.2217 4.02446 17.2413C3.96586 17.2999 3.96586 17.7491 4.02446 17.96C4.0518 18.0538 4.1143 18.2178 4.16508 18.3194L4.25883 18.503L4.14164 18.5264C4.07914 18.5421 3.96195 18.6163 3.88383 18.6944C3.75102 18.8272 3.7432 18.8467 3.76274 19.0303C3.77445 19.1749 3.76274 19.253 3.70805 19.3428C3.66508 19.4171 3.63383 19.5381 3.63383 19.6436C3.63383 19.8077 3.62211 19.8311 3.51664 19.8741C3.39945 19.921 3.1182 20.2022 2.9932 20.3897C2.9268 20.4874 2.9268 20.5108 2.98539 20.71C3.02055 20.8272 3.08305 20.9483 3.12211 20.9756C3.19242 21.0225 3.18852 21.046 3.0518 21.5069C2.96977 21.7725 2.87992 22.003 2.84867 22.0225C2.80961 22.0499 2.8057 22.0694 2.83695 22.1006C2.8682 22.1319 2.87211 22.1944 2.84867 22.2999C2.82914 22.3858 2.82133 22.4717 2.83305 22.4913C2.87602 22.5616 2.75883 22.9092 2.53227 23.4014C2.21586 24.085 2.06742 24.753 2.21586 24.8155C2.48539 24.9249 2.84867 25.0303 2.95414 25.0303H3.07914L3.10258 25.4874C3.17289 26.7061 3.25492 27.2881 3.45414 27.9639C3.59086 28.4288 3.71977 28.7569 3.91508 29.1475C4.02836 29.3741 4.03227 29.3819 3.96586 29.5186C3.85649 29.753 3.81352 30.2999 3.8682 30.7491C3.89945 30.9678 3.92289 31.1866 3.92289 31.2413C3.9268 31.296 3.93852 31.3546 3.95024 31.378C3.96586 31.3975 3.9893 31.5381 4.00492 31.6905C4.04008 32.0303 4.12602 32.3858 4.22758 32.5811C4.31742 32.7608 4.37602 33.2256 4.37602 33.7999C4.37602 34.2725 4.40727 34.378 4.82524 35.4405C4.9268 35.6983 5.04399 36.0772 5.08305 36.2803C5.12602 36.4835 5.18461 36.6866 5.21586 36.7335C5.31352 36.8858 5.43071 37.6631 5.43071 38.171C5.43071 38.4327 5.44633 38.7061 5.46977 38.7764C5.50102 38.8897 5.49321 38.9444 5.41117 39.1085C5.35649 39.2178 5.27836 39.3663 5.23149 39.4327C5.13774 39.5811 5.15727 39.6944 5.29789 39.7686L5.39164 39.8194L5.25102 39.9835C5.17289 40.0733 5.05571 40.1788 4.98539 40.2139C4.91899 40.2452 4.77836 40.3428 4.67289 40.4249C4.5518 40.5225 4.44242 40.5772 4.36821 40.5772C4.28227 40.5772 4.19633 40.6358 4.00102 40.8233C3.75883 41.0616 3.75102 41.0772 3.75102 41.2608C3.75102 41.4366 3.7393 41.4639 3.63383 41.5225C3.50102 41.5967 3.47758 41.7452 3.57914 41.8311C3.66508 41.9014 4.32524 41.9249 4.68852 41.8702C4.96196 41.8272 5.31352 41.7335 5.68852 41.6085C5.77446 41.5772 5.93461 41.4756 6.04399 41.3819C6.2393 41.2178 6.25102 41.2139 6.61039 41.1866C7.0518 41.1553 7.50102 41.0655 7.56352 40.9991C7.62992 40.9249 7.57524 40.3038 7.45024 39.7139C7.39164 39.4405 7.34477 39.1358 7.34086 39.0303C7.33696 38.8077 7.37992 38.546 7.4268 38.4874C7.44242 38.4639 7.44242 38.3311 7.42289 38.1944C7.40336 38.0538 7.39555 37.8858 7.40727 37.8155C7.41899 37.7491 7.41899 37.671 7.40336 37.6475C7.35649 37.5733 7.38383 36.6163 7.43071 36.5889C7.45414 36.5733 7.46196 36.5225 7.45024 36.4717C7.43852 36.421 7.44633 36.3585 7.46977 36.3311C7.50102 36.2921 7.50102 36.253 7.46196 36.1827C7.43071 36.128 7.42289 36.0381 7.43852 35.9639C7.45024 35.8936 7.44242 35.8155 7.41899 35.7881C7.36821 35.7256 7.47367 34.9522 7.54399 34.9131C7.56742 34.8975 7.64555 34.7061 7.71586 34.4913C7.82524 34.1592 7.83696 34.0889 7.79008 34.0499C7.75883 34.0264 7.73539 33.9405 7.73149 33.8624C7.73149 33.7842 7.67289 33.4327 7.60258 33.0772C7.52836 32.7022 7.4893 32.4131 7.50883 32.3897C7.54789 32.335 7.50492 32.1085 7.43461 32.003C7.40727 31.96 7.38383 31.8741 7.38383 31.8077C7.38383 31.6631 7.32133 31.5928 7.20024 31.5928C7.09086 31.5928 7.00492 31.4366 6.94633 31.1319C6.88383 30.8077 6.88774 30.5811 6.97367 30.003L7.0518 29.4913L7.23149 29.5108C7.32914 29.5225 7.56352 29.5108 7.75102 29.4874C7.94242 29.46 8.10258 29.4444 8.11039 29.4522C8.1143 29.46 8.14164 29.585 8.16508 29.7296C8.19242 29.921 8.19242 30.0147 8.16117 30.0733C8.13774 30.1163 8.1143 30.2764 8.10258 30.4288C8.09477 30.5928 8.06742 30.7335 8.03227 30.7686C7.99711 30.8116 7.97758 30.9171 7.97758 31.085C7.98149 31.2256 7.95414 31.4796 7.91899 31.6553C7.88383 31.8311 7.84477 32.1749 7.82914 32.4249C7.8018 32.8936 7.83305 33.0538 7.99711 33.2413C8.09086 33.3467 8.16117 33.7569 8.11821 33.9288C8.09867 34.0069 8.07914 34.1006 8.07914 34.1319C8.07914 34.2413 8.16117 34.4952 8.20024 34.5225C8.31742 34.5928 8.29008 35.2608 8.15727 35.6241C8.13774 35.6827 8.13383 35.753 8.14946 35.7803C8.16899 35.8077 8.18461 35.8936 8.18461 35.9678C8.18461 36.0577 8.20024 36.1006 8.23539 36.0928C8.32914 36.0772 8.28227 36.2139 8.14164 36.3663C7.98149 36.546 7.89164 36.7335 7.89164 36.8936C7.89164 36.9561 7.94633 37.2217 8.00883 37.4913C8.2393 38.421 8.25492 38.5967 8.18071 39.1397C8.08305 39.878 8.10649 40.0069 8.46977 40.6553C8.62602 40.9327 8.68071 41.003 8.82914 41.0772C9.18852 41.2647 9.84867 41.128 10.1377 40.8038C10.2159 40.7217 10.2979 40.6046 10.3174 40.546C10.4112 40.3077 10.251 39.4014 10.1065 39.3194C10.0362 39.2803 10.0166 39.1319 10.0752 39.0694C10.1143 39.0303 10.0596 38.8585 10.0088 38.8585C9.9893 38.8585 9.96196 38.7881 9.94633 38.7022C9.93461 38.6163 9.90336 38.5499 9.87992 38.5577C9.85649 38.5616 9.82133 38.5225 9.8018 38.4756C9.77446 38.3975 9.78227 38.378 9.84477 38.3624C9.93852 38.335 9.9893 38.1202 9.92289 37.9991C9.89555 37.9444 9.88383 37.8311 9.89946 37.6944C9.95024 37.2296 9.96196 36.5538 9.92289 36.3546C9.89555 36.2178 9.89555 36.1358 9.92289 36.1085C9.95024 36.0811 9.96196 36.085 9.96196 36.1202C9.96196 36.1631 9.97367 36.1631 10.0166 36.128C10.0948 36.0616 10.1377 35.6866 10.087 35.5421C10.0557 35.4483 10.0596 35.3663 10.1221 35.1592C10.1612 35.0147 10.2237 34.8741 10.2549 34.8506C10.2862 34.8272 10.333 34.7452 10.3565 34.6749C10.3838 34.6006 10.4385 34.503 10.4815 34.4561C10.5245 34.4053 10.5479 34.3428 10.5323 34.3038C10.4932 34.1983 10.7198 33.503 10.7862 33.5186C10.8057 33.5225 10.8682 33.4405 10.9307 33.335C11.0284 33.171 11.0362 33.1202 11.0127 32.9639C10.9776 32.7413 11.0166 31.5928 11.0596 31.5928C11.0752 31.5928 11.1026 31.5264 11.1182 31.4444C11.1338 31.3663 11.169 31.2803 11.1924 31.2608C11.2823 31.1866 11.2901 31.0889 11.208 31.0108C11.1377 30.9483 11.1299 30.9092 11.1534 30.7647C11.2159 30.4131 11.1768 30.2686 10.9502 30.0264L10.8565 29.9249L10.9346 29.4366C11.0166 28.9366 11.2198 28.0928 11.2901 27.9561C11.3135 27.9171 11.3565 27.8819 11.3877 27.8819C11.4151 27.8819 11.4893 27.8389 11.5518 27.7881C11.6807 27.6788 11.8057 27.628 12.3448 27.46C12.5479 27.3936 12.8526 27.2764 13.0166 27.1983C13.2901 27.0694 13.3252 27.0381 13.3604 26.9092C13.5245 26.2881 13.5284 26.2686 13.501 25.753C13.4854 25.4717 13.458 24.8741 13.4385 24.4249C13.419 23.9717 13.3877 23.5342 13.3682 23.4483C13.3448 23.3624 13.3174 23.1788 13.3018 23.0381C13.2745 22.7881 13.2784 22.7803 13.3799 22.7335C13.4346 22.7061 13.5245 22.6866 13.5752 22.6866C13.8565 22.6866 13.9854 22.5108 13.9854 22.1358C13.9854 22.003 14.0088 21.7256 14.0401 21.5186C14.0713 21.3116 14.1104 21.0421 14.1221 20.921C14.1416 20.7452 14.169 20.6788 14.2432 20.6202C14.3682 20.5225 14.4112 20.3624 14.3682 20.1905C14.3135 19.9991 14.3955 19.3585 14.5557 18.6788C14.6338 18.3585 14.7198 17.921 14.7471 17.7061C14.7745 17.4913 14.8174 17.2217 14.8409 17.1046C14.9073 16.7803 14.8916 16.4874 14.7901 16.1046C14.7393 15.9092 14.6963 15.6827 14.6924 15.5967C14.6885 15.503 14.6612 15.421 14.6221 15.3936C14.587 15.3663 14.5362 15.2803 14.5088 15.2061C14.4854 15.1319 14.3877 14.9483 14.2979 14.7999C14.0557 14.3975 13.9854 14.0811 13.9698 13.3116C13.962 12.9561 13.9346 12.5811 13.9112 12.4796C13.8487 12.2217 13.6963 11.9288 13.5205 11.7374C13.376 11.5772 13.3721 11.5616 13.3487 11.2217C13.3213 10.6983 13.1104 10.21 12.7315 9.78033C12.6026 9.6358 12.5635 9.56158 12.5713 9.47955C12.5948 9.26861 12.3409 8.92096 12.0909 8.81549C12.0284 8.78814 11.8682 8.75689 11.7393 8.74517C11.5401 8.72564 11.5049 8.71002 11.5049 8.64361C11.5049 8.53814 11.3213 8.48346 10.7979 8.43267C10.5635 8.40924 10.2862 8.36236 10.1846 8.32721C10.0049 8.26861 9.95024 8.26861 9.79789 8.33111C9.75102 8.35064 9.72758 8.34283 9.72758 8.30377C9.72758 8.27252 9.64555 8.12017 9.54789 7.96002C9.20414 7.40924 9.15727 7.17096 9.29789 6.66314C9.34086 6.50689 9.39946 6.18658 9.43461 5.95611C9.46586 5.72174 9.50102 5.51471 9.51664 5.49517C9.52836 5.47174 9.50102 5.37799 9.45805 5.28424C9.41117 5.18658 9.37602 5.07721 9.37602 5.04205C9.37211 4.87799 9.25492 4.42486 9.15727 4.20611C9.06352 3.99517 8.72758 3.62408 8.63383 3.62408C8.61821 3.62408 8.59477 3.40533 8.57914 3.13971C8.56352 2.87408 8.53227 2.59674 8.50883 2.52252C8.46977 2.40142 8.42289 1.69439 8.43071 1.39752C8.44242 1.06939 8.39164 0.463924 8.35258 0.471737C8.32914 0.475643 8.30571 0.401424 8.29789 0.307674C8.29008 0.155331 8.20414 0.0186119 8.17289 0.108456C8.16508 0.127987 8.13774 0.135799 8.10649 0.124081C8.02836 0.0928307 7.93071 0.260799 7.92289 0.440487C7.91899 0.585018 7.91508 0.585018 7.90336 0.467831C7.89555 0.401424 7.87211 0.342831 7.84867 0.342831C7.82914 0.342831 7.81352 0.299862 7.81352 0.245174C7.81352 0.190487 7.79789 0.147518 7.77446 0.147518C7.75492 0.147518 7.73539 0.112362 7.73539 0.0693932C7.73539 -0.0165443 7.71977 -0.0204506 7.58696 0.0459557ZM7.37211 0.624081C7.36039 0.651424 7.35258 0.631893 7.35258 0.577206C7.35258 0.522518 7.36039 0.502987 7.37211 0.526424C7.37992 0.553768 7.37992 0.600643 7.37211 0.624081ZM9.64946 8.42096C9.64946 8.44049 9.60258 8.47564 9.54399 8.50299L9.43461 8.54596L9.52836 8.46783C9.62992 8.38189 9.64946 8.37408 9.64946 8.42096ZM12.169 15.4053C12.3604 15.5577 12.4151 15.7335 12.3448 15.9639C12.3174 16.0616 12.3213 16.1671 12.3643 16.3546C12.3955 16.4952 12.419 16.6749 12.419 16.7491C12.4112 16.9678 12.4698 17.2296 12.544 17.3272C12.6573 17.4717 12.8448 18.003 12.8448 18.1749C12.8448 18.2608 12.8721 18.4444 12.9034 18.585C12.9932 18.96 13.0284 19.3936 12.9698 19.4639C12.9424 19.4952 12.9307 19.5772 12.9424 19.6475C12.9854 19.9092 13.0596 20.1671 13.0987 20.1944C13.1299 20.21 13.126 20.2335 13.0987 20.2725C13.0401 20.3428 12.7784 20.4796 12.7549 20.4522C12.7432 20.4405 12.6963 20.2256 12.6534 19.9756C12.6104 19.7256 12.544 19.4366 12.5049 19.335C12.3721 19.003 12.1495 18.1319 12.1495 17.9561C12.1495 17.8585 12.1143 17.6592 12.0713 17.5108C11.9776 17.1866 11.9698 17.1514 11.9346 16.4717C11.9073 15.9835 11.9346 15.2647 11.9815 15.2647C11.9893 15.2647 12.0752 15.3272 12.169 15.4053ZM1.54789 20.9092L1.57524 21.0264L1.4893 20.9405C1.44242 20.8897 1.41899 20.8311 1.4307 20.7921C1.46195 20.71 1.51274 20.7608 1.54789 20.9092ZM9.84477 38.0928C9.84477 38.1046 9.82914 38.1241 9.80571 38.1358C9.78617 38.1475 9.76664 38.1397 9.76664 38.1202C9.76664 38.0967 9.78617 38.0772 9.80571 38.0772C9.82914 38.0772 9.84477 38.085 9.84477 38.0928ZM4.36039 40.7921C4.25883 40.8663 4.19633 40.8663 4.25883 40.7921C4.28617 40.7608 4.33696 40.7335 4.37211 40.7335C4.42289 40.7374 4.42289 40.7452 4.36039 40.7921ZM3.91899 41.0069C3.90727 41.0499 3.88383 41.085 3.86039 41.085C3.84086 41.085 3.84477 41.0499 3.8682 41.0069C3.89164 40.9639 3.91508 40.9288 3.92289 40.9288C3.9307 40.9288 3.9307 40.9639 3.91899 41.0069Z"/>
</mask>
<path d="M7.58696 0.0459557C7.54008 0.0693932 7.4893 0.120174 7.47758 0.159237C7.46586 0.194393 7.43852 0.217831 7.41899 0.206112C7.39946 0.190487 7.38383 0.233456 7.38383 0.292049C7.38383 0.354549 7.36039 0.428768 7.33696 0.456112C7.29789 0.491268 7.29008 0.702206 7.3018 1.31549L7.31352 2.13189L7.20414 2.18267C7.04008 2.2608 6.9893 2.39361 7.00102 2.70611L7.01274 2.97955L7.14555 3.02252C7.27446 3.06549 7.33696 3.14361 7.34086 3.27642C7.34477 3.3233 7.29399 3.34674 7.14164 3.36627C6.59867 3.44049 6.23149 3.7608 6.05571 4.3233C6.00883 4.46392 5.94633 4.62799 5.91508 4.68658C5.88383 4.74127 5.86039 4.83111 5.86039 4.88189C5.86039 4.93267 5.84086 4.99517 5.81742 5.01861C5.79399 5.04205 5.77446 5.3233 5.76664 5.71783C5.75883 6.37017 5.75492 6.38189 5.59867 6.87017C5.46196 7.29596 5.41508 7.38971 5.28227 7.52252C5.11039 7.69439 4.98149 7.87408 5.00883 7.90142C5.01664 7.90924 5.09867 7.88189 5.18461 7.83892C5.40336 7.72955 5.45414 7.76471 5.68461 8.17486C5.78617 8.35846 5.91508 8.54205 5.96586 8.58502L6.06352 8.65924L5.93071 8.74127C5.76274 8.84283 5.72758 8.83892 5.67289 8.72174C5.62211 8.60846 5.59477 8.60455 5.44633 8.68267C5.34086 8.73736 5.32914 8.73736 5.27446 8.67096C5.2393 8.63189 5.06742 8.56549 4.86039 8.5108C4.54008 8.43267 4.46977 8.42877 4.20024 8.46392C4.03617 8.48736 3.84086 8.50689 3.76664 8.50689C3.69242 8.50689 3.54008 8.55377 3.4268 8.60846C3.31742 8.66705 3.14555 8.75299 3.04789 8.80377C2.72758 8.96392 2.59086 9.15533 2.63774 9.37408C2.65727 9.46002 2.64164 9.5108 2.55961 9.60846C2.32914 9.87799 2.03617 10.6006 1.9307 11.1514C1.85649 11.5381 1.86039 11.8897 1.94242 12.3077C1.9893 12.5694 1.99711 12.6827 1.96586 12.7647C1.94242 12.8311 1.93852 12.8975 1.96195 12.9366C1.9932 12.9952 1.94242 13.1749 1.75883 13.6163C1.71195 13.7217 1.71195 13.8858 1.75883 13.9952C1.78617 14.0616 1.8018 14.0499 1.87602 13.8858C1.96586 13.6866 2.02445 13.6631 1.97367 13.8467C1.94242 13.96 1.94242 14.0889 1.97758 14.4288C2.00883 14.7296 1.94242 14.9171 1.69242 15.2022C1.57133 15.3467 1.45024 15.46 1.42289 15.46C1.33305 15.46 1.18461 15.6163 1.15727 15.7335C1.14555 15.7999 1.07133 15.9991 0.993205 16.1749C0.887736 16.4131 0.844767 16.585 0.813517 16.8467C0.793986 17.0381 0.731486 17.4014 0.676799 17.6475C0.622111 17.8936 0.563517 18.3077 0.543986 18.5655C0.516642 19.0069 0.418986 19.4405 0.313517 19.6436C0.282267 19.6983 0.270549 19.8194 0.286174 19.9874C0.305705 20.2335 0.301799 20.2608 0.153361 20.5264C0.0049237 20.7999 -0.0419513 21.0147 0.0400799 21.0655C0.0674237 21.0811 0.0713299 21.1592 0.0557049 21.2608C0.0361737 21.4131 0.0439862 21.4405 0.153361 21.5577C0.219767 21.6241 0.274455 21.6944 0.274455 21.7139C0.274455 21.7296 0.301799 21.7725 0.336955 21.8038C0.38383 21.8506 0.481486 21.8663 0.762736 21.8663H1.12992L1.2393 21.7139C1.34086 21.5733 1.35258 21.5655 1.43461 21.6202C1.53617 21.6866 1.63383 21.6475 1.78617 21.4796C1.94633 21.3038 1.98149 21.1944 2.00883 20.8077C2.03617 20.4483 2.03227 20.4288 1.92289 20.2217L1.80961 20.0069L1.89945 19.8741C1.95024 19.7999 1.9893 19.71 1.9893 19.6749C1.9932 19.6124 2.33305 19.1124 2.47758 18.96C2.62992 18.796 2.71195 18.6827 2.71586 18.6241C2.72367 18.546 3.1143 18.0499 3.20805 17.9952C3.24711 17.9756 3.28227 17.9366 3.28227 17.9131C3.28227 17.8897 3.32524 17.8116 3.37992 17.7413C3.43461 17.671 3.47758 17.5772 3.47758 17.5303C3.47758 17.4874 3.52445 17.3585 3.58305 17.2452C3.64164 17.128 3.68852 16.9678 3.69242 16.8663C3.69633 16.7686 3.73149 16.5421 3.76664 16.3585C3.8018 16.1749 3.84086 15.9444 3.84867 15.8467C3.87211 15.6749 3.87602 15.671 3.98539 15.6866C4.13383 15.7061 4.15727 15.796 4.10649 16.1241C4.08305 16.2647 4.06352 16.5616 4.06352 16.7881C4.06352 17.0225 4.04399 17.2217 4.02446 17.2413C3.96586 17.2999 3.96586 17.7491 4.02446 17.96C4.0518 18.0538 4.1143 18.2178 4.16508 18.3194L4.25883 18.503L4.14164 18.5264C4.07914 18.5421 3.96195 18.6163 3.88383 18.6944C3.75102 18.8272 3.7432 18.8467 3.76274 19.0303C3.77445 19.1749 3.76274 19.253 3.70805 19.3428C3.66508 19.4171 3.63383 19.5381 3.63383 19.6436C3.63383 19.8077 3.62211 19.8311 3.51664 19.8741C3.39945 19.921 3.1182 20.2022 2.9932 20.3897C2.9268 20.4874 2.9268 20.5108 2.98539 20.71C3.02055 20.8272 3.08305 20.9483 3.12211 20.9756C3.19242 21.0225 3.18852 21.046 3.0518 21.5069C2.96977 21.7725 2.87992 22.003 2.84867 22.0225C2.80961 22.0499 2.8057 22.0694 2.83695 22.1006C2.8682 22.1319 2.87211 22.1944 2.84867 22.2999C2.82914 22.3858 2.82133 22.4717 2.83305 22.4913C2.87602 22.5616 2.75883 22.9092 2.53227 23.4014C2.21586 24.085 2.06742 24.753 2.21586 24.8155C2.48539 24.9249 2.84867 25.0303 2.95414 25.0303H3.07914L3.10258 25.4874C3.17289 26.7061 3.25492 27.2881 3.45414 27.9639C3.59086 28.4288 3.71977 28.7569 3.91508 29.1475C4.02836 29.3741 4.03227 29.3819 3.96586 29.5186C3.85649 29.753 3.81352 30.2999 3.8682 30.7491C3.89945 30.9678 3.92289 31.1866 3.92289 31.2413C3.9268 31.296 3.93852 31.3546 3.95024 31.378C3.96586 31.3975 3.9893 31.5381 4.00492 31.6905C4.04008 32.0303 4.12602 32.3858 4.22758 32.5811C4.31742 32.7608 4.37602 33.2256 4.37602 33.7999C4.37602 34.2725 4.40727 34.378 4.82524 35.4405C4.9268 35.6983 5.04399 36.0772 5.08305 36.2803C5.12602 36.4835 5.18461 36.6866 5.21586 36.7335C5.31352 36.8858 5.43071 37.6631 5.43071 38.171C5.43071 38.4327 5.44633 38.7061 5.46977 38.7764C5.50102 38.8897 5.49321 38.9444 5.41117 39.1085C5.35649 39.2178 5.27836 39.3663 5.23149 39.4327C5.13774 39.5811 5.15727 39.6944 5.29789 39.7686L5.39164 39.8194L5.25102 39.9835C5.17289 40.0733 5.05571 40.1788 4.98539 40.2139C4.91899 40.2452 4.77836 40.3428 4.67289 40.4249C4.5518 40.5225 4.44242 40.5772 4.36821 40.5772C4.28227 40.5772 4.19633 40.6358 4.00102 40.8233C3.75883 41.0616 3.75102 41.0772 3.75102 41.2608C3.75102 41.4366 3.7393 41.4639 3.63383 41.5225C3.50102 41.5967 3.47758 41.7452 3.57914 41.8311C3.66508 41.9014 4.32524 41.9249 4.68852 41.8702C4.96196 41.8272 5.31352 41.7335 5.68852 41.6085C5.77446 41.5772 5.93461 41.4756 6.04399 41.3819C6.2393 41.2178 6.25102 41.2139 6.61039 41.1866C7.0518 41.1553 7.50102 41.0655 7.56352 40.9991C7.62992 40.9249 7.57524 40.3038 7.45024 39.7139C7.39164 39.4405 7.34477 39.1358 7.34086 39.0303C7.33696 38.8077 7.37992 38.546 7.4268 38.4874C7.44242 38.4639 7.44242 38.3311 7.42289 38.1944C7.40336 38.0538 7.39555 37.8858 7.40727 37.8155C7.41899 37.7491 7.41899 37.671 7.40336 37.6475C7.35649 37.5733 7.38383 36.6163 7.43071 36.5889C7.45414 36.5733 7.46196 36.5225 7.45024 36.4717C7.43852 36.421 7.44633 36.3585 7.46977 36.3311C7.50102 36.2921 7.50102 36.253 7.46196 36.1827C7.43071 36.128 7.42289 36.0381 7.43852 35.9639C7.45024 35.8936 7.44242 35.8155 7.41899 35.7881C7.36821 35.7256 7.47367 34.9522 7.54399 34.9131C7.56742 34.8975 7.64555 34.7061 7.71586 34.4913C7.82524 34.1592 7.83696 34.0889 7.79008 34.0499C7.75883 34.0264 7.73539 33.9405 7.73149 33.8624C7.73149 33.7842 7.67289 33.4327 7.60258 33.0772C7.52836 32.7022 7.4893 32.4131 7.50883 32.3897C7.54789 32.335 7.50492 32.1085 7.43461 32.003C7.40727 31.96 7.38383 31.8741 7.38383 31.8077C7.38383 31.6631 7.32133 31.5928 7.20024 31.5928C7.09086 31.5928 7.00492 31.4366 6.94633 31.1319C6.88383 30.8077 6.88774 30.5811 6.97367 30.003L7.0518 29.4913L7.23149 29.5108C7.32914 29.5225 7.56352 29.5108 7.75102 29.4874C7.94242 29.46 8.10258 29.4444 8.11039 29.4522C8.1143 29.46 8.14164 29.585 8.16508 29.7296C8.19242 29.921 8.19242 30.0147 8.16117 30.0733C8.13774 30.1163 8.1143 30.2764 8.10258 30.4288C8.09477 30.5928 8.06742 30.7335 8.03227 30.7686C7.99711 30.8116 7.97758 30.9171 7.97758 31.085C7.98149 31.2256 7.95414 31.4796 7.91899 31.6553C7.88383 31.8311 7.84477 32.1749 7.82914 32.4249C7.8018 32.8936 7.83305 33.0538 7.99711 33.2413C8.09086 33.3467 8.16117 33.7569 8.11821 33.9288C8.09867 34.0069 8.07914 34.1006 8.07914 34.1319C8.07914 34.2413 8.16117 34.4952 8.20024 34.5225C8.31742 34.5928 8.29008 35.2608 8.15727 35.6241C8.13774 35.6827 8.13383 35.753 8.14946 35.7803C8.16899 35.8077 8.18461 35.8936 8.18461 35.9678C8.18461 36.0577 8.20024 36.1006 8.23539 36.0928C8.32914 36.0772 8.28227 36.2139 8.14164 36.3663C7.98149 36.546 7.89164 36.7335 7.89164 36.8936C7.89164 36.9561 7.94633 37.2217 8.00883 37.4913C8.2393 38.421 8.25492 38.5967 8.18071 39.1397C8.08305 39.878 8.10649 40.0069 8.46977 40.6553C8.62602 40.9327 8.68071 41.003 8.82914 41.0772C9.18852 41.2647 9.84867 41.128 10.1377 40.8038C10.2159 40.7217 10.2979 40.6046 10.3174 40.546C10.4112 40.3077 10.251 39.4014 10.1065 39.3194C10.0362 39.2803 10.0166 39.1319 10.0752 39.0694C10.1143 39.0303 10.0596 38.8585 10.0088 38.8585C9.9893 38.8585 9.96196 38.7881 9.94633 38.7022C9.93461 38.6163 9.90336 38.5499 9.87992 38.5577C9.85649 38.5616 9.82133 38.5225 9.8018 38.4756C9.77446 38.3975 9.78227 38.378 9.84477 38.3624C9.93852 38.335 9.9893 38.1202 9.92289 37.9991C9.89555 37.9444 9.88383 37.8311 9.89946 37.6944C9.95024 37.2296 9.96196 36.5538 9.92289 36.3546C9.89555 36.2178 9.89555 36.1358 9.92289 36.1085C9.95024 36.0811 9.96196 36.085 9.96196 36.1202C9.96196 36.1631 9.97367 36.1631 10.0166 36.128C10.0948 36.0616 10.1377 35.6866 10.087 35.5421C10.0557 35.4483 10.0596 35.3663 10.1221 35.1592C10.1612 35.0147 10.2237 34.8741 10.2549 34.8506C10.2862 34.8272 10.333 34.7452 10.3565 34.6749C10.3838 34.6006 10.4385 34.503 10.4815 34.4561C10.5245 34.4053 10.5479 34.3428 10.5323 34.3038C10.4932 34.1983 10.7198 33.503 10.7862 33.5186C10.8057 33.5225 10.8682 33.4405 10.9307 33.335C11.0284 33.171 11.0362 33.1202 11.0127 32.9639C10.9776 32.7413 11.0166 31.5928 11.0596 31.5928C11.0752 31.5928 11.1026 31.5264 11.1182 31.4444C11.1338 31.3663 11.169 31.2803 11.1924 31.2608C11.2823 31.1866 11.2901 31.0889 11.208 31.0108C11.1377 30.9483 11.1299 30.9092 11.1534 30.7647C11.2159 30.4131 11.1768 30.2686 10.9502 30.0264L10.8565 29.9249L10.9346 29.4366C11.0166 28.9366 11.2198 28.0928 11.2901 27.9561C11.3135 27.9171 11.3565 27.8819 11.3877 27.8819C11.4151 27.8819 11.4893 27.8389 11.5518 27.7881C11.6807 27.6788 11.8057 27.628 12.3448 27.46C12.5479 27.3936 12.8526 27.2764 13.0166 27.1983C13.2901 27.0694 13.3252 27.0381 13.3604 26.9092C13.5245 26.2881 13.5284 26.2686 13.501 25.753C13.4854 25.4717 13.458 24.8741 13.4385 24.4249C13.419 23.9717 13.3877 23.5342 13.3682 23.4483C13.3448 23.3624 13.3174 23.1788 13.3018 23.0381C13.2745 22.7881 13.2784 22.7803 13.3799 22.7335C13.4346 22.7061 13.5245 22.6866 13.5752 22.6866C13.8565 22.6866 13.9854 22.5108 13.9854 22.1358C13.9854 22.003 14.0088 21.7256 14.0401 21.5186C14.0713 21.3116 14.1104 21.0421 14.1221 20.921C14.1416 20.7452 14.169 20.6788 14.2432 20.6202C14.3682 20.5225 14.4112 20.3624 14.3682 20.1905C14.3135 19.9991 14.3955 19.3585 14.5557 18.6788C14.6338 18.3585 14.7198 17.921 14.7471 17.7061C14.7745 17.4913 14.8174 17.2217 14.8409 17.1046C14.9073 16.7803 14.8916 16.4874 14.7901 16.1046C14.7393 15.9092 14.6963 15.6827 14.6924 15.5967C14.6885 15.503 14.6612 15.421 14.6221 15.3936C14.587 15.3663 14.5362 15.2803 14.5088 15.2061C14.4854 15.1319 14.3877 14.9483 14.2979 14.7999C14.0557 14.3975 13.9854 14.0811 13.9698 13.3116C13.962 12.9561 13.9346 12.5811 13.9112 12.4796C13.8487 12.2217 13.6963 11.9288 13.5205 11.7374C13.376 11.5772 13.3721 11.5616 13.3487 11.2217C13.3213 10.6983 13.1104 10.21 12.7315 9.78033C12.6026 9.6358 12.5635 9.56158 12.5713 9.47955C12.5948 9.26861 12.3409 8.92096 12.0909 8.81549C12.0284 8.78814 11.8682 8.75689 11.7393 8.74517C11.5401 8.72564 11.5049 8.71002 11.5049 8.64361C11.5049 8.53814 11.3213 8.48346 10.7979 8.43267C10.5635 8.40924 10.2862 8.36236 10.1846 8.32721C10.0049 8.26861 9.95024 8.26861 9.79789 8.33111C9.75102 8.35064 9.72758 8.34283 9.72758 8.30377C9.72758 8.27252 9.64555 8.12017 9.54789 7.96002C9.20414 7.40924 9.15727 7.17096 9.29789 6.66314C9.34086 6.50689 9.39946 6.18658 9.43461 5.95611C9.46586 5.72174 9.50102 5.51471 9.51664 5.49517C9.52836 5.47174 9.50102 5.37799 9.45805 5.28424C9.41117 5.18658 9.37602 5.07721 9.37602 5.04205C9.37211 4.87799 9.25492 4.42486 9.15727 4.20611C9.06352 3.99517 8.72758 3.62408 8.63383 3.62408C8.61821 3.62408 8.59477 3.40533 8.57914 3.13971C8.56352 2.87408 8.53227 2.59674 8.50883 2.52252C8.46977 2.40142 8.42289 1.69439 8.43071 1.39752C8.44242 1.06939 8.39164 0.463924 8.35258 0.471737C8.32914 0.475643 8.30571 0.401424 8.29789 0.307674C8.29008 0.155331 8.20414 0.0186119 8.17289 0.108456C8.16508 0.127987 8.13774 0.135799 8.10649 0.124081C8.02836 0.0928307 7.93071 0.260799 7.92289 0.440487C7.91899 0.585018 7.91508 0.585018 7.90336 0.467831C7.89555 0.401424 7.87211 0.342831 7.84867 0.342831C7.82914 0.342831 7.81352 0.299862 7.81352 0.245174C7.81352 0.190487 7.79789 0.147518 7.77446 0.147518C7.75492 0.147518 7.73539 0.112362 7.73539 0.0693932C7.73539 -0.0165443 7.71977 -0.0204506 7.58696 0.0459557ZM7.37211 0.624081C7.36039 0.651424 7.35258 0.631893 7.35258 0.577206C7.35258 0.522518 7.36039 0.502987 7.37211 0.526424C7.37992 0.553768 7.37992 0.600643 7.37211 0.624081ZM9.64946 8.42096C9.64946 8.44049 9.60258 8.47564 9.54399 8.50299L9.43461 8.54596L9.52836 8.46783C9.62992 8.38189 9.64946 8.37408 9.64946 8.42096ZM12.169 15.4053C12.3604 15.5577 12.4151 15.7335 12.3448 15.9639C12.3174 16.0616 12.3213 16.1671 12.3643 16.3546C12.3955 16.4952 12.419 16.6749 12.419 16.7491C12.4112 16.9678 12.4698 17.2296 12.544 17.3272C12.6573 17.4717 12.8448 18.003 12.8448 18.1749C12.8448 18.2608 12.8721 18.4444 12.9034 18.585C12.9932 18.96 13.0284 19.3936 12.9698 19.4639C12.9424 19.4952 12.9307 19.5772 12.9424 19.6475C12.9854 19.9092 13.0596 20.1671 13.0987 20.1944C13.1299 20.21 13.126 20.2335 13.0987 20.2725C13.0401 20.3428 12.7784 20.4796 12.7549 20.4522C12.7432 20.4405 12.6963 20.2256 12.6534 19.9756C12.6104 19.7256 12.544 19.4366 12.5049 19.335C12.3721 19.003 12.1495 18.1319 12.1495 17.9561C12.1495 17.8585 12.1143 17.6592 12.0713 17.5108C11.9776 17.1866 11.9698 17.1514 11.9346 16.4717C11.9073 15.9835 11.9346 15.2647 11.9815 15.2647C11.9893 15.2647 12.0752 15.3272 12.169 15.4053ZM1.54789 20.9092L1.57524 21.0264L1.4893 20.9405C1.44242 20.8897 1.41899 20.8311 1.4307 20.7921C1.46195 20.71 1.51274 20.7608 1.54789 20.9092ZM9.84477 38.0928C9.84477 38.1046 9.82914 38.1241 9.80571 38.1358C9.78617 38.1475 9.76664 38.1397 9.76664 38.1202C9.76664 38.0967 9.78617 38.0772 9.80571 38.0772C9.82914 38.0772 9.84477 38.085 9.84477 38.0928ZM4.36039 40.7921C4.25883 40.8663 4.19633 40.8663 4.25883 40.7921C4.28617 40.7608 4.33696 40.7335 4.37211 40.7335C4.42289 40.7374 4.42289 40.7452 4.36039 40.7921ZM3.91899 41.0069C3.90727 41.0499 3.88383 41.085 3.86039 41.085C3.84086 41.085 3.84477 41.0499 3.8682 41.0069C3.89164 40.9639 3.91508 40.9288 3.92289 40.9288C3.9307 40.9288 3.9307 40.9639 3.91899 41.0069Z" fill="black" stroke="#EF5017" mask="url(#path-1-inside-1)"/>
<mask id="path-2-inside-2" fill="white">
<path d="M28.3019 0.702148C28.2199 0.952148 28.048 2.37402 28.048 2.80371C28.048 2.90918 28.0284 2.95215 27.962 2.97949C27.8527 3.03027 27.8214 3.15918 27.7628 3.77246L27.7159 4.26074L27.5441 4.32324C27.1534 4.46387 26.8644 4.8584 26.6886 5.47949C26.6066 5.76465 26.5089 5.9873 26.4425 6.02637C26.423 6.04199 26.423 6.08105 26.4386 6.11621C26.4581 6.15137 26.4777 6.39355 26.4816 6.65137C26.4855 6.90918 26.5167 7.24121 26.5441 7.38574C26.587 7.58887 26.5909 7.70215 26.5597 7.87402C26.5089 8.14746 26.4894 8.18262 26.2159 8.5459C25.9777 8.8584 25.8214 9.10059 25.8214 9.15527C25.8214 9.1748 25.8683 9.12402 25.9269 9.04199C26.0558 8.8623 26.1339 8.8584 26.2706 9.03418C26.3253 9.1123 26.4699 9.22949 26.587 9.2959C26.7667 9.39746 26.9933 9.61621 26.9933 9.68652C26.9933 9.72168 26.8839 9.75684 26.5949 9.81543C26.2824 9.88184 25.6222 10.1553 25.4308 10.2959C25.1417 10.5107 24.8058 10.8662 24.7628 11.0029C24.7355 11.0811 24.712 11.2646 24.7081 11.417C24.7042 11.5654 24.6535 11.874 24.5949 12.0967C24.3995 12.8389 24.4152 13.3701 24.6378 13.9131C24.6964 14.0498 24.7238 14.1787 24.712 14.2334C24.6964 14.2842 24.7081 14.3584 24.7316 14.4014C24.7706 14.46 24.755 14.5186 24.6417 14.7412C24.5636 14.8936 24.4933 15.1045 24.4777 15.2178C24.4503 15.4209 24.4542 15.4248 24.5363 15.4014C24.6066 15.3779 24.6183 15.3857 24.5988 15.4365C24.5167 15.6436 24.4425 16.0264 24.4308 16.2725C24.423 16.4248 24.4035 16.5811 24.3878 16.6123C24.3683 16.6436 24.2355 16.7139 24.091 16.7686C23.7667 16.8896 23.6066 16.9912 23.2589 17.2842C22.8449 17.6396 22.6261 17.7959 22.4699 17.8467C22.3917 17.874 22.3097 17.917 22.2863 17.9443C22.2394 18.0029 21.3722 18.2803 21.3253 18.249C21.2824 18.2256 21.1535 18.292 21.0558 18.3896C21.0167 18.4287 20.9152 18.4756 20.8331 18.4912C20.7511 18.5029 20.6652 18.542 20.6378 18.5732C20.6027 18.6201 20.5675 18.5928 20.4386 18.417C20.3527 18.3037 20.2277 18.1592 20.1613 18.1045C19.9816 17.9561 19.5597 17.7646 19.4113 17.7646C19.3371 17.7646 19.216 17.7451 19.1417 17.7217C19.0675 17.6982 18.8839 17.6748 18.7355 17.6631C18.5206 17.6514 18.4464 17.6631 18.3917 17.7139C18.3058 17.792 18.3019 17.8545 18.38 17.9209C18.4542 17.9795 18.4542 18.1904 18.3839 18.2842C18.3449 18.335 18.3331 18.4404 18.3488 18.6748C18.3722 19.0811 18.4113 19.21 18.5441 19.3154C18.9699 19.6592 18.88 19.6279 19.5792 19.6553C20.5519 19.6943 20.7394 19.7139 20.8253 19.7998C20.9152 19.8896 21.0285 19.8936 21.1456 19.8193C21.2902 19.7217 22.0597 19.5303 22.6378 19.4443C23.7355 19.2803 24.591 19.0459 25.0909 18.7686C25.4894 18.5459 25.4894 18.5459 25.4972 18.835C25.505 18.9678 25.5441 19.1943 25.587 19.3311C25.6847 19.6396 25.6847 19.6279 25.5792 19.6631C25.5284 19.6787 25.423 19.7334 25.3449 19.7842C25.2277 19.8545 25.1964 19.8975 25.1964 19.9912C25.1964 20.0576 25.1691 20.1553 25.1339 20.2061C25.0988 20.2568 25.0636 20.4287 25.0519 20.5967L25.0285 20.8896L24.8019 21.0303C24.5363 21.1904 24.4269 21.3271 24.3917 21.5459C24.3722 21.6787 24.38 21.71 24.4503 21.7451C24.5128 21.7803 24.5558 21.7803 24.6222 21.7451C24.7745 21.6631 24.63 21.8076 24.3605 21.999C24.2316 22.0967 23.9738 22.3271 23.7941 22.5107C23.5988 22.71 23.3566 22.9092 23.2042 22.999C22.923 23.1631 22.6417 23.4248 22.4542 23.6943L22.337 23.8623L22.4347 23.9873C22.5089 24.085 22.5206 24.1279 22.4894 24.1787C22.4542 24.2334 22.4699 24.2607 22.5597 24.335C22.6222 24.3857 22.716 24.46 22.7628 24.5029L22.8527 24.5811L22.5441 25.1865C22.1652 25.9209 22.0245 26.2725 21.8566 26.8896C21.6847 27.5225 21.6613 27.7256 21.7316 28.0381L21.7902 28.292L21.6417 28.6045C21.5636 28.7764 21.4777 28.96 21.4581 29.0107C21.4269 29.0967 21.4191 29.0928 21.3019 28.9014C21.2316 28.792 21.1574 28.7021 21.1339 28.7021C21.0675 28.7021 20.9386 28.9482 20.9386 29.0811C20.9386 29.1475 20.923 29.2178 20.8995 29.2295C20.8488 29.2607 20.8488 29.4326 20.8956 29.4521C20.9191 29.46 20.9191 29.5693 20.8917 29.7451C20.8566 29.96 20.8566 30.0967 20.8917 30.292C21.0714 31.3311 21.13 31.7256 21.1066 31.835C21.0949 31.8975 21.1027 31.9443 21.1261 31.9443C21.1847 31.9443 21.216 32.1748 21.1652 32.2568C21.1261 32.3154 21.13 32.3428 21.1769 32.4014C21.212 32.4404 21.2785 32.5459 21.3292 32.6357C21.4152 32.792 21.4191 32.8154 21.3722 33.0264C21.2785 33.4717 21.2785 33.5654 21.3878 33.9834C21.5402 34.5537 21.591 34.8467 21.6613 35.4756C21.7667 36.4053 21.6886 37.2881 21.4425 37.9209C21.3839 38.0811 21.3175 38.3037 21.3019 38.417C21.2745 38.5967 21.2433 38.6475 20.9894 38.9131C20.8331 39.0732 20.7042 39.2139 20.7042 39.2217C20.7042 39.2334 20.7824 39.2646 20.8761 39.292C21.048 39.3428 21.0831 39.4053 20.9386 39.4053C20.8956 39.4053 20.8019 39.46 20.7277 39.5264C20.6496 39.5928 20.5714 39.6357 20.548 39.6201C20.466 39.5693 20.3136 39.6436 20.2511 39.7607C20.2003 39.8584 20.173 39.8779 20.0949 39.8584C20.0011 39.835 19.8488 39.8896 19.8019 39.96C19.7863 39.9834 19.7238 39.9717 19.6535 39.9326C19.5363 39.874 19.5206 39.874 19.4269 39.9326C19.3722 39.9717 19.3097 40.0459 19.2863 40.1045C19.2667 40.1592 19.1808 40.249 19.0988 40.3037C19.0128 40.3545 18.9464 40.4131 18.9464 40.4287C18.9464 40.4443 18.923 40.46 18.8917 40.46C18.8058 40.46 18.7121 40.5732 18.7121 40.6709C18.7121 40.7334 18.673 40.7764 18.5753 40.8232C18.4738 40.8701 18.4386 40.9131 18.4386 40.9834C18.4386 41.1318 18.5597 41.1709 19.0011 41.1709C19.673 41.167 20.4152 41.0654 20.8722 40.9131L21.2785 40.7764L22.3292 40.7842C23.5089 40.792 23.712 40.7646 23.712 40.5967C23.712 40.5459 23.6964 40.4951 23.6769 40.4834C23.6574 40.4717 23.6613 40.3818 23.6808 40.2764C23.7199 40.0654 23.6925 39.6279 23.6105 39.2373C23.5792 39.0889 23.5558 38.8896 23.5558 38.792C23.5558 38.6748 23.5324 38.585 23.4894 38.5342C23.423 38.4639 23.423 38.46 23.4972 38.4053C23.6574 38.2959 23.6808 38.2646 23.6574 38.1709C23.6417 38.1201 23.6535 37.9561 23.6769 37.7998C23.712 37.5615 23.712 37.5186 23.6574 37.4795C23.5988 37.4365 23.6027 37.3975 23.6769 37.0186C23.7433 36.6787 23.7745 36.6006 23.8449 36.5693C23.9113 36.542 23.9308 36.4912 23.9503 36.2764C23.962 36.1357 23.9933 35.9639 24.0245 35.8936C24.0636 35.7959 24.0636 35.749 24.0285 35.6826C23.962 35.5537 24.0636 35.1357 24.1964 35.0029C24.2511 34.9482 24.298 34.874 24.298 34.8389C24.298 34.8037 24.3527 34.6709 24.4191 34.542C24.5245 34.3311 24.5363 34.2607 24.5558 33.8467C24.5675 33.5928 24.5558 33.2178 24.5324 33.0107C24.4933 32.6787 24.4933 32.6318 24.548 32.6006C24.6183 32.5615 24.63 32.4092 24.5714 32.3506C24.5519 32.3311 24.5206 32.1982 24.5089 32.0615C24.4894 31.8662 24.4542 31.7764 24.3722 31.667C24.3097 31.5889 24.2589 31.4912 24.2589 31.4521C24.2589 31.4092 24.216 31.2178 24.1652 31.0264C24.1144 30.8311 24.0597 30.5225 24.0441 30.3389C24.0206 30.0459 24.0245 29.9834 24.0949 29.8506C24.1964 29.6514 24.5558 29.3154 24.9425 29.0537C25.673 28.5654 26.2159 28.0967 26.6222 27.6123C26.8683 27.3193 26.8839 27.3154 26.9347 27.5889C26.9777 27.8311 27.0988 28.0342 27.2159 28.0615C27.2745 28.0771 27.5167 28.0693 27.7589 28.0459C27.9972 28.0186 28.5167 27.999 28.9152 27.999H29.6378L29.6027 28.2021C29.5519 28.5068 29.5948 28.7334 29.7277 28.8662C29.7902 28.9248 29.88 28.9756 29.9347 28.9756C29.9855 28.9756 30.13 29.0107 30.2589 29.0576C30.3956 29.1045 30.5831 29.1357 30.7159 29.1357L30.9425 29.1318L31.1183 29.5146C31.2159 29.7217 31.3644 30.0889 31.4464 30.3232C31.5284 30.5615 31.6573 30.9092 31.7355 31.0967C31.8409 31.3545 31.8761 31.4912 31.8761 31.667C31.8761 31.9443 32.0011 32.4443 32.1339 32.6982C32.2198 32.8662 32.2238 32.8896 32.1691 32.9443C32.1183 32.9951 32.0831 33.2217 32.1027 33.3701C32.1222 33.5146 32.1652 33.6475 32.2042 33.6826C32.2316 33.7061 32.2706 33.9561 32.298 34.3076C32.3253 34.6279 32.3722 35.0146 32.4073 35.167C32.4425 35.3154 32.4738 35.5029 32.4777 35.5811C32.4816 35.6592 32.505 35.7529 32.5363 35.7842C32.5636 35.8193 32.5753 35.8818 32.5597 35.9248C32.5441 35.9795 32.5597 36.0146 32.6183 36.0459C32.6652 36.0693 32.7198 36.1436 32.7433 36.2061C32.7628 36.2686 32.8019 36.3193 32.8292 36.3193C32.88 36.3193 32.9425 36.4404 33.1339 36.8818C33.2198 37.0771 33.255 37.2334 33.2667 37.46C33.2862 37.7646 33.3448 37.9131 33.5245 38.0928C33.5597 38.124 33.6417 38.3584 33.7159 38.6123C33.8175 38.9834 33.8448 39.1475 33.8448 39.4561C33.8487 39.7021 33.8644 39.8467 33.8956 39.8662C33.9191 39.8818 33.9464 39.9561 33.9542 40.0303C33.962 40.1162 33.9855 40.167 34.0206 40.167C34.0597 40.167 34.0987 40.2686 34.1495 40.4912C34.1886 40.6709 34.2472 40.8701 34.2823 40.9404C34.38 41.1279 34.3683 41.6318 34.2589 41.9053C34.2042 42.0459 34.1808 42.1631 34.1964 42.2451C34.2081 42.3154 34.2316 42.4365 34.2433 42.5146C34.2628 42.6318 34.2941 42.667 34.4308 42.7295C34.5167 42.7686 34.6925 42.8232 34.8175 42.8467C35.0362 42.8896 35.0402 42.8936 35.0675 43.0459C35.1027 43.2725 35.2198 43.3857 35.6456 43.6045L36.0245 43.7998H36.6964C37.3761 43.7998 37.5401 43.7725 37.7081 43.6318C37.798 43.5498 37.7941 43.3701 37.6964 43.2998C37.6378 43.2568 37.6222 43.2178 37.6417 43.1279C37.6769 42.9482 37.587 42.8154 37.1456 42.3975C36.7003 41.9717 36.5597 41.7959 36.4855 41.5732C36.4581 41.4873 36.3995 41.3623 36.3527 41.2998C36.2941 41.2178 36.2628 41.1162 36.2589 40.9756C36.255 40.8623 36.2237 40.7178 36.1925 40.6553C36.1612 40.5928 36.1339 40.5107 36.1339 40.4717C36.1339 40.4326 36.0792 40.3115 36.0167 40.2061C35.8878 39.9873 35.8722 39.8936 35.9581 39.8584C36.0831 39.8115 35.9972 39.124 35.8566 39.0537C35.7902 39.0146 35.7823 38.9639 35.7823 38.4326C35.7823 37.96 35.7941 37.8428 35.8409 37.8037C35.8839 37.7686 35.8956 37.7139 35.8761 37.6279C35.8605 37.5342 35.8683 37.4951 35.9152 37.4795C35.9933 37.4482 35.9972 37.2725 35.9191 37.2451C35.88 37.2295 35.8644 37.1709 35.8722 37.0537C35.8761 36.96 35.8644 36.6631 35.8487 36.3857C35.8214 35.9404 35.8253 35.8896 35.88 35.8896C35.9308 35.8896 35.9425 35.8584 35.9347 35.7568C35.9269 35.667 35.9464 35.5928 35.9933 35.542C36.0636 35.4639 36.0636 35.4561 36.005 35.3896C35.9659 35.3506 35.9386 35.2803 35.9386 35.2373C35.9386 35.1943 35.9073 35.1162 35.8683 35.0654C35.8253 35.0146 35.7823 34.874 35.7706 34.7568C35.755 34.6396 35.6847 34.2881 35.6144 33.9756C35.4737 33.374 35.4581 33.0811 35.5636 32.9795C35.6378 32.9053 35.6378 32.8975 35.587 32.7998C35.5636 32.7607 35.5128 32.7256 35.4698 32.7256C35.4191 32.7256 35.3839 32.6904 35.3683 32.6162C35.3527 32.5576 35.3097 32.4678 35.2745 32.4131C35.2277 32.3467 35.1847 32.1279 35.1378 31.7334C35.048 30.9482 34.9659 30.7256 34.5753 30.2256C34.4581 30.0771 34.3683 29.4717 34.3487 28.6826L34.3292 27.9756L34.4816 27.9912C34.5753 27.999 34.8331 27.9561 35.1222 27.8818C35.3878 27.8115 35.6612 27.7451 35.7316 27.7373C35.8019 27.7256 35.8722 27.6982 35.8917 27.6709C35.9855 27.5498 36.0675 26.9482 36.0441 26.5107C35.9933 25.4482 35.8995 24.3311 35.8448 24.1514C35.8136 24.042 35.7589 23.7881 35.7237 23.585C35.5831 22.7725 35.3292 21.8115 35.1027 21.2412C35.0284 21.0576 34.9386 20.7686 34.9034 20.5967C34.8683 20.4248 34.7316 20.0146 34.6027 19.6865C34.4777 19.3545 34.3566 19.0459 34.337 18.9951C34.2902 18.8662 34.3761 18.9014 34.4894 19.0537C34.7472 19.4053 35.3136 19.3467 35.8097 18.9209C35.9933 18.7607 36.173 18.4326 36.173 18.2568C36.173 18.1904 36.2003 18.0225 36.2355 17.8818C36.2667 17.7412 36.298 17.5146 36.3019 17.374C36.3019 17.1553 36.2862 17.085 36.1612 16.8467C35.9894 16.5186 35.7902 16.3154 35.5441 16.2256C35.2237 16.1045 35.1339 15.8154 35.1964 15.0967C35.2589 14.3818 35.1573 13.9795 34.8097 13.5654C34.6925 13.4287 34.6534 13.3467 34.6691 13.292C34.6808 13.249 34.7042 13.0732 34.7159 12.9014C34.7511 12.3779 34.6144 11.9287 34.2745 11.4521C34.1573 11.292 34.0636 11.1357 34.0636 11.1084C34.0636 11.0811 34.0245 10.9834 33.9816 10.8896C33.7862 10.4834 33.5011 10.2646 33.173 10.2646C32.9269 10.2646 32.8566 10.2373 32.88 10.1553C32.8917 10.1045 32.8097 10.042 32.5323 9.89746C32.3331 9.79199 32.0206 9.61621 31.837 9.50293C31.4191 9.24902 31.3956 9.24121 31.2941 9.31152C31.2198 9.36621 31.1925 9.3623 31.005 9.27637C30.837 9.19824 30.7589 9.12793 30.5636 8.85449C30.3292 8.53809 30.3214 8.51465 30.255 8.12402C30.1847 7.69434 30.1964 6.96387 30.2823 6.59277C30.3488 6.31543 30.3566 6.11621 30.3097 6.05762C30.2823 6.03027 30.2745 5.99512 30.2863 5.97949C30.3019 5.96777 30.2863 5.90918 30.2589 5.85449C30.2277 5.7998 30.1769 5.6123 30.1456 5.43652C30.0245 4.76465 29.7355 4.4209 29.1495 4.24512C29.0323 4.20996 28.9894 4.17871 29.005 4.13965C29.0167 4.1123 29.0245 4.07715 29.0245 4.06934C29.0245 4.06152 29.048 4.05371 29.0753 4.05371C29.1847 4.05371 29.2472 3.91699 29.2706 3.64355C29.3019 3.24121 29.2628 3.06934 29.1261 3.00293L29.0167 2.95215L29.048 2.39746C29.1144 1.33496 29.0675 0.694336 28.9269 0.694336C28.8956 0.694336 28.8566 0.780273 28.8292 0.916992C28.8019 1.04199 28.7589 1.24512 28.7277 1.37012C28.6964 1.49512 28.673 1.64746 28.6691 1.70215C28.6652 1.87793 28.5597 1.39746 28.5558 1.19043C28.5558 1.07324 28.5402 1.01074 28.5167 1.02637C28.4933 1.04199 28.4777 0.983398 28.4777 0.87793C28.4777 0.75293 28.4581 0.694336 28.4152 0.678711C28.3292 0.647461 28.3214 0.647461 28.3019 0.702148ZM36.3292 41.4482C36.3292 41.4717 36.2941 41.4561 36.2511 41.417C36.2081 41.3779 36.173 41.3271 36.173 41.3076C36.173 41.2842 36.2081 41.2998 36.2511 41.3389C36.2941 41.3779 36.3292 41.4287 36.3292 41.4482ZM36.7198 42.1826C36.7198 42.2021 36.7042 42.2178 36.6808 42.2178C36.6612 42.2178 36.6417 42.1904 36.6417 42.1553C36.6417 42.124 36.6612 42.1084 36.6808 42.1201C36.7042 42.1318 36.7198 42.1592 36.7198 42.1826ZM34.3097 42.2959C34.3214 42.3389 34.3136 42.3662 34.2941 42.3506C34.2745 42.3389 34.2589 42.3037 34.2589 42.2725C34.2589 42.1943 34.2862 42.2061 34.3097 42.2959ZM36.9581 42.2842C37.0089 42.3467 37.005 42.3506 36.9464 42.2998C36.9073 42.2725 36.8761 42.2412 36.8761 42.2334C36.8761 42.2021 36.9073 42.2217 36.9581 42.2842Z"/>
</mask>
<path d="M28.3019 0.702148C28.2199 0.952148 28.048 2.37402 28.048 2.80371C28.048 2.90918 28.0284 2.95215 27.962 2.97949C27.8527 3.03027 27.8214 3.15918 27.7628 3.77246L27.7159 4.26074L27.5441 4.32324C27.1534 4.46387 26.8644 4.8584 26.6886 5.47949C26.6066 5.76465 26.5089 5.9873 26.4425 6.02637C26.423 6.04199 26.423 6.08105 26.4386 6.11621C26.4581 6.15137 26.4777 6.39355 26.4816 6.65137C26.4855 6.90918 26.5167 7.24121 26.5441 7.38574C26.587 7.58887 26.5909 7.70215 26.5597 7.87402C26.5089 8.14746 26.4894 8.18262 26.2159 8.5459C25.9777 8.8584 25.8214 9.10059 25.8214 9.15527C25.8214 9.1748 25.8683 9.12402 25.9269 9.04199C26.0558 8.8623 26.1339 8.8584 26.2706 9.03418C26.3253 9.1123 26.4699 9.22949 26.587 9.2959C26.7667 9.39746 26.9933 9.61621 26.9933 9.68652C26.9933 9.72168 26.8839 9.75684 26.5949 9.81543C26.2824 9.88184 25.6222 10.1553 25.4308 10.2959C25.1417 10.5107 24.8058 10.8662 24.7628 11.0029C24.7355 11.0811 24.712 11.2646 24.7081 11.417C24.7042 11.5654 24.6535 11.874 24.5949 12.0967C24.3995 12.8389 24.4152 13.3701 24.6378 13.9131C24.6964 14.0498 24.7238 14.1787 24.712 14.2334C24.6964 14.2842 24.7081 14.3584 24.7316 14.4014C24.7706 14.46 24.755 14.5186 24.6417 14.7412C24.5636 14.8936 24.4933 15.1045 24.4777 15.2178C24.4503 15.4209 24.4542 15.4248 24.5363 15.4014C24.6066 15.3779 24.6183 15.3857 24.5988 15.4365C24.5167 15.6436 24.4425 16.0264 24.4308 16.2725C24.423 16.4248 24.4035 16.5811 24.3878 16.6123C24.3683 16.6436 24.2355 16.7139 24.091 16.7686C23.7667 16.8896 23.6066 16.9912 23.2589 17.2842C22.8449 17.6396 22.6261 17.7959 22.4699 17.8467C22.3917 17.874 22.3097 17.917 22.2863 17.9443C22.2394 18.0029 21.3722 18.2803 21.3253 18.249C21.2824 18.2256 21.1535 18.292 21.0558 18.3896C21.0167 18.4287 20.9152 18.4756 20.8331 18.4912C20.7511 18.5029 20.6652 18.542 20.6378 18.5732C20.6027 18.6201 20.5675 18.5928 20.4386 18.417C20.3527 18.3037 20.2277 18.1592 20.1613 18.1045C19.9816 17.9561 19.5597 17.7646 19.4113 17.7646C19.3371 17.7646 19.216 17.7451 19.1417 17.7217C19.0675 17.6982 18.8839 17.6748 18.7355 17.6631C18.5206 17.6514 18.4464 17.6631 18.3917 17.7139C18.3058 17.792 18.3019 17.8545 18.38 17.9209C18.4542 17.9795 18.4542 18.1904 18.3839 18.2842C18.3449 18.335 18.3331 18.4404 18.3488 18.6748C18.3722 19.0811 18.4113 19.21 18.5441 19.3154C18.9699 19.6592 18.88 19.6279 19.5792 19.6553C20.5519 19.6943 20.7394 19.7139 20.8253 19.7998C20.9152 19.8896 21.0285 19.8936 21.1456 19.8193C21.2902 19.7217 22.0597 19.5303 22.6378 19.4443C23.7355 19.2803 24.591 19.0459 25.0909 18.7686C25.4894 18.5459 25.4894 18.5459 25.4972 18.835C25.505 18.9678 25.5441 19.1943 25.587 19.3311C25.6847 19.6396 25.6847 19.6279 25.5792 19.6631C25.5284 19.6787 25.423 19.7334 25.3449 19.7842C25.2277 19.8545 25.1964 19.8975 25.1964 19.9912C25.1964 20.0576 25.1691 20.1553 25.1339 20.2061C25.0988 20.2568 25.0636 20.4287 25.0519 20.5967L25.0285 20.8896L24.8019 21.0303C24.5363 21.1904 24.4269 21.3271 24.3917 21.5459C24.3722 21.6787 24.38 21.71 24.4503 21.7451C24.5128 21.7803 24.5558 21.7803 24.6222 21.7451C24.7745 21.6631 24.63 21.8076 24.3605 21.999C24.2316 22.0967 23.9738 22.3271 23.7941 22.5107C23.5988 22.71 23.3566 22.9092 23.2042 22.999C22.923 23.1631 22.6417 23.4248 22.4542 23.6943L22.337 23.8623L22.4347 23.9873C22.5089 24.085 22.5206 24.1279 22.4894 24.1787C22.4542 24.2334 22.4699 24.2607 22.5597 24.335C22.6222 24.3857 22.716 24.46 22.7628 24.5029L22.8527 24.5811L22.5441 25.1865C22.1652 25.9209 22.0245 26.2725 21.8566 26.8896C21.6847 27.5225 21.6613 27.7256 21.7316 28.0381L21.7902 28.292L21.6417 28.6045C21.5636 28.7764 21.4777 28.96 21.4581 29.0107C21.4269 29.0967 21.4191 29.0928 21.3019 28.9014C21.2316 28.792 21.1574 28.7021 21.1339 28.7021C21.0675 28.7021 20.9386 28.9482 20.9386 29.0811C20.9386 29.1475 20.923 29.2178 20.8995 29.2295C20.8488 29.2607 20.8488 29.4326 20.8956 29.4521C20.9191 29.46 20.9191 29.5693 20.8917 29.7451C20.8566 29.96 20.8566 30.0967 20.8917 30.292C21.0714 31.3311 21.13 31.7256 21.1066 31.835C21.0949 31.8975 21.1027 31.9443 21.1261 31.9443C21.1847 31.9443 21.216 32.1748 21.1652 32.2568C21.1261 32.3154 21.13 32.3428 21.1769 32.4014C21.212 32.4404 21.2785 32.5459 21.3292 32.6357C21.4152 32.792 21.4191 32.8154 21.3722 33.0264C21.2785 33.4717 21.2785 33.5654 21.3878 33.9834C21.5402 34.5537 21.591 34.8467 21.6613 35.4756C21.7667 36.4053 21.6886 37.2881 21.4425 37.9209C21.3839 38.0811 21.3175 38.3037 21.3019 38.417C21.2745 38.5967 21.2433 38.6475 20.9894 38.9131C20.8331 39.0732 20.7042 39.2139 20.7042 39.2217C20.7042 39.2334 20.7824 39.2646 20.8761 39.292C21.048 39.3428 21.0831 39.4053 20.9386 39.4053C20.8956 39.4053 20.8019 39.46 20.7277 39.5264C20.6496 39.5928 20.5714 39.6357 20.548 39.6201C20.466 39.5693 20.3136 39.6436 20.2511 39.7607C20.2003 39.8584 20.173 39.8779 20.0949 39.8584C20.0011 39.835 19.8488 39.8896 19.8019 39.96C19.7863 39.9834 19.7238 39.9717 19.6535 39.9326C19.5363 39.874 19.5206 39.874 19.4269 39.9326C19.3722 39.9717 19.3097 40.0459 19.2863 40.1045C19.2667 40.1592 19.1808 40.249 19.0988 40.3037C19.0128 40.3545 18.9464 40.4131 18.9464 40.4287C18.9464 40.4443 18.923 40.46 18.8917 40.46C18.8058 40.46 18.7121 40.5732 18.7121 40.6709C18.7121 40.7334 18.673 40.7764 18.5753 40.8232C18.4738 40.8701 18.4386 40.9131 18.4386 40.9834C18.4386 41.1318 18.5597 41.1709 19.0011 41.1709C19.673 41.167 20.4152 41.0654 20.8722 40.9131L21.2785 40.7764L22.3292 40.7842C23.5089 40.792 23.712 40.7646 23.712 40.5967C23.712 40.5459 23.6964 40.4951 23.6769 40.4834C23.6574 40.4717 23.6613 40.3818 23.6808 40.2764C23.7199 40.0654 23.6925 39.6279 23.6105 39.2373C23.5792 39.0889 23.5558 38.8896 23.5558 38.792C23.5558 38.6748 23.5324 38.585 23.4894 38.5342C23.423 38.4639 23.423 38.46 23.4972 38.4053C23.6574 38.2959 23.6808 38.2646 23.6574 38.1709C23.6417 38.1201 23.6535 37.9561 23.6769 37.7998C23.712 37.5615 23.712 37.5186 23.6574 37.4795C23.5988 37.4365 23.6027 37.3975 23.6769 37.0186C23.7433 36.6787 23.7745 36.6006 23.8449 36.5693C23.9113 36.542 23.9308 36.4912 23.9503 36.2764C23.962 36.1357 23.9933 35.9639 24.0245 35.8936C24.0636 35.7959 24.0636 35.749 24.0285 35.6826C23.962 35.5537 24.0636 35.1357 24.1964 35.0029C24.2511 34.9482 24.298 34.874 24.298 34.8389C24.298 34.8037 24.3527 34.6709 24.4191 34.542C24.5245 34.3311 24.5363 34.2607 24.5558 33.8467C24.5675 33.5928 24.5558 33.2178 24.5324 33.0107C24.4933 32.6787 24.4933 32.6318 24.548 32.6006C24.6183 32.5615 24.63 32.4092 24.5714 32.3506C24.5519 32.3311 24.5206 32.1982 24.5089 32.0615C24.4894 31.8662 24.4542 31.7764 24.3722 31.667C24.3097 31.5889 24.2589 31.4912 24.2589 31.4521C24.2589 31.4092 24.216 31.2178 24.1652 31.0264C24.1144 30.8311 24.0597 30.5225 24.0441 30.3389C24.0206 30.0459 24.0245 29.9834 24.0949 29.8506C24.1964 29.6514 24.5558 29.3154 24.9425 29.0537C25.673 28.5654 26.2159 28.0967 26.6222 27.6123C26.8683 27.3193 26.8839 27.3154 26.9347 27.5889C26.9777 27.8311 27.0988 28.0342 27.2159 28.0615C27.2745 28.0771 27.5167 28.0693 27.7589 28.0459C27.9972 28.0186 28.5167 27.999 28.9152 27.999H29.6378L29.6027 28.2021C29.5519 28.5068 29.5948 28.7334 29.7277 28.8662C29.7902 28.9248 29.88 28.9756 29.9347 28.9756C29.9855 28.9756 30.13 29.0107 30.2589 29.0576C30.3956 29.1045 30.5831 29.1357 30.7159 29.1357L30.9425 29.1318L31.1183 29.5146C31.2159 29.7217 31.3644 30.0889 31.4464 30.3232C31.5284 30.5615 31.6573 30.9092 31.7355 31.0967C31.8409 31.3545 31.8761 31.4912 31.8761 31.667C31.8761 31.9443 32.0011 32.4443 32.1339 32.6982C32.2198 32.8662 32.2238 32.8896 32.1691 32.9443C32.1183 32.9951 32.0831 33.2217 32.1027 33.3701C32.1222 33.5146 32.1652 33.6475 32.2042 33.6826C32.2316 33.7061 32.2706 33.9561 32.298 34.3076C32.3253 34.6279 32.3722 35.0146 32.4073 35.167C32.4425 35.3154 32.4738 35.5029 32.4777 35.5811C32.4816 35.6592 32.505 35.7529 32.5363 35.7842C32.5636 35.8193 32.5753 35.8818 32.5597 35.9248C32.5441 35.9795 32.5597 36.0146 32.6183 36.0459C32.6652 36.0693 32.7198 36.1436 32.7433 36.2061C32.7628 36.2686 32.8019 36.3193 32.8292 36.3193C32.88 36.3193 32.9425 36.4404 33.1339 36.8818C33.2198 37.0771 33.255 37.2334 33.2667 37.46C33.2862 37.7646 33.3448 37.9131 33.5245 38.0928C33.5597 38.124 33.6417 38.3584 33.7159 38.6123C33.8175 38.9834 33.8448 39.1475 33.8448 39.4561C33.8487 39.7021 33.8644 39.8467 33.8956 39.8662C33.9191 39.8818 33.9464 39.9561 33.9542 40.0303C33.962 40.1162 33.9855 40.167 34.0206 40.167C34.0597 40.167 34.0987 40.2686 34.1495 40.4912C34.1886 40.6709 34.2472 40.8701 34.2823 40.9404C34.38 41.1279 34.3683 41.6318 34.2589 41.9053C34.2042 42.0459 34.1808 42.1631 34.1964 42.2451C34.2081 42.3154 34.2316 42.4365 34.2433 42.5146C34.2628 42.6318 34.2941 42.667 34.4308 42.7295C34.5167 42.7686 34.6925 42.8232 34.8175 42.8467C35.0362 42.8896 35.0402 42.8936 35.0675 43.0459C35.1027 43.2725 35.2198 43.3857 35.6456 43.6045L36.0245 43.7998H36.6964C37.3761 43.7998 37.5401 43.7725 37.7081 43.6318C37.798 43.5498 37.7941 43.3701 37.6964 43.2998C37.6378 43.2568 37.6222 43.2178 37.6417 43.1279C37.6769 42.9482 37.587 42.8154 37.1456 42.3975C36.7003 41.9717 36.5597 41.7959 36.4855 41.5732C36.4581 41.4873 36.3995 41.3623 36.3527 41.2998C36.2941 41.2178 36.2628 41.1162 36.2589 40.9756C36.255 40.8623 36.2237 40.7178 36.1925 40.6553C36.1612 40.5928 36.1339 40.5107 36.1339 40.4717C36.1339 40.4326 36.0792 40.3115 36.0167 40.2061C35.8878 39.9873 35.8722 39.8936 35.9581 39.8584C36.0831 39.8115 35.9972 39.124 35.8566 39.0537C35.7902 39.0146 35.7823 38.9639 35.7823 38.4326C35.7823 37.96 35.7941 37.8428 35.8409 37.8037C35.8839 37.7686 35.8956 37.7139 35.8761 37.6279C35.8605 37.5342 35.8683 37.4951 35.9152 37.4795C35.9933 37.4482 35.9972 37.2725 35.9191 37.2451C35.88 37.2295 35.8644 37.1709 35.8722 37.0537C35.8761 36.96 35.8644 36.6631 35.8487 36.3857C35.8214 35.9404 35.8253 35.8896 35.88 35.8896C35.9308 35.8896 35.9425 35.8584 35.9347 35.7568C35.9269 35.667 35.9464 35.5928 35.9933 35.542C36.0636 35.4639 36.0636 35.4561 36.005 35.3896C35.9659 35.3506 35.9386 35.2803 35.9386 35.2373C35.9386 35.1943 35.9073 35.1162 35.8683 35.0654C35.8253 35.0146 35.7823 34.874 35.7706 34.7568C35.755 34.6396 35.6847 34.2881 35.6144 33.9756C35.4737 33.374 35.4581 33.0811 35.5636 32.9795C35.6378 32.9053 35.6378 32.8975 35.587 32.7998C35.5636 32.7607 35.5128 32.7256 35.4698 32.7256C35.4191 32.7256 35.3839 32.6904 35.3683 32.6162C35.3527 32.5576 35.3097 32.4678 35.2745 32.4131C35.2277 32.3467 35.1847 32.1279 35.1378 31.7334C35.048 30.9482 34.9659 30.7256 34.5753 30.2256C34.4581 30.0771 34.3683 29.4717 34.3487 28.6826L34.3292 27.9756L34.4816 27.9912C34.5753 27.999 34.8331 27.9561 35.1222 27.8818C35.3878 27.8115 35.6612 27.7451 35.7316 27.7373C35.8019 27.7256 35.8722 27.6982 35.8917 27.6709C35.9855 27.5498 36.0675 26.9482 36.0441 26.5107C35.9933 25.4482 35.8995 24.3311 35.8448 24.1514C35.8136 24.042 35.7589 23.7881 35.7237 23.585C35.5831 22.7725 35.3292 21.8115 35.1027 21.2412C35.0284 21.0576 34.9386 20.7686 34.9034 20.5967C34.8683 20.4248 34.7316 20.0146 34.6027 19.6865C34.4777 19.3545 34.3566 19.0459 34.337 18.9951C34.2902 18.8662 34.3761 18.9014 34.4894 19.0537C34.7472 19.4053 35.3136 19.3467 35.8097 18.9209C35.9933 18.7607 36.173 18.4326 36.173 18.2568C36.173 18.1904 36.2003 18.0225 36.2355 17.8818C36.2667 17.7412 36.298 17.5146 36.3019 17.374C36.3019 17.1553 36.2862 17.085 36.1612 16.8467C35.9894 16.5186 35.7902 16.3154 35.5441 16.2256C35.2237 16.1045 35.1339 15.8154 35.1964 15.0967C35.2589 14.3818 35.1573 13.9795 34.8097 13.5654C34.6925 13.4287 34.6534 13.3467 34.6691 13.292C34.6808 13.249 34.7042 13.0732 34.7159 12.9014C34.7511 12.3779 34.6144 11.9287 34.2745 11.4521C34.1573 11.292 34.0636 11.1357 34.0636 11.1084C34.0636 11.0811 34.0245 10.9834 33.9816 10.8896C33.7862 10.4834 33.5011 10.2646 33.173 10.2646C32.9269 10.2646 32.8566 10.2373 32.88 10.1553C32.8917 10.1045 32.8097 10.042 32.5323 9.89746C32.3331 9.79199 32.0206 9.61621 31.837 9.50293C31.4191 9.24902 31.3956 9.24121 31.2941 9.31152C31.2198 9.36621 31.1925 9.3623 31.005 9.27637C30.837 9.19824 30.7589 9.12793 30.5636 8.85449C30.3292 8.53809 30.3214 8.51465 30.255 8.12402C30.1847 7.69434 30.1964 6.96387 30.2823 6.59277C30.3488 6.31543 30.3566 6.11621 30.3097 6.05762C30.2823 6.03027 30.2745 5.99512 30.2863 5.97949C30.3019 5.96777 30.2863 5.90918 30.2589 5.85449C30.2277 5.7998 30.1769 5.6123 30.1456 5.43652C30.0245 4.76465 29.7355 4.4209 29.1495 4.24512C29.0323 4.20996 28.9894 4.17871 29.005 4.13965C29.0167 4.1123 29.0245 4.07715 29.0245 4.06934C29.0245 4.06152 29.048 4.05371 29.0753 4.05371C29.1847 4.05371 29.2472 3.91699 29.2706 3.64355C29.3019 3.24121 29.2628 3.06934 29.1261 3.00293L29.0167 2.95215L29.048 2.39746C29.1144 1.33496 29.0675 0.694336 28.9269 0.694336C28.8956 0.694336 28.8566 0.780273 28.8292 0.916992C28.8019 1.04199 28.7589 1.24512 28.7277 1.37012C28.6964 1.49512 28.673 1.64746 28.6691 1.70215C28.6652 1.87793 28.5597 1.39746 28.5558 1.19043C28.5558 1.07324 28.5402 1.01074 28.5167 1.02637C28.4933 1.04199 28.4777 0.983398 28.4777 0.87793C28.4777 0.75293 28.4581 0.694336 28.4152 0.678711C28.3292 0.647461 28.3214 0.647461 28.3019 0.702148ZM36.3292 41.4482C36.3292 41.4717 36.2941 41.4561 36.2511 41.417C36.2081 41.3779 36.173 41.3271 36.173 41.3076C36.173 41.2842 36.2081 41.2998 36.2511 41.3389C36.2941 41.3779 36.3292 41.4287 36.3292 41.4482ZM36.7198 42.1826C36.7198 42.2021 36.7042 42.2178 36.6808 42.2178C36.6612 42.2178 36.6417 42.1904 36.6417 42.1553C36.6417 42.124 36.6612 42.1084 36.6808 42.1201C36.7042 42.1318 36.7198 42.1592 36.7198 42.1826ZM34.3097 42.2959C34.3214 42.3389 34.3136 42.3662 34.2941 42.3506C34.2745 42.3389 34.2589 42.3037 34.2589 42.2725C34.2589 42.1943 34.2862 42.2061 34.3097 42.2959ZM36.9581 42.2842C37.0089 42.3467 37.005 42.3506 36.9464 42.2998C36.9073 42.2725 36.8761 42.2412 36.8761 42.2334C36.8761 42.2021 36.9073 42.2217 36.9581 42.2842Z" fill="black" stroke="#EF5017" mask="url(#path-2-inside-2)"/>
</svg>
