<svg width="100" height="54" viewBox="0 0 100 54" fill="none" xmlns="http://www.w3.org/2000/svg">
<path d="M15.7672 0.104672C15.407 0.30475 15.1029 0.608868 14.7828 1.09706C14.6307 1.33715 14.4306 1.59325 14.3506 1.65728C14.2786 1.7213 14.1905 1.86536 14.1745 1.9774C14.1585 2.08945 14.1345 2.17748 14.1265 2.17748C14.1185 2.17748 14.0625 2.44959 14.0065 2.77771C13.9024 3.36994 13.7504 4.07422 13.5743 4.77849C13.5263 4.97857 13.4703 5.22667 13.4543 5.33871C13.4222 5.47477 13.2782 5.61882 12.9901 5.79489C12.758 5.93094 12.4379 6.16303 12.2858 6.29909C12.0777 6.47516 12.1417 6.45115 12.5259 6.19505C13.2702 5.69085 13.3742 5.66684 13.1181 6.05899C12.9981 6.23506 12.87 6.37912 12.83 6.37912C12.79 6.37912 12.5419 6.49916 12.2938 6.65122L11.8296 6.92333L11.7336 6.65923C11.6856 6.51517 11.5495 6.36311 11.4295 6.30709C11.2454 6.21906 11.1574 6.24306 10.7332 6.45915C10.197 6.73926 9.84484 7.03537 9.68478 7.33949C9.60475 7.49155 9.42868 7.59559 8.98851 7.73165C8.11617 8.01175 7.52394 8.27586 6.97172 8.61199C6.70762 8.78005 6.32347 9.00414 6.12339 9.11619C5.92331 9.22823 5.55517 9.54035 5.29907 9.80445C4.69884 10.4367 4.68283 10.7808 5.22704 11.3571C5.41912 11.5651 5.41912 11.5891 5.29907 11.7252C5.03497 12.0213 4.90692 12.4855 4.91492 13.1257C4.91492 13.6139 4.88291 13.83 4.75486 14.0781C4.65882 14.2622 4.53077 14.5903 4.46675 14.8144C4.31469 15.3346 3.87452 16.1429 3.74647 16.1429C3.69044 16.1429 3.59441 16.247 3.52238 16.383C3.37832 16.6551 3.37832 16.6551 3.16224 16.5271C2.90614 16.367 2.73807 16.5351 2.58601 17.1273C2.51398 17.4154 2.36193 17.9276 2.24988 18.2638C2.13784 18.6079 2.0418 18.936 2.0418 18.992C2.0418 19.0881 2.00979 19.0881 1.87374 19.024C1.75369 18.952 1.68166 18.96 1.58562 19.0321C1.48959 19.1201 1.47358 19.2321 1.51359 19.6003C1.55361 19.9124 1.5296 20.2165 1.44957 20.5286C1.37754 20.7767 1.28951 21.1929 1.24149 21.441C1.15345 21.8732 1.13745 21.9052 0.921364 21.9052C0.689273 21.9052 0.601239 22.0252 0.601239 22.3533C0.601239 22.4574 0.569227 22.6094 0.529211 22.6895C0.417167 22.8976 0.0570269 23.922 0.00900817 24.146C-0.0550168 24.4662 0.233096 25.4345 0.529211 25.8667C1.20147 26.8511 1.15345 26.8111 1.61764 26.7551L2.0338 26.707L2.16185 27.1472C2.22587 27.3873 2.38593 27.7074 2.51398 27.8435C2.94615 28.3477 3.37032 29.3561 3.24227 29.5962C3.19425 29.6682 3.14623 29.9803 3.13023 30.2844C3.09821 30.7646 3.11422 30.8847 3.29029 31.1808C3.39433 31.3729 3.48236 31.621 3.48236 31.741C3.47436 31.9411 3.47436 31.9411 3.35431 31.789C3.19425 31.5729 3.02618 30.9647 2.92214 30.2284C2.85812 29.7642 2.79409 29.5962 2.65804 29.4921C2.562 29.4121 2.44196 29.3481 2.38593 29.3481C2.09782 29.3481 2.23388 31.5409 2.61002 33.0855C2.8181 33.9259 3.38632 35.3664 3.69044 35.8226C3.97055 36.2468 4.20264 36.3108 4.64282 36.0707C4.94693 35.9026 5.01096 35.8946 5.23505 35.9827C5.3711 36.0387 5.61119 36.2468 5.76325 36.4388C6.05136 36.791 6.28345 36.895 6.28345 36.6789C6.28345 36.6149 6.02735 35.9907 5.71523 35.2944C5.40311 34.5981 5.07498 33.8698 4.98695 33.6778L4.83489 33.3176L4.69884 33.5897C4.41873 34.1419 4.28267 33.9419 4.28267 32.9655C4.28267 32.6294 4.31469 32.3893 4.36271 32.3893C4.41072 32.3893 4.48275 32.3012 4.52277 32.1892C4.6108 31.9571 4.65882 31.9491 4.88291 32.1091C5.02696 32.2212 5.04297 32.2052 5.14701 31.853C5.31508 31.2528 5.33909 30.9887 5.35509 29.7082C5.3631 28.5237 5.35509 28.4997 5.123 28.0356C4.8669 27.5234 4.66682 27.3313 4.53077 27.4673C4.48275 27.5154 4.41873 27.8195 4.39472 28.1396C4.3547 28.5478 4.29068 28.7798 4.19464 28.8759C4.05859 29.0119 4.05058 29.0119 3.93054 28.8359C3.70645 28.4837 3.40233 27.6674 3.40233 27.4113C3.40233 27.2593 3.3143 27.0192 3.20225 26.8511C2.96216 26.499 2.96216 26.499 3.14623 26.4509C3.43434 26.3709 3.48236 25.9147 3.27428 25.1064C3.16224 24.7063 3.02618 24.2741 2.96216 24.146C2.67405 23.5858 2.93815 22.4494 3.37832 22.3533C3.67444 22.2813 3.98656 21.8171 3.89052 21.577C3.74647 21.1849 4.21865 20.3286 4.6028 20.2885C4.70684 20.2725 4.89891 20.1525 5.01896 20.0164C5.21104 19.8003 5.23505 19.7283 5.17102 19.5603C5.115 19.4082 5.13901 19.2561 5.28306 18.896C5.39511 18.6319 5.48314 18.3598 5.48314 18.2718C5.48314 18.1917 5.66721 17.7916 5.8913 17.3914C6.27545 16.7031 6.32347 16.6471 6.76364 16.439C7.31586 16.1749 8.24422 15.3426 8.60436 14.7824C8.74842 14.5583 8.87647 14.3902 8.90048 14.4062C8.91648 14.4223 8.99651 14.9024 9.08455 15.4707C9.16458 16.0389 9.30863 16.8232 9.40467 17.2233C9.50871 17.6715 9.55673 18.0557 9.52472 18.2317C9.49271 18.4158 9.54072 18.88 9.65277 19.4242C9.82884 20.2965 9.82884 20.3286 9.68478 20.5927C9.59675 20.7607 9.56473 20.9288 9.59675 21.0568C9.66077 21.3049 9.66877 21.3049 9.23661 21.1049C8.79643 20.9128 8.54834 20.9048 8.4603 21.0808C8.23622 21.521 8.10817 22.4094 8.15618 23.2097C8.18019 23.6579 8.2042 24.2261 8.2042 24.4662C8.1962 24.8103 8.26023 25.0344 8.49232 25.5066C8.77243 26.0908 8.78043 26.1308 8.74041 26.7871C8.7084 27.2593 8.62037 27.6914 8.4443 28.1876C8.29224 28.6438 8.2042 29.044 8.21221 29.268C8.21221 29.4681 8.21221 29.7882 8.21221 29.9883C8.1882 30.5725 8.37227 32.0851 8.49232 32.3893C8.55634 32.5413 8.68439 32.7254 8.76442 32.8054C8.85246 32.8935 8.92448 33.0295 8.92448 33.1095C8.92448 33.3016 9.55673 35.6065 9.93288 36.799C9.96489 36.887 9.90087 36.959 9.7408 37.0231C9.17258 37.2632 8.41228 38.3436 8.21221 39.1999C8.14818 39.496 8.15618 39.6561 8.24422 39.9762C8.30824 40.1923 8.38027 40.7125 8.39628 41.1207L8.42829 41.873L8.14018 42.2731C7.95611 42.5292 7.85207 42.7693 7.84406 42.9534C7.83606 43.1054 7.78804 43.3855 7.73202 43.5776C7.65999 43.8257 7.65999 44.0578 7.70801 44.3779C7.82806 45.0982 8.41228 47.019 8.68439 47.5632C8.90048 48.0033 8.98051 48.0834 9.32464 48.2434C9.75681 48.4355 9.76481 48.4515 9.65277 48.7396C9.52472 49.0678 9.24461 50.7804 9.29263 50.9085C9.38867 51.1646 10.149 51.4127 11.4855 51.6288C11.6375 51.6528 12.0697 51.8528 12.4379 52.0689C13.5423 52.7252 14.8148 52.8532 15.8792 52.4291C16.1193 52.333 16.1993 52.253 16.2393 52.0689C16.3354 51.5887 16.1113 51.3246 15.327 50.9965C15.0389 50.8765 14.7187 50.7004 14.6067 50.5964C14.4947 50.5003 14.3026 50.3563 14.1665 50.2922C14.0385 50.2282 13.8384 50.0762 13.7344 49.9641C13.6223 49.8521 13.4943 49.756 13.4302 49.756C13.3102 49.756 12.926 49.1798 12.926 48.9957C12.926 48.9317 12.9981 48.8037 13.0861 48.7156C13.1741 48.6276 13.2462 48.4515 13.2462 48.3235C13.2462 48.0514 14.6947 45.8585 15.431 45.0102C16.1833 44.1458 16.6475 43.4816 16.7996 43.0734C17.1117 42.2011 17.2637 42.009 17.7679 41.889C18.0881 41.8089 18.1921 41.7369 18.2881 41.5368C18.4402 41.2327 18.7363 41.2247 19.0484 41.5128C19.2485 41.7049 19.5686 42.2891 19.5686 42.4652C19.5686 42.6573 19.9608 43.4096 20.1609 43.5856C20.441 43.8497 20.593 43.7217 20.457 43.3375C20.401 43.1935 20.3289 42.7773 20.2969 42.4252C20.2329 41.7369 19.9368 40.9766 19.5366 40.4484C19.4166 40.2963 19.3285 40.1443 19.3285 40.0963C19.3285 40.0562 19.2405 39.9682 19.1365 39.9122C18.8884 39.7841 18.8243 39.6241 18.9364 39.416C19.0484 39.2079 18.9604 38.8718 18.8003 38.8718C18.7123 38.8718 18.6883 38.8238 18.7203 38.7277C18.9364 38.0795 19.1765 37.3112 19.2965 36.887C19.3686 36.6149 19.4646 36.3908 19.5046 36.3908C19.5446 36.3908 19.6807 36.4628 19.8007 36.5589C20.2969 36.927 20.617 36.5749 20.8171 35.4304C20.8731 35.0943 20.9612 34.7262 21.0092 34.5981C21.1372 34.254 21.4174 32.3893 21.3693 32.2212C21.3373 32.1252 21.3613 32.0531 21.4334 32.0211C21.6414 31.9411 21.6655 31.3569 21.4974 30.5005C21.4094 30.0684 21.2893 29.5562 21.2173 29.3721C21.1372 29.132 21.1212 29.0119 21.1853 28.9799C21.3053 28.9079 21.2173 27.9635 20.9772 26.7551C20.8731 26.2269 20.7611 25.4746 20.7371 25.0904C20.6651 24.2101 20.505 23.5778 20.2489 23.2017C20.1369 23.0416 20.0488 22.8335 20.0488 22.7455C20.0408 22.6575 19.9928 22.4974 19.9288 22.3854C19.7927 22.1453 19.7767 21.8732 19.8968 21.6811C19.9688 21.569 19.9608 21.473 19.8567 21.2729C19.6727 20.9208 19.5206 20.8808 19.1445 21.0969C18.9684 21.2009 18.8564 21.2409 18.8804 21.1929C18.9124 21.1449 18.8964 21.1049 18.8564 21.1049C18.6243 21.1049 18.8163 20.8568 19.2405 20.5927C19.5046 20.4326 19.7367 20.2325 19.7687 20.1525C19.8327 19.9524 19.6647 19.2962 19.5206 19.1761C19.4566 19.1281 19.4086 18.968 19.4086 18.816C19.4086 18.6719 19.3525 18.3838 19.2805 18.1837C19.1285 17.7355 19.1925 17.3914 19.4646 17.1593C19.5686 17.0633 19.8087 16.7672 19.9928 16.5031C20.1689 16.239 20.401 15.9028 20.497 15.7588C20.601 15.6147 20.7531 15.2706 20.8491 14.9825C21.0172 14.4783 21.2093 14.2702 21.3053 14.5103C21.3293 14.5743 21.3133 14.6704 21.2733 14.7104C21.1452 14.8384 21.4974 15.4306 21.6655 15.3746C21.7695 15.3426 21.8575 15.4387 22.0176 15.7588C22.5538 16.8232 23.4181 17.8716 24.1544 18.3758C24.4745 18.5919 24.9467 18.944 25.2108 19.1681C25.7951 19.6643 26.5153 20.0965 27.0516 20.2725C27.2676 20.3446 27.5477 20.4886 27.6598 20.5927C27.9319 20.8568 28.276 20.9368 28.9803 20.9288C29.3084 20.9288 29.6206 20.9608 29.6686 21.0088C29.7246 21.0568 30.0367 21.1529 30.3568 21.2329C30.693 21.3129 30.9331 21.409 30.9331 21.473C30.9331 21.529 31.0371 21.8491 31.1652 22.1853C31.4373 22.8976 31.8614 23.4098 32.3256 23.5938C32.6777 23.7379 32.8378 24.026 32.8458 24.5542C32.8538 24.9704 33.1259 25.2825 33.438 25.2505C33.5821 25.2345 33.7342 25.1464 33.8302 25.0184C33.9823 24.8103 33.9823 24.8103 33.7742 24.3061L33.5661 23.8019L33.8542 23.5618C34.1423 23.3297 34.1503 23.3057 34.1023 22.9456L34.0543 22.5694L34.5425 22.5214C35.3748 22.4494 35.4388 22.1773 34.6865 21.9612L34.3344 21.8572L34.2464 21.3049C34.1743 20.8568 34.1103 20.7207 33.9262 20.5606C33.7982 20.4566 33.4621 20.1525 33.1819 19.8964C32.8938 19.6403 32.6137 19.4242 32.5577 19.4242C32.4296 19.4242 32.4216 19.3282 32.5417 19.2081C32.6137 19.1361 32.5257 18.944 32.2216 18.4478C31.7814 17.7355 31.7494 17.6155 31.9255 17.3834C32.0215 17.2554 31.9815 17.1353 31.5733 16.351C31.0211 15.3026 30.4529 13.662 30.4529 13.1418C30.4529 12.9097 30.3808 12.6296 30.2448 12.3655C30.1328 12.1414 30.0367 11.8292 30.0367 11.6692C30.0367 11.237 27.9319 6.37912 27.7398 6.37912C27.5878 6.37912 27.6438 7.1074 27.8999 8.71603C28.1 9.94851 28.196 10.3567 28.3881 10.7328C28.5161 10.9889 28.6042 11.269 28.5882 11.3571C28.5641 11.4451 28.6922 11.8292 28.9003 12.2454C29.3324 13.1658 29.6526 14.3182 29.6846 15.1025C29.7086 15.7108 29.7886 15.9428 30.1808 16.5431C30.4369 16.9512 30.4769 17.1433 30.3328 17.2954C30.2368 17.3914 30.2288 17.4554 30.2928 17.5755C30.4129 17.8076 30.3969 17.8236 30.1247 17.6875C29.9647 17.6075 29.7886 17.5835 29.6045 17.6235C29.2684 17.6795 29.1003 17.5915 28.5801 17.0633C28.156 16.6391 27.9959 16.5911 27.3717 16.6871C27.0035 16.7512 26.8435 16.7432 26.6834 16.6551C26.3953 16.5111 25.8031 15.8228 25.8271 15.6707C25.8351 15.5987 25.7791 15.4467 25.699 15.3266C25.555 15.1105 25.555 15.1025 25.715 14.9665C25.8671 14.8384 25.8751 14.7824 25.8111 14.4223C25.755 14.1582 25.667 13.9661 25.539 13.862C25.4269 13.774 25.2669 13.5339 25.1788 13.3178L25.0188 12.9417L25.4109 12.5575C25.8831 12.1013 25.9071 11.9173 25.579 11.4771C25.2909 11.101 25.0188 10.8849 24.7467 10.8208C24.4906 10.7568 24.4906 10.7328 24.6906 10.2606C24.8987 9.77244 24.8987 9.26024 24.6906 8.99614C24.4665 8.71603 23.8103 8.50795 23.09 8.49994C22.5538 8.49194 22.4498 8.45993 22.1216 8.23584C21.9216 8.09979 21.7135 7.93172 21.6574 7.8677C21.6094 7.81168 21.5534 7.41152 21.5374 6.97135C21.4894 5.66684 21.2573 5.22667 20.6491 5.27469L20.3289 5.2987L20.2729 4.93856C20.2249 4.61043 20.0728 4.18626 19.6967 3.32193C19.6247 3.16186 19.5926 2.96979 19.6167 2.90576C19.6407 2.84174 19.6086 2.68168 19.5446 2.56163C19.4806 2.44158 19.3846 2.2255 19.3285 2.09745C19.2725 1.9614 19.2005 1.80133 19.1605 1.73731C19.1205 1.67328 19.0404 1.50522 18.9764 1.36916C18.8564 1.09706 18.072 0.376778 17.896 0.376778C17.84 0.376778 17.6719 0.30475 17.5358 0.216715C17.1677 -0.00737211 16.0953 -0.0794002 15.7672 0.104672ZM12.766 6.81129C12.766 6.82729 12.71 6.86731 12.6379 6.89132C12.5739 6.91533 12.5419 6.90732 12.5659 6.85931C12.6139 6.77927 12.766 6.74726 12.766 6.81129ZM19.4886 19.7843C19.5206 20.0725 19.4886 20.1285 19.2165 20.2965C19.0724 20.3926 18.9284 20.4646 18.9044 20.4646C18.8243 20.4646 19.0804 19.8004 19.2245 19.6483C19.3686 19.4882 19.4646 19.5362 19.4886 19.7843ZM2.73007 25.5386C2.8021 25.9547 2.73007 26.0668 2.57801 25.7707C2.44996 25.5306 2.46597 25.2665 2.61002 25.2665C2.64203 25.2665 2.69806 25.3945 2.73007 25.5386ZM5.21904 29.6842C5.19503 29.7482 5.17102 29.7242 5.17102 29.6362C5.16302 29.5481 5.18703 29.5001 5.21104 29.5321C5.23505 29.5562 5.24305 29.6282 5.21904 29.6842ZM15.1429 35.3264C15.295 36.2308 15.0869 38.0795 14.7988 38.3996C14.7187 38.4876 14.5667 38.5517 14.4466 38.5517C14.3106 38.5517 14.1825 38.6157 14.1025 38.7277C13.9825 38.9118 13.9825 38.9118 13.8624 38.7517C13.7504 38.6077 13.7664 38.5677 14.0145 38.2956C14.1745 38.1115 14.3346 37.8154 14.4146 37.5353C14.4786 37.2792 14.6067 36.847 14.6867 36.5829C14.7668 36.3108 14.8628 35.8386 14.8948 35.5185C14.9188 35.2064 14.9748 34.9503 15.0149 34.9503C15.0469 34.9503 15.1029 35.1183 15.1429 35.3264ZM12.4058 41.7849C12.3738 41.945 12.3178 42.073 12.2778 42.073C12.1738 42.073 12.1898 41.6409 12.3018 41.5288C12.4379 41.3928 12.4619 41.4568 12.4058 41.7849ZM11.6455 42.8173C11.7976 43.0894 11.9337 43.3535 11.9497 43.4096C11.9657 43.4576 11.8456 43.7857 11.6936 44.1298C11.5415 44.474 11.3574 44.9622 11.2774 45.2183C11.1413 45.6744 11.0053 45.8825 11.0053 45.6344C11.0053 45.5704 10.9093 45.3303 10.7892 45.1062C10.5491 44.634 10.5171 44.0738 10.7172 43.6817C10.7892 43.5536 10.8452 43.3295 10.8452 43.1935C10.8452 42.9694 11.1974 42.3131 11.3174 42.3131C11.3414 42.3131 11.4935 42.5372 11.6455 42.8173Z" fill="black"/>
<path d="M34.9433 0.120454C34.8953 0.208489 34.8233 0.424573 34.7913 0.592639C34.7352 0.864745 34.7032 0.896757 34.5112 0.872748C34.3191 0.856741 34.2711 0.896757 34.127 1.23289C33.6708 2.2813 33.5988 7.06716 34.015 8.01953L34.159 8.33966L34.2631 8.09957C34.3671 7.86747 34.3671 7.86747 34.3671 8.05955C34.3751 8.42769 34.215 9.37206 34.135 9.45209C34.087 9.50011 34.055 9.87626 34.047 10.3004C34.047 10.7166 34.015 11.2208 33.991 11.4209C33.9349 11.757 33.9109 11.789 33.5108 11.9811C33.1186 12.1652 33.0626 12.2292 32.7985 12.7734C32.5424 13.3016 32.5184 13.4056 32.5584 13.8378C32.5984 14.326 32.7505 14.6701 33.2947 15.5585C33.5668 16.0147 33.6228 16.0627 33.8629 16.0627C34.167 16.0627 34.4791 16.3428 34.6712 16.783C34.8393 17.1751 35.0073 17.3432 35.2314 17.3432C35.3675 17.3432 35.4875 17.4552 35.6956 17.7833C35.9757 18.2075 36.2398 18.3596 36.3199 18.1195C36.3359 18.0635 36.4319 18.1195 36.568 18.2795C36.704 18.4396 36.8561 18.5356 36.9601 18.5276C37.0561 18.5196 37.3363 18.6557 37.5764 18.8237C38.2566 19.2879 38.2486 19.2879 39.257 18.9358C40.3694 18.5516 40.5295 18.4476 41.1698 17.7833C41.4499 17.4952 41.69 17.2631 41.698 17.2791C41.714 17.2952 41.89 17.6473 42.0981 18.0635L42.4823 18.8237L42.3942 19.3439C42.3142 19.8081 42.3222 19.8882 42.4583 20.1122C42.5463 20.2483 42.5943 20.3844 42.5623 20.4164C42.5303 20.4404 42.6103 20.5684 42.7304 20.6965C42.8584 20.8245 42.9304 20.9686 42.9064 21.0086C42.8264 21.1447 42.9384 21.3287 43.2105 21.4888C43.4907 21.6569 43.5467 21.953 43.3546 22.2891C43.2826 22.4091 43.2666 22.5932 43.2986 22.8173C43.3786 23.3055 43.2506 23.3375 42.7384 22.9534C42.2502 22.5852 42.1061 22.5532 41.9701 22.7933C41.858 23.0174 41.922 23.3375 42.2102 23.9457C42.5063 24.554 42.5063 24.57 42.3782 25.1302C42.2902 25.5064 42.2262 25.6184 42.0341 25.7144C41.786 25.8505 41.5779 26.2506 41.5779 26.6108C41.5779 26.9389 41.2738 27.5952 41.0417 27.7872C40.8816 27.9233 40.8256 28.0674 40.7536 28.6036C40.6736 29.2118 40.6495 29.2838 40.2814 29.708C39.7612 30.3162 39.4811 30.8204 39.4571 31.1726C39.4411 31.3326 39.361 31.6848 39.265 31.9409C39.169 32.205 39.0969 32.5811 39.0969 32.7892C39.0969 32.9973 39.0409 33.3254 38.9769 33.5095C38.6968 34.3098 38.9529 34.6699 39.5691 34.3498C39.7932 34.2378 39.8012 34.2458 39.8412 34.4538C40.0013 35.2542 39.9933 35.6863 39.8172 36.3506C39.6492 36.9908 39.6252 37.0228 39.4491 36.9828C39.297 36.9428 39.241 36.9748 39.193 37.1189C39.137 37.2709 39.0569 37.303 38.6728 37.319C38.3687 37.335 38.0725 37.423 37.7604 37.5831C37.2642 37.8312 37.0241 38.0552 36.632 38.6395C36.4959 38.8396 36.2959 39.0636 36.1838 39.1437C35.9117 39.3197 35.9197 39.4318 36.1998 39.4318C36.4399 39.4318 36.76 39.2557 37.1762 38.8716C37.8965 38.2313 38.6168 38.1673 38.6168 38.7435C38.6168 38.8716 38.6888 39.0556 38.7768 39.1517C38.9129 39.2957 38.9289 39.3678 38.8569 39.5438C38.8168 39.6639 38.7368 40.7283 38.6968 41.8967C38.6168 44.1376 38.5927 44.3537 38.4087 44.4257C38.2726 44.4818 38.2646 44.7699 38.4007 44.8179C38.5287 44.8659 37.7044 45.7222 37.3363 45.9143C37.1842 45.9943 36.9681 46.1544 36.8641 46.2664C36.752 46.3785 36.632 46.4745 36.592 46.4745C36.5439 46.4745 36.3919 46.5626 36.2478 46.6746C36.1038 46.7866 35.9597 46.8747 35.9197 46.8747C35.8877 46.8747 35.6076 46.9787 35.3035 47.0988C34.6152 47.3789 34.3991 47.627 34.5032 48.0111C34.5912 48.3152 34.7512 48.3793 35.4955 48.3873C36.1358 48.3953 36.744 48.2512 37.7124 47.8831C38.3847 47.619 38.5287 47.595 39.313 47.587C40.7376 47.571 40.7856 47.5389 40.8656 46.4825C40.8976 46.0344 40.9697 45.4741 41.0257 45.242C41.0897 44.9459 41.0897 44.7699 41.0337 44.6658C40.9857 44.5698 40.9777 44.3857 41.0177 44.1936C41.1057 43.7375 41.1618 43.6174 41.3778 43.4814C41.5059 43.3933 41.5939 43.2173 41.6659 42.9131C41.722 42.649 41.906 42.2489 42.1061 41.9528C42.3222 41.6086 42.4903 41.2405 42.5783 40.8563C42.7224 40.2721 42.9865 39.5838 43.0985 39.5118C43.2105 39.4398 43.2105 39.0076 43.1065 38.6315C43.0505 38.4314 43.0025 38.2633 43.0105 38.2473C43.0185 38.2393 42.9705 38.1273 42.9064 37.9992C42.7864 37.7831 42.8024 37.7191 43.1465 36.8628C43.7147 35.4542 43.6667 35.5183 44.0829 35.6143C44.411 35.6863 44.443 35.7183 44.5551 36.0625C44.6991 36.5266 44.8672 36.5427 45.0032 36.0945C45.1073 35.7664 45.1153 35.7664 45.5875 35.7103C45.8516 35.6783 46.0917 35.6703 46.1077 35.6943C46.1317 35.7183 46.2037 35.9664 46.2677 36.2545C46.4038 36.8308 46.5639 37.1189 46.6839 36.9908C46.7719 36.9108 46.956 35.5983 46.892 35.5022C46.876 35.4782 47.004 35.3982 47.1801 35.3262C47.5402 35.1901 47.5402 35.1901 47.6203 35.6303C47.7483 36.3186 47.9084 36.3586 48.1725 35.7664L48.3085 35.4702L48.8848 35.4622C49.589 35.4542 50.3253 35.2702 51.0456 34.918L51.5898 34.6539L51.7339 34.862C52.3501 35.7583 52.9664 37.2709 53.1824 38.3914C53.2545 38.7755 53.2465 38.8235 53.1024 38.9276C53.0064 38.9996 52.9423 39.1277 52.9423 39.2797C52.9423 39.4718 52.8943 39.5358 52.7023 39.5998C52.4862 39.6799 52.4622 39.7199 52.4622 40.04C52.4622 40.2321 52.5022 40.3922 52.5422 40.3922C52.5902 40.3922 52.6222 40.4802 52.6222 40.5842C52.6222 40.6963 52.6622 40.8083 52.7023 40.8323C52.7503 40.8563 52.7823 41.0964 52.7823 41.3525C52.7823 41.6086 52.8223 41.9208 52.8703 42.0488C53.0864 42.617 53.4385 44.0976 53.5106 44.7138C53.5506 45.09 53.6386 45.5302 53.7026 45.6982C53.7667 45.8583 53.8227 46.1464 53.8227 46.3305C53.8227 46.5145 53.8947 46.7626 53.9828 46.9147C54.1108 47.1228 54.1268 47.2268 54.0708 47.3789C54.0308 47.4909 54.0148 47.603 54.0388 47.627C54.0628 47.651 53.9908 47.763 53.8787 47.8671C53.6146 48.1152 53.5906 48.5153 53.8227 48.7154C53.9667 48.8435 53.9908 48.9955 54.0468 50.0839L54.1028 51.3164L54.4069 51.4605C54.567 51.5405 55.0071 51.6365 55.3833 51.6686C56.0155 51.7326 56.0876 51.7566 56.4237 52.0447C57.3441 52.821 57.7922 52.9971 58.9447 52.9971C59.8891 52.9971 60.2012 52.885 60.2732 52.5169C60.3452 52.1087 60.1452 51.8206 59.5849 51.5245C59.1047 51.2684 58.8086 51.0363 58.1044 50.332C57.9123 50.148 57.7282 49.9959 57.6802 49.9959C57.6402 49.9959 57.4401 49.7158 57.24 49.3717C56.9199 48.8354 56.8639 48.6754 56.8639 48.3072C56.8639 48.0671 56.8399 47.1468 56.8159 46.2504C56.7838 45.034 56.8079 44.4497 56.8959 43.9295C57.168 42.3049 57.208 41.7687 57.112 41.1925C56.9679 40.3121 56.9919 39.7999 57.192 39.6239C57.304 39.5198 57.3441 39.4078 57.3281 39.2557C57.296 39.0716 57.3281 39.0236 57.5121 38.9596C57.8643 38.8396 58.2164 38.9836 58.7446 39.4718C59.0327 39.7359 59.3208 39.928 59.4809 39.96C59.8971 40.04 59.9531 39.928 59.641 39.5998C59.4889 39.4398 59.2888 39.1677 59.2008 38.9836C59.1047 38.8075 58.9047 38.5434 58.7366 38.3994C58.4005 38.1033 57.4401 37.6151 57.12 37.5751C56.9519 37.5591 56.8959 37.503 56.8799 37.335C56.8639 37.2149 56.7518 37.0308 56.6238 36.9268C56.4317 36.7587 56.3757 36.6227 56.2716 35.9984C56.1996 35.5983 56.1436 35.1421 56.1436 34.99C56.1436 34.7259 56.1516 34.7179 56.3517 34.79C56.6318 34.902 57.072 34.886 57.168 34.774C57.4161 34.4618 56.7598 31.4687 56.2156 30.4603C56.1676 30.3562 56.1196 30.1482 56.1116 29.9801C56.0956 29.66 55.8635 29.2758 55.3273 28.6676C55.1352 28.4515 55.0392 28.2754 55.0712 28.1954C55.1592 27.9633 55.0152 27.6512 54.655 27.2991C54.3909 27.0349 54.3029 26.8909 54.3029 26.7068C54.3029 26.3867 54.1268 25.9785 53.7987 25.5144C53.6466 25.3143 53.4706 24.9701 53.3985 24.7541C53.2865 24.4259 53.2785 24.3379 53.3745 24.1538C53.4385 24.0418 53.5506 23.7217 53.6226 23.4415C53.7747 22.9133 53.7106 22.5452 53.4786 22.5452C53.4225 22.5452 53.1824 22.7453 52.9423 22.9854C52.4782 23.4576 52.3821 23.5056 52.3821 23.2815C52.3821 23.2015 52.3261 23.0574 52.2541 22.9614C52.182 22.8573 52.15 22.7293 52.174 22.6652C52.1981 22.6012 52.182 22.5292 52.142 22.5052C52.094 22.4732 52.062 22.3931 52.062 22.3211C52.062 22.1771 52.6302 21.8809 54.2148 21.2167C54.7911 20.9686 55.1672 20.7685 55.2392 20.6485C55.4793 20.2803 55.6794 19.0478 55.6314 18.2395C55.5994 17.6473 55.6074 17.5032 55.6954 17.5032C55.7835 17.5032 55.7915 17.4392 55.7434 17.2311C55.6874 16.983 55.7034 16.951 55.8555 16.927C56.0636 16.895 56.1276 16.4548 55.9595 16.1987C55.8475 16.0227 55.6954 14.7021 55.7915 14.7021C55.8155 14.7021 55.9435 14.7902 56.0796 14.9022C56.3917 15.1663 56.7998 15.1743 57.064 14.9022C57.176 14.7982 57.264 14.6301 57.264 14.5341C57.264 14.1659 56.6798 13.1815 56.4637 13.1815C56.4317 13.1815 56.2716 13.0135 56.1196 12.7974L55.8395 12.4213L56.1116 11.861C56.4237 11.2128 56.4637 10.7806 56.2316 10.5485C56.0556 10.3725 55.3433 10.2604 54.8391 10.3244C54.4389 10.3805 53.9988 10.2044 53.5666 9.83624C53.3185 9.61216 53.2785 9.52412 53.2305 9.07595C53.1824 8.56375 52.9343 7.85147 52.7023 7.53134C52.6382 7.44331 52.4862 7.29925 52.3661 7.22723C52.2381 7.14719 52.142 7.01114 52.142 6.93111C52.142 6.85108 52.014 6.44292 51.8619 6.01075C51.7099 5.58659 51.6058 5.21044 51.6298 5.16242C51.6859 5.08239 51.3737 4.25006 51.2217 4.05799C51.1657 3.99396 51.1016 3.86591 51.0696 3.77788C50.9896 3.49777 50.3653 2.97757 49.9012 2.8015C48.8768 2.40134 48.2765 2.51339 47.6923 3.21766C47.5242 3.42574 47.2841 3.68985 47.1721 3.80989C46.972 4.00997 46.6759 4.72225 46.7559 4.81028C46.804 4.8503 46.5639 6.00275 46.4438 6.29886C46.3958 6.41091 46.3318 6.74704 46.2918 7.05916C46.2597 7.36328 46.1237 7.9315 45.9956 8.31565C45.8756 8.6998 45.8036 8.98791 45.8356 8.97191C45.8676 8.9479 45.8996 8.9639 45.8996 9.01192C45.8996 9.05994 45.8276 9.13197 45.7395 9.17999C45.6515 9.22801 45.5795 9.30003 45.5795 9.34805C45.5795 9.39607 45.6115 9.41208 45.6595 9.38006C45.6995 9.35606 45.6995 9.43609 45.6515 9.58014C45.5555 9.83624 45.2353 10.1484 44.8352 10.3484C44.6191 10.4605 44.6031 10.4605 44.6431 10.3564C44.6671 10.2844 44.7151 10.0203 44.7471 9.75621C44.7952 9.33205 44.7792 9.26002 44.6271 9.10796L44.459 8.93989L44.0749 9.13197C43.8588 9.23601 43.5547 9.4761 43.3866 9.66017C43.1385 9.93228 42.9625 10.0363 42.4262 10.2124C41.6739 10.4525 41.0257 10.8206 40.4335 11.3488C39.8652 11.845 39.7772 11.869 39.5931 11.5569C39.3771 11.1968 38.3046 9.07595 37.1922 6.81907C36.672 5.76265 35.9677 4.40212 35.6236 3.79389C35.2554 3.13763 35.0234 2.63343 35.0474 2.5534C35.0714 2.48137 35.1114 1.91315 35.1354 1.29691C35.1754 0.16047 35.1194 -0.207674 34.9433 0.120454ZM35.5756 4.99435C35.5756 5.05038 37.2722 8.4357 37.5924 9.01992C37.7524 9.30804 38.1766 10.1644 38.5447 10.9247L39.209 12.3092L39.0649 12.5493C38.8969 12.8294 38.9289 12.8934 39.345 13.1015C39.5371 13.2056 39.6732 13.3416 39.7052 13.4617C39.7692 13.7178 39.6091 14.1179 39.329 14.406C39.1049 14.6221 38.9529 15.1663 39.0009 15.5585C39.0089 15.6545 38.9849 15.7505 38.9369 15.7826C38.8969 15.8066 38.8569 15.8946 38.8569 15.9746C38.8569 16.0547 38.7848 16.1827 38.6968 16.2627C38.5527 16.3988 38.5367 16.3988 38.5367 16.2708C38.5367 16.1987 38.4487 16.0467 38.3366 15.9346C38.2246 15.8226 38.1526 15.7025 38.1766 15.6625C38.3126 15.4384 37.8084 15.1423 36.9601 14.9422C36.64 14.8702 36.5359 14.8142 36.5359 14.7021C36.5359 14.5101 36.2878 14.342 35.7756 14.1739C35.5596 14.1019 35.3675 14.0379 35.3595 14.0299C35.3435 14.0219 35.4075 13.8378 35.4875 13.6137C35.5676 13.3976 35.6636 13.0055 35.6956 12.7334C35.7596 12.1732 35.6556 12.0211 35.2074 12.0371C35.0554 12.0451 34.9193 12.0131 34.8953 11.9811C34.8713 11.9411 34.8873 11.5969 34.9353 11.2048C35.1034 9.86025 35.1194 9.58014 35.0394 9.48411C34.9993 9.42808 34.9673 9.26802 34.9753 9.13997C34.9833 9.00392 34.9993 8.73981 35.0073 8.54774C35.0154 8.21961 35.0234 8.20361 35.1274 8.33966C35.2314 8.48372 35.2474 8.47571 35.3755 8.1796C35.4475 8.00353 35.5276 7.62738 35.5436 7.33927C35.5916 6.78705 35.7116 6.37889 35.8237 6.37889C36.0157 6.37889 35.7436 5.46654 35.3595 4.77827C35.2955 4.66623 35.1914 4.45014 35.1194 4.29808C35.0073 4.04999 34.9833 4.03398 34.9353 4.17804C34.8953 4.29808 34.8713 4.25807 34.8313 4.01797C34.7112 3.28169 34.7833 3.3057 35.1754 4.13002C35.3995 4.5862 35.5756 4.97035 35.5756 4.99435ZM43.2826 17.7513C43.2986 18.5837 43.2906 18.6077 43.1465 18.4796C43.0665 18.4076 42.8024 17.9514 42.5703 17.4792L42.1301 16.6149L42.2742 16.3748C42.3542 16.2467 42.4583 16.1587 42.5143 16.1747C42.5703 16.1987 42.6743 16.1027 42.7464 15.9586L42.8824 15.7105L43.0745 16.3028C43.2186 16.7509 43.2666 17.0951 43.2826 17.7513Z" fill="black"/>
<path d="M72.1248 0.112709C72.0927 0.136719 71.8447 0.176734 71.5725 0.192741C71.0043 0.232756 70.7482 0.360806 70.5642 0.712943C70.4841 0.848996 70.3481 1.08109 70.244 1.24115C70.044 1.54527 69.7798 2.20152 69.7158 2.57767C69.6918 2.70572 69.5798 3.08187 69.4677 3.40199C69.3637 3.73012 69.2196 4.31435 69.1556 4.7145C69.0916 5.11466 68.9875 5.49081 68.9235 5.57084C68.8595 5.64287 68.7875 5.75491 68.7554 5.81893C68.7234 5.88296 68.7715 5.85095 68.8595 5.7389C69.0516 5.50681 69.0756 5.57084 68.9075 5.89096C68.8435 6.01901 68.8115 6.13906 68.8435 6.16307C68.8675 6.18708 68.8035 6.34714 68.6994 6.5072C68.5314 6.78731 68.5154 6.79531 68.4433 6.63525C68.4033 6.54722 68.2432 6.41117 68.0992 6.33914C67.8511 6.21909 67.8031 6.21909 67.547 6.34714C67.1068 6.55522 66.5866 7.05942 66.3865 7.47558C66.2345 7.7957 66.0984 7.92375 65.5702 8.25989C64.8819 8.69205 64.2657 9.34831 63.9456 9.98056C63.8415 10.1886 63.6495 10.4607 63.5214 10.5888C63.2253 10.8929 62.8091 11.9573 62.9372 12.0854C62.9932 12.1414 63.2573 12.1814 63.5934 12.1734L64.1457 12.1654L64.1056 12.4135C64.0816 12.5496 64.0256 12.9097 63.9776 13.2218C63.9376 13.5259 63.8415 13.8461 63.7695 13.9181C63.6735 14.0221 63.6575 14.1502 63.6975 14.4303C63.7455 14.8304 63.8575 15.0225 64.0336 15.0225C64.1136 15.0225 64.1296 15.0946 64.0896 15.2706C64.0656 15.4147 64.0816 15.5427 64.1296 15.5747C64.1857 15.6068 64.1937 15.7988 64.1457 16.183C64.1056 16.4951 64.0976 16.8232 64.1216 16.9273C64.1777 17.1754 64.0016 17.7836 63.8175 17.9517C63.7295 18.0237 63.6655 18.1437 63.6655 18.2238C63.6655 18.2958 63.5534 18.3918 63.3854 18.4559C63.0012 18.5919 62.9132 18.784 62.9772 19.3922C63.0572 20.1525 62.9132 20.9128 62.6491 21.1369C62.393 21.361 62.369 21.7291 62.585 22.1373C62.6571 22.2814 62.7291 22.5455 62.7451 22.7295C62.8652 23.986 62.8652 24.05 62.7371 24.0981C62.6651 24.1221 62.601 24.1461 62.585 24.1461C62.577 24.1461 62.545 24.002 62.513 23.818C62.473 23.5859 62.417 23.4738 62.3049 23.4498C62.1849 23.4178 62.1449 23.3378 62.1449 23.1537C62.1369 22.6735 61.5606 21.7531 61.3205 21.8492C61.0885 21.9372 61.0725 22.4254 61.2645 22.9536C61.4246 23.3618 61.4326 23.4578 61.3446 23.6259C61.2885 23.7379 61.2645 23.922 61.2885 24.058C61.3205 24.2181 61.2885 24.4182 61.1845 24.6423C61.0965 24.8343 61.0244 25.1465 61.0244 25.3385C61.0244 25.6827 61.0244 25.6827 60.8484 25.5546C60.3762 25.2265 60.3522 25.2265 60.4082 25.5386C60.4322 25.6987 60.5282 25.9308 60.6083 26.0508C60.8003 26.3149 61.4166 27.7555 61.6647 28.5078C61.9608 29.4121 62.433 30.2845 62.8972 30.7567C63.5294 31.4129 63.8015 31.3169 64.0736 30.3325C64.3137 29.4682 64.2817 29.068 63.9296 28.5558C63.7695 28.3237 63.6254 28.1556 63.6174 28.1957C63.6094 28.2357 63.5774 28.3637 63.5534 28.4838C63.4814 28.7959 63.4014 28.7639 63.2493 28.3557L63.1213 28.0036L63.6094 28.0436C63.8815 28.0596 64.3297 28.1076 64.6018 28.1556C65.154 28.2357 65.4502 28.1716 65.5782 27.9155C65.7143 27.6755 65.6823 27.4434 65.5062 27.2673C65.3061 27.0672 65.2101 26.8271 65.05 26.1869C64.994 25.9228 64.8579 25.5626 64.7539 25.3866C64.5938 25.1225 64.5698 25.0024 64.6258 24.7063C64.6579 24.5062 64.7459 24.2181 64.8259 24.066C65.09 23.5699 65.106 23.5138 65.106 23.2657C65.106 22.9856 65.3541 22.4574 65.5862 22.2253C65.6742 22.1373 65.7463 22.0012 65.7463 21.9212C65.7463 21.8412 65.8023 21.7051 65.8663 21.6091C65.9384 21.5051 65.9864 21.297 65.9704 21.1289C65.9624 20.9608 66.0344 20.4486 66.1304 19.9845C66.2265 19.5203 66.3465 18.9441 66.3865 18.696C66.4425 18.4238 66.6106 18.0157 66.8187 17.6636C67.0108 17.3514 67.2349 16.8953 67.3149 16.6552C67.3949 16.4151 67.491 16.223 67.523 16.223C67.555 16.223 67.643 16.343 67.715 16.4791C67.7871 16.6231 68.0352 17.0313 68.2513 17.3754C68.5554 17.8396 68.6754 18.1197 68.7154 18.4399C68.7474 18.6799 68.8435 18.9681 68.9235 19.0801C69.4437 19.8164 69.4517 20.0725 69.0035 20.6887C68.8515 20.8968 68.5714 21.353 68.3873 21.6971C68.0352 22.3694 68.0352 22.4014 68.1472 23.7459C68.1552 23.8099 68.1232 24.3462 68.0752 24.9304C67.9952 25.8908 67.9551 26.0588 67.699 26.611C67.2749 27.5074 67.2589 27.5634 67.1788 28.3477C67.1308 28.8199 67.1308 29.2761 67.1868 29.6842C67.2669 30.2765 67.2589 30.3485 66.9788 31.4289C66.6426 32.6934 66.6346 32.6374 67.2509 32.7975C67.4509 32.8535 67.627 32.9575 67.683 33.0536C67.8991 33.4617 67.547 34.9983 66.8987 36.4549C66.6586 37.0071 65.8503 38.0795 65.7223 38.0315C65.5942 37.9835 65.4902 38.0635 65.3381 38.3436C65.2181 38.5597 65.098 38.6237 64.8099 38.6477C64.7539 38.6557 64.7059 38.6958 64.7059 38.7358C64.7059 38.7758 64.6338 38.9038 64.5538 39.0239C64.4098 39.224 64.4098 39.264 64.5058 39.456C64.6098 39.6561 64.5858 39.7282 64.2097 40.5285L63.8015 41.3928L63.7855 42.6333C63.7695 44.394 63.6815 45.5704 63.4894 46.6829L63.3213 47.6592L62.9692 47.8353C62.7771 47.9314 62.6331 48.0274 62.6571 48.0514C62.6731 48.0754 62.6411 48.2355 62.577 48.4195C62.473 48.7157 62.473 48.7637 62.577 48.8437C62.8251 49.0198 62.8652 49.3319 62.7851 50.3003C62.7371 50.8125 62.6731 51.4287 62.6411 51.6528C62.601 51.8849 62.593 52.109 62.6171 52.141C62.7291 52.3091 64.7779 53.2214 65.2101 53.2934C65.8103 53.3975 67.3629 53.2454 67.707 53.0453C67.9151 52.9333 67.9471 52.8533 67.9711 52.5331C67.9871 52.261 67.9471 52.077 67.8351 51.8929C67.659 51.6048 66.3305 50.2923 65.9143 50.0042C65.6662 49.8281 65.6502 49.7881 65.6983 49.484C65.7303 49.2999 65.8183 49.0998 65.9143 49.0358C66.0264 48.9397 66.0904 48.7637 66.1464 48.3555C66.2345 47.6272 67.2269 45.0022 68.0272 43.3776C68.3633 42.7133 68.6674 41.977 68.7074 41.7449C68.8515 40.9766 69.5237 40.0883 70.1 39.9122C70.284 39.8482 70.4521 39.7282 70.5321 39.5921C70.6442 39.392 70.7002 39.368 71.0283 39.384C71.5005 39.408 71.7406 39.5441 72.4689 40.1923C72.797 40.4885 73.1652 40.7446 73.2852 40.7686C73.4053 40.7926 73.5573 40.8966 73.6293 41.0007C73.8214 41.2968 74.3656 42.8814 74.4297 43.3216C74.4937 43.7857 74.7738 44.8021 74.8698 44.9062C74.9018 44.9382 74.9018 45.0742 74.8698 45.1943C74.8298 45.3223 74.8218 45.4424 74.8458 45.4664C74.8698 45.4904 74.8538 45.5544 74.8138 45.6104C74.6938 45.7545 74.6137 46.2907 74.6938 46.3467C74.7338 46.3707 74.7498 46.5628 74.7338 46.7709C74.6778 47.3391 74.8458 48.5556 74.9979 48.7237C75.182 48.9317 75.7422 48.9878 76.4144 48.8757C77.5109 48.6917 77.911 48.6917 78.8154 48.8677C79.4076 48.9798 79.9918 49.0358 80.6801 49.0358C81.5845 49.0358 81.6885 49.0198 81.8406 48.8677C81.9686 48.7397 82.0006 48.6436 81.9606 48.4516C81.9366 48.3235 81.8726 48.1714 81.8325 48.1154C81.7925 48.0594 81.3684 47.9153 80.8962 47.7953C80.416 47.6753 79.9838 47.5312 79.9198 47.4832C79.7998 47.3871 79.3516 47.147 78.7914 46.8669C78.0151 46.4908 77.5029 45.9146 77.6629 45.6104C77.7189 45.5144 77.6869 45.3223 77.5749 44.9942C77.4308 44.562 77.4148 44.402 77.4628 43.3936C77.4949 42.7773 77.5349 42.1611 77.5589 42.0331C77.5829 41.897 77.6309 41.2648 77.6549 40.6165C77.6869 39.9042 77.751 39.4 77.799 39.344C77.935 39.216 78.1431 39.304 78.5433 39.6721C78.8954 39.9923 79.1115 40.0403 79.1115 39.7922C79.1115 39.6161 78.8314 39.0879 78.6713 38.9519C78.4392 38.7598 78.3912 38.5917 78.4792 38.2716C78.5273 38.1035 78.6153 37.9114 78.6793 37.8554C78.7433 37.7914 78.7914 37.6714 78.7914 37.5833C78.7914 37.2472 79.5036 37.4473 80.6641 38.1275C80.8562 38.2396 81.3203 38.2636 81.3844 38.1675C81.4084 38.1275 81.1443 37.8554 80.8081 37.5593C80.2319 37.0391 79.2555 36.4709 78.9354 36.4709C78.8634 36.4709 78.7754 36.4309 78.7513 36.3909C78.7273 36.3428 78.5993 36.3108 78.4712 36.3108C78.2872 36.3108 78.2311 36.2628 78.1591 36.0547C78.0871 35.8626 78.0471 35.8226 77.975 35.8947C77.7189 36.1508 77.7029 35.9027 77.895 34.8463C77.975 34.4221 78.1511 34.15 78.1511 34.4621C78.1511 34.8222 78.2952 34.5421 78.3272 34.11C78.3512 33.8138 78.4232 33.5898 78.5353 33.4457C79.1595 32.6694 79.2715 32.3733 79.2715 31.4689C79.2715 31.0768 79.3116 30.7807 79.3676 30.7246C79.4716 30.6206 79.4796 29.9163 79.3916 28.3237C79.3356 27.3873 79.3436 27.2673 79.4636 27.2673C79.5997 27.2673 79.6397 27.3953 79.7037 28.0436C79.7597 28.6038 79.9678 28.98 80.536 29.5322C81.0322 30.0284 81.2243 30.0364 80.9762 29.5642C80.8962 29.4201 80.7441 29.132 80.6401 28.9319C80.464 28.5958 80.456 28.5478 80.5601 28.3157C80.6321 28.1636 80.7281 28.0676 80.8242 28.0676C80.9122 28.0676 81.0963 28.0276 81.2323 27.9796C81.6885 27.8115 83.5132 28.3557 84.2335 28.8679C84.4416 29.012 84.5136 29.028 84.7697 28.956C84.9378 28.9079 85.1859 28.8679 85.3299 28.8679C85.6901 28.8679 86.4584 29.124 86.8505 29.3721C87.1546 29.5642 87.2907 29.5962 88.051 29.6202C89.3635 29.6762 91.6764 30.1324 92.5167 30.5086C92.7408 30.6046 93.165 30.7086 93.4691 30.7326C93.7732 30.7647 94.1734 30.8607 94.3654 30.9487C94.6135 31.0768 95.2138 31.1808 96.6143 31.3489C98.6951 31.613 99.9996 31.717 99.9996 31.645C99.9996 31.533 99.1673 31.1888 97.5987 30.6366C96.6943 30.3165 95.766 29.9884 95.5339 29.9083C95.2938 29.8203 94.9257 29.7483 94.7016 29.7483C94.4775 29.7483 94.0933 29.6682 93.8132 29.5562C93.5331 29.4521 93.0529 29.3481 92.7168 29.3161C91.6844 29.2361 89.0754 28.4998 88.195 28.0436C87.9389 27.9075 87.7228 27.8755 87.0746 27.8675C86.2263 27.8675 85.6901 27.6995 85.2979 27.3313C85.1378 27.1873 85.0338 27.1713 84.2895 27.1793C83.2331 27.2033 81.7445 26.8911 81.5124 26.611C81.1843 26.2189 81.4244 25.8587 82.2647 25.4746C82.6649 25.2905 82.937 25.0664 82.8569 24.9784C82.8329 24.9624 82.5048 25.0184 82.1207 25.1145C81.3284 25.3145 80.6481 25.6907 80.2559 26.1389C79.9438 26.515 79.7277 26.587 79.5437 26.379C79.4316 26.2509 79.4236 26.1869 79.4956 26.0188C79.6877 25.6187 79.5437 24.5062 79.2395 24.026C79.0795 23.7699 78.9354 22.4654 78.9914 21.8412C79.0475 21.337 79.0315 21.265 78.8794 21.1129C78.7273 20.9608 78.7113 20.8488 78.7033 20.1365C78.7033 19.5763 78.6473 19.1761 78.5433 18.848C78.4632 18.5919 78.3752 18.1918 78.3432 17.9597C78.3112 17.7276 78.2311 17.4315 78.1671 17.3034C78.1031 17.1674 77.975 16.7432 77.895 16.359C77.759 15.6708 77.759 15.6468 77.903 15.5187C78.0871 15.3507 78.2712 14.7664 78.2071 14.5343C78.1831 14.4383 78.2151 14.1102 78.2712 13.806C78.3352 13.5019 78.3912 13.0698 78.3912 12.8457C78.3912 12.4455 78.3912 12.4375 78.5513 12.5816C78.6873 12.7016 78.7353 12.7096 78.9514 12.6216C79.3516 12.4535 79.4316 12.2775 79.3116 11.8293C79.1995 11.3971 79.0715 11.133 78.9274 11.045C78.6793 10.8849 78.6313 10.5648 78.7513 9.91653C78.9594 8.83611 78.8874 8.06781 78.5593 7.93176C78.4872 7.90775 78.1271 7.85973 77.751 7.82772L77.0787 7.7797L77.0547 7.05942C77.0227 6.18708 76.9426 5.89096 76.6385 5.40277C76.3264 4.91458 76.0543 4.73851 75.6221 4.76252L75.27 4.77853L75.286 4.47441C75.302 4.02624 75.23 3.65809 74.9899 3.07386C74.8778 2.78575 74.7658 2.48163 74.7498 2.4016C74.6858 2.08948 74.5097 1.68132 74.3336 1.44123C74.2296 1.30517 74.1496 1.15312 74.1496 1.1131C74.1496 1.02507 73.4373 0.352803 73.2212 0.240759C73.0371 0.136719 72.1888 0.0406813 72.1248 0.112709ZM78.1031 18.2158C78.0391 18.2878 77.927 18.1197 77.967 18.0077C78.0151 17.8876 78.0231 17.8956 78.0711 18.0317C78.1031 18.1117 78.1191 18.1998 78.1031 18.2158ZM73.5093 33.7818L73.8694 33.9499L74.0055 34.6302C74.3176 36.1588 74.2696 37.1351 73.8614 37.5193C73.7574 37.6153 73.6694 37.7514 73.6694 37.8154C73.6694 37.8794 73.5973 38.0235 73.5093 38.1515C73.3252 38.4156 73.2772 39.0639 73.4213 39.416C73.4773 39.5441 73.5093 39.8242 73.4933 40.0403L73.4693 40.4324L72.9891 39.7202C72.5729 39.0959 71.7166 38.2316 71.5165 38.2316C71.4845 38.2316 71.4125 38.1435 71.3645 38.0315C71.3084 37.9195 71.1804 37.7914 71.0684 37.7514C70.9563 37.7114 70.8603 37.6233 70.8603 37.5513C70.8123 36.9511 70.8203 36.9111 71.1164 36.5909C71.5966 36.0707 72.789 33.9339 72.789 33.5898C72.789 33.4857 72.9891 33.5337 73.5093 33.7818Z" fill="black"/>
<path d="M68.5462 6.13877C68.4982 6.2268 68.4822 6.29883 68.4982 6.29883C68.5222 6.29883 68.5782 6.2268 68.6262 6.13877C68.6743 6.05073 68.6903 5.9787 68.6743 5.9787C68.6502 5.9787 68.5942 6.05073 68.5462 6.13877Z" fill="black"/>
<path d="M68.6112 6.33935C68.4112 6.61146 68.4352 6.68348 68.6353 6.42738C68.7313 6.30734 68.7953 6.19529 68.7793 6.17929C68.7633 6.17128 68.6833 6.23531 68.6112 6.33935Z" fill="black"/>
</svg>
