<svg width="100" height="54" viewBox="0 0 100 54" fill="none" xmlns="http://www.w3.org/2000/svg">
<path d="M84.2327 0.104848C84.5929 0.304937 84.897 0.609071 85.2171 1.09729C85.3692 1.33739 85.5692 1.59351 85.6493 1.65753C85.7213 1.72156 85.8093 1.86563 85.8253 1.97768C85.8414 2.08973 85.8654 2.17777 85.8734 2.17777C85.8814 2.17777 85.9374 2.44989 85.9934 2.77803C86.0975 3.37029 86.2495 4.0746 86.4256 4.77892C86.4736 4.979 86.5296 5.22711 86.5456 5.33916C86.5776 5.47522 86.7217 5.61929 87.0098 5.79536C87.2419 5.93143 87.562 6.16353 87.7141 6.29959C87.9222 6.47567 87.8582 6.45166 87.474 6.19554C86.7297 5.69132 86.6257 5.66731 86.8818 6.05948C87.0018 6.23556 87.1299 6.37962 87.1699 6.37962C87.2099 6.37962 87.458 6.49968 87.7061 6.65174L88.1703 6.92386L88.2663 6.65975C88.3143 6.51568 88.4504 6.36362 88.5704 6.30759C88.7545 6.21955 88.8425 6.24356 89.2667 6.45966C89.8029 6.73978 90.1551 7.03591 90.3151 7.34005C90.3952 7.49212 90.5712 7.59616 91.0114 7.73222C91.8838 8.01235 92.476 8.27646 93.0282 8.61261C93.2923 8.78069 93.6765 9.00478 93.8766 9.11683C94.0766 9.22888 94.4448 9.54102 94.7009 9.80514C95.3011 10.4374 95.3171 10.7816 94.7729 11.3578C94.5808 11.5659 94.5808 11.5899 94.7009 11.726C94.965 12.0221 95.093 12.4863 95.085 13.1266C95.085 13.6148 95.117 13.8309 95.2451 14.079C95.3411 14.2631 95.4692 14.5913 95.5332 14.8154C95.6853 15.3356 96.1255 16.1439 96.2535 16.1439C96.3095 16.1439 96.4056 16.248 96.4776 16.384C96.6216 16.6562 96.6216 16.6562 96.8377 16.5281C97.0938 16.368 97.2619 16.5361 97.414 17.1284C97.486 17.4165 97.6381 17.9287 97.7501 18.2649C97.8621 18.609 97.9582 18.9372 97.9582 18.9932C97.9582 19.0892 97.9902 19.0892 98.1262 19.0252C98.2463 18.9532 98.3183 18.9612 98.4144 19.0332C98.5104 19.1213 98.5264 19.2333 98.4864 19.6015C98.4464 19.9136 98.4704 20.2177 98.5504 20.5299C98.6224 20.778 98.7105 21.1942 98.7585 21.4423C98.8465 21.8745 98.8625 21.9065 99.0786 21.9065C99.3107 21.9065 99.3988 22.0265 99.3988 22.3547C99.3988 22.4587 99.4308 22.6108 99.4708 22.6908C99.5828 22.8989 99.943 23.9234 99.991 24.1475C100.055 24.4676 99.7669 25.436 99.4708 25.8682C98.7985 26.8527 98.8465 26.8127 98.3824 26.7566L97.9662 26.7086L97.8381 27.1488C97.7741 27.3889 97.614 27.7091 97.486 27.8451C97.0538 28.3493 96.6297 29.3578 96.7577 29.5979C96.8057 29.6699 96.8537 29.9821 96.8697 30.2862C96.9018 30.7664 96.8858 30.8865 96.7097 31.1826C96.6056 31.3747 96.5176 31.6228 96.5176 31.7428C96.5256 31.9429 96.5256 31.9429 96.6457 31.7909C96.8057 31.5748 96.9738 30.9665 97.0778 30.2302C97.1419 29.766 97.2059 29.5979 97.3419 29.4938C97.438 29.4138 97.558 29.3498 97.614 29.3498C97.9022 29.3498 97.7661 31.5427 97.39 33.0874C97.1819 33.9278 96.6136 35.3684 96.3095 35.8246C96.0294 36.2488 95.7973 36.3129 95.3571 36.0728C95.053 35.9047 94.989 35.8967 94.7649 35.9847C94.6289 36.0407 94.3888 36.2488 94.2367 36.4409C93.9486 36.7931 93.7165 36.8971 93.7165 36.681C93.7165 36.617 93.9726 35.9927 94.2847 35.2964C94.5968 34.6001 94.925 33.8718 95.013 33.6797L95.1651 33.3195L95.3011 33.5917C95.5812 34.1439 95.7173 33.9438 95.7173 32.9674C95.7173 32.6312 95.6853 32.3911 95.6373 32.3911C95.5892 32.3911 95.5172 32.3031 95.4772 32.191C95.3892 31.9589 95.3411 31.9509 95.117 32.111C94.973 32.2231 94.957 32.207 94.8529 31.8549C94.6849 31.2546 94.6609 30.9905 94.6449 29.7099C94.6369 28.5254 94.6449 28.5014 94.877 28.0372C95.1331 27.525 95.3331 27.3329 95.4692 27.4689C95.5172 27.517 95.5812 27.8211 95.6052 28.1412C95.6453 28.5494 95.7093 28.7815 95.8053 28.8776C95.9414 29.0136 95.9494 29.0136 96.0694 28.8376C96.2935 28.4854 96.5976 27.669 96.5976 27.4129C96.5976 27.2609 96.6857 27.0207 96.7977 26.8527C97.0378 26.5005 97.0378 26.5005 96.8537 26.4525C96.5656 26.3725 96.5176 25.9163 96.7257 25.1079C96.8377 24.7077 96.9738 24.2755 97.0378 24.1475C97.3259 23.5872 97.0618 22.4507 96.6216 22.3547C96.3255 22.2827 96.0134 21.8184 96.1094 21.5783C96.2535 21.1862 95.7813 20.3298 95.3972 20.2898C95.2931 20.2738 95.101 20.1537 94.981 20.0177C94.7889 19.8016 94.7649 19.7295 94.8289 19.5615C94.885 19.4094 94.8609 19.2573 94.7169 18.8972C94.6048 18.633 94.5168 18.3609 94.5168 18.2729C94.5168 18.1928 94.3327 17.7927 94.1086 17.3925C93.7245 16.7042 93.6765 16.6482 93.2363 16.4401C92.6841 16.176 91.7557 15.3436 91.3956 14.7833C91.2515 14.5592 91.1235 14.3912 91.0994 14.4072C91.0834 14.4232 91.0034 14.9034 90.9154 15.4716C90.8353 16.0399 90.6913 16.8242 90.5952 17.2244C90.4912 17.6726 90.4432 18.0568 90.4752 18.2329C90.5072 18.4169 90.4592 18.8812 90.3471 19.4254C90.1711 20.2978 90.1711 20.3298 90.3151 20.5939C90.4032 20.762 90.4352 20.9301 90.4032 21.0581C90.3391 21.3062 90.3311 21.3062 90.7633 21.1061C91.2035 20.914 91.4516 20.906 91.5396 21.0821C91.7637 21.5223 91.8918 22.4107 91.8437 23.2111C91.8197 23.6593 91.7957 24.2275 91.7957 24.4676C91.8037 24.8118 91.7397 25.0359 91.5076 25.5081C91.2275 26.0923 91.2195 26.1324 91.2595 26.7886C91.2915 27.2609 91.3796 27.693 91.5556 28.1893C91.7077 28.6455 91.7957 29.0456 91.7877 29.2697C91.7877 29.4698 91.7877 29.79 91.7877 29.9901C91.8117 30.5743 91.6277 32.087 91.5076 32.3911C91.4436 32.5432 91.3155 32.7273 91.2355 32.8073C91.1475 32.8953 91.0754 33.0314 91.0754 33.1114C91.0754 33.3035 90.4432 35.6085 90.067 36.8011C90.035 36.8891 90.099 36.9611 90.2591 37.0252C90.8273 37.2653 91.5876 38.3458 91.7877 39.2021C91.8517 39.4983 91.8437 39.6583 91.7557 39.9785C91.6917 40.1946 91.6197 40.7148 91.6036 41.123L91.5716 41.8753L91.8598 42.2755C92.0438 42.5316 92.1479 42.7717 92.1559 42.9558C92.1639 43.1079 92.2119 43.388 92.2679 43.5801C92.3399 43.8282 92.3399 44.0603 92.2919 44.3804C92.1719 45.1007 91.5876 47.0216 91.3155 47.5658C91.0994 48.006 91.0194 48.0861 90.6753 48.2461C90.2431 48.4382 90.2351 48.4542 90.3471 48.7424C90.4752 49.0705 90.7553 50.7833 90.7073 50.9113C90.6113 51.1674 89.851 51.4155 88.5144 51.6316C88.3624 51.6556 87.9302 51.8557 87.562 52.0718C86.4576 52.7281 85.1851 52.8562 84.1207 52.432C83.8806 52.3359 83.8005 52.2559 83.7605 52.0718C83.6645 51.5916 83.8886 51.3275 84.6729 50.9994C84.961 50.8793 85.2811 50.7032 85.3932 50.5992C85.5052 50.5031 85.6973 50.3591 85.8333 50.295C85.9614 50.231 86.1615 50.0789 86.2655 49.9669C86.3776 49.8548 86.5056 49.7588 86.5696 49.7588C86.6897 49.7588 87.0738 49.1826 87.0738 48.9985C87.0738 48.9344 87.0018 48.8064 86.9138 48.7183C86.8257 48.6303 86.7537 48.4542 86.7537 48.3262C86.7537 48.0541 85.3051 45.8611 84.5688 45.0127C83.8165 44.1483 83.3524 43.484 83.2003 43.0759C82.8882 42.2035 82.7361 42.0114 82.2319 41.8913C81.9118 41.8113 81.8077 41.7393 81.7117 41.5392C81.5596 41.235 81.2635 41.227 80.9514 41.5152C80.7513 41.7072 80.4312 42.2915 80.4312 42.4676C80.4312 42.6597 80.039 43.412 79.839 43.5881C79.5589 43.8522 79.4068 43.7241 79.5428 43.34C79.5989 43.1959 79.6709 42.7797 79.7029 42.4276C79.7669 41.7393 80.0631 40.9789 80.4632 40.4507C80.5833 40.2986 80.6713 40.1466 80.6713 40.0985C80.6713 40.0585 80.7593 39.9705 80.8634 39.9145C81.1115 39.7864 81.1755 39.6263 81.0634 39.4182C80.9514 39.2101 81.0394 38.874 81.1995 38.874C81.2875 38.874 81.3115 38.826 81.2795 38.7299C81.0634 38.0816 80.8234 37.3133 80.7033 36.8891C80.6313 36.617 80.5352 36.3929 80.4952 36.3929C80.4552 36.3929 80.3192 36.4649 80.1991 36.561C79.7029 36.9291 79.3828 36.577 79.1827 35.4325C79.1267 35.0963 79.0386 34.7282 78.9906 34.6001C78.8626 34.2559 78.5825 32.3911 78.6305 32.2231C78.6625 32.127 78.6385 32.055 78.5665 32.023C78.3584 31.9429 78.3344 31.3587 78.5024 30.5023C78.5905 30.0701 78.7105 29.5579 78.7825 29.3738C78.8626 29.1337 78.8786 29.0136 78.8146 28.9816C78.6945 28.9096 78.7825 27.9652 79.0226 26.7566C79.1267 26.2284 79.2387 25.4761 79.2627 25.0919C79.3348 24.2115 79.4948 23.5792 79.7509 23.2031C79.863 23.043 79.951 22.8349 79.951 22.7469C79.959 22.6588 80.007 22.4987 80.0711 22.3867C80.2071 22.1466 80.2231 21.8745 80.1031 21.6824C80.031 21.5703 80.039 21.4743 80.1431 21.2742C80.3272 20.9221 80.4792 20.882 80.8554 21.0981C81.0314 21.2022 81.1435 21.2422 81.1195 21.1942C81.0875 21.1462 81.1035 21.1061 81.1435 21.1061C81.3756 21.1061 81.1835 20.858 80.7593 20.5939C80.4952 20.4338 80.2631 20.2337 80.2311 20.1537C80.1671 19.9536 80.3352 19.2973 80.4792 19.1773C80.5432 19.1293 80.5913 18.9692 80.5913 18.8171C80.5913 18.6731 80.6473 18.3849 80.7193 18.1848C80.8714 17.7366 80.8073 17.3925 80.5352 17.1604C80.4312 17.0643 80.1911 16.7682 80.007 16.5041C79.831 16.24 79.5989 15.9038 79.5028 15.7598C79.3988 15.6157 79.2467 15.2716 79.1507 14.9834C78.9826 14.4792 78.7905 14.2711 78.6945 14.5112C78.6705 14.5752 78.6865 14.6713 78.7265 14.7113C78.8546 14.8394 78.5024 15.4316 78.3344 15.3756C78.2303 15.3436 78.1423 15.4396 77.9822 15.7598C77.446 16.8242 76.5817 17.8727 75.8454 18.3769C75.5252 18.593 75.0531 18.9452 74.7889 19.1693C74.2047 19.6655 73.4844 20.0977 72.9482 20.2738C72.7321 20.3458 72.452 20.4899 72.34 20.5939C72.0679 20.858 71.7237 20.9381 71.0194 20.9301C70.6913 20.9301 70.3792 20.9621 70.3312 21.0101C70.2752 21.0581 69.963 21.1542 69.6429 21.2342C69.3068 21.3142 69.0667 21.4103 69.0667 21.4743C69.0667 21.5303 68.9626 21.8505 68.8346 22.1866C68.5625 22.8989 68.1383 23.4112 67.6741 23.5952C67.322 23.7393 67.1619 24.0274 67.1539 24.5557C67.1459 24.9718 66.8738 25.284 66.5617 25.252C66.4176 25.236 66.2656 25.1479 66.1695 25.0199C66.0175 24.8118 66.0175 24.8118 66.2255 24.3075L66.4336 23.8033L66.1455 23.5632C65.8574 23.3311 65.8494 23.3071 65.8974 22.9469L65.9454 22.5708L65.4572 22.5228C64.6249 22.4507 64.5609 22.1786 65.3132 21.9625L65.6653 21.8585L65.7533 21.3062C65.8254 20.858 65.8894 20.722 66.0735 20.5619C66.2015 20.4578 66.5377 20.1537 66.8178 19.8976C67.1059 19.6415 67.386 19.4254 67.442 19.4254C67.5701 19.4254 67.5781 19.3293 67.458 19.2093C67.386 19.1373 67.474 18.9452 67.7782 18.449C68.2183 17.7366 68.2503 17.6166 68.0743 17.3845C67.9782 17.2564 68.0183 17.1364 68.4264 16.352C68.9786 15.3036 69.5469 13.6628 69.5469 13.1426C69.5469 12.9105 69.6189 12.6304 69.7549 12.3663C69.867 12.1422 69.963 11.83 69.963 11.67C69.963 11.2378 72.0679 6.37962 72.2599 6.37962C72.412 6.37962 72.356 7.10795 72.0999 8.71666C71.8998 9.9492 71.8038 10.3574 71.6117 10.7335C71.4836 10.9897 71.3956 11.2698 71.4116 11.3578C71.4356 11.4459 71.3076 11.83 71.0995 12.2462C70.6673 13.1666 70.3472 14.3191 70.3152 15.1035C70.2912 15.7118 70.2111 15.9439 69.819 16.5441C69.5629 16.9523 69.5229 17.1444 69.6669 17.2965C69.7629 17.3925 69.7709 17.4565 69.7069 17.5766C69.5869 17.8087 69.6029 17.8247 69.875 17.6886C70.0351 17.6086 70.2111 17.5846 70.3952 17.6246C70.7313 17.6806 70.8994 17.5926 71.4196 17.0643C71.8438 16.6402 72.0038 16.5921 72.6281 16.6882C72.9962 16.7522 73.1563 16.7442 73.3164 16.6562C73.6045 16.5121 74.1967 15.8238 74.1727 15.6717C74.1647 15.5997 74.2207 15.4476 74.3008 15.3276C74.4448 15.1115 74.4448 15.1035 74.2847 14.9674C74.1327 14.8394 74.1247 14.7833 74.1887 14.4232C74.2447 14.1591 74.3328 13.967 74.4608 13.8629C74.5729 13.7749 74.7329 13.5348 74.821 13.3187L74.981 12.9425L74.5889 12.5584C74.1167 12.1022 74.0927 11.9181 74.4208 11.4779C74.7089 11.1017 74.981 10.8856 75.2531 10.8216C75.5092 10.7576 75.5092 10.7335 75.3092 10.2613C75.1011 9.77312 75.1011 9.2609 75.3092 8.99678C75.5332 8.71666 76.1895 8.50856 76.9098 8.50056C77.446 8.49256 77.55 8.46054 77.8782 8.23644C78.0783 8.10038 78.2863 7.93231 78.3424 7.86828C78.3904 7.81226 78.4464 7.41208 78.4624 6.97189C78.5104 5.66731 78.7425 5.22711 79.3508 5.27513L79.6709 5.29915L79.7269 4.93899C79.7749 4.61084 79.927 4.18665 80.3031 3.32227C80.3752 3.1622 80.4072 2.97012 80.3832 2.90609C80.3592 2.84206 80.3912 2.68199 80.4552 2.56193C80.5192 2.44188 80.6153 2.22579 80.6713 2.09773C80.7273 1.96167 80.7993 1.8016 80.8394 1.73757C80.8794 1.67354 80.9594 1.50547 81.0234 1.36941C81.1435 1.09729 81.9278 0.376969 82.1039 0.376969C82.1599 0.376969 82.328 0.304937 82.464 0.216898C82.8322 -0.00720121 83.9046 -0.0792331 84.2327 0.104848ZM87.2339 6.81181C87.2339 6.82782 87.2899 6.86784 87.362 6.89185C87.426 6.91586 87.458 6.90786 87.434 6.85984C87.386 6.7798 87.2339 6.74779 87.2339 6.81181ZM80.5112 19.7856C80.4792 20.0737 80.5112 20.1297 80.7833 20.2978C80.9274 20.3938 81.0715 20.4659 81.0955 20.4659C81.1755 20.4659 80.9194 19.8016 80.7753 19.6495C80.6313 19.4894 80.5352 19.5374 80.5112 19.7856ZM97.2699 25.5401C97.1979 25.9563 97.2699 26.0683 97.422 25.7722C97.55 25.5321 97.534 25.268 97.39 25.268C97.3579 25.268 97.3019 25.396 97.2699 25.5401ZM94.7809 29.6859C94.8049 29.75 94.8289 29.7259 94.8289 29.6379C94.8369 29.5499 94.8129 29.5018 94.7889 29.5339C94.7649 29.5579 94.7569 29.6299 94.7809 29.6859ZM84.857 35.3284C84.7049 36.2328 84.913 38.0816 85.2011 38.4018C85.2811 38.4898 85.4332 38.5539 85.5532 38.5539C85.6893 38.5539 85.8173 38.6179 85.8974 38.7299C86.0174 38.914 86.0174 38.914 86.1375 38.7539C86.2495 38.6099 86.2335 38.5699 85.9854 38.2977C85.8253 38.1137 85.6653 37.8175 85.5853 37.5374C85.5212 37.2813 85.3932 36.8491 85.3131 36.585C85.2331 36.3129 85.1371 35.8406 85.1051 35.5205C85.081 35.2084 85.025 34.9523 84.985 34.9523C84.953 34.9523 84.897 35.1203 84.857 35.3284ZM87.5941 41.7873C87.6261 41.9474 87.6821 42.0754 87.7221 42.0754C87.8261 42.0754 87.8101 41.6432 87.6981 41.5312C87.562 41.3951 87.538 41.4591 87.5941 41.7873ZM88.3544 42.8197C88.2023 43.0919 88.0662 43.356 88.0502 43.412C88.0342 43.46 88.1543 43.7882 88.3063 44.1323C88.4584 44.4765 88.6425 44.9647 88.7225 45.2208C88.8586 45.677 88.9946 45.8851 88.9946 45.637C88.9946 45.573 89.0906 45.3328 89.2107 45.1087C89.4508 44.6365 89.4828 44.0763 89.2827 43.6841C89.2107 43.5561 89.1547 43.332 89.1547 43.1959C89.1547 42.9718 88.8025 42.3155 88.6825 42.3155C88.6585 42.3155 88.5064 42.5396 88.3544 42.8197Z" fill="black"/>
<path d="M65.0567 0.120621C65.1047 0.20866 65.1767 0.424756 65.2087 0.59283C65.2647 0.86495 65.2968 0.896965 65.4888 0.872954C65.6809 0.856947 65.7289 0.896965 65.873 1.23311C66.3292 2.28158 66.4012 7.06769 65.985 8.02011L65.841 8.34026L65.7369 8.10015C65.6329 7.86805 65.6329 7.86805 65.6329 8.06013C65.6249 8.42829 65.7849 9.37271 65.865 9.45275C65.913 9.50077 65.945 9.87693 65.953 10.3011C65.953 10.7173 65.985 11.2215 66.009 11.4216C66.0651 11.7578 66.0891 11.7898 66.4892 11.9819C66.8814 12.1659 66.9374 12.23 67.2015 12.7742C67.4576 13.3024 67.4816 13.4065 67.4416 13.8387C67.4016 14.3269 67.2495 14.6711 66.7053 15.5594C66.4332 16.0156 66.3772 16.0637 66.1371 16.0637C65.833 16.0637 65.5208 16.3438 65.3288 16.784C65.1607 17.1762 64.9926 17.3442 64.7685 17.3442C64.6325 17.3442 64.5124 17.4563 64.3044 17.7844C64.0242 18.2086 63.7601 18.3607 63.6801 18.1206C63.6641 18.0646 63.5681 18.1206 63.432 18.2807C63.296 18.4407 63.1439 18.5368 63.0399 18.5288C62.9438 18.5208 62.6637 18.6568 62.4236 18.8249C61.7433 19.2891 61.7513 19.2891 60.7429 18.9369C59.6305 18.5528 59.4704 18.4487 58.8302 17.7844C58.5501 17.4963 58.31 17.2642 58.302 17.2802C58.286 17.2962 58.1099 17.6484 57.9018 18.0646L57.5177 18.8249L57.6057 19.3451C57.6857 19.8093 57.6777 19.8894 57.5417 20.1135C57.4536 20.2495 57.4056 20.3856 57.4376 20.4176C57.4696 20.4416 57.3896 20.5697 57.2696 20.6977C57.1415 20.8258 57.0695 20.9698 57.0935 21.0099C57.1735 21.1459 57.0615 21.33 56.7894 21.4901C56.5092 21.6581 56.4532 21.9543 56.6453 22.2904C56.7173 22.4105 56.7333 22.5946 56.7013 22.8187C56.6213 23.3069 56.7493 23.3389 57.2615 22.9547C57.7497 22.5866 57.8938 22.5545 58.0299 22.7946C58.1419 23.0187 58.0779 23.3389 57.7898 23.9472C57.4936 24.5554 57.4936 24.5714 57.6217 25.1317C57.7097 25.5078 57.7738 25.6199 57.9658 25.7159C58.2139 25.852 58.422 26.2522 58.422 26.6123C58.422 26.9405 58.7261 27.5968 58.9582 27.7889C59.1183 27.9249 59.1743 28.069 59.2463 28.6052C59.3264 29.2135 59.3504 29.2855 59.7185 29.7097C60.2387 30.318 60.5188 30.8222 60.5429 31.1744C60.5589 31.3344 60.6389 31.6866 60.7349 31.9427C60.831 32.2068 60.903 32.583 60.903 32.7911C60.903 32.9992 60.959 33.3273 61.023 33.5114C61.3032 34.3117 61.0471 34.6719 60.4308 34.3518C60.2067 34.2397 60.1987 34.2477 60.1587 34.4558C59.9986 35.2562 60.0066 35.6883 60.1827 36.3526C60.3508 36.9929 60.3748 37.0249 60.5509 36.9849C60.7029 36.9449 60.7589 36.9769 60.807 37.121C60.863 37.273 60.943 37.3051 61.3272 37.3211C61.6313 37.3371 61.9274 37.4251 62.2395 37.5852C62.7357 37.8333 62.9758 38.0574 63.368 38.6417C63.504 38.8417 63.7041 39.0658 63.8162 39.1459C64.0883 39.322 64.0803 39.434 63.8002 39.434C63.5601 39.434 63.2399 39.2579 62.8238 38.8738C62.1035 38.2335 61.3832 38.1694 61.3832 38.7457C61.3832 38.8738 61.3112 39.0578 61.2231 39.1539C61.0871 39.2979 61.0711 39.37 61.1431 39.5461C61.1831 39.6661 61.2631 40.7306 61.3032 41.8991C61.3832 44.1401 61.4072 44.3562 61.5913 44.4282C61.7273 44.4842 61.7353 44.7724 61.5993 44.8204C61.4712 44.8684 62.2956 45.7248 62.6637 45.9169C62.8158 45.9969 63.0318 46.157 63.1359 46.269C63.2479 46.3811 63.368 46.4771 63.408 46.4771C63.456 46.4771 63.6081 46.5652 63.7521 46.6772C63.8962 46.7893 64.0403 46.8773 64.0803 46.8773C64.1123 46.8773 64.3924 46.9813 64.6965 47.1014C65.3848 47.3815 65.6009 47.6296 65.4968 48.0138C65.4088 48.3179 65.2487 48.382 64.5044 48.39C63.8642 48.398 63.2559 48.2539 62.2876 47.8857C61.6153 47.6216 61.4712 47.5976 60.6869 47.5896C59.2623 47.5736 59.2143 47.5416 59.1343 46.4851C59.1023 46.0369 59.0303 45.4767 58.9742 45.2446C58.9102 44.9484 58.9102 44.7724 58.9662 44.6683C59.0142 44.5723 59.0223 44.3882 58.9822 44.1961C58.8942 43.7399 58.8382 43.6199 58.6221 43.4838C58.494 43.3958 58.406 43.2197 58.334 42.9155C58.278 42.6514 58.0939 42.2512 57.8938 41.9551C57.6777 41.611 57.5096 41.2428 57.4216 40.8586C57.2776 40.2744 57.0135 39.5861 56.9014 39.514C56.7894 39.442 56.7894 39.0098 56.8934 38.6336C56.9494 38.4336 56.9974 38.2655 56.9894 38.2495C56.9814 38.2415 57.0295 38.1294 57.0935 38.0014C57.2135 37.7853 57.1975 37.7212 56.8534 36.8649C56.2852 35.4562 56.3332 35.5203 55.917 35.6163C55.5889 35.6883 55.5569 35.7204 55.4448 36.0645C55.3008 36.5287 55.1327 36.5447 54.9966 36.0965C54.8926 35.7684 54.8846 35.7684 54.4124 35.7124C54.1483 35.6803 53.9082 35.6723 53.8922 35.6963C53.8682 35.7204 53.7962 35.9685 53.7321 36.2566C53.5961 36.8329 53.436 37.121 53.316 36.9929C53.2279 36.9129 53.0439 35.6003 53.1079 35.5043C53.1239 35.4803 52.9959 35.4002 52.8198 35.3282C52.4596 35.1921 52.4596 35.1921 52.3796 35.6323C52.2516 36.3206 52.0915 36.3606 51.8274 35.7684L51.6913 35.4723L51.1151 35.4642C50.4108 35.4562 49.6745 35.2722 48.9542 34.92L48.41 34.6559L48.266 34.864C47.6497 35.7604 47.0335 37.273 46.8174 38.3935C46.7454 38.7777 46.7534 38.8257 46.8974 38.9298C46.9935 39.0018 47.0575 39.1299 47.0575 39.2819C47.0575 39.474 47.1055 39.538 47.2976 39.6021C47.5137 39.6821 47.5377 39.7221 47.5377 40.0423C47.5377 40.2344 47.4977 40.3944 47.4576 40.3944C47.4096 40.3944 47.3776 40.4825 47.3776 40.5865C47.3776 40.6986 47.3376 40.8106 47.2976 40.8346C47.2496 40.8586 47.2175 41.0987 47.2175 41.3549C47.2175 41.611 47.1775 41.9231 47.1295 42.0512C46.9134 42.6194 46.5613 44.1001 46.4893 44.7163C46.4492 45.0925 46.3612 45.5327 46.2972 45.7008C46.2332 45.8608 46.1771 46.149 46.1771 46.3331C46.1771 46.5171 46.1051 46.7652 46.0171 46.9173C45.889 47.1254 45.873 47.2294 45.929 47.3815C45.9691 47.4936 45.9851 47.6056 45.961 47.6296C45.937 47.6536 46.0091 47.7657 46.1211 47.8697C46.3852 48.1178 46.4092 48.518 46.1771 48.7181C46.0331 48.8462 46.0091 48.9982 45.953 50.0867L45.897 51.3193L45.5929 51.4633C45.4328 51.5434 44.9927 51.6394 44.6165 51.6714C43.9843 51.7354 43.9122 51.7595 43.5761 52.0476C42.6557 52.8239 42.2076 53 41.0551 53C40.1107 53 39.7986 52.888 39.7266 52.5198C39.6545 52.1116 39.8546 51.8235 40.4148 51.5273C40.895 51.2712 41.1911 51.0391 41.8954 50.3348C42.0875 50.1507 42.2716 49.9987 42.3196 49.9987C42.3596 49.9987 42.5597 49.7185 42.7598 49.3744C43.0799 48.8382 43.1359 48.6781 43.1359 48.3099C43.1359 48.0698 43.1599 47.1494 43.1839 46.253C43.216 45.0365 43.1919 44.4522 43.1039 43.932C42.8318 42.3073 42.7918 41.771 42.8878 41.1948C43.0319 40.3144 43.0079 39.8022 42.8078 39.6261C42.6957 39.522 42.6557 39.41 42.6717 39.2579C42.7038 39.0738 42.6717 39.0258 42.4877 38.9618C42.1355 38.8417 41.7834 38.9858 41.2552 39.474C40.9671 39.7381 40.6789 39.9302 40.5189 39.9622C40.1027 40.0423 40.0467 39.9302 40.3588 39.6021C40.5109 39.442 40.711 39.1699 40.799 38.9858C40.895 38.8097 41.0951 38.5456 41.2632 38.4015C41.5993 38.1054 42.5597 37.6172 42.8798 37.5772C43.0479 37.5612 43.1039 37.5051 43.1199 37.3371C43.1359 37.217 43.248 37.0329 43.376 36.9289C43.5681 36.7608 43.6241 36.6248 43.7282 36.0005C43.8002 35.6003 43.8562 35.1441 43.8562 34.992C43.8562 34.7279 43.8482 34.7199 43.6481 34.7919C43.368 34.904 42.9278 34.888 42.8318 34.7759C42.5837 34.4638 43.24 31.4705 43.7842 30.462C43.8322 30.358 43.8802 30.1499 43.8882 29.9818C43.9042 29.6617 44.1363 29.2775 44.6725 28.6692C44.8646 28.4531 44.9606 28.2771 44.9286 28.197C44.8406 27.9649 44.9847 27.6528 45.3448 27.3006C45.6089 27.0365 45.6969 26.8925 45.6969 26.7084C45.6969 26.3882 45.873 25.9801 46.2011 25.5158C46.3532 25.3158 46.5293 24.9716 46.6013 24.7555C46.7133 24.4274 46.7214 24.3393 46.6253 24.1552C46.5613 24.0432 46.4492 23.7231 46.3772 23.4429C46.2252 22.9147 46.2892 22.5465 46.5213 22.5465C46.5773 22.5465 46.8174 22.7466 47.0575 22.9867C47.5217 23.4589 47.6177 23.507 47.6177 23.2829C47.6177 23.2028 47.6737 23.0588 47.7458 22.9627C47.8178 22.8587 47.8498 22.7306 47.8258 22.6666C47.8018 22.6026 47.8178 22.5305 47.8578 22.5065C47.9058 22.4745 47.9378 22.3945 47.9378 22.3224C47.9378 22.1784 47.3696 21.8822 45.785 21.2179C45.2087 20.9698 44.8326 20.7698 44.7606 20.6497C44.5205 20.2815 44.3204 19.049 44.3684 18.2406C44.4004 17.6484 44.3924 17.5043 44.3044 17.5043C44.2164 17.5043 44.2083 17.4403 44.2564 17.2322C44.3124 16.9841 44.2964 16.9521 44.1443 16.9281C43.9362 16.896 43.8722 16.4558 44.0403 16.1997C44.1523 16.0237 44.3044 14.7031 44.2083 14.7031C44.1843 14.7031 44.0563 14.7911 43.9202 14.9032C43.6081 15.1673 43.1999 15.1753 42.9358 14.9032C42.8238 14.7991 42.7358 14.631 42.7358 14.535C42.7358 14.1668 43.32 13.1824 43.5361 13.1824C43.5681 13.1824 43.7282 13.0143 43.8802 12.7982L44.1603 12.4221L43.8882 11.8618C43.5761 11.2135 43.5361 10.7813 43.7682 10.5492C43.9442 10.3732 44.6565 10.2611 45.1607 10.3251C45.5609 10.3812 46.0011 10.2051 46.4332 9.83692C46.6813 9.61282 46.7214 9.52478 46.7694 9.07658C46.8174 8.56435 47.0655 7.85204 47.2976 7.5319C47.3616 7.44386 47.5137 7.2998 47.6337 7.22776C47.7618 7.14773 47.8578 7.01167 47.8578 6.93163C47.8578 6.8516 47.9859 6.44342 48.1379 6.01123C48.29 5.58704 48.394 5.21087 48.37 5.16285C48.314 5.08282 48.6261 4.25045 48.7782 4.05836C48.8342 3.99433 48.8982 3.86628 48.9302 3.77824C49.0103 3.49811 49.6345 2.97788 50.0987 2.80181C51.1231 2.40163 51.7233 2.51368 52.3076 3.21799C52.4756 3.42608 52.7157 3.6902 52.8278 3.81025C53.0279 4.01034 53.324 4.72266 53.2439 4.81069C53.1959 4.85071 53.436 6.00322 53.5561 6.29935C53.6041 6.4114 53.6681 6.74755 53.7081 7.05969C53.7401 7.36382 53.8762 7.93207 54.0043 8.31624C54.1243 8.70041 54.1963 8.98854 54.1643 8.97253C54.1323 8.94852 54.1003 8.96453 54.1003 9.01255C54.1003 9.06057 54.1723 9.13261 54.2604 9.18063C54.3484 9.22865 54.4204 9.30068 54.4204 9.3487C54.4204 9.39672 54.3884 9.41273 54.3404 9.38072C54.3004 9.3567 54.3004 9.43674 54.3484 9.5808C54.4444 9.83692 54.7646 10.1491 55.1647 10.3491C55.3808 10.4612 55.3968 10.4612 55.3568 10.3571C55.3328 10.2851 55.2848 10.021 55.2527 9.75688C55.2047 9.33269 55.2207 9.26066 55.3728 9.1086L55.5409 8.94052L55.925 9.13261C56.1411 9.23665 56.4452 9.47676 56.6133 9.66084C56.8614 9.93296 57.0375 10.037 57.5737 10.2131C58.326 10.4532 58.9742 10.8214 59.5665 11.3496C60.1347 11.8458 60.2227 11.8698 60.4068 11.5577C60.6229 11.1975 61.6953 9.07658 62.8078 6.81958C63.328 5.76312 64.0322 4.40251 64.3764 3.79425C64.7445 3.13796 64.9766 2.63373 64.9526 2.5537C64.9286 2.48167 64.8886 1.91341 64.8646 1.29714C64.8246 0.160639 64.8806 -0.207524 65.0567 0.120621ZM64.4244 4.99478C64.4244 5.0508 62.7277 8.4363 62.4076 9.02056C62.2475 9.30868 61.8234 10.1651 61.4552 10.9254L60.791 12.31L60.935 12.5501C61.1031 12.8302 61.0711 12.8943 60.6549 13.1024C60.4628 13.2064 60.3268 13.3425 60.2948 13.4625C60.2307 13.7186 60.3908 14.1188 60.6709 14.4069C60.895 14.623 61.0471 15.1673 60.999 15.5594C60.991 15.6555 61.015 15.7515 61.0631 15.7835C61.1031 15.8076 61.1431 15.8956 61.1431 15.9756C61.1431 16.0557 61.2151 16.1837 61.3032 16.2638C61.4472 16.3998 61.4632 16.3998 61.4632 16.2718C61.4632 16.1997 61.5513 16.0477 61.6633 15.9356C61.7753 15.8236 61.8474 15.7035 61.8234 15.6635C61.6873 15.4394 62.1915 15.1433 63.0399 14.9432C63.36 14.8711 63.464 14.8151 63.464 14.7031C63.464 14.511 63.7121 14.3429 64.2243 14.1748C64.4404 14.1028 64.6325 14.0388 64.6405 14.0308C64.6565 14.0228 64.5925 13.8387 64.5124 13.6146C64.4324 13.3985 64.3364 13.0063 64.3044 12.7342C64.2403 12.174 64.3444 12.0219 64.7926 12.0379C64.9446 12.0459 65.0807 12.0139 65.1047 11.9819C65.1287 11.9418 65.1127 11.5977 65.0647 11.2055C64.8966 9.86093 64.8806 9.5808 64.9606 9.48476C65.0006 9.42874 65.0326 9.26867 65.0246 9.14061C65.0166 9.00455 65.0006 8.74043 64.9926 8.54835C64.9846 8.2202 64.9766 8.2042 64.8726 8.34026C64.7685 8.48432 64.7525 8.47632 64.6245 8.18018C64.5525 8.00411 64.4724 7.62794 64.4564 7.33981C64.4084 6.78757 64.2883 6.37939 64.1763 6.37939C63.9842 6.37939 64.2563 5.46699 64.6405 4.77868C64.7045 4.66663 64.8086 4.45054 64.8806 4.29847C64.9926 4.05036 65.0166 4.03435 65.0647 4.17842C65.1047 4.29847 65.1287 4.25845 65.1687 4.01834C65.2887 3.28202 65.2167 3.30603 64.8246 4.13039C64.6005 4.5866 64.4244 4.97077 64.4244 4.99478ZM56.7173 17.7524C56.7013 18.5848 56.7093 18.6088 56.8534 18.4807C56.9334 18.4087 57.1975 17.9525 57.4296 17.4803L57.8698 16.6159L57.7257 16.3758C57.6457 16.2478 57.5417 16.1597 57.4856 16.1757C57.4296 16.1997 57.3256 16.1037 57.2535 15.9596L57.1175 15.7115L56.9254 16.3038C56.7814 16.752 56.7333 17.0961 56.7173 17.7524Z" fill="black"/>
<path d="M27.8751 0.112852C27.9072 0.136863 28.1552 0.176881 28.4274 0.192888C28.9956 0.232906 29.2517 0.360962 29.4358 0.713118C29.5158 0.849178 29.6518 1.08128 29.7559 1.24135C29.956 1.54549 30.2201 2.20178 30.2841 2.57794C30.3081 2.706 30.4202 3.08217 30.5322 3.40231C30.6362 3.73045 30.7803 4.31471 30.8443 4.71489C30.9083 5.11506 31.0124 5.49123 31.0764 5.57127C31.1404 5.6433 31.2125 5.75535 31.2445 5.81938C31.2765 5.8834 31.2285 5.85139 31.1404 5.73934C30.9484 5.50724 30.9244 5.57127 31.0924 5.89141C31.1564 6.01946 31.1885 6.13952 31.1564 6.16353C31.1324 6.18754 31.1965 6.34761 31.3005 6.50768C31.4686 6.7878 31.4846 6.79581 31.5566 6.63574C31.5966 6.5477 31.7567 6.41164 31.9007 6.33961C32.1488 6.21955 32.1969 6.21955 32.453 6.34761C32.8931 6.5557 33.4133 7.05992 33.6134 7.47611C33.7655 7.79625 33.9015 7.92431 34.4297 8.26046C35.118 8.69265 35.7343 9.34894 36.0544 9.98122C36.1584 10.1893 36.3505 10.4614 36.4786 10.5895C36.7747 10.8936 37.1908 11.9581 37.0628 12.0861C37.0068 12.1422 36.7427 12.1822 36.4065 12.1742L35.8543 12.1662L35.8943 12.4143C35.9183 12.5504 35.9744 12.9105 36.0224 13.2227C36.0624 13.5268 36.1584 13.8469 36.2305 13.919C36.3265 14.023 36.3425 14.1511 36.3025 14.4312C36.2545 14.8314 36.1424 15.0234 35.9664 15.0234C35.8863 15.0234 35.8703 15.0955 35.9103 15.2716C35.9343 15.4156 35.9183 15.5437 35.8703 15.5757C35.8143 15.6077 35.8063 15.7998 35.8543 16.184C35.8943 16.4961 35.9023 16.8242 35.8783 16.9283C35.8223 17.1764 35.9984 17.7847 36.1824 17.9527C36.2705 18.0248 36.3345 18.1448 36.3345 18.2249C36.3345 18.2969 36.4466 18.3929 36.6146 18.457C36.9988 18.593 37.0868 18.7851 37.0228 19.3934C36.9428 20.1537 37.0868 20.9141 37.3509 21.1382C37.607 21.3622 37.631 21.7304 37.4149 22.1386C37.3429 22.2827 37.2709 22.5468 37.2549 22.7309C37.1348 23.9874 37.1348 24.0514 37.2629 24.0995C37.3349 24.1235 37.3989 24.1475 37.4149 24.1475C37.4229 24.1475 37.455 24.0034 37.487 23.8193C37.527 23.5872 37.583 23.4752 37.6951 23.4512C37.8151 23.4192 37.8551 23.3391 37.8551 23.155C37.8631 22.6748 38.4393 21.7544 38.6794 21.8505C38.9115 21.9385 38.9275 22.4267 38.7355 22.955C38.5754 23.3631 38.5674 23.4592 38.6554 23.6273C38.7115 23.7393 38.7355 23.9234 38.7115 24.0594C38.6794 24.2195 38.7115 24.4196 38.8155 24.6437C38.9035 24.8358 38.9756 25.1479 38.9756 25.34C38.9756 25.6842 38.9756 25.6842 39.1516 25.5561C39.6238 25.228 39.6478 25.228 39.5918 25.5401C39.5678 25.7002 39.4718 25.9323 39.3917 26.0523C39.1996 26.3164 38.5834 27.7571 38.3353 28.5094C38.0392 29.4138 37.567 30.2862 37.1028 30.7584C36.4706 31.4147 36.1985 31.3187 35.9263 30.3342C35.6863 29.4698 35.7183 29.0697 36.0704 28.5574C36.2305 28.3253 36.3745 28.1573 36.3825 28.1973C36.3905 28.2373 36.4225 28.3653 36.4466 28.4854C36.5186 28.7975 36.5986 28.7655 36.7507 28.3573L36.8787 28.0052L36.3905 28.0452C36.1184 28.0612 35.6702 28.1092 35.3981 28.1573C34.8459 28.2373 34.5498 28.1733 34.4217 27.9171C34.2857 27.677 34.3177 27.4449 34.4938 27.2689C34.6939 27.0688 34.7899 26.8287 34.95 26.1884C35.006 25.9243 35.142 25.5641 35.2461 25.388C35.4061 25.1239 35.4301 25.0039 35.3741 24.7077C35.3421 24.5076 35.2541 24.2195 35.174 24.0674C34.9099 23.5712 34.8939 23.5152 34.8939 23.2671C34.8939 22.987 34.6458 22.4587 34.4137 22.2266C34.3257 22.1386 34.2537 22.0025 34.2537 21.9225C34.2537 21.8425 34.1977 21.7064 34.1336 21.6104C34.0616 21.5063 34.0136 21.2982 34.0296 21.1301C34.0376 20.9621 33.9656 20.4498 33.8695 19.9856C33.7735 19.5214 33.6534 18.9452 33.6134 18.6971C33.5574 18.425 33.3893 18.0168 33.1813 17.6646C32.9892 17.3525 32.7651 16.8963 32.6851 16.6562C32.605 16.4161 32.509 16.224 32.477 16.224C32.445 16.224 32.3569 16.344 32.2849 16.4801C32.2129 16.6242 31.9648 17.0323 31.7487 17.3765C31.4446 17.8407 31.3245 18.1208 31.2845 18.441C31.2525 18.6811 31.1564 18.9692 31.0764 19.0812C30.5562 19.8176 30.5482 20.0737 30.9964 20.69C31.1484 20.898 31.4286 21.3542 31.6126 21.6984C31.9648 22.3707 31.9648 22.4027 31.8527 23.7473C31.8447 23.8113 31.8767 24.3476 31.9248 24.9318C32.0048 25.8923 32.0448 26.0603 32.3009 26.6126C32.7251 27.509 32.7411 27.565 32.8211 28.3493C32.8691 28.8215 32.8691 29.2778 32.8131 29.6859C32.7331 30.2782 32.7411 30.3502 33.0212 31.4307C33.3573 32.6953 33.3653 32.6392 32.7491 32.7993C32.549 32.8553 32.3729 32.9594 32.3169 33.0554C32.1008 33.4636 32.453 35.0003 33.1012 36.4569C33.3413 37.0092 34.1496 38.0816 34.2777 38.0336C34.4057 37.9856 34.5098 38.0656 34.6618 38.3458C34.7819 38.5619 34.9019 38.6259 35.1901 38.6499C35.2461 38.6579 35.2941 38.6979 35.2941 38.7379C35.2941 38.778 35.3661 38.906 35.4462 39.0261C35.5902 39.2262 35.5902 39.2662 35.4942 39.4583C35.3901 39.6583 35.4141 39.7304 35.7903 40.5307L36.1985 41.3951L36.2145 42.6357C36.2305 44.3964 36.3185 45.573 36.5106 46.6854L36.6786 47.6619L37.0308 47.838C37.2229 47.934 37.3669 48.03 37.3429 48.0541C37.3269 48.0781 37.3589 48.2381 37.4229 48.4222C37.527 48.7183 37.527 48.7664 37.4229 48.8464C37.1748 49.0225 37.1348 49.3346 37.2149 50.303C37.2629 50.8153 37.3269 51.4315 37.3589 51.6556C37.3989 51.8877 37.4069 52.1118 37.3829 52.1439C37.2709 52.3119 35.2221 53.2243 34.7899 53.2964C34.1897 53.4004 32.637 53.2484 32.2929 53.0483C32.0848 52.9362 32.0528 52.8562 32.0288 52.536C32.0128 52.2639 32.0528 52.0798 32.1648 51.8958C32.3409 51.6076 33.6694 50.295 34.0856 50.0069C34.3337 49.8308 34.3497 49.7908 34.3017 49.4867C34.2697 49.3026 34.1817 49.1025 34.0856 49.0385C33.9736 48.9424 33.9095 48.7664 33.8535 48.3582C33.7655 47.6299 32.7731 45.0047 31.9728 43.38C31.6366 42.7157 31.3325 41.9794 31.2925 41.7473C31.1484 40.9789 30.4762 40.0905 29.8999 39.9145C29.7159 39.8504 29.5478 39.7304 29.4678 39.5943C29.3557 39.3942 29.2997 39.3702 28.9716 39.3862C28.4994 39.4102 28.2593 39.5463 27.531 40.1946C27.2029 40.4907 26.8347 40.7468 26.7147 40.7708C26.5946 40.7948 26.4426 40.8989 26.3705 41.0029C26.1785 41.2991 25.6342 42.8838 25.5702 43.324C25.5062 43.7882 25.2261 44.8046 25.13 44.9087C25.098 44.9407 25.098 45.0767 25.13 45.1968C25.1701 45.3248 25.1781 45.4449 25.1541 45.4689C25.13 45.4929 25.1461 45.5569 25.1861 45.613C25.3061 45.757 25.3861 46.2933 25.3061 46.3493C25.2661 46.3733 25.2501 46.5654 25.2661 46.7735C25.3221 47.3417 25.1541 48.5583 25.002 48.7264C24.8179 48.9344 24.2577 48.9905 23.5854 48.8784C22.489 48.6943 22.0888 48.6943 21.1845 48.8704C20.5922 48.9825 20.008 49.0385 19.3197 49.0385C18.4154 49.0385 18.3113 49.0225 18.1593 48.8704C18.0312 48.7424 17.9992 48.6463 18.0392 48.4542C18.0632 48.3262 18.1273 48.1741 18.1673 48.1181C18.2073 48.0621 18.6315 47.918 19.1036 47.7979C19.5838 47.6779 20.016 47.5338 20.08 47.4858C20.2001 47.3898 20.6483 47.1497 21.2085 46.8695C21.9848 46.4934 22.497 45.9171 22.3369 45.613C22.2809 45.5169 22.3129 45.3248 22.425 44.9967C22.569 44.5645 22.585 44.4044 22.537 43.396C22.505 42.7797 22.465 42.1634 22.441 42.0354C22.417 41.8993 22.3689 41.2671 22.3449 40.6188C22.3129 39.9065 22.2489 39.4022 22.2009 39.3462C22.0648 39.2181 21.8567 39.3062 21.4566 39.6743C21.1044 39.9945 20.8884 40.0425 20.8884 39.7944C20.8884 39.6183 21.1685 39.0901 21.3285 38.954C21.5606 38.7619 21.6086 38.5939 21.5206 38.2737C21.4726 38.1057 21.3846 37.9136 21.3205 37.8575C21.2565 37.7935 21.2085 37.6735 21.2085 37.5854C21.2085 37.2493 20.4962 37.4494 19.3357 38.1297C19.1437 38.2417 18.6795 38.2657 18.6154 38.1697C18.5914 38.1297 18.8555 37.8575 19.1917 37.5614C19.7679 37.0412 20.7443 36.4729 21.0644 36.4729C21.1365 36.4729 21.2245 36.4329 21.2485 36.3929C21.2725 36.3449 21.4006 36.3129 21.5286 36.3129C21.7127 36.3129 21.7687 36.2648 21.8407 36.0567C21.9128 35.8647 21.9528 35.8246 22.0248 35.8967C22.2809 36.1528 22.2969 35.9047 22.1048 34.8482C22.0248 34.424 21.8487 34.1519 21.8487 34.464C21.8487 34.8242 21.7047 34.5441 21.6727 34.1119C21.6487 33.8158 21.5766 33.5917 21.4646 33.4476C20.8403 32.6713 20.7283 32.3751 20.7283 31.4707C20.7283 31.0785 20.6883 30.7824 20.6323 30.7264C20.5282 30.6223 20.5202 29.918 20.6082 28.3253C20.6643 27.3889 20.6563 27.2689 20.5362 27.2689C20.4002 27.2689 20.3601 27.3969 20.2961 28.0452C20.2401 28.6055 20.032 28.9816 19.4638 29.5339C18.9676 30.0301 18.7755 30.0381 19.0236 29.5659C19.1036 29.4218 19.2557 29.1337 19.3597 28.9336C19.5358 28.5974 19.5438 28.5494 19.4398 28.3173C19.3677 28.1653 19.2717 28.0692 19.1757 28.0692C19.0876 28.0692 18.9036 28.0292 18.7675 27.9812C18.3113 27.8131 16.4866 28.3573 15.7663 28.8696C15.5582 29.0136 15.4862 29.0296 15.2301 28.9576C15.062 28.9096 14.8139 28.8696 14.6699 28.8696C14.3097 28.8696 13.5414 29.1257 13.1493 29.3738C12.8452 29.5659 12.7091 29.5979 11.9488 29.6219C10.6363 29.6779 8.32335 30.1341 7.48301 30.5103C7.25893 30.6063 6.83475 30.7104 6.53063 30.7344C6.22651 30.7664 5.82635 30.8625 5.63428 30.9505C5.38618 31.0785 4.78594 31.1826 3.38538 31.3507C1.30455 31.6148 3.14379e-05 31.7188 3.14379e-05 31.6468C3.14379e-05 31.5347 0.832363 31.1906 2.40099 30.6384C3.30535 30.3182 4.23372 29.9901 4.46581 29.91C4.70591 29.822 5.07405 29.75 5.29814 29.75C5.52223 29.75 5.90638 29.6699 6.1865 29.5579C6.46661 29.4538 6.9468 29.3498 7.28293 29.3178C8.31535 29.2377 10.9244 28.5014 11.8047 28.0452C12.0608 27.9091 12.2769 27.8771 12.9252 27.8691C13.7735 27.8691 14.3097 27.7011 14.7019 27.3329C14.862 27.1888 14.966 27.1728 15.7103 27.1808C16.7667 27.2048 18.2553 26.8927 18.4874 26.6126C18.8155 26.2204 18.5754 25.8602 17.7351 25.4761C17.3349 25.292 17.0628 25.0679 17.1429 24.9798C17.1669 24.9638 17.495 25.0199 17.8792 25.1159C18.6715 25.316 19.3517 25.6922 19.7439 26.1404C20.056 26.5165 20.2721 26.5886 20.4562 26.3805C20.5682 26.2524 20.5762 26.1884 20.5042 26.0203C20.3121 25.6201 20.4562 24.5076 20.7603 24.0274C20.9204 23.7713 21.0644 22.4667 21.0084 21.8425C20.9524 21.3382 20.9684 21.2662 21.1204 21.1141C21.2725 20.9621 21.2885 20.85 21.2965 20.1377C21.2965 19.5775 21.3525 19.1773 21.4566 18.8491C21.5366 18.593 21.6246 18.1928 21.6567 17.9607C21.6887 17.7286 21.7687 17.4325 21.8327 17.3045C21.8968 17.1684 22.0248 16.7442 22.1048 16.36C22.2409 15.6717 22.2409 15.6477 22.0968 15.5197C21.9128 15.3516 21.7287 14.7673 21.7927 14.5352C21.8167 14.4392 21.7847 14.111 21.7287 13.8069C21.6647 13.5028 21.6086 13.0706 21.6086 12.8465C21.6086 12.4463 21.6086 12.4383 21.4486 12.5824C21.3125 12.7024 21.2645 12.7104 21.0484 12.6224C20.6483 12.4543 20.5682 12.2782 20.6883 11.83C20.8003 11.3978 20.9284 11.1337 21.0724 11.0457C21.3205 10.8856 21.3685 10.5655 21.2485 9.91719C21.0404 8.83671 21.1124 8.06837 21.4406 7.93231C21.5126 7.9083 21.8727 7.86028 22.2489 7.82826L22.9212 7.78024L22.9452 7.05992C22.9772 6.18754 23.0572 5.89141 23.3613 5.40319C23.6735 4.91498 23.9456 4.7389 24.3777 4.76291L24.7299 4.77892L24.7139 4.47478C24.6979 4.02658 24.7699 3.65842 25.01 3.07416C25.122 2.78603 25.2341 2.4819 25.2501 2.40186C25.3141 2.08973 25.4902 1.68155 25.6663 1.44144C25.7703 1.30538 25.8503 1.15331 25.8503 1.11329C25.8503 1.02526 26.5626 0.352959 26.7787 0.240909C26.9628 0.136863 27.8111 0.0408206 27.8751 0.112852ZM21.8968 18.2169C21.9608 18.2889 22.0728 18.1208 22.0328 18.0088C21.9848 17.8887 21.9768 17.8967 21.9288 18.0328C21.8968 18.1128 21.8808 18.2009 21.8968 18.2169ZM26.4906 33.7837L26.1304 33.9518L25.9944 34.6321C25.6823 36.1608 25.7303 37.1372 26.1384 37.5214C26.2425 37.6174 26.3305 37.7535 26.3305 37.8175C26.3305 37.8816 26.4026 38.0256 26.4906 38.1537C26.6747 38.4178 26.7227 39.0661 26.5786 39.4182C26.5226 39.5463 26.4906 39.8264 26.5066 40.0425L26.5306 40.4347L27.0108 39.7224C27.427 39.0981 28.2833 38.2337 28.4834 38.2337C28.5154 38.2337 28.5874 38.1457 28.6354 38.0336C28.6915 37.9216 28.8195 37.7935 28.9316 37.7535C29.0436 37.7135 29.1396 37.6254 29.1396 37.5534C29.1877 36.9531 29.1797 36.9131 28.8835 36.593C28.4033 36.0728 27.2109 33.9358 27.2109 33.5917C27.2109 33.4876 27.0108 33.5356 26.4906 33.7837Z" fill="black"/>
<path d="M31.4499 6.13973C31.4979 6.22777 31.5139 6.2998 31.4979 6.2998C31.4739 6.2998 31.4179 6.22777 31.3699 6.13973C31.3218 6.05169 31.3058 5.97966 31.3218 5.97966C31.3458 5.97966 31.4019 6.05169 31.4499 6.13973Z" fill="black"/>
<path d="M31.3887 6.33934C31.5888 6.61146 31.5648 6.68349 31.3647 6.42738C31.2687 6.30732 31.2047 6.19527 31.2207 6.17927C31.2367 6.17126 31.3167 6.23529 31.3887 6.33934Z" fill="black"/>
</svg>
