<svg width="150" height="150" viewBox="0 0 150 150" fill="none" xmlns="http://www.w3.org/2000/svg">
    <path d="M75 150C116.421 150 150 116.421 150 75C150 33.5786 116.421 0 75 0C33.5786 0 0 33.5786 0 75C0 116.421 33.5786 150 75 150Z" fill="#627EEA"/>
    <path d="M77.3438 18.75V60.3281L112.5 76.0313L77.3438 18.75Z" fill="white" fill-opacity="0.6"/>
    <path d="M77.3438 18.75L42.1875 76.0313L77.3438 60.3281V18.75Z" fill="white"/>
    <path d="M77.3438 102.985V131.25L112.5 82.5942L77.3438 102.985Z" fill="white" fill-opacity="0.6"/>
    <path d="M77.3438 131.25V102.985L42.1875 82.5942L77.3438 131.25Z" fill="white"/>
    <path d="M77.3438 96.4224L112.5 76.0317L77.3438 60.3286V96.4224Z" fill="white" fill-opacity="0.2"/>
    <path d="M42.1875 76.0317L77.3438 96.4224V60.3286L42.1875 76.0317Z" fill="white" fill-opacity="0.6"/>
</svg>
