<svg width="240" height="243" viewBox="0 0 240 243" fill="none" xmlns="http://www.w3.org/2000/svg">
    <g filter="url(#filter0_d)">
        <path d="M110.203 10.5556C109.96 10.8682 109.508 11.6322 109.196 12.2573C108.692 13.2297 108.605 13.629 108.501 15.105C108.432 16.3031 108.31 16.8761 108.136 17.015C107.824 17.2407 107.911 17.8137 108.31 18.1089C108.518 18.2652 108.536 18.3173 108.345 18.3346C108.188 18.3346 108.154 18.4562 108.206 18.6993C108.258 18.9077 107.529 24.9503 106.591 32.1215C105.653 39.2928 103.726 53.9653 102.319 64.7135L99.7496 84.2478L98.2563 84.1784C97.3361 84.1263 96.5026 83.9874 96.0164 83.779C95.1482 83.397 94.2974 83.3623 92.4568 83.6401L91.1372 83.8311L88.6715 82.6677C87.2998 82.0253 85.4418 81.2265 84.5563 80.8966C83.0977 80.3757 82.7331 80.15 81.4655 79.0039C80.5105 78.1358 79.7291 77.5801 79.1214 77.337C78.0275 76.9376 75.5271 76.3473 74.8499 76.3473C73.947 76.3473 72.471 76.191 71.3771 76C70.37 75.809 70.2137 75.8264 69.606 76.1389C68.6163 76.6425 67.8175 76.764 67.5397 76.4341C67.2619 76.1042 64.5705 76.0174 64.5705 76.3473C64.5705 76.4688 64.3447 76.5036 63.928 76.4341C63.5634 76.3646 62.973 76.2778 62.6257 76.2257C62.2611 76.1563 61.9659 76.0347 61.9659 75.9132C61.9659 75.809 62.3653 74.5414 62.8688 73.1176C63.355 71.6764 63.8412 69.9747 63.9454 69.3149L64.1364 68.1342L64.7962 68.7593C65.3171 69.2455 65.5255 69.3496 65.7686 69.2281C65.9422 69.1239 66.168 69.1239 66.3242 69.2281C66.4458 69.3149 66.6889 69.367 66.8278 69.367C66.9667 69.367 66.9146 69.2975 66.7062 69.2107C66.168 68.985 66.2027 68.8114 66.7583 68.9155C67.0709 68.9676 67.1751 68.9329 67.1056 68.7593C67.0535 68.6204 67.0709 68.5335 67.1403 68.5335C67.5918 68.603 67.6612 68.4814 67.3487 68.1689C67.1577 67.9779 67.0535 67.7174 67.1056 67.5612C67.2098 67.3181 67.2619 67.3354 67.5571 67.6306C67.7307 67.839 68.0085 67.9953 68.1822 67.9779C68.4079 67.9779 68.3732 67.9258 68.0953 67.8216C67.8696 67.7348 67.696 67.5438 67.696 67.4049C67.696 67.266 67.6092 67.1271 67.5223 67.0923C67.2619 67.0055 67.0882 65.738 67.3313 65.738C67.4355 65.738 67.5223 65.8942 67.5223 66.0852C67.5223 66.2762 67.6786 66.5714 67.8522 66.7277C68.0433 66.884 68.1648 67.075 68.1127 67.1618C68.0606 67.2312 68.1127 67.3007 68.1995 67.3007C68.46 67.3007 68.4426 67.0055 68.1648 66.7624C68.0433 66.6409 67.9738 66.2762 68.0259 65.8769C68.078 65.1823 67.887 64.6267 67.314 63.8453C67.1403 63.6196 67.0014 63.3591 67.0014 63.2549C67.0014 63.1507 67.123 63.2202 67.2619 63.4112C67.5744 63.8106 67.0014 62.0395 66.4631 60.9108C66.2548 60.5114 66.1332 60.0079 66.1853 59.8342C66.2374 59.6432 66.22 59.487 66.1332 59.487C66.0638 59.487 65.7339 59.0355 65.3866 58.4625C64.7268 57.4207 63.7717 56.3615 63.4592 56.3615C63.355 56.3441 62.9904 55.9447 62.6605 55.4412C62.3132 54.955 61.8096 54.4341 61.5318 54.2952C61.2366 54.1736 60.8199 53.8784 60.5768 53.6527C60.3337 53.4444 59.8649 53.1318 59.535 52.9929C59.205 52.854 58.7189 52.5588 58.4584 52.3157C58.1979 52.0726 57.9548 51.9337 57.9028 51.9858C57.8507 52.0379 57.7986 52.0032 57.7986 51.899C57.7986 51.5864 56.6526 51.1523 55.8538 51.1523C55.4371 51.1523 54.9335 51.0308 54.7252 50.8919C54.5342 50.753 53.9438 50.5967 53.4229 50.5272C52.6068 50.4404 52.3116 50.4925 51.426 50.8745C50.853 51.135 50.2627 51.3607 50.1238 51.3954C49.325 51.4996 47.4671 52.663 46.5642 53.6006C46.0085 54.1563 45.4702 54.6251 45.3661 54.6251C45.2445 54.6251 45.123 54.6945 45.0882 54.764C45.0709 54.8335 44.741 55.0766 44.3763 55.3023C43.5949 55.7885 43.6297 55.9968 44.4284 55.5801C44.741 55.4238 45.0188 55.3197 45.0535 55.3717C45.0882 55.4065 44.8278 55.7711 44.4631 56.1878C44.1159 56.6046 43.9422 56.8998 44.0811 56.8477C45.0709 56.4483 45.0188 56.4309 44.6715 57.0734C44.4979 57.4033 44.359 57.7332 44.3416 57.8374C44.3416 57.9242 44.2027 57.9937 44.029 57.959C43.8554 57.9242 43.7339 58.011 43.7339 58.1847C43.7339 58.341 43.6123 58.4972 43.4734 58.5493C43.2477 58.6361 43.2998 58.8271 43.7686 59.678L44.3242 60.6851L44.0117 62.0395C43.838 62.7861 43.6644 63.5848 43.5949 63.8279C43.5429 64.071 43.4908 64.453 43.4734 64.6788C43.4734 64.9219 43.3692 65.1302 43.2477 65.1823C42.9351 65.2865 42.9872 65.5296 43.3345 65.599C43.6123 65.6511 43.5776 65.7206 43.1782 66.1373C42.5705 66.7451 42.5705 66.8492 43.1435 66.7277C43.4734 66.6756 43.5602 66.7103 43.4908 66.9013C43.4387 67.0403 43.3866 67.2312 43.3866 67.3181C43.3866 67.4049 43.0914 67.8043 42.7441 68.2036C42.2058 68.794 42.1537 68.8982 42.4489 68.8287C42.7788 68.7419 42.8136 68.8114 42.7962 69.6622C42.7788 70.6867 42.9004 70.9297 43.2998 70.5998C43.6123 70.3394 43.647 70.5998 43.3519 70.9297C43.1609 71.1208 43.1782 71.1729 43.3519 71.2423C43.5255 71.3118 43.5255 71.3812 43.3692 71.5722C43.0914 71.9021 43.2998 72.0931 43.647 71.8153C43.7859 71.6938 43.9075 71.6764 43.9075 71.7806C43.9075 71.8674 43.7859 72.041 43.647 72.1626C43.2129 72.5272 43.3519 72.6835 44.029 72.5793L44.6541 72.4751L44.3763 72.9266C44.029 73.4475 43.9596 73.9163 44.2895 73.5864C44.6021 73.2739 44.8451 73.3433 44.5847 73.6732C44.359 73.9337 44.3937 73.9337 44.8104 73.6559C45.2445 73.3781 45.2792 73.3781 45.3661 73.6906C45.5223 74.1421 45.2966 74.6283 45.0188 74.5241C44.8799 74.472 44.7583 74.5588 44.741 74.7324C44.7062 75.2881 44.6715 75.3749 44.5326 75.6006C44.4284 75.7743 44.5152 75.7916 44.8972 75.7048C45.7481 75.5138 45.9043 75.2186 45.8522 73.9858C45.8002 72.5446 46.0953 72.3536 46.2169 73.7774C46.269 74.5762 46.2343 74.9755 46.0259 75.2881C45.7828 75.6875 45.7828 75.7048 46.0433 75.4791C46.4253 75.1665 46.4773 75.236 46.5468 76.0695L46.5989 76.764L45.2966 76.8856C44.5847 76.955 43.3519 77.0766 42.5878 77.146C41.6155 77.2502 41.0598 77.3891 40.8341 77.5975C40.4174 77.9621 40.0527 77.9795 33.7496 77.91C27.5507 77.8232 27.4466 77.8406 26.9256 78.2399C26.6999 78.4309 26.3874 78.5872 26.2658 78.5872C26.1443 78.5872 25.797 78.8129 25.5192 79.0908C24.8941 79.6985 23.9564 79.9069 21.1609 80.0631C20.0669 80.1152 17.5839 80.3583 15.6565 80.6014C11.2808 81.1223 9.92644 81.1397 9.00616 80.6709C8.17269 80.2368 6.0543 79.9069 5.11665 80.0458C4.00537 80.2368 3.06772 80.8966 1.66125 82.4767C0.220048 84.0916 -0.109865 84.8208 0.0290457 86.0884C0.306867 88.3283 2.70308 90.5856 5.37711 91.0892C5.89803 91.1934 6.50576 91.4712 6.92249 91.8011C7.80805 92.513 9.23189 92.8429 10.8467 92.704C11.6281 92.6519 12.2011 92.6867 12.4442 92.8082C12.6352 92.9124 13.4513 93.086 14.25 93.1729C15.0488 93.2597 16.1601 93.4333 16.7331 93.5375C17.3061 93.659 18.209 93.7632 18.7473 93.7632C19.4939 93.7806 19.8933 93.9021 20.3968 94.2494L21.074 94.7182L24.1127 94.6488C26.7694 94.5967 27.6028 94.6488 30.7978 95.1176C32.812 95.3954 34.6178 95.708 34.8262 95.7948C35.1387 95.899 35.2256 96.09 35.2256 96.5414C35.2256 96.854 35.3471 97.4617 35.486 97.8611C35.6249 98.2605 35.7465 98.7814 35.7465 98.9897C35.7465 99.1981 36.0069 99.6496 36.3369 99.9795C36.6668 100.327 37.014 100.9 37.1182 101.282C37.2224 101.664 37.535 102.289 37.8128 102.671C38.5768 103.73 38.872 104.39 38.872 105.032C38.872 105.432 39.0109 105.744 39.3234 106.039C39.6881 106.369 39.7575 106.56 39.6707 107.012C39.636 107.324 39.636 107.585 39.7054 107.585C39.7749 107.585 39.8444 107.828 39.8617 108.123C39.8791 108.418 40.1222 108.939 40.3826 109.286C40.782 109.825 40.8515 110.051 40.8167 110.936C40.782 111.822 40.8341 112.082 41.2335 112.638C41.6328 113.211 41.6676 113.384 41.5113 113.784C41.4071 114.062 41.2682 114.6 41.2161 114.999C41.1119 115.624 41.1466 115.746 41.3897 115.746C41.6155 115.746 41.6676 115.833 41.5634 116.128C41.4245 116.614 41.4245 116.753 41.546 117.309C41.6502 117.673 41.6328 117.691 41.4939 117.395C41.3376 117.066 41.3203 117.066 41.3203 117.43C41.3029 117.639 41.3897 117.864 41.4766 117.916C41.5807 117.986 41.6155 118.177 41.5634 118.368C41.4939 118.541 41.4418 119.028 41.4418 119.427C41.4418 119.826 41.3203 120.347 41.1814 120.556C41.0251 120.781 40.9904 120.955 41.0598 120.955C41.1466 120.955 41.1293 121.024 41.0251 121.094C40.9035 121.181 40.8688 121.771 40.9556 122.952C41.0598 124.688 41.2161 125.192 42.1711 126.876L42.5184 127.501L42.0496 128.335C41.8065 128.803 41.5807 129.307 41.5634 129.463C41.546 129.741 38.9588 132.415 38.7157 132.415C38.49 132.415 38.1774 133.266 38.1774 133.839C38.1774 134.343 37.8301 134.916 36.6668 136.391C35.7639 137.52 35.8333 138.093 37.0314 139.777L37.8128 140.871L37.5697 141.653C37.4481 142.087 37.1877 142.747 36.9967 143.111C36.3716 144.361 35.2603 147.747 34.3574 151.116C34.2532 151.533 33.8712 152.21 33.5065 152.627C32.7252 153.53 32.5342 154.033 32.2911 155.908C32.1348 156.985 31.9785 157.436 31.4576 158.2C30.3463 159.885 30.4505 161.552 31.7528 163.028L32.4474 163.809V165.615C32.4474 167.473 32.3084 168.202 31.4923 170.442C31.0756 171.571 31.0062 172.039 30.9888 173.915C30.9541 175.964 30.902 176.207 30.2074 178.325C29.617 180.096 29.426 180.982 29.3045 182.475C29.2177 183.517 29.0788 184.854 28.9746 185.427C28.8704 186.017 28.7141 188.292 28.6273 190.497C28.3321 197.182 28.2279 197.79 26.7346 201.367C26.2658 202.478 25.8665 203.034 24.3732 204.684C23.3661 205.777 22.22 206.854 21.8207 207.08C20.1711 207.983 17.2019 210.049 16.681 210.639C15.8128 211.612 15.4308 212.532 15.2224 214.112C14.9967 215.814 15.0314 215.918 16.49 216.717C17.3408 217.168 17.4276 217.185 19.4766 217.116C21.3692 217.047 21.7339 216.977 22.9667 216.474C24.6857 215.779 25.3455 215.31 27.4118 213.4C28.9051 212.011 30.9714 210.292 31.475 210.014C31.5792 209.962 31.9438 209.771 32.2737 209.597C33.5934 208.92 34.3226 208.174 34.6005 207.184C34.9304 206.09 34.9651 203.694 34.6873 202.114L34.4963 201.037L36.2327 197.599C37.1877 195.689 38.2295 193.484 38.5421 192.685C38.8546 191.886 39.4797 190.636 39.9138 189.907C40.3653 189.178 41.0425 188.084 41.4071 187.459C41.7891 186.833 42.2753 185.896 42.4837 185.375C43.0046 184.055 44.359 178.325 44.6194 176.433C44.7931 175.095 45.0361 174.384 46.3037 171.484C48.1964 167.125 48.5436 166.448 48.8736 166.448C49.5681 166.448 51.5129 164.938 51.9817 164.017C52.1032 163.774 52.2595 163.184 52.329 162.715C52.3984 162.229 52.8325 161.013 53.3013 159.989C54.2043 158.044 54.3084 157.367 53.8917 156.551C53.6486 156.082 53.6833 155.943 54.3084 154.085C55.003 152.088 55.9754 149.848 56.2358 149.692C56.4963 149.536 57.2777 150.526 57.3645 151.151C57.486 151.897 57.9548 153.356 58.4584 154.554C58.6668 155.023 59.4134 157.245 60.1427 159.485C61.4797 163.601 61.5144 163.826 60.8025 163.844C60.4205 163.844 60.5594 164.504 61.4276 166.969C61.9138 168.271 62.4 169.991 62.5389 170.772C62.6778 171.553 62.8688 172.283 62.973 172.387C63.0598 172.474 63.5634 172.612 64.0669 172.665L64.9872 172.786L65.6644 174.436C66.029 175.339 67.2271 178.777 68.3211 182.041C69.415 185.323 70.5784 188.552 70.9256 189.23C71.5681 190.515 72.1237 192.477 72.8183 195.915C73.2698 198.172 73.8254 199.561 75.3013 202.114C76.2911 203.815 76.8294 205.326 77.4892 208.208C77.7496 209.25 78.2879 210.969 78.7047 212.028C79.7291 214.633 79.8159 215.137 79.7291 217.932C79.6076 221.006 79.868 222.099 80.962 223.107C81.344 223.489 81.917 223.905 82.1948 224.044C82.49 224.2 84.1222 225.746 85.8412 227.5C88.6368 230.33 89.1056 230.729 90.2516 231.285C91.8664 232.066 93.1166 232.309 94.8009 232.223C95.9122 232.153 96.2942 232.049 97.2492 231.511C97.8743 231.163 98.4473 230.781 98.5515 230.66C98.8814 230.243 98.9509 229.566 98.7599 228.524C98.3953 226.458 98.1001 225.711 97.2666 224.791C96.5026 223.94 94.1932 222.238 92.5089 221.266C92.0748 221.023 91.0156 220.068 90.1474 219.165C88.3069 217.255 87.4908 215.779 87.0567 213.609C86.9004 212.862 86.692 212.081 86.5878 211.889C86.4837 211.681 86.4489 211.23 86.5358 210.743C86.5878 210.309 86.7268 207.132 86.8136 203.694C86.9004 200.256 87.0219 196.627 87.074 195.62C87.1956 193.38 86.7962 191.609 85.4245 188.448C85.2335 187.997 84.9209 186.712 84.7299 185.583C84.5389 184.472 84.0006 182.301 83.5144 180.773C82.6115 177.874 82.6636 178.186 81.8301 170.251L81.726 169.296L82.4379 169.018C82.8372 168.862 83.2019 168.601 83.254 168.445C83.3234 168.306 83.1498 167.698 82.8893 167.108C82.5942 166.448 82.3163 165.389 82.1601 164.295C81.7433 161.309 81.7607 161.326 81.1356 161.378L80.6147 161.43L80.1285 158.426C79.868 156.777 79.4687 154.832 79.2256 154.12C78.9998 153.408 78.6526 152.036 78.4789 151.064C78.2532 149.901 77.9927 149.102 77.7149 148.668C77.2982 148.077 76.8988 146.723 76.8988 145.976C76.8988 145.803 76.7425 145.455 76.5342 145.195C76.1522 144.709 75.284 141.844 75.4229 141.601C75.475 141.531 75.9438 141.305 76.4647 141.114C76.9856 140.923 77.958 140.472 78.6352 140.142C80.5799 139.152 80.9967 138.562 80.0243 138.058C79.5902 137.833 78.8436 136.826 79.0172 136.669C79.0519 136.652 79.5555 136.409 80.1632 136.148C80.771 135.871 81.4134 135.471 81.6044 135.228C82.2469 134.395 81.9343 132.485 80.2327 127.119C79.4513 124.654 78.8609 122.17 77.8538 117.309C77.1245 113.732 76.4994 110.363 76.4473 109.842C76.3953 109.182 76.2737 108.818 76.048 108.627C75.8743 108.488 75.475 107.932 75.1972 107.411L74.6589 106.456L75.6312 100.9C76.1695 97.8437 76.6557 94.6314 76.7252 93.7806C76.8988 91.749 77.5239 89.9605 78.0101 90.1515C78.149 90.2036 78.7047 90.1689 79.2429 90.0647C80.0243 89.9258 80.3195 89.9258 80.6841 90.1168C81.5697 90.5683 84.7994 91.6275 87.1088 92.2178C89.5397 92.8256 91.1372 93.5722 92.4221 94.6661C93.134 95.2739 93.9675 95.5343 94.662 95.3607C94.9051 95.3086 95.3739 95.4301 95.9122 95.6906C96.3637 95.9337 97.0582 96.1247 97.4229 96.1247C97.9959 96.1247 98.0827 96.1768 98.0827 96.5241C98.0827 96.7498 97.7007 99.8579 97.2145 103.435C96.7457 107.012 95.1829 118.906 93.7417 129.897C92.3005 140.871 90.9114 151.429 90.6683 153.339C90.4079 155.249 90.1301 156.863 90.0432 156.916C89.9391 156.985 89.9217 157.159 89.9738 157.315C90.0432 157.471 90.0085 157.593 89.9217 157.593C89.6265 157.593 89.3661 158.287 89.5744 158.548C89.7133 158.704 89.6786 159.155 89.4355 160.215C89.1577 161.5 89.1403 161.795 89.3487 162.802C89.4702 163.427 89.696 164.226 89.8696 164.59C90.1301 165.181 90.2169 165.25 90.6857 165.198L91.224 165.146L91.1719 163.323C91.1198 161.586 91.3455 160.006 91.6928 159.555C91.7796 159.433 91.8144 159.26 91.7623 159.173C91.6928 159.086 91.7796 158.93 91.9359 158.843C92.0922 158.756 92.2137 158.461 92.2311 158.183C92.2658 157.228 95.3045 153.304 98.5863 149.987C102.424 146.098 102.441 146.063 104.959 138.614C105.567 136.808 106.226 135.054 106.417 134.707C107.147 133.457 108.57 131.721 108.796 131.79C108.918 131.842 109.022 131.773 109.022 131.634C109.022 131.495 109.143 131.373 109.282 131.373C109.439 131.373 109.491 131.269 109.421 131.113C109.369 130.939 109.421 130.852 109.56 130.887C109.716 130.922 109.803 130.783 109.803 130.557C109.803 130.14 111.974 127.432 115.69 123.23C117.617 121.024 120.204 117.777 120.656 116.961C120.777 116.736 120.881 116.77 121.263 117.135C122.062 117.882 122.218 118.385 122.218 120.174C122.218 121.91 122.323 122.084 122.982 121.597C123.364 121.32 123.59 120.313 123.608 118.923V117.847L122.305 116.319C121.593 115.485 121.003 114.739 121.003 114.652C121.003 114.582 121.541 114.982 122.201 115.537C124.25 117.257 124.945 117.465 125.379 116.527C125.57 116.11 125.518 116.024 124.823 115.346C124.424 114.947 123.712 114.079 123.26 113.402C122.739 112.638 122.201 112.065 121.802 111.856C121.072 111.457 119.753 109.616 119.232 108.227C118.937 107.446 118.902 106.977 118.954 104.928C118.989 103.105 119.058 102.497 119.249 102.393C119.423 102.271 119.492 101.872 119.492 100.917L119.475 99.5975L120.117 99.6843C121.541 99.8927 124.076 100.292 124.667 100.396C125.448 100.535 126.039 100.049 126.039 99.2676C126.039 98.6945 125.813 98.4688 124.892 98.1389L124.215 97.8784H125.379C126.108 97.8611 127.063 97.7048 127.914 97.427C129.355 96.9755 129.424 96.9061 129.772 95.6559C129.824 95.4649 129.963 95.2565 130.102 95.2044C130.223 95.1523 131.56 95.1871 133.088 95.2739C134.599 95.3433 138.853 95.5864 142.534 95.7774C150.643 96.2115 160.367 96.7324 166.93 97.0797C179.78 97.7743 188.409 98.2257 193.323 98.4688C196.293 98.6251 198.862 98.8335 199.036 98.9377C199.227 99.0418 200.877 99.1981 202.717 99.3023L206.068 99.4759L206.867 100.674C207.527 101.664 207.718 101.837 208.048 101.768C208.256 101.716 210.774 101.247 213.639 100.726C220.22 99.5107 220.567 99.4065 219.508 98.9203C219.057 98.7119 208.065 95.4301 207.84 95.4301C207.77 95.4301 207.371 95.899 206.954 96.4546L206.173 97.4791L200.616 97.4096C197.56 97.3923 192.75 97.236 189.937 97.0797C184.624 96.8019 181.794 96.663 173.095 96.2115C143.142 94.6835 130.432 94.0237 130.136 93.9716C129.859 93.9369 129.685 93.6764 129.459 92.9297C129.233 92.2352 129.008 91.8879 128.713 91.749C128.383 91.5927 128.296 91.4191 128.296 90.9155C128.296 89.648 127.862 89.5091 122.67 89.0055C121.715 88.9013 120.916 88.7971 120.881 88.7624C120.743 88.6409 121.211 85.2723 121.385 85.1681C121.559 85.0466 121.645 84.6993 121.75 83.3623C121.802 82.824 122.08 82.3031 122.965 81.105C123.608 80.2368 124.128 79.438 124.128 79.2991C124.128 79.1776 123.92 78.6046 123.677 78.0663C123.069 76.7119 123.243 76.2084 124.84 74.6109C125.83 73.6212 126.247 73.3433 127.132 73.0481C128.001 72.753 128.435 72.4751 129.251 71.6243C129.824 71.0513 130.623 70.3741 131.039 70.131C131.821 69.6622 131.977 69.2107 131.525 68.603C131.3 68.2905 131.265 68.2905 130.449 68.603C129.98 68.7766 129.112 69.2281 128.504 69.6101C127.723 70.0963 127.358 70.2526 127.219 70.1136C127.028 69.9227 127.115 69.8706 129.511 68.221C130.692 67.4049 131.039 66.7277 131.178 65.0087C131.282 63.7758 131.265 63.689 130.883 63.4286C130.657 63.2723 130.414 63.2028 130.345 63.2723C130.275 63.3418 130.067 64.0537 129.876 64.8698C129.563 66.1894 129.442 66.4151 128.799 66.9882C128.4 67.3528 127.983 67.648 127.844 67.648C127.705 67.648 127.549 67.266 127.445 66.6409C126.976 64.1752 126.16 61.2234 125.518 59.7822C125.136 58.9313 124.875 58.15 124.927 58.0631C124.979 57.9763 124.892 57.6985 124.719 57.438C124.042 56.3962 123.99 56.4483 127.758 53.0797C129.251 51.7427 129.303 51.6038 128.435 51.135C128.157 50.9787 127.966 51.0829 127.341 51.6559C125.934 52.9582 125.5 52.4893 125.848 50.041C126.16 47.749 126.125 47.6622 125.083 48.5651C124.493 49.086 124.476 49.1555 124.476 50.2841C124.476 51.8469 123.555 54.7987 123.069 54.7987C123.017 54.7987 122.722 54.3473 122.444 53.7916C121.732 52.4546 121.645 51.3954 122.062 49.5028C122.479 47.5754 122.479 47.3323 122.114 47.7837C121.871 48.0963 121.871 48.0789 122.08 47.6796C122.236 47.3844 122.305 46.4294 122.305 44.5541C122.305 42.1058 122.236 41.5848 121.628 38.7372C121.263 37.0181 120.899 35.4728 120.812 35.3165C120.725 35.1429 120.69 34.8303 120.743 34.6219C120.795 34.3962 120.621 33.4412 120.326 32.4862C120.048 31.5312 119.718 30.2462 119.614 29.6212C119.232 27.659 117.999 24.7593 117.513 24.7593C117.426 24.7593 117.079 25.0024 116.766 25.2975C116.263 25.749 115.863 26.4609 115.151 28.232C114.995 28.614 114.874 28.4404 113.675 26.1484C112.061 23.0403 110.411 18.5604 110.776 18.2999C110.949 18.1784 110.967 18.1089 110.81 18.0568C110.689 18.0047 110.654 17.8484 110.706 17.6922C110.758 17.5533 110.706 17.3623 110.585 17.2928C110.463 17.2234 110.428 17.0671 110.498 16.9455C110.567 16.824 110.619 16.0947 110.602 15.3133C110.567 14.0631 110.637 13.7159 111.175 12.3094C111.522 11.4238 111.8 10.6598 111.8 10.6251C111.8 10.5383 110.845 10 110.706 10C110.654 10 110.428 10.2605 110.203 10.5556ZM109.525 21.5296C110.029 23.1792 110.793 24.9676 112.165 27.7285C113.224 29.8642 114.196 32.0521 114.318 32.573C114.613 33.8406 114.804 35.1776 114.683 35.1776C114.63 35.1776 114.37 34.7608 114.127 34.2573C113.537 33.0939 112.061 31.236 111.609 31.0971C111.106 30.9234 110.289 31.8958 109.942 33.0939C109.525 34.4309 109.56 36.0979 109.994 36.584C110.515 37.1571 111.192 37.4349 112.182 37.4522L113.102 37.487L112.321 37.6259C111.401 37.7822 110.689 37.678 110.394 37.3307C110.046 36.914 109.907 37.0702 110.098 37.6432C110.342 38.3899 111.748 39.8484 112.408 40.0221L112.929 40.161L112.425 40.2999C112.061 40.4041 111.765 40.352 111.418 40.161C111.158 40.0047 110.932 39.9179 110.932 39.97C110.932 40.2305 111.436 41.2028 111.696 41.4112C111.904 41.5848 111.939 41.689 111.783 41.7932C111.627 41.88 111.679 42.071 111.939 42.4878C112.286 43.0781 114.075 46.3078 114.526 47.2107C114.665 47.4712 114.856 47.6275 114.96 47.5754C115.082 47.5059 115.099 47.5406 115.03 47.6448C114.96 47.7664 115.221 48.0789 115.707 48.4088C116.141 48.704 116.488 49.0339 116.488 49.1034C116.488 49.1902 116.158 49.1902 115.759 49.1381L115.012 49.0166L115.551 49.6069C115.846 49.9369 116.297 50.5099 116.558 50.8919C116.801 51.2739 117.252 51.6906 117.565 51.8469C117.877 51.9858 118.225 52.2983 118.346 52.5414C118.537 52.9061 118.52 52.9929 118.259 53.0797C118.016 53.1665 118.051 53.2013 118.381 53.2534C118.711 53.3054 119.058 53.7395 119.822 55.0071C120.812 56.6046 120.847 56.7088 120.673 57.3339C120.552 57.7853 120.552 58.0631 120.673 58.202C120.795 58.3583 120.725 58.6709 120.43 59.2612C119.683 60.7198 119.353 63.3938 119.406 67.5612C119.423 69.558 119.527 72.614 119.631 74.3504C119.805 76.7987 119.788 77.8927 119.631 79.3859C119.388 81.5217 119.128 82.7893 118.867 82.9629C118.659 83.0844 118.607 83.3449 118.503 84.6646C118.468 85.1855 118.312 86.3315 118.138 87.217L117.843 88.7971L116.94 88.9187C116.454 88.9882 115.516 89.2486 114.839 89.4743C113.085 90.0994 112.634 90.1515 112.252 89.7174C112.061 89.5091 111.818 89.3528 111.679 89.3528C111.557 89.3528 111.366 89.1618 111.262 88.9361C111.036 88.4672 110.324 88.2068 110.012 88.4672C109.838 88.5888 108.675 88.6235 107.615 88.5193C107.459 88.502 107.286 88.3283 107.233 88.1373C107.181 87.9637 106.851 87.6685 106.487 87.4949C106.105 87.3386 105.48 86.9392 105.08 86.6267C104.177 85.9147 103.309 85.5327 102.563 85.5327C102.215 85.5327 101.677 85.3244 101.208 85.0118C100.774 84.734 100.323 84.4909 100.218 84.4909C100.08 84.4909 100.027 84.3173 100.08 84.0047C100.271 82.9629 108.501 19.9495 108.501 19.5848C108.501 18.6993 108.831 19.3418 109.525 21.5296ZM117.791 32.573C118.016 32.6598 118.034 32.7293 117.877 32.7293C117.739 32.7293 117.461 32.6598 117.27 32.573C117.044 32.4862 117.027 32.4167 117.183 32.4167C117.322 32.4167 117.6 32.4862 117.791 32.573ZM121.177 50.996C121.177 51.1002 121.107 51.1176 121.003 51.0655C120.916 51.0134 120.829 50.8745 120.829 50.7877C120.829 50.6835 120.916 50.6661 121.003 50.7182C121.107 50.7703 121.177 50.9092 121.177 50.996ZM123.451 62.0916C123.729 62.9945 124.163 64.6961 124.406 65.8769C124.771 67.7001 124.806 68.1689 124.649 69.0024C124.25 71.2597 122.34 73.7601 121.975 72.5446C121.923 72.3883 121.802 70.7908 121.698 69.0197C121.507 65.3907 121.698 61.8311 122.166 60.5462C122.427 59.8342 122.462 59.7995 122.687 60.1121C122.826 60.2857 123.156 61.1886 123.451 62.0916ZM66.8278 68.1863C66.8278 68.8461 66.411 68.794 66.3416 68.1168C66.3069 67.7869 66.359 67.648 66.55 67.648C66.741 67.648 66.8278 67.8216 66.8278 68.1863ZM127.81 92.5651C127.844 92.895 127.862 93.1729 127.827 93.1729C127.81 93.1729 127.653 92.9645 127.497 92.7214C127.237 92.3394 127.237 92.2526 127.445 92.1136C127.584 92.0268 127.705 91.9574 127.705 91.9574C127.723 91.9574 127.775 92.2352 127.81 92.5651ZM100.618 96.2115C100.896 96.3504 101.434 96.472 101.816 96.472C102.198 96.472 102.892 96.5935 103.361 96.7324C103.83 96.8714 104.803 96.9929 105.514 96.9929C106.522 96.9929 106.886 97.0623 107.233 97.3228C107.824 97.7916 108.935 97.9305 109.994 97.6354C111.071 97.3575 112.234 97.5485 114.231 98.3473C114.943 98.6425 115.742 98.9377 116.02 98.9897C116.402 99.0939 116.488 99.2155 116.488 99.6669C116.488 99.9795 116.419 100.292 116.332 100.396C116.054 100.691 115.985 101.994 116.245 102.098C116.575 102.219 116.558 103.157 116.228 103.47C116.089 103.626 115.724 103.782 115.412 103.852C114.353 104.06 114.248 104.129 114.057 104.737C113.762 105.623 113.953 106.144 114.735 106.543C115.117 106.734 115.464 106.942 115.516 107.029C115.568 107.116 115.499 107.706 115.36 108.349C115.221 108.991 115.03 110.155 114.926 110.936C114.821 111.717 114.492 113.645 114.196 115.225C113.745 117.639 113.519 118.403 112.738 120.139C111.835 122.17 110.428 124.341 109.56 125.07C109.317 125.279 108.796 125.522 108.397 125.626C107.633 125.817 107.008 126.373 107.199 126.685C107.338 126.928 106.452 127.987 106.087 127.987C105.914 127.987 105.827 128.109 105.862 128.3C105.896 128.491 105.792 128.595 105.567 128.595C105.323 128.595 105.237 128.682 105.306 128.856C105.376 129.029 105.306 129.116 105.115 129.116C104.959 129.116 104.889 129.203 104.959 129.307C105.011 129.411 104.837 129.741 104.542 130.036C104.264 130.349 103.934 130.766 103.83 130.974C103.657 131.339 103.726 131.894 103.969 131.894C104.021 131.894 104.177 131.964 104.316 132.051C104.49 132.172 104.421 132.398 103.917 133.127C103.465 133.787 102.997 134.968 102.319 137.103C99.385 146.341 99.6455 145.82 96.1032 149.692C94.4016 151.55 92.9083 153.391 92.0574 154.676C91.3108 155.787 90.6683 156.707 90.6162 156.707C90.5121 156.725 98.4126 96.4373 98.4994 96.3331C98.5342 96.3157 98.8988 96.2289 99.3155 96.1421C99.7323 96.0553 100.097 95.9858 100.097 95.9684C100.114 95.9511 100.357 96.0726 100.618 96.2115ZM40.4347 108.679C40.4347 108.766 40.3653 108.766 40.2611 108.713C40.1743 108.661 40.0874 108.47 40.0874 108.314C40.0874 108.054 40.1222 108.054 40.2611 108.279C40.3479 108.418 40.4347 108.609 40.4347 108.679ZM118.225 112.777C118.503 114.6 118.346 115.555 117.495 117.135C116.784 118.489 114.995 121.25 114.717 121.406C114.648 121.459 114.769 121.042 115.012 120.486C115.533 119.34 115.794 118.212 116.488 114.131C116.749 112.534 117.079 111.092 117.2 110.953C117.582 110.485 117.982 111.214 118.225 112.777ZM41.0772 111.961C41.0251 112.099 40.973 112.047 40.973 111.856C40.9556 111.665 41.0077 111.561 41.0598 111.631C41.1119 111.683 41.1293 111.839 41.0772 111.961Z" fill="black"/>
    </g>
    <defs>
        <filter id="filter0_d" x="0" y="0" width="239.964" height="242.239" filterUnits="userSpaceOnUse" color-interpolation-filters="sRGB">
            <feFlood flood-opacity="0" result="BackgroundImageFix"/>
            <feColorMatrix in="SourceAlpha" type="matrix" values="0 0 0 0 0 0 0 0 0 0 0 0 0 0 0 0 0 0 127 0"/>
            <feOffset dx="10"/>
            <feGaussianBlur stdDeviation="5"/>
            <feColorMatrix type="matrix" values="0 0 0 0 0.384314 0 0 0 0 0.494118 0 0 0 0 0.917647 0 0 0 1 0"/>
            <feBlend mode="normal" in2="BackgroundImageFix" result="effect1_dropShadow"/>
            <feBlend mode="normal" in="SourceGraphic" in2="effect1_dropShadow" result="shape"/>
        </filter>
    </defs>
</svg>
