<svg width="150" height="150" viewBox="0 0 150 150" fill="none" xmlns="http://www.w3.org/2000/svg">
    <path d="M75 150C94.8912 150 113.968 142.098 128.033 128.033C142.098 113.968 150 94.8912 150 75C150 55.1088 142.098 36.0322 128.033 21.967C113.968 7.90176 94.8912 0 75 0C55.1088 0 36.0322 7.90176 21.967 21.967C7.90176 36.0322 0 55.1088 0 75C0 94.8912 7.90176 113.968 21.967 128.033C36.0322 142.098 55.1088 150 75 150Z" fill="black"/>
    <path d="M109.219 33H123.234L94.0781 63.1875C91.6211 65.7775 88.6625 67.8401 85.3826 69.2496C82.1026 70.6591 78.57 71.386 75 71.386C71.43 71.386 67.8974 70.6591 64.6174 69.2496C61.3375 67.8401 58.3789 65.7775 55.9219 63.1875L26.7187 33H40.7812L62.9062 55.9687C64.4651 57.6083 66.341 58.9137 68.42 59.8058C70.499 60.6978 72.7377 61.1578 75 61.1578C77.2623 61.1578 79.501 60.6978 81.58 59.8058C83.659 58.9137 85.5349 57.6083 87.0938 55.9687L109.219 33ZM40.5937 117H26.5781L55.9219 86.5781C58.383 83.9868 61.3456 81.9234 64.6294 80.5133C67.9133 79.1033 71.4497 78.3761 75.0234 78.3761C78.5972 78.3761 82.1336 79.1033 85.4175 80.5133C88.7013 81.9234 91.6639 83.9868 94.125 86.5781L123.422 117.047H109.406L87.1406 93.8438C85.5818 92.2042 83.7059 90.8988 81.6269 90.0067C79.5479 89.1147 77.3092 88.6547 75.0469 88.6547C72.7846 88.6547 70.5459 89.1147 68.4669 90.0067C66.3879 90.8988 64.512 92.2042 62.9531 93.8438L40.5937 117Z" fill="white"/>
</svg>
