<svg width="194" height="257" viewBox="0 0 194 257" fill="none" xmlns="http://www.w3.org/2000/svg">
    <g filter="url(#filter0_d)">
        <mask id="path-1-inside-1" fill="white">
            <path d="M80.1972 10.2494C80.0947 10.3725 79.9306 10.9879 79.869 11.6032C79.787 12.2186 79.6024 13.2443 79.4588 13.8596C79.0485 15.5827 78.6793 19.5417 78.7818 21.1417C78.8434 21.9212 78.987 23.3161 79.1511 24.2186C79.3972 25.8186 79.3767 25.9417 78.7818 28.2186C77.9818 31.2955 77.0793 33.5725 74.6588 38.5776C69.4895 49.2443 63.0895 58.3109 55.1716 66.1468C51.5818 69.6955 49.1203 71.8289 43.1511 76.5879C37.0177 81.4904 33.6947 84.3622 32.0331 86.1673L30.6383 87.6853L24.4844 85.3673C11.0075 80.3212 3.86903 78.0648 1.24339 78.0648C-0.315587 78.0648 -0.397638 78.4955 0.935695 79.6853C2.96646 81.552 9.0998 84.752 20.8126 90.0648L28.0331 93.3263L28.3818 94.5776C28.8536 96.3212 29.5101 97.3263 31.0895 98.7827C34.3101 101.716 40.8947 103.89 46.6383 103.911C47.7254 103.911 48.7921 104.055 49.8177 104.362C51.2742 104.793 51.4588 104.916 53.469 106.865L55.5818 108.916L55.4588 107.993C55.3972 107.501 55.2947 106.844 55.2536 106.516L55.1511 105.962L55.828 106.29C56.1767 106.496 56.8126 106.844 57.2434 107.111L57.9818 107.583L58.1254 110.27C58.3101 113.326 58.3101 113.347 60.2177 113.347C60.8126 113.347 61.346 113.49 61.7152 113.757L62.2895 114.167L61.6742 116.157C61.346 117.265 60.8947 118.762 60.669 119.48C60.4434 120.198 60.2793 120.813 60.3203 120.834C60.4229 120.957 66.8844 116.055 67.4588 115.419C67.9511 114.885 69.1203 114.372 69.8793 114.372C70.0229 114.372 70.3921 114.496 70.6998 114.66C72.4024 115.521 72.6895 115.09 71.2536 113.778C70.4126 112.998 70.2485 112.937 69.2229 112.937C68.0742 112.937 67.4588 112.608 67.4588 112.013C67.4588 111.849 67.7049 111.214 68.0126 110.578C68.546 109.511 68.6075 109.449 69.3459 109.449C69.9818 109.449 70.1665 109.552 70.3101 109.901C70.5562 110.516 71.7459 111.624 72.3408 111.808C72.587 111.87 72.7921 112.013 72.7921 112.116C72.7921 112.198 73.3665 112.875 74.0844 113.613C75.2742 114.865 75.6229 115.07 77.3049 115.501C77.9408 115.665 79.3152 115.87 79.4998 115.849C79.6229 115.808 80.0536 115.993 80.4229 116.219C81.4075 116.813 82.0844 116.752 82.7203 116.013L83.2331 115.398L83.91 115.808C85.8177 116.978 88.1767 115.685 88.1767 113.47C88.1767 112.157 86.3716 110.701 85.0588 110.967L84.4229 111.09L84.5665 110.249C84.669 109.634 84.6075 109.265 84.3818 108.916C83.9716 108.301 83.91 108.301 83.1101 109.039C82.7408 109.388 82.4331 109.655 82.3921 109.655C82.228 109.655 82.3511 106.372 82.5357 106.208C82.6588 106.085 83.1511 105.962 83.6639 105.921C84.4229 105.839 84.8126 105.962 85.8998 106.557C87.0485 107.172 87.3972 107.275 88.7511 107.275L90.2895 107.296L90.6177 108.444C90.8229 109.121 91.3357 110.106 91.9511 110.906C92.9767 112.26 93.2024 112.67 93.387 113.572C93.4485 113.88 93.8177 114.516 94.2075 114.967C94.5972 115.439 94.9665 115.972 95.028 116.178C95.2947 117.06 95.6024 120.219 95.6024 122.27C95.6024 124.137 95.5408 124.547 95.2742 124.67C95.0895 124.772 94.7818 124.916 94.5972 125.019C94.3921 125.101 94.187 125.408 94.1665 125.675C94.1254 125.942 94.0024 126.249 93.8998 126.372C93.5921 126.68 93.6947 127.193 94.2485 128.198L94.7818 129.142L94.146 129.901C93.7972 130.331 93.51 130.824 93.51 130.988C93.51 131.172 93.7972 131.767 94.146 132.321C95.028 133.696 95.028 134.619 94.1665 135.583C93.7972 135.993 93.3049 136.731 93.0793 137.203C92.8331 137.675 92.4639 138.29 92.2588 138.557C92.0331 138.824 91.869 139.213 91.869 139.419C91.869 139.624 91.5818 140.321 91.2536 140.978C90.9049 141.634 90.5767 142.537 90.5152 142.988C90.2485 144.69 88.7306 150.475 87.8485 153.101C87.3357 154.619 86.8229 156.362 86.7203 156.978C86.5972 157.613 86.3306 158.372 86.1049 158.68C85.8793 158.988 85.7152 159.46 85.7562 159.726C85.8383 160.403 84.6075 164.178 83.6229 166.27C82.9665 167.665 82.7818 168.321 82.6998 169.593C82.5972 170.988 82.5152 171.234 82.0024 171.726C81.6742 172.034 81.4075 172.383 81.4075 172.485C81.4075 172.588 81.2229 172.896 80.9972 173.183C80.7101 173.552 80.587 174.024 80.587 174.701C80.587 175.849 80.0331 178.352 79.7049 178.762C79.4588 179.049 79.1306 182.085 79.1306 183.911C79.1511 185.449 78.9665 186.167 78.6383 186.044C78.228 185.88 78.0024 186.537 78.2895 187.008C78.5972 187.501 78.5972 188.075 78.2895 188.383C78.1254 188.547 78.1254 188.69 78.2895 188.875C78.3921 189.019 78.5562 189.778 78.6383 190.578L78.7818 192.014L77.5511 193.203L76.3203 194.414L75.3972 193.101C74.9049 192.403 74.0434 191.07 73.4895 190.188C72.3408 188.342 72.0536 188.096 71.2742 188.301C70.5357 188.485 70.5357 188.444 72.628 193.757C74.5972 198.742 74.8434 199.275 75.7665 200.28C76.1357 200.711 76.5254 201.306 76.587 201.593C76.669 201.88 76.9767 202.414 77.2639 202.762C77.7152 203.275 78.0229 203.419 78.8434 203.521C81.0177 203.767 81.1408 203.911 81.8177 206.988C82.1254 208.403 82.228 209.613 82.228 212.137C82.228 215.521 82.3101 215.911 83.0895 215.911C83.4177 215.911 83.4588 216.116 83.4588 217.675C83.4588 218.639 83.5613 219.829 83.6844 220.342C83.9716 221.47 84.8947 222.331 85.6331 222.147C86.1049 222.024 86.1254 222.065 86.1254 223.152C86.1254 223.767 86.269 224.67 86.4536 225.162C86.6383 225.655 86.7818 226.311 86.7613 226.598C86.7408 226.906 86.9254 227.767 87.1716 228.506L87.5818 229.88L86.3306 231.316C85.6331 232.096 84.9357 232.731 84.7716 232.731C84.628 232.731 83.787 233.121 82.9049 233.572C81.7767 234.188 81.0383 234.434 80.3613 234.455C79.1306 234.496 76.8742 235.624 75.7665 236.731C74.8434 237.655 74.228 239.214 74.228 240.649C74.228 241.47 74.269 241.552 74.7408 241.552C75.028 241.552 75.5613 241.675 75.9306 241.839C76.2998 241.983 77.8383 242.414 79.3357 242.762C82.187 243.46 84.546 243.624 85.8383 243.234C86.2485 243.111 87.5818 243.09 89.3254 243.214C93.3254 243.439 93.3049 243.439 93.3049 243.07C93.3049 242.885 93.428 242.783 93.5921 242.844C93.7357 242.906 94.8024 243.172 95.9306 243.419C97.8793 243.849 98.146 243.87 99.8075 243.624C100.813 243.48 102.064 243.337 102.618 243.296C104.054 243.193 104.628 243.029 105.141 242.537C105.49 242.208 105.551 242.024 105.407 241.655C105.018 240.649 104.977 238.721 105.284 236.485C105.551 234.331 105.654 234.065 106.536 232.629C107.274 231.439 107.459 231.029 107.274 230.803C107.11 230.598 107.151 230.434 107.479 230.147C107.725 229.942 108.115 229.388 108.382 228.937C108.895 228.055 110.064 224.424 110.166 223.398C110.228 222.803 110.207 222.783 109.428 222.803C108.936 222.824 107.869 223.214 106.536 223.89C105.366 224.465 104.32 224.937 104.218 224.937C104.033 224.937 103.52 223.89 103.438 223.378C103.418 223.255 103.172 222.926 102.884 222.639C102.392 222.126 102.372 222.106 102.679 221.019C102.843 220.403 103.007 219.111 103.028 218.147C103.09 216.916 103.213 216.219 103.459 215.849C103.869 215.193 103.828 214.496 103.131 211.972C102.7 210.393 102.679 210.065 102.884 208.855C103.007 208.075 103.52 206.639 104.115 205.408L105.1 203.296V200.896C105.1 198.803 105.038 198.434 104.669 197.942C103.849 196.814 103.233 196.526 101.551 196.465L99.9716 196.383L99.3152 195.337C98.9459 194.742 98.6383 194.003 98.6383 193.655C98.6383 193.326 98.4126 192.567 98.146 191.993C97.8793 191.419 97.6742 190.701 97.6742 190.393C97.6742 189.675 97.2229 189.224 95.9716 188.629C95.3972 188.362 94.9459 188.055 94.9459 187.952C94.9459 187.521 97.1408 183.562 98.1665 182.167C99.6229 180.157 100.977 177.552 100.69 177.265C100.32 176.896 100.464 176.424 101.305 175.296C101.756 174.68 102.29 173.819 102.495 173.347C102.679 172.896 103.151 171.931 103.52 171.193C103.91 170.455 104.443 169.408 104.71 168.875C104.997 168.342 105.654 167.275 106.207 166.516C106.761 165.757 107.787 164.034 108.505 162.68C109.223 161.326 110.269 159.583 110.823 158.824C111.828 157.429 111.849 157.429 112.095 157.901C112.238 158.188 112.607 159.357 112.895 160.526C113.407 162.578 113.428 162.742 113.223 165.224C113.1 166.639 112.936 168.198 112.874 168.69C112.792 169.326 112.833 169.696 113.1 170.085C113.407 170.557 113.407 170.721 113.12 171.993C112.936 172.752 112.813 174.065 112.813 174.906C112.813 175.747 112.813 177.531 112.792 178.885C112.751 180.239 112.813 182.311 112.895 183.501C112.956 184.69 113.018 186.455 113.018 187.439C112.997 188.649 113.141 189.921 113.49 191.439C113.756 192.649 114.043 193.983 114.105 194.414C114.187 194.885 114.433 195.275 114.741 195.48C115.069 195.706 115.233 195.972 115.192 196.26C115.172 196.567 115.295 196.793 115.582 196.916C115.807 197.019 116.197 197.408 116.443 197.778C116.854 198.414 116.874 198.537 116.607 199.542C116.464 200.137 116.259 200.629 116.156 200.629C116.054 200.608 115.295 200.28 114.454 199.849C112.895 199.09 112.587 199.07 111.992 199.788C111.849 199.952 111.787 200.28 111.869 200.506C112.197 201.593 120.156 208.813 122.002 209.696C122.966 210.167 123.192 210.208 123.91 210.024L124.71 209.819L125.9 211.275C128.197 214.106 129.613 216.096 131.069 218.496C132.997 221.696 133.797 222.762 134.638 223.296L135.356 223.747V225.429V227.131L136.382 228.096C136.936 228.608 137.49 229.039 137.613 229.039C137.756 229.039 137.756 229.183 137.592 229.49C137.449 229.757 137.387 230.578 137.449 231.685C137.51 232.752 137.449 233.901 137.284 234.619C136.977 235.952 135.849 237.839 135.131 238.249C134.351 238.68 133.654 239.685 133.182 241.06C132.956 241.757 132.607 242.496 132.423 242.68C132.238 242.865 132.074 243.214 132.074 243.46C132.095 244.014 132.956 245.039 133.428 245.039C133.613 245.039 134.043 245.285 134.392 245.572C135.007 246.085 135.11 246.106 136.587 245.983C138.7 245.778 146.105 245.408 147.377 245.429C148.361 245.449 148.464 245.408 149.284 244.485C150.043 243.665 150.146 243.439 150.064 242.865C149.961 242.311 150.084 242.065 150.679 241.367C151.254 240.67 151.377 240.403 151.274 239.952C150.618 237.306 150.679 236.855 151.705 236.834C152.197 236.834 152.361 236.649 152.751 235.603C153.469 233.737 153.469 233.49 152.915 230.639L152.402 227.911L152.895 225.757C153.182 224.567 153.407 223.09 153.428 222.475C153.449 221.039 152.71 218.988 151.254 216.342C150.536 215.09 150.064 213.942 149.941 213.183C149.818 212.547 149.633 211.829 149.51 211.603C148.997 210.66 147.972 211.296 146.433 213.49C146.064 214.044 145.736 214.475 145.736 214.475C145.715 214.475 145.715 212.793 145.736 210.721C145.736 208.67 145.674 206.701 145.572 206.352C145.469 205.942 145.059 205.47 144.464 205.039C143.254 204.178 142.741 203.337 142.741 202.167C142.741 201.47 142.556 200.957 142.023 200.075C141.469 199.172 141.264 198.557 141.1 197.367C140.874 195.542 140.341 194.393 139.397 193.675C138.597 193.06 136.361 192.014 135.418 191.829C134.905 191.706 134.638 191.46 134.228 190.742C133.879 190.085 133.777 189.716 133.92 189.572C134.187 189.306 134.187 188.485 133.92 188.321C133.818 188.26 133.428 188.178 133.059 188.137C132.69 188.096 131.931 187.788 131.397 187.439C130.843 187.09 130.064 186.762 129.654 186.68L128.895 186.557L128.854 184.362C128.813 182.947 128.915 181.798 129.1 181.142C129.715 178.967 130.228 176.588 130.228 175.849C130.228 175.439 130.515 174.393 130.864 173.511C131.418 172.137 131.52 171.603 131.561 169.757C131.582 168.547 131.807 166.783 132.033 165.757C132.279 164.67 132.443 163.131 132.443 162.044C132.464 161.039 132.607 159.501 132.792 158.66C132.977 157.839 133.182 156.813 133.243 156.424C133.407 155.357 134.331 152.567 134.864 151.48C135.131 150.967 135.274 150.352 135.233 150.106C135.172 149.88 135.438 148.649 135.828 147.357C136.3 145.798 136.649 144.013 136.895 141.942L137.264 138.844L136.792 136.403C136.546 135.07 135.931 132.711 135.418 131.193C134.597 128.69 134.536 128.301 134.659 127.131C134.761 126.167 134.72 125.675 134.474 125.183C134.31 124.813 134.023 124.178 133.838 123.747C133.531 123.029 131.192 120.403 129.428 118.803C128.607 118.044 125.654 113.819 124.751 112.096C124.382 111.398 123.951 110.68 123.787 110.496C123.069 109.716 122.843 108.649 122.761 105.839C122.7 103.706 122.761 102.926 122.966 102.496C123.172 102.147 123.254 101.449 123.213 100.403C123.172 98.9468 123.213 98.8032 123.766 98.1263C124.115 97.7366 124.772 97.1622 125.264 96.8545C126.679 95.9725 126.331 94.8853 124.649 94.8853H123.972L124.177 92.9776C124.3 91.952 124.505 90.8853 124.649 90.6186C124.813 90.352 125.325 89.9622 125.818 89.7571C126.802 89.3263 127.049 88.752 126.577 87.952C126.372 87.6237 126.084 87.5007 125.592 87.5007C124.977 87.5007 124.895 87.4391 124.895 86.9879C124.895 86.7007 124.936 86.475 124.997 86.475C125.059 86.475 125.613 86.8237 126.249 87.234C126.987 87.7263 127.336 88.075 127.254 88.2802C126.72 89.6545 126.905 90.352 127.972 91.0699C128.956 91.7058 129.202 91.7263 129.879 91.193L130.413 90.7622L132.156 92.0545C133.12 92.7725 135.643 94.5161 137.777 95.9109L141.654 98.475L142.31 101.101C143.254 104.896 144.218 107.562 145.243 109.265C145.756 110.106 146.372 111.234 146.618 111.808C147.151 113.019 147.89 113.86 148.895 114.372C149.777 114.824 151.131 114.66 152.279 113.983C152.71 113.737 153.059 113.552 153.079 113.593C153.1 113.634 153.325 113.921 153.572 114.249C154.043 114.885 154.166 115.993 153.797 116.362C153.633 116.526 153.654 116.711 153.838 117.06C153.982 117.326 154.269 118.126 154.454 118.803C154.72 119.87 154.741 120.137 154.515 120.547C154.372 120.813 154.249 121.47 154.228 121.983C154.228 122.844 154.166 122.967 153.695 123.07C153.243 123.193 153.182 123.296 153.305 123.767C153.366 124.075 153.633 124.547 153.879 124.793C154.269 125.203 154.474 125.265 155.295 125.183C156.402 125.08 156.69 125.285 157.079 126.455C157.387 127.357 158.269 128.526 158.659 128.526C158.843 128.526 159.192 129.019 159.479 129.696C160.341 131.665 160.443 131.829 160.997 132.096C161.572 132.403 162.597 132.219 162.864 131.767C163.11 131.398 163.09 130.003 162.864 129.183C162.761 128.834 162.7 128.526 162.72 128.526C162.761 128.526 163.192 128.67 163.684 128.855C164.177 129.039 165.182 129.347 165.92 129.552C167.541 129.983 169.079 130.926 169.736 131.89C170.187 132.547 170.207 132.711 170.023 133.572C169.859 134.27 169.572 134.762 168.997 135.337C168.033 136.239 167.992 136.485 168.669 137.121L169.182 137.593L170.105 137.162C171.643 136.403 172.382 135.46 173.079 133.347C173.633 131.665 173.674 131.337 173.51 130.249C173.223 128.301 172.936 127.603 172.074 126.619C171.623 126.106 171.254 125.572 171.254 125.408C171.254 124.567 169.613 122.66 168.71 122.455C167.684 122.229 167.664 122.147 168.669 121.511C169.202 121.183 169.674 120.793 169.756 120.608C169.818 120.444 169.531 119.808 169.12 119.193C168.259 117.88 168.218 117.737 168.854 118.167C169.1 118.331 169.715 119.111 170.228 119.911C170.741 120.69 171.254 121.347 171.397 121.347C171.849 121.347 172.136 120.485 172.156 119.111C172.156 118.003 172.013 117.326 171.274 115.296C170.782 113.942 170.207 112.485 169.982 112.055C169.777 111.624 169.613 111.07 169.633 110.824C169.715 109.798 169.551 109.449 167.972 107.603C167.069 106.537 166.331 105.613 166.331 105.511C166.331 105.429 166.577 104.855 166.884 104.219C167.397 103.193 167.418 103.029 167.172 102.413C167.028 102.065 166.905 101.655 166.925 101.552C166.925 101.429 166.946 100.978 166.966 100.506C166.987 100.055 166.843 99.152 166.659 98.5161C166.249 97.1417 166.064 97.0391 163.479 97.0391C161.859 97.0391 161.715 97.0186 161.182 96.4853C160.751 96.0545 160.423 95.9109 159.807 95.9109C159.11 95.9109 158.966 95.8289 158.864 95.4186C158.802 95.1314 158.823 94.6802 158.946 94.3725C159.254 93.5314 159.192 93.2648 158.536 92.6084C158.023 92.075 157.838 92.0135 157.223 92.1161C156.402 92.2802 155.254 91.7263 155.254 91.1725C155.254 90.9879 154.987 90.7212 154.638 90.5776C154.31 90.434 154.023 90.3109 154.023 90.2699C154.023 90.2494 153.325 88.3417 152.484 86.0443C151.623 83.7468 150.392 79.9725 149.715 77.6545C149.059 75.3366 147.582 70.4545 146.474 66.7827C141.736 51.3366 140.69 46.6597 139.561 35.6032C139.397 33.8596 139.069 31.4596 138.843 30.2699C138.392 27.8699 137.818 22.4545 137.818 20.6084C137.818 19.5417 137.756 19.3776 137.223 19.0084C136.505 18.4955 136.218 18.475 135.602 18.9058C135.254 19.1519 135.151 19.3981 135.172 19.9725C135.192 20.4648 134.761 21.9827 133.961 24.1161C133.284 25.9827 132.71 27.6853 132.649 27.9109C132.587 28.2596 132.443 28.3212 131.52 28.2596C130.125 28.1571 129.469 28.5263 128.443 30.0032C127.52 31.3366 125.49 34.8237 124.525 36.752C123.684 38.4135 122.556 39.1725 117.736 41.2648C116.792 41.675 117.059 41.8391 118.146 41.5314C118.638 41.3878 119.561 41.2648 120.177 41.2443C120.792 41.2238 121.49 41.1417 121.695 41.0391C122.023 40.8955 122.064 40.9366 121.941 41.2648C121.859 41.4699 121.736 41.8802 121.695 42.1673C121.633 42.4545 121.018 43.2545 120.341 43.952C119.643 44.6494 119.131 45.2853 119.213 45.3673C119.397 45.552 120.936 44.2596 123.131 42.0648C124.402 40.793 124.833 40.4443 124.546 40.9366C124.32 41.3263 123.602 42.5161 122.966 43.5827C121.879 45.3878 121.613 46.0648 121.982 46.0648C122.146 46.0443 124.259 42.9673 125.387 41.0596C126.249 39.6237 126.29 39.6648 125.674 41.2853C125.428 41.9417 125.202 42.5161 125.202 42.5776C125.182 42.6391 125.018 43.2135 124.813 43.8904C124.443 45.1622 124.546 45.634 125.038 44.875C125.469 44.2596 125.756 44.3007 125.51 44.9571C125.387 45.2443 125.346 45.552 125.387 45.634C125.449 45.7161 125.366 46.2084 125.202 46.7417C124.792 48.0956 125.202 48.1776 125.818 46.8648C126.29 45.8391 126.31 45.8186 126.454 46.352C126.515 46.6597 126.433 47.5622 126.228 48.4238C125.695 50.6802 126.146 50.8853 126.864 48.7314C127.192 47.7673 127.254 47.6853 127.315 48.1571C127.377 48.6699 127.766 48.9981 127.766 48.5673C127.766 48.4648 127.951 48.1776 128.177 47.9109C128.69 47.3366 128.69 47.4186 128.177 49.4289C127.869 50.5981 127.541 51.3571 126.966 52.0956C126.105 53.2238 125.859 53.8802 125.51 55.9109C125.182 57.7161 124.792 58.5981 124.402 58.4545C124.218 58.393 123.397 58.7007 122.536 59.1725C121.674 59.6443 120.895 59.9725 120.792 59.9109C120.69 59.8494 120.546 59.9109 120.484 60.0135C120.32 60.3007 119.561 59.6853 119.561 59.275C119.561 59.1314 119.849 58.7212 120.177 58.3725C120.854 57.675 120.956 56.875 120.505 55.8084C120.32 55.3571 120.3 54.9673 120.443 54.3725C120.751 53.1417 120.669 49.634 120.3 47.9314C119.787 45.4904 119.725 45.552 118.72 49.5314C118.29 51.234 117.428 53.8802 116.813 55.4391C116.033 57.4699 115.602 58.8853 115.356 60.4238C115.172 61.6135 114.925 62.9058 114.823 63.3161C114.638 64.0545 114.638 64.0545 113.797 63.9109C113.325 63.8289 112.71 63.5622 112.402 63.3571C111.89 62.9468 111.869 62.8853 111.849 60.7109C111.849 59.0084 111.725 57.9827 111.315 56.3827L110.761 54.2699L111.254 53.4084C111.849 52.3007 112.218 50.3725 112.177 48.3417C112.156 47.4802 112.218 45.7161 112.3 44.4238C112.587 39.5212 111.438 36.4032 108.484 34.0237C107.746 33.4494 106.966 32.6084 106.72 32.1776C105.49 29.8802 104.895 29.2238 103.028 28.0956C101.161 26.9468 99.4588 26.9468 98.0639 28.0956C97.7562 28.3622 97.0588 28.834 96.5049 29.1417C95.2947 29.8391 93.2639 31.8904 93.387 32.2596C93.4485 32.4032 93.3665 32.5263 93.1818 32.5263C93.0177 32.5263 92.8331 32.793 92.7511 33.1417C92.6895 33.5314 92.2998 34.0648 91.7049 34.5776L90.7818 35.3571L90.146 34.8853C89.2639 34.2084 88.2998 32.5263 87.5818 30.475C87.2536 29.5109 86.7613 28.1366 86.4742 27.3981C85.8998 25.9212 85.7767 25.1212 85.51 21.6545C85.3459 19.1725 84.7921 17.1212 83.3357 13.4084C82.9459 12.4238 82.6383 11.4802 82.6383 11.3161C82.6383 11.1519 82.5357 10.7827 82.4126 10.4955C82.2075 10.0443 82.0434 9.98273 81.2844 10.0032C80.7921 10.0032 80.2998 10.1263 80.1972 10.2494ZM80.7306 16.0545C80.6895 16.4853 80.6485 16.1776 80.6485 15.3981C80.6485 14.5981 80.6895 14.2699 80.7306 14.6186C80.7716 14.9879 80.7716 15.6443 80.7306 16.0545ZM136.505 22.3109C136.443 22.8032 136.341 23.7468 136.279 24.4238C136.074 26.5366 135.705 28.834 135.561 28.834C135.5 28.834 135.274 28.7109 135.069 28.5673C134.72 28.3212 134.741 28.1776 135.254 25.9622C135.541 24.6699 135.89 23.1109 136.033 22.5161C136.3 21.2443 136.649 21.0802 136.505 22.3109ZM127.828 32.4648C127.684 33.1212 127.52 33.8802 127.459 34.1673C127.377 34.6597 125.141 37.3468 124.977 37.1827C124.936 37.1417 125.182 36.5673 125.531 35.8904C127.131 32.8955 127.992 31.2955 128.054 31.2955C128.074 31.2955 127.992 31.8289 127.828 32.4648ZM88.3613 35.3161C88.4434 35.2545 88.7306 35.7058 89.0177 36.3212C89.3049 36.9366 89.4075 37.3468 89.2639 37.2238C88.9972 36.9776 87.9716 35.2135 87.9921 35.0084C87.9921 34.9468 88.0536 35.0084 88.1152 35.1519C88.1562 35.275 88.2793 35.3571 88.3613 35.3161ZM89.9613 36.5878L89.7357 37.0802L89.4895 36.4032C89.3459 36.0135 89.2229 35.5417 89.2229 35.3366C89.2024 35.0289 89.3049 35.0699 89.6947 35.5417C90.1049 36.0135 90.146 36.1776 89.9613 36.5878ZM88.5665 37.1622C88.9767 37.7571 89.1408 38.1879 89.0383 38.3725C88.9357 38.5776 88.7306 38.3109 88.3408 37.4494C88.0536 36.7725 87.828 36.2186 87.869 36.2186C87.91 36.2186 88.2177 36.6494 88.5665 37.1622ZM88.1767 38.6186C88.5254 39.3981 88.587 39.8084 88.4639 40.6289L88.3203 41.6545L88.0536 41.0186C87.91 40.6699 87.6434 40.3212 87.4588 40.2596C87.0075 40.075 87.1101 37.6545 87.5818 37.6545C87.6639 37.6545 87.9511 38.0853 88.1767 38.6186ZM123.069 39.4596C122.946 39.6853 122.166 40.1366 121.305 40.4853C120.443 40.8135 119.787 41.0391 119.849 40.9776C119.951 40.875 123.028 39.1519 123.213 39.1109C123.233 39.0904 123.172 39.2545 123.069 39.4596ZM124.484 39.7673C124.484 39.7879 123.992 40.2802 123.418 40.834L122.331 41.8596L123.356 40.7725C124.3 39.7879 124.484 39.6032 124.484 39.7673ZM126.638 41.0802C126.577 41.4084 126.433 41.7366 126.331 41.8391C126.228 41.9417 126.249 41.6955 126.372 41.2853C126.638 40.4032 126.843 40.2596 126.638 41.0802ZM83.1306 45.8391C83.2126 46.6802 83.6024 48.3622 83.9921 49.593C84.3818 50.8237 84.6895 51.9725 84.6895 52.1161C84.6895 52.2802 84.4639 52.7314 84.1972 53.1212C83.787 53.7161 83.6844 54.2084 83.5613 56.0545C83.3152 60.0135 83.1101 61.0186 82.3306 62.1673C81.5511 63.3161 80.2383 66.6597 80.0742 67.9109C80.0331 68.3622 79.8895 69.0596 79.7665 69.4494C79.4383 70.5981 79.5203 72.1776 79.9716 73.2032C80.3203 73.9622 80.3613 74.3725 80.2588 75.6853C80.1357 77.1212 80.1562 77.2443 80.5049 77.2443C80.9562 77.2648 81.8998 79.0494 81.9203 79.9109C81.9203 80.3212 82.1254 80.5263 82.987 80.9366C83.91 81.3878 84.0536 81.552 84.2588 82.3109C84.6075 83.6237 84.2383 86.475 83.5613 87.6853C82.0639 90.3725 80.7306 93.9007 80.4844 95.8084C80.3818 96.6494 80.2383 96.9161 79.7254 97.2853C79.2126 97.634 79.028 97.675 78.7203 97.4904C78.4126 97.2853 78.2485 97.3263 77.8793 97.6955L77.428 98.1673L77.9203 98.6802C78.3511 99.1314 78.3716 99.2545 78.1254 99.3981C77.9613 99.5007 77.7562 99.6032 77.6742 99.6032C77.5921 99.6032 76.9152 100.178 76.1767 100.855L74.8434 102.126L73.9408 101.778C72.9972 101.408 72.5254 100.896 71.3767 98.9879C70.4947 97.5314 69.387 96.3827 68.587 96.1161L67.9511 95.9109L69.3049 94.5161C71.5408 92.2391 73.5306 88.5673 75.0075 83.9725C76.8947 78.2084 77.8383 73.2238 79.7665 58.8032C80.669 52.0956 81.4075 47.0494 81.9613 44.1161L82.2895 42.2699L82.6383 43.2955C82.8229 43.8494 83.0485 44.9981 83.1306 45.8391ZM125.838 43.3571C125.469 43.6853 125.469 43.6853 125.715 43.234C125.838 42.9673 126.002 42.8032 126.084 42.8648C126.146 42.9468 126.043 43.1519 125.838 43.3571ZM135.664 56.7109C136.054 60.7314 136.587 65.2443 137.305 70.475C137.592 72.5673 137.818 74.352 137.818 74.434C137.818 74.5161 137.469 74.352 137.059 74.0648C136.095 73.4289 135.295 73.4084 134.187 74.0443L133.305 74.5571L132.915 73.9827C132.69 73.675 132.361 73.0391 132.156 72.5468C131.787 71.6237 131.274 71.2955 130.207 71.2955C129.879 71.2955 128.997 71.0289 128.259 70.6802C127.007 70.1263 126.905 70.0237 127.028 69.552C127.11 69.2032 126.987 68.7109 126.638 68.0135C126.351 67.4596 126.125 66.8032 126.125 66.5571C126.125 66.3109 126.515 65.2443 126.966 64.1776C127.869 62.1468 127.931 61.3673 127.233 60.6084C126.782 60.1161 126.946 59.7263 128.484 57.4699C129.202 56.4032 130.29 54.6391 130.864 53.5314C131.459 52.4032 132.32 50.9468 132.772 50.2699C133.243 49.593 133.941 48.3827 134.331 47.6032L135.049 46.1879L135.192 49.7366C135.274 51.7058 135.479 54.8443 135.664 56.7109ZM66.5152 97.7366C66.7818 98.0238 66.8434 98.352 66.7613 98.9879C66.6383 100.034 65.5921 102.496 65.3049 102.413C65.0383 102.311 64.8331 100.916 64.8126 99.0494C64.7921 97.8186 64.8536 97.5725 65.1613 97.4904C65.8793 97.3058 66.1665 97.3468 66.5152 97.7366ZM163.418 97.7981C163.89 98.2699 163.684 98.5776 162.946 98.5776C162.495 98.5776 162.228 98.475 162.228 98.3109C162.228 97.9827 162.638 97.552 162.946 97.552C163.069 97.552 163.274 97.6545 163.418 97.7981ZM71.3767 101.778C72.0331 102.475 72.8331 102.885 73.6126 102.885C73.9408 102.885 74.228 102.926 74.228 102.967C74.228 103.029 73.8588 103.603 73.428 104.28C72.2998 105.962 71.4998 106.147 70.8844 104.834C70.6998 104.444 70.4126 104.116 70.228 104.116C69.9818 104.116 69.9203 103.849 69.9203 102.824C69.9203 102.106 69.9818 101.449 70.0639 101.388C70.3511 101.101 70.8844 101.265 71.3767 101.778ZM166.946 115.378C166.946 115.603 166.864 115.583 166.638 115.275C166.474 115.07 166.351 114.742 166.351 114.578C166.351 114.352 166.413 114.372 166.638 114.66C166.802 114.885 166.946 115.214 166.946 115.378ZM94.7818 136.567C94.4536 137.162 94.1254 137.798 94.0639 137.962C93.9818 138.188 93.9408 138.147 93.9408 137.86C93.9203 137.47 95.028 135.501 95.2742 135.501C95.3357 135.501 95.1101 135.993 94.7818 136.567ZM144.382 207.316C144.525 207.542 144.669 208.26 144.731 208.896L144.833 210.065L144.177 209.367C143.643 208.813 143.541 208.567 143.643 208.055C143.705 207.706 143.664 207.316 143.541 207.172C143.356 206.947 143.397 206.885 143.725 206.885C143.972 206.885 144.259 207.07 144.382 207.316ZM89.4895 219.952C89.7562 220.383 90.0229 221.101 90.0844 221.552L90.2075 222.372L89.2024 221.244C88.1357 220.055 88.0331 219.829 88.4229 219.439C88.8126 219.049 88.9562 219.131 89.4895 219.952ZM151.951 220.362C152.074 220.998 152.136 221.552 152.095 221.593C152.054 221.655 151.807 221.572 151.561 221.449C151.233 221.285 151.151 221.08 151.233 220.772C151.295 220.526 151.356 220.075 151.356 219.747C151.356 218.783 151.705 219.131 151.951 220.362Z"/>
        </mask>
        <path d="M80.1972 10.2494C80.0947 10.3725 79.9306 10.9879 79.869 11.6032C79.787 12.2186 79.6024 13.2443 79.4588 13.8596C79.0485 15.5827 78.6793 19.5417 78.7818 21.1417C78.8434 21.9212 78.987 23.3161 79.1511 24.2186C79.3972 25.8186 79.3767 25.9417 78.7818 28.2186C77.9818 31.2955 77.0793 33.5725 74.6588 38.5776C69.4895 49.2443 63.0895 58.3109 55.1716 66.1468C51.5818 69.6955 49.1203 71.8289 43.1511 76.5879C37.0177 81.4904 33.6947 84.3622 32.0331 86.1673L30.6383 87.6853L24.4844 85.3673C11.0075 80.3212 3.86903 78.0648 1.24339 78.0648C-0.315587 78.0648 -0.397638 78.4955 0.935695 79.6853C2.96646 81.552 9.0998 84.752 20.8126 90.0648L28.0331 93.3263L28.3818 94.5776C28.8536 96.3212 29.5101 97.3263 31.0895 98.7827C34.3101 101.716 40.8947 103.89 46.6383 103.911C47.7254 103.911 48.7921 104.055 49.8177 104.362C51.2742 104.793 51.4588 104.916 53.469 106.865L55.5818 108.916L55.4588 107.993C55.3972 107.501 55.2947 106.844 55.2536 106.516L55.1511 105.962L55.828 106.29C56.1767 106.496 56.8126 106.844 57.2434 107.111L57.9818 107.583L58.1254 110.27C58.3101 113.326 58.3101 113.347 60.2177 113.347C60.8126 113.347 61.346 113.49 61.7152 113.757L62.2895 114.167L61.6742 116.157C61.346 117.265 60.8947 118.762 60.669 119.48C60.4434 120.198 60.2793 120.813 60.3203 120.834C60.4229 120.957 66.8844 116.055 67.4588 115.419C67.9511 114.885 69.1203 114.372 69.8793 114.372C70.0229 114.372 70.3921 114.496 70.6998 114.66C72.4024 115.521 72.6895 115.09 71.2536 113.778C70.4126 112.998 70.2485 112.937 69.2229 112.937C68.0742 112.937 67.4588 112.608 67.4588 112.013C67.4588 111.849 67.7049 111.214 68.0126 110.578C68.546 109.511 68.6075 109.449 69.3459 109.449C69.9818 109.449 70.1665 109.552 70.3101 109.901C70.5562 110.516 71.7459 111.624 72.3408 111.808C72.587 111.87 72.7921 112.013 72.7921 112.116C72.7921 112.198 73.3665 112.875 74.0844 113.613C75.2742 114.865 75.6229 115.07 77.3049 115.501C77.9408 115.665 79.3152 115.87 79.4998 115.849C79.6229 115.808 80.0536 115.993 80.4229 116.219C81.4075 116.813 82.0844 116.752 82.7203 116.013L83.2331 115.398L83.91 115.808C85.8177 116.978 88.1767 115.685 88.1767 113.47C88.1767 112.157 86.3716 110.701 85.0588 110.967L84.4229 111.09L84.5665 110.249C84.669 109.634 84.6075 109.265 84.3818 108.916C83.9716 108.301 83.91 108.301 83.1101 109.039C82.7408 109.388 82.4331 109.655 82.3921 109.655C82.228 109.655 82.3511 106.372 82.5357 106.208C82.6588 106.085 83.1511 105.962 83.6639 105.921C84.4229 105.839 84.8126 105.962 85.8998 106.557C87.0485 107.172 87.3972 107.275 88.7511 107.275L90.2895 107.296L90.6177 108.444C90.8229 109.121 91.3357 110.106 91.9511 110.906C92.9767 112.26 93.2024 112.67 93.387 113.572C93.4485 113.88 93.8177 114.516 94.2075 114.967C94.5972 115.439 94.9665 115.972 95.028 116.178C95.2947 117.06 95.6024 120.219 95.6024 122.27C95.6024 124.137 95.5408 124.547 95.2742 124.67C95.0895 124.772 94.7818 124.916 94.5972 125.019C94.3921 125.101 94.187 125.408 94.1665 125.675C94.1254 125.942 94.0024 126.249 93.8998 126.372C93.5921 126.68 93.6947 127.193 94.2485 128.198L94.7818 129.142L94.146 129.901C93.7972 130.331 93.51 130.824 93.51 130.988C93.51 131.172 93.7972 131.767 94.146 132.321C95.028 133.696 95.028 134.619 94.1665 135.583C93.7972 135.993 93.3049 136.731 93.0793 137.203C92.8331 137.675 92.4639 138.29 92.2588 138.557C92.0331 138.824 91.869 139.213 91.869 139.419C91.869 139.624 91.5818 140.321 91.2536 140.978C90.9049 141.634 90.5767 142.537 90.5152 142.988C90.2485 144.69 88.7306 150.475 87.8485 153.101C87.3357 154.619 86.8229 156.362 86.7203 156.978C86.5972 157.613 86.3306 158.372 86.1049 158.68C85.8793 158.988 85.7152 159.46 85.7562 159.726C85.8383 160.403 84.6075 164.178 83.6229 166.27C82.9665 167.665 82.7818 168.321 82.6998 169.593C82.5972 170.988 82.5152 171.234 82.0024 171.726C81.6742 172.034 81.4075 172.383 81.4075 172.485C81.4075 172.588 81.2229 172.896 80.9972 173.183C80.7101 173.552 80.587 174.024 80.587 174.701C80.587 175.849 80.0331 178.352 79.7049 178.762C79.4588 179.049 79.1306 182.085 79.1306 183.911C79.1511 185.449 78.9665 186.167 78.6383 186.044C78.228 185.88 78.0024 186.537 78.2895 187.008C78.5972 187.501 78.5972 188.075 78.2895 188.383C78.1254 188.547 78.1254 188.69 78.2895 188.875C78.3921 189.019 78.5562 189.778 78.6383 190.578L78.7818 192.014L77.5511 193.203L76.3203 194.414L75.3972 193.101C74.9049 192.403 74.0434 191.07 73.4895 190.188C72.3408 188.342 72.0536 188.096 71.2742 188.301C70.5357 188.485 70.5357 188.444 72.628 193.757C74.5972 198.742 74.8434 199.275 75.7665 200.28C76.1357 200.711 76.5254 201.306 76.587 201.593C76.669 201.88 76.9767 202.414 77.2639 202.762C77.7152 203.275 78.0229 203.419 78.8434 203.521C81.0177 203.767 81.1408 203.911 81.8177 206.988C82.1254 208.403 82.228 209.613 82.228 212.137C82.228 215.521 82.3101 215.911 83.0895 215.911C83.4177 215.911 83.4588 216.116 83.4588 217.675C83.4588 218.639 83.5613 219.829 83.6844 220.342C83.9716 221.47 84.8947 222.331 85.6331 222.147C86.1049 222.024 86.1254 222.065 86.1254 223.152C86.1254 223.767 86.269 224.67 86.4536 225.162C86.6383 225.655 86.7818 226.311 86.7613 226.598C86.7408 226.906 86.9254 227.767 87.1716 228.506L87.5818 229.88L86.3306 231.316C85.6331 232.096 84.9357 232.731 84.7716 232.731C84.628 232.731 83.787 233.121 82.9049 233.572C81.7767 234.188 81.0383 234.434 80.3613 234.455C79.1306 234.496 76.8742 235.624 75.7665 236.731C74.8434 237.655 74.228 239.214 74.228 240.649C74.228 241.47 74.269 241.552 74.7408 241.552C75.028 241.552 75.5613 241.675 75.9306 241.839C76.2998 241.983 77.8383 242.414 79.3357 242.762C82.187 243.46 84.546 243.624 85.8383 243.234C86.2485 243.111 87.5818 243.09 89.3254 243.214C93.3254 243.439 93.3049 243.439 93.3049 243.07C93.3049 242.885 93.428 242.783 93.5921 242.844C93.7357 242.906 94.8024 243.172 95.9306 243.419C97.8793 243.849 98.146 243.87 99.8075 243.624C100.813 243.48 102.064 243.337 102.618 243.296C104.054 243.193 104.628 243.029 105.141 242.537C105.49 242.208 105.551 242.024 105.407 241.655C105.018 240.649 104.977 238.721 105.284 236.485C105.551 234.331 105.654 234.065 106.536 232.629C107.274 231.439 107.459 231.029 107.274 230.803C107.11 230.598 107.151 230.434 107.479 230.147C107.725 229.942 108.115 229.388 108.382 228.937C108.895 228.055 110.064 224.424 110.166 223.398C110.228 222.803 110.207 222.783 109.428 222.803C108.936 222.824 107.869 223.214 106.536 223.89C105.366 224.465 104.32 224.937 104.218 224.937C104.033 224.937 103.52 223.89 103.438 223.378C103.418 223.255 103.172 222.926 102.884 222.639C102.392 222.126 102.372 222.106 102.679 221.019C102.843 220.403 103.007 219.111 103.028 218.147C103.09 216.916 103.213 216.219 103.459 215.849C103.869 215.193 103.828 214.496 103.131 211.972C102.7 210.393 102.679 210.065 102.884 208.855C103.007 208.075 103.52 206.639 104.115 205.408L105.1 203.296V200.896C105.1 198.803 105.038 198.434 104.669 197.942C103.849 196.814 103.233 196.526 101.551 196.465L99.9716 196.383L99.3152 195.337C98.9459 194.742 98.6383 194.003 98.6383 193.655C98.6383 193.326 98.4126 192.567 98.146 191.993C97.8793 191.419 97.6742 190.701 97.6742 190.393C97.6742 189.675 97.2229 189.224 95.9716 188.629C95.3972 188.362 94.9459 188.055 94.9459 187.952C94.9459 187.521 97.1408 183.562 98.1665 182.167C99.6229 180.157 100.977 177.552 100.69 177.265C100.32 176.896 100.464 176.424 101.305 175.296C101.756 174.68 102.29 173.819 102.495 173.347C102.679 172.896 103.151 171.931 103.52 171.193C103.91 170.455 104.443 169.408 104.71 168.875C104.997 168.342 105.654 167.275 106.207 166.516C106.761 165.757 107.787 164.034 108.505 162.68C109.223 161.326 110.269 159.583 110.823 158.824C111.828 157.429 111.849 157.429 112.095 157.901C112.238 158.188 112.607 159.357 112.895 160.526C113.407 162.578 113.428 162.742 113.223 165.224C113.1 166.639 112.936 168.198 112.874 168.69C112.792 169.326 112.833 169.696 113.1 170.085C113.407 170.557 113.407 170.721 113.12 171.993C112.936 172.752 112.813 174.065 112.813 174.906C112.813 175.747 112.813 177.531 112.792 178.885C112.751 180.239 112.813 182.311 112.895 183.501C112.956 184.69 113.018 186.455 113.018 187.439C112.997 188.649 113.141 189.921 113.49 191.439C113.756 192.649 114.043 193.983 114.105 194.414C114.187 194.885 114.433 195.275 114.741 195.48C115.069 195.706 115.233 195.972 115.192 196.26C115.172 196.567 115.295 196.793 115.582 196.916C115.807 197.019 116.197 197.408 116.443 197.778C116.854 198.414 116.874 198.537 116.607 199.542C116.464 200.137 116.259 200.629 116.156 200.629C116.054 200.608 115.295 200.28 114.454 199.849C112.895 199.09 112.587 199.07 111.992 199.788C111.849 199.952 111.787 200.28 111.869 200.506C112.197 201.593 120.156 208.813 122.002 209.696C122.966 210.167 123.192 210.208 123.91 210.024L124.71 209.819L125.9 211.275C128.197 214.106 129.613 216.096 131.069 218.496C132.997 221.696 133.797 222.762 134.638 223.296L135.356 223.747V225.429V227.131L136.382 228.096C136.936 228.608 137.49 229.039 137.613 229.039C137.756 229.039 137.756 229.183 137.592 229.49C137.449 229.757 137.387 230.578 137.449 231.685C137.51 232.752 137.449 233.901 137.284 234.619C136.977 235.952 135.849 237.839 135.131 238.249C134.351 238.68 133.654 239.685 133.182 241.06C132.956 241.757 132.607 242.496 132.423 242.68C132.238 242.865 132.074 243.214 132.074 243.46C132.095 244.014 132.956 245.039 133.428 245.039C133.613 245.039 134.043 245.285 134.392 245.572C135.007 246.085 135.11 246.106 136.587 245.983C138.7 245.778 146.105 245.408 147.377 245.429C148.361 245.449 148.464 245.408 149.284 244.485C150.043 243.665 150.146 243.439 150.064 242.865C149.961 242.311 150.084 242.065 150.679 241.367C151.254 240.67 151.377 240.403 151.274 239.952C150.618 237.306 150.679 236.855 151.705 236.834C152.197 236.834 152.361 236.649 152.751 235.603C153.469 233.737 153.469 233.49 152.915 230.639L152.402 227.911L152.895 225.757C153.182 224.567 153.407 223.09 153.428 222.475C153.449 221.039 152.71 218.988 151.254 216.342C150.536 215.09 150.064 213.942 149.941 213.183C149.818 212.547 149.633 211.829 149.51 211.603C148.997 210.66 147.972 211.296 146.433 213.49C146.064 214.044 145.736 214.475 145.736 214.475C145.715 214.475 145.715 212.793 145.736 210.721C145.736 208.67 145.674 206.701 145.572 206.352C145.469 205.942 145.059 205.47 144.464 205.039C143.254 204.178 142.741 203.337 142.741 202.167C142.741 201.47 142.556 200.957 142.023 200.075C141.469 199.172 141.264 198.557 141.1 197.367C140.874 195.542 140.341 194.393 139.397 193.675C138.597 193.06 136.361 192.014 135.418 191.829C134.905 191.706 134.638 191.46 134.228 190.742C133.879 190.085 133.777 189.716 133.92 189.572C134.187 189.306 134.187 188.485 133.92 188.321C133.818 188.26 133.428 188.178 133.059 188.137C132.69 188.096 131.931 187.788 131.397 187.439C130.843 187.09 130.064 186.762 129.654 186.68L128.895 186.557L128.854 184.362C128.813 182.947 128.915 181.798 129.1 181.142C129.715 178.967 130.228 176.588 130.228 175.849C130.228 175.439 130.515 174.393 130.864 173.511C131.418 172.137 131.52 171.603 131.561 169.757C131.582 168.547 131.807 166.783 132.033 165.757C132.279 164.67 132.443 163.131 132.443 162.044C132.464 161.039 132.607 159.501 132.792 158.66C132.977 157.839 133.182 156.813 133.243 156.424C133.407 155.357 134.331 152.567 134.864 151.48C135.131 150.967 135.274 150.352 135.233 150.106C135.172 149.88 135.438 148.649 135.828 147.357C136.3 145.798 136.649 144.013 136.895 141.942L137.264 138.844L136.792 136.403C136.546 135.07 135.931 132.711 135.418 131.193C134.597 128.69 134.536 128.301 134.659 127.131C134.761 126.167 134.72 125.675 134.474 125.183C134.31 124.813 134.023 124.178 133.838 123.747C133.531 123.029 131.192 120.403 129.428 118.803C128.607 118.044 125.654 113.819 124.751 112.096C124.382 111.398 123.951 110.68 123.787 110.496C123.069 109.716 122.843 108.649 122.761 105.839C122.7 103.706 122.761 102.926 122.966 102.496C123.172 102.147 123.254 101.449 123.213 100.403C123.172 98.9468 123.213 98.8032 123.766 98.1263C124.115 97.7366 124.772 97.1622 125.264 96.8545C126.679 95.9725 126.331 94.8853 124.649 94.8853H123.972L124.177 92.9776C124.3 91.952 124.505 90.8853 124.649 90.6186C124.813 90.352 125.325 89.9622 125.818 89.7571C126.802 89.3263 127.049 88.752 126.577 87.952C126.372 87.6237 126.084 87.5007 125.592 87.5007C124.977 87.5007 124.895 87.4391 124.895 86.9879C124.895 86.7007 124.936 86.475 124.997 86.475C125.059 86.475 125.613 86.8237 126.249 87.234C126.987 87.7263 127.336 88.075 127.254 88.2802C126.72 89.6545 126.905 90.352 127.972 91.0699C128.956 91.7058 129.202 91.7263 129.879 91.193L130.413 90.7622L132.156 92.0545C133.12 92.7725 135.643 94.5161 137.777 95.9109L141.654 98.475L142.31 101.101C143.254 104.896 144.218 107.562 145.243 109.265C145.756 110.106 146.372 111.234 146.618 111.808C147.151 113.019 147.89 113.86 148.895 114.372C149.777 114.824 151.131 114.66 152.279 113.983C152.71 113.737 153.059 113.552 153.079 113.593C153.1 113.634 153.325 113.921 153.572 114.249C154.043 114.885 154.166 115.993 153.797 116.362C153.633 116.526 153.654 116.711 153.838 117.06C153.982 117.326 154.269 118.126 154.454 118.803C154.72 119.87 154.741 120.137 154.515 120.547C154.372 120.813 154.249 121.47 154.228 121.983C154.228 122.844 154.166 122.967 153.695 123.07C153.243 123.193 153.182 123.296 153.305 123.767C153.366 124.075 153.633 124.547 153.879 124.793C154.269 125.203 154.474 125.265 155.295 125.183C156.402 125.08 156.69 125.285 157.079 126.455C157.387 127.357 158.269 128.526 158.659 128.526C158.843 128.526 159.192 129.019 159.479 129.696C160.341 131.665 160.443 131.829 160.997 132.096C161.572 132.403 162.597 132.219 162.864 131.767C163.11 131.398 163.09 130.003 162.864 129.183C162.761 128.834 162.7 128.526 162.72 128.526C162.761 128.526 163.192 128.67 163.684 128.855C164.177 129.039 165.182 129.347 165.92 129.552C167.541 129.983 169.079 130.926 169.736 131.89C170.187 132.547 170.207 132.711 170.023 133.572C169.859 134.27 169.572 134.762 168.997 135.337C168.033 136.239 167.992 136.485 168.669 137.121L169.182 137.593L170.105 137.162C171.643 136.403 172.382 135.46 173.079 133.347C173.633 131.665 173.674 131.337 173.51 130.249C173.223 128.301 172.936 127.603 172.074 126.619C171.623 126.106 171.254 125.572 171.254 125.408C171.254 124.567 169.613 122.66 168.71 122.455C167.684 122.229 167.664 122.147 168.669 121.511C169.202 121.183 169.674 120.793 169.756 120.608C169.818 120.444 169.531 119.808 169.12 119.193C168.259 117.88 168.218 117.737 168.854 118.167C169.1 118.331 169.715 119.111 170.228 119.911C170.741 120.69 171.254 121.347 171.397 121.347C171.849 121.347 172.136 120.485 172.156 119.111C172.156 118.003 172.013 117.326 171.274 115.296C170.782 113.942 170.207 112.485 169.982 112.055C169.777 111.624 169.613 111.07 169.633 110.824C169.715 109.798 169.551 109.449 167.972 107.603C167.069 106.537 166.331 105.613 166.331 105.511C166.331 105.429 166.577 104.855 166.884 104.219C167.397 103.193 167.418 103.029 167.172 102.413C167.028 102.065 166.905 101.655 166.925 101.552C166.925 101.429 166.946 100.978 166.966 100.506C166.987 100.055 166.843 99.152 166.659 98.5161C166.249 97.1417 166.064 97.0391 163.479 97.0391C161.859 97.0391 161.715 97.0186 161.182 96.4853C160.751 96.0545 160.423 95.9109 159.807 95.9109C159.11 95.9109 158.966 95.8289 158.864 95.4186C158.802 95.1314 158.823 94.6802 158.946 94.3725C159.254 93.5314 159.192 93.2648 158.536 92.6084C158.023 92.075 157.838 92.0135 157.223 92.1161C156.402 92.2802 155.254 91.7263 155.254 91.1725C155.254 90.9879 154.987 90.7212 154.638 90.5776C154.31 90.434 154.023 90.3109 154.023 90.2699C154.023 90.2494 153.325 88.3417 152.484 86.0443C151.623 83.7468 150.392 79.9725 149.715 77.6545C149.059 75.3366 147.582 70.4545 146.474 66.7827C141.736 51.3366 140.69 46.6597 139.561 35.6032C139.397 33.8596 139.069 31.4596 138.843 30.2699C138.392 27.8699 137.818 22.4545 137.818 20.6084C137.818 19.5417 137.756 19.3776 137.223 19.0084C136.505 18.4955 136.218 18.475 135.602 18.9058C135.254 19.1519 135.151 19.3981 135.172 19.9725C135.192 20.4648 134.761 21.9827 133.961 24.1161C133.284 25.9827 132.71 27.6853 132.649 27.9109C132.587 28.2596 132.443 28.3212 131.52 28.2596C130.125 28.1571 129.469 28.5263 128.443 30.0032C127.52 31.3366 125.49 34.8237 124.525 36.752C123.684 38.4135 122.556 39.1725 117.736 41.2648C116.792 41.675 117.059 41.8391 118.146 41.5314C118.638 41.3878 119.561 41.2648 120.177 41.2443C120.792 41.2238 121.49 41.1417 121.695 41.0391C122.023 40.8955 122.064 40.9366 121.941 41.2648C121.859 41.4699 121.736 41.8802 121.695 42.1673C121.633 42.4545 121.018 43.2545 120.341 43.952C119.643 44.6494 119.131 45.2853 119.213 45.3673C119.397 45.552 120.936 44.2596 123.131 42.0648C124.402 40.793 124.833 40.4443 124.546 40.9366C124.32 41.3263 123.602 42.5161 122.966 43.5827C121.879 45.3878 121.613 46.0648 121.982 46.0648C122.146 46.0443 124.259 42.9673 125.387 41.0596C126.249 39.6237 126.29 39.6648 125.674 41.2853C125.428 41.9417 125.202 42.5161 125.202 42.5776C125.182 42.6391 125.018 43.2135 124.813 43.8904C124.443 45.1622 124.546 45.634 125.038 44.875C125.469 44.2596 125.756 44.3007 125.51 44.9571C125.387 45.2443 125.346 45.552 125.387 45.634C125.449 45.7161 125.366 46.2084 125.202 46.7417C124.792 48.0956 125.202 48.1776 125.818 46.8648C126.29 45.8391 126.31 45.8186 126.454 46.352C126.515 46.6597 126.433 47.5622 126.228 48.4238C125.695 50.6802 126.146 50.8853 126.864 48.7314C127.192 47.7673 127.254 47.6853 127.315 48.1571C127.377 48.6699 127.766 48.9981 127.766 48.5673C127.766 48.4648 127.951 48.1776 128.177 47.9109C128.69 47.3366 128.69 47.4186 128.177 49.4289C127.869 50.5981 127.541 51.3571 126.966 52.0956C126.105 53.2238 125.859 53.8802 125.51 55.9109C125.182 57.7161 124.792 58.5981 124.402 58.4545C124.218 58.393 123.397 58.7007 122.536 59.1725C121.674 59.6443 120.895 59.9725 120.792 59.9109C120.69 59.8494 120.546 59.9109 120.484 60.0135C120.32 60.3007 119.561 59.6853 119.561 59.275C119.561 59.1314 119.849 58.7212 120.177 58.3725C120.854 57.675 120.956 56.875 120.505 55.8084C120.32 55.3571 120.3 54.9673 120.443 54.3725C120.751 53.1417 120.669 49.634 120.3 47.9314C119.787 45.4904 119.725 45.552 118.72 49.5314C118.29 51.234 117.428 53.8802 116.813 55.4391C116.033 57.4699 115.602 58.8853 115.356 60.4238C115.172 61.6135 114.925 62.9058 114.823 63.3161C114.638 64.0545 114.638 64.0545 113.797 63.9109C113.325 63.8289 112.71 63.5622 112.402 63.3571C111.89 62.9468 111.869 62.8853 111.849 60.7109C111.849 59.0084 111.725 57.9827 111.315 56.3827L110.761 54.2699L111.254 53.4084C111.849 52.3007 112.218 50.3725 112.177 48.3417C112.156 47.4802 112.218 45.7161 112.3 44.4238C112.587 39.5212 111.438 36.4032 108.484 34.0237C107.746 33.4494 106.966 32.6084 106.72 32.1776C105.49 29.8802 104.895 29.2238 103.028 28.0956C101.161 26.9468 99.4588 26.9468 98.0639 28.0956C97.7562 28.3622 97.0588 28.834 96.5049 29.1417C95.2947 29.8391 93.2639 31.8904 93.387 32.2596C93.4485 32.4032 93.3665 32.5263 93.1818 32.5263C93.0177 32.5263 92.8331 32.793 92.7511 33.1417C92.6895 33.5314 92.2998 34.0648 91.7049 34.5776L90.7818 35.3571L90.146 34.8853C89.2639 34.2084 88.2998 32.5263 87.5818 30.475C87.2536 29.5109 86.7613 28.1366 86.4742 27.3981C85.8998 25.9212 85.7767 25.1212 85.51 21.6545C85.3459 19.1725 84.7921 17.1212 83.3357 13.4084C82.9459 12.4238 82.6383 11.4802 82.6383 11.3161C82.6383 11.1519 82.5357 10.7827 82.4126 10.4955C82.2075 10.0443 82.0434 9.98273 81.2844 10.0032C80.7921 10.0032 80.2998 10.1263 80.1972 10.2494ZM80.7306 16.0545C80.6895 16.4853 80.6485 16.1776 80.6485 15.3981C80.6485 14.5981 80.6895 14.2699 80.7306 14.6186C80.7716 14.9879 80.7716 15.6443 80.7306 16.0545ZM136.505 22.3109C136.443 22.8032 136.341 23.7468 136.279 24.4238C136.074 26.5366 135.705 28.834 135.561 28.834C135.5 28.834 135.274 28.7109 135.069 28.5673C134.72 28.3212 134.741 28.1776 135.254 25.9622C135.541 24.6699 135.89 23.1109 136.033 22.5161C136.3 21.2443 136.649 21.0802 136.505 22.3109ZM127.828 32.4648C127.684 33.1212 127.52 33.8802 127.459 34.1673C127.377 34.6597 125.141 37.3468 124.977 37.1827C124.936 37.1417 125.182 36.5673 125.531 35.8904C127.131 32.8955 127.992 31.2955 128.054 31.2955C128.074 31.2955 127.992 31.8289 127.828 32.4648ZM88.3613 35.3161C88.4434 35.2545 88.7306 35.7058 89.0177 36.3212C89.3049 36.9366 89.4075 37.3468 89.2639 37.2238C88.9972 36.9776 87.9716 35.2135 87.9921 35.0084C87.9921 34.9468 88.0536 35.0084 88.1152 35.1519C88.1562 35.275 88.2793 35.3571 88.3613 35.3161ZM89.9613 36.5878L89.7357 37.0802L89.4895 36.4032C89.3459 36.0135 89.2229 35.5417 89.2229 35.3366C89.2024 35.0289 89.3049 35.0699 89.6947 35.5417C90.1049 36.0135 90.146 36.1776 89.9613 36.5878ZM88.5665 37.1622C88.9767 37.7571 89.1408 38.1879 89.0383 38.3725C88.9357 38.5776 88.7306 38.3109 88.3408 37.4494C88.0536 36.7725 87.828 36.2186 87.869 36.2186C87.91 36.2186 88.2177 36.6494 88.5665 37.1622ZM88.1767 38.6186C88.5254 39.3981 88.587 39.8084 88.4639 40.6289L88.3203 41.6545L88.0536 41.0186C87.91 40.6699 87.6434 40.3212 87.4588 40.2596C87.0075 40.075 87.1101 37.6545 87.5818 37.6545C87.6639 37.6545 87.9511 38.0853 88.1767 38.6186ZM123.069 39.4596C122.946 39.6853 122.166 40.1366 121.305 40.4853C120.443 40.8135 119.787 41.0391 119.849 40.9776C119.951 40.875 123.028 39.1519 123.213 39.1109C123.233 39.0904 123.172 39.2545 123.069 39.4596ZM124.484 39.7673C124.484 39.7879 123.992 40.2802 123.418 40.834L122.331 41.8596L123.356 40.7725C124.3 39.7879 124.484 39.6032 124.484 39.7673ZM126.638 41.0802C126.577 41.4084 126.433 41.7366 126.331 41.8391C126.228 41.9417 126.249 41.6955 126.372 41.2853C126.638 40.4032 126.843 40.2596 126.638 41.0802ZM83.1306 45.8391C83.2126 46.6802 83.6024 48.3622 83.9921 49.593C84.3818 50.8237 84.6895 51.9725 84.6895 52.1161C84.6895 52.2802 84.4639 52.7314 84.1972 53.1212C83.787 53.7161 83.6844 54.2084 83.5613 56.0545C83.3152 60.0135 83.1101 61.0186 82.3306 62.1673C81.5511 63.3161 80.2383 66.6597 80.0742 67.9109C80.0331 68.3622 79.8895 69.0596 79.7665 69.4494C79.4383 70.5981 79.5203 72.1776 79.9716 73.2032C80.3203 73.9622 80.3613 74.3725 80.2588 75.6853C80.1357 77.1212 80.1562 77.2443 80.5049 77.2443C80.9562 77.2648 81.8998 79.0494 81.9203 79.9109C81.9203 80.3212 82.1254 80.5263 82.987 80.9366C83.91 81.3878 84.0536 81.552 84.2588 82.3109C84.6075 83.6237 84.2383 86.475 83.5613 87.6853C82.0639 90.3725 80.7306 93.9007 80.4844 95.8084C80.3818 96.6494 80.2383 96.9161 79.7254 97.2853C79.2126 97.634 79.028 97.675 78.7203 97.4904C78.4126 97.2853 78.2485 97.3263 77.8793 97.6955L77.428 98.1673L77.9203 98.6802C78.3511 99.1314 78.3716 99.2545 78.1254 99.3981C77.9613 99.5007 77.7562 99.6032 77.6742 99.6032C77.5921 99.6032 76.9152 100.178 76.1767 100.855L74.8434 102.126L73.9408 101.778C72.9972 101.408 72.5254 100.896 71.3767 98.9879C70.4947 97.5314 69.387 96.3827 68.587 96.1161L67.9511 95.9109L69.3049 94.5161C71.5408 92.2391 73.5306 88.5673 75.0075 83.9725C76.8947 78.2084 77.8383 73.2238 79.7665 58.8032C80.669 52.0956 81.4075 47.0494 81.9613 44.1161L82.2895 42.2699L82.6383 43.2955C82.8229 43.8494 83.0485 44.9981 83.1306 45.8391ZM125.838 43.3571C125.469 43.6853 125.469 43.6853 125.715 43.234C125.838 42.9673 126.002 42.8032 126.084 42.8648C126.146 42.9468 126.043 43.1519 125.838 43.3571ZM135.664 56.7109C136.054 60.7314 136.587 65.2443 137.305 70.475C137.592 72.5673 137.818 74.352 137.818 74.434C137.818 74.5161 137.469 74.352 137.059 74.0648C136.095 73.4289 135.295 73.4084 134.187 74.0443L133.305 74.5571L132.915 73.9827C132.69 73.675 132.361 73.0391 132.156 72.5468C131.787 71.6237 131.274 71.2955 130.207 71.2955C129.879 71.2955 128.997 71.0289 128.259 70.6802C127.007 70.1263 126.905 70.0237 127.028 69.552C127.11 69.2032 126.987 68.7109 126.638 68.0135C126.351 67.4596 126.125 66.8032 126.125 66.5571C126.125 66.3109 126.515 65.2443 126.966 64.1776C127.869 62.1468 127.931 61.3673 127.233 60.6084C126.782 60.1161 126.946 59.7263 128.484 57.4699C129.202 56.4032 130.29 54.6391 130.864 53.5314C131.459 52.4032 132.32 50.9468 132.772 50.2699C133.243 49.593 133.941 48.3827 134.331 47.6032L135.049 46.1879L135.192 49.7366C135.274 51.7058 135.479 54.8443 135.664 56.7109ZM66.5152 97.7366C66.7818 98.0238 66.8434 98.352 66.7613 98.9879C66.6383 100.034 65.5921 102.496 65.3049 102.413C65.0383 102.311 64.8331 100.916 64.8126 99.0494C64.7921 97.8186 64.8536 97.5725 65.1613 97.4904C65.8793 97.3058 66.1665 97.3468 66.5152 97.7366ZM163.418 97.7981C163.89 98.2699 163.684 98.5776 162.946 98.5776C162.495 98.5776 162.228 98.475 162.228 98.3109C162.228 97.9827 162.638 97.552 162.946 97.552C163.069 97.552 163.274 97.6545 163.418 97.7981ZM71.3767 101.778C72.0331 102.475 72.8331 102.885 73.6126 102.885C73.9408 102.885 74.228 102.926 74.228 102.967C74.228 103.029 73.8588 103.603 73.428 104.28C72.2998 105.962 71.4998 106.147 70.8844 104.834C70.6998 104.444 70.4126 104.116 70.228 104.116C69.9818 104.116 69.9203 103.849 69.9203 102.824C69.9203 102.106 69.9818 101.449 70.0639 101.388C70.3511 101.101 70.8844 101.265 71.3767 101.778ZM166.946 115.378C166.946 115.603 166.864 115.583 166.638 115.275C166.474 115.07 166.351 114.742 166.351 114.578C166.351 114.352 166.413 114.372 166.638 114.66C166.802 114.885 166.946 115.214 166.946 115.378ZM94.7818 136.567C94.4536 137.162 94.1254 137.798 94.0639 137.962C93.9818 138.188 93.9408 138.147 93.9408 137.86C93.9203 137.47 95.028 135.501 95.2742 135.501C95.3357 135.501 95.1101 135.993 94.7818 136.567ZM144.382 207.316C144.525 207.542 144.669 208.26 144.731 208.896L144.833 210.065L144.177 209.367C143.643 208.813 143.541 208.567 143.643 208.055C143.705 207.706 143.664 207.316 143.541 207.172C143.356 206.947 143.397 206.885 143.725 206.885C143.972 206.885 144.259 207.07 144.382 207.316ZM89.4895 219.952C89.7562 220.383 90.0229 221.101 90.0844 221.552L90.2075 222.372L89.2024 221.244C88.1357 220.055 88.0331 219.829 88.4229 219.439C88.8126 219.049 88.9562 219.131 89.4895 219.952ZM151.951 220.362C152.074 220.998 152.136 221.552 152.095 221.593C152.054 221.655 151.807 221.572 151.561 221.449C151.233 221.285 151.151 221.08 151.233 220.772C151.295 220.526 151.356 220.075 151.356 219.747C151.356 218.783 151.705 219.131 151.951 220.362Z" fill="black" stroke="white" stroke-width="2" mask="url(#path-1-inside-1)"/>
    </g>
    <defs>
        <filter id="filter0_d" x="0" y="0" width="193.594" height="256.046" filterUnits="userSpaceOnUse" color-interpolation-filters="sRGB">
            <feFlood flood-opacity="0" result="BackgroundImageFix"/>
            <feColorMatrix in="SourceAlpha" type="matrix" values="0 0 0 0 0 0 0 0 0 0 0 0 0 0 0 0 0 0 127 0"/>
            <feOffset dx="10"/>
            <feGaussianBlur stdDeviation="5"/>
            <feColorMatrix type="matrix" values="0 0 0 0 0.0235294 0 0 0 0 0.117647 0 0 0 0 0.196078 0 0 0 0.95 0"/>
            <feBlend mode="normal" in2="BackgroundImageFix" result="effect1_dropShadow"/>
            <feBlend mode="normal" in="SourceGraphic" in2="effect1_dropShadow" result="shape"/>
        </filter>
    </defs>
</svg>
