<svg width="194" height="257" viewBox="0 0 194 257" fill="none" xmlns="http://www.w3.org/2000/svg">
    <g filter="url(#filter0_d)">
        <mask id="path-1-inside-1" fill="white">
            <path d="M93.3947 10.2494C93.4972 10.3725 93.6613 10.9879 93.7229 11.6032C93.8049 12.2186 93.9895 13.2443 94.1331 13.8596C94.5434 15.5827 94.9126 19.5417 94.81 21.1417C94.7485 21.9212 94.6049 23.3161 94.4408 24.2186C94.1947 25.8186 94.2152 25.9417 94.81 28.2186C95.61 31.2955 96.5126 33.5725 98.933 38.5776C104.102 49.2443 110.502 58.3109 118.42 66.1468C122.009 69.6955 124.471 71.8289 130.44 76.5879C136.573 81.4904 139.896 84.3622 141.558 86.1673L142.952 87.6853L149.106 85.3673C162.583 80.3212 169.721 78.0648 172.346 78.0648C173.905 78.0648 173.987 78.4955 172.654 79.6853C170.623 81.552 164.49 84.752 152.778 90.0648L145.557 93.3263L145.209 94.5776C144.737 96.3212 144.081 97.3263 142.501 98.7827C139.281 101.716 132.696 103.89 126.953 103.911C125.866 103.911 124.799 104.055 123.773 104.362C122.317 104.793 122.132 104.916 120.122 106.865L118.009 108.916L118.133 107.993C118.194 107.501 118.297 106.844 118.338 106.516L118.44 105.962L117.763 106.29C117.415 106.496 116.779 106.844 116.348 107.111L115.609 107.583L115.466 110.27C115.281 113.326 115.281 113.347 113.374 113.347C112.779 113.347 112.245 113.49 111.876 113.757L111.302 114.167L111.917 116.157C112.245 117.265 112.697 118.762 112.922 119.48C113.148 120.198 113.312 120.813 113.271 120.834C113.169 120.957 106.707 116.055 106.133 115.419C105.641 114.885 104.471 114.372 103.712 114.372C103.569 114.372 103.2 114.496 102.892 114.66C101.189 115.521 100.902 115.09 102.338 113.778C103.179 112.998 103.343 112.937 104.369 112.937C105.517 112.937 106.133 112.608 106.133 112.013C106.133 111.849 105.887 111.214 105.579 110.578C105.046 109.511 104.984 109.449 104.246 109.449C103.61 109.449 103.425 109.552 103.282 109.901C103.035 110.516 101.846 111.624 101.251 111.808C101.005 111.87 100.8 112.013 100.8 112.116C100.8 112.198 100.225 112.875 99.5073 113.613C98.3176 114.865 97.9689 115.07 96.2869 115.501C95.651 115.665 94.2767 115.87 94.0921 115.849C93.969 115.808 93.5383 115.993 93.169 116.219C92.1845 116.813 91.5076 116.752 90.8717 116.013L90.3589 115.398L89.682 115.808C87.7743 116.978 85.4154 115.685 85.4154 113.47C85.4154 112.157 87.2205 110.701 88.5333 110.967L89.1692 111.09L89.0256 110.249C88.923 109.634 88.9845 109.265 89.2102 108.916C89.6204 108.301 89.682 108.301 90.4819 109.039C90.8512 109.388 91.1588 109.655 91.1999 109.655C91.364 109.655 91.2409 106.372 91.0563 106.208C90.9332 106.085 90.4409 105.962 89.9281 105.921C89.1692 105.839 88.7794 105.962 87.6923 106.557C86.5436 107.172 86.1949 107.275 84.8411 107.275L83.3026 107.296L82.9744 108.444C82.7693 109.121 82.2565 110.106 81.6411 110.906C80.6155 112.26 80.3899 112.67 80.2053 113.572C80.1437 113.88 79.7745 114.516 79.3848 114.967C78.9951 115.439 78.6258 115.972 78.5643 116.178C78.2976 117.06 77.99 120.219 77.99 122.27C77.99 124.137 78.0515 124.547 78.3181 124.67C78.5028 124.772 78.8104 124.916 78.9951 125.019C79.2002 125.101 79.4053 125.408 79.4258 125.675C79.4668 125.942 79.5899 126.249 79.6925 126.372C80.0002 126.68 79.8976 127.193 79.3438 128.198L78.8104 129.142L79.4463 129.901C79.795 130.331 80.0822 130.824 80.0822 130.988C80.0822 131.172 79.795 131.767 79.4463 132.321C78.5643 133.696 78.5643 134.619 79.4258 135.583C79.795 135.993 80.2873 136.731 80.513 137.203C80.7591 137.675 81.1283 138.29 81.3335 138.557C81.5591 138.824 81.7232 139.213 81.7232 139.419C81.7232 139.624 82.0104 140.321 82.3386 140.978C82.6873 141.634 83.0155 142.537 83.077 142.988C83.3437 144.69 84.8616 150.475 85.7436 153.101C86.2564 154.619 86.7692 156.362 86.8718 156.978C86.9949 157.613 87.2615 158.372 87.4871 158.68C87.7128 158.988 87.8769 159.46 87.8359 159.726C87.7538 160.403 88.9845 164.178 89.9691 166.27C90.6255 167.665 90.8101 168.321 90.8922 169.593C90.9947 170.988 91.0768 171.234 91.5896 171.726C91.9178 172.034 92.1845 172.383 92.1845 172.485C92.1845 172.588 92.3691 172.896 92.5947 173.183C92.8819 173.552 93.0049 174.024 93.0049 174.701C93.0049 175.849 93.5588 178.352 93.887 178.762C94.1331 179.049 94.4613 182.085 94.4613 183.911C94.4408 185.449 94.6254 186.167 94.9536 186.044C95.3639 185.88 95.5895 186.537 95.3023 187.008C94.9946 187.501 94.9946 188.075 95.3023 188.383C95.4664 188.547 95.4664 188.69 95.3023 188.875C95.1998 189.019 95.0357 189.778 94.9536 190.578L94.81 192.014L96.0408 193.203L97.2715 194.414L98.1946 193.101C98.6869 192.403 99.5484 191.07 100.102 190.188C101.251 188.342 101.538 188.096 102.318 188.301C103.056 188.485 103.056 188.444 100.964 193.757C98.9945 198.742 98.7484 199.275 97.8253 200.28C97.4561 200.711 97.0664 201.306 97.0048 201.593C96.9228 201.88 96.6151 202.414 96.3279 202.762C95.8767 203.275 95.569 203.419 94.7485 203.521C92.5742 203.767 92.4511 203.911 91.7742 206.988C91.4665 208.403 91.364 209.613 91.364 212.137C91.364 215.521 91.2819 215.911 90.5024 215.911C90.1742 215.911 90.1332 216.116 90.1332 217.675C90.1332 218.639 90.0307 219.829 89.9076 220.342C89.6204 221.47 88.6974 222.331 87.9589 222.147C87.4871 222.024 87.4666 222.065 87.4666 223.152C87.4666 223.767 87.323 224.67 87.1384 225.162C86.9538 225.655 86.8102 226.311 86.8307 226.598C86.8513 226.906 86.6666 227.767 86.4205 228.506L86.0103 229.88L87.2615 231.316C87.9589 232.096 88.6563 232.731 88.8204 232.731C88.964 232.731 89.805 233.121 90.6871 233.572C91.8152 234.188 92.5537 234.434 93.2306 234.455C94.4613 234.496 96.7177 235.624 97.8253 236.731C98.7484 237.655 99.3638 239.214 99.3638 240.649C99.3638 241.47 99.3227 241.552 98.851 241.552C98.5638 241.552 98.0305 241.675 97.6612 241.839C97.292 241.983 95.7536 242.414 94.2562 242.762C91.405 243.46 89.0461 243.624 87.7538 243.234C87.3436 243.111 86.0103 243.09 84.2667 243.214C80.2668 243.439 80.2873 243.439 80.2873 243.07C80.2873 242.885 80.1643 242.783 80.0002 242.844C79.8566 242.906 78.7899 243.172 77.6618 243.419C75.7131 243.849 75.4464 243.87 73.7849 243.624C72.7798 243.48 71.5286 243.337 70.9747 243.296C69.5389 243.193 68.9645 243.029 68.4517 242.537C68.103 242.208 68.0415 242.024 68.1851 241.655C68.5748 240.649 68.6158 238.721 68.3082 236.485C68.0415 234.331 67.9389 234.065 67.0569 232.629C66.3185 231.439 66.1339 231.029 66.3185 230.803C66.4826 230.598 66.4415 230.434 66.1133 230.147C65.8672 229.942 65.4775 229.388 65.2108 228.937C64.698 228.055 63.5288 224.424 63.4262 223.398C63.3647 222.803 63.3852 222.783 64.1647 222.803C64.657 222.824 65.7236 223.214 67.0569 223.89C68.2261 224.465 69.2722 224.937 69.3748 224.937C69.5594 224.937 70.0722 223.89 70.1543 223.378C70.1748 223.255 70.4209 222.926 70.7081 222.639C71.2004 222.126 71.2209 222.106 70.9132 221.019C70.7491 220.403 70.585 219.111 70.5645 218.147C70.503 216.916 70.3799 216.219 70.1337 215.849C69.7235 215.193 69.7645 214.496 70.4619 211.972C70.8927 210.393 70.9132 210.065 70.7081 208.855C70.585 208.075 70.0722 206.639 69.4773 205.408L68.4928 203.296V200.896C68.4928 198.803 68.5543 198.434 68.9235 197.942C69.744 196.814 70.3594 196.526 72.0414 196.465L73.6208 196.383L74.2772 195.337C74.6464 194.742 74.9541 194.003 74.9541 193.655C74.9541 193.326 75.1798 192.567 75.4464 191.993C75.7131 191.419 75.9182 190.701 75.9182 190.393C75.9182 189.675 76.3695 189.224 77.6207 188.629C78.1951 188.362 78.6463 188.055 78.6463 187.952C78.6463 187.521 76.4515 183.562 75.4259 182.167C73.9695 180.157 72.6157 177.552 72.9029 177.265C73.2721 176.896 73.1285 176.424 72.2875 175.296C71.8363 174.68 71.3029 173.819 71.0978 173.347C70.9132 172.896 70.4414 171.931 70.0722 171.193C69.6825 170.455 69.1492 169.408 68.8825 168.875C68.5953 168.342 67.9389 167.275 67.3851 166.516C66.8313 165.757 65.8056 164.034 65.0877 162.68C64.3698 161.326 63.3237 159.583 62.7698 158.824C61.7647 157.429 61.7442 157.429 61.4981 157.901C61.3545 158.188 60.9853 159.357 60.6981 160.526C60.1853 162.578 60.1648 162.742 60.3699 165.224C60.493 166.639 60.6571 168.198 60.7186 168.69C60.8007 169.326 60.7596 169.696 60.493 170.085C60.1853 170.557 60.1853 170.721 60.4725 171.993C60.6571 172.752 60.7801 174.065 60.7801 174.906C60.7801 175.747 60.7801 177.531 60.8007 178.885C60.8417 180.239 60.7801 182.311 60.6981 183.501C60.6366 184.69 60.575 186.455 60.575 187.439C60.5955 188.649 60.4519 189.921 60.1032 191.439C59.8366 192.649 59.5494 193.983 59.4879 194.414C59.4058 194.885 59.1597 195.275 58.852 195.48C58.5238 195.706 58.3597 195.972 58.4007 196.26C58.4212 196.567 58.2981 196.793 58.011 196.916C57.7853 197.019 57.3956 197.408 57.1495 197.778C56.7392 198.414 56.7187 198.537 56.9854 199.542C57.129 200.137 57.3341 200.629 57.4366 200.629C57.5392 200.608 58.2981 200.28 59.1392 199.849C60.6981 199.09 61.0058 199.07 61.6006 199.788C61.7442 199.952 61.8058 200.28 61.7237 200.506C61.3955 201.593 53.4367 208.813 51.5906 209.696C50.6266 210.167 50.4009 210.208 49.683 210.024L48.883 209.819L47.6933 211.275C45.3959 214.106 43.9806 216.096 42.5242 218.496C40.596 221.696 39.7961 222.762 38.9551 223.296L38.2371 223.747V225.429V227.131L37.2115 228.096C36.6577 228.608 36.1039 229.039 35.9808 229.039C35.8372 229.039 35.8372 229.183 36.0013 229.49C36.1449 229.757 36.2064 230.578 36.1449 231.685C36.0833 232.752 36.1449 233.901 36.309 234.619C36.6167 235.952 37.7448 237.839 38.4628 238.249C39.2422 238.68 39.9397 239.685 40.4114 241.06C40.6371 241.757 40.9858 242.496 41.1704 242.68C41.355 242.865 41.5191 243.214 41.5191 243.46C41.4986 244.014 40.6371 245.039 40.1653 245.039C39.9807 245.039 39.5499 245.285 39.2012 245.572C38.5858 246.085 38.4833 246.106 37.0064 245.983C34.8936 245.778 27.4887 245.408 26.2169 245.429C25.2323 245.449 25.1298 245.408 24.3093 244.485C23.5503 243.665 23.4478 243.439 23.5298 242.865C23.6324 242.311 23.5093 242.065 22.9145 241.367C22.3401 240.67 22.217 240.403 22.3196 239.952C22.976 237.306 22.9145 236.855 21.8888 236.834C21.3965 236.834 21.2324 236.649 20.8427 235.603C20.1248 233.737 20.1248 233.49 20.6786 230.639L21.1914 227.911L20.6991 225.757C20.412 224.567 20.1863 223.09 20.1658 222.475C20.1453 221.039 20.8837 218.988 22.3401 216.342C23.058 215.09 23.5298 213.942 23.6529 213.183C23.776 212.547 23.9606 211.829 24.0836 211.603C24.5965 210.66 25.6221 211.296 27.1605 213.49C27.5297 214.044 27.8579 214.475 27.8579 214.475C27.8784 214.475 27.8784 212.793 27.8579 210.721C27.8579 208.67 27.9194 206.701 28.022 206.352C28.1246 205.942 28.5348 205.47 29.1297 205.039C30.3399 204.178 30.8527 203.337 30.8527 202.167C30.8527 201.47 31.0373 200.957 31.5706 200.075C32.1245 199.172 32.3296 198.557 32.4937 197.367C32.7193 195.542 33.2526 194.393 34.1962 193.675C34.9962 193.06 37.232 192.014 38.1756 191.829C38.6884 191.706 38.9551 191.46 39.3653 190.742C39.714 190.085 39.8166 189.716 39.673 189.572C39.4063 189.306 39.4063 188.485 39.673 188.321C39.7756 188.26 40.1653 188.178 40.5345 188.137C40.9037 188.096 41.6627 187.788 42.196 187.439C42.7498 187.09 43.5293 186.762 43.9395 186.68L44.6985 186.557L44.7395 184.362C44.7805 182.947 44.678 181.798 44.4934 181.142C43.878 178.967 43.3652 176.588 43.3652 175.849C43.3652 175.439 43.078 174.393 42.7293 173.511C42.1755 172.137 42.0729 171.603 42.0319 169.757C42.0114 168.547 41.7858 166.783 41.5601 165.757C41.314 164.67 41.1499 163.131 41.1499 162.044C41.1294 161.039 40.9858 159.501 40.8012 158.66C40.6166 157.839 40.4114 156.813 40.3499 156.424C40.1858 155.357 39.2627 152.567 38.7294 151.48C38.4628 150.967 38.3192 150.352 38.3602 150.106C38.4217 149.88 38.1551 148.649 37.7654 147.357C37.2936 145.798 36.9449 144.013 36.6987 141.942L36.3295 138.844L36.8013 136.403C37.0474 135.07 37.6628 132.711 38.1756 131.193C38.9961 128.69 39.0576 128.301 38.9346 127.131C38.832 126.167 38.873 125.675 39.1192 125.183C39.2833 124.813 39.5704 124.178 39.755 123.747C40.0627 123.029 42.4011 120.403 44.1652 118.803C44.9857 118.044 47.9394 113.819 48.842 112.096C49.2112 111.398 49.642 110.68 49.8061 110.496C50.524 109.716 50.7496 108.649 50.8317 105.839C50.8932 103.706 50.8317 102.926 50.6266 102.496C50.4214 102.147 50.3394 101.449 50.3804 100.403C50.4214 98.9468 50.3804 98.8032 49.8266 98.1263C49.4779 97.7366 48.8215 97.1622 48.3292 96.8545C46.9138 95.9725 47.2625 94.8853 48.9445 94.8853H49.6215L49.4163 92.9776C49.2933 91.952 49.0881 90.8853 48.9445 90.6186C48.7804 90.352 48.2676 89.9622 47.7753 89.7571C46.7908 89.3263 46.5446 88.752 47.0164 87.952C47.2215 87.6237 47.5087 87.5007 48.001 87.5007C48.6163 87.5007 48.6984 87.4391 48.6984 86.9879C48.6984 86.7007 48.6574 86.475 48.5958 86.475C48.5343 86.475 47.9805 86.8237 47.3446 87.234C46.6061 87.7263 46.2574 88.075 46.3395 88.2802C46.8728 89.6545 46.6882 90.352 45.6216 91.0699C44.637 91.7058 44.3908 91.7263 43.7139 91.193L43.1806 90.7622L41.437 92.0545C40.473 92.7725 37.95 94.5161 35.8167 95.9109L31.9399 98.475L31.2835 101.101C30.3399 104.896 29.3758 107.562 28.3502 109.265C27.8374 110.106 27.222 111.234 26.9759 111.808C26.4426 113.019 25.7041 113.86 24.699 114.372C23.817 114.824 22.4632 114.66 21.3145 113.983C20.8837 113.737 20.535 113.552 20.5145 113.593C20.494 113.634 20.2684 113.921 20.0222 114.249C19.5504 114.885 19.4274 115.993 19.7966 116.362C19.9607 116.526 19.9402 116.711 19.7556 117.06C19.612 117.326 19.3248 118.126 19.1402 118.803C18.8735 119.87 18.853 120.137 19.0787 120.547C19.2222 120.813 19.3453 121.47 19.3658 121.983C19.3658 122.844 19.4274 122.967 19.8991 123.07C20.3504 123.193 20.412 123.296 20.2889 123.767C20.2273 124.075 19.9607 124.547 19.7145 124.793C19.3248 125.203 19.1197 125.265 18.2992 125.183C17.1915 125.08 16.9044 125.285 16.5146 126.455C16.2069 127.357 15.3249 128.526 14.9352 128.526C14.7506 128.526 14.4019 129.019 14.1147 129.696C13.2532 131.665 13.1506 131.829 12.5968 132.096C12.0224 132.403 10.9968 132.219 10.7301 131.767C10.484 131.398 10.5045 130.003 10.7301 129.183C10.8327 128.834 10.8943 128.526 10.8737 128.526C10.8327 128.526 10.4019 128.67 9.90965 128.855C9.41736 129.039 8.41226 129.347 7.67381 129.552C6.05334 129.983 4.51492 130.926 3.85854 131.89C3.40726 132.547 3.38675 132.711 3.57137 133.572C3.73546 134.27 4.02263 134.762 4.59697 135.337C5.56105 136.239 5.60208 136.485 4.92517 137.121L4.41237 137.593L3.48932 137.162C1.9509 136.403 1.21245 135.46 0.51503 133.347C-0.0388031 131.665 -0.0798187 131.337 0.0842743 130.249C0.371445 128.301 0.658615 127.603 1.52013 126.619C1.97141 126.106 2.34062 125.572 2.34062 125.408C2.34062 124.567 3.98161 122.66 4.88416 122.455C5.90976 122.229 5.93028 122.147 4.92517 121.511C4.39186 121.183 3.92007 120.793 3.83803 120.608C3.77649 120.444 4.06366 119.808 4.47391 119.193C5.33542 117.88 5.37645 117.737 4.74055 118.167C4.49442 118.331 3.87904 119.111 3.36624 119.911C2.85344 120.69 2.34062 121.347 2.19704 121.347C1.74577 121.347 1.4586 120.485 1.43808 119.111C1.43808 118.003 1.58167 117.326 2.32011 115.296C2.81241 113.942 3.38675 112.485 3.61238 112.055C3.8175 111.624 3.98161 111.07 3.96109 110.824C3.87904 109.798 4.04315 109.449 5.62259 107.603C6.52513 106.537 7.26358 105.613 7.26358 105.511C7.26358 105.429 7.01743 104.855 6.70975 104.219C6.19693 103.193 6.17642 103.029 6.42258 102.413C6.56616 102.065 6.68922 101.655 6.66872 101.552C6.66872 101.429 6.64821 100.978 6.62769 100.506C6.60718 100.055 6.75076 99.152 6.93538 98.5161C7.34563 97.1417 7.53023 97.0391 10.1148 97.0391C11.7353 97.0391 11.8788 97.0186 12.4122 96.4853C12.8429 96.0545 13.1711 95.9109 13.7865 95.9109C14.4839 95.9109 14.6275 95.8289 14.73 95.4186C14.7916 95.1314 14.7711 94.6802 14.648 94.3725C14.3403 93.5314 14.4019 93.2648 15.0582 92.6084C15.571 92.075 15.7557 92.0135 16.371 92.1161C17.1915 92.2802 18.3402 91.7263 18.3402 91.1725C18.3402 90.9879 18.6069 90.7212 18.9556 90.5776C19.2838 90.434 19.571 90.3109 19.571 90.2699C19.571 90.2494 20.2684 88.3417 21.1094 86.0443C21.9709 83.7468 23.2016 79.9725 23.8785 77.6545C24.5349 75.3366 26.0118 70.4545 27.1195 66.7827C31.8578 51.3366 32.9039 46.6597 34.0321 35.6032C34.1962 33.8596 34.5244 31.4596 34.75 30.2699C35.2013 27.8699 35.7757 22.4545 35.7757 20.6084C35.7757 19.5417 35.8372 19.3776 36.3705 19.0084C37.0884 18.4955 37.3756 18.475 37.991 18.9058C38.3397 19.1519 38.4423 19.3981 38.4217 19.9725C38.4012 20.4648 38.832 21.9827 39.632 24.1161C40.3089 25.9827 40.8832 27.6853 40.9447 27.9109C41.0063 28.2596 41.1499 28.3212 42.0729 28.2596C43.4678 28.1571 44.1242 28.5263 45.1498 30.0032C46.0728 31.3366 48.1035 34.8237 49.0676 36.752C49.9086 38.4135 51.0368 39.1725 55.8572 41.2648C56.8008 41.675 56.5341 41.8391 55.4469 41.5314C54.9547 41.3878 54.0316 41.2648 53.4162 41.2443C52.8009 41.2238 52.1034 41.1417 51.8983 41.0391C51.5701 40.8955 51.5291 40.9366 51.6522 41.2648C51.7342 41.4699 51.8573 41.8802 51.8983 42.1673C51.9599 42.4545 52.5752 43.2545 53.2521 43.952C53.9495 44.6494 54.4624 45.2853 54.3803 45.3673C54.1957 45.552 52.6573 44.2596 50.4625 42.0648C49.1907 40.793 48.7599 40.4443 49.0471 40.9366C49.2727 41.3263 49.9907 42.5161 50.6266 43.5827C51.7137 45.3878 51.9804 46.0648 51.6111 46.0648C51.447 46.0443 49.3343 42.9673 48.2061 41.0596C47.3446 39.6237 47.3036 39.6648 47.9189 41.2853C48.1651 41.9417 48.3907 42.5161 48.3907 42.5776C48.4112 42.6391 48.5753 43.2135 48.7804 43.8904C49.1497 45.1622 49.0471 45.634 48.5548 44.875C48.1241 44.2596 47.8369 44.3007 48.083 44.9571C48.2061 45.2443 48.2471 45.552 48.2061 45.634C48.1446 45.7161 48.2266 46.2084 48.3907 46.7417C48.801 48.0956 48.3907 48.1776 47.7753 46.8648C47.3036 45.8391 47.2831 45.8186 47.1395 46.352C47.0779 46.6597 47.16 47.5622 47.3651 48.4238C47.8984 50.6802 47.4472 50.8853 46.7292 48.7314C46.401 47.7673 46.3395 47.6853 46.278 48.1571C46.2164 48.6699 45.8267 48.9981 45.8267 48.5673C45.8267 48.4648 45.6421 48.1776 45.4164 47.9109C44.9036 47.3366 44.9036 47.4186 45.4164 49.4289C45.7241 50.5981 46.0523 51.3571 46.6267 52.0956C47.4882 53.2238 47.7343 53.8802 48.083 55.9109C48.4112 57.7161 48.801 58.5981 49.1907 58.4545C49.3753 58.393 50.1958 58.7007 51.0573 59.1725C51.9188 59.6443 52.6983 59.9725 52.8009 59.9109C52.9034 59.8494 53.047 59.9109 53.1085 60.0135C53.2726 60.3007 54.0316 59.6853 54.0316 59.275C54.0316 59.1314 53.7444 58.7212 53.4162 58.3725C52.7393 57.675 52.6368 56.875 53.088 55.8084C53.2726 55.3571 53.2932 54.9673 53.1496 54.3725C52.8419 53.1417 52.9239 49.634 53.2932 47.9314C53.806 45.4904 53.8675 45.552 54.8726 49.5314C55.3034 51.234 56.1649 53.8802 56.7802 55.4391C57.5597 57.4699 57.9905 58.8853 58.2366 60.4238C58.4212 61.6135 58.6674 62.9058 58.7699 63.3161C58.9545 64.0545 58.9545 64.0545 59.7955 63.9109C60.2673 63.8289 60.8827 63.5622 61.1904 63.3571C61.7032 62.9468 61.7237 62.8853 61.7442 60.7109C61.7442 59.0084 61.8673 57.9827 62.2775 56.3827L62.8314 54.2699L62.3391 53.4084C61.7442 52.3007 61.375 50.3725 61.416 48.3417C61.4365 47.4802 61.375 45.7161 61.2929 44.4238C61.0058 39.5212 62.1545 36.4032 65.1082 34.0237C65.8467 33.4494 66.6261 32.6084 66.8723 32.1776C68.103 29.8802 68.6979 29.2238 70.5645 28.0956C72.4311 26.9468 74.1336 26.9468 75.5285 28.0956C75.8362 28.3622 76.5336 28.834 77.0874 29.1417C78.2976 29.8391 80.3284 31.8904 80.2053 32.2596C80.1437 32.4032 80.2258 32.5263 80.4104 32.5263C80.5745 32.5263 80.7591 32.793 80.8412 33.1417C80.9027 33.5314 81.2924 34.0648 81.8873 34.5776L82.8103 35.3571L83.4462 34.8853C84.3282 34.2084 85.2923 32.5263 86.0103 30.475C86.3385 29.5109 86.8307 28.1366 87.1179 27.3981C87.6923 25.9212 87.8153 25.1212 88.082 21.6545C88.2461 19.1725 88.7999 17.1212 90.2563 13.4084C90.646 12.4238 90.9537 11.4802 90.9537 11.3161C90.9537 11.1519 91.0563 10.7827 91.1794 10.4955C91.3845 10.0443 91.5486 9.98273 92.3075 10.0032C92.7998 10.0032 93.2921 10.1263 93.3947 10.2494ZM92.8614 16.0545C92.9024 16.4853 92.9434 16.1776 92.9434 15.3981C92.9434 14.5981 92.9024 14.2699 92.8614 14.6186C92.8203 14.9879 92.8203 15.6443 92.8614 16.0545ZM37.0884 22.3109C37.15 22.8032 37.2525 23.7468 37.3141 24.4238C37.5192 26.5366 37.8884 28.834 38.032 28.834C38.0936 28.834 38.3192 28.7109 38.5243 28.5673C38.873 28.3212 38.8525 28.1776 38.3397 25.9622C38.0525 24.6699 37.7038 23.1109 37.5602 22.5161C37.2936 21.2443 36.9449 21.0802 37.0884 22.3109ZM45.7651 32.4648C45.9087 33.1212 46.0728 33.8802 46.1344 34.1673C46.2164 34.6597 48.4523 37.3468 48.6163 37.1827C48.6574 37.1417 48.4112 36.5673 48.0625 35.8904C46.4626 32.8955 45.601 31.2955 45.5395 31.2955C45.519 31.2955 45.601 31.8289 45.7651 32.4648ZM85.2308 35.3161C85.1487 35.2545 84.8616 35.7058 84.5744 36.3212C84.2872 36.9366 84.1847 37.3468 84.3282 37.2238C84.5949 36.9776 85.6205 35.2135 85.6 35.0084C85.6 34.9468 85.5385 35.0084 85.4769 35.1519C85.4359 35.275 85.3128 35.3571 85.2308 35.3161ZM83.6308 36.5878L83.8565 37.0802L84.1026 36.4032C84.2462 36.0135 84.3693 35.5417 84.3693 35.3366C84.3898 35.0289 84.2872 35.0699 83.8975 35.5417C83.4872 36.0135 83.4462 36.1776 83.6308 36.5878ZM85.0257 37.1622C84.6154 37.7571 84.4513 38.1879 84.5539 38.3725C84.6564 38.5776 84.8616 38.3109 85.2513 37.4494C85.5385 36.7725 85.7641 36.2186 85.7231 36.2186C85.6821 36.2186 85.3744 36.6494 85.0257 37.1622ZM85.4154 38.6186C85.0667 39.3981 85.0052 39.8084 85.1282 40.6289L85.2718 41.6545L85.5385 41.0186C85.6821 40.6699 85.9487 40.3212 86.1333 40.2596C86.5846 40.075 86.482 37.6545 86.0103 37.6545C85.9282 37.6545 85.641 38.0853 85.4154 38.6186ZM50.524 39.4596C50.6471 39.6853 51.4265 40.1366 52.288 40.4853C53.1496 40.8135 53.806 41.0391 53.7444 40.9776C53.6419 40.875 50.565 39.1519 50.3804 39.1109C50.3599 39.0904 50.4214 39.2545 50.524 39.4596ZM49.1086 39.7673C49.1086 39.7879 49.6009 40.2802 50.1753 40.834L51.2624 41.8596L50.2368 40.7725C49.2933 39.7879 49.1086 39.6032 49.1086 39.7673ZM46.9549 41.0802C47.0164 41.4084 47.16 41.7366 47.2625 41.8391C47.3651 41.9417 47.3446 41.6955 47.2215 41.2853C46.9549 40.4032 46.7497 40.2596 46.9549 41.0802ZM90.4614 45.8391C90.3794 46.6802 89.9896 48.3622 89.5999 49.593C89.2102 50.8237 88.9025 51.9725 88.9025 52.1161C88.9025 52.2802 89.1281 52.7314 89.3948 53.1212C89.805 53.7161 89.9076 54.2084 90.0307 56.0545C90.2768 60.0135 90.4819 61.0186 91.2614 62.1673C92.0409 63.3161 93.3537 66.6597 93.5178 67.9109C93.5588 68.3622 93.7024 69.0596 93.8254 69.4494C94.1536 70.5981 94.0716 72.1776 93.6203 73.2032C93.2716 73.9622 93.2306 74.3725 93.3331 75.6853C93.4562 77.1212 93.4357 77.2443 93.087 77.2443C92.6357 77.2648 91.6922 79.0494 91.6716 79.9109C91.6716 80.3212 91.4665 80.5263 90.605 80.9366C89.682 81.3878 89.5384 81.552 89.3332 82.3109C88.9845 83.6237 89.3538 86.475 90.0307 87.6853C91.5281 90.3725 92.8614 93.9007 93.1075 95.8084C93.2101 96.6494 93.3537 96.9161 93.8665 97.2853C94.3793 97.634 94.5639 97.675 94.8716 97.4904C95.1793 97.2853 95.3433 97.3263 95.7126 97.6955L96.1638 98.1673L95.6715 98.6802C95.2408 99.1314 95.2203 99.2545 95.4664 99.3981C95.6305 99.5007 95.8356 99.6032 95.9177 99.6032C95.9997 99.6032 96.6767 100.178 97.4151 100.855L98.7484 102.126L99.6509 101.778C100.594 101.408 101.066 100.896 102.215 98.9879C103.097 97.5314 104.205 96.3827 105.005 96.1161L105.641 95.9109L104.287 94.5161C102.051 92.2391 100.061 88.5673 98.5843 83.9725C96.6972 78.2084 95.7536 73.2238 93.8254 58.8032C92.9229 52.0956 92.1845 47.0494 91.6306 44.1161L91.3024 42.2699L90.9537 43.2955C90.7691 43.8494 90.5435 44.9981 90.4614 45.8391ZM47.7548 43.3571C48.1241 43.6853 48.1241 43.6853 47.8779 43.234C47.7548 42.9673 47.5907 42.8032 47.5087 42.8648C47.4472 42.9468 47.5497 43.1519 47.7548 43.3571ZM37.9294 56.7109C37.5397 60.7314 37.0064 65.2443 36.2885 70.475C36.0013 72.5673 35.7757 74.352 35.7757 74.434C35.7757 74.5161 36.1244 74.352 36.5346 74.0648C37.4987 73.4289 38.2987 73.4084 39.4063 74.0443L40.2884 74.5571L40.6781 73.9827C40.9037 73.675 41.2319 73.0391 41.437 72.5468C41.8063 71.6237 42.3191 71.2955 43.3857 71.2955C43.7139 71.2955 44.5959 71.0289 45.3344 70.6802C46.5856 70.1263 46.6882 70.0237 46.5651 69.552C46.4831 69.2032 46.6061 68.7109 46.9549 68.0135C47.242 67.4596 47.4677 66.8032 47.4677 66.5571C47.4677 66.3109 47.0779 65.2443 46.6267 64.1776C45.7241 62.1468 45.6626 61.3673 46.36 60.6084C46.8113 60.1161 46.6472 59.7263 45.1087 57.4699C44.3908 56.4032 43.3037 54.6391 42.7293 53.5314C42.1345 52.4032 41.2729 50.9468 40.8217 50.2699C40.3499 49.593 39.6525 48.3827 39.2627 47.6032L38.5448 46.1879L38.4012 49.7366C38.3192 51.7058 38.1141 54.8443 37.9294 56.7109ZM107.076 97.7366C106.81 98.0238 106.748 98.352 106.83 98.9879C106.953 100.034 107.999 102.496 108.287 102.413C108.553 102.311 108.758 100.916 108.779 99.0494C108.799 97.8186 108.738 97.5725 108.43 97.4904C107.712 97.3058 107.425 97.3468 107.076 97.7366ZM10.1763 97.7981C9.70454 98.2699 9.90965 98.5776 10.6481 98.5776C11.0994 98.5776 11.366 98.475 11.366 98.3109C11.366 97.9827 10.9558 97.552 10.6481 97.552C10.525 97.552 10.3199 97.6545 10.1763 97.7981ZM102.215 101.778C101.559 102.475 100.759 102.885 99.9791 102.885C99.6509 102.885 99.3638 102.926 99.3638 102.967C99.3638 103.029 99.733 103.603 100.164 104.28C101.292 105.962 102.092 106.147 102.707 104.834C102.892 104.444 103.179 104.116 103.364 104.116C103.61 104.116 103.671 103.849 103.671 102.824C103.671 102.106 103.61 101.449 103.528 101.388C103.241 101.101 102.707 101.265 102.215 101.778ZM6.64821 115.378C6.64821 115.603 6.73026 115.583 6.95589 115.275C7.12 115.07 7.24306 114.742 7.24306 114.578C7.24306 114.352 7.18152 114.372 6.95589 114.66C6.79179 114.885 6.64821 115.214 6.64821 115.378ZM78.8104 136.567C79.1386 137.162 79.4668 137.798 79.5284 137.962C79.6104 138.188 79.6514 138.147 79.6514 137.86C79.672 137.47 78.5643 135.501 78.3181 135.501C78.2566 135.501 78.4822 135.993 78.8104 136.567ZM29.2117 207.316C29.0681 207.542 28.9245 208.26 28.863 208.896L28.7605 210.065L29.4169 209.367C29.9502 208.813 30.0527 208.567 29.9502 208.055C29.8886 207.706 29.9297 207.316 30.0527 207.172C30.2373 206.947 30.1963 206.885 29.8681 206.885C29.622 206.885 29.3348 207.07 29.2117 207.316ZM84.1026 219.952C83.836 220.383 83.5693 221.101 83.5078 221.552L83.3847 222.372L84.3898 221.244C85.4564 220.055 85.559 219.829 85.1693 219.439C84.7795 219.049 84.6359 219.131 84.1026 219.952ZM21.6427 220.362C21.5196 220.998 21.4581 221.552 21.4991 221.593C21.5401 221.655 21.7863 221.572 22.0324 221.449C22.3606 221.285 22.4427 221.08 22.3606 220.772C22.2991 220.526 22.2375 220.075 22.2375 219.747C22.2375 218.783 21.8888 219.131 21.6427 220.362Z"/>
        </mask>
        <path d="M93.3947 10.2494C93.4972 10.3725 93.6613 10.9879 93.7229 11.6032C93.8049 12.2186 93.9895 13.2443 94.1331 13.8596C94.5434 15.5827 94.9126 19.5417 94.81 21.1417C94.7485 21.9212 94.6049 23.3161 94.4408 24.2186C94.1947 25.8186 94.2152 25.9417 94.81 28.2186C95.61 31.2955 96.5126 33.5725 98.933 38.5776C104.102 49.2443 110.502 58.3109 118.42 66.1468C122.009 69.6955 124.471 71.8289 130.44 76.5879C136.573 81.4904 139.896 84.3622 141.558 86.1673L142.952 87.6853L149.106 85.3673C162.583 80.3212 169.721 78.0648 172.346 78.0648C173.905 78.0648 173.987 78.4955 172.654 79.6853C170.623 81.552 164.49 84.752 152.778 90.0648L145.557 93.3263L145.209 94.5776C144.737 96.3212 144.081 97.3263 142.501 98.7827C139.281 101.716 132.696 103.89 126.953 103.911C125.866 103.911 124.799 104.055 123.773 104.362C122.317 104.793 122.132 104.916 120.122 106.865L118.009 108.916L118.133 107.993C118.194 107.501 118.297 106.844 118.338 106.516L118.44 105.962L117.763 106.29C117.415 106.496 116.779 106.844 116.348 107.111L115.609 107.583L115.466 110.27C115.281 113.326 115.281 113.347 113.374 113.347C112.779 113.347 112.245 113.49 111.876 113.757L111.302 114.167L111.917 116.157C112.245 117.265 112.697 118.762 112.922 119.48C113.148 120.198 113.312 120.813 113.271 120.834C113.169 120.957 106.707 116.055 106.133 115.419C105.641 114.885 104.471 114.372 103.712 114.372C103.569 114.372 103.2 114.496 102.892 114.66C101.189 115.521 100.902 115.09 102.338 113.778C103.179 112.998 103.343 112.937 104.369 112.937C105.517 112.937 106.133 112.608 106.133 112.013C106.133 111.849 105.887 111.214 105.579 110.578C105.046 109.511 104.984 109.449 104.246 109.449C103.61 109.449 103.425 109.552 103.282 109.901C103.035 110.516 101.846 111.624 101.251 111.808C101.005 111.87 100.8 112.013 100.8 112.116C100.8 112.198 100.225 112.875 99.5073 113.613C98.3176 114.865 97.9689 115.07 96.2869 115.501C95.651 115.665 94.2767 115.87 94.0921 115.849C93.969 115.808 93.5383 115.993 93.169 116.219C92.1845 116.813 91.5076 116.752 90.8717 116.013L90.3589 115.398L89.682 115.808C87.7743 116.978 85.4154 115.685 85.4154 113.47C85.4154 112.157 87.2205 110.701 88.5333 110.967L89.1692 111.09L89.0256 110.249C88.923 109.634 88.9845 109.265 89.2102 108.916C89.6204 108.301 89.682 108.301 90.4819 109.039C90.8512 109.388 91.1588 109.655 91.1999 109.655C91.364 109.655 91.2409 106.372 91.0563 106.208C90.9332 106.085 90.4409 105.962 89.9281 105.921C89.1692 105.839 88.7794 105.962 87.6923 106.557C86.5436 107.172 86.1949 107.275 84.8411 107.275L83.3026 107.296L82.9744 108.444C82.7693 109.121 82.2565 110.106 81.6411 110.906C80.6155 112.26 80.3899 112.67 80.2053 113.572C80.1437 113.88 79.7745 114.516 79.3848 114.967C78.9951 115.439 78.6258 115.972 78.5643 116.178C78.2976 117.06 77.99 120.219 77.99 122.27C77.99 124.137 78.0515 124.547 78.3181 124.67C78.5028 124.772 78.8104 124.916 78.9951 125.019C79.2002 125.101 79.4053 125.408 79.4258 125.675C79.4668 125.942 79.5899 126.249 79.6925 126.372C80.0002 126.68 79.8976 127.193 79.3438 128.198L78.8104 129.142L79.4463 129.901C79.795 130.331 80.0822 130.824 80.0822 130.988C80.0822 131.172 79.795 131.767 79.4463 132.321C78.5643 133.696 78.5643 134.619 79.4258 135.583C79.795 135.993 80.2873 136.731 80.513 137.203C80.7591 137.675 81.1283 138.29 81.3335 138.557C81.5591 138.824 81.7232 139.213 81.7232 139.419C81.7232 139.624 82.0104 140.321 82.3386 140.978C82.6873 141.634 83.0155 142.537 83.077 142.988C83.3437 144.69 84.8616 150.475 85.7436 153.101C86.2564 154.619 86.7692 156.362 86.8718 156.978C86.9949 157.613 87.2615 158.372 87.4871 158.68C87.7128 158.988 87.8769 159.46 87.8359 159.726C87.7538 160.403 88.9845 164.178 89.9691 166.27C90.6255 167.665 90.8101 168.321 90.8922 169.593C90.9947 170.988 91.0768 171.234 91.5896 171.726C91.9178 172.034 92.1845 172.383 92.1845 172.485C92.1845 172.588 92.3691 172.896 92.5947 173.183C92.8819 173.552 93.0049 174.024 93.0049 174.701C93.0049 175.849 93.5588 178.352 93.887 178.762C94.1331 179.049 94.4613 182.085 94.4613 183.911C94.4408 185.449 94.6254 186.167 94.9536 186.044C95.3639 185.88 95.5895 186.537 95.3023 187.008C94.9946 187.501 94.9946 188.075 95.3023 188.383C95.4664 188.547 95.4664 188.69 95.3023 188.875C95.1998 189.019 95.0357 189.778 94.9536 190.578L94.81 192.014L96.0408 193.203L97.2715 194.414L98.1946 193.101C98.6869 192.403 99.5484 191.07 100.102 190.188C101.251 188.342 101.538 188.096 102.318 188.301C103.056 188.485 103.056 188.444 100.964 193.757C98.9945 198.742 98.7484 199.275 97.8253 200.28C97.4561 200.711 97.0664 201.306 97.0048 201.593C96.9228 201.88 96.6151 202.414 96.3279 202.762C95.8767 203.275 95.569 203.419 94.7485 203.521C92.5742 203.767 92.4511 203.911 91.7742 206.988C91.4665 208.403 91.364 209.613 91.364 212.137C91.364 215.521 91.2819 215.911 90.5024 215.911C90.1742 215.911 90.1332 216.116 90.1332 217.675C90.1332 218.639 90.0307 219.829 89.9076 220.342C89.6204 221.47 88.6974 222.331 87.9589 222.147C87.4871 222.024 87.4666 222.065 87.4666 223.152C87.4666 223.767 87.323 224.67 87.1384 225.162C86.9538 225.655 86.8102 226.311 86.8307 226.598C86.8513 226.906 86.6666 227.767 86.4205 228.506L86.0103 229.88L87.2615 231.316C87.9589 232.096 88.6563 232.731 88.8204 232.731C88.964 232.731 89.805 233.121 90.6871 233.572C91.8152 234.188 92.5537 234.434 93.2306 234.455C94.4613 234.496 96.7177 235.624 97.8253 236.731C98.7484 237.655 99.3638 239.214 99.3638 240.649C99.3638 241.47 99.3227 241.552 98.851 241.552C98.5638 241.552 98.0305 241.675 97.6612 241.839C97.292 241.983 95.7536 242.414 94.2562 242.762C91.405 243.46 89.0461 243.624 87.7538 243.234C87.3436 243.111 86.0103 243.09 84.2667 243.214C80.2668 243.439 80.2873 243.439 80.2873 243.07C80.2873 242.885 80.1643 242.783 80.0002 242.844C79.8566 242.906 78.7899 243.172 77.6618 243.419C75.7131 243.849 75.4464 243.87 73.7849 243.624C72.7798 243.48 71.5286 243.337 70.9747 243.296C69.5389 243.193 68.9645 243.029 68.4517 242.537C68.103 242.208 68.0415 242.024 68.1851 241.655C68.5748 240.649 68.6158 238.721 68.3082 236.485C68.0415 234.331 67.9389 234.065 67.0569 232.629C66.3185 231.439 66.1339 231.029 66.3185 230.803C66.4826 230.598 66.4415 230.434 66.1133 230.147C65.8672 229.942 65.4775 229.388 65.2108 228.937C64.698 228.055 63.5288 224.424 63.4262 223.398C63.3647 222.803 63.3852 222.783 64.1647 222.803C64.657 222.824 65.7236 223.214 67.0569 223.89C68.2261 224.465 69.2722 224.937 69.3748 224.937C69.5594 224.937 70.0722 223.89 70.1543 223.378C70.1748 223.255 70.4209 222.926 70.7081 222.639C71.2004 222.126 71.2209 222.106 70.9132 221.019C70.7491 220.403 70.585 219.111 70.5645 218.147C70.503 216.916 70.3799 216.219 70.1337 215.849C69.7235 215.193 69.7645 214.496 70.4619 211.972C70.8927 210.393 70.9132 210.065 70.7081 208.855C70.585 208.075 70.0722 206.639 69.4773 205.408L68.4928 203.296V200.896C68.4928 198.803 68.5543 198.434 68.9235 197.942C69.744 196.814 70.3594 196.526 72.0414 196.465L73.6208 196.383L74.2772 195.337C74.6464 194.742 74.9541 194.003 74.9541 193.655C74.9541 193.326 75.1798 192.567 75.4464 191.993C75.7131 191.419 75.9182 190.701 75.9182 190.393C75.9182 189.675 76.3695 189.224 77.6207 188.629C78.1951 188.362 78.6463 188.055 78.6463 187.952C78.6463 187.521 76.4515 183.562 75.4259 182.167C73.9695 180.157 72.6157 177.552 72.9029 177.265C73.2721 176.896 73.1285 176.424 72.2875 175.296C71.8363 174.68 71.3029 173.819 71.0978 173.347C70.9132 172.896 70.4414 171.931 70.0722 171.193C69.6825 170.455 69.1492 169.408 68.8825 168.875C68.5953 168.342 67.9389 167.275 67.3851 166.516C66.8313 165.757 65.8056 164.034 65.0877 162.68C64.3698 161.326 63.3237 159.583 62.7698 158.824C61.7647 157.429 61.7442 157.429 61.4981 157.901C61.3545 158.188 60.9853 159.357 60.6981 160.526C60.1853 162.578 60.1648 162.742 60.3699 165.224C60.493 166.639 60.6571 168.198 60.7186 168.69C60.8007 169.326 60.7596 169.696 60.493 170.085C60.1853 170.557 60.1853 170.721 60.4725 171.993C60.6571 172.752 60.7801 174.065 60.7801 174.906C60.7801 175.747 60.7801 177.531 60.8007 178.885C60.8417 180.239 60.7801 182.311 60.6981 183.501C60.6366 184.69 60.575 186.455 60.575 187.439C60.5955 188.649 60.4519 189.921 60.1032 191.439C59.8366 192.649 59.5494 193.983 59.4879 194.414C59.4058 194.885 59.1597 195.275 58.852 195.48C58.5238 195.706 58.3597 195.972 58.4007 196.26C58.4212 196.567 58.2981 196.793 58.011 196.916C57.7853 197.019 57.3956 197.408 57.1495 197.778C56.7392 198.414 56.7187 198.537 56.9854 199.542C57.129 200.137 57.3341 200.629 57.4366 200.629C57.5392 200.608 58.2981 200.28 59.1392 199.849C60.6981 199.09 61.0058 199.07 61.6006 199.788C61.7442 199.952 61.8058 200.28 61.7237 200.506C61.3955 201.593 53.4367 208.813 51.5906 209.696C50.6266 210.167 50.4009 210.208 49.683 210.024L48.883 209.819L47.6933 211.275C45.3959 214.106 43.9806 216.096 42.5242 218.496C40.596 221.696 39.7961 222.762 38.9551 223.296L38.2371 223.747V225.429V227.131L37.2115 228.096C36.6577 228.608 36.1039 229.039 35.9808 229.039C35.8372 229.039 35.8372 229.183 36.0013 229.49C36.1449 229.757 36.2064 230.578 36.1449 231.685C36.0833 232.752 36.1449 233.901 36.309 234.619C36.6167 235.952 37.7448 237.839 38.4628 238.249C39.2422 238.68 39.9397 239.685 40.4114 241.06C40.6371 241.757 40.9858 242.496 41.1704 242.68C41.355 242.865 41.5191 243.214 41.5191 243.46C41.4986 244.014 40.6371 245.039 40.1653 245.039C39.9807 245.039 39.5499 245.285 39.2012 245.572C38.5858 246.085 38.4833 246.106 37.0064 245.983C34.8936 245.778 27.4887 245.408 26.2169 245.429C25.2323 245.449 25.1298 245.408 24.3093 244.485C23.5503 243.665 23.4478 243.439 23.5298 242.865C23.6324 242.311 23.5093 242.065 22.9145 241.367C22.3401 240.67 22.217 240.403 22.3196 239.952C22.976 237.306 22.9145 236.855 21.8888 236.834C21.3965 236.834 21.2324 236.649 20.8427 235.603C20.1248 233.737 20.1248 233.49 20.6786 230.639L21.1914 227.911L20.6991 225.757C20.412 224.567 20.1863 223.09 20.1658 222.475C20.1453 221.039 20.8837 218.988 22.3401 216.342C23.058 215.09 23.5298 213.942 23.6529 213.183C23.776 212.547 23.9606 211.829 24.0836 211.603C24.5965 210.66 25.6221 211.296 27.1605 213.49C27.5297 214.044 27.8579 214.475 27.8579 214.475C27.8784 214.475 27.8784 212.793 27.8579 210.721C27.8579 208.67 27.9194 206.701 28.022 206.352C28.1246 205.942 28.5348 205.47 29.1297 205.039C30.3399 204.178 30.8527 203.337 30.8527 202.167C30.8527 201.47 31.0373 200.957 31.5706 200.075C32.1245 199.172 32.3296 198.557 32.4937 197.367C32.7193 195.542 33.2526 194.393 34.1962 193.675C34.9962 193.06 37.232 192.014 38.1756 191.829C38.6884 191.706 38.9551 191.46 39.3653 190.742C39.714 190.085 39.8166 189.716 39.673 189.572C39.4063 189.306 39.4063 188.485 39.673 188.321C39.7756 188.26 40.1653 188.178 40.5345 188.137C40.9037 188.096 41.6627 187.788 42.196 187.439C42.7498 187.09 43.5293 186.762 43.9395 186.68L44.6985 186.557L44.7395 184.362C44.7805 182.947 44.678 181.798 44.4934 181.142C43.878 178.967 43.3652 176.588 43.3652 175.849C43.3652 175.439 43.078 174.393 42.7293 173.511C42.1755 172.137 42.0729 171.603 42.0319 169.757C42.0114 168.547 41.7858 166.783 41.5601 165.757C41.314 164.67 41.1499 163.131 41.1499 162.044C41.1294 161.039 40.9858 159.501 40.8012 158.66C40.6166 157.839 40.4114 156.813 40.3499 156.424C40.1858 155.357 39.2627 152.567 38.7294 151.48C38.4628 150.967 38.3192 150.352 38.3602 150.106C38.4217 149.88 38.1551 148.649 37.7654 147.357C37.2936 145.798 36.9449 144.013 36.6987 141.942L36.3295 138.844L36.8013 136.403C37.0474 135.07 37.6628 132.711 38.1756 131.193C38.9961 128.69 39.0576 128.301 38.9346 127.131C38.832 126.167 38.873 125.675 39.1192 125.183C39.2833 124.813 39.5704 124.178 39.755 123.747C40.0627 123.029 42.4011 120.403 44.1652 118.803C44.9857 118.044 47.9394 113.819 48.842 112.096C49.2112 111.398 49.642 110.68 49.8061 110.496C50.524 109.716 50.7496 108.649 50.8317 105.839C50.8932 103.706 50.8317 102.926 50.6266 102.496C50.4214 102.147 50.3394 101.449 50.3804 100.403C50.4214 98.9468 50.3804 98.8032 49.8266 98.1263C49.4779 97.7366 48.8215 97.1622 48.3292 96.8545C46.9138 95.9725 47.2625 94.8853 48.9445 94.8853H49.6215L49.4163 92.9776C49.2933 91.952 49.0881 90.8853 48.9445 90.6186C48.7804 90.352 48.2676 89.9622 47.7753 89.7571C46.7908 89.3263 46.5446 88.752 47.0164 87.952C47.2215 87.6237 47.5087 87.5007 48.001 87.5007C48.6163 87.5007 48.6984 87.4391 48.6984 86.9879C48.6984 86.7007 48.6574 86.475 48.5958 86.475C48.5343 86.475 47.9805 86.8237 47.3446 87.234C46.6061 87.7263 46.2574 88.075 46.3395 88.2802C46.8728 89.6545 46.6882 90.352 45.6216 91.0699C44.637 91.7058 44.3908 91.7263 43.7139 91.193L43.1806 90.7622L41.437 92.0545C40.473 92.7725 37.95 94.5161 35.8167 95.9109L31.9399 98.475L31.2835 101.101C30.3399 104.896 29.3758 107.562 28.3502 109.265C27.8374 110.106 27.222 111.234 26.9759 111.808C26.4426 113.019 25.7041 113.86 24.699 114.372C23.817 114.824 22.4632 114.66 21.3145 113.983C20.8837 113.737 20.535 113.552 20.5145 113.593C20.494 113.634 20.2684 113.921 20.0222 114.249C19.5504 114.885 19.4274 115.993 19.7966 116.362C19.9607 116.526 19.9402 116.711 19.7556 117.06C19.612 117.326 19.3248 118.126 19.1402 118.803C18.8735 119.87 18.853 120.137 19.0787 120.547C19.2222 120.813 19.3453 121.47 19.3658 121.983C19.3658 122.844 19.4274 122.967 19.8991 123.07C20.3504 123.193 20.412 123.296 20.2889 123.767C20.2273 124.075 19.9607 124.547 19.7145 124.793C19.3248 125.203 19.1197 125.265 18.2992 125.183C17.1915 125.08 16.9044 125.285 16.5146 126.455C16.2069 127.357 15.3249 128.526 14.9352 128.526C14.7506 128.526 14.4019 129.019 14.1147 129.696C13.2532 131.665 13.1506 131.829 12.5968 132.096C12.0224 132.403 10.9968 132.219 10.7301 131.767C10.484 131.398 10.5045 130.003 10.7301 129.183C10.8327 128.834 10.8943 128.526 10.8737 128.526C10.8327 128.526 10.4019 128.67 9.90965 128.855C9.41736 129.039 8.41226 129.347 7.67381 129.552C6.05334 129.983 4.51492 130.926 3.85854 131.89C3.40726 132.547 3.38675 132.711 3.57137 133.572C3.73546 134.27 4.02263 134.762 4.59697 135.337C5.56105 136.239 5.60208 136.485 4.92517 137.121L4.41237 137.593L3.48932 137.162C1.9509 136.403 1.21245 135.46 0.51503 133.347C-0.0388031 131.665 -0.0798187 131.337 0.0842743 130.249C0.371445 128.301 0.658615 127.603 1.52013 126.619C1.97141 126.106 2.34062 125.572 2.34062 125.408C2.34062 124.567 3.98161 122.66 4.88416 122.455C5.90976 122.229 5.93028 122.147 4.92517 121.511C4.39186 121.183 3.92007 120.793 3.83803 120.608C3.77649 120.444 4.06366 119.808 4.47391 119.193C5.33542 117.88 5.37645 117.737 4.74055 118.167C4.49442 118.331 3.87904 119.111 3.36624 119.911C2.85344 120.69 2.34062 121.347 2.19704 121.347C1.74577 121.347 1.4586 120.485 1.43808 119.111C1.43808 118.003 1.58167 117.326 2.32011 115.296C2.81241 113.942 3.38675 112.485 3.61238 112.055C3.8175 111.624 3.98161 111.07 3.96109 110.824C3.87904 109.798 4.04315 109.449 5.62259 107.603C6.52513 106.537 7.26358 105.613 7.26358 105.511C7.26358 105.429 7.01743 104.855 6.70975 104.219C6.19693 103.193 6.17642 103.029 6.42258 102.413C6.56616 102.065 6.68922 101.655 6.66872 101.552C6.66872 101.429 6.64821 100.978 6.62769 100.506C6.60718 100.055 6.75076 99.152 6.93538 98.5161C7.34563 97.1417 7.53023 97.0391 10.1148 97.0391C11.7353 97.0391 11.8788 97.0186 12.4122 96.4853C12.8429 96.0545 13.1711 95.9109 13.7865 95.9109C14.4839 95.9109 14.6275 95.8289 14.73 95.4186C14.7916 95.1314 14.7711 94.6802 14.648 94.3725C14.3403 93.5314 14.4019 93.2648 15.0582 92.6084C15.571 92.075 15.7557 92.0135 16.371 92.1161C17.1915 92.2802 18.3402 91.7263 18.3402 91.1725C18.3402 90.9879 18.6069 90.7212 18.9556 90.5776C19.2838 90.434 19.571 90.3109 19.571 90.2699C19.571 90.2494 20.2684 88.3417 21.1094 86.0443C21.9709 83.7468 23.2016 79.9725 23.8785 77.6545C24.5349 75.3366 26.0118 70.4545 27.1195 66.7827C31.8578 51.3366 32.9039 46.6597 34.0321 35.6032C34.1962 33.8596 34.5244 31.4596 34.75 30.2699C35.2013 27.8699 35.7757 22.4545 35.7757 20.6084C35.7757 19.5417 35.8372 19.3776 36.3705 19.0084C37.0884 18.4955 37.3756 18.475 37.991 18.9058C38.3397 19.1519 38.4423 19.3981 38.4217 19.9725C38.4012 20.4648 38.832 21.9827 39.632 24.1161C40.3089 25.9827 40.8832 27.6853 40.9447 27.9109C41.0063 28.2596 41.1499 28.3212 42.0729 28.2596C43.4678 28.1571 44.1242 28.5263 45.1498 30.0032C46.0728 31.3366 48.1035 34.8237 49.0676 36.752C49.9086 38.4135 51.0368 39.1725 55.8572 41.2648C56.8008 41.675 56.5341 41.8391 55.4469 41.5314C54.9547 41.3878 54.0316 41.2648 53.4162 41.2443C52.8009 41.2238 52.1034 41.1417 51.8983 41.0391C51.5701 40.8955 51.5291 40.9366 51.6522 41.2648C51.7342 41.4699 51.8573 41.8802 51.8983 42.1673C51.9599 42.4545 52.5752 43.2545 53.2521 43.952C53.9495 44.6494 54.4624 45.2853 54.3803 45.3673C54.1957 45.552 52.6573 44.2596 50.4625 42.0648C49.1907 40.793 48.7599 40.4443 49.0471 40.9366C49.2727 41.3263 49.9907 42.5161 50.6266 43.5827C51.7137 45.3878 51.9804 46.0648 51.6111 46.0648C51.447 46.0443 49.3343 42.9673 48.2061 41.0596C47.3446 39.6237 47.3036 39.6648 47.9189 41.2853C48.1651 41.9417 48.3907 42.5161 48.3907 42.5776C48.4112 42.6391 48.5753 43.2135 48.7804 43.8904C49.1497 45.1622 49.0471 45.634 48.5548 44.875C48.1241 44.2596 47.8369 44.3007 48.083 44.9571C48.2061 45.2443 48.2471 45.552 48.2061 45.634C48.1446 45.7161 48.2266 46.2084 48.3907 46.7417C48.801 48.0956 48.3907 48.1776 47.7753 46.8648C47.3036 45.8391 47.2831 45.8186 47.1395 46.352C47.0779 46.6597 47.16 47.5622 47.3651 48.4238C47.8984 50.6802 47.4472 50.8853 46.7292 48.7314C46.401 47.7673 46.3395 47.6853 46.278 48.1571C46.2164 48.6699 45.8267 48.9981 45.8267 48.5673C45.8267 48.4648 45.6421 48.1776 45.4164 47.9109C44.9036 47.3366 44.9036 47.4186 45.4164 49.4289C45.7241 50.5981 46.0523 51.3571 46.6267 52.0956C47.4882 53.2238 47.7343 53.8802 48.083 55.9109C48.4112 57.7161 48.801 58.5981 49.1907 58.4545C49.3753 58.393 50.1958 58.7007 51.0573 59.1725C51.9188 59.6443 52.6983 59.9725 52.8009 59.9109C52.9034 59.8494 53.047 59.9109 53.1085 60.0135C53.2726 60.3007 54.0316 59.6853 54.0316 59.275C54.0316 59.1314 53.7444 58.7212 53.4162 58.3725C52.7393 57.675 52.6368 56.875 53.088 55.8084C53.2726 55.3571 53.2932 54.9673 53.1496 54.3725C52.8419 53.1417 52.9239 49.634 53.2932 47.9314C53.806 45.4904 53.8675 45.552 54.8726 49.5314C55.3034 51.234 56.1649 53.8802 56.7802 55.4391C57.5597 57.4699 57.9905 58.8853 58.2366 60.4238C58.4212 61.6135 58.6674 62.9058 58.7699 63.3161C58.9545 64.0545 58.9545 64.0545 59.7955 63.9109C60.2673 63.8289 60.8827 63.5622 61.1904 63.3571C61.7032 62.9468 61.7237 62.8853 61.7442 60.7109C61.7442 59.0084 61.8673 57.9827 62.2775 56.3827L62.8314 54.2699L62.3391 53.4084C61.7442 52.3007 61.375 50.3725 61.416 48.3417C61.4365 47.4802 61.375 45.7161 61.2929 44.4238C61.0058 39.5212 62.1545 36.4032 65.1082 34.0237C65.8467 33.4494 66.6261 32.6084 66.8723 32.1776C68.103 29.8802 68.6979 29.2238 70.5645 28.0956C72.4311 26.9468 74.1336 26.9468 75.5285 28.0956C75.8362 28.3622 76.5336 28.834 77.0874 29.1417C78.2976 29.8391 80.3284 31.8904 80.2053 32.2596C80.1437 32.4032 80.2258 32.5263 80.4104 32.5263C80.5745 32.5263 80.7591 32.793 80.8412 33.1417C80.9027 33.5314 81.2924 34.0648 81.8873 34.5776L82.8103 35.3571L83.4462 34.8853C84.3282 34.2084 85.2923 32.5263 86.0103 30.475C86.3385 29.5109 86.8307 28.1366 87.1179 27.3981C87.6923 25.9212 87.8153 25.1212 88.082 21.6545C88.2461 19.1725 88.7999 17.1212 90.2563 13.4084C90.646 12.4238 90.9537 11.4802 90.9537 11.3161C90.9537 11.1519 91.0563 10.7827 91.1794 10.4955C91.3845 10.0443 91.5486 9.98273 92.3075 10.0032C92.7998 10.0032 93.2921 10.1263 93.3947 10.2494ZM92.8614 16.0545C92.9024 16.4853 92.9434 16.1776 92.9434 15.3981C92.9434 14.5981 92.9024 14.2699 92.8614 14.6186C92.8203 14.9879 92.8203 15.6443 92.8614 16.0545ZM37.0884 22.3109C37.15 22.8032 37.2525 23.7468 37.3141 24.4238C37.5192 26.5366 37.8884 28.834 38.032 28.834C38.0936 28.834 38.3192 28.7109 38.5243 28.5673C38.873 28.3212 38.8525 28.1776 38.3397 25.9622C38.0525 24.6699 37.7038 23.1109 37.5602 22.5161C37.2936 21.2443 36.9449 21.0802 37.0884 22.3109ZM45.7651 32.4648C45.9087 33.1212 46.0728 33.8802 46.1344 34.1673C46.2164 34.6597 48.4523 37.3468 48.6163 37.1827C48.6574 37.1417 48.4112 36.5673 48.0625 35.8904C46.4626 32.8955 45.601 31.2955 45.5395 31.2955C45.519 31.2955 45.601 31.8289 45.7651 32.4648ZM85.2308 35.3161C85.1487 35.2545 84.8616 35.7058 84.5744 36.3212C84.2872 36.9366 84.1847 37.3468 84.3282 37.2238C84.5949 36.9776 85.6205 35.2135 85.6 35.0084C85.6 34.9468 85.5385 35.0084 85.4769 35.1519C85.4359 35.275 85.3128 35.3571 85.2308 35.3161ZM83.6308 36.5878L83.8565 37.0802L84.1026 36.4032C84.2462 36.0135 84.3693 35.5417 84.3693 35.3366C84.3898 35.0289 84.2872 35.0699 83.8975 35.5417C83.4872 36.0135 83.4462 36.1776 83.6308 36.5878ZM85.0257 37.1622C84.6154 37.7571 84.4513 38.1879 84.5539 38.3725C84.6564 38.5776 84.8616 38.3109 85.2513 37.4494C85.5385 36.7725 85.7641 36.2186 85.7231 36.2186C85.6821 36.2186 85.3744 36.6494 85.0257 37.1622ZM85.4154 38.6186C85.0667 39.3981 85.0052 39.8084 85.1282 40.6289L85.2718 41.6545L85.5385 41.0186C85.6821 40.6699 85.9487 40.3212 86.1333 40.2596C86.5846 40.075 86.482 37.6545 86.0103 37.6545C85.9282 37.6545 85.641 38.0853 85.4154 38.6186ZM50.524 39.4596C50.6471 39.6853 51.4265 40.1366 52.288 40.4853C53.1496 40.8135 53.806 41.0391 53.7444 40.9776C53.6419 40.875 50.565 39.1519 50.3804 39.1109C50.3599 39.0904 50.4214 39.2545 50.524 39.4596ZM49.1086 39.7673C49.1086 39.7879 49.6009 40.2802 50.1753 40.834L51.2624 41.8596L50.2368 40.7725C49.2933 39.7879 49.1086 39.6032 49.1086 39.7673ZM46.9549 41.0802C47.0164 41.4084 47.16 41.7366 47.2625 41.8391C47.3651 41.9417 47.3446 41.6955 47.2215 41.2853C46.9549 40.4032 46.7497 40.2596 46.9549 41.0802ZM90.4614 45.8391C90.3794 46.6802 89.9896 48.3622 89.5999 49.593C89.2102 50.8237 88.9025 51.9725 88.9025 52.1161C88.9025 52.2802 89.1281 52.7314 89.3948 53.1212C89.805 53.7161 89.9076 54.2084 90.0307 56.0545C90.2768 60.0135 90.4819 61.0186 91.2614 62.1673C92.0409 63.3161 93.3537 66.6597 93.5178 67.9109C93.5588 68.3622 93.7024 69.0596 93.8254 69.4494C94.1536 70.5981 94.0716 72.1776 93.6203 73.2032C93.2716 73.9622 93.2306 74.3725 93.3331 75.6853C93.4562 77.1212 93.4357 77.2443 93.087 77.2443C92.6357 77.2648 91.6922 79.0494 91.6716 79.9109C91.6716 80.3212 91.4665 80.5263 90.605 80.9366C89.682 81.3878 89.5384 81.552 89.3332 82.3109C88.9845 83.6237 89.3538 86.475 90.0307 87.6853C91.5281 90.3725 92.8614 93.9007 93.1075 95.8084C93.2101 96.6494 93.3537 96.9161 93.8665 97.2853C94.3793 97.634 94.5639 97.675 94.8716 97.4904C95.1793 97.2853 95.3433 97.3263 95.7126 97.6955L96.1638 98.1673L95.6715 98.6802C95.2408 99.1314 95.2203 99.2545 95.4664 99.3981C95.6305 99.5007 95.8356 99.6032 95.9177 99.6032C95.9997 99.6032 96.6767 100.178 97.4151 100.855L98.7484 102.126L99.6509 101.778C100.594 101.408 101.066 100.896 102.215 98.9879C103.097 97.5314 104.205 96.3827 105.005 96.1161L105.641 95.9109L104.287 94.5161C102.051 92.2391 100.061 88.5673 98.5843 83.9725C96.6972 78.2084 95.7536 73.2238 93.8254 58.8032C92.9229 52.0956 92.1845 47.0494 91.6306 44.1161L91.3024 42.2699L90.9537 43.2955C90.7691 43.8494 90.5435 44.9981 90.4614 45.8391ZM47.7548 43.3571C48.1241 43.6853 48.1241 43.6853 47.8779 43.234C47.7548 42.9673 47.5907 42.8032 47.5087 42.8648C47.4472 42.9468 47.5497 43.1519 47.7548 43.3571ZM37.9294 56.7109C37.5397 60.7314 37.0064 65.2443 36.2885 70.475C36.0013 72.5673 35.7757 74.352 35.7757 74.434C35.7757 74.5161 36.1244 74.352 36.5346 74.0648C37.4987 73.4289 38.2987 73.4084 39.4063 74.0443L40.2884 74.5571L40.6781 73.9827C40.9037 73.675 41.2319 73.0391 41.437 72.5468C41.8063 71.6237 42.3191 71.2955 43.3857 71.2955C43.7139 71.2955 44.5959 71.0289 45.3344 70.6802C46.5856 70.1263 46.6882 70.0237 46.5651 69.552C46.4831 69.2032 46.6061 68.7109 46.9549 68.0135C47.242 67.4596 47.4677 66.8032 47.4677 66.5571C47.4677 66.3109 47.0779 65.2443 46.6267 64.1776C45.7241 62.1468 45.6626 61.3673 46.36 60.6084C46.8113 60.1161 46.6472 59.7263 45.1087 57.4699C44.3908 56.4032 43.3037 54.6391 42.7293 53.5314C42.1345 52.4032 41.2729 50.9468 40.8217 50.2699C40.3499 49.593 39.6525 48.3827 39.2627 47.6032L38.5448 46.1879L38.4012 49.7366C38.3192 51.7058 38.1141 54.8443 37.9294 56.7109ZM107.076 97.7366C106.81 98.0238 106.748 98.352 106.83 98.9879C106.953 100.034 107.999 102.496 108.287 102.413C108.553 102.311 108.758 100.916 108.779 99.0494C108.799 97.8186 108.738 97.5725 108.43 97.4904C107.712 97.3058 107.425 97.3468 107.076 97.7366ZM10.1763 97.7981C9.70454 98.2699 9.90965 98.5776 10.6481 98.5776C11.0994 98.5776 11.366 98.475 11.366 98.3109C11.366 97.9827 10.9558 97.552 10.6481 97.552C10.525 97.552 10.3199 97.6545 10.1763 97.7981ZM102.215 101.778C101.559 102.475 100.759 102.885 99.9791 102.885C99.6509 102.885 99.3638 102.926 99.3638 102.967C99.3638 103.029 99.733 103.603 100.164 104.28C101.292 105.962 102.092 106.147 102.707 104.834C102.892 104.444 103.179 104.116 103.364 104.116C103.61 104.116 103.671 103.849 103.671 102.824C103.671 102.106 103.61 101.449 103.528 101.388C103.241 101.101 102.707 101.265 102.215 101.778ZM6.64821 115.378C6.64821 115.603 6.73026 115.583 6.95589 115.275C7.12 115.07 7.24306 114.742 7.24306 114.578C7.24306 114.352 7.18152 114.372 6.95589 114.66C6.79179 114.885 6.64821 115.214 6.64821 115.378ZM78.8104 136.567C79.1386 137.162 79.4668 137.798 79.5284 137.962C79.6104 138.188 79.6514 138.147 79.6514 137.86C79.672 137.47 78.5643 135.501 78.3181 135.501C78.2566 135.501 78.4822 135.993 78.8104 136.567ZM29.2117 207.316C29.0681 207.542 28.9245 208.26 28.863 208.896L28.7605 210.065L29.4169 209.367C29.9502 208.813 30.0527 208.567 29.9502 208.055C29.8886 207.706 29.9297 207.316 30.0527 207.172C30.2373 206.947 30.1963 206.885 29.8681 206.885C29.622 206.885 29.3348 207.07 29.2117 207.316ZM84.1026 219.952C83.836 220.383 83.5693 221.101 83.5078 221.552L83.3847 222.372L84.3898 221.244C85.4564 220.055 85.559 219.829 85.1693 219.439C84.7795 219.049 84.6359 219.131 84.1026 219.952ZM21.6427 220.362C21.5196 220.998 21.4581 221.552 21.4991 221.593C21.5401 221.655 21.7863 221.572 22.0324 221.449C22.3606 221.285 22.4427 221.08 22.3606 220.772C22.2991 220.526 22.2375 220.075 22.2375 219.747C22.2375 218.783 21.8888 219.131 21.6427 220.362Z" fill="black" stroke="white" stroke-width="2" mask="url(#path-1-inside-1)"/>
    </g>
    <defs>
        <filter id="filter0_d" x="0" y="0" width="193.59" height="256.046" filterUnits="userSpaceOnUse" color-interpolation-filters="sRGB">
            <feFlood flood-opacity="0" result="BackgroundImageFix"/>
            <feColorMatrix in="SourceAlpha" type="matrix" values="0 0 0 0 0 0 0 0 0 0 0 0 0 0 0 0 0 0 127 0"/>
            <feOffset dx="10"/>
            <feGaussianBlur stdDeviation="5"/>
            <feColorMatrix type="matrix" values="0 0 0 0 0.0235294 0 0 0 0 0.117647 0 0 0 0 0.196078 0 0 0 0.95 0"/>
            <feBlend mode="normal" in2="BackgroundImageFix" result="effect1_dropShadow"/>
            <feBlend mode="normal" in="SourceGraphic" in2="effect1_dropShadow" result="shape"/>
        </filter>
    </defs>
</svg>
