<svg width="88" height="131" viewBox="0 0 88 131" fill="none" xmlns="http://www.w3.org/2000/svg">
    <path d="M42.9318 36.064C39.8813 36.4499 37.3591 37.9817 35.6736 40.487C35.4362 40.8433 34.9614 41.716 34.8368 42.0366C34.5816 42.6896 34.5163 42.8737 34.4688 43.0577C34.3205 43.5921 34.2908 43.6989 34.2315 43.978C34.1365 44.441 34 45.5987 34 45.9965C34 46.614 34.178 47.8785 34.3561 48.5316C34.3858 48.6563 34.4392 48.8462 34.4688 48.9472C34.5994 49.434 35.0564 50.473 35.4006 51.0726C36.1068 52.2837 37.2463 53.4889 38.4926 54.326C38.9555 54.6407 39.7982 55.0681 40.4985 55.3472C41.3769 55.6975 43.003 56.0002 43.9881 56.0002C44.4748 56.0002 45.5846 55.8637 46.1899 55.7331C46.6944 55.6262 47.4243 55.4066 47.4955 55.3353C47.5312 55.3116 47.5905 55.2878 47.638 55.2878C47.7685 55.2878 49.0742 54.6169 49.4896 54.3379C50.6469 53.5542 51.5549 52.6518 52.3323 51.4941C52.6291 51.0607 53.2878 49.7783 53.2878 49.6418C53.2878 49.5943 53.3116 49.529 53.3353 49.4934C53.3887 49.434 53.5905 48.7928 53.6914 48.3416C53.727 48.1932 53.7745 48.0091 53.7923 47.926C53.8694 47.6173 54 46.3943 54 45.9965C54 45.5037 53.8635 44.3817 53.7389 43.8058C53.6202 43.2893 53.4065 42.5709 53.3353 42.4937C53.3116 42.464 53.2878 42.3987 53.2878 42.3453C53.2878 42.2266 52.635 40.9442 52.3917 40.582C51.2878 38.9494 49.9881 37.8035 48.3323 37.0021C46.6706 36.2006 44.635 35.8444 42.9318 36.064ZM43.3769 40.5048V40.9264L43.7092 40.9086L44.0475 40.8907L44.0534 40.5048L44.0593 40.1189H45.0089H45.9585L45.9644 40.5048L45.9703 40.8907L46.3205 40.9739C47.3116 41.2113 48.1543 41.8822 48.5341 42.7312C48.5757 42.8262 48.635 42.9568 48.6647 43.0102C48.6944 43.0696 48.7181 43.1824 48.7181 43.2655C48.7181 43.3546 48.7478 43.5446 48.7834 43.687C48.8368 43.8948 48.8368 44.0373 48.7834 44.2926C48.6528 44.9041 48.4926 45.3731 48.4095 45.3731C48.3798 45.3731 48.362 45.4088 48.362 45.4444C48.362 45.4859 48.2789 45.6165 48.184 45.7294C48.089 45.8422 48.0059 45.9609 48.0059 45.9965C48.0119 46.0262 48.089 46.1509 48.184 46.2637C48.2849 46.3765 48.362 46.5012 48.362 46.5427C48.362 46.5843 48.3798 46.6199 48.4095 46.6199C48.4926 46.6199 48.6528 47.0889 48.7834 47.7063C48.8427 47.9794 48.8427 48.116 48.7893 48.3179C48.7478 48.4603 48.7181 48.6503 48.7181 48.7275C48.7181 48.8106 48.6944 48.9234 48.6647 48.9828C48.635 49.0362 48.5757 49.1609 48.5341 49.2618C48.1543 50.1108 47.2878 50.8054 46.3323 51.0132L45.9941 51.0904L45.9763 51.4822L45.9585 51.8741H45.0089H44.0593L44.0415 51.4704L44.0237 51.0726H43.7033H43.3769V51.4882V51.9038H42.457H41.5371V51.4882V51.0785L40.8427 51.0607L40.1424 51.0429L40.1246 50.1405C40.1128 49.2678 40.1128 49.2381 40.2374 49.1668C40.3086 49.1312 40.4392 49.1193 40.5341 49.1371L40.7062 49.1668V45.9846V42.8024L40.5045 42.8381C40.1306 42.8974 40.1068 42.8381 40.1246 41.8407L40.1424 40.9501L40.8427 40.9323L41.5371 40.9145V40.5048V40.0893H42.457H43.3769V40.5048ZM38.2018 46.4833C38.2018 46.9049 38.184 47.1542 38.1721 47.0473C38.1602 46.9464 38.1246 46.8574 38.089 46.8574C38.0593 46.8574 38.0356 46.6852 38.0356 46.4715C38.0356 46.2518 38.0593 46.0856 38.095 46.0856C38.1306 46.0856 38.1543 46.0024 38.1543 45.9075C38.1543 45.8065 38.1662 45.7294 38.184 45.7294C38.2018 45.7294 38.2077 46.0678 38.2018 46.4833ZM38.5697 46.5961C38.5697 47.2551 38.5579 47.3323 38.4807 47.2492C38.4095 47.1839 38.3917 47.0117 38.3917 46.5071C38.3917 45.9609 38.4095 45.8481 38.4807 45.8481C38.5579 45.8481 38.5697 45.9728 38.5697 46.5961Z" fill="#FF9800"/>
    <path d="M42.647 42.856C42.6233 42.8798 42.6055 43.3903 42.6055 43.99V45.0764H44.2909C46.1248 45.0764 46.2435 45.0586 46.5699 44.7321C46.8191 44.4827 46.8785 44.3343 46.8785 43.9543C46.8785 43.5269 46.7242 43.2063 46.4156 42.9985L46.196 42.8501L44.4452 42.8323C43.4779 42.8204 42.6708 42.8323 42.647 42.856Z" fill="#FF9800"/>
    <path d="M42.6232 48.0267L42.6351 49.1428H44.4274H46.2137L46.4392 48.9588C46.7716 48.6916 46.8665 48.4898 46.8725 48.0564C46.8784 47.6586 46.825 47.5161 46.5698 47.2608C46.2434 46.9343 46.1247 46.9165 44.2909 46.9165H42.6113L42.6232 48.0267Z" fill="#FF9800"/>
    <rect x="37.1455" y="45.0837" width="2.37389" height="2.96847" fill="#FF9800"/>
    <g filter="url(#filter0_d)">
        <path d="M43.4644 0.134138C43.3961 0.231407 43.2792 0.2922 43.211 0.255724C43.1428 0.219248 42.9771 0.304359 42.8505 0.438105C42.714 0.559692 42.5387 0.669121 42.451 0.669121C42.373 0.669121 42.2561 0.778549 42.1976 0.912294C42.1391 1.04604 42.0027 1.15547 41.9053 1.15547C41.7981 1.15547 41.6324 1.2649 41.5447 1.39864C41.4473 1.53239 41.3011 1.64182 41.2134 1.64182C41.1257 1.64182 40.9796 1.75125 40.8821 1.88499C40.7847 2.01874 40.6288 2.12816 40.5313 2.12816C40.4339 2.12816 40.3072 2.23759 40.2488 2.37134C40.1903 2.51724 40.0441 2.61451 39.9077 2.61451C39.7713 2.61451 39.6251 2.71178 39.5667 2.85769C39.5082 2.99143 39.3815 3.10086 39.2743 3.10086C39.1672 3.10086 39.0405 3.21029 38.982 3.34404C38.9236 3.48994 38.7774 3.58721 38.6312 3.58721C38.4656 3.58721 38.3584 3.67232 38.3292 3.83038C38.2999 3.97629 38.1927 4.07356 38.0563 4.07356C37.9394 4.07356 37.7445 4.18299 37.6178 4.31673C37.4912 4.45048 37.3352 4.55991 37.2573 4.55991C37.1891 4.55991 37.1014 4.63286 37.0722 4.73013C37.0429 4.8274 36.887 4.94898 36.7214 4.98546C36.5655 5.03409 36.4095 5.14352 36.3803 5.24079C36.3511 5.33806 36.2731 5.41102 36.1952 5.41102C36.1172 5.41102 35.9711 5.52044 35.8639 5.65419C35.7567 5.78794 35.5618 5.92168 35.4156 5.97031C35.2792 6.01895 35.1428 6.11622 35.1136 6.21349C35.0941 6.2986 34.9382 6.40803 34.7823 6.4445C34.6264 6.49314 34.4997 6.57825 34.4997 6.63904C34.4997 6.712 34.3438 6.84574 34.1586 6.94301C33.9735 7.04028 33.8176 7.16187 33.8176 7.2105C33.8176 7.25914 33.7007 7.36857 33.5545 7.45368C33.3986 7.52663 33.1063 7.73333 32.8919 7.90355C32.6775 8.06161 32.3852 8.25615 32.239 8.34126C32.0831 8.41422 31.9662 8.52364 31.9662 8.58444C31.9662 8.64523 31.82 8.76682 31.6349 8.86409C31.4595 8.96136 31.2743 9.0951 31.2451 9.16805C31.2061 9.24101 31.0892 9.3018 30.982 9.3018C30.8846 9.3018 30.7482 9.41123 30.68 9.54497C30.6117 9.67872 30.4851 9.78815 30.3974 9.78815C30.3097 9.78815 30.1635 9.89758 30.0661 10.0313C29.9686 10.1651 29.8127 10.2745 29.7153 10.2745C29.6081 10.2745 29.4814 10.3839 29.4132 10.5177C29.345 10.6514 29.1988 10.7608 29.0916 10.7608C28.9845 10.7608 28.8383 10.8703 28.7701 11.004C28.7019 11.1378 28.5752 11.2472 28.468 11.2472C28.3706 11.2472 28.2147 11.3566 28.1172 11.4904C28.0198 11.6241 27.8639 11.7335 27.7664 11.7335C27.669 11.7335 27.5423 11.843 27.4839 11.9767C27.4254 12.1105 27.2792 12.2199 27.1428 12.2199C26.9966 12.2199 26.8895 12.305 26.8505 12.4631C26.8212 12.5968 26.7043 12.7062 26.5971 12.7062C26.4997 12.7062 26.3243 12.8157 26.2171 12.9494C26.1099 13.0832 25.9443 13.1926 25.8468 13.1926C25.7591 13.1926 25.6227 13.302 25.5545 13.4358C25.4863 13.5817 25.3304 13.6789 25.1842 13.6789C25.0088 13.6789 24.9406 13.7276 24.9796 13.8492C25.0186 13.9707 24.9309 14.0437 24.6873 14.1045C24.4437 14.1531 24.3657 14.2261 24.4047 14.3598C24.4437 14.4814 24.3852 14.53 24.1903 14.53C24.0441 14.53 23.859 14.5908 23.7811 14.6516C23.6544 14.7489 23.6641 14.7854 23.8298 14.9434C23.937 15.0529 24.0831 15.138 24.1611 15.138C24.239 15.138 24.278 15.1623 24.2488 15.1988C24.2195 15.2352 23.9954 15.1988 23.7421 15.1137C23.3913 15.0042 23.2646 15.0042 23.1769 15.1137C23.0892 15.2231 23.099 15.296 23.2549 15.4541C23.4303 15.6243 23.4205 15.6365 23.0892 15.5635C22.7384 15.5027 22.4169 15.5757 22.4169 15.7338C22.4169 15.7702 22.5533 15.8797 22.7189 15.9769C23.1087 16.1836 23.0307 16.2566 22.5825 16.0985C22.2122 15.9769 21.8322 16.0377 21.8322 16.2323C21.8322 16.2809 21.9199 16.3538 22.0271 16.3903C22.1343 16.4268 22.222 16.5241 22.222 16.597C22.222 16.6943 22.1635 16.7065 22.0563 16.6578C21.7153 16.4754 21.4522 16.4511 21.2768 16.5849C21.1111 16.7065 21.1111 16.7186 21.3255 16.7916C21.6763 16.9131 21.5789 17.1198 21.2086 17.0347C20.8675 16.9496 20.5655 17.0347 20.5655 17.2171C20.5655 17.2779 20.6434 17.3265 20.7506 17.3265C20.848 17.3265 20.9845 17.4117 21.0527 17.5089C21.1988 17.7278 21.1306 17.7278 20.6337 17.5576C20.2439 17.4238 19.8444 17.5089 19.9321 17.7035C19.9711 17.7643 20.0685 17.8129 20.1757 17.8129C20.2731 17.8129 20.3706 17.898 20.4096 17.9953C20.468 18.2141 20.429 18.2141 19.9808 18.0561C19.6203 17.9223 19.2597 17.9953 19.3474 18.1898C19.3864 18.2506 19.4936 18.2992 19.6008 18.2992C19.6982 18.2992 19.7859 18.3844 19.7859 18.4816C19.7859 18.7005 19.8152 18.6883 19.3962 18.5424C19.0356 18.4087 18.6751 18.4816 18.7628 18.6762C18.8018 18.737 18.9382 18.7856 19.0843 18.7856C19.3085 18.7856 19.3279 18.8099 19.1915 18.968C19.0843 19.1139 18.9772 19.126 18.6848 19.0166C18.4705 18.9437 18.2658 18.9437 18.1684 19.0044C18.0417 19.0896 18.0709 19.126 18.3146 19.1868C18.4899 19.2355 18.6166 19.3449 18.6166 19.4543C18.6166 19.6975 18.7336 19.6853 19.0356 19.3935C19.172 19.2598 19.3085 19.1504 19.3377 19.1504C19.3767 19.1504 19.7177 18.9072 20.1075 18.6275C20.4875 18.3357 21.1404 17.8494 21.5399 17.5576C21.9394 17.2658 22.3584 16.9618 22.4656 16.8767C22.5728 16.8037 22.7969 16.6457 22.9528 16.5362C23.4303 16.2201 23.8005 15.9405 24.2683 15.5635C24.7262 15.1988 25.0868 14.9313 25.5837 14.603C25.7494 14.4936 26.0515 14.2747 26.2658 14.1045C26.4802 13.9343 26.7433 13.7519 26.8505 13.6911C26.9674 13.6303 27.1136 13.4966 27.1818 13.3871C27.25 13.2777 27.3864 13.1926 27.4839 13.1926C27.5813 13.1926 27.708 13.1075 27.7762 12.998C27.8541 12.9008 28.0393 12.7306 28.2049 12.6333C28.6434 12.378 28.9163 12.1591 29.1209 11.9402C29.2183 11.8187 29.3742 11.7335 29.4522 11.7335C29.5399 11.7335 29.6568 11.6484 29.725 11.539C29.803 11.4417 29.9881 11.2715 30.1538 11.1742C30.5923 10.9189 30.8651 10.7001 31.0697 10.4812C31.1672 10.3596 31.3036 10.2745 31.3718 10.2745C31.44 10.2745 31.6057 10.1651 31.7421 10.0313C31.8785 9.89758 32.0441 9.78815 32.1124 9.78815C32.1806 9.78815 32.2975 9.70304 32.3657 9.59361C32.4339 9.48418 32.5801 9.35044 32.697 9.28964C32.8042 9.22885 33.0673 9.04647 33.2817 8.87625C33.496 8.70602 33.7786 8.49933 33.915 8.41422C34.0514 8.3291 34.4022 8.07377 34.6946 7.84276C34.9869 7.61174 35.3474 7.33209 35.4838 7.23482C35.6203 7.13755 36.088 6.77279 36.5362 6.4445C38.4266 5.00978 38.8846 4.68149 38.9723 4.68149C39.021 4.68149 39.1087 4.59638 39.1769 4.48695C39.2549 4.38968 39.44 4.21946 39.6056 4.12219C39.7713 4.03708 40.0831 3.81822 40.2975 3.648C40.5119 3.47778 40.7847 3.2954 40.9016 3.22245C41.0088 3.16166 41.1355 3.05223 41.1745 2.97927C41.2037 2.91848 41.3791 2.77258 41.5447 2.67531C41.7201 2.57804 41.993 2.3835 42.1489 2.24975C42.8017 1.71477 42.8115 1.71477 42.7335 2.00658C42.5776 2.61451 42.9089 3.46562 43.4351 3.80607C43.8346 4.07356 44.4875 3.98845 44.8383 3.62369C45.1891 3.24677 45.4522 2.57804 45.3645 2.24975C45.2768 1.92147 45.4717 1.84851 45.7737 2.09169C46.1927 2.44429 46.4168 2.60235 46.6312 2.72394C46.7482 2.78473 46.8943 2.91848 46.9625 3.02791C47.0307 3.13734 47.1769 3.22245 47.2743 3.22245C47.3815 3.22245 47.4595 3.27108 47.4595 3.33188C47.4595 3.39267 47.6056 3.52642 47.7908 3.63585C47.9662 3.73311 48.1708 3.90334 48.239 4.01276C48.3072 4.11003 48.4339 4.19514 48.5313 4.19514C48.619 4.19514 48.7749 4.30457 48.8724 4.43832C48.9698 4.57206 49.1257 4.68149 49.2134 4.68149C49.3011 4.68149 49.457 4.79092 49.5545 4.92467C49.6519 5.05841 49.7786 5.16784 49.8468 5.16784C49.915 5.16784 50.0417 5.27727 50.1391 5.41102C50.2366 5.54476 50.3827 5.65419 50.451 5.65419C50.5289 5.65419 50.7043 5.76362 50.8407 5.89736C50.9771 6.03111 51.1525 6.14054 51.2207 6.14054C51.2987 6.14054 51.3572 6.18917 51.3572 6.24997C51.3572 6.31076 51.5033 6.4445 51.6885 6.55393C51.8639 6.6512 52.0685 6.82142 52.1367 6.93085C52.2049 7.02812 52.3218 7.11323 52.3998 7.11323C52.4777 7.11323 52.6531 7.22266 52.7896 7.35641C52.926 7.49015 53.1014 7.59958 53.1696 7.59958C53.2475 7.59958 53.306 7.64822 53.306 7.70901C53.306 7.7698 53.4522 7.90355 53.6276 8.02514C53.7932 8.13456 54.1148 8.35342 54.3291 8.52364C54.5435 8.68171 54.8261 8.86409 54.9625 8.93704C55.0892 9.00999 55.2256 9.11942 55.2548 9.16805C55.2841 9.21669 55.5569 9.4477 55.8687 9.67872C56.1805 9.90974 56.5801 10.2015 56.7652 10.3353C56.9503 10.469 57.457 10.846 57.9053 11.1864C58.3535 11.5147 58.7822 11.8308 58.8602 11.8916C58.9382 11.9402 59.1818 12.1105 59.3961 12.2807C59.6105 12.4509 59.8931 12.6576 60.0295 12.7427C60.1659 12.8157 60.3121 12.9494 60.3511 13.0345C60.39 13.1196 60.4777 13.1926 60.546 13.1926C60.6142 13.1926 60.9357 13.4114 61.2768 13.6789C61.6081 13.9464 61.9199 14.1653 61.9686 14.1653C62.0076 14.1653 62.1245 14.2747 62.222 14.4085C62.3194 14.5422 62.4656 14.6516 62.5338 14.6516C62.6117 14.6516 62.7871 14.7611 62.9235 14.8948C63.06 15.0285 63.2256 15.138 63.2938 15.138C63.3523 15.138 63.4887 15.2474 63.5861 15.3812C63.6836 15.5149 63.82 15.6243 63.8785 15.6243C63.9467 15.6243 64.0539 15.7094 64.1221 15.8067C64.1903 15.904 64.317 15.9891 64.4144 15.9891C64.5021 15.9891 64.658 16.0985 64.7554 16.2323C64.8529 16.366 64.9893 16.4754 65.0478 16.4754C65.116 16.4754 65.2816 16.5849 65.4181 16.7186C65.5545 16.8524 65.7299 16.9618 65.8176 16.9618C65.9053 16.9618 65.9735 17.0104 65.9735 17.0712C65.9735 17.132 66.1196 17.2658 66.3048 17.3752C66.4802 17.4724 66.6848 17.6427 66.753 17.7521C66.8212 17.8494 66.9479 17.9345 67.0453 17.9345C67.133 17.9345 67.2889 18.0439 67.3864 18.1777C67.4838 18.3114 67.6397 18.4208 67.7274 18.4208C67.8249 18.4208 67.9613 18.5059 68.0295 18.6154C68.0977 18.7248 68.2439 18.8585 68.3608 18.9193C68.468 18.9801 68.7311 19.1625 68.9455 19.3327C69.3255 19.6245 70.0758 20.123 70.1343 20.123C70.1537 20.123 70.1245 20.0258 70.0758 19.9042C70.0271 19.7948 69.9101 19.4908 69.8224 19.2233C69.7153 18.9193 69.6276 18.7977 69.5593 18.8829C69.4911 18.968 69.5009 19.0896 69.5788 19.2598C69.6373 19.4057 69.6665 19.5881 69.647 19.6732C69.6276 19.7583 69.4814 19.4786 69.3255 19.0652C69.1696 18.6397 69.0137 18.2992 68.9747 18.2992C68.926 18.2992 68.8967 18.4695 68.8967 18.6883C68.8967 19.0531 68.887 19.0652 68.7506 18.8342C68.6726 18.7126 68.6044 18.4938 68.6044 18.3479C68.6044 18.2141 68.5167 17.9953 68.4095 17.8737C68.2049 17.6427 68.2049 17.6427 68.2731 18.1898C68.3316 18.6883 68.3218 18.7126 68.1757 18.4816C68.0977 18.3479 68.0198 18.1655 68.0198 18.0804C68.0198 17.9953 67.9515 17.7521 67.8638 17.5454C67.7469 17.2658 67.6787 17.2171 67.6008 17.3144C67.5131 17.4238 67.5228 17.5089 67.6105 17.6913C67.7762 18.0196 67.7567 18.2263 67.5813 18.0074C67.5033 17.9102 67.4351 17.7521 67.4351 17.6427C67.4351 17.5454 67.3961 17.4238 67.3377 17.3873C67.2889 17.3509 67.2402 17.205 67.2402 17.0712C67.2402 16.9496 67.172 16.8402 67.0941 16.8402C66.9966 16.8402 66.9479 16.9618 66.9479 17.1685V17.5089L66.8017 17.1563C66.7238 16.9739 66.6556 16.7429 66.6556 16.6457C66.6556 16.5605 66.5679 16.4268 66.4509 16.3538C66.2658 16.2201 66.2561 16.2444 66.3243 16.6821C66.3827 17.1198 66.373 17.132 66.2268 16.901C66.1489 16.7672 66.0709 16.5727 66.0709 16.4633C66.0709 16.3538 65.9832 16.135 65.8858 15.9769C65.7104 15.7094 65.6909 15.7094 65.6324 15.904C65.5934 16.0134 65.6129 16.1958 65.6811 16.2931C65.7396 16.3903 65.7786 16.5241 65.7591 16.6092C65.7201 16.7429 65.6714 16.6092 65.3498 15.7094C65.1842 15.2231 65.0088 15.1988 64.9893 15.6608C64.9893 15.8797 64.9698 15.8675 64.8821 15.5635C64.7457 15.0893 64.619 14.8948 64.4436 14.8948C64.3462 14.8948 64.317 14.9799 64.3657 15.1623C64.3949 15.3204 64.3364 15.2474 64.2293 15.0042C63.9857 14.4449 63.7226 14.1653 63.6544 14.3841C63.6251 14.4936 63.5472 14.4085 63.4205 14.1653C63.2743 13.8492 63.2159 13.8005 63.0989 13.9221C62.982 14.0437 62.9333 14.0072 62.8358 13.7397C62.7481 13.4966 62.6702 13.4358 62.5045 13.4844C62.3389 13.5452 62.2707 13.4966 62.222 13.302C62.183 13.1683 62.0173 12.9737 61.8419 12.8886C61.6665 12.7913 61.4716 12.6333 61.4034 12.536C61.3352 12.4387 61.2183 12.3901 61.1501 12.4144C61.0819 12.4509 60.9455 12.3415 60.848 12.1713C60.7311 11.9402 60.6531 11.8794 60.5654 11.9767C60.4777 12.074 60.3998 12.0253 60.2829 11.7943C60.1952 11.6241 60.049 11.4904 59.9516 11.4904C59.8639 11.4904 59.7274 11.3809 59.6592 11.2472C59.591 11.1134 59.4449 11.004 59.3377 11.004C59.2207 11.004 59.0453 10.8703 58.9479 10.7001C58.8407 10.542 58.6945 10.4326 58.6166 10.469C58.5484 10.5055 58.4217 10.4204 58.3535 10.2867C58.2853 10.1408 58.1489 10.0313 58.0514 10.0313C57.9637 10.0313 57.8078 9.92189 57.7201 9.78815C57.6227 9.6544 57.4765 9.54497 57.3888 9.54497C57.3011 9.54497 57.155 9.43555 57.0575 9.3018C56.9601 9.16805 56.8042 9.05863 56.7067 9.05863C56.5995 9.05863 56.4729 8.9492 56.4047 8.81545C56.3365 8.68171 56.1903 8.57228 56.0831 8.57228C55.9759 8.57228 55.8298 8.46285 55.7615 8.3291C55.6933 8.19536 55.5667 8.08593 55.4692 8.08593C55.3718 8.08593 55.2256 7.9765 55.1282 7.84276C55.0405 7.70901 54.8846 7.59958 54.7969 7.59958C54.6994 7.59958 54.563 7.49015 54.4948 7.35641C54.4266 7.22266 54.2999 7.11323 54.1927 7.11323C54.0953 7.11323 53.9394 7.00381 53.8419 6.87006C53.7445 6.73631 53.5886 6.62689 53.4814 6.62689C53.384 6.62689 53.306 6.56609 53.306 6.49314C53.306 6.43235 53.1598 6.2986 52.9844 6.20133C52.7993 6.10406 52.6044 5.946 52.5265 5.84873C52.4583 5.7393 52.3316 5.65419 52.2341 5.65419C52.1464 5.65419 51.9905 5.54476 51.8931 5.41102C51.7957 5.27727 51.6397 5.16784 51.5326 5.16784C51.4351 5.16784 51.3572 5.11921 51.3572 5.04625C51.3572 4.98546 51.1915 4.81524 50.9966 4.69365C50.792 4.55991 50.5192 4.37753 50.3827 4.29241C50.2463 4.2073 50.0514 4.03708 49.9443 3.91549C49.8468 3.80607 49.7104 3.72095 49.6519 3.75743C49.5935 3.78175 49.4863 3.69664 49.4278 3.57505C49.3596 3.45346 49.2232 3.34404 49.116 3.34404C48.9991 3.34404 48.8919 3.25892 48.8626 3.16166C48.8334 3.06438 48.7165 2.95496 48.5996 2.90632C48.4826 2.85769 48.2585 2.71178 48.0929 2.57804C47.9369 2.44429 47.6836 2.22544 47.5374 2.10385C47.3913 1.98226 47.2159 1.88499 47.1379 1.88499C47.06 1.88499 46.9235 1.77556 46.8261 1.64182C46.7287 1.50807 46.602 1.39864 46.5338 1.39864C46.4656 1.39864 46.3389 1.28922 46.2415 1.15547C46.144 1.02172 45.9881 0.912294 45.9004 0.912294C45.8127 0.912294 45.6568 0.802866 45.5594 0.669121C45.4619 0.535376 45.3255 0.425947 45.2475 0.425947C45.1793 0.425947 45.0137 0.352995 44.8968 0.255724C44.546 -0.0117664 43.6105 -0.0968781 43.4644 0.134138ZM44.6337 1.13115C45.1014 1.53239 44.9065 2.37134 44.3121 2.51724C44.01 2.5902 43.6885 2.27407 43.6008 1.81204C43.5521 1.59318 43.6008 1.42296 43.7664 1.2041C44.0295 0.863659 44.2926 0.839342 44.6337 1.13115ZM63.8005 15.1623C63.7713 15.2596 63.7421 15.2231 63.7421 15.0893C63.7323 14.9556 63.7615 14.8826 63.7908 14.9313C63.82 14.9678 63.8298 15.0772 63.8005 15.1623Z" fill="black"/>
        <path d="M70.1923 19.7339C70.2118 20.2324 70.2508 20.3661 70.3775 20.3661C70.4652 20.3661 70.5529 20.4391 70.5821 20.512C70.6016 20.5972 70.6601 20.6336 70.699 20.5728C70.7478 20.5242 70.7283 20.4148 70.6698 20.3418C70.6016 20.2567 70.5529 20.123 70.5529 20.0379C70.5529 19.9527 70.4652 19.7096 70.3677 19.5029L70.1729 19.1138L70.1923 19.7339Z" fill="black"/>
        <path d="M17.5539 19.5027C17.4565 19.5756 17.5052 19.6364 17.7293 19.6972C17.9729 19.758 18.0217 19.8188 17.934 19.9404C17.856 20.0498 17.7293 20.062 17.476 19.989C17.2714 19.9404 17.0472 19.9404 16.9693 20.0012C16.8426 20.0985 16.8524 20.1106 17.0277 20.1228C17.1447 20.1228 17.3103 20.1593 17.3883 20.1957C17.5344 20.2687 17.5344 20.293 17.3785 20.4389C17.2226 20.5727 17.2226 20.597 17.359 20.6091C17.4467 20.6091 17.5929 20.4997 17.6904 20.366C17.7878 20.2322 17.934 20.1228 18.0217 20.1228C18.1094 20.1228 18.2653 20.0377 18.3724 19.9282C18.5381 19.7702 18.5478 19.7337 18.4212 19.6364C18.3432 19.5756 18.197 19.5148 18.1094 19.5148C18.0217 19.5148 17.895 19.4905 17.817 19.4541C17.7488 19.4176 17.6319 19.4419 17.5539 19.5027Z" fill="black"/>
        <path d="M70.8647 20.2809C70.8647 20.6092 70.9232 20.743 71.1571 20.9132L71.4494 21.1199L71.3032 20.8402C71.2253 20.6822 71.1376 20.4025 71.0986 20.208C71.0109 19.7459 70.8647 19.7946 70.8647 20.2809Z" fill="black"/>
        <path d="M71.5663 20.8038C71.6247 21.1807 71.8976 21.6549 71.9853 21.5333C72.034 21.4725 71.7709 20.8524 71.7027 20.8524C71.6637 20.8524 71.654 20.7795 71.6832 20.6822C71.7124 20.5849 71.6832 20.4755 71.615 20.4269C71.5273 20.3539 71.5176 20.4512 71.5663 20.8038Z" fill="black"/>
        <path d="M16.4727 20.5729C16.9502 20.6701 17.0087 20.7188 16.804 20.9133C16.7066 21.0106 16.6676 21.0957 16.7261 21.0957C16.8722 21.0957 17.1743 20.6701 17.0866 20.5729C17.0574 20.5242 16.843 20.4999 16.6286 20.4999C16.3753 20.5121 16.3168 20.5364 16.4727 20.5729Z" fill="black"/>
        <path d="M72.1215 20.9256C72.1215 21.0593 72.1508 21.0958 72.18 20.9985C72.2092 20.9134 72.1995 20.804 72.1703 20.7675C72.141 20.7189 72.1118 20.7918 72.1215 20.9256Z" fill="black"/>
        <path d="M15.9365 21.0591C16.1022 21.0955 16.2873 21.1685 16.3555 21.2414C16.4432 21.3387 16.4724 21.3144 16.4724 21.1685C16.4724 21.0226 16.3847 20.974 16.0632 20.9861C15.7221 21.0104 15.7027 21.0226 15.9365 21.0591Z" fill="black"/>
        <path d="M72.2874 21.4361C72.2484 21.582 72.3069 21.7522 72.4238 21.8738C72.609 22.0805 72.609 22.0684 72.5505 21.8009C72.4141 21.278 72.3361 21.1686 72.2874 21.4361Z" fill="black"/>
        <path d="M16.151 21.424C16.112 21.4605 15.8489 21.4969 15.5761 21.4969C15.0889 21.4848 15.0791 21.4848 15.4299 21.5821C15.8392 21.6793 16.2777 21.6064 16.2777 21.4483C16.2777 21.3146 16.2387 21.3146 16.151 21.424Z" fill="black"/>
        <path d="M72.9014 21.8372C72.9014 22.0196 72.9598 22.2263 73.0378 22.3114C73.1937 22.4695 73.2424 22.3114 73.0963 22.1169C73.0475 22.0561 72.9891 21.898 72.9598 21.7643C72.9209 21.5697 72.9111 21.594 72.9014 21.8372Z" fill="black"/>
        <path d="M73.4956 22.0683C73.4956 22.2386 73.5151 22.2994 73.5443 22.2142C73.5638 22.1413 73.5638 21.9954 73.5443 21.9103C73.5151 21.8373 73.4956 21.8981 73.4956 22.0683Z" fill="black"/>
        <path d="M14.5531 22.0198C14.5823 22.0563 14.8064 22.0928 15.0598 22.0928C15.3131 22.0928 15.5372 22.0563 15.5762 22.0198C15.6054 21.9833 15.3716 21.9469 15.0598 21.9469C14.748 21.9469 14.5141 21.9833 14.5531 22.0198Z" fill="black"/>
        <path d="M74.0708 22.3845C74.0708 22.5183 74.1 22.5548 74.1292 22.4575C74.1585 22.3724 74.1487 22.263 74.1195 22.2265C74.0902 22.1778 74.061 22.2508 74.0708 22.3845Z" fill="black"/>
        <path d="M13.8418 22.4818C13.8418 22.5061 13.9977 22.5548 14.1828 22.5791C14.368 22.6034 14.5239 22.5791 14.5239 22.5305C14.5239 22.4818 14.368 22.4332 14.1828 22.4332C13.9977 22.4332 13.8418 22.4575 13.8418 22.4818Z" fill="black"/>
        <path d="M73.5737 22.6763C73.5737 22.7371 73.6225 22.7979 73.6712 22.7979C73.7296 22.7979 73.7686 22.7371 73.7686 22.6763C73.7686 22.6033 73.7296 22.5547 73.6712 22.5547C73.6225 22.5547 73.5737 22.6033 73.5737 22.6763Z" fill="black"/>
        <path d="M74.2656 22.9925C74.2656 23.1262 74.2948 23.1627 74.324 23.0654C74.3533 22.9803 74.3435 22.8709 74.3143 22.8344C74.2851 22.7858 74.2558 22.8587 74.2656 22.9925Z" fill="black"/>
        <path d="M13.4813 23.0045C13.6274 23.0288 13.8613 23.0288 14.0172 23.0045C14.1634 22.9802 14.0367 22.9558 13.7444 22.9558C13.452 22.9558 13.3254 22.9802 13.4813 23.0045Z" fill="black"/>
        <path d="M74.8599 23.406C74.8599 23.5762 74.8793 23.637 74.9086 23.5519C74.9281 23.4789 74.9281 23.333 74.9086 23.2479C74.8793 23.175 74.8599 23.2358 74.8599 23.406Z" fill="black"/>
        <path d="M12.8476 23.4908C12.9645 23.5151 13.1594 23.5151 13.2861 23.4908C13.403 23.4665 13.3056 23.4422 13.062 23.4422C12.8184 23.4422 12.7209 23.4665 12.8476 23.4908Z" fill="black"/>
        <path d="M75.4443 23.6492C75.4443 23.8194 75.4638 23.8802 75.493 23.7951C75.5125 23.7221 75.5125 23.5762 75.493 23.4911C75.4638 23.4181 75.4443 23.4789 75.4443 23.6492Z" fill="black"/>
        <path d="M6.11431 23.8436C6.07534 23.8923 6.0461 24.2206 6.0461 24.5732V25.2176L5.31529 25.8012C4.91578 26.1295 4.58447 26.4213 4.58447 26.4699C4.58447 26.6158 6.26048 26.6401 6.79641 26.4942C7.22515 26.3848 7.31285 26.3848 7.36157 26.5429C7.40055 26.6888 7.5662 26.7131 8.23855 26.6523C8.9986 26.6037 9.08629 26.6158 9.21297 26.8468C9.29092 26.9806 9.38836 27.0535 9.42734 27.0049C9.47606 26.9441 9.44683 26.8712 9.38836 26.8468C9.23246 26.7739 9.22271 26.5064 9.37862 26.2146C9.46632 26.0444 9.45657 25.9349 9.3299 25.7039C9.23246 25.5459 9.16425 25.4851 9.16425 25.5702C9.16425 25.6674 8.9109 25.7161 8.28727 25.7161H7.42003L7.3908 24.7677L7.36157 23.8315L6.77692 23.795C6.44561 23.7707 6.15329 23.795 6.11431 23.8436Z" fill="#FF9800"/>
        <path d="M76.0195 23.9651C76.0195 24.0989 76.0487 24.1353 76.0779 24.0381C76.1072 23.953 76.0974 23.8435 76.0682 23.807C76.039 23.7584 76.0097 23.8314 76.0195 23.9651Z" fill="black"/>
        <path d="M80.6576 23.8436C80.6186 23.8922 80.5894 24.3299 80.5894 24.8284V25.716H79.6344C79.1083 25.716 78.6503 25.7525 78.6113 25.789C78.5626 25.8498 78.6893 26.3604 78.8062 26.555C78.8744 26.6766 80.5114 26.7009 80.6283 26.5793C80.6966 26.5063 80.8232 26.4699 80.8914 26.4942C80.9694 26.5307 81.2033 26.5915 81.4176 26.6158C81.632 26.6522 81.9828 26.7252 82.1972 26.7981C82.7234 26.9441 83.9998 27.0535 83.9998 26.9562C83.9998 26.8711 83.1911 26.1659 82.3726 25.5458C81.9731 25.2418 81.9633 25.2175 81.9341 24.5366L81.9048 23.8314L81.3202 23.7949C80.9889 23.7706 80.6966 23.7949 80.6576 23.8436Z" fill="#FF9800"/>
        <path d="M12.2142 23.9774C12.3603 24.0017 12.5942 24.0017 12.7501 23.9774C12.8963 23.953 12.7696 23.9287 12.4773 23.9287C12.1849 23.9287 12.0583 23.953 12.2142 23.9774Z" fill="black"/>
        <path d="M11.6295 24.4635C11.7757 24.4878 11.99 24.4878 12.1167 24.4635C12.2336 24.4391 12.1167 24.4148 11.8439 24.4148C11.5808 24.4148 11.4736 24.4391 11.6295 24.4635Z" fill="black"/>
        <path d="M76.2143 24.5733C76.2143 24.707 76.2435 24.7435 76.2728 24.6462C76.302 24.5611 76.2923 24.4517 76.263 24.4152C76.2338 24.3666 76.2046 24.4395 76.2143 24.5733Z" fill="black"/>
        <path d="M76.7699 24.877C76.7017 25.1324 74.7333 25.1932 67.2205 25.2053C63.7029 25.2053 60.7699 25.2418 60.7211 25.2904C60.6627 25.3269 60.614 25.4728 60.614 25.6066C60.614 25.8376 60.5068 25.8376 56.3363 25.8376H52.0585L52.0001 25.4971L51.9416 25.1688L43.8734 25.1932L35.8149 25.2053L35.7272 25.5214L35.6298 25.8376H31.4106H27.1816L27.0841 25.4971L26.9964 25.1688H19.396C13.452 25.1688 11.776 25.1324 11.6785 25.0108C11.6201 24.9378 11.3862 24.877 11.1718 24.877C10.9282 24.8892 10.86 24.9257 10.9964 24.95C11.3765 25.0473 11.1718 25.2904 10.6651 25.3634C10.402 25.3999 10.2851 25.4485 10.4118 25.4485C10.7041 25.485 10.6846 25.6917 10.3728 25.7889C10.0805 25.8862 10.0902 26.2145 10.402 26.3847C10.8016 26.6036 10.8016 27.7343 10.3923 27.8073C10.1292 27.8559 10.1584 28.0626 10.4508 28.1477L10.6749 28.2207L10.6944 75.0803C10.7139 100.857 10.7236 122.074 10.7236 122.22C10.7236 122.378 10.7821 122.499 10.8503 122.499C10.9185 122.499 13.0038 121.235 15.4983 119.691C17.9928 118.146 20.5165 116.59 21.1012 116.238C21.6956 115.885 23.4008 114.839 24.9014 113.927C28.6042 111.654 31.6834 109.781 33.6712 108.578C34.5872 108.03 37.2473 106.389 39.586 104.954L43.8442 102.328L48.4045 105.137C50.9087 106.681 54.4361 108.833 56.2291 109.915C58.022 111.009 60.6822 112.614 62.1243 113.502C63.5762 114.389 65.4568 115.532 66.3143 116.055C67.1718 116.566 69.8807 118.232 72.3265 119.751C74.7723 121.259 76.8186 122.499 76.877 122.499C76.9355 122.499 76.9842 122.353 76.9842 122.159C76.9842 121.976 76.994 100.76 77.0135 75.0195L77.033 28.2085L77.4325 28.2207C77.7443 28.2207 77.8417 28.172 77.9197 27.9653C78.0171 27.71 78.0074 27.6979 77.6079 27.7586C77.2278 27.8073 77.1791 27.783 77.0719 27.4912C76.9842 27.2601 76.9745 27.0656 77.0427 26.8346C77.1304 26.5549 77.1889 26.5063 77.4909 26.5306C77.7443 26.5549 77.8515 26.5063 77.8904 26.3482C77.9197 26.2388 77.9684 26.0564 78.0074 25.9348C78.0463 25.8011 78.0171 25.7281 77.9197 25.6917C77.7833 25.6552 77.7833 25.6187 77.9099 25.3026C78.0853 24.8892 78.0853 24.8649 77.9587 24.8649C77.9002 24.8649 77.8125 24.9986 77.7638 25.1688C77.6566 25.5214 77.5007 25.5701 77.4422 25.254C77.4227 25.1445 77.4032 25.181 77.413 25.3512C77.4227 25.5822 77.3643 25.6674 77.2084 25.6917C77.0427 25.7281 77.0037 25.6795 77.0427 25.5579C77.0719 25.4485 77.033 25.2175 76.955 25.0351C76.8576 24.8041 76.7991 24.7554 76.7699 24.877ZM35.6201 26.3361C35.659 26.4698 35.6688 26.9197 35.659 27.3331C35.6396 27.7465 35.659 28.1599 35.7078 28.245C35.7467 28.3301 35.7565 28.5368 35.7272 28.707L35.6688 28.9988H31.3911H27.1134L27.1036 27.7708C27.1036 27.0899 27.1426 26.4333 27.2011 26.3118C27.2888 26.0929 27.4836 26.0807 31.4301 26.0807C35.5129 26.0807 35.5616 26.0807 35.6201 26.3361ZM60.5652 26.4212C60.5945 26.6157 60.614 27.1142 60.6042 27.5519C60.5945 27.9775 60.5945 28.3787 60.614 28.4517C60.6237 28.5125 60.6334 28.6705 60.6237 28.78C60.614 28.9867 60.3411 28.9988 56.3363 28.9988C52.5165 28.9988 52.0488 28.9745 52.0001 28.8043C51.9708 28.6949 51.9708 28.5611 52.0001 28.4882C52.0391 28.4152 52.0585 27.941 52.0488 27.4304C52.0391 26.9075 52.0585 26.3969 52.0975 26.2874C52.156 26.0929 52.5165 26.0807 56.3265 26.0807H60.497L60.5652 26.4212ZM13.0135 70.6424C13.0135 94.5586 12.9745 109.1 12.9161 109.793L12.8186 110.888L12.7601 109.55C12.6725 107.775 12.653 35.9536 12.7407 33.8137C12.7894 32.5249 12.8284 32.1844 12.9063 32.3668C12.9843 32.5249 13.0135 43.3826 13.0135 70.6424ZM75.0257 40.428C75.1036 49.5227 75.0646 106.304 74.9769 107.787C74.938 108.419 74.9185 109.064 74.9282 109.21C74.938 109.356 74.9087 109.575 74.86 109.684C74.8015 109.806 74.7528 109.234 74.7138 108.018C74.6261 105.562 74.6261 36.3184 74.7138 34.2879C74.8405 31.1631 74.9574 33.4489 75.0257 40.428ZM43.3667 33.0112C43.3667 33.072 43.4349 33.1328 43.5129 33.1328C43.5908 33.1328 43.659 33.072 43.659 32.9869C43.659 32.9139 43.7272 32.9383 43.8344 33.0477C44.0585 33.303 44.1852 33.303 44.3314 33.0842C44.4288 32.9383 44.4873 32.9626 44.6919 33.2179C44.916 33.4976 44.955 33.5097 45.1012 33.3273C45.2571 33.1571 45.2863 33.1693 45.3935 33.376C45.4909 33.5827 45.5494 33.5948 45.754 33.4732C45.9392 33.376 46.0269 33.376 46.1536 33.5097C46.2412 33.5948 46.4264 33.6921 46.5628 33.7164C46.6992 33.7407 46.9136 33.8623 47.05 33.9961C47.1864 34.1176 47.3521 34.2271 47.43 34.2271C47.4983 34.2271 47.7419 34.3365 47.9465 34.4703C48.1706 34.6162 48.3363 34.6648 48.3363 34.5797C48.3363 34.4095 48.5799 34.1055 48.7163 34.1055C48.7747 34.1055 48.8235 34.1906 48.8235 34.2879C48.8235 34.3851 48.7553 34.4703 48.6676 34.4703C48.5896 34.4703 48.5506 34.5189 48.5799 34.5918C48.6188 34.6648 48.7455 34.6405 48.9307 34.5189C49.0963 34.4216 49.3789 34.3487 49.5543 34.3608C49.7297 34.3851 49.944 34.3243 50.022 34.2392C50.1097 34.1541 50.2656 34.1176 50.3825 34.1663C50.4897 34.2028 50.7138 34.1663 50.8698 34.0569C51.0354 33.9596 51.1621 33.9231 51.1621 33.9839C51.1621 34.1784 51.8344 34.1784 51.9903 33.9961C52.1073 33.838 52.1755 33.838 52.3314 33.9474C52.4483 34.0447 52.536 34.0569 52.575 33.9839C52.614 33.9109 52.6919 33.9353 52.7796 34.0325C52.8576 34.142 52.994 34.1784 53.0719 34.142C53.2279 34.069 53.9489 34.3122 54.1633 34.5067C54.2607 34.604 54.3095 34.5554 54.3484 34.373C54.4166 34.0204 54.5823 34.0325 54.8454 34.4095C55.0403 34.6891 55.3521 34.7256 55.3521 34.4581C55.3521 34.2879 55.5665 34.3243 55.7419 34.531C55.888 34.7013 55.9173 34.7013 56.0342 34.531C56.1803 34.3122 56.424 34.2879 56.424 34.5067C56.424 34.7013 57.0378 34.6769 57.0866 34.4824C57.106 34.4095 57.3302 34.3608 57.5738 34.3608C57.983 34.373 58.0025 34.3851 57.7394 34.4703C57.4081 34.5797 57.4763 34.6162 58.0025 34.6162C58.2266 34.6162 58.4605 34.5189 58.6261 34.3608L58.899 34.0933L59.0257 34.4095C59.1523 34.7013 59.1718 34.7013 59.4349 34.531C59.6785 34.3851 59.737 34.3851 59.8247 34.5189C59.8929 34.6162 60.0293 34.6648 60.1268 34.6283C60.2339 34.5918 60.3216 34.6283 60.3216 34.7013C60.3216 35.0052 60.5068 34.8107 60.575 34.4338L60.6432 34.0447L60.8283 34.5675C61.0037 35.0539 61.1986 35.1633 61.1986 34.7621C61.1986 34.5554 61.4617 34.531 61.5104 34.7377C61.5397 34.8472 61.6274 34.8472 61.8612 34.7256C62.1146 34.5918 62.1925 34.5918 62.3095 34.7499C62.4556 34.9323 62.9526 34.8958 62.9526 34.7013C62.9526 34.5432 63.3813 34.5675 63.5177 34.7377C63.6736 34.9323 64.1219 34.9444 64.1219 34.7499C64.1219 34.5432 64.3363 34.5432 64.5019 34.7377C64.6091 34.8593 64.6383 34.8593 64.6773 34.7377C64.7358 34.5432 64.9014 34.5554 65.106 34.7864C65.262 34.9688 65.2912 34.9566 65.4958 34.6648C65.7004 34.373 65.7199 34.373 65.983 34.5432C66.2364 34.7013 66.2656 34.7013 66.2656 34.531C66.2656 34.2514 66.5774 34.3487 66.7041 34.6526C66.7528 34.7864 66.8697 34.8836 66.9574 34.8593C67.0451 34.8472 67.1621 34.908 67.2303 35.0052C67.2985 35.1025 67.4154 35.1511 67.5031 35.1147C67.5811 35.0782 67.6883 35.1147 67.737 35.2119C67.8149 35.37 68.0488 36.2333 68.0585 36.44C68.078 36.6467 68.2729 36.5615 68.3704 36.3062C68.4775 36.0509 68.4873 36.0509 68.5457 36.4521C68.575 36.671 68.6724 36.9628 68.7406 37.0965C68.8771 37.3154 68.8868 37.3154 68.9842 37.0236C69.0719 36.7318 69.0817 36.7318 69.0817 36.9871C69.0914 37.1452 69.1401 37.2668 69.1889 37.2668C69.2473 37.2668 69.2863 37.4491 69.2863 37.6558C69.2766 38.13 69.3253 38.4705 69.4227 38.738C69.4617 38.8474 69.4812 39.0054 69.4617 39.1027C69.4422 39.2 69.4909 39.2608 69.5591 39.2365C69.6371 39.2243 69.6858 39.2973 69.6761 39.4188C69.6371 39.8322 69.6761 39.9417 69.871 39.9417C70.1243 39.9417 70.1535 40.5374 69.9002 40.5618C69.754 40.5739 69.7443 40.5861 69.8807 40.6347C70.1828 40.732 70.4069 41.8749 70.1633 42.0694C70.1146 42.1059 70.0658 42.3856 70.0658 42.6774C70.0658 43.2124 70.1828 43.4677 70.3192 43.2124C70.3582 43.1151 70.4069 43.1273 70.4654 43.2367C70.5141 43.3339 70.4848 43.4799 70.3971 43.6014C70.29 43.7473 70.2802 43.8689 70.3679 44.1729C70.4264 44.3918 70.5141 44.562 70.5628 44.562C70.6895 44.562 70.67 45.3401 70.5433 45.4982C70.4166 45.6563 70.3971 47.1396 70.5043 47.3706C70.631 47.6138 70.6408 48.2582 70.5238 48.4284C70.4459 48.55 70.4556 48.6595 70.5433 48.8297C70.6115 48.9756 70.6602 49.4619 70.6505 50.0091C70.6408 50.5197 70.6895 51.1763 70.7577 51.4681C70.8551 51.9058 70.8454 52.0639 70.7187 52.4408C70.5725 52.8664 70.5336 53.1217 70.5628 53.4621C70.5823 53.6688 70.6602 57.5596 70.6602 57.8758C70.6602 58.0095 70.6992 58.2892 70.7577 58.508C70.8259 58.7877 70.8259 58.97 70.7479 59.1524C70.6895 59.2862 70.67 59.4564 70.6992 59.5293C70.7382 59.5901 70.7674 60.1251 70.7577 60.7087C70.7577 61.2924 70.7577 61.8517 70.7577 61.9489C70.7869 63.4201 70.7772 66.1801 70.7285 67.1772C70.6213 69.4995 70.631 70.3384 70.7577 70.533C70.8454 70.6789 70.8454 70.7761 70.7382 71.0436C70.67 71.226 70.6018 71.4084 70.5823 71.457C70.5628 71.4935 70.6213 71.6273 70.709 71.7367C70.8454 71.9069 70.8551 71.9799 70.7479 72.223C70.6505 72.454 70.6505 72.5635 70.7382 72.6851C70.8259 72.8188 70.8162 72.8918 70.6992 73.0133C70.5628 73.1592 70.5628 73.1957 70.6992 73.3781C70.7869 73.4875 70.8454 73.7429 70.8454 73.9374C70.8454 74.1319 70.8454 74.3994 70.8454 74.5332C70.8454 75.1533 70.8259 75.2627 70.7285 75.4086C70.6505 75.5302 70.6505 75.6518 70.7285 75.8463C70.9331 76.3448 71.011 76.9649 70.9233 77.3297C70.8746 77.5242 70.8356 78.2051 70.8454 78.813C70.8551 79.4453 70.8162 79.9438 70.7674 79.9438C70.5433 79.9438 70.5628 80.3207 70.7967 80.4545C71.0792 80.6125 71.128 81.1962 70.8941 81.5244C70.7577 81.7068 70.7577 81.7433 70.8941 81.8892C71.0598 82.0594 71.089 82.3755 70.9428 82.3755C70.8941 82.3755 70.8454 82.4607 70.8454 82.5579C70.8454 82.6552 70.8941 82.7403 70.9428 82.7403C71.0013 82.7403 71.0403 82.8741 71.0403 83.0443C71.0403 83.2267 70.9818 83.3482 70.9038 83.3482C70.7382 83.3482 70.7674 83.6644 70.9526 84.0899C71.0987 84.4304 70.9915 88.54 70.8356 88.771C70.7187 88.9412 70.4361 91.8107 70.5043 92.1025C70.5628 92.3578 70.5628 93.2333 70.5043 94.1695C70.4751 94.6072 70.4556 95.1665 70.4556 95.434C70.4654 95.7015 70.3971 95.9933 70.3094 96.1149C70.1535 96.3216 70.1633 96.3459 70.3582 96.4796C70.5141 96.5891 70.5531 96.6863 70.5043 96.8809C70.4654 97.0268 70.4459 97.27 70.4459 97.4037C70.4459 97.5739 70.3777 97.6955 70.2607 97.732C70.0561 97.7928 69.9976 98.1089 70.1633 98.2427C70.2218 98.2791 70.2607 98.498 70.2607 98.729C70.2607 99.1181 70.1438 99.3248 69.9197 99.3369C69.871 99.3369 69.8417 99.5436 69.8515 99.799C69.871 100.054 69.8417 100.334 69.7833 100.419C69.7248 100.504 69.6663 100.857 69.6663 101.209C69.6566 101.55 69.5981 101.878 69.5299 101.951C69.4617 102.024 69.4227 102.194 69.452 102.328C69.4909 102.474 69.4617 102.559 69.3838 102.535C69.3155 102.51 69.2571 102.681 69.2376 102.972C69.2084 103.228 69.1207 103.58 69.0232 103.763C68.9258 103.933 68.8673 104.115 68.8771 104.164C68.8868 104.225 68.8283 104.261 68.7504 104.261C68.6627 104.261 68.6334 104.334 68.6724 104.456C68.7504 104.711 68.5165 104.881 68.2924 104.735C68.156 104.65 68.117 104.662 68.117 104.808C68.117 104.93 68.0488 105.003 67.9514 104.979C67.6395 104.942 67.5323 104.991 67.5323 105.161C67.5323 105.258 67.5908 105.368 67.659 105.404C67.7175 105.441 67.6298 105.465 67.4641 105.441C67.24 105.404 67.1426 105.453 67.1426 105.562C67.1426 105.696 67.0257 105.72 66.6846 105.696C66.3143 105.672 66.1974 105.599 66.1097 105.38C65.944 104.966 65.8953 104.942 65.7199 105.173C65.5543 105.368 65.5445 105.368 65.4276 105.161C65.1353 104.626 65.0866 104.602 64.9112 104.796C64.6383 105.1 64.2583 105.039 63.9465 104.626C63.7906 104.419 63.5957 104.261 63.508 104.261C63.43 104.261 63.3423 104.2 63.3229 104.115C63.2936 104.03 63.1377 103.982 62.9331 103.994C62.6602 104.018 62.5433 103.957 62.4264 103.751L62.2705 103.483V103.751C62.2705 103.945 62.2315 104.006 62.1535 103.933C62.0366 103.848 61.754 103.811 61.0037 103.763C60.8283 103.751 60.8088 103.726 60.9355 103.69C61.1012 103.641 61.1012 103.617 60.9648 103.422C60.8576 103.276 60.6822 103.216 60.3509 103.24C60.0585 103.252 59.8247 103.191 59.7272 103.082C59.5908 102.936 59.5421 102.936 59.4154 103.106C59.2108 103.361 59.0841 103.337 59.0062 103.033C58.9672 102.887 58.8795 102.814 58.8113 102.851C58.7333 102.887 58.6261 102.839 58.5677 102.741C58.5092 102.656 58.3825 102.608 58.2851 102.644C58.1097 102.693 57.8563 102.462 57.7589 102.17C57.7199 102.048 57.681 102.048 57.603 102.194C57.4471 102.474 56.6676 101.939 56.5311 101.453C56.424 101.076 56.2291 101.063 56.2291 101.428C56.2291 101.598 56.1901 101.586 56.005 101.367C55.8783 101.222 55.7321 101.1 55.6736 101.1C55.6249 101.1 55.5275 100.966 55.469 100.796C55.3813 100.553 55.3131 100.504 55.1962 100.589C54.9721 100.747 54.67 100.638 54.3582 100.285C54.2218 100.115 54.0756 99.9935 54.0464 99.9935C54.0074 100.006 53.832 99.8719 53.6566 99.7017C53.374 99.4342 53.2766 99.3977 52.994 99.495C52.7406 99.5801 52.5847 99.5558 52.2827 99.3613C52.0683 99.2275 51.8734 99.0816 51.8442 99.0208C51.8149 98.9722 51.6883 98.9235 51.5713 98.9114C51.4544 98.9114 51.2595 98.9114 51.1426 98.8992C51.0354 98.8992 50.8503 98.8384 50.7528 98.7776C50.4508 98.5709 50.2071 98.5588 50.0902 98.7168C50.0123 98.8506 49.9246 98.8506 49.6615 98.7412C49.4763 98.6682 49.2717 98.5345 49.184 98.4494C49.106 98.3642 48.8527 98.2791 48.6286 98.2427C48.3947 98.2183 48.1803 98.1332 48.1414 98.0603C48.1024 97.9873 47.927 97.9144 47.7419 97.9144C47.5567 97.9144 47.3618 97.8536 47.2936 97.7928C47.2254 97.732 47.1377 97.7077 47.0793 97.7441C47.0305 97.7928 46.9331 97.7441 46.8551 97.659C46.6408 97.3794 46.3582 97.2456 46.0171 97.2335C45.8515 97.2335 45.6371 97.1362 45.5592 97.0389C45.4715 96.9417 45.3448 96.8809 45.2668 96.9174C45.1986 96.9538 45.033 96.9174 44.9063 96.8322C44.7796 96.7471 44.497 96.6985 44.2729 96.7107C44.0293 96.7228 43.8539 96.6742 43.8539 96.6012C43.8539 96.5404 43.7857 96.4796 43.7078 96.4796C43.6298 96.4796 43.5616 96.5283 43.5616 96.5891C43.5616 96.6499 43.4057 96.735 43.2108 96.7836C43.0159 96.8201 42.7431 96.9174 42.5969 96.9903C42.4605 97.0633 42.2461 97.1241 42.1194 97.1362C41.9928 97.1484 41.8564 97.2335 41.8174 97.3186C41.7687 97.4037 41.6225 97.4523 41.4958 97.4402C41.3594 97.4159 41.184 97.4645 41.0963 97.5496C41.0184 97.6347 40.8917 97.6955 40.8137 97.6834C40.5214 97.6347 40.3557 97.7077 40.307 97.9144C40.2486 98.1332 39.6931 98.498 39.5957 98.3764C39.5665 98.3399 39.4203 98.3886 39.2644 98.498C39.011 98.656 38.9818 98.656 38.9818 98.4858C38.9818 98.3156 38.9331 98.3278 38.7187 98.5466C38.4654 98.7898 38.4459 98.802 38.3192 98.5831C38.2413 98.4494 38.1633 98.4129 38.1243 98.4858C38.0853 98.5588 37.9587 98.6682 37.8417 98.7533C37.6761 98.8749 37.6079 98.8627 37.5104 98.7168C37.413 98.5588 37.374 98.5588 37.2279 98.729C37.0427 98.9357 36.8381 98.9722 36.8381 98.7898C36.8381 98.7168 36.7699 98.6682 36.6919 98.6682C36.614 98.6682 36.5458 98.729 36.5458 98.7898C36.5458 98.9357 35.9416 98.8992 35.8539 98.7533C35.7467 98.5709 35.4252 98.5709 35.2595 98.7533C35.1523 98.8749 35.0841 98.8871 35.0354 98.802C34.9282 98.5831 34.821 98.656 34.6944 99.033C34.6164 99.2518 34.4995 99.3977 34.3923 99.3977C34.2851 99.3977 34.2072 99.4464 34.2072 99.5193C34.2072 99.5801 34.1389 99.6409 34.061 99.6409C33.983 99.6409 33.9148 99.5801 33.9148 99.5193C33.9148 99.2883 33.7199 99.3977 33.3302 99.8841C33.1158 100.152 32.8722 100.37 32.804 100.37C32.7358 100.37 32.6286 100.516 32.5701 100.687C32.5019 100.857 32.4045 100.954 32.346 100.905C32.2875 100.869 32.1219 100.991 31.966 101.197C31.7711 101.465 31.6347 101.55 31.4885 101.501C31.3424 101.453 31.2839 101.489 31.2839 101.647C31.2839 101.793 31.2254 101.842 31.089 101.793C30.9721 101.757 30.8941 101.793 30.8941 101.878C30.8941 101.963 30.7967 102.133 30.67 102.267C30.1438 102.814 29.7833 102.936 29.5397 102.644C29.4422 102.535 29.4227 102.535 29.4715 102.644C29.5104 102.729 29.4422 102.912 29.3253 103.058L29.1207 103.313L28.9843 103.058C28.7796 102.705 28.6822 102.741 28.4581 103.191C28.3509 103.41 28.2632 103.532 28.2632 103.471C28.2632 103.398 28.2145 103.264 28.1657 103.167C28.0878 103.009 28.0586 103.021 27.9416 103.216C27.776 103.495 26.9964 103.617 26.8893 103.386C26.8308 103.264 26.7821 103.264 26.6944 103.374C26.6164 103.471 26.519 103.483 26.3533 103.386C26.1584 103.276 26.1 103.301 25.9538 103.52C25.7784 103.775 25.4763 103.848 25.0671 103.726C24.9014 103.678 24.8137 103.738 24.7358 103.957C24.5896 104.346 24.424 104.346 24.2778 103.933C24.1511 103.592 24.0439 103.641 23.8393 104.164C23.7808 104.31 23.6347 104.456 23.5178 104.48C23.4008 104.504 23.2644 104.662 23.1865 104.881C23.1085 105.124 23.05 105.197 22.9916 105.1C22.9526 105.015 22.9428 104.881 22.9721 104.796C22.9916 104.723 22.9721 104.614 22.9234 104.577C22.8649 104.541 22.7967 104.638 22.7675 104.796C22.709 105.088 22.3679 105.331 22.251 105.185C22.212 105.149 22.1438 105.234 22.0854 105.38C21.9392 105.745 21.6761 105.805 21.6079 105.477C21.5397 105.124 21.3838 105.173 21.2474 105.599C21.1109 106 20.7991 106.073 20.3022 105.818C20.156 105.745 19.9514 105.696 19.8637 105.708C19.6883 105.732 19.6493 105.623 19.6785 105.197C19.6883 105.088 19.6493 104.991 19.6006 104.991C19.5421 104.991 19.5031 104.918 19.5226 104.833C19.5324 104.76 19.4837 104.699 19.4252 104.711C19.357 104.735 19.2985 104.662 19.2985 104.565C19.2985 104.468 19.2498 104.395 19.1816 104.419C19.1231 104.431 18.977 104.237 18.8698 103.994C18.7431 103.714 18.5969 103.532 18.48 103.532C18.3533 103.532 18.3143 103.471 18.3533 103.289C18.3826 103.118 18.3533 103.045 18.2559 103.045C18.1584 103.045 18.1195 102.972 18.1487 102.826C18.1779 102.693 18.1195 102.389 18.0123 102.121C17.9148 101.866 17.8076 101.307 17.7882 100.881C17.7687 100.456 17.7005 100.03 17.642 99.9449C17.5835 99.8598 17.5446 99.495 17.5543 99.1546C17.5738 98.802 17.5348 98.4858 17.4763 98.4494C17.4081 98.4007 17.3594 97.9387 17.3594 97.3186C17.3594 96.735 17.3107 96.1392 17.262 95.969C17.184 95.7015 17.1061 92.6132 17.1645 91.7985C17.1743 91.5918 17.1548 91.2757 17.1061 91.0933C17.0671 90.8866 17.0768 90.6313 17.145 90.4489C17.2327 90.2179 17.223 90.1571 17.1061 90.1571C16.9891 90.1571 16.9599 89.9869 16.9599 89.3546C16.9599 88.8561 16.9989 88.5886 17.0573 88.6373C17.1158 88.6738 17.1548 88.6251 17.1548 88.5278C17.1548 88.4306 17.1061 88.309 17.0573 88.2725C16.9404 88.1874 16.9209 83.5185 17.0379 83.4212C17.1548 83.3361 17.1548 80.0775 17.0476 79.9924C16.9989 79.956 16.9502 79.6642 16.9599 79.3602C16.9599 79.0441 16.9599 78.6671 16.9599 78.5091C16.9599 78.351 16.9989 78.12 17.0573 77.9984C17.1645 77.7431 17.145 76.5637 17.0184 76.3205C16.9794 76.2354 16.9794 76.053 17.0184 75.895C17.145 75.4451 17.145 75.2749 17.0476 75.129C16.9891 75.0438 16.9891 74.9466 17.0379 74.9101C17.145 74.8371 17.1256 71.4692 17.0184 71.1652C16.9404 70.9464 16.9794 70.3384 17.1061 69.694C17.1548 69.4873 17.1353 69.232 17.0573 69.0496C16.9599 68.8307 16.9502 68.6605 17.0379 68.3079C17.0963 68.0526 17.1256 67.627 17.0963 67.3595C17.0671 67.0921 17.0476 66.8124 17.0573 66.7516C17.1256 65.8883 17.1256 61.572 17.0573 61.5234C16.9209 61.4261 16.9307 59.4321 17.0573 59.3348C17.1353 59.274 17.1256 59.2011 17.0573 59.0916C16.9794 58.9822 16.9599 58.5566 16.9891 57.8514C17.0379 56.7693 17.0573 56.1127 17.0476 55.8331C17.0379 55.517 17.145 50.9939 17.184 49.6686C17.2133 48.9026 17.2815 48.0637 17.3302 47.8083C17.4081 47.4557 17.3984 47.3098 17.2912 47.1761C17.1158 46.9572 17.1061 46.2642 17.2912 46.2642C17.3984 46.2642 17.4081 46.1912 17.3009 45.8022C17.2035 45.4496 17.1938 45.3401 17.2912 45.3158C17.3692 45.2915 17.3886 45.1213 17.3692 44.8538C17.3399 44.5741 17.3692 44.3796 17.4471 44.3188C17.603 44.1972 17.5835 42.6044 17.4374 42.4828C17.3789 42.4464 17.4666 42.3734 17.6323 42.3369C17.8564 42.2761 17.9343 42.191 17.9343 41.9965C17.9343 41.8506 17.8564 41.6682 17.7687 41.5831C17.6225 41.4493 17.6128 41.3885 17.7394 41.0846C17.8759 40.7441 17.9148 40.4645 17.9441 39.8201C17.9538 39.6499 17.983 39.4675 18.0123 39.3945C18.0513 39.3337 18.0805 39.0784 18.0902 38.8474C18.1097 38.361 18.4215 37.5221 18.4215 37.9355C18.4215 38.13 18.4508 38.1179 18.5677 37.826C18.6456 37.6437 18.7139 37.3883 18.7139 37.2668C18.7139 37.1452 18.7821 36.9871 18.86 36.902C18.938 36.8169 18.977 36.7075 18.9477 36.6467C18.9185 36.5859 18.9672 36.5372 19.0647 36.5372C19.279 36.5372 19.4837 36.1846 19.4934 35.832C19.4934 35.674 19.5519 35.5645 19.6493 35.5645C19.7273 35.5645 19.776 35.5159 19.7467 35.4551C19.698 35.3578 20.0293 35.1511 20.2047 35.1876C20.2437 35.1998 20.3217 35.066 20.3899 34.8958C20.5165 34.5554 20.6335 34.604 20.7699 35.0539C20.8478 35.3092 20.8868 35.3335 20.955 35.1998C21.0135 35.1025 21.0525 34.9201 21.0525 34.7864C21.0525 34.6283 21.1012 34.5797 21.2474 34.6283C21.3935 34.6769 21.4812 34.604 21.5884 34.373C21.6664 34.1906 21.7248 34.1055 21.7346 34.1906C21.7346 34.2635 21.7833 34.4824 21.832 34.6526C21.9197 34.9323 21.9587 34.9566 22.0854 34.8229C22.3095 34.5918 22.7187 34.6162 22.8454 34.8593C22.9623 35.0903 23.1962 35.1633 23.1962 34.9566C23.1962 34.6648 24.1901 34.9444 24.2486 35.2484C24.2583 35.3214 24.385 35.37 24.5409 35.37C24.6871 35.3578 24.7942 35.297 24.7748 35.2241C24.765 35.139 24.8625 35.0782 24.9989 35.0782C25.1353 35.0782 25.2425 35.1268 25.2425 35.1876C25.2425 35.4429 25.5543 35.4065 25.7784 35.1268C25.9148 34.9566 26.0805 34.8472 26.1487 34.8715C26.2169 34.8958 26.3436 34.8472 26.4313 34.7377C26.5774 34.5918 26.6456 34.5797 26.9087 34.7134C27.1621 34.8472 27.2206 34.8472 27.2985 34.7013C27.357 34.5797 27.3862 34.5797 27.3862 34.6769C27.3862 34.9566 27.6201 34.8472 27.8637 34.4581L28.1073 34.0812L28.2437 34.4216L28.3801 34.7499L28.5555 34.4703C28.6919 34.2514 28.7796 34.2028 29.0037 34.2757C29.452 34.3973 32.307 34.3487 32.3363 34.2271C32.385 34.0447 32.7358 34.0812 32.8917 34.2635C33.0281 34.4459 33.6225 34.3973 33.6225 34.2149C33.6225 34.1541 33.7102 34.1055 33.8076 34.1055C33.9148 34.1055 34.0318 34.0447 34.061 33.9839C34.1779 33.7529 34.5677 33.8502 34.6262 34.1176C34.6651 34.2879 34.7236 34.3365 34.8113 34.2757C34.8795 34.2149 35.0062 34.1906 35.0939 34.2028C35.1816 34.2271 35.3082 34.1541 35.3765 34.0447C35.4934 33.8745 35.5226 33.8745 35.6785 34.0569C35.8149 34.2149 35.9221 34.2392 36.0878 34.1541C36.3509 34.0082 36.7699 34.069 36.6822 34.2392C36.6529 34.3122 36.7212 34.3243 36.8673 34.2879C37.033 34.2271 37.1791 34.2879 37.3838 34.5067C37.6176 34.7621 37.6956 34.7864 37.9587 34.6769C38.1146 34.6162 38.29 34.5067 38.3387 34.4581C38.4946 34.2879 39.0013 34.3365 39.1767 34.531C39.3131 34.6891 39.3618 34.6769 39.5762 34.4216C39.7808 34.1906 39.8393 34.1663 39.9465 34.3122C40.0537 34.4581 40.0927 34.4581 40.2388 34.3C40.3363 34.1906 40.4824 34.1055 40.5604 34.1055C40.6481 34.1055 40.7358 34.0569 40.7553 33.9961C40.7747 33.9353 40.9209 33.8623 41.0768 33.8258C41.2425 33.7894 41.5056 33.6921 41.6615 33.6191C41.8271 33.534 42.1487 33.4489 42.3923 33.4368C42.6944 33.4124 42.8698 33.3395 42.9769 33.1571C43.1328 32.8896 43.3667 32.8045 43.3667 33.0112ZM29.6956 34.1784C29.6664 34.2149 29.5787 34.2271 29.5104 34.1906C29.4325 34.1541 29.4617 34.1176 29.5689 34.1176C29.6761 34.1055 29.7346 34.142 29.6956 34.1784ZM70.4264 42.8233C70.3971 42.9449 70.3777 42.8719 70.3777 42.6774C70.3777 42.4707 70.3971 42.3856 70.4264 42.4585C70.4459 42.5436 70.4459 42.7139 70.4264 42.8233ZM45.3156 99.8476C45.7151 100.091 47.7126 101.307 49.7492 102.559C51.7857 103.811 54.4166 105.428 55.5957 106.146C56.7747 106.863 60.3704 109.088 63.5859 111.082C68.6627 114.244 69.793 114.949 71.0305 115.8C71.1572 115.885 71.2157 116.007 71.1669 116.067C71.0792 116.177 70.6992 116.031 69.7735 115.484C69.4227 115.277 68.8965 114.973 68.6042 114.803C67.4252 114.146 66.6943 113.709 64.2193 112.225C62.7967 111.374 61.1986 110.414 60.6627 110.097C59.7175 109.538 58.4313 108.76 55.011 106.693C54.1048 106.146 52.8088 105.368 52.1365 104.966C51.4641 104.565 50.3241 103.872 49.603 103.447C48.8819 103.009 47.5665 102.219 46.6797 101.684C45.793 101.161 44.9063 100.614 44.7017 100.492C44.3022 100.237 43.4836 100.164 43.1913 100.358C43.1036 100.431 42.3923 100.857 41.6128 101.319C40.8332 101.781 39.6542 102.498 38.9818 102.899C38.3095 103.301 37.2376 103.945 36.5945 104.322C35.0062 105.27 32.8917 106.547 30.5531 107.97C29.4812 108.614 27.659 109.708 26.5092 110.401C25.3594 111.082 23.7614 112.043 22.9526 112.529C20.6724 113.903 19.2888 114.718 18.1779 115.326C17.9148 115.472 17.5738 115.666 17.4276 115.751C17.0573 115.97 16.5701 116.092 16.5701 115.97C16.5701 115.909 17.0184 115.569 17.5738 115.216C18.9282 114.329 28.4873 108.371 31.1377 106.754C32.3168 106.036 35.4057 104.14 38.0074 102.535C40.6091 100.93 42.821 99.568 42.9282 99.5193C43.5518 99.1789 44.3899 99.2883 45.3156 99.8476ZM70.2607 99.9449C70.2607 100.237 70.212 100.37 70.1146 100.37C70.0171 100.37 69.9684 100.237 69.9684 99.9449C69.9684 99.6531 70.0171 99.5193 70.1146 99.5193C70.212 99.5193 70.2607 99.6531 70.2607 99.9449ZM70.0366 101.246C70.0074 101.343 69.9781 101.307 69.9781 101.173C69.9684 101.039 69.9976 100.966 70.0269 101.015C70.0561 101.051 70.0658 101.161 70.0366 101.246ZM71.469 116.31C71.4398 116.371 71.3716 116.396 71.3228 116.347C71.2741 116.31 71.2546 116.225 71.2936 116.165C71.3228 116.104 71.3911 116.079 71.4398 116.128C71.4885 116.165 71.508 116.25 71.469 116.31ZM16.4435 116.25C16.4142 116.286 16.3265 116.298 16.2583 116.262C16.1804 116.225 16.2096 116.189 16.3168 116.189C16.424 116.177 16.4824 116.213 16.4435 116.25Z" fill="#FF9800"/>
        <path d="M29.8612 34.5554C29.9294 34.6405 30.709 34.6162 30.7869 34.5189C30.8064 34.4946 30.592 34.4703 30.3094 34.4703C30.0269 34.4703 29.8222 34.5068 29.8612 34.5554Z" fill="#FF9800"/>
        <path d="M9.35938 25.12C9.35938 25.1808 9.4081 25.2051 9.45682 25.1687C9.51528 25.1322 9.55426 25.0714 9.55426 25.0349C9.55426 25.0106 9.51528 24.9863 9.45682 24.9863C9.4081 24.9863 9.35938 25.0471 9.35938 25.12Z" fill="#FF9800"/>
        <path d="M77.8221 26.8833C77.7149 27.2237 77.7636 27.3453 77.9098 27.1021C77.9877 26.9805 78.0559 26.8346 78.0559 26.7738C78.0559 26.6158 77.8805 26.6887 77.8221 26.8833Z" fill="#FF9800"/>
        <path d="M4 27.017C4 27.0656 4.47747 27.4912 5.05237 27.9532L6.10475 28.7921L6.06577 29.4366C6.01705 30.1661 6.03654 30.1782 6.90377 30.1174L7.4397 30.0688L7.37149 29.2663C7.30328 28.3301 7.09866 28.0261 6.58221 28.0261C6.34835 28.0261 6.24117 27.9654 6.19245 27.7951C6.08526 27.3453 5.80268 27.175 5.06212 27.1142C4.66261 27.0778 4.26309 27.017 4.1754 26.9805C4.07795 26.944 4 26.9562 4 27.017Z" fill="#FF9800"/>
        <path d="M9.1157 27.4302C9.06698 27.5883 8.93056 27.6126 8.31668 27.564C7.67356 27.5153 7.55663 27.5396 7.4397 27.722C7.15712 28.2205 7.25456 28.2813 8.29719 28.257C9.36905 28.2205 9.5347 28.1111 9.30084 27.5396C9.2034 27.3086 9.16442 27.2843 9.1157 27.4302Z" fill="#FF9800"/>
        <path d="M82.1776 27.5032C82.0509 27.5275 81.9047 27.6491 81.8365 27.7707C81.7586 27.8923 81.5247 28.0139 81.2811 28.0625C81.0473 28.099 80.8232 28.172 80.7744 28.2327C80.7257 28.2935 80.6672 28.7313 80.6283 29.2054L80.5601 30.0687L81.135 30.1174C81.9535 30.1903 81.9827 30.166 81.934 29.4243L81.895 28.7921L82.655 28.1963C83.074 27.868 83.4151 27.564 83.4151 27.5154C83.4151 27.4181 82.5576 27.406 82.1776 27.5032Z" fill="#FF9800"/>
        <path d="M78.8647 27.6613C78.7381 27.7221 78.6406 27.8194 78.6406 27.8802C78.6406 28.172 78.9232 28.2693 79.7807 28.2693C80.5895 28.2693 80.6869 28.245 80.6869 28.0504C80.6869 27.9288 80.6382 27.7708 80.57 27.6857C80.4336 27.5154 79.1863 27.5033 78.8647 27.6613Z" fill="#FF9800"/>
        <path d="M77.8613 28.622C77.8613 28.6949 77.9101 28.78 77.9588 28.8165C78.0172 28.853 78.0562 28.8043 78.0562 28.7071C78.0562 28.5976 78.0172 28.5125 77.9588 28.5125C77.9101 28.5125 77.8613 28.5612 77.8613 28.622Z" fill="#FF9800"/>
        <path d="M9.35938 28.7677C9.35938 28.8285 9.4081 28.8528 9.45682 28.8164C9.51528 28.7799 9.55426 28.7191 9.55426 28.6826C9.55426 28.6583 9.51528 28.634 9.45682 28.634C9.4081 28.634 9.35938 28.6948 9.35938 28.7677Z" fill="#FF9800"/>
    </g>
    <line x1="22" y1="58.5002" x2="67" y2="58.5002" stroke="#FF9800"/>
    <defs>
        <filter id="filter0_d" x="0" y="0" width="87.9998" height="130.499" filterUnits="userSpaceOnUse" color-interpolation-filters="sRGB">
            <feFlood flood-opacity="0" result="BackgroundImageFix"/>
            <feColorMatrix in="SourceAlpha" type="matrix" values="0 0 0 0 0 0 0 0 0 0 0 0 0 0 0 0 0 0 127 0"/>
            <feOffset dy="4"/>
            <feGaussianBlur stdDeviation="2"/>
            <feColorMatrix type="matrix" values="0 0 0 0 0 0 0 0 0 0 0 0 0 0 0 0 0 0 0.25 0"/>
            <feBlend mode="normal" in2="BackgroundImageFix" result="effect1_dropShadow"/>
            <feBlend mode="normal" in="SourceGraphic" in2="effect1_dropShadow" result="shape"/>
        </filter>
    </defs>
</svg>
