<svg width="150" height="150" viewBox="0 0 150 150" fill="none" xmlns="http://www.w3.org/2000/svg">
    <path d="M75 150C116.421 150 150 116.421 150 75C150 33.5786 116.421 0 75 0C33.5786 0 0 33.5786 0 75C0 116.421 33.5786 150 75 150Z" fill="#F7931A"/>
    <path d="M108.703 65.7188C110.156 55.875 102.703 50.625 92.4373 47.0625L95.7654 33.7969L87.656 31.7813L84.4216 44.7188L77.9529 43.1719L81.2341 30.1406L73.1248 28.125L69.7966 41.4375L64.6404 40.2188V40.1719L53.4373 37.3594L51.281 46.0312C51.281 46.0312 57.281 47.4375 57.1873 47.4844C60.4685 48.3281 61.031 50.4844 60.9373 52.1719L57.1873 67.3594L58.031 67.6406L57.1404 67.4531L51.8435 88.6875C51.4685 89.6719 50.4373 91.1719 48.1404 90.5625C48.2341 90.7031 42.281 89.1563 42.281 89.1563L38.2498 98.3906L48.7966 101.016L54.5623 102.516L51.1873 115.969L59.2966 117.984L62.5779 104.672L69.0935 106.359L65.7654 119.625L73.8748 121.641L77.2029 108.188C91.031 110.812 101.437 109.781 105.797 97.2656C109.312 87.1875 105.609 81.4219 98.3435 77.5781C103.64 76.4062 107.625 72.8906 108.656 65.7188H108.703ZM90.1873 91.6875C87.7029 101.766 70.7341 96.2812 65.2498 94.9688L69.7029 77.1094C75.1873 78.5156 92.8123 81.1875 90.1873 91.6406V91.6875ZM92.6716 65.5781C90.4216 74.7188 76.2654 70.0781 71.7185 68.9531L75.7498 52.7813C80.3435 53.9063 95.0623 56.0625 92.6716 65.5781Z" fill="white"/>
</svg>
