<svg width="170" height="265" viewBox="0 0 170 265" fill="none" xmlns="http://www.w3.org/2000/svg">
    <g filter="url(#filter0_d)">
        <path d="M111.171 10.2972C109.91 10.6729 108.609 12.0087 107.844 13.6575C107.327 14.7428 105.84 20.8373 105.819 21.86C105.819 22.0479 105.344 22.6531 104.765 23.2167C101.046 26.89 99.1243 31.0435 98.0705 37.7224C97.8226 39.2877 97.4093 40.7279 96.5828 42.8359C95.9629 44.4221 95.4463 46.1127 95.4257 46.5928C95.3843 47.4068 95.405 47.4276 96.0662 47.365C96.4175 47.3441 96.7274 47.3859 96.7274 47.4694C96.7274 47.699 94.4752 49.3478 92.1816 50.7879C88.3177 53.2508 86.396 54.2735 85.3629 54.4405C84.0405 54.6492 79.3913 56.5067 77.7383 57.4877C77.0151 57.926 76.0853 58.6148 75.6927 59.0113C74.3289 60.4306 74.3083 60.5141 74.3083 65.6902C74.2876 72.1395 74.1017 72.6613 70.6303 75.2494C69.5765 76.0425 68.4194 77.0652 68.0475 77.5452C66.6217 79.3611 65.7539 82.1161 64.8034 87.9393C63.8322 93.8876 63.5223 94.7851 61.3734 97.9993C59.0798 101.381 58.0467 103.781 57.0962 107.955C56.7449 109.479 56.6209 111.128 56.435 116.721C56.187 124.089 56.0424 127.324 55.9597 127.407C55.9184 127.428 54.8852 126.614 53.6455 125.612C29.5113 106.014 3.70347 85.3929 3.04226 85.1633C0.996637 84.4328 -0.67705 86.4574 0.273439 88.5445C0.418078 88.8785 4.50931 92.3223 10.1296 96.8514C42.033 122.544 55.6084 133.523 55.6084 133.606C55.6084 133.648 55.3811 134.191 55.0919 134.817C54.7406 135.589 54.5753 136.278 54.5753 137.133C54.5753 138.26 54.6373 138.386 55.4431 139.283C56.5176 140.473 57.778 141.203 62.4892 143.437L66.2498 145.232L66.8903 144.522C67.2416 144.125 67.5722 143.687 67.6342 143.541C67.6962 143.353 68.7913 144.125 70.7543 145.712C72.428 147.068 73.7917 148.195 73.7917 148.216C73.7917 148.216 73.5231 149.343 73.1718 150.679C72.2627 154.352 71.9734 157.066 71.8287 163.265C71.6428 171.175 71.3328 173.179 69.7211 176.414C69.2046 177.436 68.1301 179.273 67.3243 180.484C62.6958 187.371 62.0139 188.77 60.7741 194.259C58.8732 202.482 58.6872 204.59 58.5012 219.409L58.3566 231.932L57.6334 233.602C56.9515 235.125 56.4969 236.753 55.2158 242.368C54.8026 244.142 54.7199 244.309 53.7488 245.206C51.9925 246.855 50.5874 250.508 51.0626 252.282C51.6412 254.411 53.2322 254.765 60.5675 254.285C65.3613 253.972 65.4233 253.951 65.8985 253.43C66.5597 252.636 66.4977 251.384 65.6092 248.754C64.5968 245.77 64.6588 245.206 66.3324 241.658C67.9028 238.381 68.0061 237.505 67.097 235.918L66.5184 234.917L66.8903 234.082C67.1796 233.414 67.2003 233.184 67.0143 232.85C66.4564 231.974 66.6837 231.139 69.4319 223.938C75.1555 208.911 76.4366 205.425 77.573 201.564C78.2549 199.268 78.4408 198.162 78.9574 192.902C79.226 190.189 79.6186 187.768 80.2178 185.18C80.5898 183.531 80.7757 183.155 81.6849 182.049C84.743 178.355 86.2307 175.954 87.0159 173.492C87.4292 172.218 87.6978 171.801 89.1648 170.257C90.3839 168.942 91.1691 167.856 92.0576 166.228C92.7188 164.997 93.2974 163.995 93.3387 163.995C93.3801 163.995 97.8226 167.543 103.195 171.885L112.968 179.795L113.96 182.383C115.262 185.806 115.324 186.495 114.518 190.418C114.043 192.693 113.878 194.134 113.878 195.636C113.878 196.784 113.795 197.807 113.671 197.932C113.423 198.183 114.332 202.357 115.655 207.095C116.171 208.931 117.865 214.421 119.457 219.305C122.804 229.636 122.99 230.304 123.692 233.56C124.622 237.901 124.395 241.387 122.969 244.726C122.701 245.373 122.577 245.916 122.68 245.999C123.052 246.354 131.379 250.257 133.631 251.155C136.999 252.49 139.499 252.929 145.306 253.242C148.178 253.409 149.211 253.2 149.748 252.386C150.926 250.57 147.951 247.356 141.276 243.182L138.673 241.554L136.607 238.402C134.272 234.812 133.611 233.435 133.301 231.577C133.177 230.784 133.094 225.357 133.094 218.157C133.094 211.499 132.991 204.632 132.887 202.92C132.639 199.289 132.309 196.095 132.081 195.177C131.916 194.551 131.937 194.509 132.701 194.28C133.755 193.967 134.334 193.173 134.334 192.088C134.334 190.961 133.797 190.21 131.937 188.749C130.201 187.392 130.284 187.663 130.077 182.466C129.953 178.689 129.912 178.459 129.519 178.793C129.292 178.981 129.168 178.563 128.899 176.664C128.176 171.718 128.114 170.674 128.404 168.942C128.569 168.044 128.734 167.293 128.796 167.23C128.837 167.188 129.602 167.376 130.47 167.648C133.28 168.566 135.47 168.274 137.95 166.688C138.921 166.061 138.962 166.061 139.231 166.437C139.396 166.646 139.561 167.021 139.644 167.272C139.706 167.543 139.871 167.752 140.037 167.752C140.347 167.752 141.917 165.143 143.301 162.367C148.013 152.871 149.81 144.647 149.562 133.857C149.232 118.808 145.326 109.708 134.21 98.062L131.338 95.0564L131.234 98.4585L131.131 101.861L129.726 102.257C127.825 102.779 127.184 103.134 126.027 104.261C124.973 105.283 124.911 105.304 125.263 104.365C125.387 104.052 125.49 103.029 125.469 102.111C125.469 100.212 124.87 97.6445 123.196 92.3014C122.618 90.4647 122.143 88.8367 122.143 88.6906C122.143 88.5445 122.556 88.2523 123.052 88.0436C123.589 87.7932 123.982 87.4801 124.064 87.2088C124.168 86.8122 124.23 86.7913 124.705 87C125.366 87.3131 126.089 87.0209 126.585 86.2695C126.895 85.8104 126.895 85.6225 126.585 83.9111C126.11 81.323 125.118 77.3991 124.436 75.4163C123.114 71.5551 120.841 68.0069 117.37 64.3336L116.192 63.0813L116.088 58.4895L116.006 53.8978L117.535 52.0611L119.085 50.2244L119.684 46.6345C120.51 41.6253 120.758 38.5572 120.634 34.8004C120.51 31.1478 120.242 29.8329 119.105 27.4953C118.547 26.3474 117.927 25.4917 116.791 24.3437C115.923 23.4671 114.993 22.6114 114.745 22.4235L114.249 22.1105L114.518 19.0006C114.787 15.9325 114.787 15.9116 115.448 15.2855C116.047 14.7011 117.597 11.5703 117.597 10.9233C117.597 10.7355 116.998 10.5268 115.799 10.2972C113.609 9.90063 112.431 9.90063 111.171 10.2972ZM82.4288 91.0909C84.805 94.6808 86.582 98.6046 86.7266 100.65C86.768 101.234 86.9333 102.361 87.1192 103.155C87.6565 105.555 87.7598 109.917 87.3259 112.463C86.7473 116.032 85.0323 121.146 82.5114 126.948C82.0568 127.971 81.1683 129.995 80.5485 131.436C79.9286 132.876 78.5648 135.986 77.5317 138.386C76.4985 140.765 75.6514 142.81 75.6514 142.936C75.6514 143.291 75.3414 143.103 73.4198 141.579L71.6221 140.139L71.6841 138.302L71.7668 136.486L70.8576 135.485C69.9278 134.462 69.2046 133.94 67.2416 132.876C66.5804 132.521 65.9812 132.166 65.8779 132.083C65.4439 131.665 65.2166 128.994 65.5266 127.658C65.6506 127.032 65.8159 126.197 65.8572 125.8C65.9398 124.861 66.663 122.774 67.9028 119.852C69.1013 117.013 69.6591 115.302 69.6591 114.509C69.6591 114.175 70.1551 112.839 70.7749 111.545C73.4198 105.993 74.6596 102.069 75.1555 97.6654C75.2588 96.6844 75.4447 96.1626 75.8993 95.5782C76.6638 94.5973 81.2717 89.9012 81.4783 89.9012C81.5609 89.9012 81.9949 90.4438 82.4288 91.0909ZM102.265 153.559L104.538 156.356L107.079 163.432C108.464 167.314 109.559 170.507 109.518 170.549C109.435 170.611 96.2522 160.05 95.6736 159.466C95.467 159.257 95.7356 158.443 96.8927 155.709C97.6986 153.789 98.5251 151.618 98.7111 150.888L99.083 149.573L99.5376 150.157C99.7855 150.47 101.005 152.015 102.265 153.559Z" fill="black"/>
    </g>
    <defs>
        <filter id="filter0_d" x="0" y="0" width="170" height="264.474" filterUnits="userSpaceOnUse" color-interpolation-filters="sRGB">
            <feFlood flood-opacity="0" result="BackgroundImageFix"/>
            <feColorMatrix in="SourceAlpha" type="matrix" values="0 0 0 0 0 0 0 0 0 0 0 0 0 0 0 0 0 0 127 0"/>
            <feOffset dx="10"/>
            <feGaussianBlur stdDeviation="5"/>
            <feColorMatrix type="matrix" values="0 0 0 0 0.968627 0 0 0 0 0.576471 0 0 0 0 0.101961 0 0 0 1 0"/>
            <feBlend mode="normal" in2="BackgroundImageFix" result="effect1_dropShadow"/>
            <feBlend mode="normal" in="SourceGraphic" in2="effect1_dropShadow" result="shape"/>
        </filter>
    </defs>
</svg>
