<svg width="150" height="150" viewBox="0 0 150 150" fill="none" xmlns="http://www.w3.org/2000/svg">
    <path d="M75 150C116.421 150 150 116.421 150 75C150 33.5786 116.421 0 75 0C33.5786 0 0 33.5786 0 75C0 116.421 33.5786 150 75 150Z" fill="#0096DC"/>
    <path d="M105.563 54.4687L82.3128 31.125C81.3545 30.1612 80.2151 29.3964 78.9601 28.8745C77.7052 28.3526 76.3594 28.084 75.0003 28.084C73.6412 28.084 72.2954 28.3526 71.0405 28.8745C69.7856 29.3964 68.6462 30.1612 67.6878 31.125L44.5316 54.4218C43.8903 55.0711 43.5308 55.9468 43.5308 56.8593C43.5308 57.7718 43.8903 58.6476 44.5316 59.2968L51.5628 66.3281L56.2503 70.6875C56.9185 71.3102 57.7979 71.6565 58.7112 71.6565C59.6246 71.6565 60.504 71.3102 61.1722 70.6875L70.5472 62.0156C73.1253 59.625 77.1097 59.625 79.6409 62.0156L89.0159 70.6875C89.6841 71.3102 90.5635 71.6565 91.4769 71.6565C92.3902 71.6565 93.2697 71.3102 93.9378 70.6875L98.6253 66.3281L105.61 59.2968C106.237 58.6497 106.588 57.7839 106.588 56.8828C106.588 55.9816 106.237 55.1158 105.61 54.4687H105.563Z" fill="white"/>
    <path opacity="0.7" d="M31.2653 82.3133L67.6872 118.876C68.6455 119.84 69.7849 120.604 71.0399 121.126C72.2948 121.648 73.6405 121.917 74.9997 121.917C76.3588 121.917 77.7045 121.648 78.9595 121.126C80.2144 120.604 81.3538 119.84 82.3122 118.876L118.734 82.3133C125.062 75.9851 120.609 74.1101 115.968 69.7039L110.25 64.2664C109.589 63.6468 108.718 63.302 107.812 63.302C106.907 63.302 106.035 63.6468 105.375 64.2664L95.9997 72.9851C93.4215 75.3289 89.4372 75.3289 86.859 72.9851L77.484 64.2664C76.8185 63.657 75.9489 63.319 75.0465 63.319C74.1442 63.319 73.2746 63.657 72.609 64.2664L63.234 72.9851C60.6559 75.3289 56.6715 75.3289 54.1403 72.9851L44.7653 64.2664C44.0971 63.6436 43.2177 63.2974 42.3044 63.2974C41.391 63.2974 40.5116 63.6436 39.8434 64.2664L34.5934 69.1414C29.7653 73.6414 24.6559 75.7039 31.3122 82.3133H31.2653Z" fill="white"/>
</svg>
