<svg width="114" height="284" viewBox="0 0 114 284" fill="none" xmlns="http://www.w3.org/2000/svg">
    <g filter="url(#filter0_d)">
        <path d="M5.71731 14.6981C5.78021 17.3398 5.96891 20.6944 6.13664 22.1411C6.3463 23.9861 16.4101 76.1292 17.6891 82.0208C17.8778 82.9014 17.2068 82.7127 15.9279 81.5385C15.215 80.9096 14.3554 79.9661 13.999 79.4629C12.741 77.6179 12.3846 78.4146 12.8039 82.1466C12.9716 83.5723 13.0765 85.2286 13.0136 85.8366C12.9297 86.843 12.9926 86.9898 13.5377 87.5139C13.8732 87.8284 14.4812 88.73 14.8586 89.5477C15.5505 90.9943 17.6471 93.3635 19.1357 94.3909L19.7228 94.8102L18.7164 96.7601C18.1503 97.8293 17.5213 99.0034 17.3326 99.3389C17.1439 99.6953 16.9133 100.513 16.8504 101.163C16.7246 102.4 16.452 103.679 16.0747 105.021C15.865 105.671 15.886 105.922 16.1585 106.384C16.3891 106.803 16.5149 107.83 16.5988 110.199C16.6827 111.982 16.8714 114.435 17.0601 115.63C17.2488 116.825 17.3746 118.292 17.3326 118.858L17.2697 119.886L15.2779 120.704C14.1877 121.165 12.8458 121.668 12.3007 121.857C11.7346 122.024 11.2314 122.297 11.1476 122.444C11.0427 122.57 10.4347 122.863 9.74284 123.073C9.07192 123.282 7.56235 123.932 6.38823 124.519C3.62069 125.945 1.10473 128.293 0.412845 130.18C-0.383873 132.382 -0.0274467 134.185 1.48213 135.464C2.48851 136.323 3.24329 136.575 6.09471 137.057C9.42834 137.602 10.4767 138.064 11.5459 139.426C12.0072 140.013 12.4894 140.496 12.6152 140.496C12.9716 140.496 13.4329 138.714 13.3281 137.707C13.1184 135.715 11.1895 134.08 7.62524 132.864C6.4721 132.466 5.48668 132.109 5.44475 132.088C5.27702 131.941 6.4092 131.124 7.75104 130.453C9.93153 129.321 11.0637 129.069 14.7118 128.964C18.0036 128.88 18.0036 128.88 18.0036 129.342C18.0036 130.054 18.7164 132.403 19.3454 133.703C19.6389 134.353 19.8905 134.961 19.8905 135.065C19.8905 135.17 20.205 135.715 20.5824 136.281C21.3162 137.372 21.3162 137.518 20.7501 140.202C20.6663 140.621 20.6453 141.125 20.7292 141.334C20.7921 141.544 20.6872 142.571 20.4566 143.62C19.9744 145.947 19.3454 147.058 17.1439 149.49C16.2214 150.497 15.4876 151.335 15.4876 151.377C15.4876 151.398 15.1102 152.887 14.6489 154.669C12.5314 162.909 11.6717 165.508 10.4347 167.563C9.23965 169.555 8.17037 172.26 7.31075 175.488C6.51403 178.424 6.51403 179.032 7.20592 179.346C7.49945 179.493 7.87684 179.598 8.0236 179.598C8.19133 179.598 8.63163 179.954 9.05095 180.415C9.8896 181.359 10.2251 182.638 9.80574 183.414C9.38641 184.189 7.54138 189.41 5.82214 194.652C5.08833 196.874 5.84311 196.706 7.18495 194.316C9.80574 189.745 12.6362 185.028 13.2861 184.106C13.7055 183.539 14.3764 182.491 14.7747 181.799C15.1521 181.107 15.7182 180.248 16.0118 179.912L16.5569 179.283L16.452 180.856C16.1795 184.273 16.0537 188.152 16.1795 188.655C16.3891 189.431 16.7456 189.494 18.4648 189.054C19.3035 188.844 20.6453 188.592 21.442 188.508L22.8887 188.362L22.7419 191.276C22.5323 195.868 23.1613 200.92 24.7337 207.357C26.5578 214.716 26.7884 217.798 25.782 221.237C25.4675 222.39 24.9644 223.774 24.6918 224.361C24.0418 225.724 24.0209 227.694 24.6708 229.12C25.4256 230.839 28.1932 233.062 29.5979 233.062C29.8285 233.062 29.9543 233.23 29.9543 233.544C29.9543 234.383 30.5624 235.892 31.2542 236.71C32.1768 237.842 33.288 238.303 35.133 238.303C36.4958 238.303 36.7684 238.219 38.4876 237.339C41.5696 235.724 42.1148 234.97 42.1148 232.349C42.1148 229.581 40.8149 226.625 39.494 226.353C39.1376 226.269 38.6553 226.101 38.3828 225.954C38.1102 225.807 37.5441 225.724 37.1038 225.766C36.4119 225.828 36.1813 225.703 35.2169 224.843L34.1057 223.837L34.0008 221.279C33.896 218.448 33.7702 219.035 36.1184 211.467C36.8522 209.097 37.9215 204.401 37.9215 203.52C37.9215 203.29 37.9844 203.08 38.0892 203.101C38.1731 203.101 38.865 204.065 39.6198 205.24C40.3746 206.414 41.2552 207.504 41.5487 207.672C42.0519 207.944 42.1357 207.923 42.7438 207.399C43.1002 207.106 43.813 206.309 44.3372 205.659C44.8404 204.988 45.5323 204.107 45.8887 203.709L46.5387 202.975L46.4129 206.644C46.2871 209.852 46.329 210.439 46.6435 211.257C46.8741 211.865 47.0418 212.976 47.0838 214.339C47.1676 216.373 47.1467 216.498 46.5387 217.589C45.721 219.035 44.8404 222.663 44.8404 224.591C44.8404 226.667 45.3016 227.841 46.4967 228.931L47.5031 229.812L47.1257 232.747C46.6645 236.228 45.9726 239.184 45.0291 241.763C44.3582 243.587 44.3372 243.755 44.3162 247.004C44.2953 248.849 44.2114 250.548 44.1275 250.778C44.0437 251.009 43.2889 252.539 42.4922 254.154C41.4858 256.188 40.9826 257.446 40.9197 258.137C40.8568 258.704 40.5423 259.836 40.2068 260.674C39.3682 262.75 38.7602 265.413 38.7602 267.048C38.7602 270.801 42.4502 273.464 47.0418 273.044C51.8431 272.583 53.7511 269.103 52.7237 262.645C52.535 261.471 52.3882 259.941 52.3882 259.249C52.3882 258.515 52.1157 256.963 51.7593 255.538C50.6271 251.24 50.648 249.604 51.8641 248.157C52.2624 247.675 52.6818 246.941 52.8076 246.522C53.143 245.264 53.0592 243.293 52.5769 241.742C52.1995 240.505 52.1576 240.002 52.2624 238.345C52.4931 235.137 53.6253 228.827 54.0655 228.344C54.8413 227.485 55.1768 226.457 55.3235 224.57C55.4284 223.082 55.6171 222.306 56.2041 220.901C57.3363 218.197 57.8395 215.723 57.8185 213.018L57.7766 210.733L59.5168 207.168C60.4603 205.198 61.6553 203.038 62.1376 202.346C62.6198 201.654 63.71 199.872 64.5696 198.384L66.1002 195.7L66.5824 198.488C67.1066 201.57 67.5259 207.588 67.3582 209.894C67.3162 210.691 67.1275 213.479 66.9598 216.079C66.6872 220.126 66.5614 221.111 66.0163 222.977C65.3244 225.388 65.2196 227.065 65.7018 228.428C66.5195 230.755 66.2679 233.9 65.0519 236.416C64.6535 237.255 64.339 238.094 64.339 238.324C64.339 238.534 64.1084 239.498 63.8358 240.442C63.5633 241.406 63.2697 242.727 63.1859 243.398C63.0391 244.551 63.0601 244.614 63.6681 245.18C64.6116 246.082 65.9534 246.375 68.8468 246.375C71.824 246.375 72.9562 246.082 73.9416 245.096C74.6544 244.384 74.6544 244.342 74.5286 243.168C74.2351 240.673 73.5223 238.178 72.4739 236.102C71.5095 234.131 71.4256 233.879 71.3208 231.951C71.195 230.064 71.2369 229.833 71.6772 229.015L72.1804 228.135L72.2014 219.014C72.2433 207.797 72.411 205.638 73.669 200.983C74.8641 196.601 74.948 195.951 74.6335 193.477C74.3819 191.528 74.3819 191.36 74.927 189.368C75.2205 188.215 75.535 187.146 75.6398 186.978C75.8285 186.663 75.8076 186.621 77.4849 189.557C77.9461 190.353 78.8687 191.968 79.5396 193.121C80.2315 194.274 81.0701 195.784 81.4056 196.476C82.2023 198.027 82.6845 198.153 82.6636 196.79C82.6426 195.427 82.2023 191.653 81.9717 190.752C81.8668 190.312 81.6991 188.676 81.6362 187.104L81.4894 184.231L82.1394 183.393C83.1667 182.093 85.1795 181.065 86.6891 181.065C87.0245 181.065 87.4858 180.94 87.6745 180.793C88.0519 180.52 87.989 180.248 86.6891 176.767C86.5004 176.243 86.4165 175.488 86.4794 174.776C86.5213 174.147 86.6681 171.987 86.7939 170.016C87.0036 166.494 87.0245 166.347 87.8422 164.565C88.2825 163.538 88.6599 162.615 88.6599 162.489C88.6599 162.364 88.8067 162.133 88.9744 161.986C89.5824 161.483 90.2114 162.049 91.1549 163.957C92.1822 165.949 92.6435 166.263 92.6435 164.9C92.6435 164.062 91.9306 157.017 91.679 155.403C91.5113 154.417 91.9097 154.543 92.35 155.612C92.5177 156.011 92.7483 156.325 92.8532 156.325C93.1467 156.325 93.1048 155.612 92.7693 154.124C92.4129 152.656 90.6307 142.865 90.442 141.334C90.3582 140.747 90.1066 139.51 89.8759 138.546C89.6453 137.581 89.4986 136.764 89.5405 136.701C89.6034 136.659 89.855 136.994 90.1066 137.456C90.3582 137.917 90.6936 138.294 90.8404 138.294C91.0501 138.294 90.9033 137.581 90.3162 135.778C89.8759 134.395 89.4566 132.78 89.3728 132.214C89.247 131.208 89.2679 131.145 90.0227 130.432L90.8194 129.719L89.9808 128.503C89.5195 127.832 88.4922 126.343 87.7164 125.19C85.8085 122.36 83.2925 119.173 80.9233 116.531C78.5332 113.869 78.3864 113.449 79.2251 111.604C80.1895 109.466 80.7346 107.474 80.5879 106.572C80.4621 105.838 79.4557 104.539 78.9945 104.539C78.7638 104.539 78.7429 103.763 78.9945 103.616C79.0783 103.553 79.2251 102.819 79.288 102.002C79.3509 101.163 79.5186 100.429 79.6234 100.366C79.917 100.178 80.2524 97.8922 80.0218 97.6616C79.8121 97.452 80.0218 96.781 80.2944 96.781C80.3992 96.781 80.4831 96.3198 80.4831 95.7537C80.4831 94.7473 80.4831 94.7263 81.2588 94.5796C82.9361 94.2651 83.8377 93.3635 83.8377 91.9588C83.8377 90.8476 82.978 87.3043 82.3071 85.6689C80.9862 82.3982 77.5897 78.142 75.5979 77.2195C73.9206 76.4437 69.1193 74.8922 66.3727 74.2423C64.3181 73.7601 63.9197 73.5923 64.0455 73.3198C65.1567 70.6151 65.1777 69.6716 64.2342 65.5413C63.5633 62.585 63.0601 61.5577 61.7602 60.3836C59.1184 58.0144 55.1977 58.0773 52.6398 60.5723C51.4657 61.7045 51.0254 62.585 50.2916 65.2058C49.9562 66.359 49.4949 67.7427 49.2643 68.2669C49.0336 68.791 48.824 69.42 48.824 69.6926C48.824 70.2168 48.2789 70.5103 46.8531 70.7619C46.0984 70.8877 45.9306 71.0344 45.092 72.4182C44.442 73.4875 44.0646 73.9278 43.7501 73.9278C43.5195 73.9278 42.3873 74.1165 41.2342 74.3471C39.3263 74.7455 39.0956 74.7455 38.7602 74.452C38.215 73.9697 37.7747 74.0746 37.5232 74.7664C37.4183 75.1019 37.2925 75.3954 37.2506 75.4164C37.2087 75.4164 36.0555 75.5003 34.6717 75.6051C33.0573 75.7309 31.7784 75.9406 31.1075 76.1921C30.2059 76.5486 30.0592 76.6953 29.9963 77.2405C29.9543 77.5969 30.0172 78.0791 30.143 78.2888C30.3108 78.6033 30.2479 78.792 29.8705 79.1484C29.6189 79.379 29.2415 79.5887 29.0528 79.5887C28.8641 79.5887 28.6964 79.7145 28.6964 79.8822C28.6964 80.2806 27.7529 80.8676 27.3545 80.7209C27.1448 80.637 27.0191 80.3435 27.0191 79.9241C27.0191 78.8968 26.5159 78.3307 25.5724 78.3307C24.6918 78.3307 24.3563 78.6033 24.1047 79.4839C23.9999 79.9241 23.7273 80.1548 22.9935 80.4273L22.0081 80.8047L21.7984 80.1338C21.6726 79.7774 19.0728 66.7993 16.0118 51.2842C9.99443 20.8412 9.80574 19.9816 7.18495 13.503C6.45113 11.637 5.78021 10.0645 5.69635 10.0016C5.63345 9.93872 5.63345 12.0354 5.71731 14.6981ZM78.1768 103.595C78.1768 103.993 78.0929 104.329 77.9671 104.329C77.8623 104.329 77.7574 103.993 77.7574 103.595C77.7574 103.197 77.8623 102.861 77.9671 102.861C78.0929 102.861 78.1768 103.197 78.1768 103.595ZM86.9616 147.31C87.1713 149.847 87.1503 150.287 86.5423 154.522C86.4375 155.34 86.2488 160.141 86.123 165.215C86.0182 170.289 85.8924 174.482 85.8295 174.524C85.6827 174.692 84.8021 172.616 84.0054 170.163C83.0619 167.312 82.5378 164.544 82.5378 162.364C82.5378 159.533 82.6216 159.24 83.1667 160.12C83.3345 160.372 83.5232 160.498 83.628 160.393C83.9635 160.057 84.4666 153.411 84.4666 149.574C84.4666 146.89 84.5295 145.842 84.7182 145.842C84.844 145.842 85.2843 145.465 85.6827 144.982C86.2488 144.312 86.4584 144.186 86.5842 144.416C86.6891 144.584 86.8568 145.884 86.9616 147.31ZM20.7921 147.226C20.5195 148.652 20.5405 148.861 20.834 149.322C21.1066 149.742 21.1275 150.098 20.9388 151.713C20.813 152.74 20.5824 153.893 20.4356 154.271C20.2679 154.648 19.9324 155.654 19.6809 156.514C19.4293 157.353 19.1777 158.003 19.1148 157.919C19.0519 157.856 18.8212 157.101 18.6325 156.262C18.2551 154.711 18.2551 154.69 18.7374 152.845C19.0099 151.817 19.5131 150.077 19.8486 148.987C20.205 147.897 20.5405 146.681 20.6243 146.303C20.7082 145.947 20.834 145.632 20.9388 145.632C21.0227 145.632 20.9598 146.345 20.7921 147.226ZM51.3819 198.3L51.1932 198.992L51.0254 198.405C50.9206 198.027 50.9625 197.713 51.1512 197.503C51.5077 197.063 51.6125 197.419 51.3819 198.3Z" fill="black"/>
    </g>
    <defs>
        <filter id="filter0_d" x="0" y="0" width="113.049" height="283.088" filterUnits="userSpaceOnUse" color-interpolation-filters="sRGB">
            <feFlood flood-opacity="0" result="BackgroundImageFix"/>
            <feColorMatrix in="SourceAlpha" type="matrix" values="0 0 0 0 0 0 0 0 0 0 0 0 0 0 0 0 0 0 127 0"/>
            <feOffset dx="10"/>
            <feGaussianBlur stdDeviation="5"/>
            <feColorMatrix type="matrix" values="0 0 0 0 0 0 0 0 0 0.588235 0 0 0 0 0.862745 0 0 0 1 0"/>
            <feBlend mode="normal" in2="BackgroundImageFix" result="effect1_dropShadow"/>
            <feBlend mode="normal" in="SourceGraphic" in2="effect1_dropShadow" result="shape"/>
        </filter>
    </defs>
</svg>
