<svg width="88" height="131" viewBox="0 0 88 131" fill="none" xmlns="http://www.w3.org/2000/svg">
    <g filter="url(#filter0_d)">
        <path d="M43.4644 0.133894C43.3961 0.231163 43.2792 0.291956 43.211 0.25548C43.1428 0.219004 42.9771 0.304115 42.8505 0.43786C42.714 0.559448 42.5387 0.668877 42.451 0.668877C42.373 0.668877 42.2561 0.778305 42.1976 0.91205C42.1391 1.0458 42.0027 1.15522 41.9053 1.15522C41.7981 1.15522 41.6324 1.26465 41.5447 1.3984C41.4473 1.53214 41.3011 1.64157 41.2134 1.64157C41.1257 1.64157 40.9796 1.751 40.8821 1.88475C40.7847 2.01849 40.6288 2.12792 40.5313 2.12792C40.4339 2.12792 40.3072 2.23735 40.2488 2.3711C40.1903 2.517 40.0441 2.61427 39.9077 2.61427C39.7713 2.61427 39.6251 2.71154 39.5667 2.85744C39.5082 2.99119 39.3815 3.10062 39.2743 3.10062C39.1672 3.10062 39.0405 3.21004 38.982 3.34379C38.9236 3.4897 38.7774 3.58697 38.6312 3.58697C38.4656 3.58697 38.3584 3.67208 38.3292 3.83014C38.2999 3.97604 38.1927 4.07331 38.0563 4.07331C37.9394 4.07331 37.7445 4.18274 37.6178 4.31649C37.4912 4.45023 37.3352 4.55966 37.2573 4.55966C37.1891 4.55966 37.1014 4.63261 37.0722 4.72988C37.0429 4.82715 36.887 4.94874 36.7214 4.98522C36.5655 5.03385 36.4095 5.14328 36.3803 5.24055C36.3511 5.33782 36.2731 5.41077 36.1952 5.41077C36.1172 5.41077 35.9711 5.5202 35.8639 5.65394C35.7567 5.78769 35.5618 5.92144 35.4156 5.97007C35.2792 6.01871 35.1428 6.11598 35.1136 6.21325C35.0941 6.29836 34.9382 6.40778 34.7823 6.44426C34.6264 6.4929 34.4997 6.57801 34.4997 6.6388C34.4997 6.71175 34.3438 6.8455 34.1586 6.94277C33.9735 7.04004 33.8176 7.16162 33.8176 7.21026C33.8176 7.25889 33.7007 7.36832 33.5545 7.45343C33.3986 7.52639 33.1063 7.73308 32.8919 7.90331C32.6775 8.06137 32.3852 8.25591 32.239 8.34102C32.0831 8.41397 31.9662 8.5234 31.9662 8.58419C31.9662 8.64499 31.82 8.76657 31.6349 8.86384C31.4595 8.96111 31.2743 9.09486 31.2451 9.16781C31.2061 9.24076 31.0892 9.30156 30.982 9.30156C30.8846 9.30156 30.7482 9.41098 30.68 9.54473C30.6117 9.67848 30.4851 9.7879 30.3974 9.7879C30.3097 9.7879 30.1635 9.89733 30.0661 10.0311C29.9686 10.1648 29.8127 10.2743 29.7153 10.2743C29.6081 10.2743 29.4814 10.3837 29.4132 10.5174C29.345 10.6512 29.1988 10.7606 29.0916 10.7606C28.9845 10.7606 28.8383 10.87 28.7701 11.0038C28.7019 11.1375 28.5752 11.2469 28.468 11.2469C28.3706 11.2469 28.2147 11.3564 28.1172 11.4901C28.0198 11.6239 27.8639 11.7333 27.7664 11.7333C27.669 11.7333 27.5423 11.8427 27.4839 11.9765C27.4254 12.1102 27.2792 12.2196 27.1428 12.2196C26.9966 12.2196 26.8895 12.3048 26.8505 12.4628C26.8212 12.5966 26.7043 12.706 26.5971 12.706C26.4997 12.706 26.3243 12.8154 26.2171 12.9492C26.1099 13.0829 25.9443 13.1923 25.8468 13.1923C25.7591 13.1923 25.6227 13.3018 25.5545 13.4355C25.4863 13.5814 25.3304 13.6787 25.1842 13.6787C25.0088 13.6787 24.9406 13.7273 24.9796 13.8489C25.0186 13.9705 24.9309 14.0435 24.6873 14.1042C24.4437 14.1529 24.3657 14.2258 24.4047 14.3596C24.4437 14.4812 24.3852 14.5298 24.1903 14.5298C24.0441 14.5298 23.859 14.5906 23.7811 14.6514C23.6544 14.7487 23.6641 14.7851 23.8298 14.9432C23.937 15.0526 24.0831 15.1377 24.1611 15.1377C24.239 15.1377 24.278 15.1621 24.2488 15.1985C24.2195 15.235 23.9954 15.1985 23.7421 15.1134C23.3913 15.004 23.2646 15.004 23.1769 15.1134C23.0892 15.2228 23.099 15.2958 23.2549 15.4539C23.4303 15.6241 23.4205 15.6362 23.0892 15.5633C22.7384 15.5025 22.4169 15.5754 22.4169 15.7335C22.4169 15.77 22.5533 15.8794 22.7189 15.9767C23.1087 16.1834 23.0307 16.2563 22.5825 16.0983C22.2122 15.9767 21.8322 16.0375 21.8322 16.232C21.8322 16.2807 21.9199 16.3536 22.0271 16.3901C22.1343 16.4266 22.222 16.5238 22.222 16.5968C22.222 16.694 22.1635 16.7062 22.0563 16.6576C21.7153 16.4752 21.4522 16.4509 21.2768 16.5846C21.1111 16.7062 21.1111 16.7184 21.3255 16.7913C21.6763 16.9129 21.5789 17.1196 21.2086 17.0345C20.8675 16.9494 20.5655 17.0345 20.5655 17.2169C20.5655 17.2777 20.6434 17.3263 20.7506 17.3263C20.848 17.3263 20.9845 17.4114 21.0527 17.5087C21.1988 17.7275 21.1306 17.7275 20.6337 17.5573C20.2439 17.4236 19.8444 17.5087 19.9321 17.7032C19.9711 17.764 20.0685 17.8126 20.1757 17.8126C20.2731 17.8126 20.3706 17.8978 20.4096 17.995C20.468 18.2139 20.429 18.2139 19.9808 18.0558C19.6203 17.9221 19.2597 17.995 19.3474 18.1896C19.3864 18.2504 19.4936 18.299 19.6008 18.299C19.6982 18.299 19.7859 18.3841 19.7859 18.4814C19.7859 18.7002 19.8152 18.6881 19.3962 18.5422C19.0356 18.4084 18.6751 18.4814 18.7628 18.6759C18.8018 18.7367 18.9382 18.7853 19.0843 18.7853C19.3085 18.7853 19.3279 18.8097 19.1915 18.9677C19.0843 19.1136 18.9772 19.1258 18.6848 19.0164C18.4705 18.9434 18.2658 18.9434 18.1684 19.0042C18.0417 19.0893 18.0709 19.1258 18.3146 19.1866C18.4899 19.2352 18.6166 19.3446 18.6166 19.4541C18.6166 19.6972 18.7336 19.6851 19.0356 19.3933C19.172 19.2595 19.3085 19.1501 19.3377 19.1501C19.3767 19.1501 19.7177 18.9069 20.1075 18.6273C20.4875 18.3355 21.1404 17.8491 21.5399 17.5573C21.9394 17.2655 22.3584 16.9615 22.4656 16.8764C22.5728 16.8035 22.7969 16.6454 22.9528 16.536C23.4303 16.2199 23.8005 15.9402 24.2683 15.5633C24.7262 15.1985 25.0868 14.931 25.5837 14.6028C25.7494 14.4933 26.0515 14.2745 26.2658 14.1042C26.4802 13.934 26.7433 13.7516 26.8505 13.6908C26.9674 13.6301 27.1136 13.4963 27.1818 13.3869C27.25 13.2775 27.3864 13.1923 27.4839 13.1923C27.5813 13.1923 27.708 13.1072 27.7762 12.9978C27.8541 12.9005 28.0393 12.7303 28.2049 12.633C28.6434 12.3777 28.9163 12.1589 29.1209 11.94C29.2183 11.8184 29.3742 11.7333 29.4522 11.7333C29.5399 11.7333 29.6568 11.6482 29.725 11.5388C29.803 11.4415 29.9881 11.2713 30.1538 11.174C30.5923 10.9187 30.8651 10.6998 31.0697 10.481C31.1672 10.3594 31.3036 10.2743 31.3718 10.2743C31.44 10.2743 31.6057 10.1648 31.7421 10.0311C31.8785 9.89733 32.0441 9.7879 32.1124 9.7879C32.1806 9.7879 32.2975 9.70279 32.3657 9.59336C32.4339 9.48394 32.5801 9.35019 32.697 9.2894C32.8042 9.2286 33.0673 9.04622 33.2817 8.876C33.496 8.70578 33.7786 8.49908 33.915 8.41397C34.0514 8.32886 34.4022 8.07353 34.6946 7.84251C34.9869 7.6115 35.3474 7.33185 35.4838 7.23458C35.6203 7.13731 36.088 6.77255 36.5362 6.44426C38.4266 5.00953 38.8846 4.68125 38.9723 4.68125C39.021 4.68125 39.1087 4.59614 39.1769 4.48671C39.2549 4.38944 39.44 4.21922 39.6056 4.12195C39.7713 4.03684 40.0831 3.81798 40.2975 3.64776C40.5119 3.47754 40.7847 3.29516 40.9016 3.2222C41.0088 3.16141 41.1355 3.05198 41.1745 2.97903C41.2037 2.91824 41.3791 2.77233 41.5447 2.67506C41.7201 2.57779 41.993 2.38325 42.1489 2.24951C42.8017 1.71453 42.8115 1.71453 42.7335 2.00633C42.5776 2.61427 42.9089 3.46538 43.4351 3.80582C43.8346 4.07331 44.4875 3.9882 44.8383 3.62344C45.1891 3.24652 45.4522 2.57779 45.3645 2.24951C45.2768 1.92122 45.4717 1.84827 45.7737 2.09144C46.1927 2.44405 46.4168 2.60211 46.6312 2.7237C46.7482 2.78449 46.8943 2.91824 46.9625 3.02766C47.0307 3.13709 47.1769 3.2222 47.2743 3.2222C47.3815 3.2222 47.4595 3.27084 47.4595 3.33163C47.4595 3.39243 47.6056 3.52617 47.7908 3.6356C47.9662 3.73287 48.1708 3.90309 48.239 4.01252C48.3072 4.10979 48.4339 4.1949 48.5313 4.1949C48.619 4.1949 48.7749 4.30433 48.8724 4.43807C48.9698 4.57182 49.1257 4.68125 49.2134 4.68125C49.3011 4.68125 49.457 4.79068 49.5545 4.92442C49.6519 5.05817 49.7786 5.1676 49.8468 5.1676C49.915 5.1676 50.0417 5.27703 50.1391 5.41077C50.2366 5.54452 50.3827 5.65394 50.451 5.65394C50.5289 5.65394 50.7043 5.76337 50.8407 5.89712C50.9771 6.03086 51.1525 6.14029 51.2207 6.14029C51.2987 6.14029 51.3572 6.18893 51.3572 6.24972C51.3572 6.31052 51.5033 6.44426 51.6885 6.55369C51.8639 6.65096 52.0685 6.82118 52.1367 6.93061C52.2049 7.02788 52.3218 7.11299 52.3998 7.11299C52.4777 7.11299 52.6531 7.22242 52.7896 7.35616C52.926 7.48991 53.1014 7.59934 53.1696 7.59934C53.2475 7.59934 53.306 7.64797 53.306 7.70877C53.306 7.76956 53.4522 7.90331 53.6276 8.02489C53.7932 8.13432 54.1148 8.35318 54.3291 8.5234C54.5435 8.68146 54.8261 8.86384 54.9625 8.9368C55.0892 9.00975 55.2256 9.11918 55.2548 9.16781C55.2841 9.21644 55.5569 9.44746 55.8687 9.67848C56.1805 9.90949 56.5801 10.2013 56.7652 10.335C56.9503 10.4688 57.457 10.8457 57.9053 11.1862C58.3535 11.5144 58.7822 11.8306 58.8602 11.8914C58.9382 11.94 59.1818 12.1102 59.3961 12.2804C59.6105 12.4507 59.8931 12.6574 60.0295 12.7425C60.1659 12.8154 60.3121 12.9492 60.3511 13.0343C60.39 13.1194 60.4777 13.1923 60.546 13.1923C60.6142 13.1923 60.9357 13.4112 61.2768 13.6787C61.6081 13.9462 61.9199 14.165 61.9686 14.165C62.0076 14.165 62.1245 14.2745 62.222 14.4082C62.3194 14.542 62.4656 14.6514 62.5338 14.6514C62.6117 14.6514 62.7871 14.7608 62.9235 14.8946C63.06 15.0283 63.2256 15.1377 63.2938 15.1377C63.3523 15.1377 63.4887 15.2472 63.5861 15.3809C63.6836 15.5147 63.82 15.6241 63.8785 15.6241C63.9467 15.6241 64.0539 15.7092 64.1221 15.8065C64.1903 15.9037 64.317 15.9888 64.4144 15.9888C64.5021 15.9888 64.658 16.0983 64.7554 16.232C64.8529 16.3658 64.9893 16.4752 65.0478 16.4752C65.116 16.4752 65.2816 16.5846 65.4181 16.7184C65.5545 16.8521 65.7299 16.9615 65.8176 16.9615C65.9053 16.9615 65.9735 17.0102 65.9735 17.071C65.9735 17.1318 66.1196 17.2655 66.3048 17.3749C66.4802 17.4722 66.6848 17.6424 66.753 17.7519C66.8212 17.8491 66.9479 17.9342 67.0453 17.9342C67.133 17.9342 67.2889 18.0437 67.3864 18.1774C67.4838 18.3112 67.6397 18.4206 67.7274 18.4206C67.8249 18.4206 67.9613 18.5057 68.0295 18.6151C68.0977 18.7246 68.2439 18.8583 68.3608 18.9191C68.468 18.9799 68.7311 19.1623 68.9455 19.3325C69.3255 19.6243 70.0758 20.1228 70.1343 20.1228C70.1537 20.1228 70.1245 20.0255 70.0758 19.9039C70.0271 19.7945 69.9101 19.4906 69.8224 19.2231C69.7153 18.9191 69.6276 18.7975 69.5593 18.8826C69.4911 18.9677 69.5009 19.0893 69.5788 19.2595C69.6373 19.4054 69.6665 19.5878 69.647 19.6729C69.6276 19.758 69.4814 19.4784 69.3255 19.065C69.1696 18.6394 69.0137 18.299 68.9747 18.299C68.926 18.299 68.8967 18.4692 68.8967 18.6881C68.8967 19.0528 68.887 19.065 68.7506 18.834C68.6726 18.7124 68.6044 18.4935 68.6044 18.3476C68.6044 18.2139 68.5167 17.995 68.4095 17.8734C68.2049 17.6424 68.2049 17.6424 68.2731 18.1896C68.3316 18.6881 68.3218 18.7124 68.1757 18.4814C68.0977 18.3476 68.0198 18.1653 68.0198 18.0801C68.0198 17.995 67.9515 17.7519 67.8638 17.5452C67.7469 17.2655 67.6787 17.2169 67.6008 17.3141C67.5131 17.4236 67.5228 17.5087 67.6105 17.6911C67.7762 18.0193 67.7567 18.226 67.5813 18.0072C67.5033 17.9099 67.4351 17.7519 67.4351 17.6424C67.4351 17.5452 67.3961 17.4236 67.3377 17.3871C67.2889 17.3506 67.2402 17.2047 67.2402 17.071C67.2402 16.9494 67.172 16.84 67.0941 16.84C66.9966 16.84 66.9479 16.9615 66.9479 17.1682V17.5087L66.8017 17.1561C66.7238 16.9737 66.6556 16.7427 66.6556 16.6454C66.6556 16.5603 66.5679 16.4266 66.4509 16.3536C66.2658 16.2199 66.2561 16.2442 66.3243 16.6819C66.3827 17.1196 66.373 17.1318 66.2268 16.9007C66.1489 16.767 66.0709 16.5725 66.0709 16.463C66.0709 16.3536 65.9832 16.1347 65.8858 15.9767C65.7104 15.7092 65.6909 15.7092 65.6324 15.9037C65.5934 16.0132 65.6129 16.1955 65.6811 16.2928C65.7396 16.3901 65.7786 16.5238 65.7591 16.6089C65.7201 16.7427 65.6714 16.6089 65.3498 15.7092C65.1842 15.2228 65.0088 15.1985 64.9893 15.6606C64.9893 15.8794 64.9698 15.8673 64.8821 15.5633C64.7457 15.0891 64.619 14.8946 64.4436 14.8946C64.3462 14.8946 64.317 14.9797 64.3657 15.1621C64.3949 15.3201 64.3364 15.2472 64.2293 15.004C63.9857 14.4447 63.7226 14.165 63.6544 14.3839C63.6251 14.4933 63.5472 14.4082 63.4205 14.165C63.2743 13.8489 63.2159 13.8003 63.0989 13.9219C62.982 14.0435 62.9333 14.007 62.8358 13.7395C62.7481 13.4963 62.6702 13.4355 62.5045 13.4842C62.3389 13.5449 62.2707 13.4963 62.222 13.3018C62.183 13.168 62.0173 12.9735 61.8419 12.8884C61.6665 12.7911 61.4716 12.633 61.4034 12.5358C61.3352 12.4385 61.2183 12.3899 61.1501 12.4142C61.0819 12.4507 60.9455 12.3412 60.848 12.171C60.7311 11.94 60.6531 11.8792 60.5654 11.9765C60.4777 12.0737 60.3998 12.0251 60.2829 11.7941C60.1952 11.6239 60.049 11.4901 59.9516 11.4901C59.8639 11.4901 59.7274 11.3807 59.6592 11.2469C59.591 11.1132 59.4449 11.0038 59.3377 11.0038C59.2207 11.0038 59.0453 10.87 58.9479 10.6998C58.8407 10.5417 58.6945 10.4323 58.6166 10.4688C58.5484 10.5053 58.4217 10.4202 58.3535 10.2864C58.2853 10.1405 58.1489 10.0311 58.0514 10.0311C57.9637 10.0311 57.8078 9.92165 57.7201 9.7879C57.6227 9.65416 57.4765 9.54473 57.3888 9.54473C57.3011 9.54473 57.155 9.4353 57.0575 9.30156C56.9601 9.16781 56.8042 9.05838 56.7067 9.05838C56.5995 9.05838 56.4729 8.94895 56.4047 8.81521C56.3365 8.68146 56.1903 8.57203 56.0831 8.57203C55.9759 8.57203 55.8298 8.46261 55.7615 8.32886C55.6933 8.19511 55.5667 8.08569 55.4692 8.08569C55.3718 8.08569 55.2256 7.97626 55.1282 7.84251C55.0405 7.70877 54.8846 7.59934 54.7969 7.59934C54.6994 7.59934 54.563 7.48991 54.4948 7.35616C54.4266 7.22242 54.2999 7.11299 54.1927 7.11299C54.0953 7.11299 53.9394 7.00356 53.8419 6.86982C53.7445 6.73607 53.5886 6.62664 53.4814 6.62664C53.384 6.62664 53.306 6.56585 53.306 6.4929C53.306 6.4321 53.1598 6.29836 52.9844 6.20109C52.7993 6.10382 52.6044 5.94575 52.5265 5.84848C52.4583 5.73906 52.3316 5.65394 52.2341 5.65394C52.1464 5.65394 51.9905 5.54452 51.8931 5.41077C51.7957 5.27703 51.6397 5.1676 51.5326 5.1676C51.4351 5.1676 51.3572 5.11896 51.3572 5.04601C51.3572 4.98522 51.1915 4.81499 50.9966 4.69341C50.792 4.55966 50.5192 4.37728 50.3827 4.29217C50.2463 4.20706 50.0514 4.03684 49.9443 3.91525C49.8468 3.80582 49.7104 3.72071 49.6519 3.75719C49.5935 3.7815 49.4863 3.69639 49.4278 3.57481C49.3596 3.45322 49.2232 3.34379 49.116 3.34379C48.9991 3.34379 48.8919 3.25868 48.8626 3.16141C48.8334 3.06414 48.7165 2.95471 48.5996 2.90608C48.4826 2.85744 48.2585 2.71154 48.0929 2.57779C47.9369 2.44405 47.6836 2.22519 47.5374 2.1036C47.3913 1.98202 47.2159 1.88475 47.1379 1.88475C47.06 1.88475 46.9235 1.77532 46.8261 1.64157C46.7287 1.50783 46.602 1.3984 46.5338 1.3984C46.4656 1.3984 46.3389 1.28897 46.2415 1.15522C46.144 1.02148 45.9881 0.91205 45.9004 0.91205C45.8127 0.91205 45.6568 0.802622 45.5594 0.668877C45.4619 0.535131 45.3255 0.425703 45.2475 0.425703C45.1793 0.425703 45.0137 0.352751 44.8968 0.25548C44.546 -0.0120106 43.6105 -0.0971222 43.4644 0.133894ZM44.6337 1.13091C45.1014 1.53214 44.9065 2.3711 44.3121 2.517C44.01 2.58995 43.6885 2.27382 43.6008 1.81179C43.5521 1.59294 43.6008 1.42272 43.7664 1.20386C44.0295 0.863415 44.2926 0.839098 44.6337 1.13091ZM63.8005 15.1621C63.7713 15.2593 63.7421 15.2228 63.7421 15.0891C63.7323 14.9554 63.7615 14.8824 63.7908 14.931C63.82 14.9675 63.8298 15.0769 63.8005 15.1621Z" fill="black"/>
        <path d="M70.1923 19.7336C70.2118 20.2322 70.2508 20.3659 70.3775 20.3659C70.4652 20.3659 70.5529 20.4388 70.5821 20.5118C70.6016 20.5969 70.6601 20.6334 70.699 20.5726C70.7478 20.524 70.7283 20.4145 70.6698 20.3416C70.6016 20.2565 70.5529 20.1227 70.5529 20.0376C70.5529 19.9525 70.4652 19.7093 70.3677 19.5026L70.1729 19.1136L70.1923 19.7336Z" fill="black"/>
        <path d="M17.5539 19.5024C17.4565 19.5754 17.5052 19.6362 17.7293 19.697C17.9729 19.7578 18.0217 19.8186 17.934 19.9402C17.856 20.0496 17.7293 20.0617 17.476 19.9888C17.2714 19.9402 17.0472 19.9402 16.9693 20.001C16.8426 20.0982 16.8524 20.1104 17.0277 20.1225C17.1447 20.1225 17.3103 20.159 17.3883 20.1955C17.5344 20.2684 17.5344 20.2928 17.3785 20.4387C17.2226 20.5724 17.2226 20.5967 17.359 20.6089C17.4467 20.6089 17.5929 20.4995 17.6904 20.3657C17.7878 20.232 17.934 20.1225 18.0217 20.1225C18.1094 20.1225 18.2653 20.0374 18.3724 19.928C18.5381 19.7699 18.5478 19.7335 18.4212 19.6362C18.3432 19.5754 18.197 19.5146 18.1094 19.5146C18.0217 19.5146 17.895 19.4903 17.817 19.4538C17.7488 19.4173 17.6319 19.4416 17.5539 19.5024Z" fill="black"/>
        <path d="M70.8647 20.2807C70.8647 20.609 70.9232 20.7427 71.1571 20.9129L71.4494 21.1196L71.3032 20.84C71.2253 20.6819 71.1376 20.4023 71.0986 20.2077C71.0109 19.7457 70.8647 19.7943 70.8647 20.2807Z" fill="black"/>
        <path d="M71.5663 20.8035C71.6247 21.1805 71.8976 21.6547 71.9853 21.5331C72.034 21.4723 71.7709 20.8522 71.7027 20.8522C71.6637 20.8522 71.654 20.7792 71.6832 20.682C71.7124 20.5847 71.6832 20.4753 71.615 20.4266C71.5273 20.3537 71.5176 20.4509 71.5663 20.8035Z" fill="black"/>
        <path d="M16.4727 20.5726C16.9502 20.6699 17.0087 20.7185 16.804 20.9131C16.7066 21.0103 16.6676 21.0955 16.7261 21.0955C16.8722 21.0955 17.1743 20.6699 17.0866 20.5726C17.0574 20.524 16.843 20.4997 16.6286 20.4997C16.3753 20.5118 16.3168 20.5362 16.4727 20.5726Z" fill="black"/>
        <path d="M72.1215 20.9253C72.1215 21.0591 72.1508 21.0955 72.18 20.9983C72.2092 20.9132 72.1995 20.8037 72.1703 20.7673C72.141 20.7186 72.1118 20.7916 72.1215 20.9253Z" fill="black"/>
        <path d="M15.9365 21.0588C16.1022 21.0953 16.2873 21.1682 16.3555 21.2412C16.4432 21.3385 16.4724 21.3142 16.4724 21.1682C16.4724 21.0223 16.3847 20.9737 16.0632 20.9859C15.7221 21.0102 15.7027 21.0223 15.9365 21.0588Z" fill="black"/>
        <path d="M72.2874 21.4359C72.2484 21.5818 72.3069 21.752 72.4238 21.8736C72.609 22.0803 72.609 22.0681 72.5505 21.8006C72.4141 21.2778 72.3361 21.1684 72.2874 21.4359Z" fill="black"/>
        <path d="M16.151 21.4237C16.112 21.4602 15.8489 21.4967 15.5761 21.4967C15.0889 21.4845 15.0791 21.4845 15.4299 21.5818C15.8392 21.6791 16.2777 21.6061 16.2777 21.4481C16.2777 21.3143 16.2387 21.3143 16.151 21.4237Z" fill="black"/>
        <path d="M72.9014 21.8372C72.9014 22.0196 72.9598 22.2263 73.0378 22.3114C73.1937 22.4695 73.2424 22.3114 73.0963 22.1169C73.0475 22.0561 72.9891 21.898 72.9598 21.7643C72.9209 21.5697 72.9111 21.594 72.9014 21.8372Z" fill="black"/>
        <path d="M73.4956 22.0681C73.4956 22.2383 73.5151 22.2991 73.5443 22.214C73.5638 22.141 73.5638 21.9951 73.5443 21.91C73.5151 21.8371 73.4956 21.8979 73.4956 22.0681Z" fill="black"/>
        <path d="M14.5531 22.0196C14.5823 22.0561 14.8064 22.0925 15.0598 22.0925C15.3131 22.0925 15.5372 22.0561 15.5762 22.0196C15.6054 21.9831 15.3716 21.9466 15.0598 21.9466C14.748 21.9466 14.5141 21.9831 14.5531 22.0196Z" fill="black"/>
        <path d="M74.0708 22.3843C74.0708 22.518 74.1 22.5545 74.1292 22.4573C74.1585 22.3721 74.1487 22.2627 74.1195 22.2262C74.0902 22.1776 74.061 22.2506 74.0708 22.3843Z" fill="black"/>
        <path d="M13.8418 22.4816C13.8418 22.5059 13.9977 22.5545 14.1828 22.5788C14.368 22.6032 14.5239 22.5788 14.5239 22.5302C14.5239 22.4816 14.368 22.4329 14.1828 22.4329C13.9977 22.4329 13.8418 22.4573 13.8418 22.4816Z" fill="black"/>
        <path d="M73.5737 22.676C73.5737 22.7368 73.6225 22.7976 73.6712 22.7976C73.7296 22.7976 73.7686 22.7368 73.7686 22.676C73.7686 22.6031 73.7296 22.5544 73.6712 22.5544C73.6225 22.5544 73.5737 22.6031 73.5737 22.676Z" fill="black"/>
        <path d="M74.2656 22.9922C74.2656 23.126 74.2948 23.1624 74.324 23.0652C74.3533 22.9801 74.3435 22.8706 74.3143 22.8341C74.2851 22.7855 74.2558 22.8585 74.2656 22.9922Z" fill="black"/>
        <path d="M13.4813 23.0042C13.6274 23.0285 13.8613 23.0285 14.0172 23.0042C14.1634 22.9799 14.0367 22.9556 13.7444 22.9556C13.452 22.9556 13.3254 22.9799 13.4813 23.0042Z" fill="black"/>
        <path d="M74.8599 23.4057C74.8599 23.576 74.8793 23.6368 74.9086 23.5516C74.9281 23.4787 74.9281 23.3328 74.9086 23.2477C74.8793 23.1747 74.8599 23.2355 74.8599 23.4057Z" fill="black"/>
        <path d="M12.8476 23.4905C12.9645 23.5149 13.1594 23.5149 13.2861 23.4905C13.403 23.4662 13.3056 23.4419 13.062 23.4419C12.8184 23.4419 12.7209 23.4662 12.8476 23.4905Z" fill="black"/>
        <path d="M75.4443 23.6489C75.4443 23.8191 75.4638 23.8799 75.493 23.7948C75.5125 23.7219 75.5125 23.576 75.493 23.4908C75.4638 23.4179 75.4443 23.4787 75.4443 23.6489Z" fill="black"/>
        <path d="M6.11431 23.8434C6.07534 23.892 6.0461 24.2203 6.0461 24.5729V25.2173L5.31529 25.8009C4.91578 26.1292 4.58447 26.421 4.58447 26.4697C4.58447 26.6156 6.26048 26.6399 6.79641 26.494C7.22515 26.3846 7.31285 26.3846 7.36157 26.5426C7.40055 26.6885 7.5662 26.7128 8.23855 26.6521C8.9986 26.6034 9.08629 26.6156 9.21297 26.8466C9.29092 26.9803 9.38836 27.0533 9.42734 27.0047C9.47606 26.9439 9.44683 26.8709 9.38836 26.8466C9.23246 26.7736 9.22271 26.5062 9.37862 26.2143C9.46632 26.0441 9.45657 25.9347 9.3299 25.7037C9.23246 25.5456 9.16425 25.4848 9.16425 25.5699C9.16425 25.6672 8.9109 25.7158 8.28727 25.7158H7.42003L7.3908 24.7675L7.36157 23.8312L6.77692 23.7948C6.44561 23.7705 6.15329 23.7948 6.11431 23.8434Z" fill="#58BF00"/>
        <path d="M76.0195 23.9649C76.0195 24.0986 76.0487 24.1351 76.0779 24.0378C76.1072 23.9527 76.0974 23.8433 76.0682 23.8068C76.039 23.7582 76.0097 23.8311 76.0195 23.9649Z" fill="black"/>
        <path d="M80.6576 23.8433C80.6186 23.892 80.5894 24.3297 80.5894 24.8282V25.7158H79.6344C79.1083 25.7158 78.6503 25.7523 78.6113 25.7887C78.5626 25.8495 78.6893 26.3602 78.8062 26.5547C78.8744 26.6763 80.5114 26.7006 80.6283 26.579C80.6966 26.5061 80.8232 26.4696 80.8914 26.4939C80.9694 26.5304 81.2033 26.5912 81.4176 26.6155C81.632 26.652 81.9828 26.725 82.1972 26.7979C82.7234 26.9438 83.9998 27.0532 83.9998 26.956C83.9998 26.8709 83.1911 26.1657 82.3726 25.5456C81.9731 25.2416 81.9633 25.2173 81.9341 24.5364L81.9048 23.8312L81.3202 23.7947C80.9889 23.7704 80.6966 23.7947 80.6576 23.8433Z" fill="#58BF00"/>
        <path d="M12.2142 23.9771C12.3603 24.0014 12.5942 24.0014 12.7501 23.9771C12.8963 23.9528 12.7696 23.9285 12.4773 23.9285C12.1849 23.9285 12.0583 23.9528 12.2142 23.9771Z" fill="black"/>
        <path d="M11.6295 24.4632C11.7757 24.4875 11.99 24.4875 12.1167 24.4632C12.2336 24.4389 12.1167 24.4146 11.8439 24.4146C11.5808 24.4146 11.4736 24.4389 11.6295 24.4632Z" fill="black"/>
        <path d="M76.2143 24.5728C76.2143 24.7065 76.2435 24.743 76.2728 24.6457C76.302 24.5606 76.2923 24.4512 76.263 24.4147C76.2338 24.3661 76.2046 24.439 76.2143 24.5728Z" fill="black"/>
        <path d="M76.7699 24.8768C76.7017 25.1321 74.7333 25.1929 67.2205 25.2051C63.7029 25.2051 60.7699 25.2415 60.7211 25.2902C60.6627 25.3267 60.614 25.4726 60.614 25.6063C60.614 25.8373 60.5068 25.8373 56.3363 25.8373H52.0585L52.0001 25.4969L51.9416 25.1686L43.8734 25.1929L35.8149 25.2051L35.7272 25.5212L35.6298 25.8373H31.4106H27.1816L27.0841 25.4969L26.9964 25.1686H19.396C13.452 25.1686 11.776 25.1321 11.6785 25.0105C11.6201 24.9376 11.3862 24.8768 11.1718 24.8768C10.9282 24.8889 10.86 24.9254 10.9964 24.9497C11.3765 25.047 11.1718 25.2902 10.6651 25.3631C10.402 25.3996 10.2851 25.4482 10.4118 25.4482C10.7041 25.4847 10.6846 25.6914 10.3728 25.7887C10.0805 25.886 10.0902 26.2142 10.402 26.3845C10.8016 26.6033 10.8016 27.7341 10.3923 27.807C10.1292 27.8557 10.1584 28.0624 10.4508 28.1475L10.6749 28.2204L10.6944 75.0801C10.7139 100.857 10.7236 122.073 10.7236 122.219C10.7236 122.377 10.7821 122.499 10.8503 122.499C10.9185 122.499 13.0038 121.235 15.4983 119.69C17.9928 118.146 20.5165 116.59 21.1012 116.237C21.6956 115.885 23.4008 114.839 24.9014 113.927C28.6042 111.653 31.6834 109.781 33.6712 108.577C34.5872 108.03 37.2473 106.389 39.586 104.954L43.8442 102.328L48.4045 105.136C50.9087 106.681 54.4361 108.833 56.2291 109.915C58.022 111.009 60.6822 112.614 62.1243 113.502C63.5762 114.389 65.4568 115.532 66.3143 116.055C67.1718 116.566 69.8807 118.231 72.3265 119.751C74.7723 121.259 76.8186 122.499 76.877 122.499C76.9355 122.499 76.9842 122.353 76.9842 122.159C76.9842 121.976 76.994 100.759 77.0135 75.0193L77.033 28.2083L77.4325 28.2204C77.7443 28.2204 77.8417 28.1718 77.9197 27.9651C78.0171 27.7098 78.0074 27.6976 77.6079 27.7584C77.2278 27.807 77.1791 27.7827 77.0719 27.4909C76.9842 27.2599 76.9745 27.0654 77.0427 26.8343C77.1304 26.5547 77.1889 26.5061 77.4909 26.5304C77.7443 26.5547 77.8515 26.5061 77.8904 26.348C77.9197 26.2386 77.9684 26.0562 78.0074 25.9346C78.0463 25.8008 78.0171 25.7279 77.9197 25.6914C77.7833 25.6549 77.7833 25.6185 77.9099 25.3023C78.0853 24.8889 78.0853 24.8646 77.9587 24.8646C77.9002 24.8646 77.8125 24.9984 77.7638 25.1686C77.6566 25.5212 77.5007 25.5698 77.4422 25.2537C77.4227 25.1443 77.4032 25.1808 77.413 25.351C77.4227 25.582 77.3643 25.6671 77.2084 25.6914C77.0427 25.7279 77.0037 25.6793 77.0427 25.5577C77.0719 25.4482 77.033 25.2172 76.955 25.0349C76.8576 24.8038 76.7991 24.7552 76.7699 24.8768ZM35.6201 26.3358C35.659 26.4696 35.6688 26.9194 35.659 27.3328C35.6396 27.7462 35.659 28.1596 35.7078 28.2448C35.7467 28.3299 35.7565 28.5366 35.7272 28.7068L35.6688 28.9986H31.3911H27.1134L27.1036 27.7706C27.1036 27.0897 27.1426 26.4331 27.2011 26.3115C27.2888 26.0927 27.4836 26.0805 31.4301 26.0805C35.5129 26.0805 35.5616 26.0805 35.6201 26.3358ZM60.5652 26.4209C60.5945 26.6155 60.614 27.114 60.6042 27.5517C60.5945 27.9773 60.5945 28.3785 60.614 28.4514C60.6237 28.5122 60.6334 28.6703 60.6237 28.7797C60.614 28.9864 60.3411 28.9986 56.3363 28.9986C52.5165 28.9986 52.0488 28.9743 52.0001 28.8041C51.9708 28.6946 51.9708 28.5609 52.0001 28.4879C52.0391 28.415 52.0585 27.9408 52.0488 27.4301C52.0391 26.9073 52.0585 26.3966 52.0975 26.2872C52.156 26.0927 52.5165 26.0805 56.3265 26.0805H60.497L60.5652 26.4209ZM13.0135 70.6422C13.0135 94.5583 12.9745 109.1 12.9161 109.793L12.8186 110.887L12.7601 109.55C12.6725 107.775 12.653 35.9534 12.7407 33.8134C12.7894 32.5246 12.8284 32.1842 12.9063 32.3666C12.9843 32.5246 13.0135 43.3823 13.0135 70.6422ZM75.0257 40.4278C75.1036 49.5225 75.0646 106.304 74.9769 107.787C74.938 108.419 74.9185 109.064 74.9282 109.21C74.938 109.355 74.9087 109.574 74.86 109.684C74.8015 109.805 74.7528 109.234 74.7138 108.018C74.6261 105.562 74.6261 36.3181 74.7138 34.2876C74.8405 31.1628 74.9574 33.4487 75.0257 40.4278ZM43.3667 33.011C43.3667 33.0718 43.4349 33.1325 43.5129 33.1325C43.5908 33.1325 43.659 33.0718 43.659 32.9866C43.659 32.9137 43.7272 32.938 43.8344 33.0474C44.0585 33.3028 44.1852 33.3028 44.3314 33.0839C44.4288 32.938 44.4873 32.9623 44.6919 33.2177C44.916 33.4973 44.955 33.5095 45.1012 33.3271C45.2571 33.1569 45.2863 33.169 45.3935 33.3757C45.4909 33.5824 45.5494 33.5946 45.754 33.473C45.9392 33.3757 46.0269 33.3757 46.1536 33.5095C46.2412 33.5946 46.4264 33.6918 46.5628 33.7162C46.6992 33.7405 46.9136 33.8621 47.05 33.9958C47.1864 34.1174 47.3521 34.2268 47.43 34.2268C47.4983 34.2268 47.7419 34.3363 47.9465 34.47C48.1706 34.6159 48.3363 34.6645 48.3363 34.5794C48.3363 34.4092 48.5799 34.1052 48.7163 34.1052C48.7747 34.1052 48.8235 34.1904 48.8235 34.2876C48.8235 34.3849 48.7553 34.47 48.6676 34.47C48.5896 34.47 48.5506 34.5186 48.5799 34.5916C48.6188 34.6645 48.7455 34.6402 48.9307 34.5186C49.0963 34.4214 49.3789 34.3484 49.5543 34.3606C49.7297 34.3849 49.944 34.3241 50.022 34.239C50.1097 34.1539 50.2656 34.1174 50.3825 34.166C50.4897 34.2025 50.7138 34.166 50.8698 34.0566C51.0354 33.9593 51.1621 33.9229 51.1621 33.9837C51.1621 34.1782 51.8344 34.1782 51.9903 33.9958C52.1073 33.8378 52.1755 33.8378 52.3314 33.9472C52.4483 34.0444 52.536 34.0566 52.575 33.9837C52.614 33.9107 52.6919 33.935 52.7796 34.0323C52.8576 34.1417 52.994 34.1782 53.0719 34.1417C53.2279 34.0688 53.9489 34.3119 54.1633 34.5065C54.2607 34.6038 54.3095 34.5551 54.3484 34.3727C54.4166 34.0201 54.5823 34.0323 54.8454 34.4092C55.0403 34.6889 55.3521 34.7253 55.3521 34.4578C55.3521 34.2876 55.5665 34.3241 55.7419 34.5308C55.888 34.701 55.9173 34.701 56.0342 34.5308C56.1803 34.3119 56.424 34.2876 56.424 34.5065C56.424 34.701 57.0378 34.6767 57.0866 34.4822C57.106 34.4092 57.3302 34.3606 57.5738 34.3606C57.983 34.3727 58.0025 34.3849 57.7394 34.47C57.4081 34.5794 57.4763 34.6159 58.0025 34.6159C58.2266 34.6159 58.4605 34.5186 58.6261 34.3606L58.899 34.0931L59.0257 34.4092C59.1523 34.701 59.1718 34.701 59.4349 34.5308C59.6785 34.3849 59.737 34.3849 59.8247 34.5186C59.8929 34.6159 60.0293 34.6645 60.1268 34.6281C60.2339 34.5916 60.3216 34.6281 60.3216 34.701C60.3216 35.005 60.5068 34.8104 60.575 34.4335L60.6432 34.0444L60.8283 34.5673C61.0037 35.0536 61.1986 35.1631 61.1986 34.7618C61.1986 34.5551 61.4617 34.5308 61.5104 34.7375C61.5397 34.8469 61.6274 34.8469 61.8612 34.7253C62.1146 34.5916 62.1925 34.5916 62.3095 34.7497C62.4556 34.932 62.9526 34.8956 62.9526 34.701C62.9526 34.543 63.3813 34.5673 63.5177 34.7375C63.6736 34.932 64.1219 34.9442 64.1219 34.7497C64.1219 34.543 64.3363 34.543 64.5019 34.7375C64.6091 34.8591 64.6383 34.8591 64.6773 34.7375C64.7358 34.543 64.9014 34.5551 65.106 34.7861C65.262 34.9685 65.2912 34.9564 65.4958 34.6645C65.7004 34.3727 65.7199 34.3727 65.983 34.543C66.2364 34.701 66.2656 34.701 66.2656 34.5308C66.2656 34.2512 66.5774 34.3484 66.7041 34.6524C66.7528 34.7861 66.8697 34.8834 66.9574 34.8591C67.0451 34.8469 67.1621 34.9077 67.2303 35.005C67.2985 35.1023 67.4154 35.1509 67.5031 35.1144C67.5811 35.0779 67.6883 35.1144 67.737 35.2117C67.8149 35.3698 68.0488 36.233 68.0585 36.4397C68.078 36.6464 68.2729 36.5613 68.3704 36.306C68.4775 36.0506 68.4873 36.0506 68.5457 36.4519C68.575 36.6707 68.6724 36.9625 68.7406 37.0963C68.8771 37.3151 68.8868 37.3151 68.9842 37.0233C69.0719 36.7315 69.0817 36.7315 69.0817 36.9869C69.0914 37.1449 69.1401 37.2665 69.1889 37.2665C69.2473 37.2665 69.2863 37.4489 69.2863 37.6556C69.2766 38.1298 69.3253 38.4702 69.4227 38.7377C69.4617 38.8471 69.4812 39.0052 69.4617 39.1025C69.4422 39.1997 69.4909 39.2605 69.5591 39.2362C69.6371 39.2241 69.6858 39.297 69.6761 39.4186C69.6371 39.832 69.6761 39.9414 69.871 39.9414C70.1243 39.9414 70.1535 40.5372 69.9002 40.5615C69.754 40.5737 69.7443 40.5858 69.8807 40.6345C70.1828 40.7317 70.4069 41.8747 70.1633 42.0692C70.1146 42.1057 70.0658 42.3853 70.0658 42.6771C70.0658 43.2121 70.1828 43.4674 70.3192 43.2121C70.3582 43.1148 70.4069 43.127 70.4654 43.2364C70.5141 43.3337 70.4848 43.4796 70.3971 43.6012C70.29 43.7471 70.2802 43.8687 70.3679 44.1727C70.4264 44.3915 70.5141 44.5617 70.5628 44.5617C70.6895 44.5617 70.67 45.3399 70.5433 45.4979C70.4166 45.656 70.3971 47.1394 70.5043 47.3704C70.631 47.6136 70.6408 48.258 70.5238 48.4282C70.4459 48.5498 70.4556 48.6592 70.5433 48.8294C70.6115 48.9753 70.6602 49.4617 70.6505 50.0088C70.6408 50.5195 70.6895 51.1761 70.7577 51.4679C70.8551 51.9056 70.8454 52.0637 70.7187 52.4406C70.5725 52.8661 70.5336 53.1215 70.5628 53.4619C70.5823 53.6686 70.6602 57.5594 70.6602 57.8755C70.6602 58.0093 70.6992 58.2889 70.7577 58.5078C70.8259 58.7874 70.8259 58.9698 70.7479 59.1522C70.6895 59.2859 70.67 59.4561 70.6992 59.5291C70.7382 59.5899 70.7674 60.1249 70.7577 60.7085C70.7577 61.2921 70.7577 61.8514 70.7577 61.9487C70.7869 63.4199 70.7772 66.1799 70.7285 67.1769C70.6213 69.4992 70.631 70.3382 70.7577 70.5327C70.8454 70.6786 70.8454 70.7759 70.7382 71.0434C70.67 71.2258 70.6018 71.4081 70.5823 71.4568C70.5628 71.4933 70.6213 71.627 70.709 71.7364C70.8454 71.9067 70.8551 71.9796 70.7479 72.2228C70.6505 72.4538 70.6505 72.5632 70.7382 72.6848C70.8259 72.8186 70.8162 72.8915 70.6992 73.0131C70.5628 73.159 70.5628 73.1955 70.6992 73.3779C70.7869 73.4873 70.8454 73.7426 70.8454 73.9372C70.8454 74.1317 70.8454 74.3992 70.8454 74.5329C70.8454 75.153 70.8259 75.2625 70.7285 75.4084C70.6505 75.5299 70.6505 75.6515 70.7285 75.8461C70.9331 76.3446 71.011 76.9647 70.9233 77.3294C70.8746 77.524 70.8356 78.2049 70.8454 78.8128C70.8551 79.4451 70.8162 79.9436 70.7674 79.9436C70.5433 79.9436 70.5628 80.3205 70.7967 80.4542C71.0792 80.6123 71.128 81.1959 70.8941 81.5242C70.7577 81.7066 70.7577 81.743 70.8941 81.889C71.0598 82.0592 71.089 82.3753 70.9428 82.3753C70.8941 82.3753 70.8454 82.4604 70.8454 82.5577C70.8454 82.6549 70.8941 82.7401 70.9428 82.7401C71.0013 82.7401 71.0403 82.8738 71.0403 83.044C71.0403 83.2264 70.9818 83.348 70.9038 83.348C70.7382 83.348 70.7674 83.6641 70.9526 84.0897C71.0987 84.4301 70.9915 88.5398 70.8356 88.7708C70.7187 88.941 70.4361 91.8105 70.5043 92.1023C70.5628 92.3576 70.5628 93.233 70.5043 94.1692C70.4751 94.607 70.4556 95.1663 70.4556 95.4337C70.4654 95.7012 70.3971 95.993 70.3094 96.1146C70.1535 96.3213 70.1633 96.3457 70.3582 96.4794C70.5141 96.5888 70.5531 96.6861 70.5043 96.8806C70.4654 97.0265 70.4459 97.2697 70.4459 97.4035C70.4459 97.5737 70.3777 97.6953 70.2607 97.7317C70.0561 97.7925 69.9976 98.1087 70.1633 98.2424C70.2218 98.2789 70.2607 98.4977 70.2607 98.7288C70.2607 99.1178 70.1438 99.3245 69.9197 99.3367C69.871 99.3367 69.8417 99.5434 69.8515 99.7987C69.871 100.054 69.8417 100.334 69.7833 100.419C69.7248 100.504 69.6663 100.857 69.6663 101.209C69.6566 101.55 69.5981 101.878 69.5299 101.951C69.4617 102.024 69.4227 102.194 69.452 102.328C69.4909 102.474 69.4617 102.559 69.3838 102.534C69.3155 102.51 69.2571 102.68 69.2376 102.972C69.2084 103.227 69.1207 103.58 69.0232 103.762C68.9258 103.933 68.8673 104.115 68.8771 104.164C68.8868 104.224 68.8283 104.261 68.7504 104.261C68.6627 104.261 68.6334 104.334 68.6724 104.456C68.7504 104.711 68.5165 104.881 68.2924 104.735C68.156 104.65 68.117 104.662 68.117 104.808C68.117 104.93 68.0488 105.003 67.9514 104.978C67.6395 104.942 67.5323 104.99 67.5323 105.161C67.5323 105.258 67.5908 105.367 67.659 105.404C67.7175 105.44 67.6298 105.465 67.4641 105.44C67.24 105.404 67.1426 105.453 67.1426 105.562C67.1426 105.696 67.0257 105.72 66.6846 105.696C66.3143 105.671 66.1974 105.598 66.1097 105.38C65.944 104.966 65.8953 104.942 65.7199 105.173C65.5543 105.367 65.5445 105.367 65.4276 105.161C65.1353 104.626 65.0866 104.601 64.9112 104.796C64.6383 105.1 64.2583 105.039 63.9465 104.626C63.7906 104.419 63.5957 104.261 63.508 104.261C63.43 104.261 63.3423 104.2 63.3229 104.115C63.2936 104.03 63.1377 103.981 62.9331 103.993C62.6602 104.018 62.5433 103.957 62.4264 103.75L62.2705 103.483V103.75C62.2705 103.945 62.2315 104.006 62.1535 103.933C62.0366 103.848 61.754 103.811 61.0037 103.762C60.8283 103.75 60.8088 103.726 60.9355 103.69C61.1012 103.641 61.1012 103.617 60.9648 103.422C60.8576 103.276 60.6822 103.215 60.3509 103.24C60.0585 103.252 59.8247 103.191 59.7272 103.082C59.5908 102.936 59.5421 102.936 59.4154 103.106C59.2108 103.361 59.0841 103.337 59.0062 103.033C58.9672 102.887 58.8795 102.814 58.8113 102.851C58.7333 102.887 58.6261 102.838 58.5677 102.741C58.5092 102.656 58.3825 102.607 58.2851 102.644C58.1097 102.692 57.8563 102.461 57.7589 102.17C57.7199 102.048 57.681 102.048 57.603 102.194C57.4471 102.474 56.6676 101.939 56.5311 101.452C56.424 101.075 56.2291 101.063 56.2291 101.428C56.2291 101.598 56.1901 101.586 56.005 101.367C55.8783 101.221 55.7321 101.1 55.6736 101.1C55.6249 101.1 55.5275 100.966 55.469 100.796C55.3813 100.553 55.3131 100.504 55.1962 100.589C54.9721 100.747 54.67 100.638 54.3582 100.285C54.2218 100.115 54.0756 99.9933 54.0464 99.9933C54.0074 100.005 53.832 99.8717 53.6566 99.7015C53.374 99.434 53.2766 99.3975 52.994 99.4948C52.7406 99.5799 52.5847 99.5555 52.2827 99.361C52.0683 99.2273 51.8734 99.0814 51.8442 99.0206C51.8149 98.9719 51.6883 98.9233 51.5713 98.9111C51.4544 98.9111 51.2595 98.9111 51.1426 98.899C51.0354 98.899 50.8503 98.8382 50.7528 98.7774C50.4508 98.5707 50.2071 98.5585 50.0902 98.7166C50.0123 98.8503 49.9246 98.8503 49.6615 98.7409C49.4763 98.668 49.2717 98.5342 49.184 98.4491C49.106 98.364 48.8527 98.2789 48.6286 98.2424C48.3947 98.2181 48.1803 98.133 48.1414 98.06C48.1024 97.9871 47.927 97.9141 47.7419 97.9141C47.5567 97.9141 47.3618 97.8533 47.2936 97.7925C47.2254 97.7317 47.1377 97.7074 47.0793 97.7439C47.0305 97.7925 46.9331 97.7439 46.8551 97.6588C46.6408 97.3791 46.3582 97.2454 46.0171 97.2332C45.8515 97.2332 45.6371 97.136 45.5592 97.0387C45.4715 96.9414 45.3448 96.8806 45.2668 96.9171C45.1986 96.9536 45.033 96.9171 44.9063 96.832C44.7796 96.7469 44.497 96.6983 44.2729 96.7104C44.0293 96.7226 43.8539 96.6739 43.8539 96.601C43.8539 96.5402 43.7857 96.4794 43.7078 96.4794C43.6298 96.4794 43.5616 96.528 43.5616 96.5888C43.5616 96.6496 43.4057 96.7347 43.2108 96.7834C43.0159 96.8198 42.7431 96.9171 42.5969 96.9901C42.4605 97.063 42.2461 97.1238 42.1194 97.136C41.9928 97.1481 41.8564 97.2332 41.8174 97.3183C41.7687 97.4035 41.6225 97.4521 41.4958 97.4399C41.3594 97.4156 41.184 97.4643 41.0963 97.5494C41.0184 97.6345 40.8917 97.6953 40.8137 97.6831C40.5214 97.6345 40.3557 97.7074 40.307 97.9141C40.2486 98.133 39.6931 98.4977 39.5957 98.3762C39.5665 98.3397 39.4203 98.3883 39.2644 98.4977C39.011 98.6558 38.9818 98.6558 38.9818 98.4856C38.9818 98.3154 38.9331 98.3275 38.7187 98.5464C38.4654 98.7896 38.4459 98.8017 38.3192 98.5829C38.2413 98.4491 38.1633 98.4126 38.1243 98.4856C38.0853 98.5585 37.9587 98.668 37.8417 98.7531C37.6761 98.8747 37.6079 98.8625 37.5104 98.7166C37.413 98.5585 37.374 98.5585 37.2279 98.7288C37.0427 98.9355 36.8381 98.9719 36.8381 98.7896C36.8381 98.7166 36.7699 98.668 36.6919 98.668C36.614 98.668 36.5458 98.7288 36.5458 98.7896C36.5458 98.9355 35.9416 98.899 35.8539 98.7531C35.7467 98.5707 35.4252 98.5707 35.2595 98.7531C35.1523 98.8747 35.0841 98.8868 35.0354 98.8017C34.9282 98.5829 34.821 98.6558 34.6944 99.0327C34.6164 99.2516 34.4995 99.3975 34.3923 99.3975C34.2851 99.3975 34.2072 99.4461 34.2072 99.5191C34.2072 99.5799 34.1389 99.6407 34.061 99.6407C33.983 99.6407 33.9148 99.5799 33.9148 99.5191C33.9148 99.2881 33.7199 99.3975 33.3302 99.8838C33.1158 100.151 32.8722 100.37 32.804 100.37C32.7358 100.37 32.6286 100.516 32.5701 100.686C32.5019 100.857 32.4045 100.954 32.346 100.905C32.2875 100.869 32.1219 100.99 31.966 101.197C31.7711 101.464 31.6347 101.55 31.4885 101.501C31.3424 101.452 31.2839 101.489 31.2839 101.647C31.2839 101.793 31.2254 101.841 31.089 101.793C30.9721 101.756 30.8941 101.793 30.8941 101.878C30.8941 101.963 30.7967 102.133 30.67 102.267C30.1438 102.814 29.7833 102.936 29.5397 102.644C29.4422 102.534 29.4227 102.534 29.4715 102.644C29.5104 102.729 29.4422 102.911 29.3253 103.057L29.1207 103.313L28.9843 103.057C28.7796 102.705 28.6822 102.741 28.4581 103.191C28.3509 103.41 28.2632 103.531 28.2632 103.471C28.2632 103.398 28.2145 103.264 28.1657 103.167C28.0878 103.009 28.0586 103.021 27.9416 103.215C27.776 103.495 26.9964 103.617 26.8893 103.386C26.8308 103.264 26.7821 103.264 26.6944 103.373C26.6164 103.471 26.519 103.483 26.3533 103.386C26.1584 103.276 26.1 103.3 25.9538 103.519C25.7784 103.775 25.4763 103.848 25.0671 103.726C24.9014 103.677 24.8137 103.738 24.7358 103.957C24.5896 104.346 24.424 104.346 24.2778 103.933C24.1511 103.592 24.0439 103.641 23.8393 104.164C23.7808 104.31 23.6347 104.456 23.5178 104.48C23.4008 104.504 23.2644 104.662 23.1865 104.881C23.1085 105.124 23.05 105.197 22.9916 105.1C22.9526 105.015 22.9428 104.881 22.9721 104.796C22.9916 104.723 22.9721 104.614 22.9234 104.577C22.8649 104.541 22.7967 104.638 22.7675 104.796C22.709 105.088 22.3679 105.331 22.251 105.185C22.212 105.149 22.1438 105.234 22.0854 105.38C21.9392 105.744 21.6761 105.805 21.6079 105.477C21.5397 105.124 21.3838 105.173 21.2474 105.598C21.1109 106 20.7991 106.073 20.3022 105.817C20.156 105.744 19.9514 105.696 19.8637 105.708C19.6883 105.732 19.6493 105.623 19.6785 105.197C19.6883 105.088 19.6493 104.99 19.6006 104.99C19.5421 104.99 19.5031 104.918 19.5226 104.832C19.5324 104.759 19.4837 104.699 19.4252 104.711C19.357 104.735 19.2985 104.662 19.2985 104.565C19.2985 104.468 19.2498 104.395 19.1816 104.419C19.1231 104.431 18.977 104.237 18.8698 103.993C18.7431 103.714 18.5969 103.531 18.48 103.531C18.3533 103.531 18.3143 103.471 18.3533 103.288C18.3826 103.118 18.3533 103.045 18.2559 103.045C18.1584 103.045 18.1195 102.972 18.1487 102.826C18.1779 102.692 18.1195 102.389 18.0123 102.121C17.9148 101.866 17.8076 101.306 17.7882 100.881C17.7687 100.455 17.7005 100.03 17.642 99.9446C17.5835 99.8595 17.5446 99.4948 17.5543 99.1543C17.5738 98.8017 17.5348 98.4856 17.4763 98.4491C17.4081 98.4005 17.3594 97.9384 17.3594 97.3183C17.3594 96.7347 17.3107 96.139 17.262 95.9687C17.184 95.7012 17.1061 92.6129 17.1645 91.7983C17.1743 91.5916 17.1548 91.2755 17.1061 91.0931C17.0671 90.8864 17.0768 90.6311 17.145 90.4487C17.2327 90.2177 17.223 90.1569 17.1061 90.1569C16.9891 90.1569 16.9599 89.9866 16.9599 89.3544C16.9599 88.8559 16.9989 88.5884 17.0573 88.637C17.1158 88.6735 17.1548 88.6249 17.1548 88.5276C17.1548 88.4303 17.1061 88.3087 17.0573 88.2723C16.9404 88.1872 16.9209 83.5182 17.0379 83.4209C17.1548 83.3358 17.1548 80.0773 17.0476 79.9922C16.9989 79.9557 16.9502 79.6639 16.9599 79.3599C16.9599 79.0438 16.9599 78.6669 16.9599 78.5088C16.9599 78.3508 16.9989 78.1198 17.0573 77.9982C17.1645 77.7428 17.145 76.5634 17.0184 76.3203C16.9794 76.2352 16.9794 76.0528 17.0184 75.8947C17.145 75.4448 17.145 75.2746 17.0476 75.1287C16.9891 75.0436 16.9891 74.9463 17.0379 74.9099C17.145 74.8369 17.1256 71.4689 17.0184 71.165C16.9404 70.9461 16.9794 70.3382 17.1061 69.6938C17.1548 69.4871 17.1353 69.2317 17.0573 69.0494C16.9599 68.8305 16.9502 68.6603 17.0379 68.3077C17.0963 68.0523 17.1256 67.6268 17.0963 67.3593C17.0671 67.0918 17.0476 66.8122 17.0573 66.7514C17.1256 65.8881 17.1256 61.5718 17.0573 61.5231C16.9209 61.4259 16.9307 59.4318 17.0573 59.3346C17.1353 59.2738 17.1256 59.2008 17.0573 59.0914C16.9794 58.982 16.9599 58.5564 16.9891 57.8512C17.0379 56.7691 17.0573 56.1125 17.0476 55.8328C17.0379 55.5167 17.145 50.9937 17.184 49.6684C17.2133 48.9024 17.2815 48.0634 17.3302 47.8081C17.4081 47.4555 17.3984 47.3096 17.2912 47.1758C17.1158 46.957 17.1061 46.2639 17.2912 46.2639C17.3984 46.2639 17.4081 46.191 17.3009 45.8019C17.2035 45.4493 17.1938 45.3399 17.2912 45.3156C17.3692 45.2913 17.3886 45.121 17.3692 44.8535C17.3399 44.5739 17.3692 44.3793 17.4471 44.3186C17.603 44.197 17.5835 42.6042 17.4374 42.4826C17.3789 42.4461 17.4666 42.3732 17.6323 42.3367C17.8564 42.2759 17.9343 42.1908 17.9343 41.9962C17.9343 41.8503 17.8564 41.668 17.7687 41.5828C17.6225 41.4491 17.6128 41.3883 17.7394 41.0843C17.8759 40.7439 17.9148 40.4642 17.9441 39.8198C17.9538 39.6496 17.983 39.4672 18.0123 39.3943C18.0513 39.3335 18.0805 39.0782 18.0902 38.8471C18.1097 38.3608 18.4215 37.5218 18.4215 37.9352C18.4215 38.1298 18.4508 38.1176 18.5677 37.8258C18.6456 37.6434 18.7139 37.3881 18.7139 37.2665C18.7139 37.1449 18.7821 36.9869 18.86 36.9017C18.938 36.8166 18.977 36.7072 18.9477 36.6464C18.9185 36.5856 18.9672 36.537 19.0647 36.537C19.279 36.537 19.4837 36.1844 19.4934 35.8318C19.4934 35.6737 19.5519 35.5643 19.6493 35.5643C19.7273 35.5643 19.776 35.5157 19.7467 35.4549C19.698 35.3576 20.0293 35.1509 20.2047 35.1874C20.2437 35.1995 20.3217 35.0658 20.3899 34.8956C20.5165 34.5551 20.6335 34.6038 20.7699 35.0536C20.8478 35.309 20.8868 35.3333 20.955 35.1995C21.0135 35.1023 21.0525 34.9199 21.0525 34.7861C21.0525 34.6281 21.1012 34.5794 21.2474 34.6281C21.3935 34.6767 21.4812 34.6038 21.5884 34.3727C21.6664 34.1904 21.7248 34.1052 21.7346 34.1904C21.7346 34.2633 21.7833 34.4822 21.832 34.6524C21.9197 34.932 21.9587 34.9564 22.0854 34.8226C22.3095 34.5916 22.7187 34.6159 22.8454 34.8591C22.9623 35.0901 23.1962 35.1631 23.1962 34.9564C23.1962 34.6645 24.1901 34.9442 24.2486 35.2482C24.2583 35.3211 24.385 35.3698 24.5409 35.3698C24.6871 35.3576 24.7942 35.2968 24.7748 35.2238C24.765 35.1387 24.8625 35.0779 24.9989 35.0779C25.1353 35.0779 25.2425 35.1266 25.2425 35.1874C25.2425 35.4427 25.5543 35.4062 25.7784 35.1266C25.9148 34.9564 26.0805 34.8469 26.1487 34.8712C26.2169 34.8956 26.3436 34.8469 26.4313 34.7375C26.5774 34.5916 26.6456 34.5794 26.9087 34.7132C27.1621 34.8469 27.2206 34.8469 27.2985 34.701C27.357 34.5794 27.3862 34.5794 27.3862 34.6767C27.3862 34.9564 27.6201 34.8469 27.8637 34.4578L28.1073 34.0809L28.2437 34.4214L28.3801 34.7497L28.5555 34.47C28.6919 34.2512 28.7796 34.2025 29.0037 34.2755C29.452 34.3971 32.307 34.3484 32.3363 34.2268C32.385 34.0444 32.7358 34.0809 32.8917 34.2633C33.0281 34.4457 33.6225 34.3971 33.6225 34.2147C33.6225 34.1539 33.7102 34.1052 33.8076 34.1052C33.9148 34.1052 34.0318 34.0444 34.061 33.9837C34.1779 33.7526 34.5677 33.8499 34.6262 34.1174C34.6651 34.2876 34.7236 34.3363 34.8113 34.2755C34.8795 34.2147 35.0062 34.1904 35.0939 34.2025C35.1816 34.2268 35.3082 34.1539 35.3765 34.0444C35.4934 33.8742 35.5226 33.8742 35.6785 34.0566C35.8149 34.2147 35.9221 34.239 36.0878 34.1539C36.3509 34.008 36.7699 34.0688 36.6822 34.239C36.6529 34.3119 36.7212 34.3241 36.8673 34.2876C37.033 34.2268 37.1791 34.2876 37.3838 34.5065C37.6176 34.7618 37.6956 34.7861 37.9587 34.6767C38.1146 34.6159 38.29 34.5065 38.3387 34.4578C38.4946 34.2876 39.0013 34.3363 39.1767 34.5308C39.3131 34.6889 39.3618 34.6767 39.5762 34.4214C39.7808 34.1904 39.8393 34.166 39.9465 34.3119C40.0537 34.4578 40.0927 34.4578 40.2388 34.2998C40.3363 34.1904 40.4824 34.1052 40.5604 34.1052C40.6481 34.1052 40.7358 34.0566 40.7553 33.9958C40.7747 33.935 40.9209 33.8621 41.0768 33.8256C41.2425 33.7891 41.5056 33.6918 41.6615 33.6189C41.8271 33.5338 42.1487 33.4487 42.3923 33.4365C42.6944 33.4122 42.8698 33.3392 42.9769 33.1569C43.1328 32.8894 43.3667 32.8043 43.3667 33.011ZM29.6956 34.1782C29.6664 34.2147 29.5787 34.2268 29.5104 34.1904C29.4325 34.1539 29.4617 34.1174 29.5689 34.1174C29.6761 34.1052 29.7346 34.1417 29.6956 34.1782ZM70.4264 42.823C70.3971 42.9446 70.3777 42.8717 70.3777 42.6771C70.3777 42.4704 70.3971 42.3853 70.4264 42.4583C70.4459 42.5434 70.4459 42.7136 70.4264 42.823ZM45.3156 99.8474C45.7151 100.091 47.7126 101.306 49.7492 102.559C51.7857 103.811 54.4166 105.428 55.5957 106.146C56.7747 106.863 60.3704 109.088 63.5859 111.082C68.6627 114.243 69.793 114.948 71.0305 115.8C71.1572 115.885 71.2157 116.006 71.1669 116.067C71.0792 116.176 70.6992 116.031 69.7735 115.483C69.4227 115.277 68.8965 114.973 68.6042 114.803C67.4252 114.146 66.6943 113.708 64.2193 112.225C62.7967 111.374 61.1986 110.413 60.6627 110.097C59.7175 109.538 58.4313 108.76 55.011 106.693C54.1048 106.146 52.8088 105.367 52.1365 104.966C51.4641 104.565 50.3241 103.872 49.603 103.446C48.8819 103.009 47.5665 102.218 46.6797 101.683C45.793 101.16 44.9063 100.613 44.7017 100.492C44.3022 100.236 43.4836 100.163 43.1913 100.358C43.1036 100.431 42.3923 100.857 41.6128 101.319C40.8332 101.781 39.6542 102.498 38.9818 102.899C38.3095 103.3 37.2376 103.945 36.5945 104.322C35.0062 105.27 32.8917 106.547 30.5531 107.969C29.4812 108.614 27.659 109.708 26.5092 110.401C25.3594 111.082 23.7614 112.043 22.9526 112.529C20.6724 113.903 19.2888 114.717 18.1779 115.325C17.9148 115.471 17.5738 115.666 17.4276 115.751C17.0573 115.97 16.5701 116.091 16.5701 115.97C16.5701 115.909 17.0184 115.569 17.5738 115.216C18.9282 114.328 28.4873 108.371 31.1377 106.754C32.3168 106.036 35.4057 104.139 38.0074 102.534C40.6091 100.929 42.821 99.5677 42.9282 99.5191C43.5518 99.1786 44.3899 99.2881 45.3156 99.8474ZM70.2607 99.9446C70.2607 100.236 70.212 100.37 70.1146 100.37C70.0171 100.37 69.9684 100.236 69.9684 99.9446C69.9684 99.6528 70.0171 99.5191 70.1146 99.5191C70.212 99.5191 70.2607 99.6528 70.2607 99.9446ZM70.0366 101.246C70.0074 101.343 69.9781 101.306 69.9781 101.173C69.9684 101.039 69.9976 100.966 70.0269 101.015C70.0561 101.051 70.0658 101.16 70.0366 101.246ZM71.469 116.31C71.4398 116.371 71.3716 116.395 71.3228 116.347C71.2741 116.31 71.2546 116.225 71.2936 116.164C71.3228 116.104 71.3911 116.079 71.4398 116.128C71.4885 116.164 71.508 116.249 71.469 116.31ZM16.4435 116.249C16.4142 116.286 16.3265 116.298 16.2583 116.262C16.1804 116.225 16.2096 116.189 16.3168 116.189C16.424 116.176 16.4824 116.213 16.4435 116.249Z" fill="#58BF00"/>
        <path d="M29.8612 34.5551C29.9294 34.6403 30.709 34.6159 30.7869 34.5187C30.8064 34.4944 30.592 34.47 30.3094 34.47C30.0269 34.47 29.8222 34.5065 29.8612 34.5551Z" fill="#58BF00"/>
        <path d="M9.35938 25.1198C9.35938 25.1806 9.4081 25.2049 9.45682 25.1684C9.51528 25.1319 9.55426 25.0711 9.55426 25.0347C9.55426 25.0104 9.51528 24.986 9.45682 24.986C9.4081 24.986 9.35938 25.0468 9.35938 25.1198Z" fill="#58BF00"/>
        <path d="M77.8221 26.883C77.7149 27.2235 77.7636 27.3451 77.9098 27.1019C77.9877 26.9803 78.0559 26.8344 78.0559 26.7736C78.0559 26.6155 77.8805 26.6885 77.8221 26.883Z" fill="#58BF00"/>
        <path d="M4 27.0167C4 27.0654 4.47747 27.4909 5.05237 27.953L6.10475 28.7919L6.06577 29.4363C6.01705 30.1658 6.03654 30.178 6.90377 30.1172L7.4397 30.0686L7.37149 29.2661C7.30328 28.3299 7.09866 28.0259 6.58221 28.0259C6.34835 28.0259 6.24117 27.9651 6.19245 27.7949C6.08526 27.345 5.80268 27.1748 5.06212 27.114C4.66261 27.0775 4.26309 27.0167 4.1754 26.9803C4.07795 26.9438 4 26.9559 4 27.0167Z" fill="#58BF00"/>
        <path d="M9.1157 27.43C9.06698 27.588 8.93056 27.6124 8.31668 27.5637C7.67356 27.5151 7.55663 27.5394 7.4397 27.7218C7.15712 28.2203 7.25456 28.2811 8.29719 28.2568C9.36905 28.2203 9.5347 28.1109 9.30084 27.5394C9.2034 27.3084 9.16442 27.2841 9.1157 27.43Z" fill="#58BF00"/>
        <path d="M82.1776 27.503C82.0509 27.5273 81.9047 27.6489 81.8365 27.7705C81.7586 27.8921 81.5247 28.0136 81.2811 28.0623C81.0473 28.0988 80.8232 28.1717 80.7744 28.2325C80.7257 28.2933 80.6672 28.731 80.6283 29.2052L80.5601 30.0685L81.135 30.1171C81.9535 30.1901 81.9827 30.1657 81.934 29.4241L81.895 28.7918L82.655 28.196C83.074 27.8677 83.4151 27.5638 83.4151 27.5151C83.4151 27.4179 82.5576 27.4057 82.1776 27.503Z" fill="#58BF00"/>
        <path d="M78.8647 27.6611C78.7381 27.7219 78.6406 27.8192 78.6406 27.88C78.6406 28.1718 78.9232 28.269 79.7807 28.269C80.5895 28.269 80.6869 28.2447 80.6869 28.0502C80.6869 27.9286 80.6382 27.7705 80.57 27.6854C80.4336 27.5152 79.1863 27.503 78.8647 27.6611Z" fill="#58BF00"/>
        <path d="M77.8613 28.6217C77.8613 28.6947 77.9101 28.7798 77.9588 28.8163C78.0172 28.8527 78.0562 28.8041 78.0562 28.7068C78.0562 28.5974 78.0172 28.5123 77.9588 28.5123C77.9101 28.5123 77.8613 28.5609 77.8613 28.6217Z" fill="#58BF00"/>
        <path d="M9.35938 28.7675C9.35938 28.8283 9.4081 28.8526 9.45682 28.8161C9.51528 28.7796 9.55426 28.7189 9.55426 28.6824C9.55426 28.6581 9.51528 28.6337 9.45682 28.6337C9.4081 28.6337 9.35938 28.6945 9.35938 28.7675Z" fill="#58BF00"/>
    </g>
    <line x1="22" y1="58.5" x2="67" y2="58.5" stroke="#58BF00"/>
    <g clip-path="url(#clip0)">
        <path d="M44 56.0002C49.5228 56.0002 54 51.5231 54 46.0002C54 40.4774 49.5228 36.0002 44 36.0002C38.4772 36.0002 34 40.4774 34 46.0002C34 51.5231 38.4772 56.0002 44 56.0002Z" fill="url(#paint0_linear)"/>
        <path d="M49.625 50.1127L45.2563 48.0752V43.5627L49.625 42.0127V50.1127ZM43.2625 52.2502L39 50.2627V42.2252L43.2625 44.2127V52.2502ZM49.5188 41.7252L49.45 41.7502L45.2563 43.2377L45.15 43.2752L43.375 43.9002L39.1688 41.944L45.15 39.819L45.2063 39.8002L45.3125 39.7627L45.35 39.7502L49.5562 41.7127L49.5188 41.7252Z" fill="white"/>
    </g>
    <defs>
        <filter id="filter0_d" x="0" y="-0.000244141" width="87.9998" height="130.499" filterUnits="userSpaceOnUse" color-interpolation-filters="sRGB">
            <feFlood flood-opacity="0" result="BackgroundImageFix"/>
            <feColorMatrix in="SourceAlpha" type="matrix" values="0 0 0 0 0 0 0 0 0 0 0 0 0 0 0 0 0 0 127 0"/>
            <feOffset dy="4"/>
            <feGaussianBlur stdDeviation="2"/>
            <feColorMatrix type="matrix" values="0 0 0 0 0 0 0 0 0 0 0 0 0 0 0 0 0 0 0.25 0"/>
            <feBlend mode="normal" in2="BackgroundImageFix" result="effect1_dropShadow"/>
            <feBlend mode="normal" in="SourceGraphic" in2="effect1_dropShadow" result="shape"/>
        </filter>
        <linearGradient id="paint0_linear" x1="10805.2" y1="-650.4" x2="10805.2" y2="15594.4" gradientUnits="userSpaceOnUse">
            <stop stop-color="#58BF00"/>
            <stop offset="0.23" stop-color="#58BF00"/>
            <stop offset="0.42" stop-color="#58BF00"/>
            <stop offset="0.61" stop-color="#29B800"/>
            <stop offset="0.78" stop-color="#00AE1D"/>
            <stop offset="0.99" stop-color="#00A62C"/>
        </linearGradient>
        <clipPath id="clip0">
            <rect x="34" y="36.0002" width="20" height="20" fill="white"/>
        </clipPath>
    </defs>
</svg>
