<svg width="190" height="266" viewBox="0 0 190 266" fill="none" xmlns="http://www.w3.org/2000/svg">
    <g filter="url(#filter0_d)">
        <path d="M22.7404 10.3876C18.8237 11.7353 16.739 15.4625 16.739 21.1481C16.739 25.8229 18.5289 32.7298 21.0137 37.6994C21.9192 39.4893 23.7512 42.0373 23.8775 41.6583C23.9196 41.5319 23.7091 40.9002 23.4143 40.2474C21.5612 36.0148 21.2874 28.8973 22.8878 26.2651C24.2987 23.9488 26.4466 24.9595 29.0998 29.15C30.2369 30.9399 30.2791 31.0663 30.0474 31.7612C29.7947 32.5192 29.9211 33.3826 30.3633 34.1196C30.5949 34.4987 30.5528 34.7303 30.0264 35.9095C29.7105 36.6465 29.4157 37.4257 29.4157 37.6363C29.4157 37.8258 28.9314 39.2787 28.3207 40.8581C27.4573 43.1113 27.0994 43.7851 26.6571 44.0378C25.878 44.5011 25.3305 45.7645 25.499 46.6911C25.6043 47.2807 25.2252 48.481 23.1826 53.7033C21.3296 58.5044 20.6136 60.1048 20.2135 60.3996C19.9187 60.6312 19.5396 61.1156 19.3922 61.4946C19.1606 62.0421 18.929 62.2316 18.3604 62.3369C17.9603 62.4001 17.5392 62.5896 17.4128 62.737C17.118 63.095 16.5705 64.927 16.5705 65.6219C16.5705 65.9378 16.4652 66.4221 16.3389 66.7169C16.1494 67.117 16.1494 67.5592 16.3178 68.4015C16.5495 69.5386 16.5284 69.6018 15.7072 71.4128L14.8438 73.2658L15.1807 74.3608C15.5808 75.6032 15.9388 76.0455 16.7179 76.235C17.3497 76.4034 18.95 75.6454 19.4344 74.9505C19.6028 74.7188 20.0871 73.4343 20.5083 72.0656L21.2664 69.6229L22.0245 69.9598C22.4456 70.1704 22.8668 70.4441 22.951 70.5705C23.0352 70.7179 23.5406 71.1601 24.0671 71.5602C24.5935 71.9603 24.9094 72.3393 24.8041 72.4025C24.4671 72.6131 25.7306 74.6346 26.2149 74.6346C26.3202 74.6346 27.6258 76.972 29.0998 79.8358C30.5739 82.7207 32.0479 85.5635 32.3848 86.1742C32.8481 87.0797 32.9113 87.3745 32.7428 87.8588C32.5744 88.301 32.6375 88.638 32.9744 89.4171C33.2271 89.9646 33.5641 90.5331 33.7325 90.7016C33.8799 90.8701 34.4274 91.565 34.9118 92.2388C35.7119 93.3759 35.7751 93.418 35.6698 92.8074C35.5435 92.1756 35.6909 92.302 37.6071 94.2182C38.7443 95.3553 40.0919 96.4925 40.5763 96.7451L41.4607 97.2084L40.8921 97.798L40.3025 98.4087L39.5866 97.777C39.1865 97.4401 38.7864 97.2084 38.6811 97.2716C38.281 97.5243 36.5121 100.199 35.9225 101.462C33.7325 106.137 36.3016 111.822 41.4818 113.781C42.4715 114.139 43.398 114.581 43.5243 114.749C43.6717 114.939 44.1561 115.065 44.6825 115.065H45.5669L45.6933 117.529C45.7775 118.898 46.0302 120.919 46.2829 122.014C46.5145 123.109 46.8093 124.731 46.9146 125.594C47.2937 128.184 46.7672 134.228 46.0092 136.334C45.3774 138.081 45.2721 140.082 45.7565 140.987C46.5145 142.44 46.2408 142.967 43.0821 145.978C38.5968 150.274 35.9646 153.748 33.543 158.57C32.6165 160.424 32.0479 161.371 31.7531 161.455C31.2688 161.582 30.0474 163.203 30.0474 163.73C30.0474 163.94 29.9211 164.193 29.7526 164.277C29.6052 164.361 29.163 165.056 28.784 165.793C28.426 166.53 27.7943 167.625 27.3942 168.236C26.615 169.415 26.2149 170.868 26.6782 170.868C26.8256 170.868 26.8888 171.016 26.8256 171.226C26.7624 171.437 26.4255 172.637 26.0886 173.922C25.7517 175.185 24.9304 177.586 24.2776 179.249C23.6248 180.913 22.9931 182.745 22.8668 183.334C22.6562 184.324 22.6141 184.366 22.3193 183.945C22.1508 183.692 21.8349 183.503 21.6244 183.503C21.0558 183.503 20.6768 184.935 20.1293 189.294C19.8976 191.252 19.6449 192.937 19.5818 193.042C19.3712 193.379 17.5813 194.032 16.8653 194.032C14.9491 194.032 14.6122 191.652 16.0441 188.114C16.6758 186.535 18.0235 184.577 19.1185 183.629C19.8976 182.976 19.9608 182.871 19.5396 182.871C18.213 182.871 14.7174 185.566 12.6959 188.157C9.64254 192.052 8.77918 196.516 10.4217 199.991C11.0323 201.339 11.9168 202.455 12.3169 202.455C12.4222 202.455 13.0539 201.739 13.7067 200.875C15.3071 198.749 16.2757 198.285 17.6445 198.98C18.1077 199.233 18.2341 199.422 18.1498 199.78C18.0867 200.033 18.0024 200.896 17.9603 201.676L17.8972 203.129L18.7395 203.739C19.1817 204.076 19.8976 204.455 20.2767 204.603C20.6768 204.75 20.9926 205.003 20.9926 205.192C20.9926 206.287 20.045 211.341 19.4975 213.194C18.6973 215.953 18.4236 216.605 17.1391 219.027C16.381 220.501 16.0862 221.28 16.002 222.186C15.9598 222.86 15.7703 223.765 15.6019 224.207C15.4334 224.628 15.3071 225.239 15.3071 225.513C15.3071 226.945 12.6959 231.872 11.0323 233.62C9.28456 235.452 8.84235 235.578 4.48341 235.599L1.36688 235.621L0.77726 236.336C0.082357 237.137 -0.21245 238.358 0.166588 238.8C0.440338 239.137 3.93591 240.295 6.75764 240.99C8.23168 241.348 9.05293 241.432 10.4427 241.369C12.0431 241.285 12.5906 241.138 15.2018 240.043C16.8232 239.39 18.7184 238.569 19.3922 238.232C20.3188 237.768 20.8031 237.642 21.3085 237.747C21.8139 237.832 22.4667 237.663 23.8565 237.095C27.7311 235.515 29.6263 234.104 29.6263 232.841C29.6263 231.725 28.8471 228.019 28.3839 226.987L27.9417 226.018L28.3839 225.429C28.6787 225.029 28.8261 224.439 28.8893 223.449C29.0156 221.028 29.2051 220.101 30.0895 217.511C30.9108 215.068 33.2482 210.035 35.2066 206.561C35.733 205.634 36.3016 204.392 36.4911 203.823C36.6806 203.234 37.1018 202.476 37.4176 202.139C37.7335 201.781 38.0493 201.339 38.1125 201.149C38.3442 200.517 37.7124 194.916 37.3544 194.369C36.9965 193.842 36.3647 190.641 36.3647 189.441C36.3647 188.83 36.6385 188.472 38.5337 186.619C39.7129 185.461 41.8397 183.566 43.2295 182.429C45.7354 180.407 46.683 179.333 46.683 178.512C46.683 178.133 48.0728 176.575 48.2202 176.785C48.3044 176.891 48.7256 180.597 49.7364 190.241C51.3157 205.297 53.0635 218.627 54.706 228.461C55.3798 232.504 55.5693 233.199 56.1379 233.704C56.4748 233.999 56.6012 233.999 57.4645 233.725C57.991 233.536 58.728 233.073 59.107 232.672C59.7598 231.999 59.7809 231.893 59.6966 230.693L59.6124 229.409L60.7706 228.966C61.9077 228.545 62.6868 228.04 62.6868 227.724C62.6868 227.45 60.0967 228.482 59.5703 228.966C59.1913 229.303 59.107 229.535 59.2123 229.893C59.5703 231.072 59.5703 231.325 59.1913 231.767C58.7912 232.188 57.3382 232.967 56.8749 232.988C56.5801 232.988 56.2221 232.209 56.0326 231.156C55.9484 230.714 55.7167 230.103 55.4851 229.788C55.1692 229.324 55.1271 229.008 55.2324 227.787C55.3377 226.671 55.2535 225.66 54.8323 223.512C54.2006 220.122 53.2319 213.257 52.2633 205.087C51.779 201.065 51.6315 199.022 51.8842 199.97C51.9474 200.244 52.2633 200.033 53.2741 199.022C54.3901 197.906 54.5796 197.59 54.6849 196.79C54.7481 196.264 54.9165 195.8 55.1061 195.716C55.4851 195.527 56.2221 195.211 57.1487 194.874C57.9067 194.579 58.2647 193.821 58.2647 192.452C58.2647 191.968 58.3279 191.505 58.4121 191.42C58.4964 191.357 58.5806 191.126 58.6016 190.936C58.6438 190.726 58.7701 190.368 58.8965 190.115C59.1281 189.715 59.2334 189.694 60.0125 189.862C60.4968 189.967 61.3181 190.241 61.8445 190.494C62.8974 190.978 64.2662 191.02 65.9297 190.662C66.5193 190.536 67.2142 190.389 67.4669 190.325C67.7617 190.262 67.9512 190.368 68.0355 190.599C68.0987 190.81 68.0987 190.557 68.0565 190.031C67.9723 189.104 67.9723 189.083 68.1829 189.799C68.3092 190.199 68.3513 190.704 68.2882 190.936C68.2461 191.147 68.2461 191.273 68.3303 191.189C68.3935 191.126 68.6672 192.094 68.941 193.337C69.1937 194.579 69.6359 196.137 69.9307 196.769C70.2255 197.401 70.5203 198.285 70.5835 198.727C70.6466 199.149 70.9836 199.822 71.2994 200.202C71.6153 200.559 71.9522 201.149 72.0364 201.507C72.1207 201.844 72.3102 202.286 72.4787 202.455C72.6261 202.623 72.7945 203.15 72.8366 203.613C72.984 204.771 73.9948 209.699 74.3949 211.046C74.7318 212.247 76.3954 216.395 77.0271 217.637L77.4062 218.395L75.9953 219.764C75.2161 220.543 74.1211 221.449 73.5526 221.807C72.605 222.396 72.3312 222.459 70.7519 222.459C69.2147 222.459 68.7725 222.354 66.8984 221.617C64.7926 220.775 62.4763 220.312 62.4763 220.712C62.4763 220.838 63.0027 220.985 63.6344 221.07C64.2662 221.133 65.7613 221.575 66.9405 222.059C68.7514 222.775 69.3411 222.923 70.6677 222.923C72.0996 222.944 72.3944 222.881 73.4473 222.291C74.079 221.912 75.2161 221.006 75.9742 220.248C76.7112 219.49 77.3851 218.88 77.4483 218.88C77.6167 218.88 77.701 219.069 78.6064 221.659C79.3224 223.744 80.0384 227.113 80.3963 230.146C80.5227 231.177 81.007 233.03 81.6387 234.884C82.5653 237.6 82.6706 238.042 82.46 238.674C82.3336 239.074 82.1652 240.401 82.0599 241.622C81.9335 243.264 81.723 244.296 81.2176 245.623C80.8596 246.613 80.291 248.403 79.9541 249.624C79.6172 250.845 79.1961 252.235 79.0065 252.74C78.7538 253.456 78.7328 253.835 78.9012 254.425C79.3013 255.878 79.0697 255.815 83.6813 255.667C85.9766 255.583 88.3983 255.457 89.0932 255.373C90.2092 255.267 90.3356 255.183 90.5883 254.593C90.9673 253.667 91.3253 249.54 91.4095 245.202C91.4516 242.001 91.5359 241.327 91.957 240.148C92.4203 238.842 92.5466 237.031 92.3571 234.252C92.336 233.852 92.3992 232.567 92.4834 231.409C92.6308 229.43 92.6098 229.219 92.0623 227.724C91.2832 225.576 90.9041 222.375 91.0726 219.09L91.1989 216.458L92.673 215.195C94.5682 213.573 96.9266 211.783 97.7479 211.341C98.2322 211.088 99.1166 211.004 101.433 210.962C103.118 210.941 104.802 210.815 105.202 210.688C105.602 210.562 105.981 210.52 106.087 210.562C106.171 210.625 106.297 210.583 106.382 210.457C106.466 210.33 106.613 210.309 106.739 210.372C106.887 210.478 106.908 210.414 106.824 210.267C106.697 210.099 106.782 210.035 107.034 210.078C107.287 210.12 107.413 210.035 107.371 209.846C107.329 209.656 107.434 209.614 107.645 209.699C107.856 209.762 107.94 209.741 107.856 209.593C107.771 209.467 107.877 209.404 108.087 209.446C108.319 209.488 108.466 209.404 108.445 209.256C108.424 209.13 108.529 208.962 108.719 208.898C108.929 208.814 108.993 208.877 108.908 209.046C108.824 209.172 108.908 209.13 109.077 208.94C109.245 208.73 109.456 208.646 109.54 208.73C109.645 208.814 109.624 208.751 109.54 208.582C109.414 208.351 109.456 208.309 109.688 208.414C109.877 208.477 110.193 208.351 110.404 208.119C110.593 207.909 110.677 207.719 110.593 207.719C110.488 207.719 110.593 207.593 110.804 207.424C111.035 207.256 111.288 207.172 111.372 207.214C111.456 207.256 111.878 206.877 112.299 206.371C112.741 205.845 113.162 205.466 113.246 205.529C113.331 205.571 113.646 205.297 113.983 204.939C114.299 204.56 114.636 204.245 114.741 204.245C114.847 204.245 115.078 204.055 115.247 203.823C115.415 203.592 115.647 203.402 115.773 203.402C115.9 203.402 116.173 203.171 116.405 202.876C116.658 202.581 116.784 202.497 116.7 202.665C116.616 202.834 116.805 202.728 117.1 202.392C117.395 202.076 117.689 201.823 117.753 201.802C117.795 201.802 117.963 201.76 118.111 201.718C118.258 201.676 118.953 201.591 119.648 201.549C120.764 201.486 120.722 201.486 119.227 201.444L117.542 201.402L115.752 202.813C114.762 203.592 112.973 205.087 111.751 206.14C107.919 209.446 104.865 210.878 102.212 210.562C101.538 210.499 100.317 210.499 99.4957 210.583C98.1901 210.709 97.8321 210.836 96.4844 211.762C95.6421 212.331 94.1049 213.51 93.0941 214.394L91.22 215.995L90.9673 212.984C90.6935 209.614 90.4198 208.224 89.2406 204.118C88.1245 200.265 87.7244 199.275 86.482 197.464L85.4291 195.885L85.1975 192.916C85.029 190.873 85.029 189.083 85.1554 187.293C85.366 184.808 85.366 184.745 85.4291 186.24C85.4712 187.42 85.5134 187.63 85.6186 187.083C85.8082 186.009 86.3557 186.03 88.8615 187.293C90.9462 188.367 91.0515 188.388 92.336 188.262C93.3047 188.178 94.1681 187.904 95.4947 187.251C96.5055 186.767 97.5583 186.346 97.8531 186.325C98.148 186.303 98.9692 186.114 99.7062 185.903C100.991 185.566 101.033 185.566 102.191 186.009C102.865 186.261 103.855 186.809 104.423 187.209L105.434 187.967L106.445 187.167C106.992 186.725 108.087 185.714 108.866 184.914C110.088 183.671 110.256 183.419 110.024 183.124C109.877 182.913 110.13 183.103 110.551 183.482C111.456 184.324 111.625 184.661 110.762 183.903L110.172 183.397L110.677 183.966C110.951 184.282 111.246 184.492 111.351 184.45C111.435 184.387 113.015 185.651 114.847 187.251C118.974 190.852 123.164 194.411 126.134 196.853C127.376 197.885 128.387 198.77 128.387 198.812C128.387 198.875 127.755 199.696 126.976 200.644C126.197 201.57 125.523 202.392 125.481 202.455C125.439 202.497 124.912 202.623 124.323 202.707C123.27 202.834 123.291 202.834 124.639 202.792C126.049 202.749 126.997 202.307 126.871 201.739C126.829 201.612 126.913 201.486 127.018 201.444C127.397 201.318 127.966 200.707 127.924 200.475C127.881 200.349 127.966 200.202 128.071 200.18C128.513 200.033 128.829 199.633 128.724 199.359C128.513 198.833 129.44 199.486 132.598 202.118C137.863 206.456 139.947 208.33 143.885 212.183C146.875 215.089 147.865 215.932 148.518 216.121C148.96 216.247 149.402 216.353 149.487 216.353C149.908 216.353 151.677 214.121 152.519 212.478C154.54 208.604 156.204 206.961 158.605 206.456C159.278 206.308 160.352 205.95 160.942 205.655L162.037 205.129L162.332 203.529C162.563 202.37 162.605 201.465 162.479 200.244C162.121 196.537 162.669 195.084 166.08 190.768C167.575 188.851 168.417 187.567 169.997 184.724C170.123 184.514 166.543 182.745 163.701 181.608L161.131 180.576L160.879 179.67C160.752 179.165 160.626 177.522 160.626 175.985C160.605 173.985 160.479 172.7 160.163 171.352C159.552 168.741 159.573 168.762 159.005 168.552C157.783 168.068 153.824 167.457 148.328 166.867C133.399 165.267 124.933 163.645 116.068 160.718C111.562 159.223 102.76 155.854 100.654 154.843C96.3159 152.716 91.9991 149.537 89.6196 146.715C87.5559 144.251 86.7768 143.114 84.7132 139.492C82.839 136.228 82.3126 135.639 79.4277 133.47C76.6481 131.406 76.7534 131.469 75.4899 130.753C73.8685 129.827 72.6261 128.458 71.6995 126.521C70.4571 123.952 70.3097 122.709 70.7519 118.582C71.2994 113.676 71.51 112.602 72.1838 111.149C72.5208 110.433 72.7945 109.696 72.7945 109.527C72.7945 109.359 72.984 108.811 73.1946 108.306C73.4052 107.8 74.079 106.2 74.6897 104.768C75.7847 102.136 76.7744 100.262 76.4796 101.378C76.3954 101.673 76.248 101.989 76.1427 102.115C76.0374 102.22 75.9742 102.536 75.9742 102.852C75.9953 103.273 76.0163 103.294 76.1006 102.957C76.1637 102.726 76.3533 102.346 76.5007 102.115C76.7744 101.757 76.7955 101.841 76.8165 102.957L76.8376 104.221L77.1113 103.21C77.4272 102.073 77.6378 101.736 77.6588 102.346C77.6588 102.557 77.8694 101.883 78.1432 100.851C78.3959 99.7985 78.7117 98.7667 78.8381 98.535C78.9644 98.3034 79.175 97.777 79.2803 97.3769C79.6593 96.0502 79.554 97.4611 79.1118 100.03C78.817 101.673 78.7538 102.557 78.8802 102.81C79.0697 103.126 79.0908 103.126 79.0697 102.747C79.0486 101.631 79.533 99.4405 79.9331 98.9352L80.3753 98.3666V98.9141C80.3753 99.2089 80.27 99.5248 80.1436 99.5879C80.0173 99.6722 79.9752 99.8828 80.0384 100.051C80.1015 100.22 80.0805 100.304 79.9752 100.241C79.7646 100.093 79.533 100.599 79.533 101.125C79.554 101.441 79.5751 101.441 79.7646 101.104C79.891 100.915 80.0805 100.809 80.2068 100.872C80.3542 100.957 80.3753 100.915 80.291 100.788C80.2068 100.641 80.2279 100.536 80.3332 100.536C80.4595 100.536 80.6069 100.199 80.6701 99.7985C80.9017 98.5561 81.1965 98.7878 81.1334 100.199C81.0912 101.273 80.9228 101.799 80.291 102.936C79.8699 103.715 79.6383 104.284 79.7646 104.2C79.9331 104.115 79.9541 104.221 79.8488 104.558C79.554 105.505 80.9228 103.568 81.4282 102.325C82.1441 100.578 82.1652 101.083 81.4703 102.978C81.1334 103.905 80.7964 105.021 80.7122 105.484C80.5859 106.284 80.6069 106.284 81.0702 105.168C81.3439 104.536 81.8072 103.652 82.1231 103.21C82.4179 102.789 83.0707 101.399 83.555 100.114C84.0604 98.8509 84.5026 97.8401 84.5447 97.8823C84.6079 97.9665 84.1657 99.967 83.2181 103.799C83.1549 104.031 83.0707 104.852 83.0285 105.61C82.9654 106.369 82.8601 107.274 82.7759 107.611C82.6706 108.116 82.6916 108.179 82.9233 107.948C83.0917 107.8 83.1759 107.358 83.1549 106.895C83.1128 106.39 83.1549 106.221 83.2812 106.39C83.4708 106.663 83.8077 105.379 84.8395 100.388C85.0922 99.1878 85.3238 98.2613 85.366 98.3034C85.4081 98.3455 85.2607 99.5037 85.029 100.872C84.8185 102.262 84.5658 103.842 84.4815 104.431C84.292 106.032 83.913 107.695 83.7024 107.821C83.6182 107.885 83.5339 108.053 83.5339 108.179C83.5339 108.327 83.7024 108.201 83.913 107.906C84.3341 107.295 84.7974 107.127 84.7974 107.59C84.7974 107.758 84.6921 107.885 84.5658 107.843C84.4394 107.821 84.271 107.927 84.2288 108.074C84.1446 108.306 84.2078 108.327 84.5447 108.137C84.9448 107.927 85.2817 107.19 85.0501 106.979C84.9869 106.916 84.8185 106.958 84.65 107.084C84.5026 107.211 84.3762 107.253 84.3762 107.148C84.3762 106.874 84.7974 106.284 84.7974 106.537C84.7974 106.642 85.029 106.369 85.3238 105.905C86.103 104.663 86.6715 102.62 86.84 100.557C86.9453 99.3353 87.0295 98.9562 87.1137 99.3774C87.219 99.967 87.2611 99.9249 87.6191 98.7878C87.8508 98.0297 87.956 97.3137 87.8718 96.9136C87.8086 96.5346 87.8086 96.3029 87.8718 96.3872C87.956 96.4714 88.1456 96.4293 88.293 96.3029C88.6509 96.0081 89.1984 97.9244 89.3669 100.072C89.4933 101.883 89.1774 103.399 88.2509 105.231C87.9771 105.779 87.8508 106.179 87.9771 106.095C88.1034 106.032 88.5246 105.316 88.9036 104.515C89.2827 103.736 89.6407 103.126 89.7038 103.189C89.8933 103.399 90.5672 100.199 90.5672 98.9352L90.5883 97.6296L91.3253 97.6927C92.2729 97.7559 92.7993 97.9875 92.7993 98.3245C92.7993 98.7456 93.2415 98.9562 93.431 98.6404C93.5363 98.4508 93.6837 98.5561 93.8733 98.9562C94.1259 99.4195 94.7577 99.7564 97.4531 100.83C99.243 101.567 101.391 102.557 102.212 103.02C103.033 103.505 103.96 103.989 104.255 104.115C104.571 104.221 105.35 104.663 106.024 105.105C107.203 105.863 107.287 105.884 109.582 105.968L111.941 106.053L112.172 107.106C113.057 111.317 107.582 112.833 105.055 109.085L104.381 108.074V108.874C104.381 110.749 106.508 113.802 108.614 114.96C109.54 115.465 109.961 115.55 111.246 115.55C112.551 115.55 112.994 115.444 114.131 114.897C115.436 114.244 118.49 111.633 118.49 111.17C118.49 111.043 117.984 110.643 117.353 110.243C115.268 108.938 115.163 107.485 117.1 106.347C118.132 105.737 118.932 104.873 119.353 103.926C119.521 103.547 119.901 103.189 120.28 103.041C124.302 101.567 126.428 100.957 127.502 100.936C128.155 100.936 128.892 100.851 129.124 100.767C129.671 100.536 133.441 102.389 133.904 103.105C134.093 103.378 134.873 103.884 135.652 104.221C136.957 104.768 137.126 104.789 137.631 104.515C138.431 104.052 138.41 103.61 137.505 102.62L136.705 101.736L137.589 102.199C138.579 102.683 139.547 102.768 139.926 102.389C140.411 101.904 140.221 100.872 139.547 100.22C138.831 99.5248 138.874 99.3142 139.737 99.4405C140.158 99.5037 140.474 99.3984 140.79 99.0826C141.421 98.4508 141.358 97.7138 140.6 97.1663C139.884 96.6609 139.8 96.3661 140.348 96.1766C140.979 95.945 141.443 95.4396 141.443 94.9131C141.443 94.2182 140.495 93.2917 139.905 93.4602C139.674 93.5233 139.358 93.4812 139.21 93.3549C139.084 93.2496 138.305 93.0811 137.484 92.9758C135.925 92.7863 135.483 92.6178 133.756 91.5228C132.051 90.4489 131.545 90.4279 130.429 91.4597C129.798 92.0493 129.313 92.323 128.892 92.323C128.134 92.323 126.239 93.039 125.439 93.6286C124.996 93.9445 124.323 94.1129 122.87 94.2603C120.427 94.492 116.11 94.2603 115.057 93.8392C114.194 93.5023 113.457 93.5444 110.425 94.1129C109.33 94.3025 108.445 94.3656 108.319 94.2603C108.171 94.1761 107.645 93.9655 107.119 93.7971C105.013 93.1864 104.255 92.9127 103.644 92.5336C103.307 92.3441 102.633 92.0493 102.17 91.9019C100.991 91.5228 100.675 91.2491 101.138 90.9964C101.412 90.8279 101.243 90.6805 100.212 90.1962C99.5167 89.8593 98.5902 89.1854 98.148 88.7011C97.2425 87.7114 97.2004 87.7746 99.3904 87.1639C100.064 86.9744 100.549 86.7638 100.506 86.6585C100.443 86.5743 99.8536 86.2795 99.1798 86.0479C98.0848 85.6478 96.5897 84.5528 96.5897 84.1527C96.5897 84.0684 97.0108 83.7736 97.5373 83.4999C98.0637 83.2261 98.4638 82.8892 98.4217 82.7839C98.3585 82.5733 96.6107 82.0469 95.8527 82.0048C95.6 81.9837 94.7156 81.1835 93.6416 79.9832C91.5148 77.5827 89.9144 76.3192 87.6191 75.2453C86.0609 74.5082 85.8713 74.3608 85.5555 73.5185C84.8395 71.6234 85.2607 70.1072 86.7558 69.3281C87.5138 68.9069 87.935 68.8437 89.8512 68.8648C91.7885 68.8858 92.315 68.9701 94.2102 69.6229C97.6847 70.8021 99.9168 72.4235 101.222 74.7188C101.812 75.7507 101.833 75.7507 101.98 75.1821C102.739 72.1077 97.7479 65.9378 92.2097 63.1582C89.6617 61.8947 87.8929 61.5157 84.3762 61.4946C82.6916 61.4735 80.986 61.5367 80.5859 61.642L79.8488 61.7894L78.0168 58.5886C77.0271 56.8198 75.6794 54.3139 75.0477 53.0505C74.416 51.766 73.5947 50.334 73.2367 49.8497C72.1207 48.3125 69.9096 46.0804 69.0673 45.6803C68.6251 45.4487 67.8249 44.9012 67.2774 44.4589C65.7613 43.2376 64.9611 42.9639 62.7921 42.9639C59.2965 42.9639 56.4116 44.2694 53.7794 47.049C51.9895 48.9442 51.0419 50.4604 50.1996 52.7978C49.6311 54.356 49.5679 54.8404 49.4837 57.7885C49.3363 62.1474 49.9259 69.5176 50.5997 72.2761C50.9788 73.7923 51.6947 75.4137 52.4949 76.4456C52.7476 76.8035 53.253 77.5827 53.5899 78.1512L54.2006 79.2041L53.1688 79.9201C51.9895 80.6992 51.2525 81.5204 51.442 81.8363C51.5052 81.9416 51.6105 82.6154 51.6526 83.3314C51.7368 84.5949 51.6947 84.6791 51.1472 84.995C50.8314 85.1845 50.1365 85.732 49.589 86.1953C48.7045 86.9744 48.515 87.0586 47.4832 87.0586C46.8725 87.0586 46.0723 87.1429 45.6933 87.2481C45.1037 87.4166 44.9773 87.3745 44.7036 86.9323C44.2403 86.2584 44.2614 86.2163 45.1668 86.1953C45.7775 86.1953 45.8617 86.1531 45.5248 86.0057C44.9563 85.7741 43.9876 84.7423 43.5665 83.8789C43.3138 83.3946 42.8294 82.9945 41.924 82.5523C40.9974 82.089 39.755 81.0572 37.6071 78.9935C34.4274 75.9612 30.4686 71.7286 30.4686 71.3707C30.4686 71.0759 29.163 69.665 28.805 69.5386C28.6366 69.4965 27.5205 67.7277 26.3413 65.6008L24.1513 61.7473L26.7203 55.3879C28.9314 49.8918 29.3736 48.9653 30.0264 48.3967C30.7423 47.765 30.7844 47.6597 30.8055 46.291C30.8266 45.0696 30.995 44.4168 31.9216 42.1005C32.5322 40.5843 33.164 39.2156 33.3114 39.0471C33.4588 38.8787 33.6272 38.5417 33.7115 38.289C33.7746 38.0574 34.1747 37.6994 34.5959 37.5099L35.354 37.1309L36.7227 38.2469C38.3652 39.5946 39.755 41.3635 40.3867 43.006C40.7868 43.9746 40.8711 44.6274 40.8921 46.312C40.8921 48.8179 40.5342 49.8076 38.9759 51.4711C37.4176 53.1347 35.8383 53.3242 33.3535 52.1239C32.7007 51.8081 32.1532 51.5975 32.1532 51.6607C32.1532 51.9976 33.7746 53.7664 34.7433 54.4824C36.8912 56.1038 39.5023 57.0093 42.0503 57.0304C44.4509 57.0514 45.5248 56.6513 46.8936 55.2826C49.1257 53.0084 49.8838 50.5867 49.8627 45.575C49.8627 42.1005 49.5258 39.4893 48.7677 37.194C48.2834 35.6989 48.3676 35.7411 45.7986 36.1412C44.5351 36.3307 44.0508 36.3307 43.5665 36.1201C42.4293 35.6568 41.2291 34.1828 40.0288 31.8243C38.8706 29.5712 38.8706 29.5291 39.1654 28.771C39.5023 27.8866 39.4392 27.5707 38.8495 26.8968L38.4284 26.4336L38.9969 24.9595C39.4181 23.8856 39.5444 23.3381 39.4181 22.8959C39.3128 22.58 39.2707 22.1799 39.2918 22.0536C39.3549 21.5692 38.9127 21.0007 38.2599 20.7269C37.6703 20.4953 37.544 20.5164 36.5753 21.1692C36.0068 21.5692 35.4803 22.0325 35.4171 22.222C35.354 22.4116 34.9539 22.7274 34.5117 22.9169L33.7115 23.2749L32.2585 22.4326C29.1841 20.6427 28.2365 19.0634 27.4152 14.4096C27.1204 12.725 26.8256 11.1457 26.7624 10.8719C26.5729 9.9454 24.6777 9.71378 22.7404 10.3876ZM50.7892 69.8966C50.9577 71.0548 51.1683 72.2761 51.2104 72.6341C51.3157 73.1816 51.2946 73.1606 51.0209 72.4867C50.5997 71.4128 50.0522 67.3907 50.347 67.7066C50.4102 67.7698 50.5997 68.7384 50.7892 69.8966ZM52.1369 75.2663C52.3686 75.7717 52.3686 75.7717 52.0738 75.3927C51.8842 75.161 51.7368 74.8873 51.7368 74.7609C51.7368 74.5082 51.8421 74.6135 52.1369 75.2663ZM113.71 93.9445C113.562 93.9866 113.267 93.9866 113.078 93.9445C112.867 93.8813 112.994 93.8392 113.331 93.8392C113.689 93.8392 113.836 93.8813 113.71 93.9445ZM82.0599 95.4396C82.0599 95.7554 82.0178 95.7554 81.8493 95.4817C81.5756 95.0605 81.5756 94.7868 81.8493 94.9552C81.9757 95.0184 82.0599 95.2501 82.0599 95.4396ZM84.3131 96.0502C84.2499 96.2608 84.2078 96.0924 84.2078 95.6923C84.2078 95.2922 84.2499 95.1237 84.3131 95.3132C84.3552 95.5238 84.3552 95.8607 84.3131 96.0502ZM82.3758 98.2824L82.0388 98.9562L82.1441 98.1139C82.2073 97.6506 82.2705 97.0821 82.2915 96.8504C82.2915 96.5135 82.3547 96.5556 82.5232 97.0189C82.6916 97.4822 82.6495 97.7559 82.3758 98.2824ZM87.4717 97.419C87.4085 97.5875 87.3454 97.5243 87.3454 97.2926C87.3243 97.061 87.3875 96.9347 87.4507 97.0189C87.5138 97.0821 87.5349 97.2716 87.4717 97.419ZM80.9438 98.0507C80.8807 98.1981 80.8385 98.0928 80.8385 97.798C80.8385 97.5032 80.8807 97.3979 80.9438 97.5243C80.986 97.6717 80.986 97.9244 80.9438 98.0507ZM89.7881 99.1036C89.7249 99.2721 89.6617 99.2089 89.6617 98.9773C89.6407 98.7456 89.7038 98.6193 89.767 98.7035C89.8302 98.7667 89.8512 98.9562 89.7881 99.1036ZM86.2925 102.389C86.103 103.631 85.5555 105.168 85.3238 105.168C85.2817 105.168 85.366 104.726 85.5344 104.157C85.6818 103.61 85.9345 102.557 86.0819 101.799C86.4188 100.051 86.5873 100.514 86.2925 102.389ZM80.3753 103.694C80.2489 103.926 80.1015 104.115 80.0384 104.115C79.9962 104.115 80.0384 103.926 80.1647 103.694C80.291 103.463 80.4385 103.273 80.5016 103.273C80.5437 103.273 80.5016 103.463 80.3753 103.694ZM84.9448 104.894C84.8816 105.105 84.8395 104.979 84.8395 104.642C84.8395 104.284 84.8816 104.136 84.9448 104.263C84.9869 104.41 84.9869 104.705 84.9448 104.894ZM26.9941 170.194C26.7835 170.405 26.6571 170.447 26.7203 170.342C26.7835 170.215 26.8888 169.942 26.9941 169.71C27.0994 169.415 27.1836 169.373 27.2468 169.563C27.3099 169.731 27.1836 170.005 26.9941 170.194ZM158.773 171.71C158.963 172.7 159.152 174.932 159.194 176.68L159.257 179.881L158.773 179.691C158.499 179.586 155.993 178.828 153.172 178.007C150.371 177.185 148.055 176.491 148.013 176.448C147.97 176.406 148.434 175.922 149.023 175.375C149.76 174.68 150.603 174.153 151.571 173.795C152.498 173.437 153.572 172.763 154.646 171.9C156.309 170.531 158.078 169.52 158.31 169.773C158.394 169.857 158.605 170.721 158.773 171.71ZM108.593 181.713C109.224 182.345 109.688 182.871 109.624 182.871C109.582 182.871 109.014 182.345 108.382 181.713C107.75 181.081 107.287 180.555 107.35 180.555C107.392 180.555 107.961 181.081 108.593 181.713ZM163.995 183.629C165.322 183.713 166.333 183.924 167.091 184.261C167.68 184.535 168.186 184.808 168.186 184.872C168.186 185.293 165.954 188.767 164.564 190.494C163.679 191.61 162.605 193.042 162.226 193.695C161.826 194.347 161.468 194.832 161.426 194.769C161.363 194.727 161.321 194.853 161.3 195.042C161.279 195.232 161.174 195.864 161.047 196.453C160.942 197.022 160.879 198.412 160.921 199.507C160.984 200.917 160.942 201.233 160.837 200.559C160.71 199.844 160.668 199.759 160.647 200.223C160.605 200.749 160.563 200.791 160.268 200.538C160.079 200.37 159.742 199.865 159.531 199.401C159.321 198.938 158.92 198.222 158.668 197.822C158.394 197.401 157.994 196.769 157.762 196.39C157.531 196.032 157.236 195.716 157.109 195.716C156.962 195.716 156.878 195.59 156.878 195.442C156.899 195.316 156.73 194.832 156.499 194.39C156.246 193.884 156.183 193.526 156.309 193.4C156.52 193.189 160.184 194.369 160.416 194.727C160.605 195 160.963 194.748 161.089 194.263C161.153 193.968 160.731 193.421 159.447 192.179C156.33 189.146 156.309 189.083 157.046 185.777C157.678 183.018 158.12 182.471 159.299 183.061C159.489 183.166 160.163 183.334 160.795 183.461C161.89 183.65 161.932 183.629 161.511 183.313C160.121 182.218 159.994 182.071 160.942 182.724C161.932 183.397 162.226 183.482 163.995 183.629ZM67.6775 187.967C67.6143 188.135 67.5512 188.072 67.5512 187.841C67.5301 187.609 67.5933 187.483 67.6564 187.567C67.7196 187.63 67.7407 187.82 67.6775 187.967ZM67.8881 188.809C67.8249 188.978 67.7617 188.915 67.7617 188.683C67.7407 188.451 67.8038 188.325 67.867 188.409C67.9302 188.472 67.9512 188.662 67.8881 188.809ZM160.963 202.286C160.9 202.434 160.858 202.328 160.858 202.034C160.858 201.739 160.9 201.633 160.963 201.76C161.005 201.907 161.005 202.16 160.963 202.286ZM160.752 203.655C160.689 203.866 160.647 203.739 160.647 203.402C160.647 203.044 160.689 202.897 160.752 203.023C160.795 203.171 160.795 203.465 160.752 203.655ZM114.068 204.624C114.068 204.666 113.857 204.876 113.604 205.108L113.12 205.508L113.52 205.024C113.899 204.582 114.068 204.455 114.068 204.624ZM112.383 206.098C112.383 206.14 112.13 206.392 111.814 206.687L111.225 207.193L111.73 206.603C112.214 206.077 112.383 205.929 112.383 206.098ZM110.488 207.803C110.488 207.845 110.319 208.014 110.13 208.161C109.793 208.435 109.772 208.414 110.046 208.077C110.319 207.74 110.488 207.635 110.488 207.803Z" fill="black"/>
        <path d="M162.458 183.861C162.711 183.903 163.09 183.903 163.3 183.861C163.49 183.797 163.279 183.755 162.816 183.776C162.353 183.776 162.184 183.818 162.458 183.861Z" fill="black"/>
        <path d="M164.774 184.071C165.027 184.114 165.406 184.114 165.617 184.071C165.806 184.008 165.596 183.966 165.132 183.987C164.669 183.987 164.501 184.029 164.774 184.071Z" fill="black"/>
        <path d="M50.7681 84.3418C50.368 84.8051 50.368 84.8051 50.8523 84.5103C51.105 84.3418 51.3156 84.1523 51.3156 84.0681C51.3156 83.8154 51.1892 83.8785 50.7681 84.3418Z" fill="black"/>
        <path d="M77.8694 103.189C77.8694 103.421 77.9325 103.484 77.9957 103.315C78.0589 103.168 78.0378 102.979 77.9747 102.915C77.9115 102.831 77.8483 102.957 77.8694 103.189Z" fill="black"/>
        <path d="M62.034 223.766C62.1182 224.355 62.1604 224.376 62.2235 223.955C62.2656 223.681 62.2235 223.387 62.1182 223.281C61.9919 223.155 61.9708 223.345 62.034 223.766Z" fill="black"/>
        <path d="M62.3076 225.092C62.3076 225.429 62.3497 225.555 62.4129 225.345C62.455 225.155 62.455 224.86 62.4129 224.713C62.3497 224.587 62.3076 224.734 62.3076 225.092Z" fill="black"/>
        <path d="M58.728 226.461C58.728 226.861 58.7701 227.029 58.8333 226.818C58.8754 226.629 58.8754 226.292 58.8333 226.081C58.7701 225.892 58.728 226.06 58.728 226.461Z" fill="black"/>
        <path d="M62.5394 226.565C62.5394 227.029 62.5815 227.197 62.6236 226.923C62.6658 226.671 62.6658 226.292 62.6236 226.081C62.5605 225.892 62.5184 226.102 62.5394 226.565Z" fill="black"/>
        <path d="M58.9385 228.356C58.9385 228.756 58.9806 228.924 59.0438 228.714C59.0859 228.524 59.0859 228.187 59.0438 227.976C58.9806 227.787 58.9385 227.955 58.9385 228.356Z" fill="black"/>
    </g>
    <defs>
        <filter id="filter0_d" x="0" y="0" width="190" height="265.74" filterUnits="userSpaceOnUse" color-interpolation-filters="sRGB">
            <feFlood flood-opacity="0" result="BackgroundImageFix"/>
            <feColorMatrix in="SourceAlpha" type="matrix" values="0 0 0 0 0 0 0 0 0 0 0 0 0 0 0 0 0 0 127 0"/>
            <feOffset dx="10"/>
            <feGaussianBlur stdDeviation="5"/>
            <feColorMatrix type="matrix" values="0 0 0 0 0.345098 0 0 0 0 0.74902 0 0 0 0 0.00392157 0 0 0 1 0"/>
            <feBlend mode="normal" in2="BackgroundImageFix" result="effect1_dropShadow"/>
            <feBlend mode="normal" in="SourceGraphic" in2="effect1_dropShadow" result="shape"/>
        </filter>
    </defs>
</svg>
