<svg width="150" height="150" viewBox="0 0 150 150" fill="none" xmlns="http://www.w3.org/2000/svg">
    <path d="M75 150C116.421 150 150 116.421 150 75C150 33.5786 116.421 0 75 0C33.5786 0 0 33.5786 0 75C0 116.421 33.5786 150 75 150Z" fill="#302C2C"/>
    <path d="M72.656 126.562L68.8592 126.141C62.0428 125.34 55.4582 123.172 49.4998 119.766C49.406 119.766 49.3592 119.672 49.1717 119.531L80.156 96.375L83.2967 99.4219L88.4529 104.484C88.9217 104.953 89.2029 104.953 89.6717 104.672C94.8296 102.1 99.2372 98.2413 102.469 93.4688L102.937 92.7188L103.359 93.1875L114.14 107.531C114.469 107.953 114.422 108.188 114.14 108.562C105.703 118.078 95.3904 123.938 82.8279 125.906C81.2342 126.188 79.6404 126.281 78.0467 126.422L77.4373 126.562H72.656ZM77.2029 23.4375L79.8279 23.7187C87.1873 24.4219 94.1248 26.5781 100.547 30.2812C100.64 30.2812 100.734 30.375 100.875 30.5156L69.3748 53.0625L68.156 51.9375C65.9529 49.7812 63.7029 47.625 61.5467 45.4219C61.1717 45.0937 60.8904 45.0469 60.4685 45.2812C55.2252 47.8655 50.749 51.7761 47.4842 56.625L47.0154 57.3281L35.4373 41.9531C36.6092 40.6875 37.6873 39.4688 38.8592 38.3438C46.2464 31.0049 55.6997 26.0984 65.9529 24.2812C67.9685 23.9062 70.031 23.8125 72.0467 23.5781C72.3279 23.5781 72.5154 23.4844 72.7498 23.4375H77.156H77.2029ZM30.281 49.3594L53.7185 80.0625L48.9373 84.9375L45.4217 88.5469C45.0935 88.875 45.0467 89.1094 45.281 89.5312C47.8616 94.777 51.773 99.2541 56.6248 102.516L57.0935 102.844L57.2342 103.078L41.9529 114.562C32.9572 107.062 26.803 96.7056 24.5154 85.2188C21.9373 72.6094 24.0467 60.7031 30.281 49.3594ZM96.7029 69.8438L101.015 65.3906L104.625 61.6406C105 61.3125 105 60.9844 104.765 60.5625C102.164 55.2495 98.2018 50.7207 93.281 47.4375L92.6717 46.9688L108.047 35.4375C117.287 43.1782 123.52 53.9142 125.661 65.7765C127.803 77.6389 125.716 89.8766 119.765 100.359L96.7029 69.8906V69.8438Z" fill="white"/>
</svg>
