<svg width="201" height="202" viewBox="0 0 201 202" fill="none" xmlns="http://www.w3.org/2000/svg">
    <g filter="url(#filter0_d)">
        <mask id="path-1-inside-1" fill="white">
            <path d="M123.394 10.2609C124.112 10.4765 124.256 10.6023 124.256 10.9617C124.256 11.2851 124.382 11.4109 124.795 11.5007C125.316 11.6086 125.55 11.95 125.101 11.95C124.993 11.95 125.029 12.0398 125.191 12.1476C125.37 12.2375 125.514 12.4171 125.514 12.5429C125.514 12.6867 125.801 12.7406 126.376 12.7047C127.149 12.6507 127.311 12.7047 127.796 13.1898C128.371 13.7648 128.748 14.8789 128.748 16.0289C128.748 16.4062 128.91 17.3226 129.108 18.0593C129.305 18.7961 129.467 19.425 129.467 19.4609C129.467 19.4968 129.359 19.4609 129.234 19.389C129.126 19.2992 129.234 19.5328 129.485 19.8742C130.545 21.2937 130.743 21.6171 131.156 22.7492C131.767 24.3843 132.216 27.6367 132.127 29.6492L132.037 31.2664L137.374 36.5672C140.303 39.4781 145.172 44.4914 148.173 47.7078C151.174 50.9242 154.247 54.1765 154.983 54.9492L156.331 56.3507L157.373 56.0812C157.93 55.9375 158.577 55.6859 158.793 55.5421C159.242 55.2187 160.302 55.1648 160.464 55.4343C160.518 55.5242 160.877 55.614 161.255 55.614C161.74 55.614 162.045 55.7398 162.351 56.0632C162.89 56.6382 162.764 57.2851 161.83 58.6328C161.452 59.1898 161.075 59.8367 161.003 60.0703C160.877 60.4836 160.895 60.4836 161.398 60.232C161.668 60.0882 162.063 59.8007 162.243 59.5851C162.53 59.2617 164.022 58.6687 164.525 58.6687C164.597 58.6687 165.046 58.9921 165.495 59.3875C165.945 59.7828 166.466 60.1062 166.645 60.1062C167.041 60.1062 167.472 60.5734 167.652 61.1843C167.723 61.4359 168.029 62.0109 168.316 62.4781C168.694 63.0711 168.82 63.4484 168.73 63.7179C168.658 63.9515 168.73 64.3289 168.909 64.6703C169.466 65.6945 169.089 66.6468 167.831 67.5453C167.49 67.7968 167.508 67.8328 168.46 68.857C168.999 69.432 169.646 70.025 169.898 70.1867C170.599 70.6359 171.461 71.5523 172.234 72.6664C172.827 73.5468 174.624 75.2 174.983 75.2C175.145 75.2 176.852 76.4039 177.391 76.889C177.624 77.0867 177.804 77.3742 177.804 77.5359C177.804 77.6976 177.966 77.9851 178.164 78.1648C178.864 78.7937 178.451 80.1953 177.481 80.5007C177.157 80.5906 176.942 80.4828 176.456 79.9437C176.115 79.5664 175.828 79.189 175.828 79.1171C175.828 79.0453 175.522 78.9734 175.145 78.9734C174.372 78.9734 174.031 78.7578 172.108 77.0328C171.263 76.2781 170.796 75.739 170.742 75.3796C170.67 75.0382 170.437 74.7507 170.077 74.5711C169.79 74.4273 169.377 73.9781 169.179 73.5828C168.981 73.1875 168.424 72.5765 167.939 72.2351C167.472 71.8937 167.005 71.4265 166.897 71.1929C166.789 70.9773 166.286 70.3125 165.765 69.7554C164.848 68.7492 164.812 68.7312 163.896 68.7671C163.393 68.7851 161.758 68.7671 160.284 68.7492C157.625 68.6953 157.553 68.6953 155.343 69.3601C152.755 70.1328 151.192 70.2406 150.042 69.7375C149.359 69.432 149.179 69.432 146.214 69.7375C143.267 70.0429 142.98 70.0429 140.914 69.7554C139.71 69.5757 138.524 69.396 138.29 69.3242L137.859 69.2164L138.326 69.8273C139.206 70.9953 139.53 71.9476 139.53 73.4929C139.53 75.9906 139.027 77.5179 137.607 79.2789C137.284 79.6921 137.014 80.1054 137.014 80.1953C137.014 80.375 138.092 83.3757 139.135 86.0531C139.386 86.7359 139.889 87.6343 140.249 88.0656C140.59 88.4789 141.147 89.3054 141.489 89.8804C142.117 90.9406 143.663 92.5398 144.22 92.7195C144.382 92.7734 144.651 93.0968 144.831 93.4203C145.01 93.7437 145.388 94.157 145.675 94.3367C145.981 94.5164 146.232 94.8398 146.304 95.1453C146.358 95.4328 146.502 95.7023 146.646 95.7562C146.789 95.8101 146.897 95.9539 146.897 96.0617C146.897 96.3671 145.981 96.0796 145.496 95.6304L145.064 95.2351L145.388 95.9539C145.568 96.3492 146.017 97.0679 146.394 97.5531C147.328 98.757 147.562 99.5835 147.293 100.841L147.077 101.848L147.993 102.89C149.054 104.112 149.287 104.974 148.802 105.944C148.64 106.268 148.532 106.537 148.55 106.555C148.586 106.573 148.928 106.699 149.323 106.861C151.21 107.616 152.144 108.047 152.432 108.298C152.971 108.784 153.564 109.017 154.66 109.161C155.343 109.269 155.9 109.448 156.133 109.682C156.439 109.969 156.583 110.005 156.744 109.844C156.906 109.682 157.301 109.79 158.451 110.311C159.26 110.688 160.248 111.155 160.644 111.335C161.057 111.515 161.542 111.856 161.758 112.108C161.973 112.359 162.494 112.647 162.926 112.755C163.86 113.006 164.543 113.366 164.759 113.707C165.01 114.102 164.723 114.875 164.219 115.198C163.788 115.486 163.734 115.468 162.476 114.839C161.758 114.498 160.769 114.066 160.284 113.923C159.781 113.761 159.026 113.437 158.577 113.222C158.128 112.988 157.337 112.665 156.834 112.485C156.313 112.323 155.846 112.108 155.792 112.018C155.72 111.928 155.522 111.856 155.325 111.856C154.876 111.856 153.492 111.245 152.647 110.67C152.306 110.437 151.839 110.239 151.623 110.239C151.39 110.239 150.545 109.969 149.736 109.628C147.239 108.604 146.933 108.532 146.538 108.891C146.268 109.143 145.963 109.179 144.975 109.107C144.31 109.053 143.555 108.963 143.303 108.927C143.052 108.891 142.603 108.837 142.297 108.837C142.01 108.819 141.596 108.658 141.399 108.478C140.734 107.903 139.871 107.544 139.422 107.652C139.153 107.723 138.811 107.652 138.506 107.454C138.164 107.22 138.003 107.184 137.949 107.346C137.679 108.155 136.583 108.352 136.403 107.616C136.295 107.238 136.242 107.184 136.026 107.364C135.846 107.508 135.487 107.544 135.056 107.472C134.66 107.418 134.211 107.418 134.031 107.49C133.708 107.616 134.049 107.723 137.284 108.532C138.595 108.855 139.799 109.341 141.686 110.293C145.082 112.018 148.209 113.24 152.198 114.372C153.977 114.875 157.247 116.025 159.476 116.923C161.704 117.822 164.723 118.99 166.214 119.529C171.605 121.505 175.163 123.554 177.445 125.998C179.601 128.316 180.23 129.933 180.23 133.239C180.212 135.162 180.158 135.665 179.781 136.653C178.99 138.827 177.624 140.624 176.007 141.648C175.468 142.008 174.031 142.996 172.845 143.841L170.652 145.404L171.174 145.709C171.587 145.961 171.659 146.087 171.533 146.338C171.281 146.805 170.041 147.902 167.903 149.537C165.154 151.675 162.782 154.28 160.374 157.856C159.799 158.701 158.757 159.994 158.056 160.731C156.205 162.672 154.336 165.331 153.618 167.038C153.294 167.847 152.683 168.907 152.288 169.374C151.677 170.111 151.569 170.362 151.515 171.225C151.479 171.836 151.336 172.357 151.156 172.555C150.868 172.878 150.868 172.932 151.497 173.579C152.306 174.441 153.69 175.34 156.223 176.634C158.038 177.568 158.272 177.64 158.739 177.46C159.134 177.28 159.368 177.316 160.051 177.604C161.183 178.089 164.83 179.149 166.502 179.491C167.256 179.652 168.011 179.832 168.173 179.886C168.658 180.084 169.035 180.964 168.891 181.665C168.802 182.15 168.856 182.312 169.071 182.402C169.682 182.635 169.377 183.138 168.316 183.605C165.945 184.648 163.447 185.169 160.877 185.169C158.433 185.169 156.816 184.953 151.839 184.001C148.874 183.444 147.023 183.192 145.28 183.102C141.075 182.905 138.038 182.366 136.439 181.557C135.702 181.18 135.541 180.641 136.044 180.353C136.295 180.209 136.313 180.066 136.116 179.167C135.9 178.071 135.936 177.64 136.529 175.789C136.852 174.729 136.87 174.513 136.655 174.118C136.403 173.633 136.493 172.95 137.14 170.884C137.643 169.266 137.733 169.087 138.344 168.404C138.685 168.027 139.081 167.344 139.26 166.877C139.458 166.337 139.907 165.709 140.5 165.134C141.021 164.63 141.758 163.66 142.135 162.977C142.513 162.277 143.196 161.216 143.627 160.587C144.058 159.977 144.651 158.88 144.921 158.162C145.19 157.443 145.693 156.401 146.035 155.844C146.376 155.287 146.807 154.227 146.987 153.508C147.149 152.789 147.58 151.657 147.903 150.974C148.245 150.309 148.874 148.71 149.323 147.416C149.952 145.53 150.096 144.901 150.024 144.236C149.934 143.463 150.006 143.302 150.797 142.134C151.282 141.451 151.821 140.858 152.018 140.804C152.216 140.768 152.486 140.588 152.611 140.409C152.737 140.229 152.935 140.121 153.061 140.175C153.186 140.211 153.6 139.923 153.995 139.528C154.426 139.097 154.858 138.809 155.127 138.809C155.343 138.809 155.81 138.594 156.151 138.324L156.762 137.839L154.121 137.174C152.647 136.815 150.419 136.096 149.054 135.521C145.837 134.209 140.662 132.952 137.104 132.628C135.145 132.448 134.391 132.305 133.762 131.999L132.935 131.586L129 132.017C122.89 132.7 121.004 132.448 115.559 130.202C113.223 129.232 112.45 128.98 112.199 129.124C112.019 129.214 111.318 129.789 110.653 130.382C109.485 131.442 107.114 133.077 105.892 133.706C105.568 133.868 105.137 134.137 104.939 134.317C104.742 134.497 103.646 135 102.513 135.431C101.363 135.88 99.9978 136.491 99.4587 136.797C98.9196 137.102 97.7876 137.695 96.943 138.109C95.3797 138.881 93.8703 139.852 91.1929 141.774C90.3484 142.385 88.821 143.463 87.7788 144.2C86.7365 144.937 85.1912 146.051 84.3287 146.698L82.7833 147.866L84.742 149.932C88.8749 154.334 96.4399 161.288 102.064 165.834C103.142 166.715 104.364 167.739 104.76 168.098C106.179 169.41 113.69 174.944 117.841 177.748C120.483 179.509 121.201 180.084 121.201 180.371C121.201 180.623 118.919 180.407 115.631 179.868C113.529 179.509 112.217 179.383 110.24 179.383C107.814 179.383 107.563 179.419 106.557 179.85C105.964 180.119 105.191 180.605 104.849 180.928C102.963 182.707 101.831 183.066 99.0095 182.833C97.9134 182.743 95.4516 182.419 93.5289 182.114C89.8093 181.503 86.485 181.305 84.9935 181.575C84.4904 181.683 83.1427 182.168 81.9927 182.653C80.8427 183.156 79.7106 183.552 79.477 183.552C79.2434 183.552 78.8122 183.623 78.5067 183.713C77.9676 183.857 73.3136 183.534 72.6847 183.3C72.5409 183.246 71.894 183.12 71.2472 183.03C70.6003 182.923 69.3963 182.725 68.5697 182.581C67.7252 182.419 66.2338 182.222 65.2275 182.114C63.0712 181.898 61.5258 182.132 59.693 182.994C57.0336 184.234 56.782 184.306 55.4523 184.396C54.446 184.468 53.9069 184.414 53.4218 184.216C53.0444 184.055 52.703 184.001 52.6491 184.091C52.5592 184.234 51.3553 184.037 50.5647 183.713C50.3131 183.623 49.792 183.498 49.3967 183.462C49.0193 183.426 47.9232 183.21 46.9888 183.012C44.6708 182.473 42.5684 182.402 41.5082 182.779C41.059 182.959 40.6996 183.156 40.6996 183.228C40.6996 183.3 40.5918 183.372 40.448 183.372C40.3223 183.372 40.1066 183.48 39.9988 183.623C39.891 183.749 39.6215 183.821 39.3879 183.785C39.1363 183.731 38.8668 183.821 38.741 183.983C38.4715 184.306 37.3753 184.378 37.1956 184.073C37.1238 183.965 36.9441 183.929 36.7823 184.001C36.6026 184.073 36.369 183.947 36.1714 183.695C35.9198 183.372 35.812 183.336 35.6862 183.516C35.5604 183.713 35.3987 183.713 34.8417 183.552C34.4464 183.444 33.5659 183.192 32.883 183.012C32.1823 182.833 30.7447 182.402 29.6845 182.024C27.9236 181.431 25.4438 180.982 24.9766 181.162C24.8688 181.198 24.5274 181.575 24.2039 182.006C23.8805 182.437 23.3414 182.994 23 183.21C22.6586 183.444 22.2812 183.875 22.1555 184.162C21.8859 184.809 20.682 185.582 19.1546 186.085C17.6272 186.588 17.2858 186.912 16.603 188.565C16.2975 189.319 15.9561 190.02 15.8663 190.146C15.7764 190.272 15.7405 190.523 15.7944 190.703C15.8663 190.901 15.8303 191.242 15.7405 191.494C15.5788 191.925 15.5428 191.925 13.71 191.889C11.7513 191.853 10.7451 191.691 7.99579 190.973C4.7254 190.092 4.49181 190.02 4.04257 189.679C3.46756 189.266 3.35974 188.529 3.82695 188.187C4.0246 188.062 4.22226 187.63 4.3121 187.199C4.49181 186.139 5.04884 185.384 6.34262 184.486C6.97154 184.037 7.45671 183.677 7.42078 183.641C7.33093 183.569 3.10818 183.875 2.67693 183.983C2.17378 184.109 2.06596 184.702 2.06596 187.235C2.06596 190.2 1.5808 191.134 0.772186 189.751C-0.0184479 188.385 -0.108292 187.397 0.0893555 181.665C0.340927 173.777 0.790161 170.614 2.33551 166.14C4.58165 159.617 8.44501 155.323 15.0217 151.998C15.9561 151.549 18.0405 150.651 19.6757 150.004C26.0727 147.524 27.3665 146.985 28.8939 146.23C33.2245 144.074 36.5488 141.217 39.0824 137.48C40.3402 135.593 40.8254 134.766 43.2692 130.184C46.6115 123.913 48.2467 121.236 51.1577 117.283C51.8405 116.366 52.5413 115.216 52.7389 114.731C53.278 113.348 54.5179 110.958 55.2546 109.88C55.614 109.341 56.1531 108.442 56.4226 107.903C57.1414 106.466 58.2016 104.812 59.6391 102.872C61.0587 100.949 61.2204 100.5 62.1727 96.2234C62.5321 94.5882 63.3407 91.6773 63.9697 89.7546C64.5986 87.832 65.4431 85.1546 65.8564 83.825C66.7189 81.0398 68.0666 78.632 69.7737 76.7812C70.0253 76.5117 70.2049 76.2601 70.151 76.2062C70.1151 76.1703 68.0127 75.2718 65.497 74.2117C62.9813 73.1515 59.9086 71.8398 58.6688 71.3007C56.3328 70.2586 54.1765 69.0546 54.4999 68.9468C54.9491 68.8031 57.0695 69.5937 63.6462 72.3968C67.5096 74.032 70.7261 75.3796 70.7979 75.3796C70.8518 75.3796 71.7323 74.7507 72.7566 73.9781C73.7808 73.2234 75.3261 72.0914 76.2066 71.4804C78.3629 69.9711 80.6091 68.1562 84.3467 64.9039C86.0717 63.3945 88.2999 61.4898 89.3241 60.6453C90.6179 59.5492 91.5343 58.5789 92.4867 57.3211C93.2234 56.3328 94.1219 55.2547 94.4992 54.9492C94.8586 54.6257 95.6492 53.7812 96.2243 53.0804C97.6258 51.4093 99.261 50.0078 102.37 47.8156C103.825 46.7914 106.125 45.9109 107.76 45.7851C109.396 45.6414 109.629 45.3898 109.557 43.7906C109.521 43.0718 109.647 41.8679 109.863 40.8078C110.078 39.8375 110.24 38.9031 110.222 38.7414C110.204 38.3461 109.539 40.4843 109.503 41.0593C109.468 41.4547 109.468 41.4547 109.396 41.1312C109.36 40.9156 109.45 40.1968 109.611 39.532C109.845 38.4539 109.863 37.9687 109.629 38.2023C109.45 38.382 108.982 41.1492 108.964 42.1734C108.946 42.8023 108.875 43.539 108.803 43.8445L108.677 44.3836L108.569 43.7547C108.282 42.1195 108.246 39.8375 108.515 38.5437C108.767 37.1961 109.018 34.8062 108.857 35.3093C108.803 35.4531 108.641 35.8484 108.479 36.1898C108.317 36.5312 108.138 37.0882 108.066 37.4476L107.94 38.0945L107.922 37.2679C107.922 36.8007 108.03 36.082 108.174 35.6687C108.461 34.8421 108.533 34.0336 108.264 34.6804C108.138 34.9679 108.102 34.932 108.102 34.4109C108.102 33.6382 109.198 30.7453 109.414 30.9429C109.503 31.0148 109.521 30.9968 109.468 30.889C109.414 30.7812 109.432 29.8468 109.503 28.8226C109.647 27.0617 109.719 26.8281 110.653 24.8875C111.282 23.5757 111.821 22.1203 112.127 20.9343C113.241 16.4242 113.924 14.3937 114.75 13.1539C115.254 12.3812 115.721 12.0937 117.212 11.6625C117.338 11.6265 117.392 11.5007 117.32 11.3929C117.248 11.2672 117.266 11.2312 117.392 11.3031C117.482 11.357 117.608 11.3211 117.643 11.2132C117.715 11.0156 118.434 10.8539 120.626 10.5843C121.183 10.5125 121.633 10.3507 121.687 10.225C121.794 9.91949 122.315 9.91949 123.394 10.2609ZM117.697 11.5906C117.518 11.7882 117.446 11.95 117.554 11.95C117.643 11.95 117.877 11.7882 118.057 11.5906C118.236 11.3929 118.308 11.2312 118.201 11.2312C118.111 11.2312 117.877 11.3929 117.697 11.5906ZM115.415 12.7945C114.93 13.3156 113.942 15.1664 114.068 15.2921C114.104 15.3461 114.373 15.0765 114.661 14.6992C114.948 14.3218 115.397 13.8367 115.649 13.621C115.954 13.3515 116.116 13.0461 116.098 12.7586C116.08 12.1835 115.99 12.2015 115.415 12.7945ZM126.161 13.0101C126.089 13.1 126.215 13.1359 126.412 13.082C126.826 12.9742 126.88 12.8484 126.52 12.8484C126.376 12.8484 126.215 12.9203 126.161 13.0101ZM126.341 13.3156C125.891 13.4953 125.999 13.9086 126.538 14.1242C126.826 14.232 127.221 14.4836 127.437 14.6812L127.85 15.0585V14.5375C127.85 13.9625 127.293 13.2078 126.862 13.2078C126.736 13.2078 126.502 13.2617 126.341 13.3156ZM128.263 14.8609C128.317 15.0047 128.371 14.9507 128.371 14.7531C128.389 14.5554 128.335 14.4476 128.281 14.5195C128.227 14.5734 128.209 14.7351 128.263 14.8609ZM128.443 15.7593C128.497 15.8851 128.533 15.7953 128.533 15.5437C128.533 15.2921 128.497 15.2023 128.443 15.3101C128.407 15.4359 128.407 15.6515 128.443 15.7593ZM114.912 16.2804C114.912 16.532 115.002 16.4781 115.469 15.975L115.9 15.4898L115.397 15.8132C115.128 15.975 114.912 16.1906 114.912 16.2804ZM126.053 15.957C126.053 16.2625 126.916 17.089 127.059 16.9273C127.293 16.7117 126.736 15.7234 126.394 15.7234C126.197 15.7234 126.053 15.8312 126.053 15.957ZM113.744 16.6578C113.313 17.7539 112.936 19.0117 113.025 19.1015C113.061 19.1554 113.187 18.9578 113.313 18.6703C113.582 17.9695 114.122 16.6039 114.283 16.2086C114.355 16.0468 114.337 15.9031 114.229 15.9031C114.139 15.9031 113.906 16.2445 113.744 16.6578ZM114.822 17.2687C114.625 17.3765 114.283 17.9335 114.068 18.5265C113.529 20 113.564 20.1078 114.247 18.9578C114.571 18.4007 114.966 17.7539 115.128 17.5203C115.307 17.2867 115.451 16.9992 115.451 16.8914C115.451 16.7656 115.397 16.7656 115.307 16.8914C115.236 16.9812 115.02 17.1609 114.822 17.2687ZM126.412 17.125C126.412 17.1968 126.574 17.3586 126.79 17.4843C127.131 17.7 127.131 17.682 126.951 17.3406C126.772 16.9992 126.412 16.8375 126.412 17.125ZM128.443 18.275C128.479 18.5086 128.515 18.3289 128.515 17.8797C128.515 17.4304 128.479 17.2507 128.443 17.4664C128.407 17.7 128.407 18.0593 128.443 18.275ZM112.864 21.6531C112.81 22.1382 112.81 22.3539 112.918 22.1922C112.989 22.0484 113.115 21.5632 113.169 21.114C113.223 20.6648 113.205 20.4312 113.133 20.575C113.043 20.7187 112.936 21.2039 112.864 21.6531ZM111.732 23.6835C111.246 25.0492 111.211 25.2648 111.516 24.8875C111.965 24.3304 112.199 23.7554 112.379 22.7672C112.612 21.5273 112.343 21.9046 111.732 23.6835ZM111.264 26.9898C111.193 27.3132 111.211 27.5828 111.3 27.5828C111.498 27.5828 111.678 26.9359 111.66 26.2351C111.66 25.7859 111.624 25.75 111.516 26.0554C111.444 26.2531 111.318 26.6843 111.264 26.9898ZM109.755 31.5718C109.809 31.7156 109.863 31.6617 109.863 31.464C109.881 31.2664 109.827 31.1586 109.773 31.2304C109.719 31.2843 109.701 31.4461 109.755 31.5718ZM108.91 32.7937C108.749 33.3328 108.695 33.6922 108.767 33.6023C108.91 33.4226 109.342 32.0929 109.342 31.8054C109.342 31.5 109.18 31.8414 108.91 32.7937ZM109.468 33.4226L109.36 33.9617L109.611 33.4226C109.755 33.1171 109.863 32.6859 109.863 32.4343L109.845 31.9851L109.719 32.4343C109.647 32.6859 109.521 33.1171 109.468 33.4226ZM110.114 33.7281C110.168 33.8718 110.222 33.8179 110.222 33.6203C110.24 33.4226 110.186 33.3148 110.132 33.3867C110.078 33.4406 110.06 33.6023 110.114 33.7281ZM131.785 37.1961C131.641 38.7773 131.498 39.6757 131.444 39.3523C131.3 38.6156 131.138 39.0828 130.959 40.664C130.869 41.5804 130.815 41.7601 130.707 41.4187C130.635 41.1312 130.581 41.4726 130.563 42.3531C130.545 43.1617 130.473 43.7547 130.366 43.7547C130.258 43.7547 130.186 43.6468 130.168 43.5211C130.15 43.4132 130.078 43.5031 129.988 43.7547C129.88 44.0781 129.862 43.9343 129.934 43.2515C129.988 42.6765 129.952 42.3172 129.827 42.3172C129.737 42.3172 129.629 42.5328 129.629 42.8023C129.611 43.2515 129.593 43.2336 129.485 42.6765C129.359 42.0656 129.359 42.0656 129.072 43.2156C128.82 44.2218 128.784 44.2937 128.748 43.7547L128.712 43.1257L128.461 43.8445L128.209 44.5632L128.317 43.7547C128.515 42.2812 128.677 40.7 128.623 40.7C128.479 40.7 127.67 42.7125 127.491 43.4492C127.383 43.9343 127.149 44.6171 126.969 44.9765C126.79 45.3539 126.466 46.2882 126.233 47.0789C125.694 49.0195 125.694 49.0195 125.801 47.7976L125.909 46.7195L125.298 47.8515C124.795 48.8398 124.687 48.9296 124.598 48.5703C124.508 48.175 124.508 48.175 124.4 48.5164C124.346 48.714 124.238 49.0015 124.184 49.1632C124.094 49.3789 124.256 49.5765 124.849 49.9179C125.28 50.1695 126.035 50.7265 126.52 51.1578C127.005 51.589 127.616 52.0382 127.886 52.1461C128.587 52.4695 129.773 53.5836 130.222 54.3742C130.437 54.7515 130.833 55.1468 131.138 55.2726C131.426 55.3984 132.091 55.8117 132.594 56.189C133.097 56.5664 133.798 56.9617 134.157 57.0515C134.516 57.1593 135.109 57.5187 135.469 57.8601C135.846 58.2015 136.277 58.489 136.457 58.489C136.619 58.489 137.607 58.7765 138.631 59.1359C140.231 59.6929 140.698 59.7828 141.686 59.7289C143.483 59.621 146.682 59.7109 148.029 59.9086C148.982 60.0523 149.341 60.0343 149.736 59.8187C150.383 59.4953 151.048 59.4953 152.36 59.8726C153.15 60.0882 153.456 60.1242 153.51 59.9625C153.546 59.8367 153.761 59.7468 153.995 59.7468C154.354 59.7468 154.462 59.6031 154.624 59.0101C154.804 58.3812 154.786 58.2195 154.498 57.8961C154.085 57.4109 144.705 47.3664 140.698 43.1257C136.349 38.5078 132.091 34.1953 132.055 34.357C132.037 34.4289 131.911 35.7047 131.785 37.1961ZM109.935 34.8062C109.989 34.95 110.043 34.8961 110.043 34.6984C110.06 34.5007 110.007 34.3929 109.953 34.4648C109.899 34.5187 109.881 34.6804 109.935 34.8062ZM109.755 35.525C109.809 35.6687 109.863 35.6148 109.863 35.4171C109.881 35.2195 109.827 35.1117 109.773 35.1835C109.719 35.2375 109.701 35.3992 109.755 35.525ZM129.467 38.7234C129.359 38.9211 129.323 39.0828 129.359 39.0828C129.413 39.0828 129.539 38.9211 129.647 38.7234C129.755 38.5257 129.791 38.364 129.755 38.364C129.701 38.364 129.575 38.5257 129.467 38.7234ZM128.982 40.0172C129.036 40.1609 129.09 40.107 129.09 39.9093C129.108 39.7117 129.054 39.6039 129 39.6757C128.946 39.7296 128.928 39.8914 128.982 40.0172ZM127.185 43.6109C127.239 43.7547 127.293 43.7007 127.293 43.5031C127.311 43.3054 127.257 43.1976 127.203 43.2695C127.149 43.3234 127.131 43.4851 127.185 43.6109ZM160.374 67.8687C160.374 68.1921 160.931 68.2281 161.183 67.9046C161.398 67.5992 161.38 67.5453 161.129 67.4554C160.805 67.3296 160.374 67.5812 160.374 67.8687ZM104.867 79.7461C103.969 81.5609 102.549 84.0765 101.723 85.3343L100.213 87.6343L100.95 87.9398C104.742 89.539 108.12 90.8507 108.21 90.7609C108.282 90.689 108.443 89.4132 108.569 87.9039C108.767 85.7656 108.767 84.7773 108.605 83.2859C108.3 80.4289 107.096 76.4578 106.539 76.4578C106.521 76.4578 105.766 77.9492 104.867 79.7461ZM98.7759 89.2695C97.6258 90.5992 95.7571 92.1265 93.8883 93.2586C92.9539 93.8156 91.7499 94.5882 91.1929 94.9656C89.4679 96.1336 86.3772 98.0023 85.1193 98.6312C84.4545 98.9546 82.37 99.8171 80.5013 100.536C73.0261 103.393 69.4682 105.136 65.2634 107.957C62.8017 109.61 62.9454 109.233 63.5204 112.934C64.6704 120.373 67.3119 127.166 71.7323 133.958L72.8105 135.611L76.1348 132.323C78.5606 129.897 80.07 128.208 81.7771 125.98C86.1076 120.319 86.8084 119.439 88.5874 117.337C89.6835 116.043 90.5819 115.162 90.9413 115.001C91.2827 114.857 91.6601 114.516 91.8398 114.156C92.1992 113.455 95.0203 110.544 96.35 109.502C97.4462 108.64 98.0212 107.813 98.0212 107.059C98.0212 106.286 99.2071 104.561 101.04 102.638C103.16 100.41 103.592 99.8711 103.592 99.3679C103.592 99.0265 103.735 98.9007 104.256 98.757C104.634 98.6492 105.029 98.5593 105.155 98.5593C105.424 98.5593 106.718 96.6726 107.293 95.4507C107.707 94.5343 108.353 92.1086 108.21 91.9828C108.138 91.9109 99.5665 88.3711 99.5306 88.389C99.5126 88.407 99.1712 88.7843 98.7759 89.2695ZM132.324 98.1101C132.27 100.069 132.468 101.003 132.899 100.859C133.007 100.823 133.223 100.392 133.402 99.8711C133.798 98.6851 134.229 98.0562 134.876 97.6968C135.541 97.3015 135.451 96.9961 134.301 95.6843C133.834 95.1453 133.259 94.3367 133.025 93.8875L132.612 93.0789L132.486 94.6062C132.414 95.4507 132.342 97.014 132.324 98.1101ZM146.035 98.2C146.143 98.5054 146.178 98.9726 146.143 99.2421C146.089 99.5117 146.107 99.925 146.178 100.177C146.286 100.572 146.322 100.518 146.43 99.7992C146.538 99.2242 146.484 98.7929 146.286 98.3257C145.963 97.5171 145.765 97.4453 146.035 98.2ZM138.272 105.064C138.272 105.19 138.524 105.316 138.811 105.334C139.386 105.369 139.548 105.1 139.027 104.974C138.452 104.83 138.272 104.848 138.272 105.064ZM132.486 107.13C132.594 107.31 132.899 107.472 133.187 107.49L133.69 107.526L133.097 107.238C132.791 107.077 132.522 106.861 132.522 106.771C132.522 106.663 132.468 106.627 132.414 106.681C132.36 106.753 132.396 106.951 132.486 107.13Z"/>
        </mask>
        <path d="M123.394 10.2609C124.112 10.4765 124.256 10.6023 124.256 10.9617C124.256 11.2851 124.382 11.4109 124.795 11.5007C125.316 11.6086 125.55 11.95 125.101 11.95C124.993 11.95 125.029 12.0398 125.191 12.1476C125.37 12.2375 125.514 12.4171 125.514 12.5429C125.514 12.6867 125.801 12.7406 126.376 12.7047C127.149 12.6507 127.311 12.7047 127.796 13.1898C128.371 13.7648 128.748 14.8789 128.748 16.0289C128.748 16.4062 128.91 17.3226 129.108 18.0593C129.305 18.7961 129.467 19.425 129.467 19.4609C129.467 19.4968 129.359 19.4609 129.234 19.389C129.126 19.2992 129.234 19.5328 129.485 19.8742C130.545 21.2937 130.743 21.6171 131.156 22.7492C131.767 24.3843 132.216 27.6367 132.127 29.6492L132.037 31.2664L137.374 36.5672C140.303 39.4781 145.172 44.4914 148.173 47.7078C151.174 50.9242 154.247 54.1765 154.983 54.9492L156.331 56.3507L157.373 56.0812C157.93 55.9375 158.577 55.6859 158.793 55.5421C159.242 55.2187 160.302 55.1648 160.464 55.4343C160.518 55.5242 160.877 55.614 161.255 55.614C161.74 55.614 162.045 55.7398 162.351 56.0632C162.89 56.6382 162.764 57.2851 161.83 58.6328C161.452 59.1898 161.075 59.8367 161.003 60.0703C160.877 60.4836 160.895 60.4836 161.398 60.232C161.668 60.0882 162.063 59.8007 162.243 59.5851C162.53 59.2617 164.022 58.6687 164.525 58.6687C164.597 58.6687 165.046 58.9921 165.495 59.3875C165.945 59.7828 166.466 60.1062 166.645 60.1062C167.041 60.1062 167.472 60.5734 167.652 61.1843C167.723 61.4359 168.029 62.0109 168.316 62.4781C168.694 63.0711 168.82 63.4484 168.73 63.7179C168.658 63.9515 168.73 64.3289 168.909 64.6703C169.466 65.6945 169.089 66.6468 167.831 67.5453C167.49 67.7968 167.508 67.8328 168.46 68.857C168.999 69.432 169.646 70.025 169.898 70.1867C170.599 70.6359 171.461 71.5523 172.234 72.6664C172.827 73.5468 174.624 75.2 174.983 75.2C175.145 75.2 176.852 76.4039 177.391 76.889C177.624 77.0867 177.804 77.3742 177.804 77.5359C177.804 77.6976 177.966 77.9851 178.164 78.1648C178.864 78.7937 178.451 80.1953 177.481 80.5007C177.157 80.5906 176.942 80.4828 176.456 79.9437C176.115 79.5664 175.828 79.189 175.828 79.1171C175.828 79.0453 175.522 78.9734 175.145 78.9734C174.372 78.9734 174.031 78.7578 172.108 77.0328C171.263 76.2781 170.796 75.739 170.742 75.3796C170.67 75.0382 170.437 74.7507 170.077 74.5711C169.79 74.4273 169.377 73.9781 169.179 73.5828C168.981 73.1875 168.424 72.5765 167.939 72.2351C167.472 71.8937 167.005 71.4265 166.897 71.1929C166.789 70.9773 166.286 70.3125 165.765 69.7554C164.848 68.7492 164.812 68.7312 163.896 68.7671C163.393 68.7851 161.758 68.7671 160.284 68.7492C157.625 68.6953 157.553 68.6953 155.343 69.3601C152.755 70.1328 151.192 70.2406 150.042 69.7375C149.359 69.432 149.179 69.432 146.214 69.7375C143.267 70.0429 142.98 70.0429 140.914 69.7554C139.71 69.5757 138.524 69.396 138.29 69.3242L137.859 69.2164L138.326 69.8273C139.206 70.9953 139.53 71.9476 139.53 73.4929C139.53 75.9906 139.027 77.5179 137.607 79.2789C137.284 79.6921 137.014 80.1054 137.014 80.1953C137.014 80.375 138.092 83.3757 139.135 86.0531C139.386 86.7359 139.889 87.6343 140.249 88.0656C140.59 88.4789 141.147 89.3054 141.489 89.8804C142.117 90.9406 143.663 92.5398 144.22 92.7195C144.382 92.7734 144.651 93.0968 144.831 93.4203C145.01 93.7437 145.388 94.157 145.675 94.3367C145.981 94.5164 146.232 94.8398 146.304 95.1453C146.358 95.4328 146.502 95.7023 146.646 95.7562C146.789 95.8101 146.897 95.9539 146.897 96.0617C146.897 96.3671 145.981 96.0796 145.496 95.6304L145.064 95.2351L145.388 95.9539C145.568 96.3492 146.017 97.0679 146.394 97.5531C147.328 98.757 147.562 99.5835 147.293 100.841L147.077 101.848L147.993 102.89C149.054 104.112 149.287 104.974 148.802 105.944C148.64 106.268 148.532 106.537 148.55 106.555C148.586 106.573 148.928 106.699 149.323 106.861C151.21 107.616 152.144 108.047 152.432 108.298C152.971 108.784 153.564 109.017 154.66 109.161C155.343 109.269 155.9 109.448 156.133 109.682C156.439 109.969 156.583 110.005 156.744 109.844C156.906 109.682 157.301 109.79 158.451 110.311C159.26 110.688 160.248 111.155 160.644 111.335C161.057 111.515 161.542 111.856 161.758 112.108C161.973 112.359 162.494 112.647 162.926 112.755C163.86 113.006 164.543 113.366 164.759 113.707C165.01 114.102 164.723 114.875 164.219 115.198C163.788 115.486 163.734 115.468 162.476 114.839C161.758 114.498 160.769 114.066 160.284 113.923C159.781 113.761 159.026 113.437 158.577 113.222C158.128 112.988 157.337 112.665 156.834 112.485C156.313 112.323 155.846 112.108 155.792 112.018C155.72 111.928 155.522 111.856 155.325 111.856C154.876 111.856 153.492 111.245 152.647 110.67C152.306 110.437 151.839 110.239 151.623 110.239C151.39 110.239 150.545 109.969 149.736 109.628C147.239 108.604 146.933 108.532 146.538 108.891C146.268 109.143 145.963 109.179 144.975 109.107C144.31 109.053 143.555 108.963 143.303 108.927C143.052 108.891 142.603 108.837 142.297 108.837C142.01 108.819 141.596 108.658 141.399 108.478C140.734 107.903 139.871 107.544 139.422 107.652C139.153 107.723 138.811 107.652 138.506 107.454C138.164 107.22 138.003 107.184 137.949 107.346C137.679 108.155 136.583 108.352 136.403 107.616C136.295 107.238 136.242 107.184 136.026 107.364C135.846 107.508 135.487 107.544 135.056 107.472C134.66 107.418 134.211 107.418 134.031 107.49C133.708 107.616 134.049 107.723 137.284 108.532C138.595 108.855 139.799 109.341 141.686 110.293C145.082 112.018 148.209 113.24 152.198 114.372C153.977 114.875 157.247 116.025 159.476 116.923C161.704 117.822 164.723 118.99 166.214 119.529C171.605 121.505 175.163 123.554 177.445 125.998C179.601 128.316 180.23 129.933 180.23 133.239C180.212 135.162 180.158 135.665 179.781 136.653C178.99 138.827 177.624 140.624 176.007 141.648C175.468 142.008 174.031 142.996 172.845 143.841L170.652 145.404L171.174 145.709C171.587 145.961 171.659 146.087 171.533 146.338C171.281 146.805 170.041 147.902 167.903 149.537C165.154 151.675 162.782 154.28 160.374 157.856C159.799 158.701 158.757 159.994 158.056 160.731C156.205 162.672 154.336 165.331 153.618 167.038C153.294 167.847 152.683 168.907 152.288 169.374C151.677 170.111 151.569 170.362 151.515 171.225C151.479 171.836 151.336 172.357 151.156 172.555C150.868 172.878 150.868 172.932 151.497 173.579C152.306 174.441 153.69 175.34 156.223 176.634C158.038 177.568 158.272 177.64 158.739 177.46C159.134 177.28 159.368 177.316 160.051 177.604C161.183 178.089 164.83 179.149 166.502 179.491C167.256 179.652 168.011 179.832 168.173 179.886C168.658 180.084 169.035 180.964 168.891 181.665C168.802 182.15 168.856 182.312 169.071 182.402C169.682 182.635 169.377 183.138 168.316 183.605C165.945 184.648 163.447 185.169 160.877 185.169C158.433 185.169 156.816 184.953 151.839 184.001C148.874 183.444 147.023 183.192 145.28 183.102C141.075 182.905 138.038 182.366 136.439 181.557C135.702 181.18 135.541 180.641 136.044 180.353C136.295 180.209 136.313 180.066 136.116 179.167C135.9 178.071 135.936 177.64 136.529 175.789C136.852 174.729 136.87 174.513 136.655 174.118C136.403 173.633 136.493 172.95 137.14 170.884C137.643 169.266 137.733 169.087 138.344 168.404C138.685 168.027 139.081 167.344 139.26 166.877C139.458 166.337 139.907 165.709 140.5 165.134C141.021 164.63 141.758 163.66 142.135 162.977C142.513 162.277 143.196 161.216 143.627 160.587C144.058 159.977 144.651 158.88 144.921 158.162C145.19 157.443 145.693 156.401 146.035 155.844C146.376 155.287 146.807 154.227 146.987 153.508C147.149 152.789 147.58 151.657 147.903 150.974C148.245 150.309 148.874 148.71 149.323 147.416C149.952 145.53 150.096 144.901 150.024 144.236C149.934 143.463 150.006 143.302 150.797 142.134C151.282 141.451 151.821 140.858 152.018 140.804C152.216 140.768 152.486 140.588 152.611 140.409C152.737 140.229 152.935 140.121 153.061 140.175C153.186 140.211 153.6 139.923 153.995 139.528C154.426 139.097 154.858 138.809 155.127 138.809C155.343 138.809 155.81 138.594 156.151 138.324L156.762 137.839L154.121 137.174C152.647 136.815 150.419 136.096 149.054 135.521C145.837 134.209 140.662 132.952 137.104 132.628C135.145 132.448 134.391 132.305 133.762 131.999L132.935 131.586L129 132.017C122.89 132.7 121.004 132.448 115.559 130.202C113.223 129.232 112.45 128.98 112.199 129.124C112.019 129.214 111.318 129.789 110.653 130.382C109.485 131.442 107.114 133.077 105.892 133.706C105.568 133.868 105.137 134.137 104.939 134.317C104.742 134.497 103.646 135 102.513 135.431C101.363 135.88 99.9978 136.491 99.4587 136.797C98.9196 137.102 97.7876 137.695 96.943 138.109C95.3797 138.881 93.8703 139.852 91.1929 141.774C90.3484 142.385 88.821 143.463 87.7788 144.2C86.7365 144.937 85.1912 146.051 84.3287 146.698L82.7833 147.866L84.742 149.932C88.8749 154.334 96.4399 161.288 102.064 165.834C103.142 166.715 104.364 167.739 104.76 168.098C106.179 169.41 113.69 174.944 117.841 177.748C120.483 179.509 121.201 180.084 121.201 180.371C121.201 180.623 118.919 180.407 115.631 179.868C113.529 179.509 112.217 179.383 110.24 179.383C107.814 179.383 107.563 179.419 106.557 179.85C105.964 180.119 105.191 180.605 104.849 180.928C102.963 182.707 101.831 183.066 99.0095 182.833C97.9134 182.743 95.4516 182.419 93.5289 182.114C89.8093 181.503 86.485 181.305 84.9935 181.575C84.4904 181.683 83.1427 182.168 81.9927 182.653C80.8427 183.156 79.7106 183.552 79.477 183.552C79.2434 183.552 78.8122 183.623 78.5067 183.713C77.9676 183.857 73.3136 183.534 72.6847 183.3C72.5409 183.246 71.894 183.12 71.2472 183.03C70.6003 182.923 69.3963 182.725 68.5697 182.581C67.7252 182.419 66.2338 182.222 65.2275 182.114C63.0712 181.898 61.5258 182.132 59.693 182.994C57.0336 184.234 56.782 184.306 55.4523 184.396C54.446 184.468 53.9069 184.414 53.4218 184.216C53.0444 184.055 52.703 184.001 52.6491 184.091C52.5592 184.234 51.3553 184.037 50.5647 183.713C50.3131 183.623 49.792 183.498 49.3967 183.462C49.0193 183.426 47.9232 183.21 46.9888 183.012C44.6708 182.473 42.5684 182.402 41.5082 182.779C41.059 182.959 40.6996 183.156 40.6996 183.228C40.6996 183.3 40.5918 183.372 40.448 183.372C40.3223 183.372 40.1066 183.48 39.9988 183.623C39.891 183.749 39.6215 183.821 39.3879 183.785C39.1363 183.731 38.8668 183.821 38.741 183.983C38.4715 184.306 37.3753 184.378 37.1956 184.073C37.1238 183.965 36.9441 183.929 36.7823 184.001C36.6026 184.073 36.369 183.947 36.1714 183.695C35.9198 183.372 35.812 183.336 35.6862 183.516C35.5604 183.713 35.3987 183.713 34.8417 183.552C34.4464 183.444 33.5659 183.192 32.883 183.012C32.1823 182.833 30.7447 182.402 29.6845 182.024C27.9236 181.431 25.4438 180.982 24.9766 181.162C24.8688 181.198 24.5274 181.575 24.2039 182.006C23.8805 182.437 23.3414 182.994 23 183.21C22.6586 183.444 22.2812 183.875 22.1555 184.162C21.8859 184.809 20.682 185.582 19.1546 186.085C17.6272 186.588 17.2858 186.912 16.603 188.565C16.2975 189.319 15.9561 190.02 15.8663 190.146C15.7764 190.272 15.7405 190.523 15.7944 190.703C15.8663 190.901 15.8303 191.242 15.7405 191.494C15.5788 191.925 15.5428 191.925 13.71 191.889C11.7513 191.853 10.7451 191.691 7.99579 190.973C4.7254 190.092 4.49181 190.02 4.04257 189.679C3.46756 189.266 3.35974 188.529 3.82695 188.187C4.0246 188.062 4.22226 187.63 4.3121 187.199C4.49181 186.139 5.04884 185.384 6.34262 184.486C6.97154 184.037 7.45671 183.677 7.42078 183.641C7.33093 183.569 3.10818 183.875 2.67693 183.983C2.17378 184.109 2.06596 184.702 2.06596 187.235C2.06596 190.2 1.5808 191.134 0.772186 189.751C-0.0184479 188.385 -0.108292 187.397 0.0893555 181.665C0.340927 173.777 0.790161 170.614 2.33551 166.14C4.58165 159.617 8.44501 155.323 15.0217 151.998C15.9561 151.549 18.0405 150.651 19.6757 150.004C26.0727 147.524 27.3665 146.985 28.8939 146.23C33.2245 144.074 36.5488 141.217 39.0824 137.48C40.3402 135.593 40.8254 134.766 43.2692 130.184C46.6115 123.913 48.2467 121.236 51.1577 117.283C51.8405 116.366 52.5413 115.216 52.7389 114.731C53.278 113.348 54.5179 110.958 55.2546 109.88C55.614 109.341 56.1531 108.442 56.4226 107.903C57.1414 106.466 58.2016 104.812 59.6391 102.872C61.0587 100.949 61.2204 100.5 62.1727 96.2234C62.5321 94.5882 63.3407 91.6773 63.9697 89.7546C64.5986 87.832 65.4431 85.1546 65.8564 83.825C66.7189 81.0398 68.0666 78.632 69.7737 76.7812C70.0253 76.5117 70.2049 76.2601 70.151 76.2062C70.1151 76.1703 68.0127 75.2718 65.497 74.2117C62.9813 73.1515 59.9086 71.8398 58.6688 71.3007C56.3328 70.2586 54.1765 69.0546 54.4999 68.9468C54.9491 68.8031 57.0695 69.5937 63.6462 72.3968C67.5096 74.032 70.7261 75.3796 70.7979 75.3796C70.8518 75.3796 71.7323 74.7507 72.7566 73.9781C73.7808 73.2234 75.3261 72.0914 76.2066 71.4804C78.3629 69.9711 80.6091 68.1562 84.3467 64.9039C86.0717 63.3945 88.2999 61.4898 89.3241 60.6453C90.6179 59.5492 91.5343 58.5789 92.4867 57.3211C93.2234 56.3328 94.1219 55.2547 94.4992 54.9492C94.8586 54.6257 95.6492 53.7812 96.2243 53.0804C97.6258 51.4093 99.261 50.0078 102.37 47.8156C103.825 46.7914 106.125 45.9109 107.76 45.7851C109.396 45.6414 109.629 45.3898 109.557 43.7906C109.521 43.0718 109.647 41.8679 109.863 40.8078C110.078 39.8375 110.24 38.9031 110.222 38.7414C110.204 38.3461 109.539 40.4843 109.503 41.0593C109.468 41.4547 109.468 41.4547 109.396 41.1312C109.36 40.9156 109.45 40.1968 109.611 39.532C109.845 38.4539 109.863 37.9687 109.629 38.2023C109.45 38.382 108.982 41.1492 108.964 42.1734C108.946 42.8023 108.875 43.539 108.803 43.8445L108.677 44.3836L108.569 43.7547C108.282 42.1195 108.246 39.8375 108.515 38.5437C108.767 37.1961 109.018 34.8062 108.857 35.3093C108.803 35.4531 108.641 35.8484 108.479 36.1898C108.317 36.5312 108.138 37.0882 108.066 37.4476L107.94 38.0945L107.922 37.2679C107.922 36.8007 108.03 36.082 108.174 35.6687C108.461 34.8421 108.533 34.0336 108.264 34.6804C108.138 34.9679 108.102 34.932 108.102 34.4109C108.102 33.6382 109.198 30.7453 109.414 30.9429C109.503 31.0148 109.521 30.9968 109.468 30.889C109.414 30.7812 109.432 29.8468 109.503 28.8226C109.647 27.0617 109.719 26.8281 110.653 24.8875C111.282 23.5757 111.821 22.1203 112.127 20.9343C113.241 16.4242 113.924 14.3937 114.75 13.1539C115.254 12.3812 115.721 12.0937 117.212 11.6625C117.338 11.6265 117.392 11.5007 117.32 11.3929C117.248 11.2672 117.266 11.2312 117.392 11.3031C117.482 11.357 117.608 11.3211 117.643 11.2132C117.715 11.0156 118.434 10.8539 120.626 10.5843C121.183 10.5125 121.633 10.3507 121.687 10.225C121.794 9.91949 122.315 9.91949 123.394 10.2609ZM117.697 11.5906C117.518 11.7882 117.446 11.95 117.554 11.95C117.643 11.95 117.877 11.7882 118.057 11.5906C118.236 11.3929 118.308 11.2312 118.201 11.2312C118.111 11.2312 117.877 11.3929 117.697 11.5906ZM115.415 12.7945C114.93 13.3156 113.942 15.1664 114.068 15.2921C114.104 15.3461 114.373 15.0765 114.661 14.6992C114.948 14.3218 115.397 13.8367 115.649 13.621C115.954 13.3515 116.116 13.0461 116.098 12.7586C116.08 12.1835 115.99 12.2015 115.415 12.7945ZM126.161 13.0101C126.089 13.1 126.215 13.1359 126.412 13.082C126.826 12.9742 126.88 12.8484 126.52 12.8484C126.376 12.8484 126.215 12.9203 126.161 13.0101ZM126.341 13.3156C125.891 13.4953 125.999 13.9086 126.538 14.1242C126.826 14.232 127.221 14.4836 127.437 14.6812L127.85 15.0585V14.5375C127.85 13.9625 127.293 13.2078 126.862 13.2078C126.736 13.2078 126.502 13.2617 126.341 13.3156ZM128.263 14.8609C128.317 15.0047 128.371 14.9507 128.371 14.7531C128.389 14.5554 128.335 14.4476 128.281 14.5195C128.227 14.5734 128.209 14.7351 128.263 14.8609ZM128.443 15.7593C128.497 15.8851 128.533 15.7953 128.533 15.5437C128.533 15.2921 128.497 15.2023 128.443 15.3101C128.407 15.4359 128.407 15.6515 128.443 15.7593ZM114.912 16.2804C114.912 16.532 115.002 16.4781 115.469 15.975L115.9 15.4898L115.397 15.8132C115.128 15.975 114.912 16.1906 114.912 16.2804ZM126.053 15.957C126.053 16.2625 126.916 17.089 127.059 16.9273C127.293 16.7117 126.736 15.7234 126.394 15.7234C126.197 15.7234 126.053 15.8312 126.053 15.957ZM113.744 16.6578C113.313 17.7539 112.936 19.0117 113.025 19.1015C113.061 19.1554 113.187 18.9578 113.313 18.6703C113.582 17.9695 114.122 16.6039 114.283 16.2086C114.355 16.0468 114.337 15.9031 114.229 15.9031C114.139 15.9031 113.906 16.2445 113.744 16.6578ZM114.822 17.2687C114.625 17.3765 114.283 17.9335 114.068 18.5265C113.529 20 113.564 20.1078 114.247 18.9578C114.571 18.4007 114.966 17.7539 115.128 17.5203C115.307 17.2867 115.451 16.9992 115.451 16.8914C115.451 16.7656 115.397 16.7656 115.307 16.8914C115.236 16.9812 115.02 17.1609 114.822 17.2687ZM126.412 17.125C126.412 17.1968 126.574 17.3586 126.79 17.4843C127.131 17.7 127.131 17.682 126.951 17.3406C126.772 16.9992 126.412 16.8375 126.412 17.125ZM128.443 18.275C128.479 18.5086 128.515 18.3289 128.515 17.8797C128.515 17.4304 128.479 17.2507 128.443 17.4664C128.407 17.7 128.407 18.0593 128.443 18.275ZM112.864 21.6531C112.81 22.1382 112.81 22.3539 112.918 22.1922C112.989 22.0484 113.115 21.5632 113.169 21.114C113.223 20.6648 113.205 20.4312 113.133 20.575C113.043 20.7187 112.936 21.2039 112.864 21.6531ZM111.732 23.6835C111.246 25.0492 111.211 25.2648 111.516 24.8875C111.965 24.3304 112.199 23.7554 112.379 22.7672C112.612 21.5273 112.343 21.9046 111.732 23.6835ZM111.264 26.9898C111.193 27.3132 111.211 27.5828 111.3 27.5828C111.498 27.5828 111.678 26.9359 111.66 26.2351C111.66 25.7859 111.624 25.75 111.516 26.0554C111.444 26.2531 111.318 26.6843 111.264 26.9898ZM109.755 31.5718C109.809 31.7156 109.863 31.6617 109.863 31.464C109.881 31.2664 109.827 31.1586 109.773 31.2304C109.719 31.2843 109.701 31.4461 109.755 31.5718ZM108.91 32.7937C108.749 33.3328 108.695 33.6922 108.767 33.6023C108.91 33.4226 109.342 32.0929 109.342 31.8054C109.342 31.5 109.18 31.8414 108.91 32.7937ZM109.468 33.4226L109.36 33.9617L109.611 33.4226C109.755 33.1171 109.863 32.6859 109.863 32.4343L109.845 31.9851L109.719 32.4343C109.647 32.6859 109.521 33.1171 109.468 33.4226ZM110.114 33.7281C110.168 33.8718 110.222 33.8179 110.222 33.6203C110.24 33.4226 110.186 33.3148 110.132 33.3867C110.078 33.4406 110.06 33.6023 110.114 33.7281ZM131.785 37.1961C131.641 38.7773 131.498 39.6757 131.444 39.3523C131.3 38.6156 131.138 39.0828 130.959 40.664C130.869 41.5804 130.815 41.7601 130.707 41.4187C130.635 41.1312 130.581 41.4726 130.563 42.3531C130.545 43.1617 130.473 43.7547 130.366 43.7547C130.258 43.7547 130.186 43.6468 130.168 43.5211C130.15 43.4132 130.078 43.5031 129.988 43.7547C129.88 44.0781 129.862 43.9343 129.934 43.2515C129.988 42.6765 129.952 42.3172 129.827 42.3172C129.737 42.3172 129.629 42.5328 129.629 42.8023C129.611 43.2515 129.593 43.2336 129.485 42.6765C129.359 42.0656 129.359 42.0656 129.072 43.2156C128.82 44.2218 128.784 44.2937 128.748 43.7547L128.712 43.1257L128.461 43.8445L128.209 44.5632L128.317 43.7547C128.515 42.2812 128.677 40.7 128.623 40.7C128.479 40.7 127.67 42.7125 127.491 43.4492C127.383 43.9343 127.149 44.6171 126.969 44.9765C126.79 45.3539 126.466 46.2882 126.233 47.0789C125.694 49.0195 125.694 49.0195 125.801 47.7976L125.909 46.7195L125.298 47.8515C124.795 48.8398 124.687 48.9296 124.598 48.5703C124.508 48.175 124.508 48.175 124.4 48.5164C124.346 48.714 124.238 49.0015 124.184 49.1632C124.094 49.3789 124.256 49.5765 124.849 49.9179C125.28 50.1695 126.035 50.7265 126.52 51.1578C127.005 51.589 127.616 52.0382 127.886 52.1461C128.587 52.4695 129.773 53.5836 130.222 54.3742C130.437 54.7515 130.833 55.1468 131.138 55.2726C131.426 55.3984 132.091 55.8117 132.594 56.189C133.097 56.5664 133.798 56.9617 134.157 57.0515C134.516 57.1593 135.109 57.5187 135.469 57.8601C135.846 58.2015 136.277 58.489 136.457 58.489C136.619 58.489 137.607 58.7765 138.631 59.1359C140.231 59.6929 140.698 59.7828 141.686 59.7289C143.483 59.621 146.682 59.7109 148.029 59.9086C148.982 60.0523 149.341 60.0343 149.736 59.8187C150.383 59.4953 151.048 59.4953 152.36 59.8726C153.15 60.0882 153.456 60.1242 153.51 59.9625C153.546 59.8367 153.761 59.7468 153.995 59.7468C154.354 59.7468 154.462 59.6031 154.624 59.0101C154.804 58.3812 154.786 58.2195 154.498 57.8961C154.085 57.4109 144.705 47.3664 140.698 43.1257C136.349 38.5078 132.091 34.1953 132.055 34.357C132.037 34.4289 131.911 35.7047 131.785 37.1961ZM109.935 34.8062C109.989 34.95 110.043 34.8961 110.043 34.6984C110.06 34.5007 110.007 34.3929 109.953 34.4648C109.899 34.5187 109.881 34.6804 109.935 34.8062ZM109.755 35.525C109.809 35.6687 109.863 35.6148 109.863 35.4171C109.881 35.2195 109.827 35.1117 109.773 35.1835C109.719 35.2375 109.701 35.3992 109.755 35.525ZM129.467 38.7234C129.359 38.9211 129.323 39.0828 129.359 39.0828C129.413 39.0828 129.539 38.9211 129.647 38.7234C129.755 38.5257 129.791 38.364 129.755 38.364C129.701 38.364 129.575 38.5257 129.467 38.7234ZM128.982 40.0172C129.036 40.1609 129.09 40.107 129.09 39.9093C129.108 39.7117 129.054 39.6039 129 39.6757C128.946 39.7296 128.928 39.8914 128.982 40.0172ZM127.185 43.6109C127.239 43.7547 127.293 43.7007 127.293 43.5031C127.311 43.3054 127.257 43.1976 127.203 43.2695C127.149 43.3234 127.131 43.4851 127.185 43.6109ZM160.374 67.8687C160.374 68.1921 160.931 68.2281 161.183 67.9046C161.398 67.5992 161.38 67.5453 161.129 67.4554C160.805 67.3296 160.374 67.5812 160.374 67.8687ZM104.867 79.7461C103.969 81.5609 102.549 84.0765 101.723 85.3343L100.213 87.6343L100.95 87.9398C104.742 89.539 108.12 90.8507 108.21 90.7609C108.282 90.689 108.443 89.4132 108.569 87.9039C108.767 85.7656 108.767 84.7773 108.605 83.2859C108.3 80.4289 107.096 76.4578 106.539 76.4578C106.521 76.4578 105.766 77.9492 104.867 79.7461ZM98.7759 89.2695C97.6258 90.5992 95.7571 92.1265 93.8883 93.2586C92.9539 93.8156 91.7499 94.5882 91.1929 94.9656C89.4679 96.1336 86.3772 98.0023 85.1193 98.6312C84.4545 98.9546 82.37 99.8171 80.5013 100.536C73.0261 103.393 69.4682 105.136 65.2634 107.957C62.8017 109.61 62.9454 109.233 63.5204 112.934C64.6704 120.373 67.3119 127.166 71.7323 133.958L72.8105 135.611L76.1348 132.323C78.5606 129.897 80.07 128.208 81.7771 125.98C86.1076 120.319 86.8084 119.439 88.5874 117.337C89.6835 116.043 90.5819 115.162 90.9413 115.001C91.2827 114.857 91.6601 114.516 91.8398 114.156C92.1992 113.455 95.0203 110.544 96.35 109.502C97.4462 108.64 98.0212 107.813 98.0212 107.059C98.0212 106.286 99.2071 104.561 101.04 102.638C103.16 100.41 103.592 99.8711 103.592 99.3679C103.592 99.0265 103.735 98.9007 104.256 98.757C104.634 98.6492 105.029 98.5593 105.155 98.5593C105.424 98.5593 106.718 96.6726 107.293 95.4507C107.707 94.5343 108.353 92.1086 108.21 91.9828C108.138 91.9109 99.5665 88.3711 99.5306 88.389C99.5126 88.407 99.1712 88.7843 98.7759 89.2695ZM132.324 98.1101C132.27 100.069 132.468 101.003 132.899 100.859C133.007 100.823 133.223 100.392 133.402 99.8711C133.798 98.6851 134.229 98.0562 134.876 97.6968C135.541 97.3015 135.451 96.9961 134.301 95.6843C133.834 95.1453 133.259 94.3367 133.025 93.8875L132.612 93.0789L132.486 94.6062C132.414 95.4507 132.342 97.014 132.324 98.1101ZM146.035 98.2C146.143 98.5054 146.178 98.9726 146.143 99.2421C146.089 99.5117 146.107 99.925 146.178 100.177C146.286 100.572 146.322 100.518 146.43 99.7992C146.538 99.2242 146.484 98.7929 146.286 98.3257C145.963 97.5171 145.765 97.4453 146.035 98.2ZM138.272 105.064C138.272 105.19 138.524 105.316 138.811 105.334C139.386 105.369 139.548 105.1 139.027 104.974C138.452 104.83 138.272 104.848 138.272 105.064ZM132.486 107.13C132.594 107.31 132.899 107.472 133.187 107.49L133.69 107.526L133.097 107.238C132.791 107.077 132.522 106.861 132.522 106.771C132.522 106.663 132.468 106.627 132.414 106.681C132.36 106.753 132.396 106.951 132.486 107.13Z" fill="black" stroke="white" stroke-width="2" mask="url(#path-1-inside-1)"/>
        <path d="M128.053 44.9283C128.044 44.8347 128.064 44.7448 128.101 44.7072C128.137 44.6603 128.172 44.69 128.187 44.7714C128.189 44.7794 128.19 44.7878 128.191 44.7967C128.196 44.8362 128.196 44.8849 128.191 44.9408C128.191 44.9636 128.191 44.9845 128.189 45.0034C128.189 45.0053 128.189 45.0073 128.189 45.0092C128.178 45.149 128.131 45.1741 128.084 45.0487C128.069 45.0144 128.059 44.9775 128.055 44.9408C128.054 44.9367 128.054 44.9325 128.053 44.9283Z" fill="black" stroke="white"/>
    </g>
    <defs>
        <filter id="filter0_d" x="0" y="0" width="200.23" height="201.903" filterUnits="userSpaceOnUse" color-interpolation-filters="sRGB">
            <feFlood flood-opacity="0" result="BackgroundImageFix"/>
            <feColorMatrix in="SourceAlpha" type="matrix" values="0 0 0 0 0 0 0 0 0 0 0 0 0 0 0 0 0 0 127 0"/>
            <feOffset dx="10"/>
            <feGaussianBlur stdDeviation="5"/>
            <feColorMatrix type="matrix" values="0 0 0 0 0.445833 0 0 0 0 0.445833 0 0 0 0 0.445833 0 0 0 1 0"/>
            <feBlend mode="normal" in2="BackgroundImageFix" result="effect1_dropShadow"/>
            <feBlend mode="normal" in="SourceGraphic" in2="effect1_dropShadow" result="shape"/>
        </filter>
    </defs>
</svg>
