<svg width="201" height="202" viewBox="0 0 201 202" fill="none" xmlns="http://www.w3.org/2000/svg">
    <g filter="url(#filter0_d)">
        <mask id="path-1-inside-1" fill="white">
            <path d="M56.8352 10.2609C56.1164 10.4765 55.9727 10.6023 55.9727 10.9617C55.9727 11.2851 55.8469 11.4109 55.4336 11.5007C54.9125 11.6086 54.6789 11.95 55.1281 11.95C55.236 11.95 55.2 12.0398 55.0383 12.1476C54.8586 12.2375 54.7149 12.4171 54.7149 12.5429C54.7149 12.6867 54.4274 12.7406 53.8524 12.7047C53.0797 12.6507 52.918 12.7047 52.4328 13.1898C51.8578 13.7648 51.4805 14.8789 51.4805 16.0289C51.4805 16.4062 51.3188 17.3226 51.1211 18.0593C50.9235 18.7961 50.7617 19.425 50.7617 19.4609C50.7617 19.4968 50.8696 19.4609 50.9953 19.389C51.1031 19.2992 50.9953 19.5328 50.7438 19.8742C49.6836 21.2937 49.486 21.6171 49.0727 22.7492C48.4617 24.3843 48.0125 27.6367 48.1024 29.6492L48.1922 31.2664L42.8555 36.5672C39.9266 39.4781 35.057 44.4914 32.0563 47.7078C29.0555 50.9242 25.9828 54.1765 25.2461 54.9492L23.8984 56.3507L22.8563 56.0812C22.2992 55.9375 21.6524 55.6859 21.4367 55.5421C20.9875 55.2187 19.9274 55.1648 19.7656 55.4343C19.7117 55.5242 19.3524 55.614 18.975 55.614C18.4899 55.614 18.1844 55.7398 17.8789 56.0632C17.3399 56.6382 17.4656 57.2851 18.4 58.6328C18.7774 59.1898 19.1547 59.8367 19.2266 60.0703C19.3524 60.4836 19.3344 60.4836 18.8313 60.232C18.5617 60.0882 18.1664 59.8007 17.9867 59.5851C17.6992 59.2617 16.2078 58.6687 15.7047 58.6687C15.6328 58.6687 15.1836 58.9921 14.7344 59.3875C14.2852 59.7828 13.7641 60.1062 13.5844 60.1062C13.1891 60.1062 12.7578 60.5734 12.5781 61.1843C12.5063 61.4359 12.2008 62.0109 11.9133 62.4781C11.5359 63.0711 11.4102 63.4484 11.5 63.7179C11.5719 63.9515 11.5 64.3289 11.3203 64.6703C10.7633 65.6945 11.1406 66.6468 12.3984 67.5453C12.7398 67.7968 12.7219 67.8328 11.7695 68.857C11.2305 69.432 10.5836 70.025 10.332 70.1867C9.63125 70.6359 8.76875 71.5523 7.9961 72.6664C7.40313 73.5468 5.60625 75.2 5.24688 75.2C5.08516 75.2 3.37813 76.4039 2.83906 76.889C2.60547 77.0867 2.42578 77.3742 2.42578 77.5359C2.42578 77.6976 2.26406 77.9851 2.06641 78.1648C1.36563 78.7937 1.77891 80.1953 2.74922 80.5007C3.07266 80.5906 3.28828 80.4828 3.77344 79.9437C4.11485 79.5664 4.40235 79.189 4.40235 79.1171C4.40235 79.0453 4.70781 78.9734 5.08516 78.9734C5.85781 78.9734 6.19922 78.7578 8.12188 77.0328C8.96641 76.2781 9.4336 75.739 9.4875 75.3796C9.55938 75.0382 9.79297 74.7507 10.1523 74.5711C10.4398 74.4273 10.8531 73.9781 11.0508 73.5828C11.2484 73.1875 11.8055 72.5765 12.2906 72.2351C12.7578 71.8937 13.225 71.4265 13.3328 71.1929C13.4406 70.9773 13.9438 70.3125 14.4648 69.7554C15.3813 68.7492 15.4172 68.7312 16.3336 68.7671C16.8367 68.7851 18.4719 68.7671 19.9453 68.7492C22.6047 68.6953 22.6766 68.6953 24.8867 69.3601C27.4742 70.1328 29.0375 70.2406 30.1875 69.7375C30.8703 69.432 31.05 69.432 34.0149 69.7375C36.9617 70.0429 37.2492 70.0429 39.3156 69.7554C40.5195 69.5757 41.7055 69.396 41.9391 69.3242L42.3703 69.2164L41.9031 69.8273C41.0227 70.9953 40.6992 71.9476 40.6992 73.4929C40.6992 75.9906 41.2024 77.5179 42.6219 79.2789C42.9453 79.6921 43.2149 80.1054 43.2149 80.1953C43.2149 80.375 42.1367 83.3757 41.0945 86.0531C40.843 86.7359 40.3399 87.6343 39.9805 88.0656C39.6391 88.4789 39.082 89.3054 38.7406 89.8804C38.1117 90.9406 36.5664 92.5398 36.0094 92.7195C35.8477 92.7734 35.5781 93.0968 35.3985 93.4203C35.2188 93.7437 34.8414 94.157 34.5539 94.3367C34.2485 94.5164 33.9969 94.8398 33.925 95.1453C33.8711 95.4328 33.7274 95.7023 33.5836 95.7562C33.4399 95.8101 33.332 95.9539 33.332 96.0617C33.332 96.3671 34.2485 96.0796 34.7336 95.6304L35.1649 95.2351L34.8414 95.9539C34.6617 96.3492 34.2125 97.0679 33.8352 97.5531C32.9008 98.757 32.6672 99.5835 32.9367 100.841L33.1524 101.848L32.236 102.89C31.1758 104.112 30.9422 104.974 31.4274 105.944C31.5891 106.268 31.6969 106.537 31.6789 106.555C31.643 106.573 31.3016 106.699 30.9063 106.861C29.0195 107.616 28.0852 108.047 27.7977 108.298C27.2586 108.784 26.6656 109.017 25.5695 109.161C24.8867 109.269 24.3297 109.448 24.0961 109.682C23.7906 109.969 23.6469 110.005 23.4852 109.844C23.3234 109.682 22.9281 109.79 21.7781 110.311C20.9695 110.688 19.9813 111.155 19.5859 111.335C19.1727 111.515 18.6875 111.856 18.4719 112.108C18.2563 112.359 17.7352 112.647 17.3039 112.755C16.3695 113.006 15.6867 113.366 15.4711 113.707C15.2195 114.102 15.507 114.875 16.0102 115.198C16.4414 115.486 16.4953 115.468 17.7531 114.839C18.4719 114.498 19.4602 114.066 19.9453 113.923C20.4484 113.761 21.2031 113.437 21.6524 113.222C22.1016 112.988 22.8922 112.665 23.3953 112.485C23.9164 112.323 24.3836 112.108 24.4375 112.018C24.5094 111.928 24.707 111.856 24.9047 111.856C25.3539 111.856 26.7375 111.245 27.582 110.67C27.9234 110.437 28.3906 110.239 28.6063 110.239C28.8399 110.239 29.6844 109.969 30.493 109.628C32.9906 108.604 33.2961 108.532 33.6914 108.891C33.961 109.143 34.2664 109.179 35.2547 109.107C35.9195 109.053 36.6742 108.963 36.9258 108.927C37.1774 108.891 37.6266 108.837 37.932 108.837C38.2195 108.819 38.6328 108.658 38.8305 108.478C39.4953 107.903 40.3578 107.544 40.807 107.652C41.0766 107.723 41.418 107.652 41.7235 107.454C42.0649 107.22 42.2266 107.184 42.2805 107.346C42.55 108.155 43.6461 108.352 43.8258 107.616C43.9336 107.238 43.9875 107.184 44.2031 107.364C44.3828 107.508 44.7422 107.544 45.1735 107.472C45.5688 107.418 46.018 107.418 46.1977 107.49C46.5211 107.616 46.1797 107.723 42.9453 108.532C41.6336 108.855 40.4297 109.341 38.543 110.293C35.1469 112.018 32.0203 113.24 28.0313 114.372C26.2524 114.875 22.982 116.025 20.7539 116.923C18.5258 117.822 15.507 118.99 14.0156 119.529C8.625 121.505 5.06719 123.554 2.78516 125.998C0.628906 128.316 0 129.933 0 133.239C0.0179688 135.162 0.071875 135.665 0.449219 136.653C1.23984 138.827 2.60547 140.624 4.22266 141.648C4.76172 142.008 6.19922 142.996 7.38516 143.841L9.57735 145.404L9.05625 145.709C8.64297 145.961 8.5711 146.087 8.69688 146.338C8.94844 146.805 10.1883 147.902 12.3266 149.537C15.0758 151.675 17.4477 154.28 19.8555 157.856C20.4305 158.701 21.4727 159.994 22.1734 160.731C24.0242 162.672 25.893 165.331 26.6117 167.038C26.9352 167.847 27.5461 168.907 27.9414 169.374C28.5524 170.111 28.6602 170.362 28.7141 171.225C28.75 171.836 28.8938 172.357 29.0734 172.555C29.3609 172.878 29.3609 172.932 28.732 173.579C27.9234 174.441 26.5399 175.34 24.0063 176.634C22.1914 177.568 21.9578 177.64 21.4906 177.46C21.0953 177.28 20.8617 177.316 20.1789 177.604C19.0469 178.089 15.3992 179.149 13.7281 179.491C12.9734 179.652 12.2188 179.832 12.057 179.886C11.5719 180.084 11.1945 180.964 11.3383 181.665C11.4281 182.15 11.3742 182.312 11.1586 182.402C10.5477 182.635 10.8531 183.138 11.9133 183.605C14.2852 184.648 16.7828 185.169 19.3524 185.169C21.7961 185.169 23.4133 184.953 28.3906 184.001C31.3555 183.444 33.2063 183.192 34.9492 183.102C39.1539 182.905 42.1906 182.366 43.7899 181.557C44.5266 181.18 44.6883 180.641 44.1852 180.353C43.9336 180.209 43.9156 180.066 44.1133 179.167C44.3289 178.071 44.293 177.64 43.7 175.789C43.3766 174.729 43.3586 174.513 43.5742 174.118C43.8258 173.633 43.736 172.95 43.0891 170.884C42.586 169.266 42.4961 169.087 41.8852 168.404C41.5438 168.027 41.1485 167.344 40.9688 166.877C40.7711 166.337 40.3219 165.709 39.7289 165.134C39.2078 164.63 38.4711 163.66 38.0938 162.977C37.7164 162.277 37.0336 161.216 36.6024 160.587C36.1711 159.977 35.5781 158.88 35.3086 158.162C35.0391 157.443 34.5359 156.401 34.1945 155.844C33.8531 155.287 33.4219 154.227 33.2422 153.508C33.0805 152.789 32.6492 151.657 32.3258 150.974C31.9844 150.309 31.3555 148.71 30.9063 147.416C30.2774 145.53 30.1336 144.901 30.2055 144.236C30.2953 143.463 30.2234 143.302 29.4328 142.134C28.9477 141.451 28.4086 140.858 28.2109 140.804C28.0133 140.768 27.7438 140.588 27.618 140.409C27.4922 140.229 27.2945 140.121 27.1688 140.175C27.043 140.211 26.6297 139.923 26.2344 139.528C25.8031 139.097 25.3719 138.809 25.1024 138.809C24.8867 138.809 24.4195 138.594 24.0781 138.324L23.4672 137.839L26.1086 137.174C27.582 136.815 29.8102 136.096 31.1758 135.521C34.3922 134.209 39.5672 132.952 43.125 132.628C45.0836 132.448 45.8383 132.305 46.4672 131.999L47.2938 131.586L51.2289 132.017C57.3383 132.7 59.225 132.448 64.6696 130.202C67.0055 129.232 67.7782 128.98 68.0297 129.124C68.2094 129.214 68.9102 129.789 69.575 130.382C70.743 131.442 73.1149 133.077 74.3367 133.706C74.6602 133.868 75.0914 134.137 75.2891 134.317C75.4867 134.497 76.5828 135 77.7149 135.431C78.8649 135.88 80.2305 136.491 80.7696 136.797C81.3086 137.102 82.4407 137.695 83.2852 138.109C84.8485 138.881 86.3578 139.852 89.0352 141.774C89.8797 142.385 91.4071 143.463 92.4493 144.2C93.4914 144.937 95.0368 146.051 95.8993 146.698L97.4446 147.866L95.486 149.932C91.3532 154.334 83.7883 161.288 78.1641 165.834C77.086 166.715 75.8641 167.739 75.4688 168.098C74.0492 169.41 66.5383 174.944 62.3875 177.748C59.7461 179.509 59.0274 180.084 59.0274 180.371C59.0274 180.623 61.3094 180.407 64.5977 179.868C66.7 179.509 68.0117 179.383 69.9883 179.383C72.4141 179.383 72.6657 179.419 73.6719 179.85C74.2649 180.119 75.0375 180.605 75.3789 180.928C77.2657 182.707 78.3977 183.066 81.2188 182.833C82.3149 182.743 84.7766 182.419 86.6992 182.114C90.4188 181.503 93.743 181.305 95.2344 181.575C95.7375 181.683 97.0852 182.168 98.2352 182.653C99.3852 183.156 100.517 183.552 100.751 183.552C100.984 183.552 101.416 183.623 101.721 183.713C102.26 183.857 106.914 183.534 107.543 183.3C107.687 183.246 108.334 183.12 108.981 183.03C109.627 182.923 110.831 182.725 111.658 182.581C112.502 182.419 113.994 182.222 115 182.114C117.156 181.898 118.702 182.132 120.534 182.994C123.194 184.234 123.445 184.306 124.775 184.396C125.781 184.468 126.32 184.414 126.806 184.216C127.183 184.055 127.524 184.001 127.578 184.091C127.668 184.234 128.872 184.037 129.663 183.713C129.914 183.623 130.435 183.498 130.831 183.462C131.208 183.426 132.304 183.21 133.238 183.012C135.556 182.473 137.659 182.402 138.719 182.779C139.168 182.959 139.527 183.156 139.527 183.228C139.527 183.3 139.635 183.372 139.779 183.372C139.905 183.372 140.12 183.48 140.228 183.623C140.336 183.749 140.606 183.821 140.839 183.785C141.091 183.731 141.36 183.821 141.486 183.983C141.756 184.306 142.852 184.378 143.031 184.073C143.103 183.965 143.283 183.929 143.445 184.001C143.624 184.073 143.858 183.947 144.056 183.695C144.307 183.372 144.415 183.336 144.541 183.516C144.666 183.713 144.828 183.713 145.385 183.552C145.781 183.444 146.661 183.192 147.344 183.012C148.045 182.833 149.482 182.402 150.542 182.024C152.303 181.431 154.783 180.982 155.25 181.162C155.358 181.198 155.699 181.575 156.023 182.006C156.346 182.437 156.885 182.994 157.227 183.21C157.568 183.444 157.945 183.875 158.071 184.162C158.341 184.809 159.545 185.582 161.072 186.085C162.599 186.588 162.941 186.912 163.624 188.565C163.929 189.319 164.27 190.02 164.36 190.146C164.45 190.272 164.486 190.523 164.432 190.703C164.36 190.901 164.396 191.242 164.486 191.494C164.648 191.925 164.684 191.925 166.516 191.889C168.475 191.853 169.481 191.691 172.231 190.973C175.501 190.092 175.734 190.02 176.184 189.679C176.759 189.266 176.866 188.529 176.399 188.187C176.202 188.062 176.004 187.63 175.914 187.199C175.734 186.139 175.177 185.384 173.884 184.486C173.255 184.037 172.77 183.677 172.806 183.641C172.895 183.569 177.118 183.875 177.549 183.983C178.052 184.109 178.16 184.702 178.16 187.235C178.16 190.2 178.645 191.134 179.454 189.751C180.245 188.385 180.334 187.397 180.137 181.665C179.885 173.777 179.436 170.614 177.891 166.14C175.645 159.617 171.781 155.323 165.205 151.998C164.27 151.549 162.186 150.651 160.551 150.004C154.154 147.524 152.86 146.985 151.333 146.23C147.002 144.074 143.678 141.217 141.145 137.48C139.887 135.593 139.402 134.766 136.958 130.184C133.616 123.913 131.981 121.236 129.07 117.283C128.387 116.366 127.686 115.216 127.488 114.731C126.949 113.348 125.709 110.958 124.973 109.88C124.613 109.341 124.074 108.442 123.805 107.903C123.086 106.466 122.026 104.812 120.588 102.872C119.169 100.949 119.007 100.5 118.055 96.2234C117.695 94.5882 116.887 91.6773 116.258 89.7546C115.629 87.832 114.784 85.1546 114.371 83.825C113.509 81.0398 112.161 78.632 110.454 76.7812C110.202 76.5117 110.023 76.2601 110.077 76.2062C110.113 76.1703 112.215 75.2718 114.731 74.2117C117.246 73.1515 120.319 71.8398 121.559 71.3007C123.895 70.2586 126.051 69.0546 125.727 68.9468C125.278 68.8031 123.158 69.5937 116.581 72.3968C112.718 74.032 109.502 75.3796 109.43 75.3796C109.376 75.3796 108.495 74.7507 107.471 73.9781C106.447 73.2234 104.902 72.0914 104.021 71.4804C101.865 69.9711 99.6188 68.1562 95.8813 64.9039C94.1563 63.3945 91.9282 61.4898 90.9039 60.6453C89.6102 59.5492 88.6938 58.5789 87.7414 57.3211C87.0047 56.3328 86.1063 55.2547 85.7289 54.9492C85.3696 54.6257 84.5789 53.7812 84.0039 53.0804C82.6024 51.4093 80.9672 50.0078 77.8586 47.8156C76.4032 46.7914 74.1032 45.9109 72.468 45.7851C70.8328 45.6414 70.5992 45.3898 70.6711 43.7906C70.7071 43.0718 70.5813 41.8679 70.3657 40.8078C70.15 39.8375 69.9883 38.9031 70.0063 38.7414C70.0242 38.3461 70.6891 40.4843 70.725 41.0593C70.761 41.4547 70.761 41.4547 70.8328 41.1312C70.8688 40.9156 70.7789 40.1968 70.6172 39.532C70.3836 38.4539 70.3657 37.9687 70.5992 38.2023C70.7789 38.382 71.2461 41.1492 71.2641 42.1734C71.2821 42.8023 71.3539 43.539 71.4258 43.8445L71.5516 44.3836L71.6594 43.7547C71.9469 42.1195 71.9828 39.8375 71.7133 38.5437C71.4617 37.1961 71.2102 34.8062 71.3719 35.3093C71.4258 35.4531 71.5875 35.8484 71.7492 36.1898C71.911 36.5312 72.0907 37.0882 72.1625 37.4476L72.2883 38.0945L72.3063 37.2679C72.3063 36.8007 72.1985 36.082 72.0547 35.6687C71.7672 34.8421 71.6953 34.0336 71.9649 34.6804C72.0907 34.9679 72.1266 34.932 72.1266 34.4109C72.1266 33.6382 71.0305 30.7453 70.8149 30.9429C70.725 31.0148 70.7071 30.9968 70.761 30.889C70.8149 30.7812 70.7969 29.8468 70.725 28.8226C70.5813 27.0617 70.5094 26.8281 69.575 24.8875C68.9461 23.5757 68.4071 22.1203 68.1016 20.9343C66.9875 16.4242 66.3047 14.3937 65.4781 13.1539C64.975 12.3812 64.5078 12.0937 63.0164 11.6625C62.8906 11.6265 62.8367 11.5007 62.9086 11.3929C62.9805 11.2672 62.9625 11.2312 62.8367 11.3031C62.7469 11.357 62.6211 11.3211 62.5852 11.2132C62.5133 11.0156 61.7946 10.8539 59.6024 10.5843C59.0453 10.5125 58.5961 10.3507 58.5422 10.225C58.4344 9.91949 57.9133 9.91949 56.8352 10.2609ZM62.5313 11.5906C62.711 11.7882 62.7828 11.95 62.675 11.95C62.5852 11.95 62.3516 11.7882 62.1719 11.5906C61.9922 11.3929 61.9203 11.2312 62.0281 11.2312C62.118 11.2312 62.3516 11.3929 62.5313 11.5906ZM64.8133 12.7945C65.2985 13.3156 66.2867 15.1664 66.161 15.2921C66.125 15.3461 65.8555 15.0765 65.568 14.6992C65.2805 14.3218 64.8313 13.8367 64.5797 13.621C64.2742 13.3515 64.1125 13.0461 64.1305 12.7586C64.1485 12.1835 64.2383 12.2015 64.8133 12.7945ZM54.068 13.0101C54.1399 13.1 54.0141 13.1359 53.8164 13.082C53.4031 12.9742 53.3492 12.8484 53.7086 12.8484C53.8524 12.8484 54.0141 12.9203 54.068 13.0101ZM53.8883 13.3156C54.3375 13.4953 54.2297 13.9086 53.6906 14.1242C53.4031 14.232 53.0078 14.4836 52.7922 14.6812L52.3789 15.0585V14.5375C52.3789 13.9625 52.936 13.2078 53.3672 13.2078C53.493 13.2078 53.7266 13.2617 53.8883 13.3156ZM51.9656 14.8609C51.9117 15.0047 51.8578 14.9507 51.8578 14.7531C51.8399 14.5554 51.8938 14.4476 51.9477 14.5195C52.0016 14.5734 52.0196 14.7351 51.9656 14.8609ZM51.786 15.7593C51.7321 15.8851 51.6961 15.7953 51.6961 15.5437C51.6961 15.2921 51.7321 15.2023 51.786 15.3101C51.8219 15.4359 51.8219 15.6515 51.786 15.7593ZM65.3164 16.2804C65.3164 16.532 65.2266 16.4781 64.7594 15.975L64.3281 15.4898L64.8313 15.8132C65.1008 15.975 65.3164 16.1906 65.3164 16.2804ZM54.1758 15.957C54.1758 16.2625 53.3133 17.089 53.1696 16.9273C52.936 16.7117 53.493 15.7234 53.8344 15.7234C54.0321 15.7234 54.1758 15.8312 54.1758 15.957ZM66.4844 16.6578C66.9156 17.7539 67.293 19.0117 67.2031 19.1015C67.1672 19.1554 67.0414 18.9578 66.9156 18.6703C66.6461 17.9695 66.1071 16.6039 65.9453 16.2086C65.8735 16.0468 65.8914 15.9031 65.9992 15.9031C66.0891 15.9031 66.3227 16.2445 66.4844 16.6578ZM65.4063 17.2687C65.6039 17.3765 65.9453 17.9335 66.161 18.5265C66.7 20 66.6641 20.1078 65.9813 18.9578C65.6578 18.4007 65.2625 17.7539 65.1008 17.5203C64.9211 17.2867 64.7774 16.9992 64.7774 16.8914C64.7774 16.7656 64.8313 16.7656 64.9211 16.8914C64.993 16.9812 65.2086 17.1609 65.4063 17.2687ZM53.8164 17.125C53.8164 17.1968 53.6547 17.3586 53.4391 17.4843C53.0977 17.7 53.0977 17.682 53.2774 17.3406C53.4571 16.9992 53.8164 16.8375 53.8164 17.125ZM51.786 18.275C51.75 18.5086 51.7141 18.3289 51.7141 17.8797C51.7141 17.4304 51.75 17.2507 51.786 17.4664C51.8219 17.7 51.8219 18.0593 51.786 18.275ZM67.3649 21.6531C67.4188 22.1382 67.4188 22.3539 67.311 22.1922C67.2391 22.0484 67.1133 21.5632 67.0594 21.114C67.0055 20.6648 67.0235 20.4312 67.0953 20.575C67.1852 20.7187 67.293 21.2039 67.3649 21.6531ZM68.4969 23.6835C68.9821 25.0492 69.018 25.2648 68.7125 24.8875C68.2633 24.3304 68.0297 23.7554 67.85 22.7672C67.6164 21.5273 67.886 21.9046 68.4969 23.6835ZM68.9641 26.9898C69.036 27.3132 69.018 27.5828 68.9282 27.5828C68.7305 27.5828 68.5508 26.9359 68.5688 26.2351C68.5688 25.7859 68.6047 25.75 68.7125 26.0554C68.7844 26.2531 68.9102 26.6843 68.9641 26.9898ZM70.4735 31.5718C70.4196 31.7156 70.3657 31.6617 70.3657 31.464C70.3477 31.2664 70.4016 31.1586 70.4555 31.2304C70.5094 31.2843 70.5274 31.4461 70.4735 31.5718ZM71.318 32.7937C71.4797 33.3328 71.5336 33.6922 71.4617 33.6023C71.318 33.4226 70.8867 32.0929 70.8867 31.8054C70.8867 31.5 71.0485 31.8414 71.318 32.7937ZM70.761 33.4226L70.8688 33.9617L70.6172 33.4226C70.4735 33.1171 70.3657 32.6859 70.3657 32.4343L70.3836 31.9851L70.5094 32.4343C70.5813 32.6859 70.7071 33.1171 70.761 33.4226ZM70.1141 33.7281C70.0602 33.8718 70.0063 33.8179 70.0063 33.6203C69.9883 33.4226 70.0422 33.3148 70.0961 33.3867C70.15 33.4406 70.168 33.6023 70.1141 33.7281ZM48.4438 37.1961C48.5875 38.7773 48.7313 39.6757 48.7852 39.3523C48.9289 38.6156 49.0906 39.0828 49.2703 40.664C49.3602 41.5804 49.4141 41.7601 49.5219 41.4187C49.5938 41.1312 49.6477 41.4726 49.6656 42.3531C49.6836 43.1617 49.7555 43.7547 49.8633 43.7547C49.9711 43.7547 50.043 43.6468 50.061 43.5211C50.0789 43.4132 50.1508 43.5031 50.2406 43.7547C50.3485 44.0781 50.3664 43.9343 50.2946 43.2515C50.2406 42.6765 50.2766 42.3172 50.4024 42.3172C50.4922 42.3172 50.6 42.5328 50.6 42.8023C50.618 43.2515 50.636 43.2336 50.7438 42.6765C50.8696 42.0656 50.8696 42.0656 51.1571 43.2156C51.4086 44.2218 51.4446 44.2937 51.4805 43.7547L51.5164 43.1257L51.768 43.8445L52.0196 44.5632L51.9117 43.7547C51.7141 42.2812 51.5524 40.7 51.6063 40.7C51.75 40.7 52.5586 42.7125 52.7383 43.4492C52.8461 43.9343 53.0797 44.6171 53.2594 44.9765C53.4391 45.3539 53.7625 46.2882 53.9961 47.0789C54.5352 49.0195 54.5352 49.0195 54.4274 47.7976L54.3196 46.7195L54.9305 47.8515C55.4336 48.8398 55.5414 48.9296 55.6313 48.5703C55.7211 48.175 55.7211 48.175 55.8289 48.5164C55.8828 48.714 55.9906 49.0015 56.0446 49.1632C56.1344 49.3789 55.9727 49.5765 55.3797 49.9179C54.9485 50.1695 54.1938 50.7265 53.7086 51.1578C53.2235 51.589 52.6125 52.0382 52.343 52.1461C51.6422 52.4695 50.4563 53.5836 50.007 54.3742C49.7914 54.7515 49.3961 55.1468 49.0906 55.2726C48.8031 55.3984 48.1383 55.8117 47.6352 56.189C47.132 56.5664 46.4313 56.9617 46.0719 57.0515C45.7125 57.1593 45.1195 57.5187 44.7602 57.8601C44.3828 58.2015 43.9516 58.489 43.7719 58.489C43.6102 58.489 42.6219 58.7765 41.5977 59.1359C39.9985 59.6929 39.5313 59.7828 38.543 59.7289C36.7461 59.621 33.5477 59.7109 32.2 59.9086C31.2477 60.0523 30.8883 60.0343 30.493 59.8187C29.8461 59.4953 29.1813 59.4953 27.8695 59.8726C27.0789 60.0882 26.7734 60.1242 26.7195 59.9625C26.6836 59.8367 26.468 59.7468 26.2344 59.7468C25.875 59.7468 25.7672 59.6031 25.6055 59.0101C25.4258 58.3812 25.4438 58.2195 25.7313 57.8961C26.1445 57.4109 35.5242 47.3664 39.5313 43.1257C43.8797 38.5078 48.1383 34.1953 48.1742 34.357C48.1922 34.4289 48.318 35.7047 48.4438 37.1961ZM70.2938 34.8062C70.2399 34.95 70.186 34.8961 70.186 34.6984C70.168 34.5007 70.2219 34.3929 70.2758 34.4648C70.3297 34.5187 70.3477 34.6804 70.2938 34.8062ZM70.4735 35.525C70.4196 35.6687 70.3657 35.6148 70.3657 35.4171C70.3477 35.2195 70.4016 35.1117 70.4555 35.1835C70.5094 35.2375 70.5274 35.3992 70.4735 35.525ZM50.7617 38.7234C50.8696 38.9211 50.9055 39.0828 50.8696 39.0828C50.8156 39.0828 50.6899 38.9211 50.5821 38.7234C50.4742 38.5257 50.4383 38.364 50.4742 38.364C50.5281 38.364 50.6539 38.5257 50.7617 38.7234ZM51.2469 40.0172C51.193 40.1609 51.1391 40.107 51.1391 39.9093C51.1211 39.7117 51.175 39.6039 51.2289 39.6757C51.2828 39.7296 51.3008 39.8914 51.2469 40.0172ZM53.0438 43.6109C52.9899 43.7547 52.936 43.7007 52.936 43.5031C52.918 43.3054 52.9719 43.1976 53.0258 43.2695C53.0797 43.3234 53.0977 43.4851 53.0438 43.6109ZM19.8555 67.8687C19.8555 68.1921 19.2984 68.2281 19.0469 67.9046C18.8313 67.5992 18.8492 67.5453 19.1008 67.4554C19.4242 67.3296 19.8555 67.5812 19.8555 67.8687ZM75.361 79.7461C76.2594 81.5609 77.6789 84.0765 78.5055 85.3343L80.0149 87.6343L79.2782 87.9398C75.4867 89.539 72.1086 90.8507 72.0188 90.7609C71.9469 90.689 71.7852 89.4132 71.6594 87.9039C71.4617 85.7656 71.4617 84.7773 71.6235 83.2859C71.9289 80.4289 73.1328 76.4578 73.6899 76.4578C73.7078 76.4578 74.4625 77.9492 75.361 79.7461ZM81.4524 89.2695C82.6024 90.5992 84.4711 92.1265 86.3399 93.2586C87.2743 93.8156 88.4782 94.5882 89.0352 94.9656C90.7602 96.1336 93.8508 98.0023 95.1086 98.6312C95.7735 98.9546 97.8578 99.8171 99.7266 100.536C107.202 103.393 110.759 105.136 114.964 107.957C117.426 109.61 117.282 109.233 116.707 112.934C115.557 120.373 112.916 127.166 108.495 133.958L107.417 135.611L104.093 132.323C101.667 129.897 100.158 128.208 98.4508 125.98C94.1203 120.319 93.4196 119.439 91.6407 117.337C90.5446 116.043 89.6461 115.162 89.2868 115.001C88.9454 114.857 88.568 114.516 88.3883 114.156C88.0289 113.455 85.2078 110.544 83.8782 109.502C82.7821 108.64 82.2071 107.813 82.2071 107.059C82.2071 106.286 81.0211 104.561 79.1883 102.638C77.068 100.41 76.6367 99.8711 76.6367 99.3679C76.6367 99.0265 76.493 98.9007 75.9719 98.757C75.5946 98.6492 75.1992 98.5593 75.0735 98.5593C74.8039 98.5593 73.5102 96.6726 72.9352 95.4507C72.5219 94.5343 71.875 92.1086 72.0188 91.9828C72.0907 91.9109 80.6618 88.3711 80.6977 88.389C80.7157 88.407 81.0571 88.7843 81.4524 89.2695ZM47.9047 98.1101C47.9586 100.069 47.761 101.003 47.3297 100.859C47.2219 100.823 47.0063 100.392 46.8266 99.8711C46.4313 98.6851 46 98.0562 45.3531 97.6968C44.6883 97.3015 44.7781 96.9961 45.9281 95.6843C46.3953 95.1453 46.9703 94.3367 47.2039 93.8875L47.6172 93.0789L47.743 94.6062C47.8149 95.4507 47.8867 97.014 47.9047 98.1101ZM34.1945 98.2C34.0867 98.5054 34.0508 98.9726 34.0867 99.2421C34.1406 99.5117 34.1227 99.925 34.0508 100.177C33.943 100.572 33.907 100.518 33.7992 99.7992C33.6914 99.2242 33.7453 98.7929 33.943 98.3257C34.2664 97.5171 34.4641 97.4453 34.1945 98.2ZM41.957 105.064C41.957 105.19 41.7055 105.316 41.418 105.334C40.843 105.369 40.6813 105.1 41.2024 104.974C41.7774 104.83 41.957 104.848 41.957 105.064ZM47.743 107.13C47.6352 107.31 47.3297 107.472 47.0422 107.49L46.5391 107.526L47.132 107.238C47.4375 107.077 47.7071 106.861 47.7071 106.771C47.7071 106.663 47.761 106.627 47.8149 106.681C47.8688 106.753 47.8328 106.951 47.743 107.13Z"/>
        </mask>
        <path d="M56.8352 10.2609C56.1164 10.4765 55.9727 10.6023 55.9727 10.9617C55.9727 11.2851 55.8469 11.4109 55.4336 11.5007C54.9125 11.6086 54.6789 11.95 55.1281 11.95C55.236 11.95 55.2 12.0398 55.0383 12.1476C54.8586 12.2375 54.7149 12.4171 54.7149 12.5429C54.7149 12.6867 54.4274 12.7406 53.8524 12.7047C53.0797 12.6507 52.918 12.7047 52.4328 13.1898C51.8578 13.7648 51.4805 14.8789 51.4805 16.0289C51.4805 16.4062 51.3188 17.3226 51.1211 18.0593C50.9235 18.7961 50.7617 19.425 50.7617 19.4609C50.7617 19.4968 50.8696 19.4609 50.9953 19.389C51.1031 19.2992 50.9953 19.5328 50.7438 19.8742C49.6836 21.2937 49.486 21.6171 49.0727 22.7492C48.4617 24.3843 48.0125 27.6367 48.1024 29.6492L48.1922 31.2664L42.8555 36.5672C39.9266 39.4781 35.057 44.4914 32.0563 47.7078C29.0555 50.9242 25.9828 54.1765 25.2461 54.9492L23.8984 56.3507L22.8563 56.0812C22.2992 55.9375 21.6524 55.6859 21.4367 55.5421C20.9875 55.2187 19.9274 55.1648 19.7656 55.4343C19.7117 55.5242 19.3524 55.614 18.975 55.614C18.4899 55.614 18.1844 55.7398 17.8789 56.0632C17.3399 56.6382 17.4656 57.2851 18.4 58.6328C18.7774 59.1898 19.1547 59.8367 19.2266 60.0703C19.3524 60.4836 19.3344 60.4836 18.8313 60.232C18.5617 60.0882 18.1664 59.8007 17.9867 59.5851C17.6992 59.2617 16.2078 58.6687 15.7047 58.6687C15.6328 58.6687 15.1836 58.9921 14.7344 59.3875C14.2852 59.7828 13.7641 60.1062 13.5844 60.1062C13.1891 60.1062 12.7578 60.5734 12.5781 61.1843C12.5063 61.4359 12.2008 62.0109 11.9133 62.4781C11.5359 63.0711 11.4102 63.4484 11.5 63.7179C11.5719 63.9515 11.5 64.3289 11.3203 64.6703C10.7633 65.6945 11.1406 66.6468 12.3984 67.5453C12.7398 67.7968 12.7219 67.8328 11.7695 68.857C11.2305 69.432 10.5836 70.025 10.332 70.1867C9.63125 70.6359 8.76875 71.5523 7.9961 72.6664C7.40313 73.5468 5.60625 75.2 5.24688 75.2C5.08516 75.2 3.37813 76.4039 2.83906 76.889C2.60547 77.0867 2.42578 77.3742 2.42578 77.5359C2.42578 77.6976 2.26406 77.9851 2.06641 78.1648C1.36563 78.7937 1.77891 80.1953 2.74922 80.5007C3.07266 80.5906 3.28828 80.4828 3.77344 79.9437C4.11485 79.5664 4.40235 79.189 4.40235 79.1171C4.40235 79.0453 4.70781 78.9734 5.08516 78.9734C5.85781 78.9734 6.19922 78.7578 8.12188 77.0328C8.96641 76.2781 9.4336 75.739 9.4875 75.3796C9.55938 75.0382 9.79297 74.7507 10.1523 74.5711C10.4398 74.4273 10.8531 73.9781 11.0508 73.5828C11.2484 73.1875 11.8055 72.5765 12.2906 72.2351C12.7578 71.8937 13.225 71.4265 13.3328 71.1929C13.4406 70.9773 13.9438 70.3125 14.4648 69.7554C15.3813 68.7492 15.4172 68.7312 16.3336 68.7671C16.8367 68.7851 18.4719 68.7671 19.9453 68.7492C22.6047 68.6953 22.6766 68.6953 24.8867 69.3601C27.4742 70.1328 29.0375 70.2406 30.1875 69.7375C30.8703 69.432 31.05 69.432 34.0149 69.7375C36.9617 70.0429 37.2492 70.0429 39.3156 69.7554C40.5195 69.5757 41.7055 69.396 41.9391 69.3242L42.3703 69.2164L41.9031 69.8273C41.0227 70.9953 40.6992 71.9476 40.6992 73.4929C40.6992 75.9906 41.2024 77.5179 42.6219 79.2789C42.9453 79.6921 43.2149 80.1054 43.2149 80.1953C43.2149 80.375 42.1367 83.3757 41.0945 86.0531C40.843 86.7359 40.3399 87.6343 39.9805 88.0656C39.6391 88.4789 39.082 89.3054 38.7406 89.8804C38.1117 90.9406 36.5664 92.5398 36.0094 92.7195C35.8477 92.7734 35.5781 93.0968 35.3985 93.4203C35.2188 93.7437 34.8414 94.157 34.5539 94.3367C34.2485 94.5164 33.9969 94.8398 33.925 95.1453C33.8711 95.4328 33.7274 95.7023 33.5836 95.7562C33.4399 95.8101 33.332 95.9539 33.332 96.0617C33.332 96.3671 34.2485 96.0796 34.7336 95.6304L35.1649 95.2351L34.8414 95.9539C34.6617 96.3492 34.2125 97.0679 33.8352 97.5531C32.9008 98.757 32.6672 99.5835 32.9367 100.841L33.1524 101.848L32.236 102.89C31.1758 104.112 30.9422 104.974 31.4274 105.944C31.5891 106.268 31.6969 106.537 31.6789 106.555C31.643 106.573 31.3016 106.699 30.9063 106.861C29.0195 107.616 28.0852 108.047 27.7977 108.298C27.2586 108.784 26.6656 109.017 25.5695 109.161C24.8867 109.269 24.3297 109.448 24.0961 109.682C23.7906 109.969 23.6469 110.005 23.4852 109.844C23.3234 109.682 22.9281 109.79 21.7781 110.311C20.9695 110.688 19.9813 111.155 19.5859 111.335C19.1727 111.515 18.6875 111.856 18.4719 112.108C18.2563 112.359 17.7352 112.647 17.3039 112.755C16.3695 113.006 15.6867 113.366 15.4711 113.707C15.2195 114.102 15.507 114.875 16.0102 115.198C16.4414 115.486 16.4953 115.468 17.7531 114.839C18.4719 114.498 19.4602 114.066 19.9453 113.923C20.4484 113.761 21.2031 113.437 21.6524 113.222C22.1016 112.988 22.8922 112.665 23.3953 112.485C23.9164 112.323 24.3836 112.108 24.4375 112.018C24.5094 111.928 24.707 111.856 24.9047 111.856C25.3539 111.856 26.7375 111.245 27.582 110.67C27.9234 110.437 28.3906 110.239 28.6063 110.239C28.8399 110.239 29.6844 109.969 30.493 109.628C32.9906 108.604 33.2961 108.532 33.6914 108.891C33.961 109.143 34.2664 109.179 35.2547 109.107C35.9195 109.053 36.6742 108.963 36.9258 108.927C37.1774 108.891 37.6266 108.837 37.932 108.837C38.2195 108.819 38.6328 108.658 38.8305 108.478C39.4953 107.903 40.3578 107.544 40.807 107.652C41.0766 107.723 41.418 107.652 41.7235 107.454C42.0649 107.22 42.2266 107.184 42.2805 107.346C42.55 108.155 43.6461 108.352 43.8258 107.616C43.9336 107.238 43.9875 107.184 44.2031 107.364C44.3828 107.508 44.7422 107.544 45.1735 107.472C45.5688 107.418 46.018 107.418 46.1977 107.49C46.5211 107.616 46.1797 107.723 42.9453 108.532C41.6336 108.855 40.4297 109.341 38.543 110.293C35.1469 112.018 32.0203 113.24 28.0313 114.372C26.2524 114.875 22.982 116.025 20.7539 116.923C18.5258 117.822 15.507 118.99 14.0156 119.529C8.625 121.505 5.06719 123.554 2.78516 125.998C0.628906 128.316 0 129.933 0 133.239C0.0179688 135.162 0.071875 135.665 0.449219 136.653C1.23984 138.827 2.60547 140.624 4.22266 141.648C4.76172 142.008 6.19922 142.996 7.38516 143.841L9.57735 145.404L9.05625 145.709C8.64297 145.961 8.5711 146.087 8.69688 146.338C8.94844 146.805 10.1883 147.902 12.3266 149.537C15.0758 151.675 17.4477 154.28 19.8555 157.856C20.4305 158.701 21.4727 159.994 22.1734 160.731C24.0242 162.672 25.893 165.331 26.6117 167.038C26.9352 167.847 27.5461 168.907 27.9414 169.374C28.5524 170.111 28.6602 170.362 28.7141 171.225C28.75 171.836 28.8938 172.357 29.0734 172.555C29.3609 172.878 29.3609 172.932 28.732 173.579C27.9234 174.441 26.5399 175.34 24.0063 176.634C22.1914 177.568 21.9578 177.64 21.4906 177.46C21.0953 177.28 20.8617 177.316 20.1789 177.604C19.0469 178.089 15.3992 179.149 13.7281 179.491C12.9734 179.652 12.2188 179.832 12.057 179.886C11.5719 180.084 11.1945 180.964 11.3383 181.665C11.4281 182.15 11.3742 182.312 11.1586 182.402C10.5477 182.635 10.8531 183.138 11.9133 183.605C14.2852 184.648 16.7828 185.169 19.3524 185.169C21.7961 185.169 23.4133 184.953 28.3906 184.001C31.3555 183.444 33.2063 183.192 34.9492 183.102C39.1539 182.905 42.1906 182.366 43.7899 181.557C44.5266 181.18 44.6883 180.641 44.1852 180.353C43.9336 180.209 43.9156 180.066 44.1133 179.167C44.3289 178.071 44.293 177.64 43.7 175.789C43.3766 174.729 43.3586 174.513 43.5742 174.118C43.8258 173.633 43.736 172.95 43.0891 170.884C42.586 169.266 42.4961 169.087 41.8852 168.404C41.5438 168.027 41.1485 167.344 40.9688 166.877C40.7711 166.337 40.3219 165.709 39.7289 165.134C39.2078 164.63 38.4711 163.66 38.0938 162.977C37.7164 162.277 37.0336 161.216 36.6024 160.587C36.1711 159.977 35.5781 158.88 35.3086 158.162C35.0391 157.443 34.5359 156.401 34.1945 155.844C33.8531 155.287 33.4219 154.227 33.2422 153.508C33.0805 152.789 32.6492 151.657 32.3258 150.974C31.9844 150.309 31.3555 148.71 30.9063 147.416C30.2774 145.53 30.1336 144.901 30.2055 144.236C30.2953 143.463 30.2234 143.302 29.4328 142.134C28.9477 141.451 28.4086 140.858 28.2109 140.804C28.0133 140.768 27.7438 140.588 27.618 140.409C27.4922 140.229 27.2945 140.121 27.1688 140.175C27.043 140.211 26.6297 139.923 26.2344 139.528C25.8031 139.097 25.3719 138.809 25.1024 138.809C24.8867 138.809 24.4195 138.594 24.0781 138.324L23.4672 137.839L26.1086 137.174C27.582 136.815 29.8102 136.096 31.1758 135.521C34.3922 134.209 39.5672 132.952 43.125 132.628C45.0836 132.448 45.8383 132.305 46.4672 131.999L47.2938 131.586L51.2289 132.017C57.3383 132.7 59.225 132.448 64.6696 130.202C67.0055 129.232 67.7782 128.98 68.0297 129.124C68.2094 129.214 68.9102 129.789 69.575 130.382C70.743 131.442 73.1149 133.077 74.3367 133.706C74.6602 133.868 75.0914 134.137 75.2891 134.317C75.4867 134.497 76.5828 135 77.7149 135.431C78.8649 135.88 80.2305 136.491 80.7696 136.797C81.3086 137.102 82.4407 137.695 83.2852 138.109C84.8485 138.881 86.3578 139.852 89.0352 141.774C89.8797 142.385 91.4071 143.463 92.4493 144.2C93.4914 144.937 95.0368 146.051 95.8993 146.698L97.4446 147.866L95.486 149.932C91.3532 154.334 83.7883 161.288 78.1641 165.834C77.086 166.715 75.8641 167.739 75.4688 168.098C74.0492 169.41 66.5383 174.944 62.3875 177.748C59.7461 179.509 59.0274 180.084 59.0274 180.371C59.0274 180.623 61.3094 180.407 64.5977 179.868C66.7 179.509 68.0117 179.383 69.9883 179.383C72.4141 179.383 72.6657 179.419 73.6719 179.85C74.2649 180.119 75.0375 180.605 75.3789 180.928C77.2657 182.707 78.3977 183.066 81.2188 182.833C82.3149 182.743 84.7766 182.419 86.6992 182.114C90.4188 181.503 93.743 181.305 95.2344 181.575C95.7375 181.683 97.0852 182.168 98.2352 182.653C99.3852 183.156 100.517 183.552 100.751 183.552C100.984 183.552 101.416 183.623 101.721 183.713C102.26 183.857 106.914 183.534 107.543 183.3C107.687 183.246 108.334 183.12 108.981 183.03C109.627 182.923 110.831 182.725 111.658 182.581C112.502 182.419 113.994 182.222 115 182.114C117.156 181.898 118.702 182.132 120.534 182.994C123.194 184.234 123.445 184.306 124.775 184.396C125.781 184.468 126.32 184.414 126.806 184.216C127.183 184.055 127.524 184.001 127.578 184.091C127.668 184.234 128.872 184.037 129.663 183.713C129.914 183.623 130.435 183.498 130.831 183.462C131.208 183.426 132.304 183.21 133.238 183.012C135.556 182.473 137.659 182.402 138.719 182.779C139.168 182.959 139.527 183.156 139.527 183.228C139.527 183.3 139.635 183.372 139.779 183.372C139.905 183.372 140.12 183.48 140.228 183.623C140.336 183.749 140.606 183.821 140.839 183.785C141.091 183.731 141.36 183.821 141.486 183.983C141.756 184.306 142.852 184.378 143.031 184.073C143.103 183.965 143.283 183.929 143.445 184.001C143.624 184.073 143.858 183.947 144.056 183.695C144.307 183.372 144.415 183.336 144.541 183.516C144.666 183.713 144.828 183.713 145.385 183.552C145.781 183.444 146.661 183.192 147.344 183.012C148.045 182.833 149.482 182.402 150.542 182.024C152.303 181.431 154.783 180.982 155.25 181.162C155.358 181.198 155.699 181.575 156.023 182.006C156.346 182.437 156.885 182.994 157.227 183.21C157.568 183.444 157.945 183.875 158.071 184.162C158.341 184.809 159.545 185.582 161.072 186.085C162.599 186.588 162.941 186.912 163.624 188.565C163.929 189.319 164.27 190.02 164.36 190.146C164.45 190.272 164.486 190.523 164.432 190.703C164.36 190.901 164.396 191.242 164.486 191.494C164.648 191.925 164.684 191.925 166.516 191.889C168.475 191.853 169.481 191.691 172.231 190.973C175.501 190.092 175.734 190.02 176.184 189.679C176.759 189.266 176.866 188.529 176.399 188.187C176.202 188.062 176.004 187.63 175.914 187.199C175.734 186.139 175.177 185.384 173.884 184.486C173.255 184.037 172.77 183.677 172.806 183.641C172.895 183.569 177.118 183.875 177.549 183.983C178.052 184.109 178.16 184.702 178.16 187.235C178.16 190.2 178.645 191.134 179.454 189.751C180.245 188.385 180.334 187.397 180.137 181.665C179.885 173.777 179.436 170.614 177.891 166.14C175.645 159.617 171.781 155.323 165.205 151.998C164.27 151.549 162.186 150.651 160.551 150.004C154.154 147.524 152.86 146.985 151.333 146.23C147.002 144.074 143.678 141.217 141.145 137.48C139.887 135.593 139.402 134.766 136.958 130.184C133.616 123.913 131.981 121.236 129.07 117.283C128.387 116.366 127.686 115.216 127.488 114.731C126.949 113.348 125.709 110.958 124.973 109.88C124.613 109.341 124.074 108.442 123.805 107.903C123.086 106.466 122.026 104.812 120.588 102.872C119.169 100.949 119.007 100.5 118.055 96.2234C117.695 94.5882 116.887 91.6773 116.258 89.7546C115.629 87.832 114.784 85.1546 114.371 83.825C113.509 81.0398 112.161 78.632 110.454 76.7812C110.202 76.5117 110.023 76.2601 110.077 76.2062C110.113 76.1703 112.215 75.2718 114.731 74.2117C117.246 73.1515 120.319 71.8398 121.559 71.3007C123.895 70.2586 126.051 69.0546 125.727 68.9468C125.278 68.8031 123.158 69.5937 116.581 72.3968C112.718 74.032 109.502 75.3796 109.43 75.3796C109.376 75.3796 108.495 74.7507 107.471 73.9781C106.447 73.2234 104.902 72.0914 104.021 71.4804C101.865 69.9711 99.6188 68.1562 95.8813 64.9039C94.1563 63.3945 91.9282 61.4898 90.9039 60.6453C89.6102 59.5492 88.6938 58.5789 87.7414 57.3211C87.0047 56.3328 86.1063 55.2547 85.7289 54.9492C85.3696 54.6257 84.5789 53.7812 84.0039 53.0804C82.6024 51.4093 80.9672 50.0078 77.8586 47.8156C76.4032 46.7914 74.1032 45.9109 72.468 45.7851C70.8328 45.6414 70.5992 45.3898 70.6711 43.7906C70.7071 43.0718 70.5813 41.8679 70.3657 40.8078C70.15 39.8375 69.9883 38.9031 70.0063 38.7414C70.0242 38.3461 70.6891 40.4843 70.725 41.0593C70.761 41.4547 70.761 41.4547 70.8328 41.1312C70.8688 40.9156 70.7789 40.1968 70.6172 39.532C70.3836 38.4539 70.3657 37.9687 70.5992 38.2023C70.7789 38.382 71.2461 41.1492 71.2641 42.1734C71.2821 42.8023 71.3539 43.539 71.4258 43.8445L71.5516 44.3836L71.6594 43.7547C71.9469 42.1195 71.9828 39.8375 71.7133 38.5437C71.4617 37.1961 71.2102 34.8062 71.3719 35.3093C71.4258 35.4531 71.5875 35.8484 71.7492 36.1898C71.911 36.5312 72.0907 37.0882 72.1625 37.4476L72.2883 38.0945L72.3063 37.2679C72.3063 36.8007 72.1985 36.082 72.0547 35.6687C71.7672 34.8421 71.6953 34.0336 71.9649 34.6804C72.0907 34.9679 72.1266 34.932 72.1266 34.4109C72.1266 33.6382 71.0305 30.7453 70.8149 30.9429C70.725 31.0148 70.7071 30.9968 70.761 30.889C70.8149 30.7812 70.7969 29.8468 70.725 28.8226C70.5813 27.0617 70.5094 26.8281 69.575 24.8875C68.9461 23.5757 68.4071 22.1203 68.1016 20.9343C66.9875 16.4242 66.3047 14.3937 65.4781 13.1539C64.975 12.3812 64.5078 12.0937 63.0164 11.6625C62.8906 11.6265 62.8367 11.5007 62.9086 11.3929C62.9805 11.2672 62.9625 11.2312 62.8367 11.3031C62.7469 11.357 62.6211 11.3211 62.5852 11.2132C62.5133 11.0156 61.7946 10.8539 59.6024 10.5843C59.0453 10.5125 58.5961 10.3507 58.5422 10.225C58.4344 9.91949 57.9133 9.91949 56.8352 10.2609ZM62.5313 11.5906C62.711 11.7882 62.7828 11.95 62.675 11.95C62.5852 11.95 62.3516 11.7882 62.1719 11.5906C61.9922 11.3929 61.9203 11.2312 62.0281 11.2312C62.118 11.2312 62.3516 11.3929 62.5313 11.5906ZM64.8133 12.7945C65.2985 13.3156 66.2867 15.1664 66.161 15.2921C66.125 15.3461 65.8555 15.0765 65.568 14.6992C65.2805 14.3218 64.8313 13.8367 64.5797 13.621C64.2742 13.3515 64.1125 13.0461 64.1305 12.7586C64.1485 12.1835 64.2383 12.2015 64.8133 12.7945ZM54.068 13.0101C54.1399 13.1 54.0141 13.1359 53.8164 13.082C53.4031 12.9742 53.3492 12.8484 53.7086 12.8484C53.8524 12.8484 54.0141 12.9203 54.068 13.0101ZM53.8883 13.3156C54.3375 13.4953 54.2297 13.9086 53.6906 14.1242C53.4031 14.232 53.0078 14.4836 52.7922 14.6812L52.3789 15.0585V14.5375C52.3789 13.9625 52.936 13.2078 53.3672 13.2078C53.493 13.2078 53.7266 13.2617 53.8883 13.3156ZM51.9656 14.8609C51.9117 15.0047 51.8578 14.9507 51.8578 14.7531C51.8399 14.5554 51.8938 14.4476 51.9477 14.5195C52.0016 14.5734 52.0196 14.7351 51.9656 14.8609ZM51.786 15.7593C51.7321 15.8851 51.6961 15.7953 51.6961 15.5437C51.6961 15.2921 51.7321 15.2023 51.786 15.3101C51.8219 15.4359 51.8219 15.6515 51.786 15.7593ZM65.3164 16.2804C65.3164 16.532 65.2266 16.4781 64.7594 15.975L64.3281 15.4898L64.8313 15.8132C65.1008 15.975 65.3164 16.1906 65.3164 16.2804ZM54.1758 15.957C54.1758 16.2625 53.3133 17.089 53.1696 16.9273C52.936 16.7117 53.493 15.7234 53.8344 15.7234C54.0321 15.7234 54.1758 15.8312 54.1758 15.957ZM66.4844 16.6578C66.9156 17.7539 67.293 19.0117 67.2031 19.1015C67.1672 19.1554 67.0414 18.9578 66.9156 18.6703C66.6461 17.9695 66.1071 16.6039 65.9453 16.2086C65.8735 16.0468 65.8914 15.9031 65.9992 15.9031C66.0891 15.9031 66.3227 16.2445 66.4844 16.6578ZM65.4063 17.2687C65.6039 17.3765 65.9453 17.9335 66.161 18.5265C66.7 20 66.6641 20.1078 65.9813 18.9578C65.6578 18.4007 65.2625 17.7539 65.1008 17.5203C64.9211 17.2867 64.7774 16.9992 64.7774 16.8914C64.7774 16.7656 64.8313 16.7656 64.9211 16.8914C64.993 16.9812 65.2086 17.1609 65.4063 17.2687ZM53.8164 17.125C53.8164 17.1968 53.6547 17.3586 53.4391 17.4843C53.0977 17.7 53.0977 17.682 53.2774 17.3406C53.4571 16.9992 53.8164 16.8375 53.8164 17.125ZM51.786 18.275C51.75 18.5086 51.7141 18.3289 51.7141 17.8797C51.7141 17.4304 51.75 17.2507 51.786 17.4664C51.8219 17.7 51.8219 18.0593 51.786 18.275ZM67.3649 21.6531C67.4188 22.1382 67.4188 22.3539 67.311 22.1922C67.2391 22.0484 67.1133 21.5632 67.0594 21.114C67.0055 20.6648 67.0235 20.4312 67.0953 20.575C67.1852 20.7187 67.293 21.2039 67.3649 21.6531ZM68.4969 23.6835C68.9821 25.0492 69.018 25.2648 68.7125 24.8875C68.2633 24.3304 68.0297 23.7554 67.85 22.7672C67.6164 21.5273 67.886 21.9046 68.4969 23.6835ZM68.9641 26.9898C69.036 27.3132 69.018 27.5828 68.9282 27.5828C68.7305 27.5828 68.5508 26.9359 68.5688 26.2351C68.5688 25.7859 68.6047 25.75 68.7125 26.0554C68.7844 26.2531 68.9102 26.6843 68.9641 26.9898ZM70.4735 31.5718C70.4196 31.7156 70.3657 31.6617 70.3657 31.464C70.3477 31.2664 70.4016 31.1586 70.4555 31.2304C70.5094 31.2843 70.5274 31.4461 70.4735 31.5718ZM71.318 32.7937C71.4797 33.3328 71.5336 33.6922 71.4617 33.6023C71.318 33.4226 70.8867 32.0929 70.8867 31.8054C70.8867 31.5 71.0485 31.8414 71.318 32.7937ZM70.761 33.4226L70.8688 33.9617L70.6172 33.4226C70.4735 33.1171 70.3657 32.6859 70.3657 32.4343L70.3836 31.9851L70.5094 32.4343C70.5813 32.6859 70.7071 33.1171 70.761 33.4226ZM70.1141 33.7281C70.0602 33.8718 70.0063 33.8179 70.0063 33.6203C69.9883 33.4226 70.0422 33.3148 70.0961 33.3867C70.15 33.4406 70.168 33.6023 70.1141 33.7281ZM48.4438 37.1961C48.5875 38.7773 48.7313 39.6757 48.7852 39.3523C48.9289 38.6156 49.0906 39.0828 49.2703 40.664C49.3602 41.5804 49.4141 41.7601 49.5219 41.4187C49.5938 41.1312 49.6477 41.4726 49.6656 42.3531C49.6836 43.1617 49.7555 43.7547 49.8633 43.7547C49.9711 43.7547 50.043 43.6468 50.061 43.5211C50.0789 43.4132 50.1508 43.5031 50.2406 43.7547C50.3485 44.0781 50.3664 43.9343 50.2946 43.2515C50.2406 42.6765 50.2766 42.3172 50.4024 42.3172C50.4922 42.3172 50.6 42.5328 50.6 42.8023C50.618 43.2515 50.636 43.2336 50.7438 42.6765C50.8696 42.0656 50.8696 42.0656 51.1571 43.2156C51.4086 44.2218 51.4446 44.2937 51.4805 43.7547L51.5164 43.1257L51.768 43.8445L52.0196 44.5632L51.9117 43.7547C51.7141 42.2812 51.5524 40.7 51.6063 40.7C51.75 40.7 52.5586 42.7125 52.7383 43.4492C52.8461 43.9343 53.0797 44.6171 53.2594 44.9765C53.4391 45.3539 53.7625 46.2882 53.9961 47.0789C54.5352 49.0195 54.5352 49.0195 54.4274 47.7976L54.3196 46.7195L54.9305 47.8515C55.4336 48.8398 55.5414 48.9296 55.6313 48.5703C55.7211 48.175 55.7211 48.175 55.8289 48.5164C55.8828 48.714 55.9906 49.0015 56.0446 49.1632C56.1344 49.3789 55.9727 49.5765 55.3797 49.9179C54.9485 50.1695 54.1938 50.7265 53.7086 51.1578C53.2235 51.589 52.6125 52.0382 52.343 52.1461C51.6422 52.4695 50.4563 53.5836 50.007 54.3742C49.7914 54.7515 49.3961 55.1468 49.0906 55.2726C48.8031 55.3984 48.1383 55.8117 47.6352 56.189C47.132 56.5664 46.4313 56.9617 46.0719 57.0515C45.7125 57.1593 45.1195 57.5187 44.7602 57.8601C44.3828 58.2015 43.9516 58.489 43.7719 58.489C43.6102 58.489 42.6219 58.7765 41.5977 59.1359C39.9985 59.6929 39.5313 59.7828 38.543 59.7289C36.7461 59.621 33.5477 59.7109 32.2 59.9086C31.2477 60.0523 30.8883 60.0343 30.493 59.8187C29.8461 59.4953 29.1813 59.4953 27.8695 59.8726C27.0789 60.0882 26.7734 60.1242 26.7195 59.9625C26.6836 59.8367 26.468 59.7468 26.2344 59.7468C25.875 59.7468 25.7672 59.6031 25.6055 59.0101C25.4258 58.3812 25.4438 58.2195 25.7313 57.8961C26.1445 57.4109 35.5242 47.3664 39.5313 43.1257C43.8797 38.5078 48.1383 34.1953 48.1742 34.357C48.1922 34.4289 48.318 35.7047 48.4438 37.1961ZM70.2938 34.8062C70.2399 34.95 70.186 34.8961 70.186 34.6984C70.168 34.5007 70.2219 34.3929 70.2758 34.4648C70.3297 34.5187 70.3477 34.6804 70.2938 34.8062ZM70.4735 35.525C70.4196 35.6687 70.3657 35.6148 70.3657 35.4171C70.3477 35.2195 70.4016 35.1117 70.4555 35.1835C70.5094 35.2375 70.5274 35.3992 70.4735 35.525ZM50.7617 38.7234C50.8696 38.9211 50.9055 39.0828 50.8696 39.0828C50.8156 39.0828 50.6899 38.9211 50.5821 38.7234C50.4742 38.5257 50.4383 38.364 50.4742 38.364C50.5281 38.364 50.6539 38.5257 50.7617 38.7234ZM51.2469 40.0172C51.193 40.1609 51.1391 40.107 51.1391 39.9093C51.1211 39.7117 51.175 39.6039 51.2289 39.6757C51.2828 39.7296 51.3008 39.8914 51.2469 40.0172ZM53.0438 43.6109C52.9899 43.7547 52.936 43.7007 52.936 43.5031C52.918 43.3054 52.9719 43.1976 53.0258 43.2695C53.0797 43.3234 53.0977 43.4851 53.0438 43.6109ZM19.8555 67.8687C19.8555 68.1921 19.2984 68.2281 19.0469 67.9046C18.8313 67.5992 18.8492 67.5453 19.1008 67.4554C19.4242 67.3296 19.8555 67.5812 19.8555 67.8687ZM75.361 79.7461C76.2594 81.5609 77.6789 84.0765 78.5055 85.3343L80.0149 87.6343L79.2782 87.9398C75.4867 89.539 72.1086 90.8507 72.0188 90.7609C71.9469 90.689 71.7852 89.4132 71.6594 87.9039C71.4617 85.7656 71.4617 84.7773 71.6235 83.2859C71.9289 80.4289 73.1328 76.4578 73.6899 76.4578C73.7078 76.4578 74.4625 77.9492 75.361 79.7461ZM81.4524 89.2695C82.6024 90.5992 84.4711 92.1265 86.3399 93.2586C87.2743 93.8156 88.4782 94.5882 89.0352 94.9656C90.7602 96.1336 93.8508 98.0023 95.1086 98.6312C95.7735 98.9546 97.8578 99.8171 99.7266 100.536C107.202 103.393 110.759 105.136 114.964 107.957C117.426 109.61 117.282 109.233 116.707 112.934C115.557 120.373 112.916 127.166 108.495 133.958L107.417 135.611L104.093 132.323C101.667 129.897 100.158 128.208 98.4508 125.98C94.1203 120.319 93.4196 119.439 91.6407 117.337C90.5446 116.043 89.6461 115.162 89.2868 115.001C88.9454 114.857 88.568 114.516 88.3883 114.156C88.0289 113.455 85.2078 110.544 83.8782 109.502C82.7821 108.64 82.2071 107.813 82.2071 107.059C82.2071 106.286 81.0211 104.561 79.1883 102.638C77.068 100.41 76.6367 99.8711 76.6367 99.3679C76.6367 99.0265 76.493 98.9007 75.9719 98.757C75.5946 98.6492 75.1992 98.5593 75.0735 98.5593C74.8039 98.5593 73.5102 96.6726 72.9352 95.4507C72.5219 94.5343 71.875 92.1086 72.0188 91.9828C72.0907 91.9109 80.6618 88.3711 80.6977 88.389C80.7157 88.407 81.0571 88.7843 81.4524 89.2695ZM47.9047 98.1101C47.9586 100.069 47.761 101.003 47.3297 100.859C47.2219 100.823 47.0063 100.392 46.8266 99.8711C46.4313 98.6851 46 98.0562 45.3531 97.6968C44.6883 97.3015 44.7781 96.9961 45.9281 95.6843C46.3953 95.1453 46.9703 94.3367 47.2039 93.8875L47.6172 93.0789L47.743 94.6062C47.8149 95.4507 47.8867 97.014 47.9047 98.1101ZM34.1945 98.2C34.0867 98.5054 34.0508 98.9726 34.0867 99.2421C34.1406 99.5117 34.1227 99.925 34.0508 100.177C33.943 100.572 33.907 100.518 33.7992 99.7992C33.6914 99.2242 33.7453 98.7929 33.943 98.3257C34.2664 97.5171 34.4641 97.4453 34.1945 98.2ZM41.957 105.064C41.957 105.19 41.7055 105.316 41.418 105.334C40.843 105.369 40.6813 105.1 41.2024 104.974C41.7774 104.83 41.957 104.848 41.957 105.064ZM47.743 107.13C47.6352 107.31 47.3297 107.472 47.0422 107.49L46.5391 107.526L47.132 107.238C47.4375 107.077 47.7071 106.861 47.7071 106.771C47.7071 106.663 47.761 106.627 47.8149 106.681C47.8688 106.753 47.8328 106.951 47.743 107.13Z" fill="black" stroke="white" stroke-width="2" mask="url(#path-1-inside-1)"/>
        <path d="M52.1752 44.9283C52.1847 44.8347 52.1646 44.7448 52.127 44.7072C52.0918 44.6603 52.0566 44.69 52.0414 44.7714C52.04 44.7793 52.0387 44.7878 52.0376 44.7967C52.0328 44.8362 52.0321 44.8849 52.0372 44.9408C52.0372 44.9636 52.0379 44.9845 52.0393 45.0034C52.0394 45.0053 52.0396 45.0073 52.0397 45.0092C52.0509 45.149 52.098 45.1741 52.145 45.0487C52.1597 45.0144 52.169 44.9775 52.1738 44.9408C52.1743 44.9367 52.1748 44.9325 52.1752 44.9283Z" fill="black" stroke="white"/>
    </g>
    <defs>
        <filter id="filter0_d" x="0" y="0" width="200.226" height="201.903" filterUnits="userSpaceOnUse" color-interpolation-filters="sRGB">
            <feFlood flood-opacity="0" result="BackgroundImageFix"/>
            <feColorMatrix in="SourceAlpha" type="matrix" values="0 0 0 0 0 0 0 0 0 0 0 0 0 0 0 0 0 0 127 0"/>
            <feOffset dx="10"/>
            <feGaussianBlur stdDeviation="5"/>
            <feColorMatrix type="matrix" values="0 0 0 0 0.445833 0 0 0 0 0.445833 0 0 0 0 0.445833 0 0 0 1 0"/>
            <feBlend mode="normal" in2="BackgroundImageFix" result="effect1_dropShadow"/>
            <feBlend mode="normal" in="SourceGraphic" in2="effect1_dropShadow" result="shape"/>
        </filter>
    </defs>
</svg>
