<svg width="68" height="76" viewBox="0 0 68 76" fill="none" xmlns="http://www.w3.org/2000/svg">
    <g filter="url(#filter0_d)">
        <path d="M5.26643 4.408C4.9203 4.64596 4.48764 4.97046 4.31458 5.18679C3.92518 5.66271 3.88192 7.26355 4.27131 7.95581C4.61744 8.62643 5.98032 9.42685 6.73747 9.42685C7.04033 9.42685 7.38646 9.55665 7.47299 9.72971C7.55952 9.88114 8.38158 10.833 9.26853 11.8065C10.1555 12.8016 11.8429 14.662 13.011 15.96C14.1576 17.2364 15.1094 18.3829 15.1094 18.4694C15.1094 18.5776 13.5735 20.0054 11.7131 21.6495C9.83099 23.272 8.27341 24.6997 8.23015 24.7863C8.14361 25.0242 11.2155 28.4639 11.5184 28.4639C11.6482 28.4639 12.0375 27.9014 12.3837 27.2092C13.2706 25.5001 14.8931 23.1422 15.9964 21.974L16.905 21.0005L17.3809 23.3369C17.6405 24.6132 17.9217 25.7381 18.0515 25.8463C18.1597 25.9761 18.9168 25.8895 19.9768 25.6299C21.9887 25.154 24.801 24.6565 26.748 24.4401C27.4835 24.3752 28.0892 24.2022 28.0892 24.094C28.0892 23.9858 27.4402 23.1422 26.6398 22.2336L25.212 20.5678L22.5944 19.6809C21.1667 19.1833 19.9552 18.6858 19.9336 18.5776C19.8687 18.4045 23.7626 15.9167 24.0871 15.9167C24.1304 15.9167 24.8226 15.6139 25.6014 15.2678C26.3802 14.9 27.159 14.6188 27.3321 14.6188C28.0459 14.6188 27.7864 14.0996 26.2288 12.3689C25.3202 11.3522 24.5198 10.5085 24.4332 10.5085C24.3683 10.5085 22.7675 11.8714 20.9071 13.5371C19.025 15.2029 17.4025 16.5657 17.2944 16.5657C17.1862 16.5657 16.8833 16.3061 16.6237 15.96C16.3641 15.6355 15.845 15.0298 15.4772 14.6188C15.0878 14.2077 14.1576 13.1261 13.3788 12.2391C12.6 11.3522 11.9294 10.5734 11.8645 10.5085C11.7996 10.4436 11.1939 9.75134 10.5016 8.95093C9.39833 7.69621 9.22526 7.37172 9.16036 6.46313C9.09546 5.57618 8.96567 5.31659 8.27341 4.71086C7.32156 3.88881 6.28318 3.80228 5.26643 4.408Z" fill="#F05016"/>
        <path d="M60.1487 4.27812C59.4564 4.62425 58.7642 5.8357 58.7642 6.72265C58.7642 7.24184 58.5695 7.69613 58.1368 8.17206C57.8123 8.56145 56.0384 10.6166 54.2212 12.715C52.4041 14.8134 50.8032 16.544 50.6951 16.544C50.5653 16.5656 49.6783 15.8518 48.7265 14.9864C45.0489 11.6766 43.8158 10.6166 43.5778 10.6166C43.1884 10.6166 40.1165 14.186 40.3329 14.3807C40.441 14.4673 41.1117 14.7701 41.8255 15.0513C44.9407 16.2628 48.5101 18.4045 47.9693 18.7506C47.7962 18.8587 46.5848 19.2698 45.2652 19.7024L42.8423 20.4812L41.3929 22.2119C40.5925 23.1637 39.9651 23.9858 40.03 24.029C40.0733 24.0723 41.2415 24.267 42.6043 24.4401C44.6595 24.7213 48.3803 25.3703 49.6999 25.6948C50.0244 25.7597 50.3057 24.9809 50.8249 22.4498L51.1061 21.1086L51.9498 21.909C52.8367 22.7743 55.238 26.3005 55.8653 27.6417C56.2764 28.5719 56.6874 28.6801 57.1417 28.0095C57.3148 27.7715 57.9637 27.036 58.5695 26.387C59.1752 25.738 59.6727 25.089 59.6727 24.916C59.6727 24.678 54.4159 19.8539 53.0963 18.8804C52.642 18.5559 52.7286 18.4261 55.238 15.7003C56.4062 14.4024 58.9589 11.5468 60.0838 10.2272C60.5597 9.708 60.9924 9.42677 61.3385 9.42677C62.7663 9.42677 63.9993 8.12879 63.9993 6.63612C63.9993 4.66751 61.9442 3.4128 60.1487 4.27812Z" fill="#F05016"/>
        <path d="M29.0624 26.9496C25.8607 27.3173 22.5941 27.8582 20.2578 28.3774C18.9814 28.6586 17.8998 28.8966 17.8349 28.8966C17.6186 28.8966 17.6835 32.3578 17.9214 34.7591C18.8516 43.8882 22.3562 53.212 27.0722 59.1394C29.3869 62.0166 33.5404 65.6726 34.5139 65.6726C35.1629 65.6726 37.4993 63.8554 39.576 61.7354C46.2822 54.8778 50.9766 43.1743 51.5823 31.7954C51.7121 29.1129 51.6905 28.9398 51.3227 28.8317C50.3492 28.5504 45.0492 27.5553 42.8859 27.2524C40.052 26.8631 31.4853 26.69 29.0624 26.9496Z" fill="#F05016"/>
        <path d="M16.2559 50.681C13.4868 53.7529 12.297 55.0725 9.9174 57.7766C8.66268 59.1827 7.23491 60.7836 6.73735 61.3244C6.21816 61.8652 5.7206 62.6656 5.61243 63.0767C5.11488 65.0885 4.01159 71.2972 4.14139 71.427C4.22792 71.5135 6.15326 70.9511 8.44635 70.2155C12.1023 69.0257 12.708 68.7445 13.3787 68.0522C13.9628 67.4682 20.2147 60.3725 22.1833 58.0578C22.4645 57.7333 22.3996 57.517 21.5992 56.1541C20.5176 54.2937 18.9167 50.8973 18.549 49.6642C18.3975 49.1883 18.2028 48.7989 18.1163 48.7989C18.0298 48.7989 17.1861 49.6426 16.2559 50.681Z" fill="#F05016"/>
        <path d="M50.3923 49.9455C50.2625 50.2916 50.1544 50.6161 50.1544 50.6594C50.1544 50.9406 47.5368 56.0027 46.8229 57.1276L46.0225 58.3607L47.2988 59.7885C47.9911 60.5889 50.0029 62.882 51.7768 64.9155C53.5507 66.9274 55.0867 68.658 55.2165 68.7446C55.3463 68.8311 55.9953 69.069 56.6443 69.2637C59.132 70.0209 63.0476 71.3189 63.3937 71.5136C63.9346 71.8164 64.0644 71.427 63.8048 70.2589C63.675 69.6964 63.3721 68.2254 63.1341 66.9706C62.2256 62.1681 62.377 62.5359 60.2137 60.1563C57.7259 57.3872 51.885 50.8324 51.1711 49.9888L50.6303 49.3398L50.3923 49.9455Z" fill="#F05016"/>
    </g>
    <defs>
        <filter id="filter0_d" x="0" y="-0.000244141" width="67.9993" height="75.6124" filterUnits="userSpaceOnUse" color-interpolation-filters="sRGB">
            <feFlood flood-opacity="0" result="BackgroundImageFix"/>
            <feColorMatrix in="SourceAlpha" type="matrix" values="0 0 0 0 0 0 0 0 0 0 0 0 0 0 0 0 0 0 127 0"/>
            <feOffset/>
            <feGaussianBlur stdDeviation="2"/>
            <feColorMatrix type="matrix" values="0 0 0 0 0 0 0 0 0 0 0 0 0 0 0 0 0 0 0.25 0"/>
            <feBlend mode="normal" in2="BackgroundImageFix" result="effect1_dropShadow"/>
            <feBlend mode="normal" in="SourceGraphic" in2="effect1_dropShadow" result="shape"/>
        </filter>
    </defs>
</svg>
