<svg width="150" height="150" viewBox="0 0 150 150" fill="none" xmlns="http://www.w3.org/2000/svg">
    <path d="M75 150C116.421 150 150 116.421 150 75C150 33.5786 116.421 0 75 0C33.5786 0 0 33.5786 0 75C0 116.421 33.5786 150 75 150Z" fill="#383838"/>
    <path d="M107.294 51.0437L96.7937 61.5878C99.9106 66.4828 101.265 72.2945 100.632 78.0631C99.9999 83.8316 97.4188 89.212 93.3154 93.3154C89.212 97.4188 83.8316 99.9999 78.0631 100.632C72.2945 101.265 66.4828 99.9106 61.5878 96.7937L51.0437 107.294C58.7731 113.159 68.3651 116.026 78.0453 115.365C87.7255 114.705 96.8389 110.561 103.7 103.7C110.561 96.8389 114.705 87.7255 115.365 78.0453C116.026 68.3651 113.159 58.7731 107.294 51.0437ZM49.7643 75.3084C49.7537 70.7837 50.9473 66.3377 53.2225 62.4267C55.4976 58.5156 58.7725 55.2804 62.7109 53.0529C66.6493 50.8255 71.1095 49.6861 75.6337 49.7517C80.1579 49.8172 84.5832 51.0854 88.4555 53.4261L99.0437 42.8378C91.3125 37.0394 81.7492 34.2243 72.1095 34.9094C62.4698 35.5945 53.4007 39.7337 46.5672 46.5672C39.7337 53.4007 35.5945 62.4698 34.9094 72.1095C34.2243 81.7492 37.0394 91.3125 42.8378 99.0437L53.4261 88.4996C51.0042 84.5257 49.7221 79.9621 49.7202 75.3084H49.7643Z" fill="#35B7BA"/>
    <path d="M112.5 41.911C117.373 41.911 121.324 37.9605 121.324 33.0874C121.324 28.2143 117.373 24.2639 112.5 24.2639C107.627 24.2639 103.677 28.2143 103.677 33.0874C103.677 37.9605 107.627 41.911 112.5 41.911Z" fill="#35B7BA"/>
    <path d="M33.0874 121.324C37.9605 121.324 41.911 117.373 41.911 112.5C41.911 107.627 37.9605 103.677 33.0874 103.677C28.2143 103.677 24.2639 107.627 24.2639 112.5C24.2639 117.373 28.2143 121.324 33.0874 121.324Z" fill="#35B7BA"/>
</svg>

