<svg width="230" height="230" viewBox="0 0 230 230" fill="none" xmlns="http://www.w3.org/2000/svg">
    <g filter="url(#filter0_d)">
        <path d="M2.49733 10.2351C2.2016 10.4158 1.79085 10.5637 1.57726 10.5637C0.772201 10.5637 0 11.9931 0 13.4882C0 14.0304 0.0985789 14.2604 0.410745 14.5397C0.640763 14.7369 0.821491 14.9998 0.821491 15.1312C0.821491 15.2462 1.03508 15.5584 1.28153 15.8048C1.62655 16.1663 1.95515 16.2977 2.71092 16.3963C3.87744 16.5277 4.20603 16.692 4.3539 17.1356C4.48534 17.53 5.56971 18.1214 6.16118 18.1214C6.42406 18.1214 6.78551 17.9243 7.08125 17.645L7.55771 17.1521L12.0431 18.7293C23.166 22.6068 75.9386 40.9589 75.9879 40.9589C76.0207 40.9589 76.1358 41.3367 76.2508 41.7803C76.5136 42.8154 76.8258 43.1276 77.1544 42.684C77.2858 42.5197 77.3844 42.2075 77.3844 41.9939C77.3844 41.4189 77.828 41.5339 78.1238 42.1911C78.2716 42.5033 78.5016 42.8319 78.6331 42.9469C78.9288 43.1933 79.3724 43.0126 79.471 42.6018C79.586 42.1747 79.7503 42.1911 80.0789 42.6676C80.2268 42.8976 80.5225 43.0947 80.7854 43.1276C81.114 43.1605 81.229 43.259 81.1961 43.4726C81.1304 43.8834 81.5412 43.9819 82.4777 43.7519L83.2827 43.5548L87.6038 45.1485C89.9861 46.0357 91.9412 46.7586 91.9741 46.7914C91.9905 46.8079 91.8427 47.3829 91.6126 48.0401C91.3991 48.7137 91.1526 49.7981 91.0869 50.4717C90.9883 51.5068 90.8897 51.8025 90.4297 52.4269C90.1175 52.8212 89.8218 53.4291 89.7725 53.7905C89.7068 54.1356 89.6082 54.4313 89.5425 54.4313C89.4275 54.4313 87.193 51.9011 86.2237 50.6525C85.8622 50.1924 85.7472 50.1267 85.6158 50.3074C85.5336 50.4389 85.4186 51.6875 85.3693 53.1005C85.32 54.5135 85.1722 57.3558 85.0571 59.4424C84.8107 64.2563 84.8107 70.8775 85.0736 72.5041C85.55 75.3958 86.8151 78.8132 87.9159 80.1275C88.5403 80.8669 90.1504 81.9677 90.8404 82.1155C91.4812 82.247 91.6784 83.0849 91.6784 85.5165C91.6784 87.8331 91.8427 89.2297 92.6641 93.6164C93.7814 99.6133 93.8964 100.616 93.6499 101.963C93.5185 102.702 93.3049 103.343 93.0585 103.671C92.8449 103.967 92.6149 104.444 92.5491 104.739C92.4998 105.035 92.237 105.643 91.9905 106.103C91.7441 106.547 91.4812 107.253 91.4155 107.647C91.3498 108.042 91.1526 108.518 90.9719 108.699C90.7254 108.945 90.6761 109.143 90.7583 109.635C90.8569 110.243 90.5118 111.443 90.2325 111.443C89.9039 111.443 89.5096 112.478 89.5918 113.135C89.6411 113.513 89.6246 114.154 89.5589 114.564C89.4768 114.975 89.411 115.172 89.3946 114.992C89.3782 114.745 89.3289 114.729 89.1482 114.877C88.7046 115.238 88.5567 115.961 88.8196 116.47C89.1153 117.029 88.9839 118.064 88.5403 118.672C88.0638 119.296 87.9652 121.925 88.376 122.746C88.5403 123.075 88.8853 123.979 89.1317 124.751C89.7396 126.607 95.1451 139.258 96.7552 142.577C97.4452 144.023 99.5318 147.868 101.372 151.121C106.761 160.683 108.207 163.525 109.258 166.663C109.669 167.912 109.751 168.339 109.653 169.046C109.308 171.806 111.657 176.061 114.269 177.458C115.025 177.852 115.239 177.901 116.816 177.885L118.541 177.852L118.919 179.61C119.116 180.563 119.297 181.499 119.28 181.68C119.264 182.535 121.055 185.163 123.026 187.217C124.472 188.712 125.672 189.484 126.559 189.484H127.052L126.937 190.832C126.707 193.805 126.51 194.709 125.803 195.941C125.442 196.598 124.916 197.568 124.669 198.11C124.407 198.652 124.127 199.211 124.029 199.342C123.191 200.64 123.076 202.07 123.536 205.158C123.832 207.097 123.979 207.623 124.571 208.855L125.261 210.268L125.277 213.061C125.277 215.723 125.294 215.904 125.705 216.758C126.542 218.549 127.594 219.321 129.303 219.419C130.929 219.518 136.68 219.189 136.745 218.976C136.795 218.877 136.877 218.319 136.942 217.727C137.025 216.824 136.975 216.429 136.532 214.967C136.252 214.031 135.875 212.979 135.71 212.65C135.53 212.305 135.201 210.975 134.954 209.677C134.724 208.379 134.379 206.916 134.182 206.407C133.887 205.618 133.837 205.158 133.837 202.71C133.837 197.781 134.429 194.972 136.827 188.499C137.123 187.726 137.468 186.675 137.616 186.149C137.83 185.344 138.109 184.933 139.44 183.438C143.005 179.429 143.761 178.263 143.892 176.505C143.942 175.65 143.876 175.19 143.531 174.155L143.104 172.874L143.597 171.198C143.859 170.278 144.204 168.816 144.336 167.961C144.484 167.107 144.845 165.628 145.141 164.675C146.439 160.617 146.554 160.157 146.39 159.599C146.307 159.319 146.258 158.317 146.258 157.397C146.275 155.918 146.209 155.54 145.749 154.16C145.453 153.306 144.632 151.384 143.925 149.889C143.202 148.393 142.036 145.551 141.313 143.563C140.59 141.575 139.506 138.585 138.881 136.909C138.257 135.233 137.386 132.867 136.942 131.651C135.924 128.776 134.938 126.525 133.854 124.587C129.253 116.306 128.645 115.107 128.645 114.236C128.645 113.611 128.563 113.398 128.169 113.02C127.758 112.626 127.709 112.478 127.775 111.936C127.84 111.443 127.791 111.246 127.479 110.933C127.249 110.703 127.183 110.539 127.298 110.49C127.627 110.391 127.528 110.063 127.002 109.635C126.575 109.29 126.493 109.093 126.444 108.37C126.395 107.401 126.017 106.842 125.425 106.842C125.195 106.842 124.932 106.678 124.768 106.432C124.62 106.202 124.357 106.021 124.177 106.021C123.996 106.021 123.618 105.84 123.322 105.61C123.026 105.397 122.402 105.117 121.942 105.019C121.334 104.871 121.006 104.69 120.825 104.394C120.053 103.195 119.231 102.275 117.933 101.158C117.145 100.484 116.389 99.7283 116.241 99.4654C115.781 98.5618 115.6 96.6066 115.814 94.8815C116.027 93.14 116.685 91.0041 117.145 90.4948C117.309 90.314 117.752 89.5911 118.114 88.9011C118.475 88.211 119.215 87.0445 119.757 86.3216C121.104 84.5143 122.238 82.5756 123.339 80.2754C123.848 79.2075 124.357 78.2217 124.489 78.0738C124.62 77.9259 124.883 77.4823 125.08 77.088C125.507 76.2337 126.805 75.215 127.61 75.0836C128.415 74.9521 128.81 74.5414 128.81 73.8349C128.81 73.5063 129.04 72.537 129.319 71.6826C130.321 68.5774 130.124 66.3265 128.695 64.1742L127.955 63.0734L128.317 62.7776C128.76 62.4162 128.908 62.3998 129.04 62.7284C129.089 62.8598 129.253 62.9748 129.401 62.9748C129.796 62.9748 131.734 62.0383 132.408 61.529L132.966 61.1018L133.229 61.5126C133.657 62.2026 135.053 63.4841 135.661 63.7306C135.973 63.862 137.797 64.3056 139.703 64.7164C148.69 66.6222 154.079 68.2488 162.704 71.6991C171.724 75.3136 175.618 77.3838 184.753 83.4792C189.403 86.568 190.307 87.2581 193.724 90.2154C196.32 92.4663 197.108 92.5813 199.984 91.1355C202.596 89.8376 203.845 88.9668 205.291 87.4224C206.753 85.8615 208.987 82.592 209.48 81.2448C209.677 80.7354 209.874 79.7332 209.94 78.9939C210.334 74.4757 208.774 69.1853 205.455 63.7306C202.777 59.311 197.749 53.922 195.005 52.5255C194.053 52.049 189.666 50.8332 186.396 50.1431C185.131 49.8802 182.617 49.3216 180.81 48.9273C177.113 48.1058 175.668 47.9087 175.224 48.1551C174.945 48.303 174.961 48.3358 175.405 48.5659C175.684 48.7137 177.146 49.2395 178.674 49.7324C183.735 51.4082 189.37 54.5299 191.67 56.9286C192.853 58.1609 193.74 59.8696 194.71 62.8598C195.86 66.3594 195.728 67.8709 194.151 69.4482C192.574 70.9926 190.898 71.5676 186.971 71.8633C183.702 72.1098 180.827 71.9619 178.592 71.4526C172.858 70.1218 158.548 65.2914 151.844 62.4162C148.591 61.0197 144.221 58.8016 142.118 57.4873L140.393 56.4029H138.75C137.846 56.4029 136.712 56.5015 136.236 56.6165C135.053 56.9286 134.757 56.7479 134.363 55.4171C134.182 54.8256 133.887 54.152 133.722 53.922C133.558 53.6755 133.344 53.2977 133.262 53.0841C133.098 52.6569 132.49 52.3776 132.326 52.6569C132.276 52.739 131.997 52.2297 131.701 51.5232C131.422 50.8168 131.011 49.9788 130.781 49.6667C130.075 48.6644 128.58 47.1693 127.939 46.8572C127.594 46.6764 127.364 46.4628 127.413 46.3971C127.545 46.1671 127.002 46.0357 126.674 46.2164C126.477 46.315 126.772 45.7235 127.413 44.7213C128.629 42.799 129.073 41.7311 129.418 39.8909C129.828 37.6893 129.418 33.9433 128.448 30.9367C127.512 27.9957 125.852 25.9585 123.388 24.7262C122.616 24.3319 121.696 23.8061 121.334 23.5433C120.546 22.9682 118.952 22.3932 118.13 22.3932C117.145 22.3932 115.074 23.0011 113.842 23.6418C111.887 24.6769 109.455 27.4536 107.582 30.756L106.81 32.136L105.857 32.1689C105.332 32.1853 104.773 32.2511 104.625 32.3168C104.411 32.4154 104.214 32.2511 103.738 31.5117C103.409 30.986 102.999 30.1973 102.818 29.7209C102.161 28.0122 101.865 27.4864 100.912 26.3856C100.222 25.5806 99.6468 25.1041 98.9732 24.7591C97.971 24.2497 96.1144 22.5082 96.1144 22.0646C96.1144 21.9331 95.9994 21.6374 95.8515 21.4238C95.6379 21.1281 95.4736 21.0624 95.1122 21.1445C94.7014 21.2267 94.6029 21.1609 94.3728 20.7338C94.1428 20.2737 94.1428 20.1916 94.3893 19.8137C94.6357 19.4522 94.7343 19.4194 95.1779 19.5344C95.4736 19.6001 96.0158 19.6658 96.4101 19.6658L97.1166 19.6823L97.1659 18.3679C97.1988 17.645 97.2481 16.9056 97.2809 16.7413C97.3466 16.4127 97.1495 16.2648 95.8351 15.7391C95.3751 15.5419 95.1286 15.3284 95.0629 15.0655C94.9972 14.8519 94.6522 14.4576 94.2907 14.1947C93.6992 13.7675 93.5021 13.7182 92.4506 13.7182C91.7934 13.7182 90.8076 13.6361 90.2325 13.5211C88.3267 13.1268 86.7001 13.5211 85.4022 14.6547C85.1064 14.9012 84.4164 15.2462 83.8742 15.4105C83.332 15.5584 82.4119 15.887 81.8205 16.1498C81.229 16.3963 80.3911 16.692 79.931 16.7906C78.7317 17.0699 77.483 17.7928 77.4173 18.2529C77.3023 19.0251 78.6495 21.3417 80.5554 23.6583C81.2619 24.5291 81.4919 24.9234 81.4262 25.1534C81.2619 25.6299 80.1118 27.355 79.6682 27.7657C78.2059 29.0965 78.2059 29.0965 78.2059 29.7373C78.2059 30.0823 78.3538 30.6738 78.5345 31.0517L78.8467 31.7417L78.1895 32.974C77.828 33.664 77.3844 34.7155 77.2037 35.3234C77.0065 35.9313 76.8258 36.4735 76.8094 36.49C76.7765 36.5228 67.3787 33.2861 55.9107 29.3101C44.4591 25.3341 29.1629 20.0108 21.9338 17.4971L8.78995 12.946L8.69137 12.2888C8.51064 11.2045 7.1634 10.498 6.19404 10.9745C5.734 11.2045 5.65186 11.188 4.69893 10.6623C3.31882 9.89009 3.12166 9.85722 2.49733 10.2351ZM89.3782 29.573C89.3782 30.0002 90.0025 30.9531 90.3475 31.0517C90.7419 31.1503 91.3498 32.4482 91.3498 33.204C91.3498 33.9598 92.0234 35.4549 92.4998 35.7342C92.9106 35.9806 93.6499 37.5086 93.6499 38.1165C93.6499 38.7244 94.0607 39.5459 94.5043 39.8416C94.7179 39.9895 95.03 40.4003 95.2108 40.7781C95.4901 41.4189 95.4901 41.5011 95.2436 42.0268C94.9972 42.569 94.9643 42.569 94.4057 42.4047C93.7321 42.1911 93.6664 42.0268 94.1593 41.7803C94.3564 41.6653 94.4714 41.4682 94.4386 41.2546C94.4057 40.9917 94.0935 40.8274 92.9599 40.4495C92.1713 40.2031 91.2348 39.8416 90.8733 39.6609C90.2325 39.3159 87.1109 36.6871 86.8644 36.2764C86.7987 36.1614 86.8151 35.8656 86.8973 35.652C86.9794 35.422 87.0123 35.077 86.963 34.8798C86.8973 34.617 87.0123 34.4198 87.4395 34.0583C88.261 33.3847 88.491 32.744 88.2281 31.9225C87.9817 31.1996 88.146 30.5588 88.7539 29.7866C89.1975 29.2444 89.3782 29.1787 89.3782 29.573ZM128.235 49.3216C130.157 50.4224 131.964 52.6076 131.57 53.3469C131.471 53.5441 131.389 53.7084 131.373 53.7248C131.356 53.7413 130.716 53.1498 129.943 52.4104C129.089 51.5725 128.235 50.8825 127.709 50.636C126.871 50.2581 126.855 50.2253 126.838 49.5352C126.838 48.6809 127.068 48.648 128.235 49.3216ZM99.3347 59.8696C99.1046 60.5761 98.9403 60.9211 98.9239 60.6746C98.9075 60.0996 99.2196 58.8345 99.4497 58.5716C99.7783 58.1609 99.7454 58.6209 99.3347 59.8696ZM128.744 61.7426C128.695 61.874 128.383 62.0876 128.038 62.2355L127.43 62.4984L126.855 61.9069L126.263 61.3318L126.92 61.3154C127.282 61.3154 127.84 61.2168 128.153 61.1182C128.662 60.9375 128.728 60.9539 128.777 61.2168C128.81 61.3811 128.793 61.6276 128.744 61.7426ZM111.969 129.105C112.511 129.614 113.366 130.222 113.859 130.452C114.927 130.978 114.844 130.879 116.356 133.278C117.72 135.447 119.428 137.78 122.862 142.117C127.577 148.081 128.76 149.823 130.338 152.961C131.373 155.015 132.391 158.843 132.424 160.749C132.424 161.028 132.096 161.652 131.537 162.392C130.453 163.887 129.664 165.448 128.958 167.485C128.481 168.865 128.317 169.128 127.462 169.949C126.92 170.475 126.345 171.247 126.115 171.74C125.688 172.677 125.688 172.677 125.277 171.444C125.047 170.705 125.031 170.426 125.195 169.44C125.639 166.811 124.637 163.575 123.026 162.424C122.287 161.882 122.221 161.767 120.529 157.808C117.49 150.644 116.8 148.755 115.83 145.042C114.598 140.31 111.673 131.224 110.868 129.614C110.392 128.678 110.359 128.201 110.77 128.201C110.885 128.201 111.427 128.612 111.969 129.105Z" fill="black"/>
    </g>
    <defs>
        <filter id="filter0_d" x="0" y="-0.000244141" width="230" height="229.438" filterUnits="userSpaceOnUse" color-interpolation-filters="sRGB">
            <feFlood flood-opacity="0" result="BackgroundImageFix"/>
            <feColorMatrix in="SourceAlpha" type="matrix" values="0 0 0 0 0 0 0 0 0 0 0 0 0 0 0 0 0 0 127 0"/>
            <feOffset dx="10"/>
            <feGaussianBlur stdDeviation="5"/>
            <feColorMatrix type="matrix" values="0 0 0 0 0.207843 0 0 0 0 0.717647 0 0 0 0 0.729412 0 0 0 1 0"/>
            <feBlend mode="normal" in2="BackgroundImageFix" result="effect1_dropShadow"/>
            <feBlend mode="normal" in="SourceGraphic" in2="effect1_dropShadow" result="shape"/>
        </filter>
    </defs>
</svg>
