<svg width="30" height="30" viewBox="0 0 30 30" fill="none" xmlns="http://www.w3.org/2000/svg">
    <circle cx="15" cy="15" r="15" fill="white"/>
    <path d="M10.9765 20.2367L9.67773 18.938L7.02659 21.5891L8.32534 22.8879L10.9765 20.2367Z" fill="#F05016"/>
    <path d="M8.16699 23.9126C8.75002 23.3296 8.75002 22.3843 8.16699 21.8013C7.58397 21.2182 6.63869 21.2182 6.05566 21.8013C5.47264 22.3843 5.47264 23.3296 6.05566 23.9126C6.63869 24.4956 7.58397 24.4956 8.16699 23.9126Z" fill="#F05016"/>
    <path d="M24.536 5.02825L20.8303 6.61804C20.7851 6.63741 20.7448 6.66646 20.7125 6.70197L10.3716 18.3373L11.6709 19.6366L23.2981 9.28921C23.3352 9.25693 23.3627 9.21658 23.382 9.17139L24.9718 5.46565C25.0913 5.18965 24.812 4.90882 24.536 5.02825Z" fill="#F05016"/>
    <path d="M11.9279 21.8841L8.03168 17.9879C7.67499 17.6312 7.67499 17.047 8.03168 16.6887C8.38837 16.332 8.97264 16.332 9.33095 16.6887L13.2271 20.5849C13.5838 20.9416 13.5838 21.5258 13.2271 21.8841C12.8688 22.2408 12.2846 22.2408 11.9279 21.8841Z" fill="#F05016"/>
    <path d="M20.2367 19.0233L18.938 20.322L21.5891 22.9732L22.8879 21.6744L20.2367 19.0233Z" fill="#F05016"/>
    <path d="M23.9126 21.833C23.3296 21.25 22.3843 21.25 21.8013 21.833C21.2182 22.416 21.2182 23.3613 21.8013 23.9443C22.3843 24.5274 23.3296 24.5274 23.9126 23.9443C24.4956 23.3613 24.4956 22.416 23.9126 21.833Z" fill="#F05016"/>
    <path d="M5.02825 5.4642L6.61804 9.16994C6.63741 9.21514 6.66646 9.25549 6.70197 9.28777L18.3373 19.6287L19.6366 18.3294L9.28921 6.70214C9.25693 6.66502 9.21658 6.63758 9.17139 6.61821L5.46565 5.02842C5.18965 4.90899 4.90882 5.18821 5.02825 5.4642Z" fill="#F05016"/>
    <path d="M21.8839 18.0719L17.9877 21.9681C17.631 22.3248 17.0467 22.3248 16.6884 21.9681C16.3317 21.6114 16.3317 21.0271 16.6884 20.6688L20.5846 16.7726C20.9413 16.4159 21.5256 16.4159 21.8839 16.7726C22.2406 17.1309 22.2406 17.7152 21.8839 18.0719Z" fill="#F05016"/>
</svg>
