<svg width="30" height="30" viewBox="0 0 30 30" fill="none" xmlns="http://www.w3.org/2000/svg">
    <circle cx="15" cy="15" r="15" fill="#F05016"/>
    <g clip-path="url(#clip0)">
        <path d="M20.3496 19.1338L19.0923 20.3911L21.6588 22.9577L22.9161 21.7004L20.3496 19.1338Z" fill="white"/>
        <g opacity="0.2">
            <path opacity="0.2" d="M20.3506 19.797L22.2553 21.7017L21.6615 22.2955L19.7553 20.3923L20.3506 19.797ZM20.3506 19.1345L19.0928 20.3923L21.66 22.9595L22.9178 21.7017L20.3506 19.1345Z" fill="white"/>
        </g>
        <path d="M5.62496 6.09656L7.16403 9.68406C7.18278 9.72781 7.2109 9.76687 7.24528 9.79812L18.5078 19.8091L19.7656 18.5512L9.74996 7.29499C9.71871 7.25906 9.67965 7.23249 9.6359 7.21374L6.0484 5.67468C5.78121 5.55906 5.5109 5.82937 5.62496 6.09656Z" fill="white"/>
        <g opacity="0.2">
            <path opacity="0.2" d="M6.20197 6.24985L9.42228 7.6311L19.1238 18.5327L18.491 19.1655L7.58322 9.47017L6.20197 6.24985ZM5.92072 5.64673C5.70353 5.64673 5.53009 5.87329 5.6254 6.09673L7.16447 9.68423C7.18322 9.72798 7.21134 9.76704 7.24572 9.79829L18.5082 19.8092L19.766 18.5514L9.7504 7.29517C9.71915 7.25923 9.68009 7.23267 9.63634 7.21392L6.04884 5.67485C6.00509 5.6561 5.96134 5.64673 5.92072 5.64673Z" fill="white"/>
        </g>
        <path d="M21.9439 18.2138L18.1721 21.9857C17.8268 22.331 17.2611 22.331 16.9143 21.9857C16.5689 21.6404 16.5689 21.0748 16.9143 20.7279L20.6861 16.956C21.0314 16.6107 21.5971 16.6107 21.9439 16.956C22.2908 17.3029 22.2908 17.8685 21.9439 18.2138Z" fill="white"/>
        <g opacity="0.2">
            <path opacity="0.2" d="M21.3162 17.167C21.4287 17.167 21.535 17.2107 21.6131 17.2889C21.7772 17.4529 21.7772 17.7201 21.6131 17.8826L17.8412 21.6545C17.7631 21.7326 17.6568 21.7764 17.5443 21.7764C17.4318 21.7764 17.3256 21.7326 17.2475 21.6545C17.0834 21.4904 17.0834 21.2232 17.2475 21.0607L21.0193 17.2889C21.0975 17.2092 21.2037 17.167 21.3162 17.167ZM21.3162 16.6982C21.0881 16.6982 20.86 16.7842 20.6881 16.9576L16.9162 20.7295C16.5709 21.0748 16.5709 21.6404 16.9162 21.9873C17.0896 22.1607 17.3162 22.2467 17.5443 22.2467C17.7725 22.2467 18.0006 22.1607 18.1725 21.9873L21.9443 18.2154C22.2897 17.8701 22.2897 17.3045 21.9443 16.9576C21.7725 16.7842 21.5443 16.6982 21.3162 16.6982Z" fill="white"/>
        </g>
        <path d="M23.9092 23.8982C24.4736 23.3338 24.4736 22.4187 23.9092 21.8542C23.3448 21.2898 22.4297 21.2898 21.8652 21.8542C21.3008 22.4187 21.3008 23.3338 21.8652 23.8982C22.4297 24.4626 23.3448 24.4626 23.9092 23.8982Z" fill="white"/>
        <g opacity="0.2">
            <path opacity="0.2" d="M22.8878 21.9016C23.1487 21.9016 23.394 22.0032 23.5784 22.1875C23.9597 22.5688 23.9597 23.1875 23.5784 23.5672C23.394 23.7516 23.1487 23.8532 22.8878 23.8532C22.6269 23.8532 22.3815 23.7516 22.1972 23.5672C21.8159 23.186 21.8159 22.5672 22.1972 22.1875C22.3815 22.0032 22.6269 21.9016 22.8878 21.9016ZM22.8878 21.4329C22.5175 21.4329 22.1487 21.5735 21.8659 21.8563C21.3019 22.4204 21.3019 23.336 21.8659 23.9C22.1487 24.1829 22.5175 24.3235 22.8878 24.3235C23.2581 24.3235 23.6269 24.1829 23.9097 23.9C24.4737 23.336 24.4737 22.4204 23.9097 21.8563C23.6269 21.5735 23.2565 21.4329 22.8878 21.4329Z" fill="white"/>
        </g>
        <path d="M10.8852 20.4394L9.62793 19.1821L7.06138 21.7487L8.31869 23.006L10.8852 20.4394Z" fill="white"/>
        <g opacity="0.2">
            <path opacity="0.2" d="M9.62871 19.8454L10.2225 20.4391L8.31934 22.3438L7.72559 21.75L9.62871 19.8454ZM9.62871 19.1829L7.06152 21.75L8.31934 23.0079L10.8865 20.4407L9.62871 19.1829Z" fill="white"/>
        </g>
        <path d="M23.9234 5.71534L20.3359 7.2544C20.2922 7.27315 20.2531 7.30128 20.2219 7.33565L10.2109 18.5997L11.4688 19.8575L22.725 9.84034C22.7609 9.80909 22.7875 9.77003 22.8062 9.72628L24.3453 6.13878C24.4609 5.87159 24.1906 5.59972 23.9234 5.71534Z" fill="white"/>
        <g opacity="0.2">
            <path opacity="0.2" d="M23.7703 6.29053L22.3891 9.51084L11.4875 19.2124L10.8547 18.5796L20.55 7.67178L23.7703 6.29053ZM24.0516 5.68896C24.0094 5.68896 23.9656 5.69678 23.9234 5.71553L20.3359 7.25459C20.2922 7.27334 20.2531 7.30146 20.2219 7.33584L10.2109 18.5999L11.4688 19.8577L22.725 9.84053C22.7609 9.80928 22.7875 9.77021 22.8062 9.72646L24.3453 6.13896C24.4422 5.91396 24.2672 5.68896 24.0516 5.68896Z" fill="white"/>
        </g>
        <path d="M11.8067 22.0343L8.03486 18.2624C7.68955 17.9171 7.68955 17.3515 8.03486 17.0046C8.38018 16.6593 8.9458 16.6593 9.29268 17.0046L13.0646 20.7765C13.4099 21.1218 13.4099 21.6874 13.0646 22.0343C12.7177 22.3796 12.1521 22.3796 11.8067 22.0343Z" fill="white"/>
        <g opacity="0.2">
            <path opacity="0.2" d="M8.66299 17.2141C8.77549 17.2141 8.88174 17.2579 8.95986 17.336L12.7317 21.1079C12.8958 21.2719 12.8958 21.5391 12.7317 21.7016C12.6536 21.7797 12.5474 21.8235 12.4349 21.8235C12.3224 21.8235 12.2161 21.7797 12.138 21.7016L8.36611 17.9313C8.20205 17.7672 8.20205 17.5 8.36611 17.3375C8.44424 17.2579 8.55049 17.2141 8.66299 17.2141ZM8.66299 16.7454C8.43486 16.7454 8.20674 16.8313 8.03486 17.0047C7.68955 17.35 7.68955 17.9157 8.03486 18.2625L11.8067 22.0344C11.9802 22.2079 12.2067 22.2938 12.4349 22.2938C12.663 22.2938 12.8911 22.2079 13.063 22.0344C13.4083 21.6891 13.4083 21.1235 13.063 20.7766L9.29111 17.0047C9.11924 16.8313 8.89111 16.7454 8.66299 16.7454Z" fill="white"/>
        </g>
        <path d="M8.16604 23.9981C8.73046 23.4336 8.73046 22.5185 8.16604 21.9541C7.60162 21.3897 6.6865 21.3897 6.12208 21.9541C5.55765 22.5185 5.55765 23.4336 6.12208 23.9981C6.6865 24.5625 7.60162 24.5625 8.16604 23.9981Z" fill="white"/>
        <g opacity="0.2">
            <path opacity="0.2" d="M7.14365 22.0015C7.40459 22.0015 7.6499 22.103 7.83428 22.2874C8.21553 22.6687 8.21553 23.2874 7.83428 23.6671C7.6499 23.8515 7.40459 23.953 7.14365 23.953C6.88271 23.953 6.6374 23.8515 6.45303 23.6671C6.07178 23.2858 6.07178 22.6671 6.45303 22.2874C6.6374 22.103 6.88271 22.0015 7.14365 22.0015ZM7.14365 21.5327C6.77334 21.5327 6.40459 21.6733 6.12178 21.9562C5.55771 22.5202 5.55771 23.4358 6.12178 23.9999C6.40459 24.2827 6.77334 24.4233 7.14365 24.4233C7.51396 24.4233 7.88271 24.2827 8.16553 23.9999C8.72959 23.4358 8.72959 22.5202 8.16553 21.9562C7.88271 21.6733 7.5124 21.5327 7.14365 21.5327Z" fill="white"/>
        </g>
    </g>
    <defs>
        <clipPath id="clip0">
            <rect x="5" y="5" width="20" height="20" fill="white"/>
        </clipPath>
    </defs>
</svg>
