<svg width="30" height="30" viewBox="0 0 30 30" fill="none" xmlns="http://www.w3.org/2000/svg">
    <circle cx="15" cy="15" r="15" fill="#F05016"/>
    <path d="M22.2913 10.8655V10.8667C22.4231 10.5884 22.5 10.2979 22.5 10V8.75C22.5 6.67969 19.1418 5 15 5C10.8582 5 7.5 6.67969 7.5 8.75C7.5 8.64746 7.51465 8.54734 7.53051 8.44727C5.98145 9.13332 5 10.1343 5 11.25V12.5C5 13.6597 6.05469 14.6961 7.70875 15.3833C7.57691 15.6616 7.5 15.9521 7.5 16.25V17.5C7.5 17.9395 7.65871 18.3582 7.93703 18.75C7.65871 19.1418 7.5 19.5605 7.5 20V21.25C7.5 23.3203 10.8582 25 15 25C19.1418 25 22.5 23.3203 22.5 21.25V20C22.5 19.5532 22.3352 19.1272 22.0496 18.7305C22.0471 18.7329 22.0447 18.7366 22.0422 18.739C22.2522 18.4412 22.417 18.1311 22.4695 17.8027C24.0186 17.1155 25 16.1157 25 15V13.75C25 12.5904 23.9453 11.5527 22.2913 10.8655ZM15 5.625C19.0515 5.625 21.875 7.27172 21.875 8.75C21.875 10.2271 19.0515 11.875 15 11.875C10.9485 11.875 8.125 10.2271 8.125 8.75C8.125 7.27172 10.9485 5.625 15 5.625ZM5.625 11.25C5.625 10.52 6.31715 9.75219 7.5 9.15895V10C7.5 12.0703 10.8582 13.75 15 13.75C15.6189 13.75 16.217 13.7085 16.792 13.6377C15.6457 14.0784 14.1895 14.375 12.5 14.375C8.44848 14.375 5.625 12.7271 5.625 11.25ZM21.875 20C21.875 21.477 19.0515 23.125 15 23.125C10.9485 23.125 8.125 21.477 8.125 20C8.125 19.7546 8.23 19.5056 8.3777 19.259C8.37648 19.2578 8.37402 19.2554 8.37281 19.2529C9.63137 20.4407 12.1265 21.25 15 21.25C17.8772 21.25 20.3601 20.4346 21.6162 19.2444C21.615 19.2456 21.615 19.2456 21.6138 19.2468C21.7676 19.4971 21.875 19.7498 21.875 20ZM19.2945 18.6377C18.147 19.0796 16.6907 19.375 15 19.375C10.9485 19.375 8.125 17.727 8.125 16.25C8.125 16.0376 8.19824 15.8227 8.30934 15.6104C8.92215 15.8166 9.59961 15.979 10.3235 16.0877C11.2561 17.6282 14.115 18.75 17.5 18.75C18.1213 18.75 18.7219 18.7085 19.2993 18.6365C19.2981 18.6365 19.2969 18.6377 19.2945 18.6377ZM17.5 16.875C15.896 16.875 14.4971 16.6113 13.3764 16.2073C16.9006 15.9997 19.6838 14.585 19.9695 12.8027C20.8203 12.4255 21.5015 11.9555 21.9397 11.4209C21.9385 11.4209 21.9385 11.4209 21.9385 11.4209C23.4521 12.0361 24.375 12.915 24.375 13.75C24.375 15.227 21.5515 16.875 17.5 16.875ZM16.3355 9.66066C16.3355 9.52883 16.2305 9.4275 16.0205 9.36035C15.8106 9.29199 15.343 9.2041 14.6192 9.0991C13.9686 9.00754 13.4595 8.91598 13.0933 8.82566C12.7271 8.73535 12.4292 8.60836 12.2009 8.44723C11.9727 8.28363 11.8579 8.0932 11.8579 7.87836C11.8579 7.59516 12.063 7.33879 12.4707 7.11176C12.8785 6.88594 13.5205 6.74797 14.397 6.69672V6.25H15.5811V6.6968C16.9044 6.76273 17.7613 7.06789 18.1507 7.61723L16.5198 7.89066C16.2012 7.51469 15.7105 7.32668 15.044 7.32668C14.7095 7.32668 14.441 7.3682 14.2396 7.45363C14.0369 7.53664 13.9356 7.63918 13.9356 7.75883C13.9356 7.8809 14.0333 7.97367 14.2286 8.03961C14.4227 8.1043 14.8414 8.18367 15.4811 8.28133C16.1842 8.38633 16.7359 8.4852 17.1351 8.57918C17.5355 8.67195 17.8541 8.80137 18.0934 8.96613C18.3314 9.13094 18.451 9.32379 18.451 9.54352C18.451 9.88289 18.2044 10.1636 17.7125 10.3895C17.2205 10.6153 16.5101 10.7484 15.5811 10.7886V11.3672H14.397V10.791C12.848 10.7263 11.8897 10.3564 11.5198 9.68504L13.3509 9.48973C13.5206 9.91211 14.0821 10.1233 15.0355 10.1233C15.481 10.1233 15.8106 10.0781 16.0206 9.98777C16.2305 9.89742 16.3355 9.78883 16.3355 9.66066Z" fill="white"/>
</svg>
