<svg width="30" height="30" viewBox="0 0 30 30" fill="none" xmlns="http://www.w3.org/2000/svg">
    <circle cx="15" cy="15" r="15" fill="#F05016"/>
    <path d="M21.4444 20V17H13.6667V13H21.4444V10L27 15L21.4444 20ZM19.2222 5C19.8116 5 20.3768 5.21071 20.7936 5.58579C21.2103 5.96086 21.4444 6.46957 21.4444 7V9H19.2222V7H9.22222V23H19.2222V21H21.4444V23C21.4444 23.5304 21.2103 24.0391 20.7936 24.4142C20.3768 24.7893 19.8116 25 19.2222 25H9.22222C8.63285 25 8.06762 24.7893 7.65087 24.4142C7.23413 24.0391 7 23.5304 7 23V7C7 6.46957 7.23413 5.96086 7.65087 5.58579C8.06762 5.21071 8.63285 5 9.22222 5H19.2222Z" fill="#FAFAFB"/>
</svg>
