<svg width="30" height="30" viewBox="0 0 30 30" fill="none" xmlns="http://www.w3.org/2000/svg">
    <circle cx="15" cy="15" r="15" fill="#F05016"/>
    <path d="M24.0497 7.54169C23.8838 7.39602 23.667 7.32211 23.4467 7.33617C23.2264 7.35023 23.0207 7.45112 22.8747 7.61669L21.3164 9.40836L20.7914 8.81669C20.6444 8.65093 20.4376 8.55034 20.2164 8.53706C19.9953 8.52378 19.7779 8.59888 19.6122 8.74586C19.4464 8.89283 19.3458 9.09963 19.3326 9.32077C19.3193 9.54191 19.3944 9.75926 19.5414 9.92502L20.6997 11.225C20.7785 11.3124 20.875 11.3821 20.9827 11.4295C21.0905 11.4769 21.207 11.5009 21.3247 11.5C21.4416 11.4987 21.5569 11.4728 21.6632 11.424C21.7694 11.3752 21.8642 11.3045 21.9414 11.2167L24.1164 8.71669C24.263 8.5519 24.3384 8.33567 24.3259 8.11541C24.3134 7.89515 24.2141 7.68883 24.0497 7.54169Z" fill="white"/>
    <path d="M14.3333 13.1667C14.9926 13.1667 15.6371 12.9712 16.1852 12.6049C16.7334 12.2386 17.1606 11.718 17.4129 11.1089C17.6652 10.4999 17.7312 9.82964 17.6026 9.18303C17.474 8.53643 17.1565 7.94249 16.6904 7.47631C16.2242 7.01014 15.6302 6.69267 14.9836 6.56405C14.337 6.43543 13.6668 6.50144 13.0577 6.75374C12.4486 7.00603 11.928 7.43327 11.5618 7.98143C11.1955 8.5296 11 9.17406 11 9.83333C11 10.7174 11.3512 11.5652 11.9763 12.1904C12.6014 12.8155 13.4493 13.1667 14.3333 13.1667ZM14.3333 8.16667C14.663 8.16667 14.9852 8.26442 15.2593 8.44755C15.5334 8.63069 15.747 8.89099 15.8731 9.19553C15.9993 9.50007 16.0323 9.83518 15.968 10.1585C15.9037 10.4818 15.7449 10.7788 15.5118 11.0118C15.2788 11.2449 14.9818 11.4037 14.6585 11.468C14.3352 11.5323 14.0001 11.4993 13.6955 11.3731C13.391 11.247 13.1307 11.0334 12.9476 10.7593C12.7644 10.4852 12.6667 10.163 12.6667 9.83333C12.6667 9.39131 12.8423 8.96738 13.1548 8.65482C13.4674 8.34226 13.8913 8.16667 14.3333 8.16667Z" fill="white"/>
    <path d="M14.3333 14.8333C12.7862 14.8333 11.3025 15.4478 10.2085 16.5418C9.11458 17.6358 8.5 19.1195 8.5 20.6666C8.5 20.8876 8.5878 21.0996 8.74408 21.2558C8.90036 21.4121 9.11232 21.4999 9.33333 21.4999C9.55435 21.4999 9.76631 21.4121 9.92259 21.2558C10.0789 21.0996 10.1667 20.8876 10.1667 20.6666C10.1667 19.5615 10.6057 18.5017 11.3871 17.7203C12.1685 16.9389 13.2283 16.4999 14.3333 16.4999C15.4384 16.4999 16.4982 16.9389 17.2796 17.7203C18.061 18.5017 18.5 19.5615 18.5 20.6666C18.5 20.8876 18.5878 21.0996 18.7441 21.2558C18.9004 21.4121 19.1123 21.4999 19.3333 21.4999C19.5543 21.4999 19.7663 21.4121 19.9226 21.2558C20.0789 21.0996 20.1667 20.8876 20.1667 20.6666C20.1667 19.1195 19.5521 17.6358 18.4581 16.5418C17.3642 15.4478 15.8804 14.8333 14.3333 14.8333Z" fill="white"/>
</svg>
