<svg width="30" height="30" viewBox="0 0 30 30" fill="none" xmlns="http://www.w3.org/2000/svg">
    <circle cx="15" cy="15" r="15" fill="white"/>
    <path d="M21.0002 18.3334C19.6668 18.3334 18.5002 18.6668 17.5002 19.0001M15.3335 8.83343C16.5002 8.33343 19.6668 7.0001 23.5002 7.66676C23.8335 7.66676 24.1668 8.16676 24.1668 8.50009V22.0001C24.1668 22.5001 23.6668 22.8334 23.1668 22.8334C19.5002 22.1668 16.3335 23.5001 15.3335 24.0001C15.1668 24.1668 14.8335 24.1668 14.6668 24.0001C13.6668 23.5001 10.5002 22.1668 6.8335 22.8334C6.3335 22.8334 5.8335 22.5001 5.8335 22.0001V8.50009C5.8335 8.16676 6.16683 7.83343 6.50016 7.66676C10.3335 7.0001 13.5002 8.33343 14.6668 8.83343C14.8335 9.00009 15.1668 9.00009 15.3335 8.83343V8.83343ZM9.16683 11.6668C10.5002 11.6668 11.6668 12.0001 12.6668 12.3334L9.16683 11.6668ZM9.16683 15.0001C10.5002 15.0001 11.6668 15.3334 12.6668 15.6668L9.16683 15.0001ZM9.16683 18.3334C10.5002 18.3334 11.6668 18.6668 12.6668 19.0001L9.16683 18.3334ZM21.0002 11.6668C19.6668 11.6668 18.5002 12.0001 17.5002 12.3334L21.0002 11.6668ZM21.0002 15.0001C19.6668 15.0001 18.5002 15.3334 17.5002 15.6668L21.0002 15.0001Z" stroke="#F05016" stroke-linecap="round"/>
</svg>
