<svg width="30" height="30" viewBox="0 0 30 30" fill="none" xmlns="http://www.w3.org/2000/svg">
    <circle cx="15" cy="15" r="15" fill="#F05016"/>
    <path d="M23.4002 6H18.6022C18.4312 6 18.1439 6.14334 18.063 6.2453L11.976 14.5892L9.89604 12.5116C9.66333 12.2789 9.28609 12.2789 9.05338 12.5116L7.36685 14.1957C7.13415 14.4284 7.13415 14.8057 7.36685 15.0378L9.89544 17.564L6.53259 20.9238H6.53439C6.53139 20.9268 6.52719 20.9292 6.52359 20.9322C5.82547 21.6298 5.82547 22.7609 6.52359 23.4584C7.22171 24.1559 8.35406 24.1559 9.05218 23.4584C9.05578 23.4554 9.05758 23.4506 9.06118 23.447C9.06118 23.4476 9.06118 23.45 9.06118 23.45L12.4234 20.0902L14.952 22.6164C15.1847 22.8491 15.562 22.8491 15.7953 22.6164L17.4812 20.9316C17.7145 20.6989 17.7145 20.3223 17.4812 20.0902L15.4012 18.0126L23.7553 11.9322C23.8549 11.8525 24 11.603 24 11.3978V6.59976C24 6.26809 23.7313 6 23.4002 6ZM8.21012 22.6164C7.97741 22.8491 7.59956 22.8491 7.36685 22.6164C7.13415 22.3836 7.13415 22.0064 7.36685 21.7743C7.59956 21.5422 7.97741 21.5416 8.21012 21.7743C8.44282 22.007 8.44282 22.3836 8.21012 22.6164ZM9.47441 21.3533L8.63175 20.5112L10.7387 18.406L11.5814 19.2481L9.47441 21.3533ZM16.2181 20.5112L15.3749 21.3527L8.63175 14.6168L9.47441 13.7747L16.2181 20.5112ZM22.8005 11.2293L14.5934 17.2041L14.1106 16.7219L20.2635 10.575C20.4962 10.3423 20.4962 9.96561 20.2635 9.73351C20.0308 9.5014 19.6535 9.5008 19.4208 9.73351L13.2679 15.8799L12.7851 15.3976L18.7653 7.19952H22.7999V11.2293H22.8005Z" fill="white"/>
</svg>
