<svg width="338" height="322" viewBox="0 0 338 322" fill="none" xmlns="http://www.w3.org/2000/svg">
    <rect x="0.5" y="22.5" width="299" height="299" fill="white" stroke="#FF5000"/>
    <rect x="188.5" y="0.5" width="149" height="151" fill="white" stroke="#FF5000"/>
    <path d="M230.044 312V310.956C231.004 310.5 231.988 310.212 232.996 310.092V288.744C232.516 288.648 232.024 288.528 231.52 288.384C231.016 288.216 230.524 288.036 230.044 287.844V286.8H233.86C234.316 286.8 234.748 286.788 235.156 286.764C235.588 286.74 236.032 286.716 236.488 286.692C236.944 286.668 237.436 286.644 237.964 286.62C238.492 286.596 239.092 286.584 239.764 286.584C240.724 286.584 241.696 286.668 242.68 286.836C243.688 286.98 244.588 287.268 245.38 287.7C246.196 288.132 246.856 288.744 247.36 289.536C247.864 290.304 248.116 291.312 248.116 292.56C248.116 293.184 248.02 293.808 247.828 294.432C247.636 295.056 247.336 295.644 246.928 296.196C246.544 296.724 246.052 297.192 245.452 297.6C244.852 298.008 244.144 298.308 243.328 298.5V298.644C244.048 298.764 244.756 298.968 245.452 299.256C246.172 299.544 246.808 299.94 247.36 300.444C247.912 300.924 248.356 301.524 248.692 302.244C249.052 302.964 249.232 303.828 249.232 304.836C249.232 306.132 248.944 307.248 248.368 308.184C247.792 309.12 247.036 309.888 246.1 310.488C245.188 311.088 244.144 311.532 242.968 311.82C241.792 312.084 240.604 312.216 239.404 312.216C238.564 312.216 237.616 312.18 236.56 312.108C235.504 312.036 234.484 312 233.5 312H230.044ZM239.656 310.344C240.52 310.344 241.324 310.212 242.068 309.948C242.836 309.684 243.484 309.324 244.012 308.868C244.564 308.388 244.996 307.824 245.308 307.176C245.62 306.504 245.776 305.784 245.776 305.016C245.776 304.056 245.584 303.264 245.2 302.64C244.84 301.992 244.336 301.488 243.688 301.128C243.064 300.744 242.332 300.48 241.492 300.336C240.676 300.192 239.824 300.12 238.936 300.12H236.236V310.056C236.572 310.152 236.968 310.224 237.424 310.272C237.904 310.32 238.648 310.344 239.656 310.344ZM238.036 298.248C238.444 298.248 238.924 298.236 239.476 298.212C240.052 298.164 240.52 298.116 240.88 298.068C241.984 297.684 242.884 297.072 243.58 296.232C244.3 295.368 244.66 294.36 244.66 293.208C244.66 291.624 244.18 290.436 243.22 289.644C242.284 288.852 241.024 288.456 239.44 288.456C238.696 288.456 238.06 288.468 237.532 288.492C237.004 288.516 236.572 288.552 236.236 288.6V298.248H238.036ZM259.14 312H251.148V310.956C252.012 310.572 252.876 310.284 253.74 310.092L262.848 286.368H263.892L273 310.092C273.48 310.188 273.948 310.296 274.404 310.416C274.884 310.536 275.328 310.716 275.736 310.956V312H266.52V310.956C267 310.764 267.492 310.596 267.996 310.452C268.5 310.308 268.992 310.188 269.472 310.092L267.024 303.504H258.42L256.044 310.092C257.052 310.236 258.084 310.524 259.14 310.956V312ZM259.14 301.632H266.412L263.568 294L262.884 290.904H262.812L261.912 294.072L259.14 301.632ZM289.005 312H278.889V310.956C279.417 310.764 279.945 310.596 280.473 310.452C281.025 310.308 281.613 310.188 282.237 310.092V288.672H276.729L274.821 293.82H273.921C273.849 293.34 273.789 292.8 273.741 292.2C273.693 291.576 273.645 290.952 273.597 290.328C273.573 289.68 273.549 289.056 273.525 288.456C273.501 287.832 273.489 287.28 273.489 286.8H294.405C294.405 287.28 294.393 287.82 294.369 288.42C294.345 289.02 294.309 289.644 294.261 290.292C294.237 290.916 294.201 291.54 294.153 292.164C294.129 292.764 294.081 293.316 294.009 293.82H293.073L291.201 288.672H285.693V310.092C286.317 310.212 286.893 310.332 287.421 310.452C287.973 310.572 288.501 310.74 289.005 310.956V312Z" fill="#001322"/>
    <path d="M263 151C304.421 151 338 117.421 338 76C338 34.5786 304.421 1 263 1C221.579 1 188 34.5786 188 76C188 117.421 221.579 151 263 151Z" fill="#FF5000"/>
    <path d="M216.125 111.156L263.234 31.4688L309.875 111.062L216.125 111.156ZM263.141 63.7188L243.875 95.5469H282.453L263.141 63.7188Z" fill="white"/>
    <g clip-path="url(#clip0)">
        <g filter="url(#filter0_d)">
            <path d="M188.187 48.0948C183.213 52.6526 173.931 62.8087 146.606 93.5267C131.413 110.613 125.419 117.252 125.211 117.252C124.92 117.252 122.776 113.776 121.527 111.3C118.218 104.744 116.782 98.1469 116.512 88.3237C116.449 85.868 116.325 82.5797 116.2 80.998C116.075 78.9793 116.075 77.8555 116.241 77.0438C116.47 75.9616 116.387 72.3196 116.054 69.4892C115.929 68.3862 115.846 68.2405 115.409 68.1781C114.41 68.0324 113.952 68.3029 113.827 69.1354C113.744 69.5516 113.286 70.8419 112.787 71.9866C111.933 73.9637 111.871 74.0678 111.267 74.0678C110.872 74.0886 110.393 74.2759 110.081 74.588C109.519 75.1083 107.105 78.792 105.815 81.1229C105.024 82.4965 104.462 82.8503 101.736 83.5371C100.841 83.766 100.071 84.0157 100.008 84.0782C99.7793 84.3279 102.131 83.9325 103.317 83.5371C103.942 83.3289 104.483 83.1833 104.524 83.2041C104.795 83.4746 104.025 84.1198 102.714 84.7441C101.07 85.4934 100.986 85.8888 102.589 85.3269C103.13 85.1604 103.525 85.0979 103.525 85.2228C103.525 85.3269 103.13 85.8055 102.651 86.2426C102.152 86.7004 101.881 87.075 102.048 87.075C102.402 87.075 104.254 85.7223 105.711 84.3695C106.564 83.5787 106.668 83.5371 106.335 84.0574C105.398 85.5142 103.921 88.1781 104.004 88.2613C104.129 88.3654 105.336 86.7213 106.772 84.4528C107.417 83.433 107.896 82.7878 107.833 83.0168C107.771 83.2457 107.334 84.5985 106.834 86.0345C106.044 88.407 105.877 88.74 104.857 89.7806C103.505 91.1749 103.338 91.716 104.649 90.4257C105.17 89.9054 105.669 89.5933 105.815 89.6765C105.94 89.7598 106.168 89.6973 106.335 89.5724C106.71 89.2603 106.751 89.5933 106.397 89.9471C105.981 90.3633 106.418 90.4882 106.876 90.0719C107.313 89.6765 107.334 89.6765 107.188 90.1135C107.105 90.3633 107.001 90.9252 106.959 91.3622L106.855 92.1323L107.313 91.7369C107.625 91.4455 107.729 91.4247 107.646 91.6536C107.584 91.8201 107.313 92.9023 107.063 94.047C106.73 95.4413 106.377 96.3987 105.96 96.9814C105.544 97.5849 105.294 98.2925 105.128 99.3123L104.899 100.79L104.004 101.123C103.525 101.31 102.859 101.435 102.547 101.393C102.027 101.331 101.965 101.248 101.902 100.415C101.84 99.6869 101.923 99.3955 102.339 98.9585C103.047 98.2093 103.192 97.6057 102.88 96.7525C102.651 96.1281 102.672 95.8159 102.984 94.6089C103.421 92.9647 103.65 89.7181 103.421 87.9908C103.296 86.9294 103.234 86.8253 103.005 87.1375C102.859 87.3456 102.443 88.3654 102.069 89.4059C101.361 91.4663 99.3423 95.6286 99.2382 95.2957C99.1966 95.1708 98.926 93.1729 98.6347 90.8628C97.5317 81.9138 96.1581 78.2509 92.6201 74.7129C89.873 71.9658 85.3776 70.613 82.1727 71.5704C81.5899 71.7368 80.7158 72.2571 80.1331 72.7566C79.5712 73.2353 78.6347 73.7972 78.0728 74.0053C75.4089 74.9418 72.5785 78.0428 68.8948 84.0157C68.3329 84.8898 67.2715 86.2634 66.5015 87.0334C65.7523 87.8035 65.3776 88.1989 65.6898 87.9283C66.0228 87.637 66.2725 87.5121 66.2725 87.637C66.2725 88.0532 65.5233 88.511 65.0238 88.407C63.4422 88.0532 62.5681 87.637 62.1518 87.0959L61.7148 86.4923L62.3808 86.6796C62.7346 86.7837 63.796 86.8461 64.7117 86.8461L66.3766 86.8045L64.9198 86.638C64.1289 86.5547 62.9219 86.3674 62.2559 86.2218C61.0488 85.972 61.0488 85.972 59.3839 83.8284C57.2819 81.0813 55.95 79.5829 55.2424 79.125C54.951 78.9169 54.2434 78.7296 53.6815 78.6879C52.6617 78.6255 52.6409 78.6255 51.8709 77.2936C51.4338 76.5443 51.0384 75.6494 50.9552 75.2748C50.8303 74.588 50.4765 74.1718 49.9978 74.0886C49.8522 74.0678 49.6024 73.9845 49.4359 73.8804C49.2694 73.7764 49.0197 73.8388 48.7908 74.0886C48.437 74.4632 48.4161 74.7129 48.6243 78.022C48.8948 82.2051 48.6659 84.8066 47.7502 88.4278C47.001 91.4455 45.9812 93.7348 43.9 97.1687C41.3194 101.414 38.8428 106.763 35.7835 114.65C35.0343 116.586 34.1602 118.605 33.8688 119.125C33.5566 119.645 31.8501 121.518 30.0603 123.287C25.5441 127.783 23.1924 131.237 19.0509 139.52C16.8032 144.057 15.6378 146.804 13.515 152.632C12.849 154.401 11.9125 156.69 11.413 157.689C10.9135 158.709 10.4973 159.562 10.4973 159.604C10.4973 159.645 10.8719 159.791 11.3506 159.916C12.0582 160.103 12.2455 160.29 12.5785 161.04C12.7866 161.518 13.0988 162.663 13.2861 163.558C13.4942 164.598 13.8688 165.577 14.2642 166.201L14.9094 167.2H16.1165C16.7616 167.2 17.8022 167.117 18.3849 166.992C20.9031 166.513 23.7752 167.783 27.0426 170.8C29.8522 173.402 36.0956 176.565 40.8615 177.814C45.1695 178.938 50.6014 178.896 54.5556 177.71C57.6565 176.773 59.1758 175.733 61.0904 173.256C61.6732 172.507 61.6732 172.507 63.2132 173.131C63.6919 173.319 63.6919 172.673 63.2132 172.153C63.0259 171.945 62.9219 171.737 62.9635 171.716C63.0051 171.674 63.8376 171.154 64.8157 170.571C65.7939 169.989 66.9593 169.219 67.4172 168.865L68.2497 168.199L68.3121 169.572C68.3745 170.967 68.1248 171.778 67.6669 171.778C67.1258 171.778 66.2934 172.32 66.0644 172.819C65.8563 173.256 65.8979 173.381 66.3558 173.714C67.0218 174.193 67.0634 175.15 66.4807 176.045C66.2517 176.378 66.0644 176.877 66.0644 177.127C66.0644 177.398 65.9604 177.606 65.8563 177.606C65.7314 177.606 65.6482 177.855 65.669 178.188C65.6898 178.501 65.5233 179.083 65.2736 179.5C64.9614 179.999 64.8365 180.54 64.8365 181.269C64.8782 182.538 64.6701 183.246 64.1706 183.599C63.9416 183.745 63.7752 183.995 63.7752 184.161C63.7752 184.328 63.5878 184.765 63.3589 185.16C63.0676 185.66 62.9635 186.18 62.9843 186.888C63.0051 187.575 62.8802 188.22 62.5889 188.844C62.0478 189.989 61.8189 191.008 61.8813 191.924C61.9021 192.299 61.8189 192.757 61.6732 192.923C61.4859 193.152 61.4859 193.298 61.6524 193.464C62.0894 193.901 61.9437 195.046 61.4442 195.316C61.1737 195.462 60.9031 195.67 60.8199 195.795C60.5702 196.17 60.6534 197.231 60.9448 197.793C61.1945 198.23 61.1945 198.376 60.9031 198.875C60.6326 199.354 60.6118 199.52 60.8407 199.957C61.0488 200.311 61.0696 200.727 60.9656 201.269C60.8823 201.706 60.8199 203.079 60.8199 204.328C60.8407 206.118 60.7783 206.721 60.4869 207.2C60.2164 207.679 60.1955 207.866 60.4037 208.199C60.6534 208.615 60.5702 209.115 60.1331 209.656C59.9666 209.843 59.8209 211.008 59.7585 212.673C59.6961 214.338 59.5712 215.4 59.4255 215.441C59.1342 215.545 59.1342 216.253 59.4047 216.419C59.6544 216.565 59.5296 217.731 59.0717 219.749C58.9052 220.436 58.7804 221.393 58.7804 221.872C58.7804 222.351 58.6971 222.809 58.5722 222.871C58.4682 222.934 58.3849 223.287 58.3849 223.662C58.4474 224.973 57.9479 228.511 57.5941 229.531C56.9489 231.258 56.5327 231.799 55.3881 232.236C54.0769 232.757 53.5774 233.402 53.4734 234.796C53.4318 235.545 53.2445 236.066 52.9115 236.461C52.6409 236.773 52.2663 237.398 52.079 237.855C51.3922 239.479 50.8719 240.582 50.4557 241.289C50.1019 241.893 50.0395 242.372 50.0395 244.328C50.0395 246.43 49.9978 246.742 49.5192 247.554C49.2278 248.053 48.9989 248.698 48.9989 248.99C48.9989 249.281 48.8532 249.697 48.6867 249.905C48.2497 250.488 47.7294 252.424 47.7502 253.423C47.771 253.901 47.5004 255.316 47.1466 256.586C46.3974 259.291 46.3558 260.873 46.8969 263.1C47.1258 263.974 47.3756 265.535 47.438 266.576C47.5629 268.303 47.5212 268.615 46.9385 270.426C46.4807 271.82 45.9812 272.861 45.2112 273.985C44.5868 274.859 43.7335 276.336 43.2965 277.273L42.4848 279L42.7554 281.165C42.9219 282.517 42.9843 284.12 42.8802 285.41C42.7554 287.346 42.7762 287.512 43.1924 287.928C43.6295 288.365 43.6295 288.386 43.2965 290.592C43.0051 292.653 43.0051 292.819 43.3381 293.069C43.6295 293.277 43.6295 293.402 43.4214 293.735C43.0884 294.276 43.1092 294.775 43.4838 295.275C43.6503 295.504 43.796 295.878 43.796 296.128C43.796 296.378 44.0665 296.94 44.4203 297.398C44.7533 297.835 45.0447 298.334 45.0447 298.48C45.0447 298.834 45.565 299 48.4786 299.624C51.9125 300.353 56.9906 300.769 58.1976 300.415C59.0509 300.166 60.1747 299.208 60.6534 298.293C60.8823 297.876 60.7575 297.065 60.4661 297.065C60.3829 297.065 60.1747 296.524 60.0291 295.858C59.7377 294.546 59.1966 293.339 58.6971 292.923C58.5098 292.757 58.3641 292.528 58.3641 292.403C58.3641 292.278 58.0728 291.633 57.7398 290.946C57.1362 289.76 57.1362 289.718 57.3235 287.845C57.4276 286.825 57.4276 285.826 57.3443 285.639C57.2403 285.452 57.1154 284.682 57.0322 283.932C56.8865 282.496 57.157 280.977 57.9479 278.438C58.593 276.357 58.593 275.899 57.9687 272.986L57.386 270.259L57.8438 269.031C58.4682 267.387 59.1342 266.097 59.8209 265.223C60.7158 264.078 61.4234 262.517 62.0894 260.249C62.4432 259 62.9011 257.897 63.2132 257.523C63.7543 256.877 64.2954 254.921 64.0873 254.38C63.796 253.631 67.0218 247.179 69.0405 244.453C70.2684 242.788 70.3724 242.163 69.8313 240.207C69.2694 238.251 69.2694 236.94 69.8105 236.024C70.1435 235.462 70.1851 235.212 70.0186 234.609C69.7689 233.797 69.9146 232.819 70.4765 231.529C70.6846 231.029 70.9552 230.197 71.0592 229.697C71.1841 229.198 71.4338 228.532 71.642 228.22C71.8293 227.928 72.0998 227.262 72.2455 226.742C72.3704 226.222 72.7866 224.848 73.1196 223.704C74.2018 220.207 75.0343 216.711 74.8886 216.274C74.8053 216.003 74.9718 215.566 75.3672 215.004C75.8667 214.255 75.95 213.922 75.9708 212.569C75.9916 211.113 76.054 210.863 77.0738 208.844C77.6773 207.637 78.9468 205.514 79.9042 204.12C81.1113 202.33 81.694 201.248 81.8605 200.54C81.9854 199.978 82.36 198.792 82.7138 197.918C83.0467 197.044 83.3381 196.211 83.3381 196.066C83.3381 195.587 84.7533 192.923 85.7106 191.57C86.2309 190.821 86.668 190.072 86.668 189.885C86.668 189.572 87.6669 188.428 87.7294 188.657C87.7502 188.698 87.7918 188.927 87.8126 189.156C87.8334 189.406 87.9583 189.905 88.0832 190.301C88.2913 190.988 88.6035 194.109 89.1862 201.435C89.3111 203.162 89.3735 204.952 89.2902 205.389C89.207 205.847 89.1446 206.451 89.1446 206.742C89.1446 207.033 89.1446 209.031 89.1446 211.196C89.1446 213.776 89.0613 215.275 88.9156 215.566C88.6243 216.107 88.5826 220.27 88.8324 225.368C88.9364 227.429 89.0405 229.635 89.0405 230.259C89.0613 230.884 89.1446 231.674 89.2278 232.028C89.3527 232.569 89.2902 232.715 88.6867 233.09C88.3329 233.319 88.0415 233.652 88.0624 233.818C88.104 234.13 88.3953 235.275 88.7075 236.524C88.874 237.21 88.8532 237.273 88.3121 237.522C87.5837 237.835 87.5212 238.043 87.438 241.185L87.3756 243.683L86.3142 244.765C85.7314 245.368 85.1279 246.201 85.003 246.617C84.6284 247.72 84.8574 249.073 85.6066 250.259C86.0644 251.008 86.2517 251.57 86.2517 252.195C86.2517 252.777 86.3974 253.277 86.668 253.631C87.4172 254.567 87.4172 255.92 86.6888 257.897C85.8771 260.062 85.8771 260.54 86.6888 262.122C87.9791 264.682 89.2486 268.345 88.8532 268.345C88.8116 268.345 88.4162 268.116 87.9999 267.824C86.5847 266.867 85.9396 267.262 86.1685 268.927C86.2726 269.781 86.1893 270.301 85.669 271.82C85.336 272.819 84.9822 274.318 84.9198 275.108C84.7741 276.524 84.7949 276.607 85.6482 278.209C86.5639 279.957 87.3548 282.122 87.5837 283.454C87.6669 283.912 87.6253 285.119 87.4796 286.139C87.0842 288.927 87.105 289.864 87.5421 289.947C87.7502 289.989 88.1872 289.885 88.4994 289.718C89.0613 289.448 89.1029 289.468 89.4359 290.03C89.8313 290.717 90.9136 291.237 91.9541 291.237C92.3704 291.237 92.7034 291.362 92.7658 291.529C92.8282 291.695 93.4318 292.111 94.0977 292.444C94.7637 292.777 95.6378 293.339 96.0332 293.693C96.4286 294.068 96.9489 294.359 97.1987 294.359C97.4484 294.359 98.0103 294.505 98.4474 294.692C99.488 295.129 101.423 294.983 104.899 294.193C107.729 293.547 108.291 293.256 109.04 292.07C109.644 291.133 109.706 290.571 109.249 290.197C109.082 290.051 108.645 289.385 108.291 288.719C107.917 288.032 107.23 287.137 106.73 286.721C106.231 286.284 105.253 285.389 104.566 284.744C103.9 284.078 103.234 283.537 103.13 283.537C103.005 283.537 102.818 283.162 102.693 282.705C102.568 282.247 102.36 281.872 102.214 281.872C101.798 281.872 100.862 280.103 100.633 278.834C100.508 278.168 100.404 276.836 100.404 275.878C100.404 274.401 100.466 274.026 100.882 273.485C101.59 272.465 101.507 270.093 100.674 267.554L100.029 265.618L100.716 264.474C101.423 263.308 101.819 261.872 103.317 255.171C103.796 252.986 103.921 251.945 103.9 250.134C103.9 248.303 104.025 247.262 104.545 244.827C104.982 242.809 105.253 240.956 105.336 239.187C105.461 236.544 105.294 235.67 104.691 235.67C104.316 235.67 103.921 234.234 103.838 232.569C103.817 231.82 103.713 230.675 103.65 230.051C103.359 227.491 103.359 226.888 103.65 226.201C103.817 225.806 103.942 224.931 103.942 224.265C103.942 223.391 104.046 222.892 104.316 222.538C104.628 222.163 104.753 221.393 104.941 219.229C105.065 217.689 105.315 216.003 105.503 215.483C105.69 214.963 105.794 214.234 105.731 213.86C105.669 213.485 105.773 212.715 105.94 212.132C106.127 211.508 106.21 210.738 106.127 210.218C106.023 209.427 106.21 208.303 107.043 204.973C107.167 204.515 107.417 203.017 107.584 201.643C107.792 200.207 108.125 198.75 108.375 198.209C108.645 197.627 108.77 196.94 108.749 196.399C108.708 195.92 108.853 194.983 109.061 194.317C109.311 193.527 109.457 192.32 109.478 190.821C109.498 189.552 109.602 188.303 109.727 188.012C109.915 187.554 109.956 187.554 109.977 187.908C109.977 188.136 110.164 188.74 110.393 189.239C110.747 190.009 110.872 190.114 111.288 190.009C111.684 189.926 111.85 190.009 112.079 190.447C112.266 190.78 112.287 191.029 112.162 191.071C111.413 191.321 111.371 191.508 111.808 192.236L112.245 192.986L111.725 193.319C111.205 193.652 111.038 194.422 111.496 194.567C111.621 194.609 112.079 194.692 112.495 194.734C113.723 194.879 113.827 195.067 113.016 195.649C112.37 196.066 112.287 196.211 112.474 196.544C112.828 197.21 113.349 197.377 114.347 197.148C115.7 196.836 115.929 197.023 115.284 197.876C114.306 199.146 114.951 199.77 116.678 199.271C117.511 199.021 118.302 199.229 118.302 199.708C118.302 199.833 119.217 200.832 120.341 201.935C122.797 204.328 122.922 204.494 131.309 216.607C139.363 228.261 143.296 233.735 145.294 236.086C149.831 241.393 150.539 242.205 150.872 242.372C151.788 242.892 151.392 241.893 149.269 238.376C148.416 236.94 147.355 235.129 146.918 234.338C145.856 232.403 141.09 225.244 134.431 215.587C128.52 207.013 126.21 203.35 126.21 202.559C126.231 202.101 126.314 202.143 127.105 203.058C127.584 203.6 128.042 204.037 128.146 204.037C128.229 204.037 128.291 203.724 128.291 203.329C128.291 202.85 128.062 202.33 127.563 201.685C127.126 201.102 126.834 200.499 126.834 200.124C126.834 199.687 126.689 199.458 126.293 199.229C125.981 199.083 124.92 198.084 123.921 197.023L122.11 195.108L121.965 193.693C121.881 192.923 121.59 191.612 121.299 190.78C120.716 188.99 120.716 188.969 121.111 189.135C121.299 189.198 121.507 189.073 121.632 188.823C121.819 188.511 121.736 188.157 121.34 187.221C119.363 182.642 118.739 181.185 118.614 180.748C118.343 179.874 118.468 178.376 118.822 178.188C119.342 177.876 119.217 176.669 118.614 176.211C117.552 175.421 117.261 171.674 117.99 167.866C118.551 164.952 118.614 164.224 118.302 163.329C118.031 162.517 117.053 156.877 116.866 154.921C116.637 152.673 116.449 152.403 114.868 152.174C114.16 152.07 114.264 151.445 115.138 150.613C115.846 149.947 115.95 149.718 115.867 149.219C115.783 148.844 115.513 148.49 115.076 148.24C114.493 147.887 114.41 147.699 114.202 146.367C114.077 145.556 113.827 144.744 113.64 144.536C113.244 144.099 113.203 143.038 113.557 142.684C113.765 142.476 113.765 142.392 113.557 142.247C112.849 141.81 113.411 140.79 116.533 136.836C118.26 134.671 119.717 132.881 119.779 132.881C119.987 132.861 122.443 136.399 123.026 137.543C123.546 138.542 123.962 141.185 123.609 141.185C123.525 141.185 123.047 140.811 122.526 140.353C121.07 139.083 120.445 139.271 119.571 141.185C118.926 142.601 119.093 144.911 119.842 145.202C119.987 145.264 120.695 145.015 121.382 144.682C122.089 144.328 123.109 143.995 123.671 143.953C124.524 143.87 124.878 143.974 126.418 144.786C127.667 145.452 128.687 145.826 129.935 146.055C132.079 146.471 132.787 146.471 134.639 146.076C135.45 145.889 136.991 145.66 138.073 145.535C140.341 145.285 142.984 144.703 144.483 144.141C145.065 143.912 146.668 143.058 148.062 142.226C149.956 141.081 151.288 140.457 153.536 139.708C155.159 139.146 156.72 138.563 157.011 138.397C157.303 138.23 157.885 138.043 158.322 137.96C162.069 137.252 165.253 133.776 166.668 128.823C167.251 126.825 167.313 126.534 167.022 126.7C166.918 126.763 166.73 126.7 166.606 126.534C166.439 126.326 166.106 126.305 165.336 126.43C163.838 126.659 162.318 127.575 161.465 128.719C159.717 131.092 156.221 133.735 153.786 134.526C153.328 134.671 152.599 135.067 152.183 135.421C151.517 135.941 151.33 136.003 150.56 135.878C148.208 135.483 138.218 129.718 133.806 126.243C131.746 124.598 128.916 122.018 128.916 121.789C128.916 121.539 134.264 115.088 144.087 103.516C178.198 63.3081 187.417 52.1115 190.039 47.7826C191.309 45.639 190.768 45.7431 188.187 48.0948ZM114.535 73.2769C114.285 74.6921 114.014 75.8367 113.931 75.8367C113.848 75.8367 113.619 75.6494 113.432 75.4413C113.078 75.0667 113.099 74.921 113.744 72.6734C114.889 68.6151 115.326 68.9481 114.535 73.2769ZM51.1425 78.3342C51.8501 80.0823 51.8917 80.2905 51.6003 80.6234C51.4338 80.8107 51.2882 81.331 51.2882 81.7889C51.2673 82.3508 51.2257 82.4965 51.1009 82.2884C50.8303 81.8305 49.873 78.2093 49.7065 77.0022C49.5816 76.0657 49.6024 76.024 49.9562 76.2114C50.1851 76.3362 50.7054 77.2728 51.1425 78.3342ZM108.812 77.5433C108.624 79.0001 108.146 79.8534 107.001 80.8524L105.919 81.7681L106.626 80.5194C107.771 78.5006 108.832 76.6692 108.895 76.6692C108.916 76.6692 108.895 77.0646 108.812 77.5433ZM109.373 80.7483C109.269 81.0813 109.165 81.1853 109.165 80.998C109.145 80.6234 109.373 79.9366 109.478 80.0615C109.519 80.0823 109.457 80.3945 109.373 80.7483ZM58.2393 82.8919C59.1133 84.0574 59.7793 84.9939 59.7169 84.9939C59.6544 84.9939 59.2382 84.8066 58.8012 84.5777C57.8022 84.0782 57.1154 83.2457 57.1154 82.5173C57.1154 82.2259 56.9281 81.664 56.6992 81.2894C55.9708 80.1239 56.5327 80.7067 58.2393 82.8919ZM108.583 83.7036C108.395 84.5152 108.021 85.4517 107.75 85.7639C107.313 86.305 107.334 86.1593 108 84.2863C108.395 83.1625 108.728 82.1843 108.728 82.1219C108.728 82.0594 108.77 82.0594 108.832 82.1219C108.895 82.1843 108.791 82.8919 108.583 83.7036ZM57.5941 86.0345C57.6565 86.2634 57.6357 86.4091 57.5317 86.3466C57.4484 86.2842 57.3235 86.0553 57.2611 85.8263C57.1987 85.5974 57.2195 85.4517 57.3235 85.5142C57.4068 85.5766 57.5317 85.8055 57.5941 86.0345ZM60.8823 86.5964L61.3818 87.1375L60.7158 86.6588C60.0082 86.1385 59.9042 86.0345 60.1955 86.0345C60.2996 86.0345 60.591 86.2842 60.8823 86.5964ZM60.4453 89.1562C60.8615 89.6765 61.4651 90.4257 61.7772 90.8628L62.3391 91.612L61.6524 92.0698L60.9656 92.5277L61.5899 91.9866C62.3183 91.3414 61.9853 91.2582 61.2153 91.8617L60.6742 92.2988L60.5285 91.716C60.4453 91.4039 60.2372 90.946 60.0499 90.7379C59.8626 90.509 59.8417 90.4049 59.9874 90.4882C60.4453 90.7587 60.258 90.0303 59.4047 88.4278C58.4474 86.5964 58.3433 86.201 59.1342 87.3872C59.4255 87.8451 60.0291 88.6359 60.4453 89.1562ZM61.5275 88.1573C62.131 88.511 62.8386 89.0522 63.0884 89.3435L63.5254 89.8846L62.9843 90.4882L62.4224 91.1125L63.0467 90.7379L63.6711 90.3633L63.1924 90.8419L62.7138 91.3414L62.0894 90.6546C61.4651 89.9471 61.4026 89.4892 62.0062 89.9887C62.7138 90.5922 62.2559 89.7389 61.2569 88.6567C60.6742 88.0116 60.258 87.4913 60.3204 87.4913C60.3829 87.4913 60.924 87.7826 61.5275 88.1573ZM64.2122 88.9065C64.0665 88.9481 63.8376 88.8857 63.7335 88.7816C63.567 88.6151 63.6503 88.5943 64.0041 88.6775C64.2746 88.7608 64.3787 88.844 64.2122 88.9065ZM58.8636 89.2811C58.926 89.4476 58.9052 89.5308 58.7804 89.4684C58.6555 89.4059 58.5722 89.2603 58.5722 89.1354C58.5722 88.844 58.7179 88.9065 58.8636 89.2811ZM52.6617 92.4861C52.8282 93.2353 52.9531 94.0261 52.9531 94.2551C52.9531 94.6713 53.1612 95.1083 53.9937 96.5027L54.4723 97.2936L54.0145 97.4184C53.7856 97.4809 53.6191 97.6057 53.6815 97.689C53.7439 97.793 53.5566 98.0428 53.2653 98.2925C52.9531 98.5215 52.7242 98.7504 52.745 98.8336C52.745 98.8961 52.4744 99.2915 52.1206 99.7285C51.7668 100.145 51.5795 100.519 51.7044 100.561C51.8501 100.623 51.8501 100.727 51.6836 100.936C51.2673 101.456 51.6211 101.248 52.1414 100.665C52.412 100.374 52.516 100.186 52.3496 100.29C52.1414 100.395 52.0998 100.374 52.2039 100.207C52.2871 100.082 52.4328 100.02 52.5369 100.082C52.6409 100.145 52.7658 100.103 52.8282 99.9991C52.8907 99.895 53.4526 99.3955 54.0561 98.9169L55.1383 98.0012L54.3475 98.9377C51.7252 102.08 50.7679 103.308 50.3308 104.182C49.7273 105.368 49.8105 105.493 50.4765 104.39C51.1841 103.246 52.849 101.227 53.4109 100.852L53.8896 100.519L53.4942 101.123C53.2861 101.477 52.9115 101.976 52.6617 102.268C51.3714 103.745 51.8709 103.371 53.8064 101.414C54.9926 100.186 55.3881 99.8534 54.6805 100.623C53.515 101.914 52.9947 102.725 53.5774 102.372C53.7023 102.288 53.7231 102.392 53.6399 102.621C53.5566 102.809 53.952 102.517 54.514 101.955C55.0759 101.373 55.5129 100.852 55.4921 100.79C55.4713 100.707 55.6794 100.478 55.9292 100.27L56.387 99.8742L55.9916 100.332C55.7627 100.603 55.6794 100.811 55.7835 100.811C55.8667 100.811 55.4505 101.331 54.8261 101.955C54.2226 102.58 53.6607 103.058 53.6191 102.996C53.5774 102.954 53.1404 103.495 52.6825 104.203C52.2039 104.911 51.7044 105.577 51.5795 105.701C51.4338 105.806 51.2673 106.139 51.1841 106.409C51.0176 106.929 51.3714 106.617 53.8064 104.016C54.8678 102.85 56.5951 101.435 56.4703 101.81C56.4286 101.935 55.8251 102.496 55.1591 103.038C53.9312 104.037 51.9125 106.43 51.9125 106.909C51.9125 107.033 52.1622 106.784 52.4536 106.326C53.0988 105.348 54.618 103.724 54.8886 103.724C54.9926 103.724 54.6388 104.203 54.1185 104.807C53.2861 105.764 51.9125 108.157 51.9125 108.636C51.9125 108.74 52.2247 108.261 52.5993 107.554C53.2861 106.284 55.0343 104.078 55.2216 104.265C55.284 104.307 55.2007 104.474 55.0759 104.598C54.6805 104.994 54.7845 105.264 55.2007 104.952C55.5337 104.682 55.3672 104.952 54.6388 105.806C54.5972 105.868 54.618 105.722 54.6805 105.493L54.8261 105.077L54.4932 105.493C54.3267 105.722 54.0769 106.097 53.9729 106.326C53.7856 106.7 53.7856 106.721 54.0561 106.388C54.2226 106.18 54.3891 106.076 54.4515 106.118C54.514 106.18 54.6805 106.097 54.8261 105.91C54.9718 105.743 55.2216 105.597 55.3881 105.597C55.7002 105.597 55.2007 106.409 54.0977 107.679C53.4109 108.469 53.7439 108.261 55.3881 106.888C55.9916 106.367 56.4494 105.889 56.387 105.806C56.3246 105.701 56.387 105.556 56.5119 105.473C56.6784 105.368 56.6992 105.41 56.5951 105.597C56.4703 105.785 56.5535 105.806 56.9281 105.701C57.4068 105.556 57.4068 105.556 57.0946 105.93C56.9073 106.159 56.6784 106.555 56.5951 106.846C56.4703 107.262 56.5743 107.2 57.2195 106.472C57.6357 105.993 58.0519 105.639 58.156 105.701C58.2601 105.764 58.3641 105.681 58.4266 105.556C58.4682 105.41 58.5722 105.327 58.6347 105.389C58.8428 105.577 57.9895 106.846 57.5733 106.992C57.1362 107.158 54.4932 109.76 54.7637 109.76C54.8886 109.76 55.4089 109.385 55.95 108.906C56.4703 108.449 56.9073 108.116 56.9073 108.178C56.9073 108.24 56.283 109.219 55.5337 110.342C54.7845 111.445 54.4307 112.049 54.7637 111.674C55.5129 110.8 55.8251 110.8 55.2216 111.674C54.8886 112.132 54.8678 112.257 55.0967 112.07C55.284 111.924 55.4505 111.862 55.4505 111.966C55.4505 112.049 55.6794 111.903 55.9708 111.633C56.6159 111.029 56.8449 111.196 56.387 111.924C56.1789 112.216 56.0956 112.465 56.1997 112.465C56.283 112.465 56.2621 112.569 56.1165 112.715C55.617 113.214 55.8875 113.36 56.4494 112.861L57.0114 112.361L56.5119 112.923C56.2205 113.256 55.9708 113.464 55.9083 113.402C55.8667 113.36 55.5337 113.464 55.2007 113.631C54.847 113.818 54.6388 114.005 54.7013 114.068C54.7637 114.13 54.951 114.068 55.1383 113.922C55.3256 113.776 55.5129 113.714 55.5962 113.776C55.6586 113.86 55.8875 113.818 56.0956 113.693C56.5119 113.485 56.6784 113.776 56.283 114.026C56.1789 114.089 56.1373 114.276 56.1997 114.422C56.283 114.609 56.054 114.796 55.5545 114.963C54.3891 115.337 54.8053 115.421 56.1789 115.067C56.8449 114.879 57.4276 114.796 57.4692 114.838C57.5317 114.9 57.1154 115.441 56.5743 116.045L55.5754 117.148L56.6576 116.107C57.49 115.316 57.7398 115.171 57.7398 115.483C57.7398 115.858 57.7398 115.858 58.0311 115.483C58.1976 115.254 58.2809 115.004 58.2393 114.942C58.1976 114.859 58.3225 114.671 58.5306 114.526C58.8428 114.276 58.8636 114.276 58.6347 114.546C58.4682 114.755 58.4474 114.983 58.5722 115.171C58.7387 115.441 58.7804 115.441 58.7804 115.192C58.7804 114.838 59.3839 114.13 59.6544 114.13C59.7585 114.13 59.7793 114.213 59.7169 114.338C59.6544 114.442 59.6961 114.546 59.8417 114.546C59.9874 114.546 59.9458 114.713 59.7169 114.963C59.5088 115.192 59.4255 115.379 59.5088 115.379C59.6128 115.379 59.4671 115.629 59.1758 115.941L58.6763 116.503L59.259 116.128C59.9874 115.691 60.1747 115.816 59.8626 116.544C59.6961 116.877 59.5088 117.002 59.3423 116.919C59.2174 116.836 59.155 116.836 59.2382 116.94C59.4047 117.127 58.5722 117.814 58.3017 117.71C58.1976 117.689 58.1768 117.751 58.2393 117.855C58.3225 117.96 58.1976 118.105 57.9895 118.168C57.7814 118.23 57.2403 118.688 56.7824 119.167C56.1165 119.874 56.0748 119.957 56.5951 119.583C56.9489 119.333 57.823 118.688 58.5306 118.188L59.8626 117.231L59.7169 118.126C59.6336 118.626 59.4047 119.167 59.1758 119.354C58.9677 119.541 58.5306 119.937 58.2184 120.207C57.8855 120.478 57.49 120.873 57.3235 121.102C57.157 121.331 57.3443 121.227 57.7398 120.873C58.1352 120.54 58.6347 120.124 58.8428 119.957C59.1966 119.708 59.1966 119.729 59.0093 120.186C58.9052 120.457 58.7595 120.936 58.6971 121.227C58.6347 121.518 58.3433 121.872 58.0103 122.039C57.6773 122.205 57.0738 122.663 56.6368 123.058C55.3464 124.286 54.8261 126.888 55.5545 128.615C55.8043 129.239 55.8043 129.531 55.4921 131.154C55.3048 132.153 55.1591 133.339 55.1799 133.797C55.2216 134.9 54.8886 137.543 54.6596 138.001C53.8688 139.562 53.5566 142.018 54.0145 142.871C54.181 143.183 54.1602 143.371 53.9729 143.599C53.6399 144.016 52.9739 145.951 52.9531 146.534C52.9531 146.784 52.8698 147.033 52.7658 147.117C52.5369 147.242 52.4328 146.367 52.0166 140.769C51.8293 138.417 51.5171 134.63 51.2882 132.34C51.0592 130.051 50.7262 126.576 50.5597 124.64C50.3933 122.684 49.9562 119.125 49.5816 116.732C48.9989 112.84 48.9156 111.862 48.9156 107.783C48.9156 102.809 49.0405 101.81 50.3516 96.2322C50.9135 93.7972 51.4963 90.5714 51.4963 89.8222C51.4963 89.7389 51.7044 90.0095 51.9333 90.4049C52.1831 90.8003 52.516 91.7369 52.6617 92.4861ZM59.9874 91.612C60.4037 92.2363 60.2164 92.1947 59.592 91.5287C59.3215 91.2166 59.2174 91.0085 59.3839 91.0709C59.5504 91.1125 59.8209 91.3622 59.9874 91.612ZM58.2601 91.7993L58.6347 92.382L58.1976 91.9866C57.9479 91.7577 57.7398 91.5079 57.7398 91.4039C57.7398 91.1125 57.8855 91.2166 58.2601 91.7993ZM63.567 91.4039C63.567 91.6536 62.4224 93.2353 62.1102 93.4226C61.694 93.6931 61.6524 93.3602 62.027 92.7566C62.7554 91.6328 63.567 90.9044 63.567 91.4039ZM63.2757 92.8607C62.9219 93.1937 62.9011 93.1937 63.1716 92.7566C63.3173 92.5069 63.4838 92.3404 63.5462 92.4028C63.6087 92.4445 63.4838 92.6526 63.2757 92.8607ZM58.8636 93.0272C59.2382 93.381 59.3215 93.8388 58.9885 93.6307C58.7595 93.485 58.3017 92.6942 58.4474 92.6942C58.489 92.6942 58.6971 92.8399 58.8636 93.0272ZM67.1258 94.047C66.7304 94.9418 66.2725 95.1708 66.2725 94.4632C66.2725 94.151 67.3131 92.8399 67.4588 92.9855C67.5212 93.0272 67.3548 93.5058 67.1258 94.047ZM60.8615 93.7348C60.8615 93.8388 60.6742 94.0261 60.4453 94.151C60.1123 94.3175 60.0291 94.3175 60.0291 94.0678C60.0291 93.8596 60.1539 93.7972 60.3412 93.8596C60.5702 93.9637 60.6118 93.9013 60.5077 93.6099C60.4245 93.3602 60.4453 93.2977 60.6118 93.4018C60.7575 93.485 60.8615 93.6307 60.8615 93.7348ZM61.3194 93.9845C61.1737 94.1302 61.0696 94.151 61.0696 94.0261C61.0696 93.7348 61.3194 93.485 61.4651 93.6307C61.5067 93.6931 61.4442 93.8596 61.3194 93.9845ZM60.6118 96.8565C60.1123 97.5433 59.8209 97.6474 59.8209 97.1895C59.8209 96.8981 60.5702 96.2322 60.924 96.2322C61.0072 96.2322 60.8823 96.5027 60.6118 96.8565ZM110.372 98.1052C110.144 100.727 110.164 108.345 110.393 110.488C110.955 115.545 112.35 120.27 114.556 124.682L115.929 127.429L114.056 129.448C111.892 131.778 111.913 131.778 111.517 128.698L111.247 126.721L111.975 126.139C112.703 125.514 112.807 125.16 112.558 123.912C112.37 123.058 111.642 122.746 110.56 123.038C109.831 123.204 109.769 123.204 109.769 122.788C109.769 122.559 109.915 121.955 110.102 121.477C110.435 120.623 110.435 120.519 109.998 119.354C109.769 118.688 109.561 117.772 109.561 117.335C109.561 115.483 108.333 112.923 107.292 112.569C107.105 112.507 106.772 112.32 106.564 112.153C106.168 111.862 106.189 111.82 106.751 111.008C107.334 110.176 107.334 110.155 107.001 109.427C106.543 108.469 106.564 107.387 107.063 105.91C107.563 104.474 107.584 103.704 107.167 102.892C106.876 102.309 106.897 102.247 108.146 100.353C108.853 99.2915 109.644 97.9179 109.935 97.3144C110.206 96.7108 110.456 96.2322 110.477 96.2738C110.518 96.3154 110.456 97.1271 110.372 98.1052ZM57.1154 100.457C57.1154 100.499 56.72 100.852 56.2413 101.227L55.3464 101.914L56.054 101.165C56.6784 100.499 57.1154 100.207 57.1154 100.457ZM56.7408 103.35C56.5951 103.495 56.4911 103.516 56.4911 103.391C56.4911 103.1 56.7408 102.85 56.8865 102.996C56.9281 103.058 56.8657 103.225 56.7408 103.35ZM59.4047 110.904C59.4047 110.946 59.1966 111.092 58.9468 111.217C58.489 111.445 58.489 111.425 58.8636 111.133C59.3006 110.78 59.4047 110.738 59.4047 110.904ZM60.6534 110.863C60.6534 110.904 60.4037 111.154 60.0915 111.445L59.5088 111.945L60.0082 111.362C60.4869 110.842 60.6534 110.696 60.6534 110.863ZM58.3641 111.279C58.3641 111.321 58.156 111.529 57.9063 111.758L57.4276 112.153L57.823 111.674C58.1976 111.237 58.3641 111.113 58.3641 111.279ZM57.2195 111.82C57.157 111.945 56.8865 112.153 56.6368 112.278C56.1997 112.507 56.1997 112.486 56.6784 111.966C57.157 111.445 57.5108 111.362 57.2195 111.82ZM57.3652 112.923C57.2195 113.069 57.1154 113.09 57.1154 112.965C57.1154 112.673 57.3652 112.424 57.5108 112.569C57.5525 112.632 57.49 112.798 57.3652 112.923ZM59.1966 112.986C59.0509 113.152 58.8428 113.298 58.7387 113.298C58.6139 113.298 58.6347 113.152 58.7804 112.986C58.926 112.819 59.1342 112.673 59.2382 112.673C59.3631 112.673 59.3423 112.819 59.1966 112.986ZM58.2184 113.423C58.0728 113.485 58.0311 113.672 58.0936 113.839C58.156 114.026 57.9895 114.193 57.6357 114.338C56.8449 114.63 56.7408 114.442 57.4692 114.047C57.7814 113.88 57.9687 113.735 57.8855 113.714C57.7814 113.714 57.7814 113.61 57.8438 113.506C57.9063 113.381 58.0936 113.298 58.2184 113.319C58.4057 113.319 58.4057 113.36 58.2184 113.423ZM60.8615 114.442C60.8615 114.609 59.9458 115.379 59.7377 115.379C59.6128 115.379 59.8001 115.15 60.1331 114.859C60.7991 114.318 60.8615 114.276 60.8615 114.442ZM68.9781 140.228C68.9781 140.852 68.874 141.435 68.7491 141.498C68.4994 141.664 68.7075 143.308 69.0405 143.495C69.1446 143.579 69.2902 144.12 69.3527 144.703C69.4359 145.66 69.3943 145.826 68.7908 146.492C67.9791 147.429 67.9583 148.22 68.6867 148.969C68.9989 149.26 69.3319 149.51 69.4151 149.51C69.5192 149.51 69.6024 149.739 69.6024 150.03C69.6024 150.592 69.9146 150.738 70.1019 150.238C70.31 149.656 70.643 149.926 70.643 150.717C70.643 151.133 70.7262 151.799 70.8511 152.195C70.9552 152.569 71.1425 153.589 71.2673 154.463C71.4547 155.837 71.4338 156.066 71.1425 156.419C70.6846 156.898 70.4349 156.898 70.4349 156.399C70.4349 156.191 70.2892 155.899 70.1227 155.753C69.9562 155.608 69.8105 155.379 69.8105 155.233C69.8105 155.067 69.5816 154.671 69.2902 154.338C68.9989 153.985 68.7699 153.443 68.7699 153.11C68.7699 152.049 68.3745 151.113 67.5629 150.259C66.2934 148.927 65.8771 148.032 66.002 146.971C66.0852 146.388 66.2934 145.91 66.6263 145.577C67.0218 145.202 67.1258 144.931 67.0426 144.453C67.001 144.099 67.1258 143.433 67.3131 142.975C67.5212 142.496 67.8542 141.435 68.0624 140.603C68.541 138.771 68.9781 138.584 68.9781 140.228ZM102.069 153.652C102.069 154.213 101.632 155.337 101.423 155.337C101.153 155.337 101.195 153.797 101.486 153.506C101.84 153.152 102.069 153.194 102.069 153.652ZM103.567 159.291C103.983 159.291 104.004 159.312 103.817 159.791C103.713 160.082 103.65 160.082 103.192 159.77C102.922 159.604 102.693 159.312 102.693 159.125C102.693 158.875 102.755 158.854 102.943 159.042C103.088 159.187 103.359 159.291 103.567 159.291ZM103.796 160.603C103.858 160.769 103.817 161.019 103.713 161.185C103.588 161.393 103.525 161.331 103.525 160.894C103.525 160.29 103.629 160.166 103.796 160.603ZM105.19 165.181C105.565 166.347 105.294 166.367 104.899 165.202C104.524 164.078 104.504 163.912 104.753 164.182C104.857 164.307 105.045 164.744 105.19 165.181ZM117.469 166.638C117.469 166.909 117.324 167.304 117.157 167.533C116.824 167.991 116.824 167.991 116.782 166.929C116.741 166.326 116.824 166.159 117.115 166.159C117.344 166.159 117.469 166.326 117.469 166.638ZM106.959 167.928C107.75 168.24 107.854 168.365 108.25 169.614C108.541 170.488 108.603 170.884 108.437 170.759C108.291 170.634 108.104 170.592 108.021 170.675C107.958 170.759 107.75 170.613 107.563 170.363C107.376 170.093 107.084 169.926 106.918 169.947C106.689 169.989 106.46 169.614 106.127 168.615C105.44 166.617 105.336 166.139 105.752 166.929C105.981 167.387 106.377 167.72 106.959 167.928ZM108.354 172.653C108.208 172.798 108.104 172.819 108.104 172.694C108.104 172.403 108.354 172.153 108.499 172.299C108.541 172.361 108.479 172.528 108.354 172.653ZM108.895 173.423C108.957 173.589 108.874 173.672 108.708 173.61C108.562 173.568 108.395 173.402 108.354 173.256C108.291 173.09 108.375 173.006 108.541 173.069C108.687 173.11 108.853 173.277 108.895 173.423ZM108.812 175.004C108.874 175.171 108.832 175.316 108.728 175.316C108.603 175.316 108.52 175.171 108.52 175.004C108.52 174.838 108.562 174.692 108.603 174.692C108.645 174.692 108.728 174.838 108.812 175.004ZM109.665 176.773C109.727 176.877 109.686 176.981 109.582 176.981C109.457 176.981 109.353 176.877 109.353 176.773C109.353 176.648 109.394 176.565 109.436 176.565C109.498 176.565 109.602 176.648 109.665 176.773ZM110.518 180.103C110.789 180.582 111.018 181.102 111.018 181.269C111.018 181.435 111.163 181.56 111.33 181.56C111.58 181.56 111.642 181.851 111.642 182.996C111.642 184.265 111.58 184.453 111.226 184.578C110.643 184.765 109.977 185.681 109.956 186.326C109.956 186.804 109.915 186.763 109.644 186.055C109.353 185.244 109.311 184.723 109.394 183.017C109.478 181.081 109.457 179.978 109.269 179.291C109.103 178.605 109.103 178.584 109.561 178.917C109.831 179.104 110.248 179.645 110.518 180.103ZM112.474 190.114C112.474 190.238 112.391 190.259 112.266 190.197C112.162 190.134 112.058 189.968 112.058 189.864C112.058 189.739 112.162 189.718 112.266 189.781C112.391 189.843 112.474 190.009 112.474 190.114ZM88.541 261.31C88.541 261.581 88.437 261.935 88.3329 262.101C88.1664 262.351 88.1248 262.33 88.1248 261.955C88.1248 261.706 88.0624 261.373 87.9999 261.185C87.9167 260.956 87.9791 260.852 88.208 260.852C88.4162 260.852 88.541 261.019 88.541 261.31ZM48.0415 262.476C48.104 262.892 48.0832 263.62 47.9999 264.078C47.8334 264.89 47.8334 264.869 47.5837 263.287C47.2715 261.206 47.2715 261.165 47.6253 261.456C47.7918 261.602 47.9791 262.059 48.0415 262.476ZM57.5108 274.734L57.5317 276.024L56.8865 275.795C56.3246 275.608 56.283 275.525 56.4078 274.921C56.4703 274.567 56.6784 273.901 56.8657 273.464C57.1362 272.757 57.2195 272.694 57.3443 273.048C57.4276 273.256 57.5108 274.026 57.5108 274.734ZM86.6472 276.087C86.668 276.191 86.5847 276.253 86.4599 276.253C86.3558 276.253 86.2517 276.003 86.2726 275.67C86.2726 275.171 86.2934 275.15 86.4599 275.525C86.5639 275.754 86.6472 276.003 86.6472 276.087ZM44.3163 278.126C44.1289 278.709 43.8792 279.167 43.7752 279.167C43.4838 279.167 43.5462 278.771 44.0457 277.294C44.4411 276.191 44.5452 276.045 44.5868 276.524C44.6284 276.836 44.5036 277.564 44.3163 278.126Z" fill="black"/>
            <path d="M52.9738 102.954C52.7032 103.391 52.724 103.391 53.0778 103.058C53.2859 102.85 53.4108 102.642 53.3484 102.6C53.2859 102.538 53.1194 102.705 52.9738 102.954Z" fill="black"/>
            <path d="M52.3913 103.766C52.0791 104.183 51.871 104.557 51.9751 104.557C52.0375 104.557 52.2248 104.328 52.4121 104.037C52.7659 103.496 52.7451 103.308 52.3913 103.766Z" fill="black"/>
            <path d="M57.7396 106.222C57.6147 106.451 57.5731 106.638 57.6147 106.638C57.6772 106.638 57.8229 106.451 57.9477 106.222C58.0726 105.993 58.1142 105.806 58.0726 105.806C58.0102 105.806 57.8645 105.993 57.7396 106.222Z" fill="black"/>
            <path d="M50.7888 107.366C50.6015 107.907 50.6431 108.032 50.8928 107.616C51.0177 107.408 51.0801 107.179 51.0177 107.137C50.9761 107.075 50.872 107.179 50.7888 107.366Z" fill="black"/>
            <path d="M51.413 111.112C51.2257 111.653 51.2674 111.778 51.5171 111.362C51.642 111.154 51.7044 110.925 51.642 110.883C51.6003 110.821 51.4963 110.925 51.413 111.112Z" fill="black"/>
        </g>
    </g>
    <defs>
        <filter id="filter0_d" x="10.4973" y="36.2495" width="200.2" height="274.294" filterUnits="userSpaceOnUse" color-interpolation-filters="sRGB">
            <feFlood flood-opacity="0" result="BackgroundImageFix"/>
            <feColorMatrix in="SourceAlpha" type="matrix" values="0 0 0 0 0 0 0 0 0 0 0 0 0 0 0 0 0 0 127 0"/>
            <feOffset dx="10"/>
            <feGaussianBlur stdDeviation="5"/>
            <feColorMatrix type="matrix" values="0 0 0 0 1 0 0 0 0 0.313726 0 0 0 0 0 0 0 0 1 0"/>
            <feBlend mode="normal" in2="BackgroundImageFix" result="effect1_dropShadow"/>
            <feBlend mode="normal" in="SourceGraphic" in2="effect1_dropShadow" result="shape"/>
        </filter>
        <clipPath id="clip0">
            <rect x="8" y="39" width="200" height="266.389" fill="white"/>
        </clipPath>
    </defs>
</svg>
