<svg width="338" height="322" viewBox="0 0 338 322" fill="none" xmlns="http://www.w3.org/2000/svg">
    <rect x="0.5" y="22.5" width="299" height="299" fill="white" stroke="#F7931A"/>
    <rect x="188.5" y="0.5" width="149" height="151" fill="white" stroke="#F7931A"/>
    <path d="M217.044 312V310.956C218.004 310.5 218.988 310.212 219.996 310.092V288.744C219.516 288.648 219.024 288.528 218.52 288.384C218.016 288.216 217.524 288.036 217.044 287.844V286.8H220.86C221.316 286.8 221.748 286.788 222.156 286.764C222.588 286.74 223.032 286.716 223.488 286.692C223.944 286.668 224.436 286.644 224.964 286.62C225.492 286.596 226.092 286.584 226.764 286.584C227.724 286.584 228.696 286.668 229.68 286.836C230.688 286.98 231.588 287.268 232.38 287.7C233.196 288.132 233.856 288.744 234.36 289.536C234.864 290.304 235.116 291.312 235.116 292.56C235.116 293.184 235.02 293.808 234.828 294.432C234.636 295.056 234.336 295.644 233.928 296.196C233.544 296.724 233.052 297.192 232.452 297.6C231.852 298.008 231.144 298.308 230.328 298.5V298.644C231.048 298.764 231.756 298.968 232.452 299.256C233.172 299.544 233.808 299.94 234.36 300.444C234.912 300.924 235.356 301.524 235.692 302.244C236.052 302.964 236.232 303.828 236.232 304.836C236.232 306.132 235.944 307.248 235.368 308.184C234.792 309.12 234.036 309.888 233.1 310.488C232.188 311.088 231.144 311.532 229.968 311.82C228.792 312.084 227.604 312.216 226.404 312.216C225.564 312.216 224.616 312.18 223.56 312.108C222.504 312.036 221.484 312 220.5 312H217.044ZM226.656 310.344C227.52 310.344 228.324 310.212 229.068 309.948C229.836 309.684 230.484 309.324 231.012 308.868C231.564 308.388 231.996 307.824 232.308 307.176C232.62 306.504 232.776 305.784 232.776 305.016C232.776 304.056 232.584 303.264 232.2 302.64C231.84 301.992 231.336 301.488 230.688 301.128C230.064 300.744 229.332 300.48 228.492 300.336C227.676 300.192 226.824 300.12 225.936 300.12H223.236V310.056C223.572 310.152 223.968 310.224 224.424 310.272C224.904 310.32 225.648 310.344 226.656 310.344ZM225.036 298.248C225.444 298.248 225.924 298.236 226.476 298.212C227.052 298.164 227.52 298.116 227.88 298.068C228.984 297.684 229.884 297.072 230.58 296.232C231.3 295.368 231.66 294.36 231.66 293.208C231.66 291.624 231.18 290.436 230.22 289.644C229.284 288.852 228.024 288.456 226.44 288.456C225.696 288.456 225.06 288.468 224.532 288.492C224.004 288.516 223.572 288.552 223.236 288.6V298.248H225.036ZM257.84 305.448H258.776C258.896 306.12 259.004 306.972 259.1 308.004C259.196 309.012 259.22 309.996 259.172 310.956C258.812 311.244 258.38 311.484 257.876 311.676C257.372 311.844 256.832 311.988 256.256 312.108C255.704 312.228 255.128 312.312 254.528 312.36C253.952 312.408 253.4 312.432 252.872 312.432C250.856 312.432 249.056 312.18 247.472 311.676C245.888 311.148 244.544 310.356 243.44 309.3C242.36 308.244 241.52 306.9 240.92 305.268C240.344 303.612 240.056 301.656 240.056 299.4C240.056 297.048 240.38 295.056 241.028 293.424C241.676 291.768 242.552 290.424 243.656 289.392C244.76 288.336 246.044 287.568 247.508 287.088C248.972 286.608 250.508 286.368 252.116 286.368C253.7 286.368 255.032 286.476 256.112 286.692C257.192 286.884 258.14 287.184 258.956 287.592C258.956 287.976 258.944 288.432 258.92 288.96C258.896 289.464 258.86 290.004 258.812 290.58C258.764 291.156 258.704 291.72 258.632 292.272C258.56 292.824 258.488 293.328 258.416 293.784H257.48L255.608 288.6C255.344 288.456 254.9 288.36 254.276 288.312C253.676 288.264 253.076 288.24 252.476 288.24C251.276 288.24 250.136 288.468 249.056 288.924C248 289.356 247.064 290.04 246.248 290.976C245.456 291.888 244.82 293.052 244.34 294.468C243.86 295.86 243.62 297.504 243.62 299.4C243.62 301.104 243.836 302.652 244.268 304.044C244.7 305.412 245.324 306.588 246.14 307.572C246.956 308.532 247.952 309.276 249.128 309.804C250.304 310.308 251.636 310.56 253.124 310.56C253.916 310.56 254.576 310.5 255.104 310.38C255.632 310.26 255.98 310.104 256.148 309.912L257.84 305.448ZM271.468 312H262.36V310.956C263.32 310.572 264.304 310.284 265.312 310.092V288.744C264.184 288.576 263.2 288.276 262.36 287.844V286.8H271.468V287.844C271.06 288.06 270.628 288.24 270.172 288.384C269.716 288.528 269.248 288.648 268.768 288.744V298.14H280.072V288.744C279.568 288.624 279.088 288.492 278.632 288.348C278.2 288.204 277.78 288.036 277.372 287.844V286.8H286.48V287.844C286.048 288.084 285.568 288.276 285.04 288.42C284.536 288.54 284.032 288.648 283.528 288.744V310.092C284.08 310.188 284.608 310.308 285.112 310.452C285.616 310.596 286.072 310.764 286.48 310.956V312H277.372V310.956C278.236 310.572 279.136 310.284 280.072 310.092V300.012H268.768V310.092C269.248 310.188 269.716 310.308 270.172 310.452C270.628 310.596 271.06 310.764 271.468 310.956V312Z" fill="#001322"/>
    <path d="M263 151C304.421 151 338 117.421 338 76C338 34.5786 304.421 1 263 1C221.579 1 188 34.5786 188 76C188 117.421 221.579 151 263 151Z" fill="#F7931A"/>
    <path d="M287.375 50.3594C283.766 41.125 274.672 40.2812 264.031 42.3906L260.281 29.125L252.219 31.4688L255.922 44.2656L249.5 46.1875L245.797 33.25L237.828 35.5938L241.578 48.7188L236.469 50.3125V50.2656L225.406 53.4063L227.844 61.9844C227.844 61.9844 233.75 60.1562 233.703 60.2969C236.938 59.3594 238.531 60.9531 239.328 62.5L243.641 77.5L244.484 77.3594L243.641 77.5938L249.688 98.6406C249.828 99.7188 249.688 101.5 247.438 102.156C247.531 102.203 241.578 103.844 241.578 103.844L242.75 113.875L253.156 110.875L258.922 109.281L262.766 122.594L270.734 120.297L266.984 107.125C269.131 106.554 271.272 105.961 273.406 105.344L277.156 118.469L285.219 116.172L281.375 102.859C294.641 98.2188 303.125 92.0781 300.688 79.0938C298.672 68.6406 292.578 65.4531 284.422 65.8281C288.359 62.0781 290.047 57.1094 287.422 50.3594H287.375ZM284.375 82.0937C287.188 92.0781 269.844 95.8281 264.406 97.4219L259.344 79.75C264.781 78.1562 281.375 71.7344 284.375 82.0937ZM273.5 58.2344C276.078 67.3281 261.547 70.3281 257 71.6406L252.406 55.6094C256.953 54.3437 270.781 48.8125 273.5 58.2813V58.2344Z" fill="white"/>
    <g clip-path="url(#clip0)">
        <g filter="url(#filter0_d)">
            <path d="M108.312 81.3827C108.312 81.6749 108.433 82.4312 108.587 83.1015C108.742 83.7546 108.862 84.4765 108.845 84.6827C108.828 85.2327 109.928 87.9999 110.925 89.9249C112.025 92.039 113.555 93.9812 115.325 95.4937C116.648 96.6281 117.026 97.0921 116.476 96.8687C116.27 96.7999 116.219 97.0062 116.201 98.1062C116.15 100.908 116.236 101.234 117.147 101.234C117.765 101.234 118.797 101.801 118.797 102.162C118.797 102.283 118.969 102.592 119.158 102.85C119.364 103.108 119.501 103.331 119.467 103.366C119.244 103.555 118.126 103.812 117.594 103.812C116.717 103.812 116.047 104.362 116.047 105.067C116.047 105.755 116.872 107.216 117.611 107.834C117.903 108.092 118.126 108.316 118.092 108.35C118.058 108.384 117.68 108.35 117.25 108.298C116.287 108.144 115.651 108.35 115.359 108.883C115.239 109.123 115.067 109.312 115.015 109.312C114.775 109.312 114.036 110.601 114.087 110.928C114.105 111.1 113.95 111.53 113.726 111.873C113.211 112.63 112.901 114.022 113.039 114.795L113.142 115.362L113.572 114.967C114.122 114.451 114.122 114.83 113.555 115.895C113.159 116.617 113.125 116.841 113.228 117.786L113.331 118.851L112.678 117.872C112.3 117.339 111.544 116.273 110.976 115.517C110.409 114.744 109.567 113.592 109.086 112.939C107.144 110.258 105.356 108.092 103.947 106.734C103.122 105.926 101.815 104.655 101.042 103.898C100.269 103.142 99.1342 102.162 98.5155 101.716C96.4014 100.203 91.8811 95.1499 89.6467 91.8156C88.9764 90.8187 88.7186 90.8015 88.0311 91.7812C87.7217 92.228 87.6874 92.4343 87.7733 93.2421C87.842 93.7577 87.8592 94.1874 87.8077 94.1874C87.7389 94.1874 87.3092 94.0327 86.828 93.8437C86.3467 93.6546 85.8999 93.4999 85.8139 93.4999C85.5389 93.4999 84.0436 95.0984 83.803 95.6655C83.5795 96.1812 83.5795 96.3187 83.8202 96.7655C84.2499 97.6077 83.9233 97.7624 83.2874 97.0405L82.7202 96.4046L81.2936 97.8827C79.4374 99.8249 78.3374 101.784 77.9764 103.83C77.7014 105.325 77.6499 107.387 77.8217 108.487C77.9249 109.106 77.942 109.106 78.3202 108.866C78.5952 108.694 78.7499 108.659 78.8358 108.78C78.8874 108.883 79.0936 108.969 79.2827 108.969C79.4717 108.969 79.7467 109.175 79.9014 109.45C80.0561 109.725 80.3483 110.017 80.5374 110.103C81.1217 110.361 81.0186 110.584 80.0733 111.014L79.1795 111.426L77.6327 111.048C76.7905 110.825 75.467 110.481 74.728 110.241C73.9889 110.017 73.3186 109.862 73.267 109.914C73.1983 109.948 72.6139 109.828 71.9608 109.639C71.2905 109.45 70.2936 109.261 69.7264 109.226C68.6608 109.158 66.9764 108.866 66.7186 108.711C66.5295 108.591 64.8795 108.264 64.1405 108.195C60.3249 107.869 56.5092 107.8 56.1655 108.092C55.9764 108.247 54.3092 108.47 53.0545 108.505C50.253 108.591 36.3311 107.903 35.9358 107.68C35.867 107.628 34.9733 107.439 33.942 107.267C32.928 107.078 30.9342 106.562 29.5077 106.133C26.6545 105.239 25.9499 105.05 23.0624 104.397C19.8655 103.692 17.5108 103.245 16.8749 103.228C16.3249 103.211 16.2561 103.262 16.1186 103.83C15.8092 105.084 17.0296 106.545 19.0577 107.353C19.4702 107.508 19.7967 107.68 19.7967 107.748C19.7967 107.8 18.8514 107.817 17.6999 107.8C15.1046 107.714 14.3999 107.903 13.9702 108.78C13.4374 109.811 13.403 110.12 13.6952 110.756C14.0046 111.392 15.4483 112.234 16.978 112.664L17.8202 112.887L16.5311 112.819C15.8264 112.784 14.8124 112.716 14.2967 112.664C13.2139 112.578 12.8874 112.75 12.4749 113.626C12.3202 113.953 12.028 114.537 11.8217 114.95C11.5296 115.5 11.4608 115.93 11.478 116.772C11.5124 118.164 11.5811 118.267 12.2342 118.026C12.6124 117.889 12.8014 117.889 12.9389 118.026C13.0936 118.181 12.9561 118.267 12.4233 118.422C11.6327 118.628 11.5124 118.8 11.1514 120.192C10.9108 121.069 10.9108 121.292 11.1342 122.031C11.2717 122.478 11.5124 123.028 11.7014 123.251C12.028 123.647 12.1655 123.681 13.8155 123.767C14.9155 123.819 14.9327 123.939 13.9014 124.455C13.5061 124.661 13.0077 124.919 12.8014 125.022C12.3889 125.228 12.0624 125.812 12.0624 126.328C12.0624 126.844 12.8358 128.442 13.2655 128.786C14.2967 129.645 14.6921 129.766 16.2733 129.766C18.0952 129.766 19.6077 129.542 20.3467 129.164C20.6389 129.026 20.9827 128.906 21.1202 128.906C21.2405 128.906 21.3436 128.837 21.3436 128.751C21.3436 128.58 22.6842 128.201 23.6467 128.116L24.3171 128.047L23.4749 128.7C22.9936 129.044 22.4264 129.525 22.1858 129.748C21.9624 129.955 21.5842 130.264 21.3436 130.436C20.9311 130.694 20.6389 130.934 19.8655 131.605C19.5217 131.897 19.1092 132.842 19.1092 133.323C19.1092 133.444 19.3499 133.701 19.6592 133.891C20.3811 134.337 21.9452 134.526 25.2108 134.578C26.7577 134.595 27.0327 134.63 26.7749 134.801C26.5858 134.922 26.3108 135.128 26.1389 135.3C25.9842 135.455 25.7092 135.609 25.5374 135.644C25.3655 135.678 25.0905 135.936 24.9186 136.245C24.5921 136.778 24.5921 136.795 24.953 137.483C25.1421 137.878 25.228 138.187 25.1249 138.187C25.0389 138.187 25.1936 138.566 25.4858 139.047C25.778 139.511 26.1217 139.906 26.2592 139.906C26.3967 139.906 26.4999 139.975 26.4999 140.078C26.4999 140.164 26.6546 140.25 26.8436 140.25C27.0327 140.25 27.1874 140.353 27.1874 140.491C27.1874 140.628 27.3592 140.731 27.5827 140.731C27.7889 140.731 28.2702 140.817 28.6483 140.92C29.0264 141.023 29.4561 141.058 29.6108 141.006C29.8686 140.937 29.903 141.092 29.8858 142.209C29.8514 143.876 30.1608 144.323 31.5702 144.753C32.103 144.925 32.6358 145.011 32.7389 144.942C32.842 144.873 33.2374 144.839 33.6327 144.873C34.028 144.891 34.5608 144.822 34.8186 144.719L35.2999 144.547L34.853 145.269C34.1483 146.472 33.7014 147.451 33.5983 148.087C33.5124 148.603 33.5467 148.706 33.8733 148.792C34.0624 148.844 34.2342 148.947 34.2342 149.05C34.2342 149.291 32.9108 150.562 32.653 150.562C32.4639 150.562 32.4639 150.597 32.653 150.717C32.842 150.82 32.8249 150.906 32.6014 151.147C32.3436 151.405 32.3436 151.439 32.6014 151.525C32.7561 151.594 33.0655 151.542 33.2889 151.422C33.6155 151.25 33.753 151.25 33.9592 151.405C34.1655 151.576 34.4405 151.525 35.4202 151.112C36.0905 150.82 36.6405 150.648 36.6405 150.734C36.6405 150.855 34.6467 153.244 33.667 154.258C33.0483 154.911 32.2749 156.406 32.4639 156.578C32.6874 156.801 35.8155 156.458 36.3827 156.166C36.6749 156.011 37.0702 155.891 37.2936 155.891C37.517 155.891 37.8952 155.787 38.153 155.65C38.9436 155.237 39.8889 155.031 39.803 155.289C39.7514 155.409 39.528 155.598 39.2874 155.736C38.8233 155.976 37.8436 157.111 37.8436 157.386C37.8436 157.472 37.3967 157.85 36.8467 158.245C36.142 158.744 35.7639 158.898 35.5749 158.795C35.3858 158.692 35.128 158.83 34.6639 159.242C34.303 159.569 33.8733 159.844 33.7014 159.844C33.5295 159.844 33.2717 160.016 33.1342 160.222C32.9795 160.428 32.7561 160.617 32.6358 160.634C32.3264 160.669 31.6561 161.236 31.6561 161.442C31.6561 161.528 31.467 161.751 31.2264 161.941C30.9858 162.13 30.8311 162.353 30.8827 162.439C30.9514 162.525 30.8999 162.594 30.7795 162.594C30.6592 162.594 30.6249 162.645 30.6764 162.714C30.7452 162.766 30.7108 162.92 30.6077 163.041C30.4874 163.195 30.5217 163.281 30.7795 163.367C30.9858 163.419 31.1405 163.556 31.1405 163.642C31.1405 163.745 31.4155 163.762 31.7936 163.711L32.4295 163.608L31.9999 163.951C31.4842 164.364 31.8452 164.33 32.6874 163.9L33.2889 163.573L32.8592 164.055C32.6186 164.33 32.5327 164.484 32.6702 164.398C32.8077 164.33 32.9624 164.364 33.0483 164.501C33.1514 164.656 33.2545 164.673 33.3233 164.57C33.4092 164.467 33.6499 164.244 33.8905 164.055L34.3202 163.711L33.9936 164.106C33.7186 164.416 33.7014 164.536 33.8733 164.708C34.028 164.862 34.1483 164.828 34.4061 164.484C34.6467 164.192 34.7499 164.141 34.7499 164.312C34.7499 164.467 34.6811 164.656 34.5952 164.742C34.5092 164.845 34.578 165.12 34.767 165.43C34.9389 165.705 35.0936 165.842 35.0936 165.722C35.0936 165.309 35.4202 165.533 35.5233 166.031C35.6264 166.461 35.6952 166.547 35.9874 166.444C36.2795 166.358 36.3311 166.392 36.2452 166.616C36.142 166.856 36.1936 166.891 36.4686 166.805C36.6749 166.736 36.8124 166.77 36.8124 166.891C36.8124 166.994 36.8983 167.028 36.9842 166.976C37.0874 166.925 37.1561 167.045 37.1561 167.251C37.1561 167.561 37.1905 167.578 37.4139 167.406C37.6374 167.234 37.6717 167.251 37.6717 167.578C37.6717 167.887 37.7233 167.922 37.9124 167.767C38.1014 167.612 38.1874 167.612 38.2733 167.767C38.3764 167.905 38.4452 167.887 38.5483 167.733C38.6686 167.544 38.703 167.578 38.703 167.819C38.703 168.162 38.703 168.162 38.9608 167.819C39.2014 167.509 39.2014 167.509 39.2186 167.922C39.2358 168.317 39.253 168.334 39.4592 168.042C39.5795 167.887 39.7342 167.75 39.803 167.75C39.8545 167.75 39.9061 167.887 39.9061 168.042C39.9233 168.283 39.9577 168.266 40.1467 167.956C40.3358 167.595 40.3874 167.595 40.5764 167.819C40.7139 167.973 40.7483 168.283 40.6795 168.592C40.5764 169.056 40.6452 169.142 41.2639 169.537C41.642 169.795 42.0374 169.984 42.1405 169.984C42.2436 169.984 42.5702 170.105 42.8624 170.259C43.2577 170.466 43.4295 170.483 43.5155 170.328C43.7561 169.933 44.8045 170.431 45.7842 171.428C46.317 171.961 46.867 172.391 47.0217 172.391C47.228 172.391 47.2452 172.528 47.1764 173.026C47.0389 173.834 46.678 174.126 45.3202 174.522C44.392 174.78 44.1858 174.917 43.9624 175.381C43.8249 175.691 43.7389 176.086 43.7905 176.275C43.8764 176.567 43.7045 176.722 42.9483 177.117C42.4327 177.392 42.0374 177.701 42.0717 177.805C42.192 178.097 43.567 178.406 44.2545 178.286C44.5983 178.234 45.0108 178.251 45.1827 178.303C45.4405 178.406 45.3889 178.509 44.8045 179.025C43.3436 180.297 42.3124 181.019 41.6936 181.191C41.3499 181.276 40.7483 181.551 40.3874 181.775C39.8717 182.101 39.7342 182.291 39.7342 182.686C39.7342 182.978 39.6483 183.408 39.5624 183.666C39.4592 183.923 39.4249 184.267 39.4936 184.405C39.5624 184.559 39.6311 184.714 39.6483 184.766C39.803 185.367 39.992 185.608 40.3014 185.659C40.5077 185.694 40.6795 185.831 40.6795 185.969C40.6795 186.158 40.8514 186.226 41.2467 186.209C41.6249 186.192 41.7967 186.261 41.7967 186.433C41.7967 186.622 41.8827 186.656 42.1061 186.57C42.9827 186.192 43.1202 186.244 43.2577 187.034C43.4811 188.341 43.4124 188.598 42.5702 189.492C41.1952 190.953 40.353 192.242 40.9889 191.881C41.1608 191.778 41.1608 191.812 40.9889 192.001C40.6967 192.311 40.7139 192.5 41.0233 192.5C41.3155 192.5 41.367 192.775 41.092 192.93C40.9717 193.016 41.0405 193.17 41.2639 193.376C41.7108 193.789 41.7108 193.892 41.2811 194.356C40.9202 194.751 40.817 194.992 41.1092 194.82C41.3842 194.648 41.1264 195.611 40.7999 195.972C40.5592 196.247 40.5764 196.281 40.8686 196.298C41.0405 196.316 41.3842 196.35 41.6249 196.384C41.8655 196.401 42.7077 196.316 43.4983 196.178C44.2889 196.041 44.9592 195.955 45.0108 196.006C45.1483 196.144 44.4264 196.453 43.4811 196.642C42.5186 196.831 41.8827 197.02 40.9889 197.416C40.6967 197.553 40.353 197.656 40.2155 197.656C39.8889 197.673 39.3905 198.43 39.4077 198.894C39.4249 199.117 39.3733 199.77 39.3045 200.355C39.2186 201.042 39.2358 201.437 39.3389 201.437C39.4592 201.437 39.4592 201.712 39.3905 202.159C39.2358 202.933 39.3733 203.431 39.9061 204.187C40.0952 204.445 40.1983 204.703 40.1467 204.755C40.0436 204.858 41.1436 204.772 41.7967 204.617C42.2264 204.531 42.2264 204.531 41.8827 204.823C41.1608 205.442 40.078 207.711 40.078 208.587C40.078 209.086 40.817 209.791 41.728 210.134C42.3639 210.375 42.5702 210.392 42.8967 210.22C43.1202 210.1 43.4467 210.014 43.6186 210.048C43.9967 210.1 45.3889 209.705 45.7155 209.464C45.8358 209.378 45.9733 209.344 46.0249 209.395C46.0936 209.447 45.4577 210.22 44.6327 211.097C42.9999 212.85 42.3639 213.795 42.278 214.586C42.2264 215.084 42.2608 215.101 42.9655 215.153C43.3608 215.187 44.2717 215.05 44.9936 214.844C47.1077 214.276 47.9499 213.795 50.3733 211.801C50.6999 211.544 51.0092 211.32 51.0608 211.32C51.1124 211.32 51.7311 210.856 52.4358 210.289C53.1233 209.722 53.8452 209.172 54.017 209.069C54.2061 208.966 54.5327 208.708 54.7561 208.501C54.9624 208.312 55.2202 208.141 55.3233 208.141C55.4264 208.141 55.5983 208.037 55.7014 207.9C55.942 207.625 57.1795 206.937 57.4374 206.937C57.5405 206.937 57.9358 206.783 58.3483 206.611C59.4655 206.112 60.5827 205.7 60.9608 205.631C61.1499 205.614 61.7686 205.391 62.3358 205.15L63.367 204.72L63.5045 205.356C63.642 206.009 64.742 207.178 65.0342 207.006C65.1202 206.955 65.292 206.989 65.4124 207.092C65.5327 207.195 65.7733 207.247 65.928 207.178C66.117 207.109 66.203 207.161 66.203 207.35C66.203 207.591 66.2717 207.608 66.5467 207.453C66.8217 207.316 66.8905 207.316 66.8905 207.505C66.8905 207.642 67.028 207.797 67.1999 207.831C67.492 207.917 67.5092 208.123 67.4405 210.65C67.303 215.858 67.2686 215.342 67.8186 215.806C68.2655 216.201 68.2827 216.253 68.0249 216.545C67.7327 216.855 67.8014 217.422 68.128 217.422C68.2311 217.422 68.2655 217.542 68.1967 217.68C68.1452 217.817 68.2139 218.023 68.3342 218.144C68.4545 218.264 68.5233 218.453 68.4889 218.556C68.4545 218.659 68.6264 218.848 68.867 218.969C69.2452 219.175 69.2967 219.312 69.2795 219.914C69.2452 220.344 69.3655 220.825 69.5545 221.151C69.7952 221.564 69.8295 221.753 69.6749 221.925C69.5545 222.062 69.5202 222.423 69.5717 222.784C69.6405 223.145 69.6061 223.437 69.4858 223.506C69.3827 223.575 69.2967 223.816 69.2967 224.039C69.2967 224.366 69.3655 224.434 69.6061 224.348C69.8639 224.245 69.8811 224.262 69.6405 224.555C69.3655 224.881 69.3139 225.173 69.228 226.841C69.1764 227.751 69.228 227.958 69.503 228.147C69.8983 228.422 70.9983 227.528 59.7405 236.242C54.4983 240.298 51.542 242.705 50.0639 244.148C47.692 246.451 46.4717 247.878 46.7811 247.981C47.0905 248.084 50.442 246.4 51.817 245.437C52.5045 244.973 56.1827 242.155 59.9983 239.181C63.8139 236.208 67.028 233.819 67.1311 233.853C67.492 234.008 68.4374 235.451 68.4374 235.847C68.4374 236.07 68.317 236.466 68.1795 236.723C68.042 236.998 68.0249 237.153 68.128 237.084C68.2655 236.998 68.2827 237.05 68.2139 237.239C68.1452 237.411 68.042 237.651 67.9733 237.823C67.9045 238.012 67.9217 238.064 68.0592 237.978C68.3342 237.806 68.317 238.098 68.0592 238.373C67.8702 238.545 67.8874 238.562 68.1452 238.476C68.5749 238.305 68.5233 238.734 68.0077 239.422C67.5092 240.109 67.492 240.126 67.8358 240.006C68.1795 239.869 68.1624 240.092 67.8014 240.487C67.5436 240.78 67.5436 240.797 67.8014 240.797C68.1108 240.797 68.1967 241.055 67.9389 241.209C67.7327 241.347 67.7499 243.031 67.9561 243.031C68.042 243.031 68.0936 243.134 68.0764 243.237C68.0249 243.736 68.1108 243.873 68.3858 243.77C68.6436 243.667 68.6436 243.684 68.403 244.028C68.1795 244.355 68.1795 244.526 68.3686 245.3C68.5061 245.798 68.5577 246.348 68.5061 246.52C68.4374 246.744 68.4717 246.812 68.592 246.744C68.8499 246.572 68.8327 248.136 68.5405 249.597C68.403 250.301 68.3858 250.817 68.4889 250.92C68.5749 251.006 68.5749 251.109 68.4545 251.178C68.2139 251.333 68.2139 252.089 68.4374 252.226C68.5405 252.278 68.6092 252.484 68.6092 252.673C68.6092 252.845 68.678 253 68.7639 253C68.867 253 68.9186 253.137 68.9186 253.292C68.867 253.911 71.2045 259.084 72.2358 260.717C72.8202 261.628 73.4045 262.539 73.542 262.762C73.7483 263.089 73.8342 263.123 74.0405 262.951C74.178 262.848 74.2811 262.591 74.2811 262.384C74.2983 262.195 74.4014 261.714 74.5389 261.336C74.6936 260.906 74.728 260.597 74.6249 260.494C74.5217 260.391 74.5561 260.219 74.728 260.012C74.8827 259.858 75.003 259.497 75.003 259.239C74.9858 258.981 75.0717 258.586 75.192 258.362C75.3467 258.053 75.3295 257.933 75.1405 257.812C74.9514 257.692 74.9514 257.623 75.1233 257.4C75.2608 257.245 75.3124 256.953 75.2436 256.712C75.1749 256.455 75.2436 256.231 75.3983 256.094C76.1545 255.475 77.2545 252.811 77.478 251.126C77.5295 250.8 77.667 250.456 77.7874 250.353C77.9077 250.25 78.1139 249.803 78.2342 249.356C78.3545 248.909 78.5608 248.445 78.6811 248.342C78.8186 248.239 78.9217 248.05 78.9217 247.912C78.9217 247.792 79.0764 247.603 79.2655 247.5C79.4374 247.397 79.678 247.019 79.7811 246.641C79.8842 246.262 80.0389 245.953 80.1077 245.953C80.1936 245.953 80.3655 245.695 80.4858 245.386C80.6061 245.094 80.8295 244.698 80.967 244.526C81.3795 244.062 82.1874 242.464 82.1874 242.12C82.1874 241.966 82.2561 241.828 82.342 241.828C82.428 241.828 82.5655 241.57 82.617 241.278C82.6858 240.969 82.8061 240.625 82.8749 240.539C82.9436 240.436 83.0639 240.178 83.1327 239.937C83.2014 239.697 83.9061 238.184 84.6795 236.586C85.5045 234.884 86.1405 233.355 86.192 232.908C86.2436 232.495 86.3811 232.1 86.4842 232.031C86.5874 231.962 86.6905 231.791 86.7249 231.636C86.7764 231.223 87.5499 229.797 87.7217 229.797C87.7905 229.797 87.8592 229.573 87.8592 229.316C87.8592 229.041 87.9795 228.576 88.1342 228.267C88.2889 227.941 88.4436 227.116 88.478 226.308C88.5811 224.211 88.667 223.695 89.2514 221.805C90.1795 218.745 90.2311 218.556 90.1795 217.851C90.1452 217.473 90.0936 216.855 90.0592 216.494L90.0077 215.806L93.1702 213.348C94.9233 211.991 96.4702 210.908 96.6077 210.925C96.8139 210.959 96.917 211.269 97.003 212.094C97.192 213.864 97.2436 214.328 97.3467 214.414C97.5186 214.603 98.6014 213.606 98.6186 213.245C98.6186 213.039 98.7045 212.712 98.8249 212.506C98.928 212.317 99.0655 211.75 99.1342 211.251C99.2545 210.289 99.2889 210.255 100.234 209.636C100.561 209.43 101.094 208.862 101.42 208.398C101.833 207.762 102.09 207.556 102.348 207.591C102.555 207.608 102.915 207.556 103.173 207.47C103.517 207.35 103.689 207.384 103.895 207.573C104.239 207.917 104.823 207.608 104.978 207.023C105.081 206.594 106.112 205.562 106.422 205.562C106.508 205.562 106.783 205.253 107.023 204.875C107.264 204.497 107.573 204.187 107.711 204.187C108.106 204.187 108.69 202.881 108.57 202.297C108.467 201.85 108.605 201.712 110.564 200.166C111.715 199.255 112.798 198.516 112.987 198.516C113.159 198.516 113.812 198.017 114.414 197.398C115.084 196.711 115.651 196.281 115.875 196.281C116.511 196.281 117.078 195.542 117.078 194.666C117.078 194.253 117.026 193.772 116.975 193.617C116.82 193.239 115.995 192.844 115.308 192.844C114.689 192.844 113.812 193.394 113.812 193.772C113.812 194.012 112.901 194.734 112.575 194.734C112.248 194.734 111.062 195.611 111.062 195.851C111.062 196.041 107.986 198.584 107.161 199.083C107.006 199.186 106.955 198.98 106.955 198.309C106.972 197.811 106.92 197.158 106.851 196.883C106.697 196.144 107.47 194.408 109.481 191.056C113.64 184.095 116.115 179.455 116.975 177.031C117.233 176.326 117.542 175.587 117.662 175.398C117.783 175.209 117.937 174.676 118.006 174.23C118.126 173.473 118.161 173.422 118.367 173.714C118.59 174.006 118.608 174.006 118.711 173.714C118.78 173.559 118.797 173.181 118.762 172.906C118.711 172.614 118.745 172.391 118.814 172.391C118.951 172.391 119.312 173.473 119.312 173.886C119.312 173.989 119.381 174.126 119.467 174.195C119.57 174.247 119.605 173.817 119.553 173.078C119.484 172.201 119.519 171.875 119.656 171.875C119.88 171.875 119.828 170.603 119.57 169.641L119.467 169.211L119.725 169.641C119.862 169.881 120.017 170.448 120.086 170.93C120.258 172.391 120.361 172.734 120.55 172.631C120.859 172.442 120.55 170.38 120.069 169.434C119.828 168.97 119.673 168.489 119.708 168.386C119.742 168.266 119.897 168.437 120.069 168.73C120.223 169.039 120.412 169.297 120.498 169.297C120.584 169.297 120.705 169.503 120.773 169.761L120.894 170.242L121.065 169.795C121.186 169.451 121.134 169.056 120.859 168.283C120.43 166.959 120.43 166.873 120.911 167.578C121.289 168.145 121.667 168.248 121.598 167.75C121.564 167.612 121.495 167.2 121.444 166.839C121.323 166.134 121.633 165.928 121.873 166.581C121.959 166.822 122.045 166.873 122.131 166.753C122.372 166.358 122.544 166.547 122.664 167.355C122.784 168.094 122.801 168.128 122.939 167.767C123.025 167.544 123.094 166.805 123.076 166.117C123.059 165.412 123.145 164.708 123.265 164.484L123.489 164.072L123.73 164.57C123.953 164.983 124.022 165.017 124.142 164.776C124.228 164.622 124.228 164.347 124.142 164.089C124.005 163.728 124.09 163.573 124.864 162.8C125.5 162.181 125.912 161.923 126.325 161.872C126.858 161.82 126.926 161.872 127.476 162.92C129.247 166.237 129.9 168.678 129.745 171.359C129.642 173.181 129.23 174.625 128.508 175.639C127.94 176.481 123.781 180.692 123.661 180.572C123.609 180.52 123.403 180.555 123.231 180.658C122.956 180.795 122.905 180.95 122.99 181.345C123.059 181.723 122.939 182.153 122.561 182.926C121.426 185.144 118.745 192.397 117.869 195.594C116.786 199.564 116.717 203.62 117.576 211.922C118.23 218.212 118.384 219.398 119.501 226.273C120.361 231.584 120.361 231.619 120.292 234.781C120.206 238.201 120.017 239.422 119.037 243.031C118.315 245.747 118.126 246.95 117.937 250.216C117.731 253.962 117.989 256.833 119.381 265.805C120.275 271.562 120.395 274.519 119.897 278.73C119.828 279.228 119.88 279.967 119.983 280.397C120.137 281.067 120.12 281.291 119.759 282.253C119.192 283.731 118.883 284.419 117.731 286.55C117.181 287.564 116.734 288.578 116.734 288.819C116.734 289.266 117.13 289.781 117.473 289.781C117.611 289.781 117.594 289.85 117.456 289.987C117.112 290.331 117.215 290.434 118.367 290.795C119.45 291.139 122.664 291.569 123.128 291.431C123.248 291.38 123.558 291.311 123.798 291.259C124.228 291.173 124.744 290.434 124.675 290.005C124.64 289.901 124.812 289.523 125.019 289.162C125.311 288.664 125.414 288.183 125.448 287.289C125.465 286.636 125.603 285.656 125.758 285.141C125.981 284.401 126.015 283.783 125.93 282.287C125.844 280.723 125.878 280.242 126.101 279.709C126.342 279.125 126.359 278.85 126.17 277.647C125.723 274.622 126.445 267.472 127.975 259.531C128.748 255.544 128.851 254.478 128.765 251.023C128.731 249.219 128.697 246.709 128.714 245.437C128.714 243.22 128.748 243.031 129.419 240.969C130.587 237.325 131.034 234.283 131.515 226.445C131.705 223.317 131.945 220.103 132.031 219.295C132.117 218.487 132.272 215.394 132.375 212.42C132.461 209.447 132.581 206.559 132.633 205.992C132.719 205.064 132.564 203.139 132.289 201.833L132.186 201.351L132.444 201.781C132.581 202.039 133.028 202.348 133.526 202.52C134.128 202.744 134.523 203.053 134.97 203.655C135.314 204.101 136.07 204.806 136.637 205.236C137.651 205.975 137.737 206.078 139.095 208.828C140.9 212.489 142.223 214.741 143.959 217.13C145.094 218.694 145.936 220.206 148.239 224.812C149.82 227.975 151.986 232.272 153.051 234.351C154.134 236.431 155.217 238.769 155.475 239.542C156.008 241.123 156.008 241.003 155.234 246.641C155.062 247.912 154.856 249.356 154.805 249.837C154.564 251.78 155.114 254.564 157.297 262.367C159.205 269.173 159.909 272.181 160.305 275.155C160.494 276.598 160.511 277.441 160.356 279.623C160.064 283.439 160.081 285.467 160.39 286.069C160.803 286.894 161.576 287.22 163.347 287.358C164.206 287.409 164.945 287.547 164.98 287.65C165.014 287.77 164.653 287.787 163.794 287.684C162.642 287.564 161.748 287.616 161.353 287.856C161.181 287.942 162.23 288.561 162.59 288.578C162.934 288.578 165.564 289.644 165.478 289.747C165.134 290.073 168.451 291.672 169.93 291.895C170.944 292.05 172.92 291.758 173.419 291.38C173.951 290.984 174.089 290.641 173.728 290.641C173.539 290.641 173.694 290.4 174.158 289.919C174.742 289.3 174.845 289.111 174.759 288.681C174.622 287.994 174.312 287.684 172.955 286.876C170.033 285.141 166.269 279.795 166.011 276.976C165.942 276.409 166.045 273.625 166.234 270.789C166.406 267.953 166.612 264.051 166.664 262.109C166.715 260.167 166.801 257.967 166.836 257.228C166.887 256.489 166.819 253.894 166.664 251.47C166.526 249.047 166.372 244.63 166.355 241.656L166.303 236.242L165.684 234.437C165.358 233.441 164.911 231.584 164.705 230.312C164.206 227.219 162.522 218.092 162.092 216.047C160.648 209.309 158.586 204.514 154.598 198.55C153.447 196.797 152.398 195.061 152.295 194.666C152.175 194.253 152.123 192.981 152.175 191.555C152.226 189.406 152.261 189.097 152.57 188.77C152.88 188.444 154.409 184.508 154.942 182.669C155.165 181.878 155.062 181.775 154.169 181.758C153.756 181.758 153.43 181.672 153.395 181.534C153.344 181.397 153.567 181.328 154.203 181.328C155.32 181.328 155.681 181.139 155.819 180.451C155.922 179.919 155.973 179.987 157.744 182.548C158.758 184.009 159.944 185.711 160.39 186.33C160.837 186.948 161.336 187.705 161.49 187.997C161.8 188.616 161.886 190.145 161.628 190.798C161.525 191.039 161.456 191.52 161.456 191.881C161.456 192.225 161.422 192.551 161.387 192.586C161.25 192.723 159.376 191.366 159.222 191.022C159.067 190.73 158.397 190.317 156.987 189.681C156.764 189.595 156.455 189.303 156.3 189.028C155.905 188.358 155.269 188.134 154.409 188.375C153.412 188.633 153.172 188.942 153.172 189.939C153.172 190.644 153.258 190.867 153.619 191.211C153.876 191.451 154.237 191.641 154.409 191.641C154.873 191.641 155.733 192.173 155.836 192.517C155.939 192.844 157.176 193.703 157.537 193.703C157.675 193.703 158.758 194.373 159.944 195.198C162.006 196.608 162.109 196.711 162.109 197.278C162.109 197.587 162.23 198.069 162.367 198.309C162.625 198.773 164.601 205.941 164.876 207.453C165.134 208.776 165.856 210.1 165.908 209.292C165.908 209.189 165.994 209.275 166.08 209.498C166.165 209.722 166.2 210.048 166.148 210.22C166.097 210.375 166.131 210.564 166.217 210.616C166.32 210.684 166.355 210.822 166.32 210.942C166.269 211.062 166.337 211.681 166.475 212.351C166.75 213.83 166.87 213.589 166.99 211.183C167.094 209.223 167.42 208.02 167.437 209.55C167.437 210.014 167.489 210.375 167.575 210.375C167.644 210.375 167.712 210.633 167.712 210.925C167.73 211.234 167.815 211.922 167.901 212.437L168.056 213.383L168.176 212.609C168.486 210.444 168.623 206.869 168.486 204.617C168.331 202.297 168.365 201.97 168.83 201.953C168.881 201.953 169.156 202.297 169.465 202.726C169.775 203.173 170.359 203.689 170.858 203.964C171.631 204.394 171.734 204.531 171.906 205.27C171.992 205.734 172.164 206.267 172.284 206.473C172.387 206.68 172.49 206.989 172.508 207.144C172.525 207.316 172.576 207.47 172.611 207.505C172.645 207.539 172.903 207.728 173.178 207.934C173.848 208.45 174.037 208.416 173.917 207.797C173.848 207.522 173.883 207.247 173.986 207.178C174.106 207.109 174.158 206.68 174.106 206.078C174.037 205.116 174.055 205.081 174.467 205.098C174.759 205.098 178.025 207.247 184.281 211.544C189.437 215.101 199.681 222.166 207.055 227.253C217.505 234.455 220.908 236.723 222.523 237.531C224.637 238.58 226.047 239.147 226.184 239.009C226.425 238.751 222.867 235.434 220.478 233.681C219.808 233.183 209.512 226.101 197.601 217.937C185.69 209.773 175.67 202.898 175.309 202.658C174.965 202.4 174.656 202.022 174.605 201.764C174.553 201.523 174.244 200.939 173.917 200.458C173.573 199.959 173.281 199.237 173.212 198.808C173.144 198.395 172.989 197.897 172.851 197.725C172.714 197.536 172.594 197.226 172.594 197.02C172.594 196.573 171.665 195.851 171.287 196.006C171.115 196.075 171.064 196.23 171.15 196.522C171.201 196.745 171.184 196.969 171.098 197.02C171.012 197.072 170.376 195.989 169.689 194.597L168.417 192.07L168.365 188.633C168.314 184.783 168.022 181.191 167.317 175.484C166.853 171.737 166.836 171.394 166.887 164.57C166.956 155.426 166.647 151.456 165.186 141.969C164.361 136.641 164.361 136.83 164.258 119.195C164.223 113.661 163.536 108.23 162.986 109.123C162.883 109.278 162.797 109.295 162.728 109.158C162.556 108.883 161.662 108.934 161.422 109.226C161.301 109.364 161.009 109.484 160.786 109.484C160.253 109.484 158.844 110.619 158.844 111.048C158.844 111.237 158.74 111.375 158.62 111.375C158.5 111.375 158.225 111.53 158.019 111.736C157.812 111.925 157.572 112.045 157.486 111.994C157.417 111.942 157.176 112.148 156.953 112.423C156.644 112.853 156.592 113.094 156.678 113.644C156.747 114.022 156.73 114.28 156.644 114.228C156.558 114.176 156.489 114.348 156.472 114.606C156.455 115.156 156.369 115.637 156.18 116.067C156.076 116.308 156.008 116.325 155.819 116.17C155.664 116.033 155.578 116.033 155.578 116.153C155.578 116.256 155.423 116.376 155.251 116.445C155.062 116.497 154.873 116.686 154.822 116.841C154.77 116.995 154.478 117.236 154.169 117.373C153.275 117.769 152.467 118.353 152.244 118.8C152.123 119.006 151.848 119.487 151.659 119.848C151.436 120.244 151.281 120.794 151.281 121.241C151.281 121.756 151.144 122.186 150.851 122.616C150.611 122.959 150.405 123.423 150.405 123.63C150.387 123.922 150.37 123.939 150.301 123.698C150.198 123.32 149.906 123.492 149.906 123.939C149.906 124.386 149.597 124.351 149.511 123.87C149.442 123.492 149.442 123.492 149.408 123.905C149.408 124.128 149.219 124.455 149.03 124.626C148.789 124.833 148.686 125.073 148.755 125.297C148.806 125.486 148.772 125.606 148.686 125.537C148.6 125.486 148.531 125.692 148.531 125.967C148.531 126.5 148.29 126.689 148.136 126.276C148.084 126.173 148.033 126.328 148.033 126.62C148.015 127.187 147.672 127.445 147.672 126.878C147.672 126.637 147.637 126.637 147.517 126.826C147.414 126.981 147.414 127.205 147.517 127.394C147.637 127.6 147.62 127.703 147.483 127.703C147.362 127.703 147.328 127.875 147.38 128.167L147.465 128.648L147.105 128.219C146.778 127.823 146.778 127.875 147.087 128.648C147.139 128.786 147.122 128.906 147.019 128.906C146.915 128.906 146.812 128.803 146.761 128.683C146.726 128.58 146.709 128.855 146.744 129.336C146.778 130.109 146.761 130.161 146.537 129.869C146.262 129.491 146.211 129.628 146.451 130.092C146.555 130.264 146.555 130.487 146.469 130.625C146.348 130.831 146.297 130.831 146.194 130.573C146.005 130.041 145.798 130.264 145.97 130.831C146.159 131.536 146.159 131.536 145.953 131.398C145.695 131.226 145.747 131.433 146.056 131.742C146.211 131.897 146.365 132.258 146.4 132.533C146.434 132.808 146.537 133.186 146.64 133.375C146.933 133.908 146.83 134.011 146.469 133.547L146.142 133.117L146.4 133.873C146.675 134.664 146.589 135.094 146.314 134.389C146.176 134.062 146.159 134.131 146.228 134.75C146.297 135.317 146.28 135.455 146.142 135.266C145.884 134.905 145.884 135.334 146.142 135.816C146.28 136.073 146.28 136.211 146.142 136.348C145.901 136.589 145.592 136.211 145.73 135.85C145.764 135.747 145.712 135.592 145.592 135.506C145.455 135.42 145.42 135.455 145.523 135.609C145.609 135.764 145.558 135.781 145.265 135.695C144.905 135.575 144.905 135.592 145.18 136.022C145.351 136.262 145.403 136.469 145.3 136.469C145.214 136.469 145.076 136.331 145.025 136.176C144.939 135.97 144.87 135.936 144.784 136.073C144.698 136.211 144.578 136.211 144.337 136.022C144.045 135.816 144.028 135.626 144.097 134.2C144.165 132.962 144.148 132.756 144.028 133.289C143.942 133.667 143.89 134.87 143.925 135.953C143.994 137.741 143.994 137.826 143.839 136.812C143.736 136.194 143.615 135.661 143.564 135.609C143.512 135.558 143.461 134.939 143.444 134.234C143.444 133.306 143.478 133.083 143.564 133.461C143.684 133.891 143.701 133.856 143.65 133.237C143.615 132.842 143.65 132.55 143.736 132.619C143.822 132.67 143.89 132.516 143.89 132.292C143.89 132.051 143.994 131.605 144.131 131.295C144.372 130.745 144.372 130.728 144.458 131.141C144.526 131.519 144.526 131.501 144.561 131.037C144.561 130.728 145.128 129.37 145.798 127.995C146.469 126.62 147.07 125.125 147.156 124.661C147.225 124.214 147.294 123.939 147.311 124.076C147.328 124.248 147.38 124.266 147.569 124.111C147.981 123.767 148.359 122.392 148.48 120.914C148.531 120.158 148.651 119.453 148.72 119.35C148.806 119.247 148.892 118.989 148.926 118.748C148.961 118.525 149.081 118.319 149.184 118.319C149.305 118.301 149.528 118.284 149.7 118.267C149.94 118.25 149.889 118.147 149.476 117.803L148.961 117.356L149.528 117.459L150.095 117.562L149.717 117.012C149.494 116.72 149.408 116.531 149.528 116.6C149.648 116.669 149.734 116.651 149.734 116.548C149.734 116.462 149.597 116.291 149.442 116.205C149.27 116.101 149.219 116.016 149.339 116.016C149.459 116.016 149.511 115.895 149.459 115.758C149.39 115.569 149.528 115.431 149.923 115.294L150.508 115.087L149.992 114.984L149.476 114.881L150.164 114.572L150.851 114.28L150.215 114.056C149.494 113.798 148.944 113.334 149.253 113.231C149.545 113.128 149.253 112.75 148.875 112.75C148.617 112.75 148.565 112.647 148.634 112.097C148.686 111.65 148.651 111.53 148.548 111.719C148.445 111.856 148.325 111.908 148.256 111.839C148.187 111.77 148.222 111.616 148.325 111.512C148.445 111.392 148.531 111.169 148.531 110.997C148.531 110.722 148.48 110.705 148.17 110.859C147.895 111.014 147.826 110.997 147.844 110.825C147.895 110.43 147.637 109.828 147.465 109.931C147.362 110 147.345 109.897 147.414 109.656C147.517 109.33 147.483 109.278 147.259 109.364C147.053 109.45 146.864 109.226 146.469 108.47C146.194 107.92 146.022 107.422 146.073 107.353C146.142 107.301 146.073 107.25 145.919 107.25C145.781 107.25 144.99 106.562 144.165 105.703C143.323 104.861 142.584 104.208 142.498 104.259C142.412 104.311 142.395 104.431 142.447 104.534C142.515 104.637 142.464 104.689 142.326 104.637C142.189 104.586 142.103 104.38 142.137 104.139C142.189 103.589 141.862 103.125 140.144 101.32C138.786 99.8937 138.683 99.8249 138.115 99.9109C137.531 100.014 137.531 100.014 137.531 99.3437C137.531 98.8796 137.394 98.5015 137.067 98.1062C136.276 97.1265 135.056 95.9062 134.867 95.9062C134.592 95.9062 133.44 98.3468 132.719 100.495C132.065 102.437 132.014 102.953 132.289 104.62C132.409 105.273 132.272 105.325 131.172 104.93C130.501 104.689 130.467 104.689 130.673 104.964C130.897 105.205 130.862 105.239 130.347 105.153C129.694 105.067 129.694 105.084 130.158 105.548C130.553 105.944 130.467 106.219 130.055 105.875C129.831 105.686 129.814 105.703 129.9 105.944C129.986 106.167 129.883 106.219 129.195 106.219C128.49 106.219 128.405 106.253 128.594 106.476C128.765 106.683 128.748 106.734 128.49 106.734C128.233 106.734 128.215 106.769 128.405 106.889C128.559 106.992 128.576 107.078 128.439 107.147C128.13 107.353 127.975 107.147 127.047 105.428C126.015 103.537 124.159 100.684 122.75 98.828C121.083 96.6452 119.88 94.6687 118.625 92.0905C117.525 89.8562 117.301 89.4952 116.115 88.3437C115.239 87.4843 114.844 87.1921 114.93 87.4327C115.136 88.1374 114.758 87.8452 114.173 86.814C113.589 85.7999 111.63 83.8749 111.183 83.8749C111.045 83.8749 110.805 83.5827 110.65 83.2046C110.392 82.6546 108.467 80.5062 108.69 81.039C108.725 81.1249 108.897 81.5031 109.069 81.864C109.223 82.2421 109.326 82.6202 109.292 82.7234C109.258 82.8437 109.12 82.6202 109 82.2421C108.88 81.864 108.673 81.3999 108.553 81.2109C108.33 80.9015 108.312 80.9015 108.312 81.3827ZM111.99 85.5077L112.094 86.0234L111.75 85.4218C111.355 84.7171 111.303 84.3905 111.647 84.7343C111.767 84.8718 111.922 85.2155 111.99 85.5077ZM115.858 89.8046C115.858 89.8905 115.755 89.7874 115.617 89.5468C115.48 89.3062 115.376 89.0312 115.376 88.9452C115.376 88.8421 115.48 88.9624 115.617 89.203C115.755 89.4437 115.858 89.7015 115.858 89.8046ZM118.608 96.1124C118.608 96.1984 118.47 96.2499 118.298 96.2499C117.955 96.2499 117.215 95.4765 116.665 94.4968C116.39 94.0155 116.494 94.0843 117.456 94.9609C118.075 95.528 118.59 96.0437 118.608 96.1124ZM151.367 123.2C151.315 123.251 151.281 123.2 151.281 123.08C151.281 122.959 151.212 122.925 151.109 122.976C150.903 123.097 150.903 123.028 151.058 122.616C151.161 122.358 151.178 122.375 151.315 122.719C151.401 122.942 151.419 123.148 151.367 123.2ZM123.85 135.128C124.984 136.658 125.311 137.242 125.414 137.844C125.465 138.273 125.569 138.755 125.603 138.909C125.655 139.081 125.603 139.219 125.5 139.219C125.397 139.219 124.812 138.187 124.228 136.933C123.626 135.678 122.939 134.32 122.681 133.925C121.873 132.653 122.372 133.151 123.85 135.128ZM143.083 135.334C143.22 136.211 142.928 135.919 142.773 135.008C142.687 134.561 142.705 134.372 142.808 134.492C142.911 134.578 143.031 134.973 143.083 135.334ZM142.79 136.228C142.739 136.383 142.756 136.434 142.876 136.383C142.98 136.314 143.014 136.434 142.945 136.761C142.859 137.139 142.876 137.191 143.014 136.984C143.169 136.778 143.186 136.847 143.1 137.242C143.031 137.517 142.962 137.792 142.928 137.826C142.79 137.998 142.515 136.881 142.515 136.159C142.533 135.506 142.567 135.42 142.705 135.661C142.808 135.833 142.842 136.091 142.79 136.228ZM144.561 136.348C144.801 136.641 144.973 137.895 144.75 137.758C144.647 137.689 144.578 137.758 144.578 137.878C144.578 138.033 144.526 138.033 144.406 137.844C144.32 137.706 144.234 137.466 144.234 137.328C144.234 137.105 144.251 137.105 144.406 137.328C144.544 137.551 144.578 137.534 144.578 137.276C144.578 137.105 144.458 136.847 144.32 136.709C144.028 136.417 143.976 136.125 144.217 136.125C144.303 136.125 144.458 136.228 144.561 136.348ZM35.3858 159.191C35.3342 159.328 35.2827 159.276 35.2827 159.087C35.2655 158.898 35.317 158.795 35.3686 158.864C35.4202 158.916 35.4374 159.07 35.3858 159.191ZM160.683 170.998C160.94 170.792 160.958 170.792 160.855 171.084C160.751 171.342 160.769 171.376 160.958 171.222C161.095 171.101 161.25 171.067 161.319 171.136C161.37 171.205 161.542 171.101 161.68 170.912C161.903 170.62 161.92 170.655 161.869 171.359C161.834 171.789 161.748 172.855 161.662 173.714C161.594 174.591 161.49 175.312 161.439 175.312C161.37 175.312 161.215 175.02 161.095 174.659C160.958 174.316 160.528 173.233 160.115 172.27C159.703 171.291 159.359 170.448 159.359 170.38C159.359 170.311 159.583 170.483 159.875 170.758C160.322 171.187 160.408 171.205 160.683 170.998ZM103.397 193.669C103.122 194.116 102.211 196.212 101.351 198.326C99.942 201.833 99.3749 202.83 99.5124 201.558C99.5811 200.973 99.3233 200.956 98.567 201.541C98.1545 201.85 97.9999 202.091 98.0514 202.314C98.103 202.486 98.0342 202.761 97.9139 202.933C97.7936 203.105 97.6389 203.706 97.5702 204.256C97.4842 204.875 97.278 205.511 97.0202 205.889C96.7967 206.233 96.5045 206.834 96.4014 207.247C96.2295 207.917 96.0061 208.141 94.0467 209.636C91.2967 211.75 91.3139 211.733 91.6749 211.303C92.2936 210.581 93.1702 208.364 93.3249 207.161C93.4108 206.336 93.5827 205.803 93.8405 205.459C94.5108 204.6 95.7655 202.658 95.7655 202.486C95.7655 202.4 95.8342 202.297 95.903 202.262C96.1952 202.159 97.742 198.98 97.9139 198.172C97.9827 197.845 98.2577 197.123 98.5327 196.591C99.117 195.439 100.681 194.047 101.403 194.047C101.661 194.047 102.056 193.995 102.28 193.926L102.692 193.823L102.28 193.497C101.901 193.205 101.901 193.17 102.211 193.205C102.4 193.222 102.675 193.222 102.812 193.205C103.036 193.187 103.036 193.17 102.812 193.016C102.606 192.878 102.658 192.844 103.019 192.844C103.276 192.844 103.534 192.758 103.603 192.637C103.706 192.483 103.758 192.483 103.809 192.637C103.844 192.758 103.655 193.222 103.397 193.669ZM170.892 199.083C170.669 199.306 170.634 199.066 170.823 198.567C170.944 198.275 170.961 198.275 171.012 198.584C171.047 198.756 170.995 198.98 170.892 199.083ZM99.9592 204.462C100.011 204.6 99.9936 204.669 99.8905 204.617C99.7874 204.566 99.7186 204.445 99.7186 204.342C99.7186 204.101 99.8389 204.153 99.9592 204.462Z" fill="black"/>
            <path d="M144.269 132.086C144.269 132.361 144.303 132.464 144.354 132.292C144.389 132.137 144.389 131.897 144.354 131.776C144.303 131.673 144.269 131.794 144.269 132.086Z" fill="black"/>
            <path d="M145.644 134.406C145.644 134.647 145.678 134.733 145.73 134.613C145.764 134.509 145.764 134.303 145.73 134.183C145.678 134.08 145.644 134.166 145.644 134.406Z" fill="black"/>
        </g>
    </g>
    <defs>
        <filter id="filter0_d" x="10.9688" y="70.9546" width="235.227" height="230.983" filterUnits="userSpaceOnUse" color-interpolation-filters="sRGB">
            <feFlood flood-opacity="0" result="BackgroundImageFix"/>
            <feColorMatrix in="SourceAlpha" type="matrix" values="0 0 0 0 0 0 0 0 0 0 0 0 0 0 0 0 0 0 127 0"/>
            <feOffset dx="10"/>
            <feGaussianBlur stdDeviation="5"/>
            <feColorMatrix type="matrix" values="0 0 0 0 0.968627 0 0 0 0 0.576471 0 0 0 0 0.101961 0 0 0 1 0"/>
            <feBlend mode="normal" in2="BackgroundImageFix" result="effect1_dropShadow"/>
            <feBlend mode="normal" in="SourceGraphic" in2="effect1_dropShadow" result="shape"/>
        </filter>
        <clipPath id="clip0">
            <rect x="10" y="77" width="220" height="220" fill="white"/>
        </clipPath>
    </defs>
</svg>
