<svg width="338" height="322" viewBox="0 0 338 322" fill="none" xmlns="http://www.w3.org/2000/svg">
    <rect x="0.5" y="22.5" width="299" height="299" fill="white" stroke="#F7931A"/>
    <rect x="188.5" y="0.5" width="149" height="151" fill="white" stroke="#F7931A"/>
    <g filter="url(#filter0_d)">
        <path d="M115.171 46.806C113.91 47.1817 112.609 48.5174 111.844 50.1663C111.327 51.2516 109.84 57.3461 109.819 58.3688C109.819 58.5566 109.344 59.1619 108.765 59.7254C105.046 63.3988 103.124 67.5523 102.071 74.2312C101.823 75.7965 101.409 77.2366 100.583 79.3447C99.9629 80.9309 99.4463 82.6215 99.4257 83.1015C99.3843 83.9155 99.405 83.9364 100.066 83.8738C100.417 83.8529 100.727 83.8947 100.727 83.9782C100.727 84.2077 98.4752 85.8566 96.1816 87.2967C92.3177 89.7596 90.396 90.7823 89.3629 90.9492C88.0405 91.158 83.3913 93.0155 81.7383 93.9965C81.0151 94.4348 80.0853 95.1236 79.6927 95.5201C78.3289 96.9394 78.3083 97.0229 78.3083 102.199C78.2876 108.648 78.1017 109.17 74.6303 111.758C73.5765 112.551 72.4194 113.574 72.0475 114.054C70.6217 115.87 69.7539 118.625 68.8034 124.448C67.8322 130.396 67.5223 131.294 65.3734 134.508C63.0798 137.889 62.0467 140.29 61.0962 144.464C60.7449 145.987 60.6209 147.636 60.435 153.23C60.187 160.598 60.0424 163.833 59.9597 163.916C59.9184 163.937 58.8852 163.123 57.6455 162.121C33.5113 142.523 7.70347 121.902 7.04226 121.672C4.99664 120.942 3.32295 122.966 4.27344 125.053C4.41808 125.387 8.50931 128.831 14.1296 133.36C46.033 159.053 59.6084 170.031 59.6084 170.115C59.6084 170.157 59.3811 170.699 59.0919 171.325C58.7406 172.098 58.5753 172.786 58.5753 173.642C58.5753 174.769 58.6373 174.895 59.4431 175.792C60.5176 176.982 61.778 177.712 66.4892 179.945L70.2498 181.74L70.8903 181.031C71.2416 180.634 71.5722 180.196 71.6342 180.05C71.6962 179.862 72.7913 180.634 74.7543 182.22C76.428 183.577 77.7917 184.704 77.7917 184.725C77.7917 184.725 77.5231 185.852 77.1718 187.188C76.2627 190.861 75.9734 193.575 75.8287 199.773C75.6428 207.684 75.3328 209.687 73.7211 212.922C73.2046 213.945 72.1301 215.782 71.3243 216.992C66.6958 223.88 66.0139 225.278 64.7741 230.768C62.8732 238.991 62.6872 241.099 62.5012 255.918L62.3566 268.441L61.6334 270.11C60.9515 271.634 60.4969 273.262 59.2158 278.876C58.8026 280.651 58.7199 280.817 57.7488 281.715C55.9925 283.364 54.5874 287.016 55.0626 288.79C55.6412 290.919 57.2322 291.274 64.5675 290.794C69.3613 290.481 69.4233 290.46 69.8985 289.938C70.5597 289.145 70.4977 287.893 69.6092 285.263C68.5968 282.278 68.6588 281.715 70.3324 278.167C71.9028 274.89 72.0061 274.013 71.097 272.427L70.5184 271.425L70.8903 270.59C71.1796 269.923 71.2003 269.693 71.0143 269.359C70.4564 268.482 70.6837 267.648 73.4319 260.447C79.1555 245.419 80.4366 241.934 81.573 238.073C82.2549 235.777 82.4408 234.671 82.9574 229.411C83.226 226.698 83.6186 224.277 84.2178 221.688C84.5898 220.04 84.7757 219.664 85.6849 218.558C88.743 214.863 90.2307 212.463 91.0159 210C91.4292 208.727 91.6978 208.31 93.1648 206.765C94.3839 205.45 95.1691 204.365 96.0576 202.737C96.7188 201.506 97.2974 200.504 97.3387 200.504C97.3801 200.504 101.823 204.052 107.195 208.393L116.968 216.304L117.96 218.892C119.262 222.315 119.324 223.003 118.518 226.927C118.043 229.202 117.878 230.642 117.878 232.145C117.878 233.293 117.795 234.316 117.671 234.441C117.423 234.691 118.332 238.866 119.655 243.604C120.171 245.44 121.865 250.929 123.457 255.813C126.804 266.145 126.99 266.813 127.692 270.069C128.622 274.41 128.395 277.895 126.969 281.235C126.701 281.882 126.577 282.425 126.68 282.508C127.052 282.863 135.379 286.766 137.631 287.663C140.999 288.999 143.499 289.437 149.306 289.751C152.178 289.917 153.211 289.709 153.748 288.895C154.926 287.079 151.951 283.865 145.276 279.69L142.673 278.062L140.607 274.911C138.272 271.321 137.611 269.943 137.301 268.086C137.177 267.293 137.094 261.866 137.094 254.665C137.094 248.007 136.991 241.141 136.887 239.429C136.639 235.798 136.309 232.604 136.081 231.686C135.916 231.06 135.937 231.018 136.701 230.788C137.755 230.475 138.334 229.682 138.334 228.597C138.334 227.47 137.797 226.719 135.937 225.257C134.201 223.901 134.284 224.172 134.077 218.975C133.953 215.197 133.912 214.968 133.519 215.302C133.292 215.49 133.168 215.072 132.899 213.173C132.176 208.226 132.114 207.183 132.404 205.45C132.569 204.553 132.734 203.802 132.796 203.739C132.837 203.697 133.602 203.885 134.47 204.156C137.28 205.075 139.47 204.783 141.95 203.196C142.921 202.57 142.962 202.57 143.231 202.946C143.396 203.155 143.561 203.53 143.644 203.781C143.706 204.052 143.871 204.261 144.037 204.261C144.347 204.261 145.917 201.652 147.301 198.876C152.013 189.379 153.81 181.156 153.562 170.365C153.232 155.317 149.326 146.217 138.21 134.571L135.338 131.565L135.234 134.967L135.131 138.369L133.726 138.766C131.825 139.288 131.184 139.643 130.027 140.77C128.973 141.792 128.911 141.813 129.263 140.874C129.387 140.561 129.49 139.538 129.469 138.62C129.469 136.721 128.87 134.153 127.196 128.81C126.618 126.973 126.143 125.346 126.143 125.199C126.143 125.053 126.556 124.761 127.052 124.552C127.589 124.302 127.982 123.989 128.064 123.718C128.168 123.321 128.23 123.3 128.705 123.509C129.366 123.822 130.089 123.53 130.585 122.778C130.895 122.319 130.895 122.131 130.585 120.42C130.11 117.832 129.118 113.908 128.436 111.925C127.114 108.064 124.841 104.516 121.37 100.842L120.192 99.5901L120.088 94.9983L120.006 90.4066L121.535 88.5699L123.085 86.7332L123.684 83.1433C124.51 78.1341 124.758 75.066 124.634 71.3091C124.51 67.6566 124.242 66.3417 123.105 64.0041C122.547 62.8562 121.927 62.0004 120.791 60.8525C119.923 59.9759 118.993 59.1202 118.745 58.9323L118.249 58.6193L118.518 55.5094C118.787 52.4413 118.787 52.4204 119.448 51.7943C120.047 51.2099 121.597 48.0791 121.597 47.4321C121.597 47.2443 120.998 47.0356 119.799 46.806C117.609 46.4094 116.431 46.4094 115.171 46.806ZM86.4288 127.6C88.805 131.19 90.582 135.113 90.7266 137.159C90.768 137.743 90.9333 138.87 91.1192 139.663C91.6565 142.064 91.7598 146.426 91.3259 148.972C90.7473 152.541 89.0323 157.655 86.5114 163.457C86.0568 164.48 85.1683 166.504 84.5485 167.944C83.9286 169.384 82.5648 172.494 81.5317 174.895C80.4985 177.274 79.6514 179.319 79.6514 179.445C79.6514 179.799 79.3414 179.611 77.4198 178.088L75.6221 176.648L75.6841 174.811L75.7668 172.995L74.8576 171.993C73.9278 170.971 73.2046 170.449 71.2416 169.384C70.5804 169.03 69.9812 168.675 69.8779 168.591C69.4439 168.174 69.2166 165.502 69.5266 164.167C69.6506 163.54 69.8159 162.706 69.8572 162.309C69.9398 161.37 70.663 159.283 71.9028 156.361C73.1013 153.522 73.6591 151.811 73.6591 151.018C73.6591 150.684 74.1551 149.348 74.7749 148.054C77.4198 142.502 78.6596 138.578 79.1555 134.174C79.2588 133.193 79.4447 132.671 79.8993 132.087C80.6638 131.106 85.2717 126.41 85.4783 126.41C85.5609 126.41 85.9949 126.953 86.4288 127.6ZM106.265 190.068L108.538 192.865L111.079 199.94C112.464 203.822 113.559 207.016 113.518 207.058C113.435 207.12 100.252 196.559 99.6736 195.975C99.467 195.766 99.7356 194.952 100.893 192.218C101.699 190.298 102.525 188.127 102.711 187.397L103.083 186.082L103.538 186.666C103.786 186.979 105.005 188.524 106.265 190.068Z" fill="black"/>
    </g>
    <path d="M227.044 313V311.956C228.004 311.5 228.988 311.212 229.996 311.092V289.744C229.516 289.648 229.024 289.528 228.52 289.384C228.016 289.216 227.524 289.036 227.044 288.844V287.8H230.86C231.316 287.8 231.748 287.788 232.156 287.764C232.588 287.74 233.032 287.716 233.488 287.692C233.944 287.668 234.436 287.644 234.964 287.62C235.492 287.596 236.092 287.584 236.764 287.584C237.724 287.584 238.696 287.668 239.68 287.836C240.688 287.98 241.588 288.268 242.38 288.7C243.196 289.132 243.856 289.744 244.36 290.536C244.864 291.304 245.116 292.312 245.116 293.56C245.116 294.184 245.02 294.808 244.828 295.432C244.636 296.056 244.336 296.644 243.928 297.196C243.544 297.724 243.052 298.192 242.452 298.6C241.852 299.008 241.144 299.308 240.328 299.5V299.644C241.048 299.764 241.756 299.968 242.452 300.256C243.172 300.544 243.808 300.94 244.36 301.444C244.912 301.924 245.356 302.524 245.692 303.244C246.052 303.964 246.232 304.828 246.232 305.836C246.232 307.132 245.944 308.248 245.368 309.184C244.792 310.12 244.036 310.888 243.1 311.488C242.188 312.088 241.144 312.532 239.968 312.82C238.792 313.084 237.604 313.216 236.404 313.216C235.564 313.216 234.616 313.18 233.56 313.108C232.504 313.036 231.484 313 230.5 313H227.044ZM236.656 311.344C237.52 311.344 238.324 311.212 239.068 310.948C239.836 310.684 240.484 310.324 241.012 309.868C241.564 309.388 241.996 308.824 242.308 308.176C242.62 307.504 242.776 306.784 242.776 306.016C242.776 305.056 242.584 304.264 242.2 303.64C241.84 302.992 241.336 302.488 240.688 302.128C240.064 301.744 239.332 301.48 238.492 301.336C237.676 301.192 236.824 301.12 235.936 301.12H233.236V311.056C233.572 311.152 233.968 311.224 234.424 311.272C234.904 311.32 235.648 311.344 236.656 311.344ZM235.036 299.248C235.444 299.248 235.924 299.236 236.476 299.212C237.052 299.164 237.52 299.116 237.88 299.068C238.984 298.684 239.884 298.072 240.58 297.232C241.3 296.368 241.66 295.36 241.66 294.208C241.66 292.624 241.18 291.436 240.22 290.644C239.284 289.852 238.024 289.456 236.44 289.456C235.696 289.456 235.06 289.468 234.532 289.492C234.004 289.516 233.572 289.552 233.236 289.6V299.248H235.036ZM264.348 313H254.232V311.956C254.76 311.764 255.288 311.596 255.816 311.452C256.368 311.308 256.956 311.188 257.58 311.092V289.672H252.072L250.164 294.82H249.264C249.192 294.34 249.132 293.8 249.084 293.2C249.036 292.576 248.988 291.952 248.94 291.328C248.916 290.68 248.892 290.056 248.868 289.456C248.844 288.832 248.832 288.28 248.832 287.8H269.748C269.748 288.28 269.736 288.82 269.712 289.42C269.688 290.02 269.652 290.644 269.604 291.292C269.58 291.916 269.544 292.54 269.496 293.164C269.472 293.764 269.424 294.316 269.352 294.82H268.416L266.544 289.672H261.036V311.092C261.66 311.212 262.236 311.332 262.764 311.452C263.316 311.572 263.844 311.74 264.348 311.956V313ZM289.251 306.448H290.187C290.307 307.12 290.415 307.972 290.511 309.004C290.607 310.012 290.631 310.996 290.583 311.956C290.223 312.244 289.791 312.484 289.287 312.676C288.783 312.844 288.243 312.988 287.667 313.108C287.115 313.228 286.539 313.312 285.939 313.36C285.363 313.408 284.811 313.432 284.283 313.432C282.267 313.432 280.467 313.18 278.883 312.676C277.299 312.148 275.955 311.356 274.851 310.3C273.771 309.244 272.931 307.9 272.331 306.268C271.755 304.612 271.467 302.656 271.467 300.4C271.467 298.048 271.791 296.056 272.439 294.424C273.087 292.768 273.963 291.424 275.067 290.392C276.171 289.336 277.455 288.568 278.919 288.088C280.383 287.608 281.919 287.368 283.527 287.368C285.111 287.368 286.443 287.476 287.523 287.692C288.603 287.884 289.551 288.184 290.367 288.592C290.367 288.976 290.355 289.432 290.331 289.96C290.307 290.464 290.271 291.004 290.223 291.58C290.175 292.156 290.115 292.72 290.043 293.272C289.971 293.824 289.899 294.328 289.827 294.784H288.891L287.019 289.6C286.755 289.456 286.311 289.36 285.687 289.312C285.087 289.264 284.487 289.24 283.887 289.24C282.687 289.24 281.547 289.468 280.467 289.924C279.411 290.356 278.475 291.04 277.659 291.976C276.867 292.888 276.231 294.052 275.751 295.468C275.271 296.86 275.031 298.504 275.031 300.4C275.031 302.104 275.247 303.652 275.679 305.044C276.111 306.412 276.735 307.588 277.551 308.572C278.367 309.532 279.363 310.276 280.539 310.804C281.715 311.308 283.047 311.56 284.535 311.56C285.327 311.56 285.987 311.5 286.515 311.38C287.043 311.26 287.391 311.104 287.559 310.912L289.251 306.448Z" fill="#001322"/>
    <path d="M263 151C304.421 151 338 117.421 338 76C338 34.5786 304.421 1 263 1C221.579 1 188 34.5786 188 76C188 117.421 221.579 151 263 151Z" fill="#F7931A"/>
    <path d="M296.703 66.7188C298.156 56.875 290.703 51.625 280.437 48.0625L283.765 34.7969L275.656 32.7813L272.422 45.7188L265.953 44.1719L269.234 31.1406L261.125 29.125L257.797 42.4375L252.64 41.2188V41.1719L241.437 38.3594L239.281 47.0312C239.281 47.0312 245.281 48.4375 245.187 48.4844C248.469 49.3281 249.031 51.4844 248.937 53.1719L245.187 68.3594L246.031 68.6406L245.14 68.4531L239.844 89.6875C239.469 90.6719 238.437 92.1719 236.14 91.5625C236.234 91.7031 230.281 90.1563 230.281 90.1563L226.25 99.3906L236.797 102.016L242.562 103.516L239.187 116.969L247.297 118.984L250.578 105.672L257.094 107.359L253.765 120.625L261.875 122.641L265.203 109.188C279.031 111.812 289.437 110.781 293.797 98.2656C297.312 88.1875 293.609 82.4219 286.344 78.5781C291.64 77.4062 295.625 73.8906 296.656 66.7188H296.703ZM278.187 92.6875C275.703 102.766 258.734 97.2812 253.25 95.9688L257.703 78.1094C263.187 79.5156 280.812 82.1875 278.187 92.6406V92.6875ZM280.672 66.5781C278.422 75.7188 264.265 71.0781 259.719 69.9531L263.75 53.7813C268.344 54.9063 283.062 57.0625 280.672 66.5781Z" fill="white"/>
    <defs>
        <filter id="filter0_d" x="4" y="36.5088" width="170" height="264.474" filterUnits="userSpaceOnUse" color-interpolation-filters="sRGB">
            <feFlood flood-opacity="0" result="BackgroundImageFix"/>
            <feColorMatrix in="SourceAlpha" type="matrix" values="0 0 0 0 0 0 0 0 0 0 0 0 0 0 0 0 0 0 127 0"/>
            <feOffset dx="10"/>
            <feGaussianBlur stdDeviation="5"/>
            <feColorMatrix type="matrix" values="0 0 0 0 0.968627 0 0 0 0 0.576471 0 0 0 0 0.101961 0 0 0 1 0"/>
            <feBlend mode="normal" in2="BackgroundImageFix" result="effect1_dropShadow"/>
            <feBlend mode="normal" in="SourceGraphic" in2="effect1_dropShadow" result="shape"/>
        </filter>
    </defs>
</svg>
