<svg width="338" height="322" viewBox="0 0 338 322" fill="none" xmlns="http://www.w3.org/2000/svg">
    <rect x="0.5" y="22.5" width="299" height="299" fill="white" stroke="#1C75BC"/>
    <rect x="188.5" y="0.5" width="149" height="151" fill="white" stroke="#1C75BC"/>
    <path d="M205.044 312V310.956C205.884 310.572 206.868 310.284 207.996 310.092V288.744C207.444 288.624 206.916 288.492 206.412 288.348C205.908 288.18 205.452 288.012 205.044 287.844V286.8H208.716C209.124 286.8 209.604 286.788 210.156 286.764C210.708 286.74 211.272 286.716 211.848 286.692C212.448 286.644 213.012 286.608 213.54 286.584C214.092 286.536 214.548 286.512 214.908 286.512C218.988 286.512 222.12 287.604 224.304 289.788C226.512 291.972 227.616 295.068 227.616 299.076C227.616 300.972 227.34 302.736 226.788 304.368C226.26 305.976 225.444 307.368 224.34 308.544C223.236 309.72 221.832 310.644 220.128 311.316C218.448 311.988 216.456 312.324 214.152 312.324C213.792 312.324 213.384 312.3 212.928 312.252C212.472 312.228 211.992 312.192 211.488 312.144C210.984 312.12 210.468 312.084 209.94 312.036C209.436 312.012 208.956 312 208.5 312H205.044ZM214.404 288.384C213.78 288.384 213.18 288.396 212.604 288.42C212.028 288.42 211.572 288.456 211.236 288.528V310.344C211.356 310.368 211.572 310.392 211.884 310.416C212.196 310.416 212.532 310.428 212.892 310.452C213.252 310.452 213.588 310.452 213.9 310.452C214.236 310.452 214.476 310.452 214.62 310.452C216.276 310.452 217.68 310.14 218.832 309.516C219.984 308.892 220.92 308.064 221.64 307.032C222.384 305.976 222.924 304.764 223.26 303.396C223.596 302.028 223.764 300.588 223.764 299.076C223.764 297.9 223.596 296.688 223.26 295.44C222.948 294.168 222.42 293.016 221.676 291.984C220.956 290.928 219.996 290.064 218.796 289.392C217.596 288.72 216.132 288.384 214.404 288.384ZM235.547 312H227.555V310.956C228.419 310.572 229.283 310.284 230.147 310.092L239.255 286.368H240.299L249.407 310.092C249.887 310.188 250.355 310.296 250.811 310.416C251.291 310.536 251.735 310.716 252.143 310.956V312H242.927V310.956C243.407 310.764 243.899 310.596 244.403 310.452C244.907 310.308 245.399 310.188 245.879 310.092L243.431 303.504H234.827L232.451 310.092C233.459 310.236 234.491 310.524 235.547 310.956V312ZM235.547 301.632H242.819L239.975 294L239.291 290.904H239.219L238.319 294.072L235.547 301.632ZM257.529 309.516C257.817 309.804 258.189 310.056 258.645 310.272C259.101 310.464 259.785 310.56 260.697 310.56C261.465 310.56 262.185 310.464 262.857 310.272C263.529 310.056 264.105 309.756 264.585 309.372C265.089 308.964 265.485 308.484 265.773 307.932C266.061 307.356 266.205 306.708 266.205 305.988C266.205 305.028 265.905 304.224 265.305 303.576C264.729 302.928 263.997 302.352 263.109 301.848C262.245 301.344 261.297 300.852 260.265 300.372C259.233 299.892 258.273 299.328 257.385 298.68C256.521 298.008 255.789 297.216 255.189 296.304C254.613 295.368 254.325 294.204 254.325 292.812C254.325 291.804 254.505 290.904 254.865 290.112C255.225 289.32 255.729 288.648 256.377 288.096C257.049 287.544 257.841 287.124 258.753 286.836C259.665 286.524 260.685 286.368 261.813 286.368C263.277 286.368 264.609 286.488 265.809 286.728C267.033 286.944 267.993 287.22 268.689 287.556C268.689 287.964 268.653 288.444 268.581 288.996C268.533 289.524 268.461 290.076 268.365 290.652C268.293 291.228 268.209 291.792 268.113 292.344C268.017 292.872 267.921 293.34 267.825 293.748H266.889L265.449 288.816C265.017 288.624 264.465 288.48 263.793 288.384C263.145 288.288 262.449 288.24 261.705 288.24C260.481 288.24 259.497 288.588 258.753 289.284C258.009 289.956 257.637 290.904 257.637 292.128C257.637 293.112 257.925 293.94 258.501 294.612C259.101 295.284 259.845 295.884 260.733 296.412C261.621 296.94 262.569 297.456 263.577 297.96C264.609 298.44 265.569 299.004 266.457 299.652C267.345 300.3 268.077 301.068 268.653 301.956C269.253 302.844 269.553 303.948 269.553 305.268C269.553 306.348 269.349 307.332 268.941 308.22C268.557 309.108 267.993 309.864 267.249 310.488C266.505 311.112 265.593 311.592 264.513 311.928C263.433 312.264 262.209 312.432 260.841 312.432C259.329 312.432 257.973 312.252 256.773 311.892C255.573 311.532 254.721 311.148 254.217 310.74C254.241 310.332 254.277 309.84 254.325 309.264C254.397 308.688 254.469 308.1 254.541 307.5C254.637 306.876 254.733 306.276 254.829 305.7C254.925 305.124 255.021 304.632 255.117 304.224H256.053L257.529 309.516ZM281.582 312H272.474V310.956C273.434 310.572 274.418 310.284 275.426 310.092V288.744C274.298 288.576 273.314 288.276 272.474 287.844V286.8H281.582V287.844C281.174 288.06 280.742 288.24 280.286 288.384C279.83 288.528 279.362 288.648 278.882 288.744V298.14H290.186V288.744C289.682 288.624 289.202 288.492 288.746 288.348C288.314 288.204 287.894 288.036 287.486 287.844V286.8H296.594V287.844C296.162 288.084 295.682 288.276 295.154 288.42C294.65 288.54 294.146 288.648 293.642 288.744V310.092C294.194 310.188 294.722 310.308 295.226 310.452C295.73 310.596 296.186 310.764 296.594 310.956V312H287.486V310.956C288.35 310.572 289.25 310.284 290.186 310.092V300.012H278.882V310.092C279.362 310.188 279.83 310.308 280.286 310.452C280.742 310.596 281.174 310.764 281.582 310.956V312Z" fill="#001322"/>
    <path d="M263 151C304.421 151 338 117.421 338 76C338 34.5786 304.421 1 263 1C221.579 1 188 34.5786 188 76C188 117.421 221.579 151 263 151Z" fill="#1C75BC"/>
    <path d="M312.547 61.7964L302.985 91.7026C302.985 91.7026 297.125 106.609 283.11 106.609H215.516L220.344 91.7026H281.563L291.219 61.7964H230.047L234.782 46.937H302C316.766 46.937 312.547 61.8433 312.547 61.8433V61.7964ZM217.907 69.9058H254.141L249.5 83.7339H213.172L217.907 69.9058Z" fill="white"/>
    <g filter="url(#filter0_d)">
        <path d="M126.29 32.7938C123.949 35.2656 122.899 36.7094 122.899 37.4312C122.899 38.0438 123.315 38.8313 124.059 39.6844C124.452 40.1438 124.474 40.275 124.234 41.0188C123.949 41.8281 123.993 41.9813 125.043 44.475C126.443 47.8 128.543 52.2188 129.44 53.7063C129.812 54.3406 130.074 54.9531 130.009 55.0625C129.943 55.1719 130.052 55.3906 130.227 55.5656C130.402 55.7625 130.555 56.0031 130.555 56.1344C130.555 56.2656 130.752 56.4625 130.993 56.5938C131.234 56.725 131.43 57.0312 131.43 57.2719C131.43 57.5125 131.584 57.7531 131.759 57.8188C132.349 58.0594 139.087 68.625 142.434 74.5531C144.752 78.6656 148.099 85.5781 148.143 86.3219C148.165 86.65 148.34 87.0875 148.559 87.3063C148.799 87.5688 148.887 87.875 148.799 88.225C148.712 88.5969 148.777 88.7937 149.018 88.8813C149.215 88.9469 149.368 89.2094 149.368 89.4281C149.368 89.6687 149.499 90.0844 149.674 90.3469C150.134 91.0469 151.271 95.9031 151.687 98.8125C152.102 101.766 152.387 114.606 152.059 115.066C151.949 115.197 151.884 115.831 151.905 116.466C151.927 117.188 151.862 117.691 151.665 117.844C151.337 118.106 151.446 120.491 151.818 121.256C152.124 121.913 151.971 122.984 151.555 122.941C151.205 122.897 147.574 122.153 125.962 117.625C93.3461 110.8 95.7086 111.325 95.2492 110.713C95.0086 110.384 94.4399 109.859 93.9586 109.509L93.1055 108.897L94.5055 109.028C95.8836 109.137 95.9274 109.137 96.4961 108.438C96.8242 108.066 97.0867 107.562 97.0867 107.322C97.0867 106.819 97.4149 106.097 97.9399 105.506C98.3336 105.069 98.4211 104.5 98.3992 102.794C98.3774 101.394 98.5961 101.088 99.7336 100.891C100.215 100.803 100.674 100.584 100.74 100.409C100.805 100.213 100.39 99.1188 99.8211 97.9375C99.0555 96.3844 98.793 95.5969 98.8367 95.0719C99.0555 92.8406 98.9242 91.9219 98.1149 90.325C97.6774 89.45 97.1086 88.4219 96.8461 88.0719C96.6055 87.7219 96.4524 87.2844 96.518 87.1094C96.5836 86.9344 98.4867 83.7625 100.762 80.0656C103.037 76.3688 108.287 67.575 112.399 60.5312C120.668 46.4 120.209 47.2094 119.902 47.5156C119.771 47.625 114.39 56.5938 107.915 67.4L96.168 87.0656L95.7524 86.5406C95.5336 86.2563 95.3367 85.7969 95.3367 85.5125C95.3367 84.025 93.3242 81.9688 90.7867 80.8531C89.9774 80.5031 88.4024 79.7375 87.2867 79.1687C85.2742 78.1625 85.2086 78.1406 83.3492 78.1844C82.2992 78.2063 80.8992 78.3375 80.243 78.4469C79.2149 78.6219 79.018 78.6 78.8211 78.2937C78.2742 77.4187 77.5961 76.9594 76.4586 76.7188C75.3649 76.4563 75.168 76.4781 74.643 76.8063C74.2492 77.0906 73.8555 77.1562 73.3305 77.0469C72.8274 76.9594 72.4336 77.025 72.1055 77.2656C71.8211 77.4625 71.143 77.5938 70.4649 77.5938C69.393 77.5938 69.2836 77.6375 68.5399 78.5344L67.7524 79.475L66.4399 79.1469L65.1274 78.7969L63.7055 79.5625C62.0649 80.4375 60.9492 81.5969 60.5992 82.8219C60.2274 83.9812 60.2711 84.3094 60.8617 86.0813C61.3649 87.5688 61.8024 89.5156 61.693 89.9094C61.5617 90.4125 62.1742 91.8344 62.7211 92.3156C63.2024 92.7094 63.3117 92.9062 63.1367 93.2125C63.0274 93.4313 62.9836 93.8469 63.0711 94.175C63.1586 94.5031 63.2242 95.4656 63.2461 96.3406C63.2899 97.85 63.3336 97.9594 64.1211 98.7469C64.5586 99.2281 64.9305 99.7312 64.9305 99.8844C64.9305 100.038 65.2586 100.475 65.6742 100.847C66.2649 101.416 66.418 101.744 66.5055 102.684C66.6149 103.8 66.6149 103.8 65.9149 103.931C64.843 104.15 62.568 104.041 61.3867 103.734C60.7961 103.559 59.9649 103.122 59.5274 102.75C58.8055 102.116 58.6524 102.072 57.7336 102.203C56.4211 102.4 56.3555 102.466 56.5086 103.166C56.6399 103.756 56.5961 103.778 55.2399 104.019C54.4742 104.172 53.4024 104.281 52.8555 104.281C51.5211 104.281 49.1586 103.472 48.6336 102.816C48.3055 102.422 47.9117 102.269 46.9055 102.159L45.6367 102.028L45.7024 103.209L45.7899 104.391L43.2524 104.456C40.8461 104.5 40.693 104.478 39.8836 103.931C39.1617 103.45 38.8774 103.384 38.0461 103.494C37.5211 103.559 37.018 103.669 36.9742 103.734C36.9086 103.8 37.018 104.653 37.2367 105.659C37.4992 106.863 37.8274 107.759 38.2867 108.394C38.6367 108.919 38.9211 109.378 38.8774 109.4C38.8336 109.444 38.2649 109.728 37.6524 110.056C36.0117 110.866 35.8367 111.238 36.0992 113.25C36.3617 115.175 36.7774 116.072 38.0899 117.538C38.9867 118.544 39.293 118.697 42.0492 119.681C43.6899 120.272 45.0242 120.863 45.0242 120.994C45.0242 121.913 45.5492 126.747 45.9211 129.109C46.6649 134.119 48.0867 139.916 48.7867 140.747C48.918 140.9 49.4649 141.031 50.0336 141.031C51.6086 141.031 56.8805 140.397 57.143 140.178C57.2742 140.069 58.2149 139.762 59.243 139.478C60.2711 139.216 62.1305 138.603 63.3992 138.144C64.668 137.663 66.1336 137.137 66.6805 136.984C67.6867 136.678 72.9805 135.562 73.4399 135.562C73.8117 135.562 73.7242 135.956 73.2211 136.656C72.6742 137.378 72.6742 137.444 73.768 141.469C74.2055 143.088 74.5555 144.903 74.5555 145.472C74.5555 146.719 74.8617 147.375 75.4086 147.375C75.7149 147.375 76.0211 148.031 76.8305 150.481C77.8149 153.391 77.8805 153.653 77.7274 155.075C77.5961 156.497 77.618 156.606 78.0555 156.716C78.5586 156.847 78.5586 156.978 77.793 160.391C77.2461 162.775 76.8305 163.628 75.6711 164.766C75.0367 165.356 74.7742 165.794 74.818 166.188C74.8399 166.494 74.5774 167.259 74.2711 167.872C73.7024 168.988 73.6367 169.031 72.7617 169.031C70.8586 169.031 69.0211 169.491 68.4305 170.125C67.0305 171.634 65.7617 174.5 66.5055 174.5C66.6805 174.5 66.7024 175.134 66.6149 176.819C66.418 179.925 66.768 180.625 68.4742 180.625C68.9992 180.625 69.1086 180.713 69.043 180.997C68.9774 181.216 67.818 184.322 66.4617 187.931C64.5149 193.116 64.0336 194.603 64.143 195.15C64.2305 195.522 64.8867 197.119 65.6086 198.716L66.943 201.581L66.3742 205.934C64.9961 216.697 64.5149 222.516 64.2742 231.156C64.143 235.356 63.9461 238.769 63.7492 239.884C63.5742 240.891 63.3555 242.509 63.268 243.45C63.1805 244.391 63.0492 245.156 62.9617 245.156C62.8742 245.156 62.6336 244.959 62.4149 244.719C62.1961 244.478 61.9555 244.281 61.868 244.281C61.518 244.281 59.8992 246.644 59.8992 247.147C59.8992 247.431 60.1617 248.066 60.4899 248.525C60.993 249.291 61.0367 249.466 60.7961 250.056C60.6649 250.428 60.0742 252.069 59.5274 253.688C58.2586 257.341 58.193 258.347 58.6742 265.719C58.8492 268.672 59.068 272.609 59.1555 274.469L59.3086 277.881L58.0617 280.922C57.3836 282.584 56.8367 284.116 56.8367 284.291C56.8367 284.488 57.0992 284.881 57.3836 285.166C58.1274 285.866 58.0836 286.631 57.1649 288.753C56.2461 290.853 56.2242 291.225 56.9461 291.794C57.2524 292.034 57.493 292.319 57.493 292.428C57.493 293.172 55.6555 297.372 54.8899 298.356L54.0149 299.516L54.6492 299.691L55.3055 299.844L54.868 300.894C54.6492 301.463 54.2117 302.512 53.9055 303.234C53.4461 304.306 53.3367 304.919 53.3367 306.472C53.3367 308.244 53.3805 308.441 53.8836 308.9C55.0211 309.95 59.3961 310.869 63.4211 310.891C66.0242 310.891 66.1992 310.869 67.0305 310.322C67.5992 309.95 68.1461 309.294 68.5399 308.528C69.1524 307.369 69.1742 307.259 68.9117 306.253C68.7586 305.684 68.0149 303.912 67.2274 302.316C66.4617 300.719 65.9367 299.406 66.068 299.363C66.1992 299.319 66.1555 298.816 65.9586 297.984C65.2805 295.359 65.2805 294.769 65.893 293.544C66.1992 292.931 66.4617 292.275 66.4617 292.078C66.4617 291.903 66.1117 291.356 65.6524 290.875L64.8649 289.978L65.4336 289.388C66.1336 288.644 66.1555 288.272 65.5867 286.763C64.843 284.837 64.843 284.947 67.3586 276.328C68.0586 273.922 68.9117 271.253 69.218 270.422C70.7492 266.353 71.2961 264.734 71.7117 263.138C72.2586 260.928 73.0242 256.466 73.0242 255.328C73.0242 253.95 73.2211 253.534 73.8992 253.403C74.7086 253.228 75.2117 251.959 75.2117 250.1V248.722L77.093 248.35C79.5211 247.869 79.9367 247.672 80.3524 246.775C80.5492 246.359 80.8992 245.988 81.1836 245.922C81.4461 245.878 82.343 245.659 83.1742 245.484C84.0055 245.309 84.7274 245.178 84.7711 245.244C84.8149 245.287 84.9242 247.694 84.9899 250.581C85.1211 255.678 85.143 255.853 85.5805 255.963C86.5867 256.225 92.3836 254.956 94.0024 254.125C94.4399 253.906 95.2055 253.425 95.7305 253.053C96.4961 252.484 96.6492 252.244 96.6492 251.653C96.6492 251.106 96.7805 250.866 97.2836 250.559C97.8305 250.231 97.9399 250.231 98.1805 250.516C98.3336 250.691 98.5742 250.844 98.7274 250.844C99.0774 250.844 100.827 249.925 102.512 248.831C103.255 248.35 103.912 247.978 103.977 248.022C104.021 248.066 103.955 249.597 103.824 251.391C103.474 256.663 103.605 257.953 104.809 260.862C105.924 263.553 109.577 270.969 111.349 274.075C112.421 276 112.443 276.088 112.334 277.378C112.18 278.975 112.355 279.369 113.471 279.916C114.805 280.616 114.893 280.791 114.368 282.322C113.755 284.138 113.799 284.706 114.609 285.538L115.287 286.238L115.002 287.397C114.718 288.513 114.718 288.556 115.243 288.95L115.812 289.366L115.484 291.859C115.199 294.156 115.199 294.441 115.527 295.141C115.987 296.103 117.387 297.022 118.568 297.153C119.093 297.219 121.193 297 123.271 296.694C127.777 296.016 129.155 295.994 132.743 296.562C135.74 297.044 138.452 297.131 139.109 296.781C139.437 296.584 139.524 296.3 139.524 295.272C139.524 292.888 138.977 292.188 136.834 291.881C135.434 291.663 133.705 291.05 131.409 289.978C129.812 289.212 129.484 288.972 129.374 288.469C129.287 288.009 128.937 287.659 127.996 287.091C127.296 286.653 126.005 285.8 125.13 285.188C123.643 284.138 123.555 284.028 123.927 283.766C124.299 283.481 124.299 283.416 123.971 282.847C123.752 282.453 123.468 282.234 123.162 282.256C122.659 282.278 122.68 282.322 121.609 278.581C121.215 277.159 121.215 277.138 121.609 277.028C121.871 276.963 122.024 276.722 122.024 276.372C122.024 275.716 121.477 275.103 121.04 275.256C120.821 275.344 120.668 275.103 120.493 274.425C120.362 273.922 120.165 273.134 120.034 272.719C119.771 271.691 119.771 271.691 120.274 271.559C120.559 271.494 120.712 271.253 120.712 270.903C120.712 270.225 120.165 269.634 119.727 269.788C119.334 269.941 119.29 269.831 118.765 267.359L118.371 265.391L118.83 265.281C119.705 265.041 119.443 263.225 118.568 263.356C118.284 263.4 118.152 263.072 117.955 261.891C117.584 259.791 117.584 259.003 117.977 258.85C118.502 258.653 118.415 257.384 117.868 257.253C117.387 257.122 117.299 256.859 117.102 254.781C117.037 253.994 116.905 252.987 116.84 252.528C116.752 251.872 116.796 251.719 117.08 251.719C117.452 251.719 117.78 250.822 117.562 250.297C117.496 250.122 117.255 249.969 117.037 249.969C116.709 249.969 116.577 249.772 116.468 249.159C116.293 247.978 116.315 247.737 116.577 247.913C117.015 248.175 117.212 247.497 117.212 245.747C117.212 243.713 116.84 242.684 115.921 242.203C115.112 241.787 115.068 241.372 115.702 239.578C116.359 237.763 116.205 234.787 115.352 232.578C114.696 230.894 114.543 229.888 114.04 223.938C113.69 219.759 113.515 217.966 112.946 213.131L112.618 210.287L114.105 208.319C116.424 205.234 118.48 202.85 118.962 202.675C119.202 202.588 119.399 202.369 119.399 202.194C119.399 202.041 119.596 201.844 119.837 201.778C120.077 201.713 120.274 201.516 120.274 201.319C120.274 200.881 121.674 199.372 126.815 194.319C131.059 190.119 137.293 183.556 139.655 180.756L140.946 179.247L141.055 180.8C141.165 182.506 141.384 182.878 142.171 182.769C142.63 182.703 142.718 182.55 142.849 181.391C143.243 178.219 144.162 175.594 144.884 175.594C145.08 175.594 145.212 175.397 145.212 175.069C145.212 174.784 145.365 174.5 145.54 174.413C145.715 174.347 145.868 174.106 145.868 173.866C145.868 173.625 146.065 173.319 146.305 173.188C146.546 173.056 146.743 172.794 146.743 172.575C146.743 172.378 147.246 171.459 147.859 170.562C150.899 166.034 153.065 159.909 154.837 150.766C155.209 148.841 155.624 147.047 155.755 146.784C155.887 146.544 155.909 146.216 155.821 146.084C155.734 145.931 155.799 145.691 155.93 145.516C156.062 145.341 156.127 145.1 156.04 144.969C155.974 144.859 156.062 144.684 156.237 144.619C156.434 144.553 156.587 144.291 156.587 144.05C156.587 143.481 156.937 142.847 157.834 141.797C158.534 140.966 158.555 140.922 158.162 140.55C157.943 140.309 157.418 140.134 156.959 140.113C156.127 140.091 156.062 139.981 156.302 139.106C156.39 138.734 156.543 138.625 156.827 138.691C157.462 138.866 158.162 138.231 158.074 137.575C158.03 137.181 158.162 136.853 158.512 136.591C158.84 136.306 158.993 135.956 158.993 135.453C158.993 135.038 159.102 134.644 159.212 134.578C159.54 134.381 159.474 133.244 159.102 132.938C158.862 132.741 158.84 132.588 159.015 132.369C159.409 131.887 159.168 130.466 158.621 130.203C158.184 129.963 158.227 129.941 159.212 129.678C159.824 129.525 160.305 129.328 160.305 129.241C160.305 129.175 159.627 128.409 158.774 127.578C157.943 126.747 157.243 125.959 157.243 125.85C157.243 125.588 159.059 125.85 159.934 126.244C160.327 126.419 160.94 126.616 161.29 126.703C161.662 126.769 162.209 127.075 162.515 127.381L163.084 127.906L165.796 127.688C167.284 127.556 168.662 127.425 168.837 127.403C169.012 127.381 167.94 126.659 166.474 125.784L163.805 124.209L162.821 124.647C162.274 124.887 161.749 125.041 161.662 124.975C161.574 124.931 160.962 124.822 160.305 124.734C157.768 124.45 157.571 124.363 157.571 123.531C157.571 122.809 157.615 122.766 158.402 122.7C158.862 122.656 159.299 122.481 159.365 122.328C159.409 122.153 159.168 121.409 158.796 120.666C158.359 119.812 158.162 119.134 158.249 118.828C158.315 118.544 158.293 118.281 158.162 118.216C158.052 118.128 157.943 115.941 157.921 113.316C157.834 102.509 157.09 96.8219 155.099 91.8125C154.552 90.4344 154.115 89.0781 154.137 88.8156C154.159 88.575 154.027 88.2906 153.852 88.225C153.677 88.1594 153.524 87.875 153.524 87.5688C153.524 87.2625 153.437 86.9563 153.305 86.8906C153.196 86.825 153.087 86.5625 153.087 86.3219C153.087 86.0813 152.89 85.6219 152.649 85.2937C152.059 84.4844 151.752 82.2094 151.949 80.2844C152.146 78.6 151.971 77.8125 151.446 77.8125C150.855 77.8125 150.287 78.6219 150.134 79.7156C149.893 81.4219 149.805 81.5094 149.324 80.5469C148.077 78.0969 144.14 71.8406 139.371 64.7312C136.44 60.3781 134.055 56.6594 134.055 56.4844C134.055 56.3094 133.946 56.1562 133.815 56.1562C133.662 56.1562 133.618 55.9594 133.684 55.6969C133.771 55.3688 133.684 55.1938 133.377 55.1281C133.115 55.0625 132.962 54.8219 132.962 54.5156C132.962 54.2313 132.743 53.8813 132.437 53.6844C131.824 53.2688 127.602 44.9125 126.705 42.3313C125.568 38.9844 126.334 35.6812 128.915 32.9906C129.571 32.2906 130.118 31.6125 130.118 31.5031C130.118 31.1969 129.593 31 128.696 31C128.084 31 127.734 31.2406 126.29 32.7938ZM70.1367 98.3969C70.7492 98.6156 70.8149 98.725 71.0555 100.191C71.4711 102.859 71.668 103.078 71.6899 100.891L71.7117 98.9438L72.6524 99.8188C74.5555 101.613 75.168 102.05 76.3274 102.291C78.3836 102.75 78.6461 102.925 78.8867 103.844L79.0836 104.675L78.3617 104.325C77.9461 104.15 77.618 103.866 77.618 103.713C77.618 103.122 75.9992 102.881 74.1836 103.209C73.243 103.384 72.3242 103.516 72.1492 103.516C71.9742 103.516 71.7774 103.581 71.7117 103.647C71.5805 103.844 67.4899 104.719 67.3586 104.609C67.3149 104.566 67.2274 103.822 67.1617 102.969C67.0524 101.197 67.3586 100.891 67.7524 102.422C67.8836 102.969 68.0586 103.406 68.1242 103.406C68.3649 103.406 67.9711 101.131 67.643 100.606C67.3367 100.147 67.3586 100.125 67.8399 100.125C68.6492 100.125 69.3055 99.5344 69.3055 98.7906C69.3055 98.4406 69.3492 98.1562 69.393 98.1562C69.4149 98.1562 69.7649 98.2656 70.1367 98.3969ZM68.6711 110.625C69.1961 110.866 70.0711 111.062 70.618 111.062C71.2961 111.062 72.018 111.281 72.9149 111.762C73.9649 112.309 74.5555 112.463 75.9336 112.55C76.8524 112.616 77.618 112.703 77.618 112.791C77.618 112.856 77.3117 113.097 76.9617 113.294C76.4586 113.578 76.3055 113.819 76.3055 114.3C76.3055 114.694 76.1742 115 75.9555 115.088C75.693 115.197 75.6274 115.459 75.693 116.181L75.7586 117.144L74.8836 117.297C74.4024 117.363 73.7242 117.559 73.418 117.713C72.8711 117.997 72.6961 117.975 71.2305 117.253C69.2399 116.291 66.1117 115.722 64.9305 116.094C64.2742 116.291 63.618 116.203 60.6649 115.591L57.1649 114.825L58.193 114.387C58.8274 114.103 59.3305 113.688 59.5274 113.316C59.768 112.856 60.293 112.506 61.518 112.003C62.4367 111.609 63.3555 111.369 63.618 111.434C64.1211 111.566 67.5555 110.647 67.5555 110.363C67.5555 110.122 67.5992 110.122 68.6711 110.625ZM123.665 118.5C138.584 121.65 151.009 124.253 151.293 124.341C152.08 124.538 151.927 125.391 150.987 126.025C150.549 126.309 150.068 126.506 149.937 126.463C149.784 126.397 149.062 126.659 148.318 127.031C146.787 127.797 146.634 127.797 145.54 127.359C145.102 127.163 144.271 127.031 143.724 127.053C142.893 127.097 142.477 126.944 141.515 126.353C140.53 125.741 140.137 125.609 138.999 125.609C137.774 125.588 137.49 125.5 136.221 124.647C134.909 123.75 134.755 123.706 133.662 123.816C133.027 123.881 132.152 124.144 131.737 124.384C130.927 124.866 130.096 124.822 129.462 124.297C129.287 124.144 128.696 123.881 128.149 123.75C127.624 123.597 126.705 123.247 126.137 122.963C124.955 122.372 124.605 122.328 123.162 122.7C122.418 122.875 121.871 123.247 121.084 124.034C120.121 125.019 119.946 125.106 118.765 125.216C117.496 125.347 117.452 125.325 116.774 124.538C116.009 123.684 115.462 123.488 112.684 123.072C111.48 122.897 110.802 122.875 110.605 123.028C110.409 123.181 109.534 123.072 107.74 122.678L105.18 122.109L104.962 121.3C104.743 120.556 104.655 120.491 103.584 120.25C102.971 120.119 101.768 119.966 100.915 119.9C98.6617 119.747 97.9617 119.594 97.9617 119.331C97.9617 119.2 98.268 118.609 98.6399 118.019C99.4492 116.75 99.3617 116.291 98.0492 115.306L97.2617 114.694L94.9211 115.284C93.6524 115.613 92.2961 115.875 91.9024 115.875C91.268 115.875 91.2024 115.809 91.0711 114.978C90.8961 113.972 91.1149 113.709 92.0555 113.688C92.3617 113.666 93.3024 113.425 94.1336 113.141C94.9867 112.856 95.8617 112.659 96.1024 112.703C96.343 112.747 108.746 115.35 123.665 118.5ZM79.7617 115C80.593 115 80.6805 115.044 80.6805 115.547C80.6805 116.203 80.6586 116.203 79.5867 115.656C79.1055 115.416 78.5805 115.219 78.4055 115.219C78.2305 115.219 78.0117 115.109 77.9242 114.956C77.8149 114.781 77.9242 114.759 78.2961 114.847C78.5805 114.934 79.2367 115 79.7617 115ZM119.53 135.125C119.924 135.256 120.362 135.672 120.602 136.131C121.062 136.984 122.024 137.772 122.615 137.794C125.021 137.816 128.28 137.291 129.134 136.744C129.637 136.416 129.702 136.438 130.38 136.941C131.387 137.684 131.934 137.772 133.355 137.378C135.259 136.853 136.702 136.613 137.774 136.634C138.321 136.634 139.284 136.547 139.94 136.438C141.012 136.241 141.143 136.262 141.449 136.678C141.734 137.072 141.952 137.116 143.659 137.072C145.321 137.05 145.737 137.116 147.224 137.728C148.143 138.1 149.193 138.406 149.543 138.406C149.915 138.406 150.352 138.472 150.549 138.538C150.987 138.713 151.009 139.894 150.571 140.463C150.396 140.703 150.243 141.141 150.243 141.447C150.243 141.753 150.09 142.3 149.915 142.65C149.674 143.088 149.652 143.372 149.805 143.525C150.112 143.831 150.09 144.597 149.762 144.925C149.543 145.144 149.543 145.253 149.784 145.406C150.046 145.559 150.046 145.669 149.849 145.909C149.696 146.084 149.63 146.369 149.718 146.566C149.98 147.288 148.165 156.038 146.765 160.631C145.409 165.116 143.199 170.213 142.477 170.497C142.302 170.562 142.149 170.781 142.149 171.022C142.149 171.241 141.952 171.525 141.69 171.656C141.427 171.809 141.296 172.05 141.362 172.225C141.427 172.422 141.252 172.772 140.946 173.056C140.64 173.341 140.399 173.691 140.399 173.822C140.399 174.566 135.784 180.625 131.321 185.766C127.668 189.944 119.399 198.606 118.918 198.738C118.721 198.781 118.48 199 118.415 199.219C118.349 199.416 118.043 199.7 117.737 199.853C117.43 199.984 117.255 200.203 117.321 200.312C117.387 200.444 117.299 200.531 117.102 200.531C116.927 200.531 116.665 200.794 116.555 201.1C116.424 201.406 115.812 202.281 115.177 203.025C114.565 203.769 113.646 204.95 113.165 205.628C112.202 206.984 111.962 207.138 111.962 206.372C111.962 205.234 110.146 197.578 108.68 192.547C108.44 191.716 108.243 190.709 108.243 190.316C108.243 189.769 106.668 184.388 105.29 180.253C105.246 180.122 105.618 179.881 106.121 179.706C106.952 179.444 107.04 179.334 107.193 178.547C107.28 178.066 107.346 177.016 107.346 176.206C107.368 174.938 107.302 174.697 106.93 174.5C106.69 174.369 106.405 174.325 106.296 174.391C106.187 174.456 106.034 174.084 105.946 173.581C105.859 173.056 105.705 172.291 105.574 171.853C105.399 171.219 105.421 170.956 105.727 170.497C106.034 170.038 106.034 169.797 105.837 169.097C105.705 168.637 105.487 165.619 105.377 162.359C105.246 159.122 105.115 156.431 105.071 156.387C105.027 156.322 105.224 156.103 105.509 155.863C105.968 155.491 106.034 155.316 105.924 154.506C105.815 153.85 106.012 152.581 106.624 150.066C107.302 147.134 107.499 146.566 107.805 146.653C108.462 146.828 108.724 146.172 108.637 144.531C108.615 143.7 108.615 143.022 108.68 143.066C108.746 143.088 109.162 143.306 109.621 143.547C110.059 143.766 110.43 144.028 110.43 144.137C110.43 144.4 113.427 145.844 114.018 145.844C115.134 145.844 117.234 142.606 117.977 139.741C118.152 138.997 118.371 137.619 118.459 136.656C118.524 135.694 118.655 134.906 118.743 134.906C118.83 134.906 119.18 135.016 119.53 135.125ZM104.852 233.891C105.18 235.116 105.377 239.578 105.093 239.841C104.743 240.191 104.546 239.403 104.437 237.128C104.349 235.706 104.24 234 104.174 233.344C104.043 231.812 104.371 232.097 104.852 233.891ZM73.6805 246.578C73.6805 247.737 73.6149 248 73.3305 248C73.1117 248 73.0242 247.869 73.1117 247.672C73.1774 247.497 73.2867 246.863 73.3742 246.25C73.4617 245.659 73.5492 245.156 73.593 245.156C73.6367 245.156 73.6805 245.791 73.6805 246.578Z" fill="black"/>
    </g>
    <defs>
        <filter id="filter0_d" x="36" y="21" width="152.855" height="299.891" filterUnits="userSpaceOnUse" color-interpolation-filters="sRGB">
            <feFlood flood-opacity="0" result="BackgroundImageFix"/>
            <feColorMatrix in="SourceAlpha" type="matrix" values="0 0 0 0 0 0 0 0 0 0 0 0 0 0 0 0 0 0 127 0"/>
            <feOffset dx="10"/>
            <feGaussianBlur stdDeviation="5"/>
            <feColorMatrix type="matrix" values="0 0 0 0 0.109804 0 0 0 0 0.458824 0 0 0 0 0.737255 0 0 0 1 0"/>
            <feBlend mode="normal" in2="BackgroundImageFix" result="effect1_dropShadow"/>
            <feBlend mode="normal" in="SourceGraphic" in2="effect1_dropShadow" result="shape"/>
        </filter>
    </defs>
</svg>
