<svg width="333" height="318" viewBox="0 0 333 318" fill="none" xmlns="http://www.w3.org/2000/svg">
    <rect x="0.5" y="18.5" width="296" height="299" fill="white" stroke="black"/>
    <path d="M246.108 284.8C246.084 285.76 246.036 286.732 245.964 287.716C245.916 288.676 245.832 289.648 245.712 290.632H244.776L243.3 286.672H235.452V296.212H241.32L242.724 293.548H243.624C243.768 295.924 243.768 298.348 243.624 300.82H242.724L241.32 298.084H235.452V308.128H243.732L245.496 303.808H246.396C246.564 304.816 246.684 305.836 246.756 306.868C246.828 307.9 246.84 308.944 246.792 310H229.044V308.956C229.884 308.572 230.868 308.284 231.996 308.092V286.744C231.516 286.648 231.024 286.528 230.52 286.384C230.016 286.216 229.524 286.036 229.044 285.844V284.8H246.108ZM250.861 297.4C250.861 295.528 251.113 293.8 251.617 292.216C252.145 290.608 252.889 289.228 253.849 288.076C254.833 286.9 256.033 285.988 257.449 285.34C258.865 284.692 260.473 284.368 262.273 284.368C264.073 284.368 265.681 284.692 267.097 285.34C268.513 285.988 269.701 286.9 270.661 288.076C271.645 289.228 272.389 290.608 272.893 292.216C273.421 293.8 273.685 295.528 273.685 297.4C273.685 299.272 273.421 301.012 272.893 302.62C272.389 304.204 271.645 305.584 270.661 306.76C269.701 307.912 268.513 308.812 267.097 309.46C265.681 310.108 264.073 310.432 262.273 310.432C260.473 310.432 258.865 310.108 257.449 309.46C256.033 308.812 254.833 307.912 253.849 306.76C252.889 305.584 252.145 304.204 251.617 302.62C251.113 301.012 250.861 299.272 250.861 297.4ZM254.713 297.4C254.713 298.936 254.869 300.388 255.181 301.756C255.517 303.1 256.009 304.276 256.657 305.284C257.305 306.292 258.121 307.096 259.105 307.696C260.089 308.272 261.253 308.56 262.597 308.56C263.821 308.56 264.889 308.272 265.801 307.696C266.713 307.096 267.457 306.292 268.033 305.284C268.633 304.276 269.077 303.1 269.365 301.756C269.677 300.388 269.833 298.936 269.833 297.4C269.833 295.864 269.677 294.424 269.365 293.08C269.053 291.712 268.573 290.524 267.925 289.516C267.277 288.508 266.461 287.716 265.477 287.14C264.493 286.54 263.329 286.24 261.985 286.24C260.665 286.24 259.537 286.54 258.601 287.14C257.689 287.716 256.945 288.508 256.369 289.516C255.793 290.524 255.373 291.712 255.109 293.08C254.845 294.424 254.713 295.864 254.713 297.4ZM281.002 307.516C281.29 307.804 281.662 308.056 282.118 308.272C282.574 308.464 283.258 308.56 284.17 308.56C284.938 308.56 285.658 308.464 286.33 308.272C287.002 308.056 287.578 307.756 288.058 307.372C288.562 306.964 288.958 306.484 289.246 305.932C289.534 305.356 289.678 304.708 289.678 303.988C289.678 303.028 289.378 302.224 288.778 301.576C288.202 300.928 287.47 300.352 286.582 299.848C285.718 299.344 284.77 298.852 283.738 298.372C282.706 297.892 281.746 297.328 280.858 296.68C279.994 296.008 279.262 295.216 278.662 294.304C278.086 293.368 277.798 292.204 277.798 290.812C277.798 289.804 277.978 288.904 278.338 288.112C278.698 287.32 279.202 286.648 279.85 286.096C280.522 285.544 281.314 285.124 282.226 284.836C283.138 284.524 284.158 284.368 285.286 284.368C286.75 284.368 288.082 284.488 289.282 284.728C290.506 284.944 291.466 285.22 292.162 285.556C292.162 285.964 292.126 286.444 292.054 286.996C292.006 287.524 291.934 288.076 291.838 288.652C291.766 289.228 291.682 289.792 291.586 290.344C291.49 290.872 291.394 291.34 291.298 291.748H290.362L288.922 286.816C288.49 286.624 287.938 286.48 287.266 286.384C286.618 286.288 285.922 286.24 285.178 286.24C283.954 286.24 282.97 286.588 282.226 287.284C281.482 287.956 281.11 288.904 281.11 290.128C281.11 291.112 281.398 291.94 281.974 292.612C282.574 293.284 283.318 293.884 284.206 294.412C285.094 294.94 286.042 295.456 287.05 295.96C288.082 296.44 289.042 297.004 289.93 297.652C290.818 298.3 291.55 299.068 292.126 299.956C292.726 300.844 293.026 301.948 293.026 303.268C293.026 304.348 292.822 305.332 292.414 306.22C292.03 307.108 291.466 307.864 290.722 308.488C289.978 309.112 289.066 309.592 287.986 309.928C286.906 310.264 285.682 310.432 284.314 310.432C282.802 310.432 281.446 310.252 280.246 309.892C279.046 309.532 278.194 309.148 277.69 308.74C277.714 308.332 277.75 307.84 277.798 307.264C277.87 306.688 277.942 306.1 278.014 305.5C278.11 304.876 278.206 304.276 278.302 303.7C278.398 303.124 278.494 302.632 278.59 302.224H279.526L281.002 307.516Z" fill="#001322"/>
    <rect x="183.5" y="0.5" width="149" height="151" fill="white" stroke="black"/>
    <path d="M258 151C299.421 151 333 117.421 333 76C333 34.5786 299.421 1 258 1C216.579 1 183 34.5786 183 76C183 117.421 216.579 151 258 151Z" fill="black"/>
    <path d="M234.047 55.4214L258 130.703L222.422 108.343L234.047 55.3745L258 22.6558V45.6245L222.422 108.437H293.625L258 45.5776V22.6089L282 55.3745L293.625 108.343L258 130.656L282 55.3745" fill="black"/>
    <path d="M234.047 55.4214L258 130.703L222.422 108.343L234.047 55.3745L258 22.6558V45.6245L222.422 108.437H293.625L258 45.5776V22.6089L282 55.3745L293.625 108.343L258 130.656L282 55.3745" stroke="white" stroke-width="0.64" stroke-linecap="round" stroke-linejoin="round"/>
    <g filter="url(#filter0_d)">
        <mask id="path-7-inside-1" fill="white">
            <path d="M116.18 65.045C116.18 65.1183 117.37 66.2714 118.797 67.5894C124.582 72.8976 126.778 76.467 126.797 80.6404C126.815 85.3447 123.666 89.0605 118.376 90.5797C117.516 90.836 116.473 91.0923 116.052 91.1655L115.283 91.2936L114.935 90.1404C114.606 89.0605 114.533 88.9689 113.874 88.7859C113.379 88.6578 112.995 88.3649 112.611 87.8341C112.244 87.3215 111.97 87.1019 111.787 87.1751C110.981 87.5046 109.902 87.4314 108.565 86.9371C107.412 86.5161 107.138 86.3331 106.918 85.8755C106.771 85.5643 106.131 83.1664 105.49 80.5489C104.831 77.9131 104.227 75.5701 104.136 75.3321C103.953 74.8562 103.77 75.3504 101.719 81.8668C101.115 83.8254 100.694 84.8504 100.53 84.8504C100.402 84.8504 100.182 85.1433 100.072 85.4911C99.9073 85.9853 99.7609 86.1317 99.4314 86.1317C98.8823 86.1317 98.6443 85.8206 98.4979 84.8871C98.3514 83.9718 98.2416 84.0084 98.1135 84.9786C97.967 86.0036 97.2166 87.3948 96.6857 87.5961C96.3929 87.7059 96.0634 87.7059 95.7522 87.5961C95.0017 87.3032 94.8736 87.3582 94.1963 88.2734C93.0615 89.8109 92.9333 90.0672 92.9333 90.7445C92.9333 91.5499 93.0431 91.5316 90.4073 91.2387C83.653 90.5065 78.784 87.5229 76.862 82.9651C76.4593 81.9949 76.3861 81.5556 76.3861 79.9082C76.3678 77.8032 76.5875 76.9063 77.6491 74.783C78.5643 72.9526 80.1568 70.9391 82.9391 68.047C84.3302 66.6192 85.3736 65.4477 85.2272 65.4477C84.8794 65.4477 82.39 66.8572 80.5778 68.0836C75.2878 71.6712 72.4324 76.3572 72.4324 81.4641C72.4324 87.0104 75.1597 91.9709 79.9555 95.1375C82.9574 97.1327 85.8861 98.3774 88.6501 98.8716C90.2243 99.1645 90.389 99.2194 90.3341 99.5672C90.2975 99.8784 90.1327 99.9699 89.4555 100.007C88.4304 100.08 86.7647 99.7686 85.7397 99.3109C84.8062 98.8716 83.9641 98.835 83.9641 99.2194C83.9641 99.3659 84.2021 99.7686 84.5133 100.098C84.9892 100.665 86.6366 103.704 86.4902 103.777C86.2705 103.887 85.0441 104.326 84.4767 104.491C83.9092 104.656 83.7811 104.784 83.7445 105.242C83.6713 105.992 83.0855 106.267 81.5663 106.267C80.6327 106.267 80.2483 106.175 79.8823 105.901C79.2599 105.406 78.7657 105.443 78.3264 105.992C77.8688 106.559 77.0085 106.596 76.0017 106.084L75.2878 105.717L74.2994 106.175L73.3293 106.633L72.1029 106.01C70.6934 105.296 66.5383 103.704 66.1173 103.704C65.8977 103.704 65.8611 103.832 65.9526 104.198C66.2272 105.406 67.2156 108.28 67.6915 109.36L68.2223 110.55L67.7464 111.044C67.3986 111.41 67.2339 111.813 67.1424 112.618C67.0509 113.405 66.8495 113.918 66.3736 114.595C65.678 115.584 65.2936 116.554 65.2936 117.286C65.2936 117.542 65.1655 118 65.0191 118.274C64.8726 118.567 64.7445 118.988 64.7445 119.226C64.7445 119.482 64.5798 119.72 64.2869 119.849C63.573 120.178 63.7927 120.562 65.1106 121.313C66.0258 121.825 66.7031 122.063 68.0393 122.283C68.9911 122.429 70.0345 122.594 70.3273 122.649L70.8765 122.741V124.882C70.8765 126.987 70.9131 127.134 71.81 129.971C72.6337 132.497 73.1828 134.876 73.2378 136.194C73.2561 136.451 73.1279 136.579 72.7984 136.615C72.0297 136.725 71.6636 137.201 71.7551 137.933C71.7917 138.281 71.7551 138.775 71.6453 139.032C71.4805 139.471 71.1327 142.253 71.1327 143.242C71.1327 144.267 71.1693 144.816 71.2609 145.127C71.3707 145.493 73.0181 146.353 73.5855 146.353C73.7869 146.353 73.9699 146.518 74.0248 146.738C74.0981 146.957 74.336 147.507 74.574 147.964C74.8119 148.403 74.9767 148.806 74.9584 148.824C74.9218 148.861 74.1896 148.715 73.311 148.513L71.7368 148.147L71.4073 146.939C71.0778 145.749 70.4189 144.706 69.9613 144.706C69.8331 144.706 69.467 144.907 69.1742 145.164C68.4786 145.749 67.4719 146.17 66.7763 146.17C66.1539 146.17 65.2936 146.518 65.2936 146.774C65.2936 146.866 64.5248 147.744 63.6096 148.715C62.6761 149.685 61.5229 150.948 61.0287 151.515C60.5528 152.101 59.9304 152.668 59.6559 152.797C59.3813 152.925 59.1433 153.217 59.1067 153.437C59.0701 153.657 57.9536 154.847 56.5258 156.201C55.153 157.519 53.7252 159.002 53.3774 159.496C53.0297 160.008 52.572 160.503 52.3524 160.612C52.1327 160.722 51.8948 161.015 51.8216 161.253C51.7667 161.509 51.5653 161.766 51.3823 161.821C51.2175 161.876 50.943 162.223 50.7965 162.608C50.6318 163.01 50.2474 163.468 49.8081 163.761C49.1674 164.2 48.9661 164.237 47.7763 164.164L46.4584 164.072L46.257 163.029C46.1289 162.461 45.3967 159.734 44.6096 156.97C43.1453 151.808 37.9102 131.637 35.7503 122.832C35.073 120.105 33.4622 114.302 32.126 109.928C30.204 103.521 29.179 100.519 26.9092 94.5518C25.3534 90.4699 23.9988 87.0653 23.9073 86.9738C23.8158 86.8822 23.6877 86.8639 23.6144 86.9188C23.5412 86.9921 23.7975 90.5248 24.1819 94.7897C24.7859 101.526 25.0422 103.558 26.232 110.66C26.9641 115.144 28.1173 121.276 28.7763 124.296C31.0094 134.401 35.073 154.023 36.0065 159.148C36.5008 161.93 36.995 164.493 37.1048 164.841C37.1963 165.17 37.2695 165.463 37.2329 165.463C37.2146 165.481 36.4825 165.848 35.5855 166.287C33.9747 167.074 33.4439 167.623 33.4439 168.465C33.4439 168.666 33.3158 168.868 33.1694 168.941C33.0229 168.996 32.8948 169.234 32.8948 169.472C32.8948 169.875 32.785 169.929 31.6318 170.131C30.9179 170.241 29.7281 170.332 28.9776 170.332C27.8428 170.332 27.5682 170.387 27.4218 170.662C27.3302 170.826 26.7811 171.138 26.1771 171.339L25.1154 171.705L25.7561 171.815C26.1954 171.888 25.9025 171.943 24.8957 171.961C23.7975 171.98 23.3582 172.053 23.2483 172.236C23.1019 172.51 21.546 173.243 21.0335 173.279C20.8688 173.297 21.3264 173.371 22.0769 173.444C22.809 173.535 23.4863 173.682 23.5595 173.81C23.651 173.975 24.0171 173.92 24.9507 173.627C25.9025 173.334 32.2907 172.181 33.0961 172.163C33.1694 172.163 33.2792 172.382 33.3341 172.639C33.4622 173.114 33.4805 173.114 34.5056 172.986L35.5489 172.858L35.1645 173.297C34.7984 173.682 34.7435 174.341 34.9998 175.201C35.0913 175.494 38.2397 175 39.1366 174.542C39.5393 174.323 40.0335 174.213 40.2166 174.268C40.546 174.377 40.5277 174.414 40.1067 175.036C39.3013 176.226 39.704 177.745 41.022 178.551C41.3514 178.752 41.7541 179.082 41.9372 179.283C42.3033 179.686 42.4131 179.612 40.6193 180.052C39.5942 180.308 38.9536 180.766 39.6308 180.766C39.8322 180.766 40.4362 180.674 40.9487 180.546C42.0287 180.29 42.23 180.436 42.23 181.443C42.23 182.175 42.7792 182.779 43.4198 182.779C43.8774 182.779 44.6096 183.347 44.6096 183.694C44.6096 183.951 45.9825 184.317 46.4767 184.189C47.1356 184.024 47.9044 183.347 47.9044 182.962C47.9044 182.706 48.2705 182.45 49.1308 182.029C49.9362 181.644 50.8697 180.967 51.7483 180.143C52.4988 179.429 53.5056 178.514 53.9815 178.148C55.4458 176.958 56.4526 174.945 55.7387 174.67C55.5923 174.615 55.7021 174.506 55.9767 174.359C56.416 174.158 56.5441 174.213 57.6973 175.091C58.4661 175.677 59.0701 176.007 59.3264 175.97C59.6742 175.915 59.7108 175.823 59.6559 175.036C59.5826 174.176 59.6193 174.103 60.4979 173.261C61.468 172.327 64.4699 170.698 65.2204 170.698C65.4584 170.698 66.2089 170.405 66.8861 170.039C67.8562 169.527 68.2406 169.417 68.7349 169.508C69.5769 169.673 69.9796 169.49 70.2358 168.868C70.4738 168.282 71.7734 167.22 72.2493 167.22C72.5056 167.22 74.0065 166.507 76.5326 165.134C77.0268 164.877 77.6125 164.658 77.8322 164.658C78.2532 164.658 78.8389 164.145 78.8389 163.761C78.8389 163.34 79.7175 162.644 80.2667 162.644C80.9988 162.644 83.5615 160.777 83.7079 160.137C83.7994 159.825 83.7262 159.441 83.5248 159.075C83.232 158.526 83.232 158.434 83.4699 157.94C83.6347 157.647 83.8909 157.281 84.0557 157.153C84.4401 156.823 84.8794 155.981 84.8794 155.542C84.8794 155.359 84.9892 155.048 85.1356 154.865C85.3553 154.554 85.4102 154.59 85.8495 155.341C86.1058 155.78 86.4536 156.604 86.6 157.171C86.9295 158.434 87.3322 159.276 87.9362 159.935C88.1925 160.191 88.3572 160.503 88.284 160.594C88.2291 160.686 88.3938 161.033 88.6501 161.381C89.126 162.04 89.1443 162.809 88.6684 163.651C88.5586 163.852 88.4853 164.072 88.4853 164.127C88.5036 164.2 88.3206 164.438 88.0826 164.658C87.4603 165.244 87.4969 165.463 88.3572 166.14C89.2541 166.873 89.6385 167.879 89.309 168.721C89.1443 169.161 89.1626 169.307 89.4372 169.582C89.7484 169.893 89.73 169.929 89.1443 170.296C88.8148 170.515 88.3389 171.101 88.0826 171.595C87.8447 172.089 87.4054 172.675 87.1125 172.876C86.5451 173.261 86.3986 173.572 85.8678 175.329C85.5749 176.336 85.5749 176.464 85.8495 177.361C86.0325 177.892 86.1607 178.368 86.1607 178.423C86.1607 178.496 85.758 178.386 85.2455 178.185C84.7512 178.002 84.2204 177.892 84.074 177.947C83.5248 178.166 82.3167 181.37 82.3167 182.614C82.3167 183.072 82.1886 183.53 82.0239 183.713C81.7493 184.024 81.7493 184.115 82.0605 184.957C82.3717 185.836 82.3717 185.891 82.0422 186.623C81.8591 187.044 81.548 187.447 81.3832 187.557C81.2002 187.648 80.9988 188.014 80.9256 188.344C80.7975 189.076 80.706 189.112 78.3264 189.296C77.3929 189.35 76.6058 189.479 76.5509 189.552C76.5142 189.625 77.3562 190.101 78.4545 190.595L80.4314 191.51L80.5595 192.297C80.6327 192.718 80.889 193.341 81.1636 193.689C81.5846 194.256 81.6212 194.421 81.5114 195.318C81.4381 196.032 81.4747 196.526 81.6761 196.983C81.8225 197.349 81.9507 198.082 81.9507 198.612C81.9507 199.583 81.6578 200.187 80.5595 201.505C80.1385 201.999 80.1385 202.035 80.4131 202.694C81.0354 204.122 81.0904 204.049 78.8023 205.147C77.6674 205.715 76.3678 206.337 75.9102 206.538L75.0865 206.904L75.8187 207.087C76.2214 207.179 77.5942 207.527 78.8755 207.856L81.2002 208.46L81.31 209.156C81.4015 209.705 81.6578 210.053 82.573 210.84C83.1954 211.389 83.8726 212.158 84.0557 212.542C84.257 212.945 84.6231 213.531 84.8611 213.86C85.1905 214.318 85.3004 214.684 85.2821 215.233C85.2455 216.093 85.337 216.313 85.9044 216.606C86.3437 216.844 87.863 219.333 87.7166 219.571C87.6616 219.663 87.7166 219.937 87.8447 220.157C87.9545 220.395 88.1193 221.145 88.1925 221.823C88.3572 223.561 88.5586 223.726 90.1144 223.47C90.7734 223.36 91.3408 223.232 91.3774 223.195C91.4141 223.159 91.5422 222.719 91.6703 222.225C91.7801 221.713 91.9083 221.218 91.9449 221.09C91.9815 220.926 92.2011 220.944 92.8235 221.145C93.5008 221.383 93.6838 221.548 93.8485 222.06C93.9767 222.427 94.0316 222.719 93.995 222.756C93.0981 223.378 92.4025 224.056 92.3476 224.385C92.2744 224.788 92.8967 226.673 93.4275 227.717C93.5923 228.009 93.7753 228.394 93.8485 228.54C93.9218 228.687 94.1414 228.888 94.3611 228.998C94.6356 229.108 94.7638 229.346 94.7638 229.675C94.7638 229.968 94.9102 230.279 95.1482 230.426C95.3861 230.609 95.4959 230.847 95.4593 231.139C95.4044 231.506 95.1848 231.615 93.7021 232.018C92.7686 232.256 92.0364 232.549 92.073 232.659C92.1462 232.897 93.5008 233.574 94.7088 233.958C95.4959 234.215 95.679 234.361 95.7705 234.8C95.8437 235.075 96.1 235.478 96.3563 235.679C97.0701 236.246 97.2166 237.454 96.6491 238.37C96.4295 238.754 96.2281 239.12 96.2281 239.193C96.2281 239.267 96.5027 239.376 96.8322 239.431C97.3447 239.541 97.4179 239.614 97.4728 240.2C97.4911 240.548 97.6925 241.097 97.9121 241.39C98.2782 241.921 98.2782 241.976 98.0037 242.452C97.8389 242.726 97.7474 243.001 97.8206 243.074C97.8755 243.129 97.7657 243.184 97.546 243.184C97.0701 243.184 96.8505 243.513 97.125 243.788C97.2349 243.898 97.3264 244.136 97.3264 244.3C97.3264 244.483 97.4911 244.904 97.6925 245.252C97.8938 245.582 98.1318 246.387 98.2233 247.028C98.3514 248.016 98.3148 248.346 98.0403 248.986C97.8572 249.426 97.7657 249.773 97.8206 249.773C97.8938 249.773 97.7474 249.975 97.5277 250.213C97.0152 250.762 97.125 250.981 98.0586 251.256C98.626 251.421 98.7907 251.567 98.7907 251.878C98.7907 252.08 98.9189 252.428 99.0653 252.629C99.2117 252.812 99.3399 253.324 99.3399 253.745C99.3399 254.166 99.4131 254.569 99.5229 254.624C99.6327 254.679 99.706 254.935 99.706 255.173C99.706 255.411 99.7975 255.832 99.9256 256.088C100.09 256.473 100.09 256.656 99.9256 256.93C99.7975 257.132 99.7426 257.37 99.7975 257.461C99.8524 257.534 99.8158 257.809 99.7426 258.047C99.6327 258.322 99.6694 258.669 99.8158 259.017C99.9439 259.31 100.054 259.969 100.072 260.481C100.072 261.269 99.9439 261.58 99.1568 262.806C98.6626 263.593 98.1684 264.582 98.0403 265.003C97.7474 266.119 97.125 267.291 96.1915 268.444C95.7522 268.993 95.0017 269.927 94.5258 270.531C93.757 271.482 93.6838 271.665 93.7753 272.27C93.8668 272.819 93.757 273.112 93.1347 274.082C92.0181 275.784 91.7984 276.406 91.652 278.328C91.5422 279.683 91.5605 280.177 91.7618 280.561C92.0913 281.184 92.8967 281.623 93.7387 281.623C94.2512 281.623 94.5075 281.77 95.1115 282.392C95.8254 283.142 95.8986 283.179 96.9969 283.197C97.6742 283.197 98.1501 283.289 98.205 283.417C98.2416 283.545 98.0586 284.094 97.8023 284.662C97.5277 285.247 97.3264 286.034 97.3264 286.455C97.3264 287.096 97.4362 287.334 98.022 287.902C99.3216 289.183 103.495 290.556 107.851 291.141C108.767 291.27 109.938 291.434 110.469 291.507C111.622 291.672 113.013 291.416 113.526 290.958C113.727 290.775 114.075 290.537 114.295 290.428C114.533 290.318 114.844 289.952 115.008 289.64C115.265 289.128 115.283 288.89 115.082 287.81C114.88 286.657 114.899 286.51 115.265 285.742L115.667 284.918L115.301 283.856C115.082 283.289 114.789 282.465 114.642 282.044C114.295 281.074 114.221 279.445 114.514 278.896C114.935 278.145 114.606 276.919 113.654 275.692C112.611 274.356 112.373 273.166 112.794 271.501C112.94 270.915 113.068 270.146 113.068 269.798C113.068 269.268 113.123 269.176 113.489 269.176C113.727 269.176 114.423 268.81 115.045 268.352C116.07 267.602 116.18 267.455 116.18 266.87C116.18 266.522 116.271 266.046 116.381 265.845C116.491 265.643 116.747 264.82 116.93 264.014C117.333 262.367 117.772 261.397 118.45 260.774C118.706 260.518 118.926 260.17 118.926 259.987C118.926 259.603 119.383 259.402 120.665 259.218C122.074 259.017 122.989 258.743 122.916 258.523C122.879 258.431 122.111 257.955 121.214 257.498C119.566 256.638 119.566 256.638 119.438 255.814C119.365 255.356 119.255 254.716 119.182 254.404C119.09 253.892 119.145 253.727 119.658 253.251C120.152 252.794 120.225 252.592 120.152 252.098C120.097 251.732 120.189 251.256 120.408 250.835C120.61 250.451 120.756 249.902 120.756 249.59C120.756 248.858 121.086 248.254 122.092 247.028L122.916 246.039L122.568 245.161C122.385 244.666 122.22 244.044 122.22 243.751C122.22 243.312 122.349 243.202 123.209 242.836C124.765 242.195 124.82 241.994 123.612 241.463C123.044 241.207 122.587 240.914 122.587 240.823C122.587 240.713 122.916 239.999 123.3 239.23C123.978 237.93 124.087 237.821 125.113 237.326C126.815 236.521 126.778 236.393 124.746 236.137C124.087 236.045 123.868 235.935 123.868 235.716C123.868 235.551 123.74 235.258 123.593 235.057C123.447 234.874 123.282 234.343 123.209 233.867C123.008 232.457 122.349 231.377 121.488 231.03C121.086 230.865 120.591 230.737 120.408 230.737C120.152 230.737 119.969 230.481 119.731 229.767C119.566 229.254 119.2 228.485 118.944 228.083C118.01 226.673 117.644 225.465 117.644 223.781C117.644 222.921 117.699 221.804 117.754 221.273L117.882 220.34L118.816 220.431C119.713 220.523 119.804 220.505 120.262 219.937C120.61 219.534 120.756 219.15 120.756 218.674V217.979L122.184 219.37C124.142 221.292 125.46 222.17 126.577 222.28C127.089 222.317 127.529 222.28 127.602 222.17C127.657 222.06 127.547 221.621 127.364 221.164C127.016 220.358 126.76 218.784 126.412 215.27C126.211 213.238 125.955 212.048 125.131 209.54L124.563 207.856L125.314 204.964C125.717 203.39 126.192 201.523 126.339 200.827C126.504 200.113 126.833 199.07 127.089 198.484C127.401 197.825 127.529 197.276 127.455 197.002C127.401 196.764 127.584 195.629 127.876 194.476C128.737 191.108 128.755 189.991 128.078 183.969C127.84 181.791 127.382 179.484 127.089 179.027C126.961 178.825 126.632 178.002 126.339 177.196C125.808 175.695 125.058 174.762 123.3 173.426C122.367 172.712 121.799 171.43 121.744 169.875C121.726 169.179 121.69 168.538 121.69 168.465C121.671 168.41 121.269 168.209 120.756 168.044L119.841 167.733V166.854C119.841 166.067 119.914 165.902 120.591 165.225C121.25 164.566 121.342 164.402 121.232 163.889C121.14 163.45 121.232 163.193 121.58 162.717C121.836 162.388 122.037 162.04 122.037 161.949C122.037 161.857 122.202 161.638 122.403 161.454C122.678 161.198 122.715 161.052 122.568 160.777C122.422 160.484 122.477 160.283 122.843 159.734C123.099 159.368 123.319 158.965 123.319 158.837C123.319 158.709 123.666 158.27 124.069 157.849C124.49 157.409 125.332 156.476 125.936 155.78C127.089 154.426 129.103 152.54 129.762 152.192C130.091 152.009 130.201 152.046 130.402 152.321C131.043 153.163 131.025 153.236 130.091 154.279C129.615 154.847 129.139 155.506 129.085 155.725C129.011 155.963 128.865 156.256 128.755 156.402C128.499 156.714 128.06 157.885 128.041 158.251C128.041 158.398 127.95 158.8 127.858 159.148C127.693 159.661 127.73 159.899 127.986 160.375C128.279 160.942 128.297 161.033 128.005 161.729C127.492 162.992 127.62 164.731 128.371 167.092C129.048 169.197 129.634 170.405 130.274 170.973C130.457 171.138 130.677 171.522 130.732 171.815C130.805 172.108 131.043 172.474 131.281 172.639C131.72 172.931 133.478 175.915 134.008 177.288C134.192 177.727 134.375 178.441 134.411 178.844C134.466 179.246 134.594 179.667 134.704 179.796C134.814 179.924 134.832 180.381 134.759 180.912L134.649 181.809L135.528 182.12C136.004 182.303 136.663 182.505 136.955 182.578C137.614 182.724 137.614 182.852 137.193 186.019C136.901 188.161 136.718 188.563 135.601 189.625C135.29 189.936 135.034 190.284 135.034 190.412C135.034 190.705 134.869 190.705 134.301 190.376C133.661 190.009 133.386 190.046 133.386 190.485C133.386 190.943 133.679 191.51 134.173 192.06L134.539 192.481L134.063 192.92C133.789 193.176 133.569 193.524 133.569 193.707C133.569 194.073 132.672 196.05 132.05 197.057C131.83 197.404 131.629 197.77 131.611 197.88C131.592 197.972 131.281 198.869 130.915 199.857C130.201 201.852 130.091 202.914 130.567 202.914C130.732 202.914 131.574 202.164 132.453 201.248L134.027 199.601L134.704 199.876L135.363 200.168L135.088 201.303C134.887 202.09 134.796 203.317 134.796 205.111C134.796 207.508 134.85 207.893 135.29 209.138C135.894 210.84 136.772 212.176 137.871 213.091C138.621 213.695 138.713 213.842 138.621 214.336C138.566 214.647 138.511 216.844 138.493 219.223L138.456 223.543L137.981 223.433C137.413 223.269 137.395 223.14 136.846 219.205L136.443 216.185L135.546 215.233C135.07 214.72 134.667 214.135 134.667 213.97C134.667 213.787 134.613 213.695 134.558 213.75C134.503 213.823 134.466 216.185 134.484 219.04C134.503 224.586 134.594 225.428 135.546 228.174C135.93 229.309 136.187 229.73 137.029 230.554L138.054 231.56V233.208C138.054 234.105 138.127 235.057 138.218 235.295C138.365 235.716 138.347 235.716 137.523 235.606C137.047 235.533 136.406 235.349 136.077 235.221C135.455 234.965 133.99 233.647 133.624 233.025C133.24 232.366 133.569 234.471 134.246 236.96C135.345 241.024 136.608 243.165 138.237 243.678C138.749 243.843 138.804 243.953 138.987 245.051C139.097 245.71 139.372 246.552 139.61 246.918C139.976 247.522 139.994 247.632 139.756 247.87C139.61 248.016 138.969 248.199 138.31 248.272C136.937 248.437 135.857 248.089 134.905 247.174L134.32 246.607L134.667 247.742C135.308 249.883 137.029 253.05 138.292 254.368C139.536 255.704 140.232 255.997 141.403 255.649C141.971 255.484 142.008 255.503 142.245 256.07C142.374 256.4 142.795 256.967 143.161 257.315C143.82 257.955 143.82 257.955 143.545 258.596C143.216 259.402 141.824 260.665 140.964 260.939C140.305 261.159 139.042 261.122 138.438 260.848C138.109 260.701 138.109 260.719 138.438 261.232C139.207 262.458 140.507 263.776 141.733 264.6C142.868 265.387 143.179 265.497 144.314 265.607C145.705 265.753 146.181 265.607 147.279 264.673L147.865 264.179L148.597 264.783C149.055 265.131 149.75 265.46 150.373 265.607C150.94 265.753 151.434 265.936 151.471 266.046C151.508 266.156 151.727 266.522 151.947 266.851C152.203 267.236 152.313 267.584 152.24 267.73C152.166 267.876 152.038 268.188 151.965 268.444L151.837 268.902L152.368 268.389C153.265 267.565 153.375 267.693 153.228 269.451C153.155 270.311 153.155 271.007 153.21 271.007C153.375 271.007 154.18 269.377 154.326 268.755C154.491 268.078 154.839 268.206 155.04 269.011C155.187 269.56 155.223 269.597 155.37 269.268C155.443 269.066 155.516 268.737 155.516 268.535C155.553 267.986 156.505 267.529 157.658 267.529H158.646V268.389C158.646 269.67 159.104 272.05 159.58 273.203C160.55 275.601 162.069 276.864 163.955 276.864C165.455 276.864 166.426 276.388 167.652 275.052C169.263 273.313 170.489 270.402 170.874 267.437L171.002 266.357L171.478 267.272C171.807 267.913 171.935 268.389 171.88 268.828L171.807 269.451L172.265 268.902L172.741 268.352V269.579C172.741 270.274 172.814 270.823 172.887 270.823C173.088 270.823 173.656 269.615 173.656 269.176C173.656 268.975 173.747 268.81 173.839 268.81C173.949 268.81 174.022 268.956 174.022 269.121C174.022 269.377 174.059 269.396 174.187 269.194C174.48 268.737 175.285 269.506 175.322 270.274C175.376 271.391 175.395 271.464 175.523 271.665C175.614 271.794 175.578 272.306 175.486 272.837C175.376 273.368 175.303 274.008 175.303 274.283C175.322 274.722 175.34 274.741 175.56 274.429C175.871 274.027 176.402 274.21 176.402 274.722C176.402 275.088 176.402 275.088 176.676 274.741C176.987 274.356 176.987 274.265 176.603 276.223C176.511 276.718 176.383 277.505 176.328 277.962C176.255 278.731 176.255 278.768 176.511 278.42C176.676 278.218 177.006 277.651 177.244 277.175C177.719 276.242 178.049 276.15 178.25 276.882C178.342 277.267 178.397 277.175 178.69 276.297C179.001 275.326 179.037 275.29 179.568 275.363C180.575 275.509 180.941 274.411 180.245 273.295C179.934 272.782 179.916 272.672 180.154 272.581C180.3 272.526 180.648 272.562 180.904 272.654C182.003 273.075 184.126 272.379 185.206 271.244C187.256 269.121 187.695 265.57 186.396 261.818C186.011 260.719 185.993 260.555 186.249 260.665C186.414 260.738 186.689 260.829 186.853 260.884C187.018 260.939 187.256 261.195 187.402 261.452L187.622 261.946L187.75 261.397L187.86 260.848L188.153 261.397C188.318 261.69 188.665 262.147 188.94 262.403L189.434 262.861L189.288 262.312C189.233 262.001 189.05 261.488 188.922 261.14C188.629 260.427 188.702 260.225 189.123 260.573C189.508 260.902 189.672 260.683 189.361 260.244C188.995 259.713 189.16 258.23 189.617 257.992C189.874 257.864 190.038 257.864 190.24 258.029C190.441 258.193 190.496 258.193 190.496 258.01C190.496 257.846 190.624 257.882 190.899 258.12L191.283 258.468L191.137 257.827C191.063 257.48 190.954 256.857 190.88 256.454C190.807 256.052 190.642 255.539 190.533 255.32C190.276 254.862 190.24 254.166 190.478 254.166C191.1 254.166 193.242 258.102 193.242 259.273C193.26 259.731 193.26 259.731 193.534 259.383C193.681 259.182 194.01 258.358 194.248 257.553C194.816 255.594 194.633 254.148 193.644 253.013C193.022 252.318 193.626 252.574 195.145 253.654C196.024 254.295 197.049 255.008 197.415 255.246L198.092 255.686L197.726 255.246C197.543 255.008 196.921 254.331 196.353 253.727L195.347 252.665L196.262 253.324C196.774 253.691 197.671 254.331 198.275 254.734C199.355 255.466 199.355 255.448 197.543 253.672C196.536 252.684 195.072 251.274 194.267 250.542C192.839 249.224 192.839 249.224 193.059 248.657C193.223 248.272 193.388 248.144 193.589 248.218C195.182 248.803 198.641 251.823 199.355 253.233L199.776 254.057L199.904 253.471C200.252 251.897 199.154 247.815 197.836 245.875C196.774 244.3 195.603 243.495 192.656 242.36C191.137 241.774 190.862 241.61 190.862 241.262C190.862 240.896 190.935 240.859 191.649 240.914C196.481 241.298 199.52 241.829 201.9 242.726C202.577 242.982 203.291 243.184 203.474 243.184C203.657 243.184 204.297 243.422 204.883 243.733C205.469 244.026 205.981 244.282 206 244.282C206.018 244.282 205.908 244.044 205.762 243.751C205.286 242.799 202.376 239.889 200.783 238.791C199.264 237.711 196.573 236.521 194.633 236.027L193.736 235.807L194.175 235.459L194.614 235.112L194.212 235.203C193.974 235.258 193.626 235.368 193.406 235.423C193.205 235.478 192.784 235.423 192.491 235.313C191.942 235.075 191.942 235.002 192.271 234.068C192.418 233.72 192.125 233.812 191.667 234.233C191.283 234.599 191.173 234.617 190.423 234.398C189.636 234.178 189.599 234.16 189.215 232.915C188.977 232.219 188.739 231.652 188.665 231.652C188.592 231.652 188.409 232.165 188.263 232.787C188.007 233.922 187.988 233.94 187.311 233.995C186.762 234.05 186.56 233.958 186.268 233.592C186.066 233.318 185.718 233.025 185.517 232.915C185.188 232.732 185.151 232.75 185.261 233.025C185.627 233.977 185.609 234.215 185.169 234.215C184.931 234.215 184.382 234.013 183.961 233.757C183.138 233.299 182.973 233.336 183.449 233.849C183.723 234.141 183.559 234.178 181.216 234.251C179.019 234.343 178.525 234.416 177.408 234.855C175.56 235.587 173.217 237.363 172.631 238.443L172.393 238.937L173.162 238.718C173.711 238.553 174.882 238.534 177.317 238.626C180.685 238.754 183.302 239.193 186.67 240.182C188.153 240.621 187.732 241.17 185.92 241.17C184.327 241.17 180.538 240.603 179.733 240.255C179.275 240.054 178.873 239.907 178.836 239.962C178.745 240.054 180.3 241.06 182.076 242.086C184.382 243.403 187.091 245.069 187.366 245.307C187.512 245.454 186.744 245.106 185.627 244.557C183.522 243.513 182.479 243.22 183.357 243.934C183.613 244.136 184.364 244.721 185.06 245.216C185.737 245.728 186.286 246.167 186.286 246.204C186.286 246.241 185.828 246.076 185.279 245.838C184.73 245.582 184.272 245.417 184.272 245.472C184.272 245.508 184.895 246.003 185.645 246.57C186.396 247.119 187.018 247.632 187.018 247.687C187.018 247.815 186.725 247.632 185.938 247.046L185.316 246.57L185.554 247.028C185.682 247.284 186.03 247.778 186.304 248.144C186.597 248.51 186.835 248.986 186.835 249.206C186.835 249.407 187.073 249.755 187.384 249.993C187.933 250.396 188.849 251.75 188.849 252.135C188.849 252.501 188.409 252.336 187.97 251.823L187.549 251.329L187.677 251.787L187.787 252.244L187.311 251.805C186.762 251.293 186.707 251.494 187.11 252.482C187.274 252.849 187.348 253.343 187.293 253.581C187.238 253.837 187.293 254.203 187.439 254.423C187.878 255.1 187.952 255.741 187.64 256.015C187.384 256.217 187.293 256.18 187 255.814L186.652 255.356V255.796C186.652 256.198 186.597 256.162 185.92 255.429C185.133 254.551 185.041 254.624 185.462 255.814C185.828 256.857 185.81 257.04 185.334 256.619C184.95 256.271 184.95 256.271 185.078 256.729C185.243 257.315 185.243 257.37 185.224 258.358L185.188 259.182L184.657 258.34C183.302 256.217 180.85 254.148 179.678 254.166C177.976 254.203 177.189 256.93 177.097 263.099C177.06 265.387 177.024 265.881 176.804 265.79C176.676 265.735 176.402 265.698 176.2 265.698C175.999 265.698 175.852 265.57 175.852 265.369C175.852 265.204 175.688 264.783 175.486 264.454C175.175 263.941 175.139 263.74 175.285 263.191L175.468 262.532L174.974 263.026C174.681 263.282 174.388 263.502 174.315 263.502C174.242 263.502 174.187 263.154 174.205 262.715C174.242 262.294 174.242 261.653 174.223 261.305L174.168 260.665L173.729 261.58C173.491 262.074 173.29 262.678 173.29 262.898C173.29 263.465 172.997 263.428 172.85 262.861C172.704 262.275 172.375 262.44 172.375 263.099C172.356 263.392 172.1 263.886 171.734 264.307L171.093 265.021L171.075 264.49C171.038 263.044 170.562 260.591 170.087 259.456C169.098 257.022 167.524 255.631 165.767 255.631C163.552 255.631 161.612 257.315 160.22 260.463C159.726 261.598 159.012 263.959 159.012 264.527C159.012 265.241 158.774 265.369 157.859 265.131C157.383 265.021 156.999 264.82 156.999 264.691C156.999 264.563 156.834 264.27 156.651 264.014C156.358 263.648 156.322 263.428 156.45 262.898C156.614 262.147 156.486 262.019 156.12 262.586C155.992 262.788 155.772 262.953 155.626 262.953C155.425 262.953 155.351 262.641 155.315 261.635L155.26 260.298L154.711 261.433C154.418 262.074 154.107 262.586 154.034 262.586C153.979 262.586 153.85 262.312 153.777 262.001L153.649 261.397L153.429 261.909L153.228 262.403L152.587 261.744C152.258 261.397 151.581 260.848 151.105 260.536C150.153 259.932 150.135 259.914 150.428 259.164C150.537 258.889 150.684 257.955 150.757 257.095C150.885 255.741 150.849 255.246 150.409 253.251C150.135 251.988 149.842 250.597 149.769 250.139C149.622 249.169 149.329 248.529 149.311 249.133C149.311 249.718 148.103 252.428 147.371 253.544C147.005 254.093 146.693 254.533 146.657 254.533C146.62 254.533 146.382 254.166 146.126 253.709L145.668 252.885L146.181 251.823C146.474 251.256 146.822 250.359 146.986 249.865C147.352 248.712 147.664 245.527 147.664 243.111C147.645 241.317 147.645 241.28 147.352 241.811C146.675 243.074 144.479 245.38 143.966 245.38C143.875 245.38 143.82 245.106 143.801 244.776C143.801 244.465 143.692 243.861 143.563 243.458C143.362 242.744 143.362 242.726 144.277 241.5C144.863 240.713 145.357 239.816 145.613 239.029C145.998 237.802 146.785 234.306 147.005 232.805L147.114 232.055L146.053 233.098C144.955 234.215 144.277 234.636 143.362 234.837L142.813 234.947L142.831 233.299L142.868 231.652L143.655 231.048C144.607 230.334 145.613 228.595 146.291 226.435C146.675 225.245 146.822 224.129 147.114 220.395C147.316 217.869 147.481 215.562 147.481 215.27V214.72L147.133 215.27C146.95 215.581 146.492 216.075 146.126 216.368C145.467 216.899 145.449 216.972 144.826 219.937C144.479 221.603 144.149 223.14 144.094 223.36C144.021 223.671 143.856 223.781 143.472 223.781C142.959 223.781 142.959 223.781 143.087 222.921C143.179 222.427 143.289 220.212 143.362 217.997L143.49 213.933L144.186 213.549C145.192 212.981 146.254 211.627 146.84 210.163C147.243 209.119 147.352 208.497 147.426 206.74C147.572 203.793 147.096 201.065 145.906 197.935C145.577 197.075 145.577 197.057 145.98 196.636C146.254 196.343 146.382 195.977 146.382 195.446C146.382 194.695 146.401 194.695 147.279 194.421C149.476 193.762 150.043 193.011 149.421 191.529C149.219 191.071 149.183 190.504 149.256 189.497C149.384 187.813 149.073 186.092 148.451 185.031C148.121 184.463 148.03 184.097 148.121 183.731C148.176 183.438 148.121 182.962 147.975 182.614C147.792 182.193 147.755 181.791 147.865 181.26C148.231 179.448 148.542 176.794 148.451 176.336C148.396 176.025 148.506 175.586 148.78 175.11C149.183 174.377 149.183 174.359 148.853 173.737C148.524 173.133 148.524 173.078 148.927 170.918C149.238 169.252 149.311 168.337 149.238 167.111C149.183 166.214 149.055 163.706 148.927 161.546C148.725 157.647 148.725 157.611 148.213 157.043C147.773 156.531 147.718 156.348 147.792 155.634C147.883 154.902 147.847 154.792 147.462 154.59C147.224 154.462 146.62 154.096 146.108 153.748C145.412 153.272 144.918 153.108 144.039 153.016C142.959 152.888 142.85 152.833 142.245 152.119C141.55 151.259 141.458 150.637 141.898 149.593C142.044 149.227 142.172 148.477 142.172 147.946C142.172 146.298 142.3 145.951 143.179 145.42C143.838 144.999 143.966 144.816 144.039 144.23C144.113 143.681 144.058 143.425 143.765 143.113C143.527 142.839 143.435 142.564 143.527 142.271C143.6 141.96 143.508 141.667 143.252 141.338C143.051 141.082 142.941 140.77 142.996 140.679C143.069 140.569 143.014 140.349 142.886 140.185C142.758 140.038 142.666 139.636 142.703 139.288C142.721 138.903 142.593 138.409 142.3 137.897C142.044 137.457 141.788 136.817 141.733 136.469C141.605 135.755 141.989 133.559 142.447 132.259C142.612 131.801 142.703 131.27 142.648 131.087C142.593 130.886 142.85 129.989 143.197 129.092C144.021 127.006 144.277 124.937 143.929 123.418L143.692 122.375L145.339 121.533C147.316 120.526 148.689 119.629 150.007 118.439C151.508 117.085 151.636 116.426 150.482 115.876C150.116 115.712 149.787 115.437 149.75 115.272C149.695 115.108 149.567 114.815 149.476 114.65C149.384 114.467 149.311 114.046 149.311 113.68C149.311 113.167 149.219 113.003 148.762 112.765C148.469 112.6 148.213 112.362 148.213 112.197C148.213 112.051 147.92 111.502 147.572 110.971C147.133 110.312 146.931 109.818 146.931 109.36C146.931 108.811 146.803 108.573 146.291 108.115L145.632 107.548L146.089 106.047C146.51 104.638 146.931 102.679 147.206 100.812C147.316 100.171 147.279 100.043 147.023 100.043C146.62 100.043 143.087 101.928 141.074 103.21L139.518 104.217L138.951 103.869C138.273 103.466 137.633 103.429 137.157 103.796C136.974 103.942 136.406 104.198 135.93 104.345C135.052 104.638 135.034 104.638 134.448 104.198L133.862 103.722L133.13 104.162C132.178 104.692 130.457 105.059 129.469 104.912C128.883 104.821 128.627 104.656 128.297 104.162C128.078 103.814 127.73 103.521 127.547 103.521C127.364 103.521 126.87 103.393 126.449 103.246C126.028 103.1 125.57 103.027 125.424 103.082C125.277 103.155 125.021 103.667 124.856 104.235C124.692 104.802 124.325 105.589 124.051 105.992C123.538 106.724 123.538 106.761 123.52 109.928C123.502 114.559 123.666 114.046 122.111 114.064L120.774 114.101L120.39 112.417C120.17 111.502 119.914 110.385 119.823 109.946C119.731 109.488 119.548 108.994 119.402 108.848C119.182 108.573 118.871 107.731 118.834 107.273C118.834 107.164 118.651 106.871 118.413 106.633C117.937 106.12 117.919 105.974 118.267 105.846C118.706 105.663 120.884 102.185 121.195 101.178C121.342 100.647 121.598 100.043 121.744 99.8235C122.111 99.3109 122.111 98.7801 121.781 98.652C121.635 98.5971 120.793 98.7984 119.896 99.0913C117.663 99.8601 116.619 99.9882 116.381 99.5306C116.217 99.2194 116.345 99.1645 117.791 98.8716C121.616 98.0845 126.723 94.625 128.773 91.4583C131.409 87.3764 131.903 81.8485 130.073 77.2175C128.847 74.124 125.955 70.7011 122.678 68.4497C120.298 66.8206 116.18 64.6607 116.18 65.045ZM136.315 197.331C136.187 197.496 136.04 197.569 135.985 197.514C135.93 197.478 136.004 197.313 136.132 197.148C136.26 196.983 136.406 196.91 136.461 196.965C136.516 197.002 136.443 197.166 136.315 197.331ZM143.984 198.741C144.991 201.139 145.595 205.239 145.247 207.454C145.028 208.918 144.424 210.309 143.673 211.096C143.033 211.792 142.721 211.847 142.282 211.352C141.77 210.803 141.129 210.73 140.287 211.133C139.591 211.481 139.536 211.481 139.134 211.188C138.585 210.767 137.706 209.266 137.322 208.058C136.919 206.849 136.864 203.738 137.212 201.999L137.431 200.791L139.207 200.754C140.928 200.718 141.806 200.443 141.806 199.967C141.806 199.692 143.252 197.972 143.472 197.972C143.563 197.972 143.801 198.32 143.984 198.741ZM141.879 216.642C141.806 217.905 141.696 219.498 141.623 220.212C141.495 221.383 141.495 221.42 141.458 220.578C141.403 218.162 141.202 216.642 140.964 216.642C140.818 216.642 140.708 216.661 140.708 216.679C140.69 217.228 140.14 221.127 140.067 221.182C139.994 221.273 140.049 216.551 140.14 214.629C140.159 214.428 140.378 214.354 141.074 214.354H142.008L141.879 216.642ZM141.403 227.167C141.44 227.662 141.422 228.247 141.349 228.485C141.257 228.87 141.147 228.925 140.561 228.87C139.921 228.815 139.884 228.778 139.829 228.083C139.793 227.698 139.811 227.094 139.884 226.783C139.976 226.216 140.031 226.179 140.671 226.234C141.349 226.27 141.349 226.27 141.403 227.167ZM141.349 232.402C141.422 232.622 141.422 233.226 141.349 233.775C141.239 234.709 141.202 234.764 140.708 234.764C140.415 234.764 140.067 234.819 139.921 234.874C139.61 234.983 139.445 234.013 139.573 232.787L139.665 232.018H140.452C141.092 232.018 141.257 232.091 141.349 232.402ZM188.08 237.143C187.97 237.546 187.824 237.875 187.732 237.875C187.64 237.875 187.311 237.638 186.981 237.326C186.469 236.869 186.414 236.759 186.652 236.594C186.798 236.503 187.219 236.411 187.586 236.411H188.263L188.08 237.143ZM191.338 238.04C191.1 238.406 190.862 238.242 190.862 237.747C190.862 237.29 190.88 237.271 191.155 237.546C191.32 237.711 191.393 237.93 191.338 238.04ZM141.477 237.967C141.55 238.059 141.623 238.681 141.623 239.34V240.53L140.909 240.548C140.232 240.585 140.195 240.548 140.086 239.907C139.957 239.139 139.939 237.967 140.049 237.857C140.214 237.711 141.349 237.784 141.477 237.967ZM142.191 244.099C142.264 244.355 142.319 244.849 142.337 245.197C142.355 245.783 142.282 245.893 141.715 246.149C141.074 246.442 141.056 246.442 140.818 245.948C140.671 245.691 140.525 245.087 140.507 244.648C140.452 243.861 140.47 243.824 140.982 243.715C141.824 243.532 142.062 243.605 142.191 244.099ZM143.618 249.664C143.893 250.762 143.875 251.476 143.6 251.366C143.472 251.329 143.124 251.366 142.85 251.439C142.264 251.604 142.136 251.402 141.898 249.993C141.788 249.279 141.806 249.224 142.209 249.224C142.429 249.224 142.758 249.133 142.904 249.041C143.344 248.767 143.399 248.803 143.618 249.664ZM145.101 254.935L145.449 255.722L145.009 256.18L144.552 256.638L144.113 256.18C143.399 255.448 143.344 254.862 143.948 254.496C144.662 254.057 144.717 254.075 145.101 254.935ZM181.435 257.168C181.984 257.699 182.662 258.541 182.973 259.017L183.522 259.877L183.138 260.408C182.808 260.829 182.79 260.976 182.991 261.214C183.119 261.36 183.485 261.488 183.797 261.488C184.327 261.488 184.419 261.561 184.693 262.349C185.718 265.296 185.426 268.169 183.925 269.78C182.826 270.988 181.875 271.098 180.904 270.183C180.52 269.835 180.154 269.542 180.081 269.542C180.008 269.542 179.806 269.249 179.623 268.883C179.349 268.297 179.349 268.169 179.568 267.913C180.355 267.016 180.3 266.138 179.403 265.735C178.818 265.46 178.708 264.673 178.854 261.891C179.074 257.827 179.44 256.18 180.099 256.18C180.3 256.18 180.904 256.619 181.435 257.168ZM166.645 258.157C167.634 258.706 168.659 261.14 168.842 263.41L168.933 264.691L168.366 264.911C167.615 265.186 167.597 265.79 168.348 266.211C169.007 266.595 169.025 266.87 168.531 268.828C167.597 272.434 165.986 274.667 164.302 274.667C162.765 274.667 161.648 273.13 161.099 270.311C160.696 268.169 160.715 268.078 161.593 268.078C162.454 268.078 162.948 267.858 163.222 267.327C163.643 266.54 162.801 265.698 161.575 265.698C161.081 265.698 161.026 265.643 161.026 265.131C161.026 263.52 162.527 259.859 163.625 258.761C164.687 257.699 165.474 257.534 166.645 258.157ZM186.835 257.901C186.835 258.175 186.506 258.468 186.359 258.322C186.231 258.193 186.487 257.644 186.67 257.644C186.762 257.644 186.835 257.754 186.835 257.901ZM147.938 258.56L148.231 259.109H147.645C147.334 259.109 146.84 259.273 146.547 259.493C146.254 259.694 146.016 259.804 146.016 259.713C146.016 259.639 145.961 259.383 145.906 259.145C145.797 258.797 145.851 258.743 146.364 258.743C146.73 258.743 147.005 258.614 147.151 258.376C147.462 257.882 147.609 257.919 147.938 258.56ZM188.116 258.981C188.116 259.292 187.421 259.951 187.274 259.786C187.201 259.731 187.293 259.548 187.457 259.383C187.622 259.218 187.75 258.999 187.75 258.907C187.75 258.816 187.842 258.743 187.933 258.743C188.043 258.743 188.116 258.852 188.116 258.981ZM150.72 262.806C151.251 263.245 151.672 263.648 151.672 263.703C151.691 263.776 151.343 263.758 150.922 263.648C150.043 263.465 149.11 262.678 149.256 262.294C149.402 261.873 149.732 262.001 150.72 262.806ZM155.351 264.6C155.351 264.875 155.26 264.82 154.876 264.399C154.528 263.996 154.528 263.996 154.949 264.216C155.168 264.325 155.351 264.508 155.351 264.6ZM174.223 265.167C174.443 265.588 174.187 265.625 173.29 265.296C172.741 265.112 172.722 265.076 172.997 264.875C173.381 264.582 173.985 264.728 174.223 265.167ZM154.162 266.76C154.052 266.888 153.338 266.412 153.338 266.229C153.338 266.138 153.539 266.192 153.777 266.375C154.015 266.559 154.198 266.723 154.162 266.76ZM173.29 266.98C173.29 267.382 172.832 267.309 172.667 266.87C172.613 266.705 172.686 266.613 172.924 266.613C173.162 266.613 173.29 266.742 173.29 266.98Z"/>
        </mask>
        <path d="M116.18 65.045C116.18 65.1183 117.37 66.2714 118.797 67.5894C124.582 72.8976 126.778 76.467 126.797 80.6404C126.815 85.3447 123.666 89.0605 118.376 90.5797C117.516 90.836 116.473 91.0923 116.052 91.1655L115.283 91.2936L114.935 90.1404C114.606 89.0605 114.533 88.9689 113.874 88.7859C113.379 88.6578 112.995 88.3649 112.611 87.8341C112.244 87.3215 111.97 87.1019 111.787 87.1751C110.981 87.5046 109.902 87.4314 108.565 86.9371C107.412 86.5161 107.138 86.3331 106.918 85.8755C106.771 85.5643 106.131 83.1664 105.49 80.5489C104.831 77.9131 104.227 75.5701 104.136 75.3321C103.953 74.8562 103.77 75.3504 101.719 81.8668C101.115 83.8254 100.694 84.8504 100.53 84.8504C100.402 84.8504 100.182 85.1433 100.072 85.4911C99.9073 85.9853 99.7609 86.1317 99.4314 86.1317C98.8823 86.1317 98.6443 85.8206 98.4979 84.8871C98.3514 83.9718 98.2416 84.0084 98.1135 84.9786C97.967 86.0036 97.2166 87.3948 96.6857 87.5961C96.3929 87.7059 96.0634 87.7059 95.7522 87.5961C95.0017 87.3032 94.8736 87.3582 94.1963 88.2734C93.0615 89.8109 92.9333 90.0672 92.9333 90.7445C92.9333 91.5499 93.0431 91.5316 90.4073 91.2387C83.653 90.5065 78.784 87.5229 76.862 82.9651C76.4593 81.9949 76.3861 81.5556 76.3861 79.9082C76.3678 77.8032 76.5875 76.9063 77.6491 74.783C78.5643 72.9526 80.1568 70.9391 82.9391 68.047C84.3302 66.6192 85.3736 65.4477 85.2272 65.4477C84.8794 65.4477 82.39 66.8572 80.5778 68.0836C75.2878 71.6712 72.4324 76.3572 72.4324 81.4641C72.4324 87.0104 75.1597 91.9709 79.9555 95.1375C82.9574 97.1327 85.8861 98.3774 88.6501 98.8716C90.2243 99.1645 90.389 99.2194 90.3341 99.5672C90.2975 99.8784 90.1327 99.9699 89.4555 100.007C88.4304 100.08 86.7647 99.7686 85.7397 99.3109C84.8062 98.8716 83.9641 98.835 83.9641 99.2194C83.9641 99.3659 84.2021 99.7686 84.5133 100.098C84.9892 100.665 86.6366 103.704 86.4902 103.777C86.2705 103.887 85.0441 104.326 84.4767 104.491C83.9092 104.656 83.7811 104.784 83.7445 105.242C83.6713 105.992 83.0855 106.267 81.5663 106.267C80.6327 106.267 80.2483 106.175 79.8823 105.901C79.2599 105.406 78.7657 105.443 78.3264 105.992C77.8688 106.559 77.0085 106.596 76.0017 106.084L75.2878 105.717L74.2994 106.175L73.3293 106.633L72.1029 106.01C70.6934 105.296 66.5383 103.704 66.1173 103.704C65.8977 103.704 65.8611 103.832 65.9526 104.198C66.2272 105.406 67.2156 108.28 67.6915 109.36L68.2223 110.55L67.7464 111.044C67.3986 111.41 67.2339 111.813 67.1424 112.618C67.0509 113.405 66.8495 113.918 66.3736 114.595C65.678 115.584 65.2936 116.554 65.2936 117.286C65.2936 117.542 65.1655 118 65.0191 118.274C64.8726 118.567 64.7445 118.988 64.7445 119.226C64.7445 119.482 64.5798 119.72 64.2869 119.849C63.573 120.178 63.7927 120.562 65.1106 121.313C66.0258 121.825 66.7031 122.063 68.0393 122.283C68.9911 122.429 70.0345 122.594 70.3273 122.649L70.8765 122.741V124.882C70.8765 126.987 70.9131 127.134 71.81 129.971C72.6337 132.497 73.1828 134.876 73.2378 136.194C73.2561 136.451 73.1279 136.579 72.7984 136.615C72.0297 136.725 71.6636 137.201 71.7551 137.933C71.7917 138.281 71.7551 138.775 71.6453 139.032C71.4805 139.471 71.1327 142.253 71.1327 143.242C71.1327 144.267 71.1693 144.816 71.2609 145.127C71.3707 145.493 73.0181 146.353 73.5855 146.353C73.7869 146.353 73.9699 146.518 74.0248 146.738C74.0981 146.957 74.336 147.507 74.574 147.964C74.8119 148.403 74.9767 148.806 74.9584 148.824C74.9218 148.861 74.1896 148.715 73.311 148.513L71.7368 148.147L71.4073 146.939C71.0778 145.749 70.4189 144.706 69.9613 144.706C69.8331 144.706 69.467 144.907 69.1742 145.164C68.4786 145.749 67.4719 146.17 66.7763 146.17C66.1539 146.17 65.2936 146.518 65.2936 146.774C65.2936 146.866 64.5248 147.744 63.6096 148.715C62.6761 149.685 61.5229 150.948 61.0287 151.515C60.5528 152.101 59.9304 152.668 59.6559 152.797C59.3813 152.925 59.1433 153.217 59.1067 153.437C59.0701 153.657 57.9536 154.847 56.5258 156.201C55.153 157.519 53.7252 159.002 53.3774 159.496C53.0297 160.008 52.572 160.503 52.3524 160.612C52.1327 160.722 51.8948 161.015 51.8216 161.253C51.7667 161.509 51.5653 161.766 51.3823 161.821C51.2175 161.876 50.943 162.223 50.7965 162.608C50.6318 163.01 50.2474 163.468 49.8081 163.761C49.1674 164.2 48.9661 164.237 47.7763 164.164L46.4584 164.072L46.257 163.029C46.1289 162.461 45.3967 159.734 44.6096 156.97C43.1453 151.808 37.9102 131.637 35.7503 122.832C35.073 120.105 33.4622 114.302 32.126 109.928C30.204 103.521 29.179 100.519 26.9092 94.5518C25.3534 90.4699 23.9988 87.0653 23.9073 86.9738C23.8158 86.8822 23.6877 86.8639 23.6144 86.9188C23.5412 86.9921 23.7975 90.5248 24.1819 94.7897C24.7859 101.526 25.0422 103.558 26.232 110.66C26.9641 115.144 28.1173 121.276 28.7763 124.296C31.0094 134.401 35.073 154.023 36.0065 159.148C36.5008 161.93 36.995 164.493 37.1048 164.841C37.1963 165.17 37.2695 165.463 37.2329 165.463C37.2146 165.481 36.4825 165.848 35.5855 166.287C33.9747 167.074 33.4439 167.623 33.4439 168.465C33.4439 168.666 33.3158 168.868 33.1694 168.941C33.0229 168.996 32.8948 169.234 32.8948 169.472C32.8948 169.875 32.785 169.929 31.6318 170.131C30.9179 170.241 29.7281 170.332 28.9776 170.332C27.8428 170.332 27.5682 170.387 27.4218 170.662C27.3302 170.826 26.7811 171.138 26.1771 171.339L25.1154 171.705L25.7561 171.815C26.1954 171.888 25.9025 171.943 24.8957 171.961C23.7975 171.98 23.3582 172.053 23.2483 172.236C23.1019 172.51 21.546 173.243 21.0335 173.279C20.8688 173.297 21.3264 173.371 22.0769 173.444C22.809 173.535 23.4863 173.682 23.5595 173.81C23.651 173.975 24.0171 173.92 24.9507 173.627C25.9025 173.334 32.2907 172.181 33.0961 172.163C33.1694 172.163 33.2792 172.382 33.3341 172.639C33.4622 173.114 33.4805 173.114 34.5056 172.986L35.5489 172.858L35.1645 173.297C34.7984 173.682 34.7435 174.341 34.9998 175.201C35.0913 175.494 38.2397 175 39.1366 174.542C39.5393 174.323 40.0335 174.213 40.2166 174.268C40.546 174.377 40.5277 174.414 40.1067 175.036C39.3013 176.226 39.704 177.745 41.022 178.551C41.3514 178.752 41.7541 179.082 41.9372 179.283C42.3033 179.686 42.4131 179.612 40.6193 180.052C39.5942 180.308 38.9536 180.766 39.6308 180.766C39.8322 180.766 40.4362 180.674 40.9487 180.546C42.0287 180.29 42.23 180.436 42.23 181.443C42.23 182.175 42.7792 182.779 43.4198 182.779C43.8774 182.779 44.6096 183.347 44.6096 183.694C44.6096 183.951 45.9825 184.317 46.4767 184.189C47.1356 184.024 47.9044 183.347 47.9044 182.962C47.9044 182.706 48.2705 182.45 49.1308 182.029C49.9362 181.644 50.8697 180.967 51.7483 180.143C52.4988 179.429 53.5056 178.514 53.9815 178.148C55.4458 176.958 56.4526 174.945 55.7387 174.67C55.5923 174.615 55.7021 174.506 55.9767 174.359C56.416 174.158 56.5441 174.213 57.6973 175.091C58.4661 175.677 59.0701 176.007 59.3264 175.97C59.6742 175.915 59.7108 175.823 59.6559 175.036C59.5826 174.176 59.6193 174.103 60.4979 173.261C61.468 172.327 64.4699 170.698 65.2204 170.698C65.4584 170.698 66.2089 170.405 66.8861 170.039C67.8562 169.527 68.2406 169.417 68.7349 169.508C69.5769 169.673 69.9796 169.49 70.2358 168.868C70.4738 168.282 71.7734 167.22 72.2493 167.22C72.5056 167.22 74.0065 166.507 76.5326 165.134C77.0268 164.877 77.6125 164.658 77.8322 164.658C78.2532 164.658 78.8389 164.145 78.8389 163.761C78.8389 163.34 79.7175 162.644 80.2667 162.644C80.9988 162.644 83.5615 160.777 83.7079 160.137C83.7994 159.825 83.7262 159.441 83.5248 159.075C83.232 158.526 83.232 158.434 83.4699 157.94C83.6347 157.647 83.8909 157.281 84.0557 157.153C84.4401 156.823 84.8794 155.981 84.8794 155.542C84.8794 155.359 84.9892 155.048 85.1356 154.865C85.3553 154.554 85.4102 154.59 85.8495 155.341C86.1058 155.78 86.4536 156.604 86.6 157.171C86.9295 158.434 87.3322 159.276 87.9362 159.935C88.1925 160.191 88.3572 160.503 88.284 160.594C88.2291 160.686 88.3938 161.033 88.6501 161.381C89.126 162.04 89.1443 162.809 88.6684 163.651C88.5586 163.852 88.4853 164.072 88.4853 164.127C88.5036 164.2 88.3206 164.438 88.0826 164.658C87.4603 165.244 87.4969 165.463 88.3572 166.14C89.2541 166.873 89.6385 167.879 89.309 168.721C89.1443 169.161 89.1626 169.307 89.4372 169.582C89.7484 169.893 89.73 169.929 89.1443 170.296C88.8148 170.515 88.3389 171.101 88.0826 171.595C87.8447 172.089 87.4054 172.675 87.1125 172.876C86.5451 173.261 86.3986 173.572 85.8678 175.329C85.5749 176.336 85.5749 176.464 85.8495 177.361C86.0325 177.892 86.1607 178.368 86.1607 178.423C86.1607 178.496 85.758 178.386 85.2455 178.185C84.7512 178.002 84.2204 177.892 84.074 177.947C83.5248 178.166 82.3167 181.37 82.3167 182.614C82.3167 183.072 82.1886 183.53 82.0239 183.713C81.7493 184.024 81.7493 184.115 82.0605 184.957C82.3717 185.836 82.3717 185.891 82.0422 186.623C81.8591 187.044 81.548 187.447 81.3832 187.557C81.2002 187.648 80.9988 188.014 80.9256 188.344C80.7975 189.076 80.706 189.112 78.3264 189.296C77.3929 189.35 76.6058 189.479 76.5509 189.552C76.5142 189.625 77.3562 190.101 78.4545 190.595L80.4314 191.51L80.5595 192.297C80.6327 192.718 80.889 193.341 81.1636 193.689C81.5846 194.256 81.6212 194.421 81.5114 195.318C81.4381 196.032 81.4747 196.526 81.6761 196.983C81.8225 197.349 81.9507 198.082 81.9507 198.612C81.9507 199.583 81.6578 200.187 80.5595 201.505C80.1385 201.999 80.1385 202.035 80.4131 202.694C81.0354 204.122 81.0904 204.049 78.8023 205.147C77.6674 205.715 76.3678 206.337 75.9102 206.538L75.0865 206.904L75.8187 207.087C76.2214 207.179 77.5942 207.527 78.8755 207.856L81.2002 208.46L81.31 209.156C81.4015 209.705 81.6578 210.053 82.573 210.84C83.1954 211.389 83.8726 212.158 84.0557 212.542C84.257 212.945 84.6231 213.531 84.8611 213.86C85.1905 214.318 85.3004 214.684 85.2821 215.233C85.2455 216.093 85.337 216.313 85.9044 216.606C86.3437 216.844 87.863 219.333 87.7166 219.571C87.6616 219.663 87.7166 219.937 87.8447 220.157C87.9545 220.395 88.1193 221.145 88.1925 221.823C88.3572 223.561 88.5586 223.726 90.1144 223.47C90.7734 223.36 91.3408 223.232 91.3774 223.195C91.4141 223.159 91.5422 222.719 91.6703 222.225C91.7801 221.713 91.9083 221.218 91.9449 221.09C91.9815 220.926 92.2011 220.944 92.8235 221.145C93.5008 221.383 93.6838 221.548 93.8485 222.06C93.9767 222.427 94.0316 222.719 93.995 222.756C93.0981 223.378 92.4025 224.056 92.3476 224.385C92.2744 224.788 92.8967 226.673 93.4275 227.717C93.5923 228.009 93.7753 228.394 93.8485 228.54C93.9218 228.687 94.1414 228.888 94.3611 228.998C94.6356 229.108 94.7638 229.346 94.7638 229.675C94.7638 229.968 94.9102 230.279 95.1482 230.426C95.3861 230.609 95.4959 230.847 95.4593 231.139C95.4044 231.506 95.1848 231.615 93.7021 232.018C92.7686 232.256 92.0364 232.549 92.073 232.659C92.1462 232.897 93.5008 233.574 94.7088 233.958C95.4959 234.215 95.679 234.361 95.7705 234.8C95.8437 235.075 96.1 235.478 96.3563 235.679C97.0701 236.246 97.2166 237.454 96.6491 238.37C96.4295 238.754 96.2281 239.12 96.2281 239.193C96.2281 239.267 96.5027 239.376 96.8322 239.431C97.3447 239.541 97.4179 239.614 97.4728 240.2C97.4911 240.548 97.6925 241.097 97.9121 241.39C98.2782 241.921 98.2782 241.976 98.0037 242.452C97.8389 242.726 97.7474 243.001 97.8206 243.074C97.8755 243.129 97.7657 243.184 97.546 243.184C97.0701 243.184 96.8505 243.513 97.125 243.788C97.2349 243.898 97.3264 244.136 97.3264 244.3C97.3264 244.483 97.4911 244.904 97.6925 245.252C97.8938 245.582 98.1318 246.387 98.2233 247.028C98.3514 248.016 98.3148 248.346 98.0403 248.986C97.8572 249.426 97.7657 249.773 97.8206 249.773C97.8938 249.773 97.7474 249.975 97.5277 250.213C97.0152 250.762 97.125 250.981 98.0586 251.256C98.626 251.421 98.7907 251.567 98.7907 251.878C98.7907 252.08 98.9189 252.428 99.0653 252.629C99.2117 252.812 99.3399 253.324 99.3399 253.745C99.3399 254.166 99.4131 254.569 99.5229 254.624C99.6327 254.679 99.706 254.935 99.706 255.173C99.706 255.411 99.7975 255.832 99.9256 256.088C100.09 256.473 100.09 256.656 99.9256 256.93C99.7975 257.132 99.7426 257.37 99.7975 257.461C99.8524 257.534 99.8158 257.809 99.7426 258.047C99.6327 258.322 99.6694 258.669 99.8158 259.017C99.9439 259.31 100.054 259.969 100.072 260.481C100.072 261.269 99.9439 261.58 99.1568 262.806C98.6626 263.593 98.1684 264.582 98.0403 265.003C97.7474 266.119 97.125 267.291 96.1915 268.444C95.7522 268.993 95.0017 269.927 94.5258 270.531C93.757 271.482 93.6838 271.665 93.7753 272.27C93.8668 272.819 93.757 273.112 93.1347 274.082C92.0181 275.784 91.7984 276.406 91.652 278.328C91.5422 279.683 91.5605 280.177 91.7618 280.561C92.0913 281.184 92.8967 281.623 93.7387 281.623C94.2512 281.623 94.5075 281.77 95.1115 282.392C95.8254 283.142 95.8986 283.179 96.9969 283.197C97.6742 283.197 98.1501 283.289 98.205 283.417C98.2416 283.545 98.0586 284.094 97.8023 284.662C97.5277 285.247 97.3264 286.034 97.3264 286.455C97.3264 287.096 97.4362 287.334 98.022 287.902C99.3216 289.183 103.495 290.556 107.851 291.141C108.767 291.27 109.938 291.434 110.469 291.507C111.622 291.672 113.013 291.416 113.526 290.958C113.727 290.775 114.075 290.537 114.295 290.428C114.533 290.318 114.844 289.952 115.008 289.64C115.265 289.128 115.283 288.89 115.082 287.81C114.88 286.657 114.899 286.51 115.265 285.742L115.667 284.918L115.301 283.856C115.082 283.289 114.789 282.465 114.642 282.044C114.295 281.074 114.221 279.445 114.514 278.896C114.935 278.145 114.606 276.919 113.654 275.692C112.611 274.356 112.373 273.166 112.794 271.501C112.94 270.915 113.068 270.146 113.068 269.798C113.068 269.268 113.123 269.176 113.489 269.176C113.727 269.176 114.423 268.81 115.045 268.352C116.07 267.602 116.18 267.455 116.18 266.87C116.18 266.522 116.271 266.046 116.381 265.845C116.491 265.643 116.747 264.82 116.93 264.014C117.333 262.367 117.772 261.397 118.45 260.774C118.706 260.518 118.926 260.17 118.926 259.987C118.926 259.603 119.383 259.402 120.665 259.218C122.074 259.017 122.989 258.743 122.916 258.523C122.879 258.431 122.111 257.955 121.214 257.498C119.566 256.638 119.566 256.638 119.438 255.814C119.365 255.356 119.255 254.716 119.182 254.404C119.09 253.892 119.145 253.727 119.658 253.251C120.152 252.794 120.225 252.592 120.152 252.098C120.097 251.732 120.189 251.256 120.408 250.835C120.61 250.451 120.756 249.902 120.756 249.59C120.756 248.858 121.086 248.254 122.092 247.028L122.916 246.039L122.568 245.161C122.385 244.666 122.22 244.044 122.22 243.751C122.22 243.312 122.349 243.202 123.209 242.836C124.765 242.195 124.82 241.994 123.612 241.463C123.044 241.207 122.587 240.914 122.587 240.823C122.587 240.713 122.916 239.999 123.3 239.23C123.978 237.93 124.087 237.821 125.113 237.326C126.815 236.521 126.778 236.393 124.746 236.137C124.087 236.045 123.868 235.935 123.868 235.716C123.868 235.551 123.74 235.258 123.593 235.057C123.447 234.874 123.282 234.343 123.209 233.867C123.008 232.457 122.349 231.377 121.488 231.03C121.086 230.865 120.591 230.737 120.408 230.737C120.152 230.737 119.969 230.481 119.731 229.767C119.566 229.254 119.2 228.485 118.944 228.083C118.01 226.673 117.644 225.465 117.644 223.781C117.644 222.921 117.699 221.804 117.754 221.273L117.882 220.34L118.816 220.431C119.713 220.523 119.804 220.505 120.262 219.937C120.61 219.534 120.756 219.15 120.756 218.674V217.979L122.184 219.37C124.142 221.292 125.46 222.17 126.577 222.28C127.089 222.317 127.529 222.28 127.602 222.17C127.657 222.06 127.547 221.621 127.364 221.164C127.016 220.358 126.76 218.784 126.412 215.27C126.211 213.238 125.955 212.048 125.131 209.54L124.563 207.856L125.314 204.964C125.717 203.39 126.192 201.523 126.339 200.827C126.504 200.113 126.833 199.07 127.089 198.484C127.401 197.825 127.529 197.276 127.455 197.002C127.401 196.764 127.584 195.629 127.876 194.476C128.737 191.108 128.755 189.991 128.078 183.969C127.84 181.791 127.382 179.484 127.089 179.027C126.961 178.825 126.632 178.002 126.339 177.196C125.808 175.695 125.058 174.762 123.3 173.426C122.367 172.712 121.799 171.43 121.744 169.875C121.726 169.179 121.69 168.538 121.69 168.465C121.671 168.41 121.269 168.209 120.756 168.044L119.841 167.733V166.854C119.841 166.067 119.914 165.902 120.591 165.225C121.25 164.566 121.342 164.402 121.232 163.889C121.14 163.45 121.232 163.193 121.58 162.717C121.836 162.388 122.037 162.04 122.037 161.949C122.037 161.857 122.202 161.638 122.403 161.454C122.678 161.198 122.715 161.052 122.568 160.777C122.422 160.484 122.477 160.283 122.843 159.734C123.099 159.368 123.319 158.965 123.319 158.837C123.319 158.709 123.666 158.27 124.069 157.849C124.49 157.409 125.332 156.476 125.936 155.78C127.089 154.426 129.103 152.54 129.762 152.192C130.091 152.009 130.201 152.046 130.402 152.321C131.043 153.163 131.025 153.236 130.091 154.279C129.615 154.847 129.139 155.506 129.085 155.725C129.011 155.963 128.865 156.256 128.755 156.402C128.499 156.714 128.06 157.885 128.041 158.251C128.041 158.398 127.95 158.8 127.858 159.148C127.693 159.661 127.73 159.899 127.986 160.375C128.279 160.942 128.297 161.033 128.005 161.729C127.492 162.992 127.62 164.731 128.371 167.092C129.048 169.197 129.634 170.405 130.274 170.973C130.457 171.138 130.677 171.522 130.732 171.815C130.805 172.108 131.043 172.474 131.281 172.639C131.72 172.931 133.478 175.915 134.008 177.288C134.192 177.727 134.375 178.441 134.411 178.844C134.466 179.246 134.594 179.667 134.704 179.796C134.814 179.924 134.832 180.381 134.759 180.912L134.649 181.809L135.528 182.12C136.004 182.303 136.663 182.505 136.955 182.578C137.614 182.724 137.614 182.852 137.193 186.019C136.901 188.161 136.718 188.563 135.601 189.625C135.29 189.936 135.034 190.284 135.034 190.412C135.034 190.705 134.869 190.705 134.301 190.376C133.661 190.009 133.386 190.046 133.386 190.485C133.386 190.943 133.679 191.51 134.173 192.06L134.539 192.481L134.063 192.92C133.789 193.176 133.569 193.524 133.569 193.707C133.569 194.073 132.672 196.05 132.05 197.057C131.83 197.404 131.629 197.77 131.611 197.88C131.592 197.972 131.281 198.869 130.915 199.857C130.201 201.852 130.091 202.914 130.567 202.914C130.732 202.914 131.574 202.164 132.453 201.248L134.027 199.601L134.704 199.876L135.363 200.168L135.088 201.303C134.887 202.09 134.796 203.317 134.796 205.111C134.796 207.508 134.85 207.893 135.29 209.138C135.894 210.84 136.772 212.176 137.871 213.091C138.621 213.695 138.713 213.842 138.621 214.336C138.566 214.647 138.511 216.844 138.493 219.223L138.456 223.543L137.981 223.433C137.413 223.269 137.395 223.14 136.846 219.205L136.443 216.185L135.546 215.233C135.07 214.72 134.667 214.135 134.667 213.97C134.667 213.787 134.613 213.695 134.558 213.75C134.503 213.823 134.466 216.185 134.484 219.04C134.503 224.586 134.594 225.428 135.546 228.174C135.93 229.309 136.187 229.73 137.029 230.554L138.054 231.56V233.208C138.054 234.105 138.127 235.057 138.218 235.295C138.365 235.716 138.347 235.716 137.523 235.606C137.047 235.533 136.406 235.349 136.077 235.221C135.455 234.965 133.99 233.647 133.624 233.025C133.24 232.366 133.569 234.471 134.246 236.96C135.345 241.024 136.608 243.165 138.237 243.678C138.749 243.843 138.804 243.953 138.987 245.051C139.097 245.71 139.372 246.552 139.61 246.918C139.976 247.522 139.994 247.632 139.756 247.87C139.61 248.016 138.969 248.199 138.31 248.272C136.937 248.437 135.857 248.089 134.905 247.174L134.32 246.607L134.667 247.742C135.308 249.883 137.029 253.05 138.292 254.368C139.536 255.704 140.232 255.997 141.403 255.649C141.971 255.484 142.008 255.503 142.245 256.07C142.374 256.4 142.795 256.967 143.161 257.315C143.82 257.955 143.82 257.955 143.545 258.596C143.216 259.402 141.824 260.665 140.964 260.939C140.305 261.159 139.042 261.122 138.438 260.848C138.109 260.701 138.109 260.719 138.438 261.232C139.207 262.458 140.507 263.776 141.733 264.6C142.868 265.387 143.179 265.497 144.314 265.607C145.705 265.753 146.181 265.607 147.279 264.673L147.865 264.179L148.597 264.783C149.055 265.131 149.75 265.46 150.373 265.607C150.94 265.753 151.434 265.936 151.471 266.046C151.508 266.156 151.727 266.522 151.947 266.851C152.203 267.236 152.313 267.584 152.24 267.73C152.166 267.876 152.038 268.188 151.965 268.444L151.837 268.902L152.368 268.389C153.265 267.565 153.375 267.693 153.228 269.451C153.155 270.311 153.155 271.007 153.21 271.007C153.375 271.007 154.18 269.377 154.326 268.755C154.491 268.078 154.839 268.206 155.04 269.011C155.187 269.56 155.223 269.597 155.37 269.268C155.443 269.066 155.516 268.737 155.516 268.535C155.553 267.986 156.505 267.529 157.658 267.529H158.646V268.389C158.646 269.67 159.104 272.05 159.58 273.203C160.55 275.601 162.069 276.864 163.955 276.864C165.455 276.864 166.426 276.388 167.652 275.052C169.263 273.313 170.489 270.402 170.874 267.437L171.002 266.357L171.478 267.272C171.807 267.913 171.935 268.389 171.88 268.828L171.807 269.451L172.265 268.902L172.741 268.352V269.579C172.741 270.274 172.814 270.823 172.887 270.823C173.088 270.823 173.656 269.615 173.656 269.176C173.656 268.975 173.747 268.81 173.839 268.81C173.949 268.81 174.022 268.956 174.022 269.121C174.022 269.377 174.059 269.396 174.187 269.194C174.48 268.737 175.285 269.506 175.322 270.274C175.376 271.391 175.395 271.464 175.523 271.665C175.614 271.794 175.578 272.306 175.486 272.837C175.376 273.368 175.303 274.008 175.303 274.283C175.322 274.722 175.34 274.741 175.56 274.429C175.871 274.027 176.402 274.21 176.402 274.722C176.402 275.088 176.402 275.088 176.676 274.741C176.987 274.356 176.987 274.265 176.603 276.223C176.511 276.718 176.383 277.505 176.328 277.962C176.255 278.731 176.255 278.768 176.511 278.42C176.676 278.218 177.006 277.651 177.244 277.175C177.719 276.242 178.049 276.15 178.25 276.882C178.342 277.267 178.397 277.175 178.69 276.297C179.001 275.326 179.037 275.29 179.568 275.363C180.575 275.509 180.941 274.411 180.245 273.295C179.934 272.782 179.916 272.672 180.154 272.581C180.3 272.526 180.648 272.562 180.904 272.654C182.003 273.075 184.126 272.379 185.206 271.244C187.256 269.121 187.695 265.57 186.396 261.818C186.011 260.719 185.993 260.555 186.249 260.665C186.414 260.738 186.689 260.829 186.853 260.884C187.018 260.939 187.256 261.195 187.402 261.452L187.622 261.946L187.75 261.397L187.86 260.848L188.153 261.397C188.318 261.69 188.665 262.147 188.94 262.403L189.434 262.861L189.288 262.312C189.233 262.001 189.05 261.488 188.922 261.14C188.629 260.427 188.702 260.225 189.123 260.573C189.508 260.902 189.672 260.683 189.361 260.244C188.995 259.713 189.16 258.23 189.617 257.992C189.874 257.864 190.038 257.864 190.24 258.029C190.441 258.193 190.496 258.193 190.496 258.01C190.496 257.846 190.624 257.882 190.899 258.12L191.283 258.468L191.137 257.827C191.063 257.48 190.954 256.857 190.88 256.454C190.807 256.052 190.642 255.539 190.533 255.32C190.276 254.862 190.24 254.166 190.478 254.166C191.1 254.166 193.242 258.102 193.242 259.273C193.26 259.731 193.26 259.731 193.534 259.383C193.681 259.182 194.01 258.358 194.248 257.553C194.816 255.594 194.633 254.148 193.644 253.013C193.022 252.318 193.626 252.574 195.145 253.654C196.024 254.295 197.049 255.008 197.415 255.246L198.092 255.686L197.726 255.246C197.543 255.008 196.921 254.331 196.353 253.727L195.347 252.665L196.262 253.324C196.774 253.691 197.671 254.331 198.275 254.734C199.355 255.466 199.355 255.448 197.543 253.672C196.536 252.684 195.072 251.274 194.267 250.542C192.839 249.224 192.839 249.224 193.059 248.657C193.223 248.272 193.388 248.144 193.589 248.218C195.182 248.803 198.641 251.823 199.355 253.233L199.776 254.057L199.904 253.471C200.252 251.897 199.154 247.815 197.836 245.875C196.774 244.3 195.603 243.495 192.656 242.36C191.137 241.774 190.862 241.61 190.862 241.262C190.862 240.896 190.935 240.859 191.649 240.914C196.481 241.298 199.52 241.829 201.9 242.726C202.577 242.982 203.291 243.184 203.474 243.184C203.657 243.184 204.297 243.422 204.883 243.733C205.469 244.026 205.981 244.282 206 244.282C206.018 244.282 205.908 244.044 205.762 243.751C205.286 242.799 202.376 239.889 200.783 238.791C199.264 237.711 196.573 236.521 194.633 236.027L193.736 235.807L194.175 235.459L194.614 235.112L194.212 235.203C193.974 235.258 193.626 235.368 193.406 235.423C193.205 235.478 192.784 235.423 192.491 235.313C191.942 235.075 191.942 235.002 192.271 234.068C192.418 233.72 192.125 233.812 191.667 234.233C191.283 234.599 191.173 234.617 190.423 234.398C189.636 234.178 189.599 234.16 189.215 232.915C188.977 232.219 188.739 231.652 188.665 231.652C188.592 231.652 188.409 232.165 188.263 232.787C188.007 233.922 187.988 233.94 187.311 233.995C186.762 234.05 186.56 233.958 186.268 233.592C186.066 233.318 185.718 233.025 185.517 232.915C185.188 232.732 185.151 232.75 185.261 233.025C185.627 233.977 185.609 234.215 185.169 234.215C184.931 234.215 184.382 234.013 183.961 233.757C183.138 233.299 182.973 233.336 183.449 233.849C183.723 234.141 183.559 234.178 181.216 234.251C179.019 234.343 178.525 234.416 177.408 234.855C175.56 235.587 173.217 237.363 172.631 238.443L172.393 238.937L173.162 238.718C173.711 238.553 174.882 238.534 177.317 238.626C180.685 238.754 183.302 239.193 186.67 240.182C188.153 240.621 187.732 241.17 185.92 241.17C184.327 241.17 180.538 240.603 179.733 240.255C179.275 240.054 178.873 239.907 178.836 239.962C178.745 240.054 180.3 241.06 182.076 242.086C184.382 243.403 187.091 245.069 187.366 245.307C187.512 245.454 186.744 245.106 185.627 244.557C183.522 243.513 182.479 243.22 183.357 243.934C183.613 244.136 184.364 244.721 185.06 245.216C185.737 245.728 186.286 246.167 186.286 246.204C186.286 246.241 185.828 246.076 185.279 245.838C184.73 245.582 184.272 245.417 184.272 245.472C184.272 245.508 184.895 246.003 185.645 246.57C186.396 247.119 187.018 247.632 187.018 247.687C187.018 247.815 186.725 247.632 185.938 247.046L185.316 246.57L185.554 247.028C185.682 247.284 186.03 247.778 186.304 248.144C186.597 248.51 186.835 248.986 186.835 249.206C186.835 249.407 187.073 249.755 187.384 249.993C187.933 250.396 188.849 251.75 188.849 252.135C188.849 252.501 188.409 252.336 187.97 251.823L187.549 251.329L187.677 251.787L187.787 252.244L187.311 251.805C186.762 251.293 186.707 251.494 187.11 252.482C187.274 252.849 187.348 253.343 187.293 253.581C187.238 253.837 187.293 254.203 187.439 254.423C187.878 255.1 187.952 255.741 187.64 256.015C187.384 256.217 187.293 256.18 187 255.814L186.652 255.356V255.796C186.652 256.198 186.597 256.162 185.92 255.429C185.133 254.551 185.041 254.624 185.462 255.814C185.828 256.857 185.81 257.04 185.334 256.619C184.95 256.271 184.95 256.271 185.078 256.729C185.243 257.315 185.243 257.37 185.224 258.358L185.188 259.182L184.657 258.34C183.302 256.217 180.85 254.148 179.678 254.166C177.976 254.203 177.189 256.93 177.097 263.099C177.06 265.387 177.024 265.881 176.804 265.79C176.676 265.735 176.402 265.698 176.2 265.698C175.999 265.698 175.852 265.57 175.852 265.369C175.852 265.204 175.688 264.783 175.486 264.454C175.175 263.941 175.139 263.74 175.285 263.191L175.468 262.532L174.974 263.026C174.681 263.282 174.388 263.502 174.315 263.502C174.242 263.502 174.187 263.154 174.205 262.715C174.242 262.294 174.242 261.653 174.223 261.305L174.168 260.665L173.729 261.58C173.491 262.074 173.29 262.678 173.29 262.898C173.29 263.465 172.997 263.428 172.85 262.861C172.704 262.275 172.375 262.44 172.375 263.099C172.356 263.392 172.1 263.886 171.734 264.307L171.093 265.021L171.075 264.49C171.038 263.044 170.562 260.591 170.087 259.456C169.098 257.022 167.524 255.631 165.767 255.631C163.552 255.631 161.612 257.315 160.22 260.463C159.726 261.598 159.012 263.959 159.012 264.527C159.012 265.241 158.774 265.369 157.859 265.131C157.383 265.021 156.999 264.82 156.999 264.691C156.999 264.563 156.834 264.27 156.651 264.014C156.358 263.648 156.322 263.428 156.45 262.898C156.614 262.147 156.486 262.019 156.12 262.586C155.992 262.788 155.772 262.953 155.626 262.953C155.425 262.953 155.351 262.641 155.315 261.635L155.26 260.298L154.711 261.433C154.418 262.074 154.107 262.586 154.034 262.586C153.979 262.586 153.85 262.312 153.777 262.001L153.649 261.397L153.429 261.909L153.228 262.403L152.587 261.744C152.258 261.397 151.581 260.848 151.105 260.536C150.153 259.932 150.135 259.914 150.428 259.164C150.537 258.889 150.684 257.955 150.757 257.095C150.885 255.741 150.849 255.246 150.409 253.251C150.135 251.988 149.842 250.597 149.769 250.139C149.622 249.169 149.329 248.529 149.311 249.133C149.311 249.718 148.103 252.428 147.371 253.544C147.005 254.093 146.693 254.533 146.657 254.533C146.62 254.533 146.382 254.166 146.126 253.709L145.668 252.885L146.181 251.823C146.474 251.256 146.822 250.359 146.986 249.865C147.352 248.712 147.664 245.527 147.664 243.111C147.645 241.317 147.645 241.28 147.352 241.811C146.675 243.074 144.479 245.38 143.966 245.38C143.875 245.38 143.82 245.106 143.801 244.776C143.801 244.465 143.692 243.861 143.563 243.458C143.362 242.744 143.362 242.726 144.277 241.5C144.863 240.713 145.357 239.816 145.613 239.029C145.998 237.802 146.785 234.306 147.005 232.805L147.114 232.055L146.053 233.098C144.955 234.215 144.277 234.636 143.362 234.837L142.813 234.947L142.831 233.299L142.868 231.652L143.655 231.048C144.607 230.334 145.613 228.595 146.291 226.435C146.675 225.245 146.822 224.129 147.114 220.395C147.316 217.869 147.481 215.562 147.481 215.27V214.72L147.133 215.27C146.95 215.581 146.492 216.075 146.126 216.368C145.467 216.899 145.449 216.972 144.826 219.937C144.479 221.603 144.149 223.14 144.094 223.36C144.021 223.671 143.856 223.781 143.472 223.781C142.959 223.781 142.959 223.781 143.087 222.921C143.179 222.427 143.289 220.212 143.362 217.997L143.49 213.933L144.186 213.549C145.192 212.981 146.254 211.627 146.84 210.163C147.243 209.119 147.352 208.497 147.426 206.74C147.572 203.793 147.096 201.065 145.906 197.935C145.577 197.075 145.577 197.057 145.98 196.636C146.254 196.343 146.382 195.977 146.382 195.446C146.382 194.695 146.401 194.695 147.279 194.421C149.476 193.762 150.043 193.011 149.421 191.529C149.219 191.071 149.183 190.504 149.256 189.497C149.384 187.813 149.073 186.092 148.451 185.031C148.121 184.463 148.03 184.097 148.121 183.731C148.176 183.438 148.121 182.962 147.975 182.614C147.792 182.193 147.755 181.791 147.865 181.26C148.231 179.448 148.542 176.794 148.451 176.336C148.396 176.025 148.506 175.586 148.78 175.11C149.183 174.377 149.183 174.359 148.853 173.737C148.524 173.133 148.524 173.078 148.927 170.918C149.238 169.252 149.311 168.337 149.238 167.111C149.183 166.214 149.055 163.706 148.927 161.546C148.725 157.647 148.725 157.611 148.213 157.043C147.773 156.531 147.718 156.348 147.792 155.634C147.883 154.902 147.847 154.792 147.462 154.59C147.224 154.462 146.62 154.096 146.108 153.748C145.412 153.272 144.918 153.108 144.039 153.016C142.959 152.888 142.85 152.833 142.245 152.119C141.55 151.259 141.458 150.637 141.898 149.593C142.044 149.227 142.172 148.477 142.172 147.946C142.172 146.298 142.3 145.951 143.179 145.42C143.838 144.999 143.966 144.816 144.039 144.23C144.113 143.681 144.058 143.425 143.765 143.113C143.527 142.839 143.435 142.564 143.527 142.271C143.6 141.96 143.508 141.667 143.252 141.338C143.051 141.082 142.941 140.77 142.996 140.679C143.069 140.569 143.014 140.349 142.886 140.185C142.758 140.038 142.666 139.636 142.703 139.288C142.721 138.903 142.593 138.409 142.3 137.897C142.044 137.457 141.788 136.817 141.733 136.469C141.605 135.755 141.989 133.559 142.447 132.259C142.612 131.801 142.703 131.27 142.648 131.087C142.593 130.886 142.85 129.989 143.197 129.092C144.021 127.006 144.277 124.937 143.929 123.418L143.692 122.375L145.339 121.533C147.316 120.526 148.689 119.629 150.007 118.439C151.508 117.085 151.636 116.426 150.482 115.876C150.116 115.712 149.787 115.437 149.75 115.272C149.695 115.108 149.567 114.815 149.476 114.65C149.384 114.467 149.311 114.046 149.311 113.68C149.311 113.167 149.219 113.003 148.762 112.765C148.469 112.6 148.213 112.362 148.213 112.197C148.213 112.051 147.92 111.502 147.572 110.971C147.133 110.312 146.931 109.818 146.931 109.36C146.931 108.811 146.803 108.573 146.291 108.115L145.632 107.548L146.089 106.047C146.51 104.638 146.931 102.679 147.206 100.812C147.316 100.171 147.279 100.043 147.023 100.043C146.62 100.043 143.087 101.928 141.074 103.21L139.518 104.217L138.951 103.869C138.273 103.466 137.633 103.429 137.157 103.796C136.974 103.942 136.406 104.198 135.93 104.345C135.052 104.638 135.034 104.638 134.448 104.198L133.862 103.722L133.13 104.162C132.178 104.692 130.457 105.059 129.469 104.912C128.883 104.821 128.627 104.656 128.297 104.162C128.078 103.814 127.73 103.521 127.547 103.521C127.364 103.521 126.87 103.393 126.449 103.246C126.028 103.1 125.57 103.027 125.424 103.082C125.277 103.155 125.021 103.667 124.856 104.235C124.692 104.802 124.325 105.589 124.051 105.992C123.538 106.724 123.538 106.761 123.52 109.928C123.502 114.559 123.666 114.046 122.111 114.064L120.774 114.101L120.39 112.417C120.17 111.502 119.914 110.385 119.823 109.946C119.731 109.488 119.548 108.994 119.402 108.848C119.182 108.573 118.871 107.731 118.834 107.273C118.834 107.164 118.651 106.871 118.413 106.633C117.937 106.12 117.919 105.974 118.267 105.846C118.706 105.663 120.884 102.185 121.195 101.178C121.342 100.647 121.598 100.043 121.744 99.8235C122.111 99.3109 122.111 98.7801 121.781 98.652C121.635 98.5971 120.793 98.7984 119.896 99.0913C117.663 99.8601 116.619 99.9882 116.381 99.5306C116.217 99.2194 116.345 99.1645 117.791 98.8716C121.616 98.0845 126.723 94.625 128.773 91.4583C131.409 87.3764 131.903 81.8485 130.073 77.2175C128.847 74.124 125.955 70.7011 122.678 68.4497C120.298 66.8206 116.18 64.6607 116.18 65.045ZM136.315 197.331C136.187 197.496 136.04 197.569 135.985 197.514C135.93 197.478 136.004 197.313 136.132 197.148C136.26 196.983 136.406 196.91 136.461 196.965C136.516 197.002 136.443 197.166 136.315 197.331ZM143.984 198.741C144.991 201.139 145.595 205.239 145.247 207.454C145.028 208.918 144.424 210.309 143.673 211.096C143.033 211.792 142.721 211.847 142.282 211.352C141.77 210.803 141.129 210.73 140.287 211.133C139.591 211.481 139.536 211.481 139.134 211.188C138.585 210.767 137.706 209.266 137.322 208.058C136.919 206.849 136.864 203.738 137.212 201.999L137.431 200.791L139.207 200.754C140.928 200.718 141.806 200.443 141.806 199.967C141.806 199.692 143.252 197.972 143.472 197.972C143.563 197.972 143.801 198.32 143.984 198.741ZM141.879 216.642C141.806 217.905 141.696 219.498 141.623 220.212C141.495 221.383 141.495 221.42 141.458 220.578C141.403 218.162 141.202 216.642 140.964 216.642C140.818 216.642 140.708 216.661 140.708 216.679C140.69 217.228 140.14 221.127 140.067 221.182C139.994 221.273 140.049 216.551 140.14 214.629C140.159 214.428 140.378 214.354 141.074 214.354H142.008L141.879 216.642ZM141.403 227.167C141.44 227.662 141.422 228.247 141.349 228.485C141.257 228.87 141.147 228.925 140.561 228.87C139.921 228.815 139.884 228.778 139.829 228.083C139.793 227.698 139.811 227.094 139.884 226.783C139.976 226.216 140.031 226.179 140.671 226.234C141.349 226.27 141.349 226.27 141.403 227.167ZM141.349 232.402C141.422 232.622 141.422 233.226 141.349 233.775C141.239 234.709 141.202 234.764 140.708 234.764C140.415 234.764 140.067 234.819 139.921 234.874C139.61 234.983 139.445 234.013 139.573 232.787L139.665 232.018H140.452C141.092 232.018 141.257 232.091 141.349 232.402ZM188.08 237.143C187.97 237.546 187.824 237.875 187.732 237.875C187.64 237.875 187.311 237.638 186.981 237.326C186.469 236.869 186.414 236.759 186.652 236.594C186.798 236.503 187.219 236.411 187.586 236.411H188.263L188.08 237.143ZM191.338 238.04C191.1 238.406 190.862 238.242 190.862 237.747C190.862 237.29 190.88 237.271 191.155 237.546C191.32 237.711 191.393 237.93 191.338 238.04ZM141.477 237.967C141.55 238.059 141.623 238.681 141.623 239.34V240.53L140.909 240.548C140.232 240.585 140.195 240.548 140.086 239.907C139.957 239.139 139.939 237.967 140.049 237.857C140.214 237.711 141.349 237.784 141.477 237.967ZM142.191 244.099C142.264 244.355 142.319 244.849 142.337 245.197C142.355 245.783 142.282 245.893 141.715 246.149C141.074 246.442 141.056 246.442 140.818 245.948C140.671 245.691 140.525 245.087 140.507 244.648C140.452 243.861 140.47 243.824 140.982 243.715C141.824 243.532 142.062 243.605 142.191 244.099ZM143.618 249.664C143.893 250.762 143.875 251.476 143.6 251.366C143.472 251.329 143.124 251.366 142.85 251.439C142.264 251.604 142.136 251.402 141.898 249.993C141.788 249.279 141.806 249.224 142.209 249.224C142.429 249.224 142.758 249.133 142.904 249.041C143.344 248.767 143.399 248.803 143.618 249.664ZM145.101 254.935L145.449 255.722L145.009 256.18L144.552 256.638L144.113 256.18C143.399 255.448 143.344 254.862 143.948 254.496C144.662 254.057 144.717 254.075 145.101 254.935ZM181.435 257.168C181.984 257.699 182.662 258.541 182.973 259.017L183.522 259.877L183.138 260.408C182.808 260.829 182.79 260.976 182.991 261.214C183.119 261.36 183.485 261.488 183.797 261.488C184.327 261.488 184.419 261.561 184.693 262.349C185.718 265.296 185.426 268.169 183.925 269.78C182.826 270.988 181.875 271.098 180.904 270.183C180.52 269.835 180.154 269.542 180.081 269.542C180.008 269.542 179.806 269.249 179.623 268.883C179.349 268.297 179.349 268.169 179.568 267.913C180.355 267.016 180.3 266.138 179.403 265.735C178.818 265.46 178.708 264.673 178.854 261.891C179.074 257.827 179.44 256.18 180.099 256.18C180.3 256.18 180.904 256.619 181.435 257.168ZM166.645 258.157C167.634 258.706 168.659 261.14 168.842 263.41L168.933 264.691L168.366 264.911C167.615 265.186 167.597 265.79 168.348 266.211C169.007 266.595 169.025 266.87 168.531 268.828C167.597 272.434 165.986 274.667 164.302 274.667C162.765 274.667 161.648 273.13 161.099 270.311C160.696 268.169 160.715 268.078 161.593 268.078C162.454 268.078 162.948 267.858 163.222 267.327C163.643 266.54 162.801 265.698 161.575 265.698C161.081 265.698 161.026 265.643 161.026 265.131C161.026 263.52 162.527 259.859 163.625 258.761C164.687 257.699 165.474 257.534 166.645 258.157ZM186.835 257.901C186.835 258.175 186.506 258.468 186.359 258.322C186.231 258.193 186.487 257.644 186.67 257.644C186.762 257.644 186.835 257.754 186.835 257.901ZM147.938 258.56L148.231 259.109H147.645C147.334 259.109 146.84 259.273 146.547 259.493C146.254 259.694 146.016 259.804 146.016 259.713C146.016 259.639 145.961 259.383 145.906 259.145C145.797 258.797 145.851 258.743 146.364 258.743C146.73 258.743 147.005 258.614 147.151 258.376C147.462 257.882 147.609 257.919 147.938 258.56ZM188.116 258.981C188.116 259.292 187.421 259.951 187.274 259.786C187.201 259.731 187.293 259.548 187.457 259.383C187.622 259.218 187.75 258.999 187.75 258.907C187.75 258.816 187.842 258.743 187.933 258.743C188.043 258.743 188.116 258.852 188.116 258.981ZM150.72 262.806C151.251 263.245 151.672 263.648 151.672 263.703C151.691 263.776 151.343 263.758 150.922 263.648C150.043 263.465 149.11 262.678 149.256 262.294C149.402 261.873 149.732 262.001 150.72 262.806ZM155.351 264.6C155.351 264.875 155.26 264.82 154.876 264.399C154.528 263.996 154.528 263.996 154.949 264.216C155.168 264.325 155.351 264.508 155.351 264.6ZM174.223 265.167C174.443 265.588 174.187 265.625 173.29 265.296C172.741 265.112 172.722 265.076 172.997 264.875C173.381 264.582 173.985 264.728 174.223 265.167ZM154.162 266.76C154.052 266.888 153.338 266.412 153.338 266.229C153.338 266.138 153.539 266.192 153.777 266.375C154.015 266.559 154.198 266.723 154.162 266.76ZM173.29 266.98C173.29 267.382 172.832 267.309 172.667 266.87C172.613 266.705 172.686 266.613 172.924 266.613C173.162 266.613 173.29 266.742 173.29 266.98Z" fill="black" stroke="white" stroke-width="2" mask="url(#path-7-inside-1)"/>
    </g>
    <defs>
        <filter id="filter0_d" x="21" y="55" width="205.002" height="246.558" filterUnits="userSpaceOnUse" color-interpolation-filters="sRGB">
            <feFlood flood-opacity="0" result="BackgroundImageFix"/>
            <feColorMatrix in="SourceAlpha" type="matrix" values="0 0 0 0 0 0 0 0 0 0 0 0 0 0 0 0 0 0 127 0"/>
            <feOffset dx="10"/>
            <feGaussianBlur stdDeviation="5"/>
            <feColorMatrix type="matrix" values="0 0 0 0 0 0 0 0 0 0.0745098 0 0 0 0 0.133333 0 0 0 1 0"/>
            <feBlend mode="normal" in2="BackgroundImageFix" result="effect1_dropShadow"/>
            <feBlend mode="normal" in="SourceGraphic" in2="effect1_dropShadow" result="shape"/>
        </filter>
    </defs>
</svg>
