<svg width="338" height="322" viewBox="0 0 338 322" fill="none" xmlns="http://www.w3.org/2000/svg">
    <rect x="0.5" y="22.5" width="299" height="299" fill="white" stroke="#669073"/>
    <rect x="188.5" y="0.5" width="149" height="151" fill="white" stroke="#669073"/>
    <path d="M245.108 286.8C245.084 287.76 245.036 288.732 244.964 289.716C244.916 290.676 244.832 291.648 244.712 292.632H243.776L242.3 288.672H234.452V298.212H240.32L241.724 295.548H242.624C242.768 297.924 242.768 300.348 242.624 302.82H241.724L240.32 300.084H234.452V310.128H242.732L244.496 305.808H245.396C245.564 306.816 245.684 307.836 245.756 308.868C245.828 309.9 245.84 310.944 245.792 312H228.044V310.956C228.884 310.572 229.868 310.284 230.996 310.092V288.744C230.516 288.648 230.024 288.528 229.52 288.384C229.016 288.216 228.524 288.036 228.044 287.844V286.8H245.108ZM264.153 312H254.037V310.956C254.565 310.764 255.093 310.596 255.621 310.452C256.173 310.308 256.761 310.188 257.385 310.092V288.672H251.877L249.969 293.82H249.069C248.997 293.34 248.937 292.8 248.889 292.2C248.841 291.576 248.793 290.952 248.745 290.328C248.721 289.68 248.697 289.056 248.673 288.456C248.649 287.832 248.637 287.28 248.637 286.8H269.553C269.553 287.28 269.541 287.82 269.517 288.42C269.493 289.02 269.457 289.644 269.409 290.292C269.385 290.916 269.349 291.54 269.301 292.164C269.277 292.764 269.229 293.316 269.157 293.82H268.221L266.349 288.672H260.841V310.092C261.465 310.212 262.041 310.332 262.569 310.452C263.121 310.572 263.649 310.74 264.153 310.956V312ZM289.055 305.448H289.991C290.111 306.12 290.219 306.972 290.315 308.004C290.411 309.012 290.435 309.996 290.387 310.956C290.027 311.244 289.595 311.484 289.091 311.676C288.587 311.844 288.047 311.988 287.471 312.108C286.919 312.228 286.343 312.312 285.743 312.36C285.167 312.408 284.615 312.432 284.087 312.432C282.071 312.432 280.271 312.18 278.687 311.676C277.103 311.148 275.759 310.356 274.655 309.3C273.575 308.244 272.735 306.9 272.135 305.268C271.559 303.612 271.271 301.656 271.271 299.4C271.271 297.048 271.595 295.056 272.243 293.424C272.891 291.768 273.767 290.424 274.871 289.392C275.975 288.336 277.259 287.568 278.723 287.088C280.187 286.608 281.723 286.368 283.331 286.368C284.915 286.368 286.247 286.476 287.327 286.692C288.407 286.884 289.355 287.184 290.171 287.592C290.171 287.976 290.159 288.432 290.135 288.96C290.111 289.464 290.075 290.004 290.027 290.58C289.979 291.156 289.919 291.72 289.847 292.272C289.775 292.824 289.703 293.328 289.631 293.784H288.695L286.823 288.6C286.559 288.456 286.115 288.36 285.491 288.312C284.891 288.264 284.291 288.24 283.691 288.24C282.491 288.24 281.351 288.468 280.271 288.924C279.215 289.356 278.279 290.04 277.463 290.976C276.671 291.888 276.035 293.052 275.555 294.468C275.075 295.86 274.835 297.504 274.835 299.4C274.835 301.104 275.051 302.652 275.483 304.044C275.915 305.412 276.539 306.588 277.355 307.572C278.171 308.532 279.167 309.276 280.343 309.804C281.519 310.308 282.851 310.56 284.339 310.56C285.131 310.56 285.791 310.5 286.319 310.38C286.847 310.26 287.195 310.104 287.363 309.912L289.055 305.448Z" fill="#001322"/>
    <path d="M263 151C304.421 151 338 117.421 338 76C338 34.5786 304.421 1 263 1C221.579 1 188 34.5786 188 76C188 117.421 221.579 151 263 151Z" fill="#669073"/>
    <path d="M231.453 70.1406L265.672 56.1719L298.766 70.5156L265.578 19.75L231.453 70.1406ZM231.547 85.6562L265.672 104.875L300.5 85.6562L266 132.25L231.547 85.6562ZM265.766 63.0156L300.406 77.9688L265.766 96.7188L230.188 77.5469L265.812 63.0156H265.766Z" fill="white"/>
    <g clip-path="url(#clip0)">
        <g filter="url(#filter0_d)">
            <path d="M81.126 96.7227C78.2714 97.5266 75.6792 100.02 74.6456 102.941C74.4159 103.58 73.9729 105.09 73.6612 106.271C73.3495 107.469 72.9229 108.666 72.726 108.945C72.4964 109.241 72.3487 109.7 72.3323 110.127C72.3159 110.52 72.0698 111.39 71.7909 112.063C71.512 112.735 70.905 114.359 70.4456 115.672C69.9862 116.984 69.4284 118.543 69.2151 119.134C69.0018 119.741 68.7721 120.774 68.7065 121.43C68.5589 123.088 68.0503 124.285 65.1792 129.88C62.8003 134.539 61.8979 136.721 61.6682 138.411C61.4878 139.789 61.2745 140.232 60.5198 140.855C60.1096 141.184 59.7979 141.495 59.8143 141.561C59.8635 141.741 59.2565 142.595 59.1581 142.496C59.1089 142.447 59.2401 142.217 59.4698 141.988C59.6831 141.741 59.7651 141.577 59.6339 141.627C59.5026 141.659 59.1581 142.037 58.8792 142.43C58.6003 142.841 57.8128 143.661 57.1565 144.235C56.4839 144.826 55.6471 145.728 55.319 146.237C54.9745 146.729 54.3182 147.533 53.8589 147.992L53.0057 148.845L52.3331 148.189C51.5456 147.434 51.1026 147.172 50.5612 147.172C49.4784 147.172 49.5276 148.091 50.676 149.698C51.644 151.044 51.6768 151.109 51.3979 151.388C51.2667 151.52 51.037 151.487 50.5284 151.257C49.6096 150.847 48.3956 150.847 47.969 151.273C47.3456 151.897 47.6245 152.488 48.8057 153.127C49.3143 153.406 49.3307 153.455 49.0518 153.603C48.7565 153.767 46.8862 154.21 45.4753 154.456C45.1471 154.522 44.5729 154.817 44.212 155.113C43.7034 155.539 43.3425 155.687 42.6042 155.785C40.9964 155.982 40.6682 156.195 40.2745 157.295C39.5526 159.312 39.5034 159.362 37.994 159.755C37.2393 159.952 36.4518 160.231 36.2385 160.363C35.9104 160.576 35.8776 160.691 35.9925 161.199C36.0745 161.527 36.501 162.397 36.944 163.135C37.387 163.873 37.9776 164.923 38.2565 165.481C38.601 166.17 39.0768 166.761 39.8643 167.434C41.2589 168.664 41.7839 169.402 42.2268 170.715C42.4237 171.289 42.7026 171.798 42.8503 171.863C42.9979 171.929 44.1792 171.962 45.4753 171.962C49.0846 171.929 49.6753 171.601 52.169 168.385C53.8917 166.138 54.1706 165.875 54.876 165.875C55.8112 165.875 58.305 165.399 58.9284 165.104C59.5026 164.825 60.044 164.136 60.2245 163.414C60.2737 163.184 60.6018 162.594 60.93 162.102C61.7995 160.822 62.0784 160.215 62.0784 159.673C62.0784 159.362 62.2425 159.05 62.587 158.722C62.8659 158.459 63.2432 157.951 63.4401 157.59L63.7682 156.934L63.8995 157.426C64.0143 157.803 63.9159 158.213 63.4729 159.312C63.1776 160.084 62.669 161.593 62.3409 162.676C62.0292 163.759 61.5698 165.301 61.3401 166.121C60.7823 168.041 60.7495 169.337 61.2581 171.355C61.4714 172.224 61.701 172.93 61.7503 172.93C61.8159 172.93 62.0128 172.651 62.226 172.306C62.4229 171.978 62.9151 171.305 63.3253 170.813L64.08 169.927L63.9651 167.368C63.8995 165.957 63.7846 164.382 63.719 163.857C63.5878 163.053 63.6206 162.741 63.9159 161.97C64.6214 160.034 64.5557 160.084 64.8839 161.445C65.6221 164.513 66.0487 166.777 66.5081 170.288C66.7706 172.355 67.0003 174.144 67.0003 174.242C67.0003 174.341 67.0659 174.39 67.1479 174.341C67.23 174.275 67.4104 174.702 67.5253 175.259C67.6729 175.916 67.837 176.277 67.9682 176.244C68.0667 176.227 68.1487 176.293 68.1159 176.408C68.0995 176.523 68.1979 176.769 68.362 176.949C68.5096 177.13 68.7393 177.425 68.8706 177.605C69.051 177.852 69.051 177.72 68.8214 177.113C68.4276 176.047 68.2635 175.341 68.4276 175.44C68.4932 175.489 68.526 175.21 68.5096 174.816C68.4768 174.423 68.526 173.963 68.6245 173.799C68.7721 173.537 68.7885 173.553 68.805 173.947C68.805 174.177 68.8706 174.406 68.9362 174.439C69.0182 174.455 69.2643 175.079 69.5104 175.801C69.7401 176.523 69.9042 176.851 69.855 176.539C69.7893 176.063 69.8385 176.113 70.1831 176.916C70.4128 177.441 70.7573 178.13 70.9378 178.426L71.2823 179L70.905 179.148C70.6917 179.23 69.576 179.558 68.3948 179.886C59.7323 182.232 22.244 192.404 20.7675 192.814C19.4221 193.175 18.8643 193.405 18.7495 193.651C18.3557 194.373 19.0612 196.834 19.7831 197.277C19.98 197.391 26.9034 195.587 47.5096 189.992C62.6034 185.907 75.0557 182.527 75.1706 182.478C75.4495 182.38 75.4167 183.02 75.105 183.643C74.9573 183.938 74.6292 184.365 74.3667 184.611C74.055 184.906 73.8909 185.218 73.8909 185.53C73.8909 186.613 73.2182 187.843 70.5604 191.682C68.2143 195.029 67.9846 195.291 65.6714 197.145C63.3089 199.048 61.8979 200.541 59.6995 203.445C56.7792 207.317 53.3995 210.303 47.1979 214.503C45.3768 215.734 43.8346 216.816 43.7854 216.882C43.7526 216.964 43.605 217.489 43.4901 218.063C43.2932 219.08 43.326 220.18 43.6214 222.723L43.7198 223.707L42.6534 225.184C42.0464 225.988 41.3409 226.939 41.062 227.267C40.7995 227.612 40.4714 228.137 40.3401 228.448C40.1268 228.973 40.1268 229.072 40.4714 229.827C40.9635 230.926 42.3581 232.173 43.7034 232.714C44.655 233.108 44.901 233.141 46.0495 233.042C47.3292 232.927 47.3456 232.927 48.5432 231.927C50.594 230.22 52.5792 227.382 55.7456 221.673C57.862 217.85 58.83 215.914 60.7659 211.648C62.2589 208.351 62.9479 207.071 62.2425 208.859C60.5034 213.322 58.912 216.669 54.6464 224.938C51.9065 230.253 50.594 234.043 50.594 236.635C50.594 238.801 51.3815 239.916 53.6292 240.95C54.9253 241.557 60.5198 243.477 60.9792 243.477C61.3565 243.477 61.3401 243.657 60.7987 245.363C60.2573 247.07 59.601 248.152 57.7307 250.449C56.0573 252.5 55.5979 253.189 54.5643 255.125C53.1206 257.848 51.644 261.868 50.3315 266.609C50.1675 267.2 49.905 267.856 49.7409 268.086C49.5768 268.316 49.3635 268.939 49.2487 269.48C49.1175 270.137 48.8878 270.678 48.5432 271.121C47.7557 272.105 47.6081 272.45 47.6573 273.402C47.6901 274.107 47.6245 274.37 47.3292 274.747C47.0175 275.141 46.9682 275.354 47.0339 275.994C47.1159 276.666 47.0667 276.88 46.5581 277.716C46.2628 278.225 46.0003 278.734 46.0003 278.848C46.0003 278.947 45.7378 279.455 45.426 279.98C44.5729 281.424 44.3104 282.376 44.4089 283.721C44.4745 284.837 44.4581 284.886 43.9167 285.608C43.4409 286.231 43.3589 286.445 43.4573 286.888C43.5229 287.314 43.4245 287.675 42.9815 288.545C42.3089 289.89 41.6526 290.743 39.6018 292.941C38.7651 293.844 37.7479 295.025 37.3378 295.566C36.9276 296.108 36.2385 296.928 35.812 297.388C35.4018 297.83 34.926 298.438 34.7784 298.716C34.6471 298.995 34.2698 299.389 33.9581 299.57C33.1378 300.078 32.6784 301.374 33.1542 301.801C33.63 302.244 35.4018 303.343 35.6315 303.359C35.73 303.359 35.976 303.507 36.1565 303.688C36.5503 304.081 37.5018 304.13 37.8792 303.753C38.0268 303.605 38.1581 303.507 38.1745 303.54C38.1909 303.573 38.2893 303.753 38.3878 303.934C38.6503 304.426 39.2573 304.672 40.2089 304.672C41.7182 304.672 43.6378 303.425 44.4253 301.932C44.5565 301.686 45.0651 301.095 45.5573 300.62C46.5581 299.684 47.5096 298.355 48.2151 296.961C48.4612 296.469 49.2159 295.041 49.905 293.811C50.8237 292.187 51.2503 291.563 51.48 291.547C51.9885 291.547 53.055 290.333 53.1698 289.644C53.2354 289.234 53.4487 288.873 53.744 288.627C54.187 288.249 54.2198 288.134 54.187 287.314C54.1378 286.428 54.1378 286.428 54.876 285.936C56.4346 284.87 56.6971 284.443 56.4675 283.36C56.369 282.852 56.4182 282.704 56.9268 282.163C57.3042 281.736 57.4846 281.375 57.4846 281.047C57.4846 280.473 58.1573 279.095 58.83 278.258C59.076 277.946 59.2893 277.618 59.2893 277.52C59.2893 277.421 59.4534 277.273 59.6667 277.191C59.8635 277.093 60.044 276.863 60.0768 276.65C60.1096 276.437 60.3229 275.994 60.5362 275.666C60.8315 275.239 60.93 274.895 60.9135 274.419C60.8971 274.041 60.9464 273.598 61.0448 273.418C61.1432 273.238 61.1925 272.893 61.1432 272.647C61.0776 272.335 61.2089 272.007 61.5534 271.498C62.144 270.613 64.4573 266.855 65.1792 265.576C65.4745 265.034 66.2948 263.18 67.0003 261.441C68.7557 257.127 69.1495 256.405 70.5604 254.879C71.2167 254.157 72.1026 253.091 72.4964 252.5C73.5628 250.958 74.8753 247.972 75.9745 244.641L76.926 241.721L77.9925 241.163C78.6815 240.802 79.5018 240.163 80.3221 239.326C81.4542 238.177 81.651 237.882 82.3565 236.209C83.6034 233.255 84.4893 228.662 84.8175 223.33L84.9323 221.492L86.6057 218.195C87.5245 216.373 88.3284 214.963 88.3776 215.045C88.5089 215.241 88.6401 218.523 88.8206 224.97L88.9518 230.335L89.4768 231.5L90.0182 232.648L90.937 232.55C91.7081 232.452 92.0362 232.304 93.0042 231.582C93.644 231.123 95.0057 229.859 96.0393 228.809C98.2706 226.545 98.5331 226.414 100.026 227.021C100.567 227.234 101.453 227.448 101.995 227.497C102.897 227.562 103.11 227.53 103.816 227.12C104.489 226.742 104.784 226.398 105.588 225.102C106.113 224.248 106.556 223.477 106.589 223.379C106.621 223.297 107.196 223.641 107.868 224.166C116.547 230.926 119.91 233.157 127.326 236.98C129.607 238.161 130.033 238.571 130.033 239.605C130.033 240.277 129.885 240.589 128.803 242.213C127.359 244.395 126.703 245.642 126.26 247.086C125.275 250.285 125.111 256.438 125.948 259.227C126.571 261.31 126.735 262.344 126.571 263.033C126.489 263.361 126.473 263.804 126.506 264.034C126.555 264.263 126.506 264.493 126.407 264.542C126.145 264.706 126.194 265.149 126.506 265.494C126.768 265.789 126.752 265.805 126.424 266.052C125.997 266.347 125.964 266.659 126.309 266.938C126.637 267.216 126.637 269.234 126.292 269.234C125.981 269.234 125.997 269.825 126.325 269.956C126.457 270.005 126.522 270.137 126.473 270.219C126.407 270.317 126.473 270.58 126.621 270.793C126.949 271.302 126.965 272.417 126.637 272.68C126.325 272.942 126.325 273.09 126.67 273.418C127.064 273.828 127.08 275.6 126.686 275.731C126.342 275.83 126.292 276.453 126.621 276.453C126.801 276.453 126.834 276.617 126.768 277.109C126.703 277.602 126.752 277.848 126.949 278.077C127.211 278.373 127.211 278.438 126.982 278.898C126.653 279.521 126.653 280.44 126.982 281.063C127.178 281.473 127.195 281.67 127.047 282.13C126.883 282.605 126.899 282.77 127.129 283.13C127.441 283.59 127.408 284.098 126.982 286.051C126.325 289.02 127.178 293.532 128.589 294.549C129.065 294.894 129.262 294.91 132.133 294.91C135.004 294.894 135.283 294.877 137.219 294.369C139.844 293.696 141.239 293.68 143.486 294.287C144.733 294.615 145.225 294.68 145.553 294.566C145.865 294.451 146.144 294.467 146.489 294.598C148.08 295.255 151.099 295.189 152.034 294.484C152.46 294.172 152.592 294.155 153.215 294.32C154.15 294.549 155.889 294.549 156.595 294.32C157.661 293.959 158.219 293.155 157.874 292.482C157.612 291.99 157.415 291.875 156.775 291.875C156.431 291.875 155.857 291.645 155.266 291.284C154.167 290.612 153.592 290.448 151.657 290.251C150.426 290.12 149.983 289.972 148.211 289.119C147.079 288.594 145.816 288.003 145.389 287.839C144.946 287.675 144.602 287.445 144.602 287.33C144.602 287.216 144.454 287.052 144.257 286.953C144.077 286.838 143.962 286.723 144.011 286.674C144.175 286.51 143.437 285.985 143.191 286.084C143.06 286.133 142.781 285.985 142.535 285.723C142.305 285.477 142.026 285.329 141.895 285.378C141.747 285.427 141.485 285.247 141.222 284.902C140.992 284.591 140.681 284.328 140.566 284.328C140.435 284.328 140.254 284.148 140.172 283.918C140.09 283.688 139.91 283.508 139.795 283.508C139.417 283.508 138.532 282.359 138.532 281.867C138.532 281.605 138.4 281.277 138.253 281.129C137.99 280.866 138.007 280.801 138.449 280.013C139.024 278.98 139.073 277.963 138.581 277.306C138.318 276.962 138.285 276.765 138.4 276.552C138.482 276.388 138.515 276.092 138.466 275.879C138.417 275.666 138.449 275.436 138.548 275.387C138.646 275.321 138.696 275.026 138.679 274.73C138.646 274.435 138.712 274.091 138.827 273.959C139.057 273.664 138.794 273.336 138.335 273.336C138.089 273.336 138.039 273.188 138.039 272.483C138.039 271.745 138.105 271.564 138.499 271.252L138.942 270.875L138.581 270.563C138.056 270.12 138.089 269.464 138.696 268.906C139.221 268.414 139.319 267.84 139.007 267.233C138.876 267.003 138.876 266.855 139.007 266.724C139.319 266.413 139.221 265.789 138.827 265.609C138.466 265.445 138.449 265.395 138.482 263.033C138.499 261.507 138.63 259.817 138.86 258.406C139.04 257.192 139.385 254.961 139.598 253.452C140.238 249.104 141.517 243.608 142.387 241.459C143.174 239.506 143.503 238.062 143.47 236.537C143.453 234.913 143.24 234.043 142.469 232.402C141.764 230.86 140.943 229.761 138.843 227.398C137.99 226.447 135.775 223.871 133.921 221.656C129.426 216.308 126.785 213.502 121.748 208.728C118.401 205.562 117.532 204.659 117.532 204.331C117.532 204.036 117.22 203.593 116.564 202.904C115.727 202.018 115.497 201.624 114.857 200C114.447 198.966 114.135 198.097 114.152 198.064C114.185 198.048 114.808 198.474 115.546 199.016C117.023 200.131 117.515 200.689 119.008 202.953C120.173 204.725 120.714 205.348 121.338 205.677C121.928 205.988 122.847 205.972 123.487 205.644C124.209 205.283 125.078 204.43 125.078 204.085C125.078 203.938 124.799 203.413 124.471 202.937C124.143 202.445 123.832 201.755 123.782 201.395C123.7 200.82 123.585 200.689 122.929 200.328C122.519 200.098 121.649 199.459 120.993 198.901C119.418 197.572 113.43 193.454 111.543 192.404C109.345 191.19 106.293 189.073 105.653 188.319C105.325 187.941 104.915 187.154 104.685 186.481C104.456 185.841 104.16 185.021 104.029 184.66C103.882 184.299 103.767 183.495 103.75 182.888C103.75 182.232 103.652 181.576 103.504 181.297C103.373 181.034 103.307 180.624 103.34 180.362C103.389 180.116 103.324 178.836 103.192 177.523C103.061 176.211 103.012 175.095 103.078 175.013C103.143 174.948 104.817 174.439 106.802 173.898C110.116 172.995 110.51 172.913 111.953 172.946C114.135 172.979 114.053 172.995 114.217 172.388C114.349 171.88 114.398 171.847 116.317 171.338L118.27 170.797L119.418 171.929C120.796 173.274 121.469 173.75 121.994 173.75C122.503 173.75 124.75 171.273 125.177 170.255C125.439 169.599 125.554 169.484 125.948 169.484C126.506 169.484 127.293 169.091 127.424 168.746C127.556 168.418 128.737 168.418 129.656 168.746C130.263 168.959 130.427 168.959 130.919 168.746C131.575 168.484 131.756 168.139 131.51 167.614C131.346 167.253 131.428 167.237 136.957 165.744C140.024 164.907 142.633 164.234 142.748 164.234C142.846 164.234 142.961 164.333 143.01 164.431C143.06 164.595 143.142 164.562 143.306 164.366C143.437 164.218 147.046 162.971 152.017 161.38C159.466 158.984 160.549 158.673 160.86 158.853C161.156 159.034 161.238 159.017 161.385 158.788C161.549 158.541 161.828 158.656 164.125 159.805C165.52 160.527 167.439 161.544 168.391 162.085C169.342 162.643 170.278 163.086 170.474 163.086C170.671 163.086 172.853 162.249 175.314 161.216C187.75 156.031 194.838 152.652 201.039 148.911C203.927 147.172 208.258 144.334 208.258 144.186C208.258 143.989 207.093 143.891 202.68 143.71C196.544 143.464 191.064 143.694 182.91 144.563C176.217 145.269 166.799 146.548 166.307 146.827C166.127 146.909 165.52 147.779 164.946 148.763C164.109 150.207 160.975 155.113 160.746 155.359C160.713 155.391 160.582 155.326 160.45 155.227C160.27 155.063 160.171 155.096 159.958 155.391C159.745 155.703 158.564 155.998 151.017 157.688C146.242 158.755 142.174 159.575 141.993 159.526C141.747 159.46 141.649 159.509 141.649 159.69C141.649 160.002 142.157 159.838 134.791 161.839L129.164 163.365L128.392 162.2C127.441 160.756 127.014 160.51 125.932 160.838C125.439 160.97 124.98 161.002 124.668 160.92C124.357 160.838 124.094 160.871 123.914 161.002C123.766 161.101 123.274 161.445 122.847 161.757C122.404 162.069 121.764 162.577 121.436 162.889L120.846 163.463L119.992 162.741C118.778 161.724 117.892 160.625 116.547 158.492C115.891 157.459 115.202 156.376 115.005 156.113C114.792 155.834 114.496 155.227 114.332 154.735C114.053 153.882 113.348 152.881 111.724 151.077C111.264 150.568 110.575 149.764 110.182 149.272C109.804 148.796 108.459 147.303 107.196 145.941C104.997 143.595 103.914 142.053 103.914 141.315C103.914 140.888 103.521 140.511 102.536 139.986C101.765 139.559 101.716 139.494 101.503 138.591C101.174 137.098 99.9112 134.998 98.6315 133.784C97.7292 132.931 97.3354 132.685 96.4331 132.423C95.8424 132.226 95.2518 132.078 95.137 132.078C95.0221 132.078 94.8909 131.98 94.8417 131.865C94.7268 131.57 94.9729 129.059 95.1862 128.239C95.2846 127.878 95.3175 127.37 95.2682 127.107C95.1698 126.598 95.4323 125.122 95.8096 124.203C96.3839 122.743 96.5807 121.283 96.712 117.23C96.794 114.966 96.876 112.899 96.8924 112.637C96.9417 111.964 96.5479 108.847 96.3346 108.043C96.2362 107.682 96.1706 107.305 96.187 107.223C96.3182 106.829 96.1706 105.434 95.9573 104.795C95.826 104.417 95.6456 103.745 95.5471 103.285C94.7104 99.5281 91.3471 96.8867 87.5081 96.9852C86.6878 97.0016 85.9167 96.9359 85.6214 96.8047C84.8503 96.4766 82.1596 96.4274 81.126 96.7227ZM96.187 109.077C96.2034 109.29 96.1378 109.405 96.0393 109.355C95.9573 109.306 95.8753 108.978 95.8917 108.65C95.8917 108.158 95.9245 108.109 96.0393 108.371C96.1214 108.552 96.187 108.863 96.187 109.077ZM96.4167 114.13C96.5151 114.704 96.269 119.954 96.0393 121.742C95.7932 123.777 95.7112 124.105 95.5143 123.908C95.3831 123.777 95.3995 123.58 95.5307 123.252C95.6456 122.989 95.7276 122.333 95.7112 121.808C95.7112 121.266 95.744 120.43 95.7932 119.938C95.8424 119.445 95.9081 117.969 95.9409 116.656C95.9901 115.344 96.0229 114.146 96.0229 113.982C96.0393 113.555 96.3182 113.654 96.4167 114.13ZM93.0862 125.335C92.9549 125.598 92.9549 125.68 93.1026 125.68C93.3323 125.68 93.201 126.959 92.9057 127.517C92.7581 127.829 92.7581 127.862 92.9385 127.681C93.0534 127.583 93.2175 127.484 93.2995 127.484C93.3979 127.484 93.3979 127.566 93.2995 127.681C93.119 127.927 92.7581 129.158 92.7745 129.47C92.7745 129.601 92.8893 129.437 93.0042 129.125C93.2831 128.403 93.3159 128.83 93.0698 130.273C92.9714 130.864 92.8893 131.471 92.8729 131.635C92.8565 131.881 92.7581 131.914 92.3479 131.816C92.0854 131.75 91.4456 131.652 90.9534 131.602C90.051 131.504 90.051 131.504 89.9362 130.848C89.8706 130.487 89.8214 129.863 89.8214 129.453C89.8049 128.748 89.8706 128.649 90.8714 127.648C91.462 127.074 91.9378 126.516 91.9378 126.418C91.9378 126.188 93.1026 124.81 93.201 124.925C93.2503 124.958 93.201 125.155 93.0862 125.335ZM91.6096 131.914C91.7901 132.029 91.7409 132.062 91.3635 132.062C91.101 132.045 90.6909 131.98 90.4612 131.914C90.1003 131.799 90.1331 131.783 90.7073 131.766C91.0682 131.766 91.4784 131.832 91.6096 131.914ZM103.603 140.987C103.767 141.282 103.701 141.266 103.274 140.872C102.684 140.314 102.635 140.199 103.094 140.445C103.274 140.544 103.504 140.773 103.603 140.987ZM71.0854 162.266C71.0854 162.43 71.0362 162.397 70.9378 162.184C70.7409 161.741 70.7409 161.478 70.9378 161.773C71.0198 161.905 71.0854 162.134 71.0854 162.266ZM112.577 164.218C114.086 164.973 114.217 165.088 114.808 166.039C115.153 166.597 115.399 167.073 115.382 167.089C115.349 167.122 114.742 167.286 114.037 167.483L112.774 167.827L112.167 166.646C111.855 165.99 111.33 165.071 111.035 164.595C110.083 163.135 110.296 163.07 112.577 164.218ZM71.7089 164.267C71.6596 164.398 71.6104 164.349 71.6104 164.169C71.594 163.988 71.6432 163.89 71.6925 163.955C71.7417 164.005 71.7581 164.152 71.7089 164.267ZM106.474 165.645C106.949 166.449 107.589 167.516 107.901 168.008C108.229 168.5 108.459 168.927 108.442 168.959C108.41 168.976 107.442 169.255 106.277 169.583C105.112 169.895 104.095 170.173 103.996 170.206C103.734 170.305 103.816 168.763 104.095 168.336C104.259 168.073 104.39 167.368 104.456 166.482C104.538 165.383 104.636 164.923 104.915 164.546C105.096 164.284 105.342 164.087 105.44 164.12C105.539 164.152 105.998 164.825 106.474 165.645ZM72.1846 166.138C72.3159 166.941 72.4635 168.779 72.4964 170.223C72.6112 174.423 72.7753 176.982 72.9065 176.621C73.005 176.342 73.0542 176.375 73.2346 176.9C73.3823 177.31 73.5135 177.458 73.5956 177.31C73.6776 177.179 73.7268 177.277 73.7432 177.556C73.7596 177.819 73.776 178.098 73.7925 178.196C73.8089 178.377 73.0378 178.672 71.9878 178.885C71.4956 178.984 71.4792 178.951 71.2003 178.081C71.0362 177.573 70.9542 177.13 71.0034 177.064C71.0526 177.015 71.1018 177.097 71.1018 177.245C71.1018 177.392 71.1839 177.523 71.2659 177.523C71.4464 177.523 71.3315 176.834 71.0526 176.293C70.9542 176.113 70.8557 175.227 70.8229 174.324C70.7901 173.323 70.8229 172.815 70.905 173.012C71.0198 173.258 71.0854 173.077 71.1839 172.273C71.3151 171.223 71.3151 171.223 71.4628 171.781C71.5612 172.093 71.594 172.979 71.5448 173.75C71.4135 175.817 71.7253 174.964 72.0042 172.438C72.201 170.551 72.201 169.977 72.0042 167.795C71.8729 166.416 71.7581 165.12 71.7581 164.907C71.7581 164.152 71.9385 164.694 72.1846 166.138ZM138.532 267.938C138.532 268.02 138.466 268.086 138.367 268.086C138.285 268.086 138.203 267.971 138.203 267.823C138.203 267.692 138.285 267.627 138.367 267.676C138.466 267.725 138.532 267.84 138.532 267.938ZM127.49 279.931C127.441 280.063 127.392 280.013 127.392 279.833C127.375 279.652 127.424 279.554 127.474 279.62C127.523 279.669 127.539 279.816 127.49 279.931ZM53.4487 287.839C53.3995 287.987 53.2846 288.102 53.2026 288.102C53.1042 288.102 53.1206 287.954 53.219 287.757C53.4323 287.363 53.6128 287.429 53.4487 287.839Z" fill="black"/>
        </g>
    </g>
    <defs>
        <filter id="filter0_d" x="18.6365" y="86.5273" width="209.622" height="228.145" filterUnits="userSpaceOnUse" color-interpolation-filters="sRGB">
            <feFlood flood-opacity="0" result="BackgroundImageFix"/>
            <feColorMatrix in="SourceAlpha" type="matrix" values="0 0 0 0 0 0 0 0 0 0 0 0 0 0 0 0 0 0 127 0"/>
            <feOffset dx="10"/>
            <feGaussianBlur stdDeviation="5"/>
            <feColorMatrix type="matrix" values="0 0 0 0 0.4 0 0 0 0 0.564706 0 0 0 0 0.45098 0 0 0 1 0"/>
            <feBlend mode="normal" in2="BackgroundImageFix" result="effect1_dropShadow"/>
            <feBlend mode="normal" in="SourceGraphic" in2="effect1_dropShadow" result="shape"/>
        </filter>
        <clipPath id="clip0">
            <rect x="4" y="95" width="210" height="210" fill="white"/>
        </clipPath>
    </defs>
</svg>
