<svg width="338" height="322" viewBox="0 0 338 322" fill="none" xmlns="http://www.w3.org/2000/svg">
    <rect x="0.5" y="22.5" width="299" height="299" fill="white" stroke="#627EEA"/>
    <rect x="188.5" y="0.5" width="149" height="151" fill="white" stroke="#627EEA"/>
    <path d="M242.108 286.8C242.084 287.76 242.036 288.732 241.964 289.716C241.916 290.676 241.832 291.648 241.712 292.632H240.776L239.3 288.672H231.452V298.212H237.32L238.724 295.548H239.624C239.768 297.924 239.768 300.348 239.624 302.82H238.724L237.32 300.084H231.452V310.128H239.732L241.496 305.808H242.396C242.564 306.816 242.684 307.836 242.756 308.868C242.828 309.9 242.84 310.944 242.792 312H225.044V310.956C225.884 310.572 226.868 310.284 227.996 310.092V288.744C227.516 288.648 227.024 288.528 226.52 288.384C226.016 288.216 225.524 288.036 225.044 287.844V286.8H242.108ZM261.153 312H251.037V310.956C251.565 310.764 252.093 310.596 252.621 310.452C253.173 310.308 253.761 310.188 254.385 310.092V288.672H248.877L246.969 293.82H246.069C245.997 293.34 245.937 292.8 245.889 292.2C245.841 291.576 245.793 290.952 245.745 290.328C245.721 289.68 245.697 289.056 245.673 288.456C245.649 287.832 245.637 287.28 245.637 286.8H266.553C266.553 287.28 266.541 287.82 266.517 288.42C266.493 289.02 266.457 289.644 266.409 290.292C266.385 290.916 266.349 291.54 266.301 292.164C266.277 292.764 266.229 293.316 266.157 293.82H265.221L263.349 288.672H257.841V310.092C258.465 310.212 259.041 310.332 259.569 310.452C260.121 310.572 260.649 310.74 261.153 310.956V312ZM277.394 312H268.286V310.956C269.246 310.572 270.23 310.284 271.238 310.092V288.744C270.11 288.576 269.126 288.276 268.286 287.844V286.8H277.394V287.844C276.986 288.06 276.554 288.24 276.098 288.384C275.642 288.528 275.174 288.648 274.694 288.744V298.14H285.998V288.744C285.494 288.624 285.014 288.492 284.558 288.348C284.126 288.204 283.706 288.036 283.298 287.844V286.8H292.406V287.844C291.974 288.084 291.494 288.276 290.966 288.42C290.462 288.54 289.958 288.648 289.454 288.744V310.092C290.006 310.188 290.534 310.308 291.038 310.452C291.542 310.596 291.998 310.764 292.406 310.956V312H283.298V310.956C284.162 310.572 285.062 310.284 285.998 310.092V300.012H274.694V310.092C275.174 310.188 275.642 310.308 276.098 310.452C276.554 310.596 276.986 310.764 277.394 310.956V312Z" fill="#001322"/>
    <path d="M263 151C304.421 151 338 117.421 338 76C338 34.5786 304.421 1 263 1C221.579 1 188 34.5786 188 76C188 117.421 221.579 151 263 151Z" fill="#627EEA"/>
    <path d="M265.344 19.75V61.3281L300.5 77.0313L265.344 19.75Z" fill="white" fill-opacity="0.6"/>
    <path d="M265.344 19.75L230.188 77.0313L265.344 61.3281V19.75Z" fill="white"/>
    <path d="M265.344 103.985V132.25L300.5 83.5942L265.344 103.985Z" fill="white" fill-opacity="0.6"/>
    <path d="M265.344 132.25V103.985L230.188 83.5942L265.344 132.25Z" fill="white"/>
    <path d="M265.344 97.4224L300.5 77.0317L265.344 61.3286V97.4224Z" fill="white" fill-opacity="0.2"/>
    <path d="M230.188 77.0317L265.344 97.4224V61.3286L230.188 77.0317Z" fill="white" fill-opacity="0.6"/>
    <g filter="url(#filter0_d)">
        <path d="M118.203 77.5556C117.96 77.8682 117.508 78.6322 117.196 79.2573C116.692 80.2297 116.605 80.629 116.501 82.105C116.432 83.3031 116.31 83.8761 116.136 84.015C115.824 84.2407 115.911 84.8137 116.31 85.1089C116.518 85.2652 116.536 85.3173 116.345 85.3346C116.188 85.3346 116.154 85.4562 116.206 85.6993C116.258 85.9077 115.529 91.9503 114.591 99.1215C113.653 106.293 111.726 120.965 110.319 131.713L107.75 151.248L106.256 151.178C105.336 151.126 104.503 150.987 104.016 150.779C103.148 150.397 102.297 150.362 100.457 150.64L99.1372 150.831L96.6715 149.668C95.2998 149.025 93.4418 148.227 92.5563 147.897C91.0977 147.376 90.7331 147.15 89.4655 146.004C88.5105 145.136 87.7291 144.58 87.1214 144.337C86.0275 143.938 83.5271 143.347 82.8499 143.347C81.947 143.347 80.471 143.191 79.3771 143C78.37 142.809 78.2137 142.826 77.606 143.139C76.6163 143.642 75.8175 143.764 75.5397 143.434C75.2619 143.104 72.5705 143.017 72.5705 143.347C72.5705 143.469 72.3447 143.504 71.928 143.434C71.5634 143.365 70.973 143.278 70.6257 143.226C70.2611 143.156 69.9659 143.035 69.9659 142.913C69.9659 142.809 70.3653 141.541 70.8688 140.118C71.355 138.676 71.8412 136.975 71.9454 136.315L72.1364 135.134L72.7962 135.759C73.3171 136.245 73.5255 136.35 73.7686 136.228C73.9422 136.124 74.168 136.124 74.3242 136.228C74.4458 136.315 74.6889 136.367 74.8278 136.367C74.9667 136.367 74.9146 136.298 74.7062 136.211C74.168 135.985 74.2027 135.811 74.7583 135.916C75.0709 135.968 75.1751 135.933 75.1056 135.759C75.0535 135.62 75.0709 135.534 75.1403 135.534C75.5918 135.603 75.6612 135.481 75.3487 135.169C75.1577 134.978 75.0535 134.717 75.1056 134.561C75.2098 134.318 75.2619 134.335 75.5571 134.631C75.7307 134.839 76.0085 134.995 76.1822 134.978C76.4079 134.978 76.3732 134.926 76.0953 134.822C75.8696 134.735 75.696 134.544 75.696 134.405C75.696 134.266 75.6092 134.127 75.5223 134.092C75.2619 134.006 75.0882 132.738 75.3313 132.738C75.4355 132.738 75.5223 132.894 75.5223 133.085C75.5223 133.276 75.6786 133.571 75.8522 133.728C76.0433 133.884 76.1648 134.075 76.1127 134.162C76.0606 134.231 76.1127 134.301 76.1995 134.301C76.46 134.301 76.4426 134.006 76.1648 133.762C76.0433 133.641 75.9738 133.276 76.0259 132.877C76.078 132.182 75.887 131.627 75.314 130.845C75.1403 130.62 75.0014 130.359 75.0014 130.255C75.0014 130.151 75.123 130.22 75.2619 130.411C75.5744 130.811 75.0014 129.039 74.4631 127.911C74.2548 127.511 74.1332 127.008 74.1853 126.834C74.2374 126.643 74.22 126.487 74.1332 126.487C74.0638 126.487 73.7339 126.036 73.3866 125.463C72.7268 124.421 71.7717 123.361 71.4592 123.361C71.355 123.344 70.9904 122.945 70.6605 122.441C70.3132 121.955 69.8096 121.434 69.5318 121.295C69.2366 121.174 68.8199 120.878 68.5768 120.653C68.3337 120.444 67.8649 120.132 67.535 119.993C67.205 119.854 66.7189 119.559 66.4584 119.316C66.1979 119.073 65.9548 118.934 65.9028 118.986C65.8507 119.038 65.7986 119.003 65.7986 118.899C65.7986 118.586 64.6526 118.152 63.8538 118.152C63.4371 118.152 62.9335 118.031 62.7252 117.892C62.5342 117.753 61.9438 117.597 61.4229 117.527C60.6068 117.44 60.3116 117.492 59.426 117.874C58.853 118.135 58.2627 118.361 58.1238 118.395C57.325 118.5 55.4671 119.663 54.5642 120.601C54.0085 121.156 53.4702 121.625 53.3661 121.625C53.2445 121.625 53.123 121.695 53.0882 121.764C53.0709 121.833 52.741 122.077 52.3763 122.302C51.5949 122.788 51.6297 122.997 52.4284 122.58C52.741 122.424 53.0188 122.32 53.0535 122.372C53.0882 122.406 52.8278 122.771 52.4631 123.188C52.1159 123.605 51.9422 123.9 52.0811 123.848C53.0709 123.448 53.0188 123.431 52.6715 124.073C52.4979 124.403 52.359 124.733 52.3416 124.837C52.3416 124.924 52.2027 124.994 52.029 124.959C51.8554 124.924 51.7339 125.011 51.7339 125.185C51.7339 125.341 51.6123 125.497 51.4734 125.549C51.2477 125.636 51.2998 125.827 51.7686 126.678L52.3242 127.685L52.0117 129.039C51.838 129.786 51.6644 130.585 51.5949 130.828C51.5429 131.071 51.4908 131.453 51.4734 131.679C51.4734 131.922 51.3692 132.13 51.2477 132.182C50.9351 132.286 50.9872 132.53 51.3345 132.599C51.6123 132.651 51.5776 132.721 51.1782 133.137C50.5705 133.745 50.5705 133.849 51.1435 133.728C51.4734 133.676 51.5602 133.71 51.4908 133.901C51.4387 134.04 51.3866 134.231 51.3866 134.318C51.3866 134.405 51.0914 134.804 50.7441 135.204C50.2058 135.794 50.1537 135.898 50.4489 135.829C50.7788 135.742 50.8136 135.811 50.7962 136.662C50.7788 137.687 50.9004 137.93 51.2998 137.6C51.6123 137.339 51.647 137.6 51.3519 137.93C51.1609 138.121 51.1782 138.173 51.3519 138.242C51.5255 138.312 51.5255 138.381 51.3692 138.572C51.0914 138.902 51.2998 139.093 51.647 138.815C51.7859 138.694 51.9075 138.676 51.9075 138.781C51.9075 138.867 51.7859 139.041 51.647 139.163C51.2129 139.527 51.3519 139.684 52.029 139.579L52.6541 139.475L52.3763 139.927C52.029 140.448 51.9596 140.916 52.2895 140.586C52.6021 140.274 52.8451 140.343 52.5847 140.673C52.359 140.934 52.3937 140.934 52.8104 140.656C53.2445 140.378 53.2792 140.378 53.3661 140.691C53.5223 141.142 53.2966 141.628 53.0188 141.524C52.8799 141.472 52.7583 141.559 52.741 141.732C52.7062 142.288 52.6715 142.375 52.5326 142.601C52.4284 142.774 52.5152 142.792 52.8972 142.705C53.7481 142.514 53.9043 142.219 53.8522 140.986C53.8002 139.545 54.0953 139.354 54.2169 140.777C54.269 141.576 54.2343 141.976 54.0259 142.288C53.7828 142.687 53.7828 142.705 54.0433 142.479C54.4253 142.167 54.4773 142.236 54.5468 143.069L54.5989 143.764L53.2966 143.886C52.5847 143.955 51.3519 144.077 50.5878 144.146C49.6155 144.25 49.0598 144.389 48.8341 144.597C48.4174 144.962 48.0527 144.979 41.7496 144.91C35.5507 144.823 35.4466 144.841 34.9256 145.24C34.6999 145.431 34.3874 145.587 34.2658 145.587C34.1443 145.587 33.797 145.813 33.5192 146.091C32.8941 146.699 31.9564 146.907 29.1609 147.063C28.0669 147.115 25.5839 147.358 23.6565 147.601C19.2808 148.122 17.9264 148.14 17.0062 147.671C16.1727 147.237 14.0543 146.907 13.1167 147.046C12.0054 147.237 11.0677 147.897 9.66125 149.477C8.22005 151.092 7.89013 151.821 8.02905 153.088C8.30687 155.328 10.7031 157.586 13.3771 158.089C13.898 158.193 14.5058 158.471 14.9225 158.801C15.8081 159.513 17.2319 159.843 18.8467 159.704C19.6281 159.652 20.2011 159.687 20.4442 159.808C20.6352 159.912 21.4513 160.086 22.25 160.173C23.0488 160.26 24.1601 160.433 24.7331 160.537C25.3061 160.659 26.209 160.763 26.7473 160.763C27.4939 160.781 27.8933 160.902 28.3968 161.249L29.074 161.718L32.1127 161.649C34.7694 161.597 35.6028 161.649 38.7978 162.118C40.812 162.395 42.6178 162.708 42.8262 162.795C43.1387 162.899 43.2256 163.09 43.2256 163.541C43.2256 163.854 43.3471 164.462 43.486 164.861C43.6249 165.26 43.7465 165.781 43.7465 165.99C43.7465 166.198 44.0069 166.65 44.3369 166.979C44.6668 167.327 45.014 167.9 45.1182 168.282C45.2224 168.664 45.535 169.289 45.8128 169.671C46.5768 170.73 46.872 171.39 46.872 172.032C46.872 172.432 47.0109 172.744 47.3234 173.039C47.6881 173.369 47.7575 173.56 47.6707 174.012C47.636 174.324 47.636 174.585 47.7054 174.585C47.7749 174.585 47.8444 174.828 47.8617 175.123C47.8791 175.418 48.1222 175.939 48.3826 176.286C48.782 176.825 48.8515 177.051 48.8167 177.936C48.782 178.822 48.8341 179.082 49.2335 179.638C49.6328 180.211 49.6676 180.384 49.5113 180.784C49.4071 181.062 49.2682 181.6 49.2161 181.999C49.1119 182.624 49.1466 182.746 49.3897 182.746C49.6155 182.746 49.6676 182.833 49.5634 183.128C49.4245 183.614 49.4245 183.753 49.546 184.309C49.6502 184.673 49.6328 184.691 49.4939 184.395C49.3376 184.066 49.3203 184.066 49.3203 184.43C49.3029 184.639 49.3897 184.864 49.4766 184.916C49.5807 184.986 49.6155 185.177 49.5634 185.368C49.4939 185.541 49.4418 186.028 49.4418 186.427C49.4418 186.826 49.3203 187.347 49.1814 187.556C49.0251 187.781 48.9904 187.955 49.0598 187.955C49.1466 187.955 49.1293 188.024 49.0251 188.094C48.9035 188.181 48.8688 188.771 48.9556 189.952C49.0598 191.688 49.2161 192.192 50.1711 193.876L50.5184 194.501L50.0496 195.335C49.8065 195.803 49.5807 196.307 49.5634 196.463C49.546 196.741 46.9588 199.415 46.7157 199.415C46.49 199.415 46.1774 200.266 46.1774 200.839C46.1774 201.343 45.8301 201.916 44.6668 203.391C43.7639 204.52 43.8333 205.093 45.0314 206.777L45.8128 207.871L45.5697 208.653C45.4481 209.087 45.1877 209.747 44.9967 210.111C44.3716 211.361 43.2603 214.747 42.3574 218.116C42.2532 218.533 41.8712 219.21 41.5065 219.627C40.7252 220.53 40.5342 221.033 40.2911 222.908C40.1348 223.985 39.9785 224.436 39.4576 225.2C38.3463 226.885 38.4505 228.552 39.7528 230.028L40.4474 230.809V232.615C40.4474 234.473 40.3084 235.202 39.4923 237.442C39.0756 238.571 39.0062 239.039 38.9888 240.915C38.9541 242.964 38.902 243.207 38.2074 245.325C37.617 247.096 37.426 247.982 37.3045 249.475C37.2177 250.517 37.0788 251.854 36.9746 252.427C36.8704 253.017 36.7141 255.292 36.6273 257.497C36.3321 264.182 36.2279 264.79 34.7346 268.367C34.2658 269.478 33.8665 270.034 32.3732 271.684C31.3661 272.777 30.22 273.854 29.8207 274.08C28.1711 274.983 25.2019 277.049 24.681 277.639C23.8128 278.612 23.4308 279.532 23.2224 281.112C22.9967 282.814 23.0314 282.918 24.49 283.717C25.3408 284.168 25.4276 284.185 27.4766 284.116C29.3692 284.047 29.7339 283.977 30.9667 283.474C32.6857 282.779 33.3455 282.31 35.4118 280.4C36.9051 279.011 38.9714 277.292 39.475 277.014C39.5792 276.962 39.9438 276.771 40.2737 276.597C41.5934 275.92 42.3226 275.174 42.6005 274.184C42.9304 273.09 42.9651 270.694 42.6873 269.114L42.4963 268.037L44.2327 264.599C45.1877 262.689 46.2295 260.484 46.5421 259.685C46.8546 258.886 47.4797 257.636 47.9138 256.907C48.3653 256.178 49.0425 255.084 49.4071 254.459C49.7891 253.833 50.2753 252.896 50.4837 252.375C51.0046 251.055 52.359 245.325 52.6194 243.433C52.7931 242.095 53.0361 241.384 54.3037 238.484C56.1964 234.125 56.5436 233.448 56.8736 233.448C57.5681 233.448 59.5129 231.938 59.9817 231.017C60.1032 230.774 60.2595 230.184 60.329 229.715C60.3984 229.229 60.8325 228.013 61.3013 226.989C62.2043 225.044 62.3084 224.367 61.8917 223.551C61.6486 223.082 61.6833 222.943 62.3084 221.085C63.003 219.088 63.9754 216.848 64.2358 216.692C64.4963 216.536 65.2777 217.526 65.3645 218.151C65.486 218.897 65.9548 220.356 66.4584 221.554C66.6668 222.023 67.4134 224.245 68.1427 226.485C69.4797 230.601 69.5144 230.826 68.8025 230.844C68.4205 230.844 68.5594 231.504 69.4276 233.969C69.9138 235.271 70.4 236.991 70.5389 237.772C70.6778 238.553 70.8688 239.283 70.973 239.387C71.0598 239.474 71.5634 239.612 72.0669 239.665L72.9872 239.786L73.6644 241.436C74.029 242.339 75.2271 245.777 76.3211 249.041C77.415 252.323 78.5784 255.552 78.9256 256.23C79.5681 257.515 80.1237 259.477 80.8183 262.915C81.2698 265.172 81.8254 266.561 83.3013 269.114C84.2911 270.815 84.8294 272.326 85.4892 275.208C85.7496 276.25 86.2879 277.969 86.7047 279.028C87.7291 281.633 87.8159 282.137 87.7291 284.932C87.6076 288.006 87.868 289.099 88.962 290.107C89.344 290.489 89.917 290.905 90.1948 291.044C90.49 291.2 92.1222 292.746 93.8412 294.5C96.6368 297.33 97.1056 297.729 98.2516 298.285C99.8664 299.066 101.117 299.309 102.801 299.223C103.912 299.153 104.294 299.049 105.249 298.511C105.874 298.163 106.447 297.781 106.552 297.66C106.881 297.243 106.951 296.566 106.76 295.524C106.395 293.458 106.1 292.711 105.267 291.791C104.503 290.94 102.193 289.238 100.509 288.266C100.075 288.023 99.0156 287.068 98.1474 286.165C96.3069 284.255 95.4908 282.779 95.0567 280.609C94.9004 279.862 94.692 279.081 94.5878 278.889C94.4837 278.681 94.4489 278.23 94.5358 277.743C94.5878 277.309 94.7268 274.132 94.8136 270.694C94.9004 267.256 95.0219 263.627 95.074 262.62C95.1956 260.38 94.7962 258.609 93.4245 255.448C93.2335 254.997 92.9209 253.712 92.7299 252.583C92.5389 251.472 92.0006 249.301 91.5144 247.773C90.6115 244.874 90.6636 245.186 89.8301 237.251L89.726 236.296L90.4379 236.018C90.8372 235.862 91.2019 235.601 91.254 235.445C91.3234 235.306 91.1498 234.698 90.8893 234.108C90.5942 233.448 90.3163 232.389 90.1601 231.295C89.7433 228.309 89.7607 228.326 89.1356 228.378L88.6147 228.43L88.1285 225.426C87.868 223.777 87.4687 221.832 87.2256 221.12C86.9998 220.408 86.6526 219.036 86.4789 218.064C86.2532 216.901 85.9927 216.102 85.7149 215.668C85.2982 215.077 84.8988 213.723 84.8988 212.976C84.8988 212.803 84.7425 212.455 84.5342 212.195C84.1522 211.709 83.284 208.844 83.4229 208.601C83.475 208.531 83.9438 208.305 84.4647 208.114C84.9856 207.923 85.958 207.472 86.6352 207.142C88.5799 206.152 88.9967 205.562 88.0243 205.058C87.5902 204.833 86.8436 203.826 87.0172 203.669C87.0519 203.652 87.5555 203.409 88.1632 203.148C88.771 202.871 89.4134 202.471 89.6044 202.228C90.2469 201.395 89.9343 199.485 88.2327 194.119C87.4513 191.654 86.8609 189.17 85.8538 184.309C85.1245 180.732 84.4994 177.363 84.4473 176.842C84.3953 176.182 84.2737 175.818 84.048 175.627C83.8743 175.488 83.475 174.932 83.1972 174.411L82.6589 173.456L83.6312 167.9C84.1695 164.844 84.6557 161.631 84.7252 160.781C84.8988 158.749 85.5239 156.961 86.0101 157.152C86.149 157.204 86.7047 157.169 87.2429 157.065C88.0243 156.926 88.3195 156.926 88.6841 157.117C89.5697 157.568 92.7994 158.627 95.1088 159.218C97.5397 159.826 99.1372 160.572 100.422 161.666C101.134 162.274 101.967 162.534 102.662 162.361C102.905 162.309 103.374 162.43 103.912 162.691C104.364 162.934 105.058 163.125 105.423 163.125C105.996 163.125 106.083 163.177 106.083 163.524C106.083 163.75 105.701 166.858 105.215 170.435C104.746 174.012 103.183 185.906 101.742 196.897C100.301 207.871 98.9114 218.429 98.6683 220.339C98.4079 222.249 98.1301 223.863 98.0432 223.916C97.9391 223.985 97.9217 224.159 97.9738 224.315C98.0432 224.471 98.0085 224.593 97.9217 224.593C97.6265 224.593 97.3661 225.287 97.5744 225.548C97.7133 225.704 97.6786 226.155 97.4355 227.215C97.1577 228.5 97.1403 228.795 97.3487 229.802C97.4702 230.427 97.696 231.226 97.8696 231.59C98.1301 232.181 98.2169 232.25 98.6857 232.198L99.224 232.146L99.1719 230.323C99.1198 228.586 99.3455 227.006 99.6928 226.555C99.7796 226.433 99.8144 226.26 99.7623 226.173C99.6928 226.086 99.7796 225.93 99.9359 225.843C100.092 225.756 100.214 225.461 100.231 225.183C100.266 224.228 103.304 220.304 106.586 216.987C110.424 213.098 110.441 213.063 112.959 205.614C113.567 203.808 114.226 202.054 114.417 201.707C115.147 200.457 116.57 198.721 116.796 198.79C116.918 198.842 117.022 198.773 117.022 198.634C117.022 198.495 117.143 198.373 117.282 198.373C117.439 198.373 117.491 198.269 117.421 198.113C117.369 197.939 117.421 197.852 117.56 197.887C117.716 197.922 117.803 197.783 117.803 197.557C117.803 197.14 119.974 194.432 123.69 190.23C125.617 188.024 128.204 184.777 128.656 183.961C128.777 183.736 128.881 183.77 129.263 184.135C130.062 184.882 130.218 185.385 130.218 187.174C130.218 188.91 130.323 189.084 130.982 188.597C131.364 188.32 131.59 187.313 131.608 185.923V184.847L130.305 183.319C129.593 182.485 129.003 181.739 129.003 181.652C129.003 181.582 129.541 181.982 130.201 182.537C132.25 184.257 132.945 184.465 133.379 183.527C133.57 183.11 133.518 183.024 132.823 182.346C132.424 181.947 131.712 181.079 131.26 180.402C130.739 179.638 130.201 179.065 129.802 178.856C129.072 178.457 127.753 176.616 127.232 175.227C126.937 174.446 126.902 173.977 126.954 171.928C126.989 170.105 127.058 169.497 127.249 169.393C127.423 169.271 127.492 168.872 127.492 167.917L127.475 166.597L128.117 166.684C129.541 166.893 132.076 167.292 132.667 167.396C133.448 167.535 134.039 167.049 134.039 166.268C134.039 165.695 133.813 165.469 132.892 165.139L132.215 164.878H133.379C134.108 164.861 135.063 164.705 135.914 164.427C137.355 163.976 137.424 163.906 137.772 162.656C137.824 162.465 137.963 162.257 138.102 162.204C138.223 162.152 139.56 162.187 141.088 162.274C142.599 162.343 146.853 162.586 150.534 162.777C158.643 163.212 168.367 163.732 174.93 164.08C187.78 164.774 196.409 165.226 201.323 165.469C204.293 165.625 206.862 165.833 207.036 165.938C207.227 166.042 208.877 166.198 210.717 166.302L214.068 166.476L214.867 167.674C215.527 168.664 215.718 168.837 216.048 168.768C216.256 168.716 218.774 168.247 221.639 167.726C228.22 166.511 228.567 166.406 227.508 165.92C227.057 165.712 216.065 162.43 215.84 162.43C215.77 162.43 215.371 162.899 214.954 163.455L214.173 164.479L208.616 164.41C205.56 164.392 200.75 164.236 197.937 164.08C192.624 163.802 189.794 163.663 181.095 163.212C151.142 161.684 138.432 161.024 138.136 160.972C137.859 160.937 137.685 160.676 137.459 159.93C137.233 159.235 137.008 158.888 136.713 158.749C136.383 158.593 136.296 158.419 136.296 157.916C136.296 156.648 135.862 156.509 130.67 156.006C129.715 155.901 128.916 155.797 128.881 155.762C128.743 155.641 129.211 152.272 129.385 152.168C129.559 152.047 129.645 151.699 129.75 150.362C129.802 149.824 130.08 149.303 130.965 148.105C131.608 147.237 132.128 146.438 132.128 146.299C132.128 146.178 131.92 145.605 131.677 145.066C131.069 143.712 131.243 143.208 132.84 141.611C133.83 140.621 134.247 140.343 135.132 140.048C136.001 139.753 136.435 139.475 137.251 138.624C137.824 138.051 138.623 137.374 139.039 137.131C139.821 136.662 139.977 136.211 139.525 135.603C139.3 135.29 139.265 135.29 138.449 135.603C137.98 135.777 137.112 136.228 136.504 136.61C135.723 137.096 135.358 137.253 135.219 137.114C135.028 136.923 135.115 136.871 137.511 135.221C138.692 134.405 139.039 133.728 139.178 132.009C139.282 130.776 139.265 130.689 138.883 130.429C138.657 130.272 138.414 130.203 138.345 130.272C138.275 130.342 138.067 131.054 137.876 131.87C137.563 133.189 137.442 133.415 136.799 133.988C136.4 134.353 135.983 134.648 135.844 134.648C135.705 134.648 135.549 134.266 135.445 133.641C134.976 131.175 134.16 128.223 133.518 126.782C133.136 125.931 132.875 125.15 132.927 125.063C132.979 124.976 132.892 124.699 132.719 124.438C132.042 123.396 131.99 123.448 135.758 120.08C137.251 118.743 137.303 118.604 136.435 118.135C136.157 117.979 135.966 118.083 135.341 118.656C133.934 119.958 133.5 119.489 133.848 117.041C134.16 114.749 134.125 114.662 133.083 115.565C132.493 116.086 132.476 116.155 132.476 117.284C132.476 118.847 131.555 121.799 131.069 121.799C131.017 121.799 130.722 121.347 130.444 120.792C129.732 119.455 129.645 118.395 130.062 116.503C130.479 114.575 130.479 114.332 130.114 114.784C129.871 115.096 129.871 115.079 130.08 114.68C130.236 114.384 130.305 113.429 130.305 111.554C130.305 109.106 130.236 108.585 129.628 105.737C129.263 104.018 128.899 102.473 128.812 102.316C128.725 102.143 128.69 101.83 128.743 101.622C128.795 101.396 128.621 100.441 128.326 99.4862C128.048 98.5312 127.718 97.2462 127.614 96.6212C127.232 94.659 125.999 91.7593 125.513 91.7593C125.426 91.7593 125.079 92.0024 124.766 92.2975C124.263 92.749 123.863 93.4609 123.151 95.232C122.995 95.614 122.874 95.4404 121.675 93.1484C120.061 90.0403 118.411 85.5604 118.776 85.2999C118.949 85.1784 118.967 85.1089 118.81 85.0568C118.689 85.0047 118.654 84.8484 118.706 84.6922C118.758 84.5533 118.706 84.3623 118.585 84.2928C118.463 84.2234 118.428 84.0671 118.498 83.9455C118.567 83.824 118.619 83.0947 118.602 82.3133C118.567 81.0631 118.637 80.7159 119.175 79.3094C119.522 78.4238 119.8 77.6598 119.8 77.6251C119.8 77.5383 118.845 77 118.706 77C118.654 77 118.428 77.2605 118.203 77.5556ZM117.525 88.5296C118.029 90.1792 118.793 91.9676 120.165 94.7285C121.224 96.8642 122.196 99.0521 122.318 99.573C122.613 100.841 122.804 102.178 122.683 102.178C122.63 102.178 122.37 101.761 122.127 101.257C121.537 100.094 120.061 98.236 119.609 98.0971C119.106 97.9234 118.289 98.8958 117.942 100.094C117.525 101.431 117.56 103.098 117.994 103.584C118.515 104.157 119.192 104.435 120.182 104.452L121.102 104.487L120.321 104.626C119.401 104.782 118.689 104.678 118.394 104.331C118.046 103.914 117.907 104.07 118.098 104.643C118.342 105.39 119.748 106.848 120.408 107.022L120.929 107.161L120.425 107.3C120.061 107.404 119.765 107.352 119.418 107.161C119.158 107.005 118.932 106.918 118.932 106.97C118.932 107.23 119.436 108.203 119.696 108.411C119.904 108.585 119.939 108.689 119.783 108.793C119.627 108.88 119.679 109.071 119.939 109.488C120.286 110.078 122.075 113.308 122.526 114.211C122.665 114.471 122.856 114.627 122.96 114.575C123.082 114.506 123.099 114.541 123.03 114.645C122.96 114.766 123.221 115.079 123.707 115.409C124.141 115.704 124.488 116.034 124.488 116.103C124.488 116.19 124.158 116.19 123.759 116.138L123.012 116.017L123.551 116.607C123.846 116.937 124.297 117.51 124.558 117.892C124.801 118.274 125.252 118.691 125.565 118.847C125.877 118.986 126.225 119.298 126.346 119.541C126.537 119.906 126.52 119.993 126.259 120.08C126.016 120.167 126.051 120.201 126.381 120.253C126.711 120.305 127.058 120.74 127.822 122.007C128.812 123.605 128.847 123.709 128.673 124.334C128.552 124.785 128.552 125.063 128.673 125.202C128.795 125.358 128.725 125.671 128.43 126.261C127.683 127.72 127.353 130.394 127.406 134.561C127.423 136.558 127.527 139.614 127.631 141.35C127.805 143.799 127.788 144.893 127.631 146.386C127.388 148.522 127.128 149.789 126.867 149.963C126.659 150.084 126.607 150.345 126.503 151.665C126.468 152.185 126.312 153.331 126.138 154.217L125.843 155.797L124.94 155.919C124.454 155.988 123.516 156.249 122.839 156.474C121.085 157.099 120.634 157.152 120.252 156.717C120.061 156.509 119.818 156.353 119.679 156.353C119.557 156.353 119.366 156.162 119.262 155.936C119.036 155.467 118.324 155.207 118.012 155.467C117.838 155.589 116.675 155.624 115.615 155.519C115.459 155.502 115.286 155.328 115.233 155.137C115.181 154.964 114.851 154.669 114.487 154.495C114.105 154.339 113.48 153.939 113.08 153.627C112.177 152.915 111.309 152.533 110.563 152.533C110.215 152.533 109.677 152.324 109.208 152.012C108.774 151.734 108.323 151.491 108.218 151.491C108.08 151.491 108.027 151.317 108.08 151.005C108.271 149.963 116.501 86.9495 116.501 86.5848C116.501 85.6993 116.831 86.3418 117.525 88.5296ZM125.791 99.573C126.016 99.6598 126.034 99.7293 125.877 99.7293C125.739 99.7293 125.461 99.6598 125.27 99.573C125.044 99.4862 125.027 99.4167 125.183 99.4167C125.322 99.4167 125.6 99.4862 125.791 99.573ZM129.177 117.996C129.177 118.1 129.107 118.118 129.003 118.066C128.916 118.013 128.829 117.874 128.829 117.788C128.829 117.684 128.916 117.666 129.003 117.718C129.107 117.77 129.177 117.909 129.177 117.996ZM131.451 129.092C131.729 129.994 132.163 131.696 132.406 132.877C132.771 134.7 132.806 135.169 132.649 136.002C132.25 138.26 130.34 140.76 129.975 139.545C129.923 139.388 129.802 137.791 129.698 136.02C129.507 132.391 129.698 128.831 130.166 127.546C130.427 126.834 130.462 126.8 130.687 127.112C130.826 127.286 131.156 128.189 131.451 129.092ZM74.8278 135.186C74.8278 135.846 74.411 135.794 74.3416 135.117C74.3069 134.787 74.359 134.648 74.55 134.648C74.741 134.648 74.8278 134.822 74.8278 135.186ZM135.81 159.565C135.844 159.895 135.862 160.173 135.827 160.173C135.81 160.173 135.653 159.964 135.497 159.721C135.237 159.339 135.237 159.253 135.445 159.114C135.584 159.027 135.705 158.957 135.705 158.957C135.723 158.957 135.775 159.235 135.81 159.565ZM108.618 163.212C108.896 163.35 109.434 163.472 109.816 163.472C110.198 163.472 110.892 163.594 111.361 163.732C111.83 163.871 112.803 163.993 113.514 163.993C114.522 163.993 114.886 164.062 115.233 164.323C115.824 164.792 116.935 164.931 117.994 164.635C119.071 164.358 120.234 164.549 122.231 165.347C122.943 165.642 123.742 165.938 124.02 165.99C124.402 166.094 124.488 166.215 124.488 166.667C124.488 166.979 124.419 167.292 124.332 167.396C124.054 167.691 123.985 168.994 124.245 169.098C124.575 169.219 124.558 170.157 124.228 170.47C124.089 170.626 123.724 170.782 123.412 170.852C122.353 171.06 122.248 171.129 122.057 171.737C121.762 172.623 121.953 173.144 122.735 173.543C123.117 173.734 123.464 173.942 123.516 174.029C123.568 174.116 123.499 174.706 123.36 175.349C123.221 175.991 123.03 177.155 122.926 177.936C122.821 178.717 122.492 180.645 122.196 182.225C121.745 184.639 121.519 185.403 120.738 187.139C119.835 189.17 118.428 191.341 117.56 192.07C117.317 192.279 116.796 192.522 116.397 192.626C115.633 192.817 115.008 193.373 115.199 193.685C115.338 193.928 114.452 194.987 114.087 194.987C113.914 194.987 113.827 195.109 113.862 195.3C113.896 195.491 113.792 195.595 113.567 195.595C113.323 195.595 113.237 195.682 113.306 195.856C113.376 196.029 113.306 196.116 113.115 196.116C112.959 196.116 112.889 196.203 112.959 196.307C113.011 196.411 112.837 196.741 112.542 197.036C112.264 197.349 111.934 197.766 111.83 197.974C111.657 198.339 111.726 198.894 111.969 198.894C112.021 198.894 112.177 198.964 112.316 199.051C112.49 199.172 112.421 199.398 111.917 200.127C111.465 200.787 110.997 201.968 110.319 204.103C107.385 213.341 107.645 212.82 104.103 216.692C102.402 218.55 100.908 220.391 100.057 221.676C99.3108 222.787 98.6683 223.707 98.6162 223.707C98.5121 223.725 106.413 163.437 106.499 163.333C106.534 163.316 106.899 163.229 107.316 163.142C107.732 163.055 108.097 162.986 108.097 162.968C108.114 162.951 108.357 163.073 108.618 163.212ZM48.4347 175.679C48.4347 175.766 48.3653 175.766 48.2611 175.713C48.1743 175.661 48.0874 175.47 48.0874 175.314C48.0874 175.054 48.1222 175.054 48.2611 175.279C48.3479 175.418 48.4347 175.609 48.4347 175.679ZM126.225 179.777C126.503 181.6 126.346 182.555 125.495 184.135C124.784 185.489 122.995 188.25 122.717 188.406C122.648 188.459 122.769 188.042 123.012 187.486C123.533 186.34 123.794 185.212 124.488 181.131C124.749 179.534 125.079 178.092 125.2 177.953C125.582 177.485 125.982 178.214 126.225 179.777ZM49.0772 178.961C49.0251 179.099 48.973 179.047 48.973 178.856C48.9556 178.665 49.0077 178.561 49.0598 178.631C49.1119 178.683 49.1293 178.839 49.0772 178.961Z" fill="black"/>
    </g>
    <defs>
        <filter id="filter0_d" x="8" y="67" width="239.964" height="242.239" filterUnits="userSpaceOnUse" color-interpolation-filters="sRGB">
            <feFlood flood-opacity="0" result="BackgroundImageFix"/>
            <feColorMatrix in="SourceAlpha" type="matrix" values="0 0 0 0 0 0 0 0 0 0 0 0 0 0 0 0 0 0 127 0"/>
            <feOffset dx="10"/>
            <feGaussianBlur stdDeviation="5"/>
            <feColorMatrix type="matrix" values="0 0 0 0 0.384314 0 0 0 0 0.494118 0 0 0 0 0.917647 0 0 0 1 0"/>
            <feBlend mode="normal" in2="BackgroundImageFix" result="effect1_dropShadow"/>
            <feBlend mode="normal" in="SourceGraphic" in2="effect1_dropShadow" result="shape"/>
        </filter>
    </defs>
</svg>
