<svg width="338" height="322" viewBox="0 0 338 322" fill="none" xmlns="http://www.w3.org/2000/svg">
    <rect x="0.5" y="22.5" width="299" height="299" fill="white" stroke="#35B7BA"/>
    <rect x="188.5" y="0.5" width="149" height="151" fill="white" stroke="#35B7BA"/>
    <path d="M263 151C304.421 151 338 117.421 338 76C338 34.5786 304.421 1 263 1C221.579 1 188 34.5786 188 76C188 117.421 221.579 151 263 151Z" fill="#383838"/>
    <path d="M295.294 52.0437L284.794 62.5878C287.911 67.4828 289.265 73.2945 288.632 79.0631C288 84.8316 285.419 90.212 281.315 94.3154C277.212 98.4188 271.832 101 266.063 101.632C260.295 102.265 254.483 100.911 249.588 97.7937L239.044 108.294C246.773 114.159 256.365 117.026 266.045 116.365C275.726 115.705 284.839 111.561 291.7 104.7C298.561 97.8389 302.705 88.7255 303.365 79.0453C304.026 69.3651 301.159 59.7731 295.294 52.0437ZM237.764 76.3084C237.754 71.7837 238.947 67.3377 241.222 63.4267C243.498 59.5156 246.772 56.2804 250.711 54.0529C254.649 51.8255 259.11 50.6861 263.634 50.7517C268.158 50.8172 272.583 52.0854 276.455 54.4261L287.044 43.8378C279.312 38.0394 269.749 35.2243 260.109 35.9094C250.47 36.5945 241.401 40.7337 234.567 47.5672C227.734 54.4007 223.594 63.4698 222.909 73.1095C222.224 82.7492 225.039 92.3125 230.838 100.044L241.426 89.4996C239.004 85.5257 237.722 80.9621 237.72 76.3084H237.764Z" fill="#35B7BA"/>
    <path d="M300.5 42.911C305.373 42.911 309.324 38.9605 309.324 34.0874C309.324 29.2143 305.373 25.2639 300.5 25.2639C295.627 25.2639 291.677 29.2143 291.677 34.0874C291.677 38.9605 295.627 42.911 300.5 42.911Z" fill="#35B7BA"/>
    <path d="M221.087 122.324C225.961 122.324 229.911 118.373 229.911 113.5C229.911 108.627 225.961 104.677 221.087 104.677C216.214 104.677 212.264 108.627 212.264 113.5C212.264 118.373 216.214 122.324 221.087 122.324Z" fill="#35B7BA"/>
    <g filter="url(#filter0_d)">
        <path d="M15.4973 98.9758C15.2016 99.1566 14.7908 99.3044 14.5773 99.3044C13.7722 99.3044 13 100.734 13 102.229C13 102.771 13.0986 103.001 13.4107 103.28C13.6408 103.478 13.8215 103.74 13.8215 103.872C13.8215 103.987 14.0351 104.299 14.2815 104.546C14.6266 104.907 14.9551 105.038 15.7109 105.137C16.8774 105.268 17.206 105.433 17.3539 105.876C17.4853 106.271 18.5697 106.862 19.1612 106.862C19.4241 106.862 19.7855 106.665 20.0812 106.386L20.5577 105.893L25.0431 107.47C36.166 111.347 88.9386 129.7 88.9879 129.7C89.0207 129.7 89.1358 130.077 89.2508 130.521C89.5136 131.556 89.8258 131.868 90.1544 131.425C90.2858 131.26 90.3844 130.948 90.3844 130.735C90.3844 130.16 90.828 130.275 91.1238 130.932C91.2716 131.244 91.5016 131.573 91.6331 131.688C91.9288 131.934 92.3724 131.753 92.471 131.343C92.586 130.915 92.7503 130.932 93.0789 131.408C93.2268 131.638 93.5225 131.835 93.7854 131.868C94.114 131.901 94.229 132 94.1961 132.213C94.1304 132.624 94.5412 132.723 95.4777 132.493L96.2827 132.296L100.604 133.889C102.986 134.776 104.941 135.499 104.974 135.532C104.991 135.549 104.843 136.124 104.613 136.781C104.399 137.454 104.153 138.539 104.087 139.212C103.988 140.248 103.89 140.543 103.43 141.168C103.118 141.562 102.822 142.17 102.772 142.531C102.707 142.876 102.608 143.172 102.542 143.172C102.427 143.172 100.193 140.642 99.2237 139.393C98.8622 138.933 98.7472 138.867 98.6158 139.048C98.5336 139.18 98.4186 140.428 98.3693 141.841C98.32 143.254 98.1722 146.097 98.0571 148.183C97.8107 152.997 97.8107 159.618 98.0736 161.245C98.55 164.136 99.8151 167.554 100.916 168.868C101.54 169.608 103.15 170.708 103.84 170.856C104.481 170.988 104.678 171.826 104.678 174.257C104.678 176.574 104.843 177.97 105.664 182.357C106.781 188.354 106.896 189.356 106.65 190.703C106.519 191.443 106.305 192.084 106.058 192.412C105.845 192.708 105.615 193.184 105.549 193.48C105.5 193.776 105.237 194.384 104.991 194.844C104.744 195.287 104.481 195.994 104.415 196.388C104.35 196.783 104.153 197.259 103.972 197.44C103.725 197.686 103.676 197.883 103.758 198.376C103.857 198.984 103.512 200.183 103.233 200.183C102.904 200.183 102.51 201.219 102.592 201.876C102.641 202.254 102.625 202.894 102.559 203.305C102.477 203.716 102.411 203.913 102.395 203.732C102.378 203.486 102.329 203.469 102.148 203.617C101.705 203.979 101.557 204.702 101.82 205.211C102.115 205.77 101.984 206.805 101.54 207.413C101.064 208.037 100.965 210.666 101.376 211.487C101.54 211.816 101.885 212.719 102.132 213.492C102.74 215.348 108.145 227.999 109.755 231.318C110.445 232.764 112.532 236.608 114.372 239.861C119.761 249.424 121.207 252.266 122.258 255.404C122.669 256.653 122.751 257.08 122.653 257.786C122.308 260.547 124.657 264.802 127.269 266.198C128.025 266.593 128.239 266.642 129.816 266.626L131.541 266.593L131.919 268.351C132.116 269.304 132.297 270.24 132.28 270.421C132.264 271.275 134.055 273.904 136.026 275.958C137.472 277.453 138.672 278.225 139.559 278.225H140.052L139.937 279.572C139.707 282.546 139.51 283.45 138.803 284.682C138.442 285.339 137.916 286.309 137.669 286.851C137.407 287.393 137.127 287.952 137.029 288.083C136.191 289.381 136.076 290.81 136.536 293.899C136.832 295.838 136.979 296.364 137.571 297.596L138.261 299.009L138.277 301.802C138.277 304.464 138.294 304.644 138.705 305.499C139.542 307.289 140.594 308.062 142.303 308.16C143.929 308.259 149.68 307.93 149.745 307.717C149.795 307.618 149.877 307.059 149.942 306.468C150.025 305.564 149.975 305.17 149.532 303.708C149.252 302.771 148.875 301.72 148.71 301.391C148.53 301.046 148.201 299.715 147.954 298.417C147.724 297.119 147.379 295.657 147.182 295.148C146.887 294.359 146.837 293.899 146.837 291.451C146.837 286.522 147.429 283.713 149.827 277.239C150.123 276.467 150.468 275.416 150.616 274.89C150.83 274.085 151.109 273.674 152.44 272.179C156.005 268.17 156.761 267.004 156.892 265.246C156.942 264.391 156.876 263.931 156.531 262.896L156.104 261.615L156.597 259.939C156.859 259.019 157.204 257.556 157.336 256.702C157.484 255.848 157.845 254.369 158.141 253.416C159.439 249.358 159.554 248.898 159.39 248.339C159.307 248.06 159.258 247.058 159.258 246.138C159.275 244.659 159.209 244.281 158.749 242.901C158.453 242.047 157.632 240.124 156.925 238.629C156.202 237.134 155.036 234.292 154.313 232.304C153.59 230.316 152.506 227.326 151.881 225.65C151.257 223.974 150.386 221.608 149.942 220.392C148.924 217.517 147.938 215.266 146.854 213.327C142.253 205.047 141.645 203.847 141.645 202.977C141.645 202.352 141.563 202.139 141.169 201.761C140.758 201.366 140.709 201.219 140.775 200.676C140.84 200.183 140.791 199.986 140.479 199.674C140.249 199.444 140.183 199.28 140.298 199.231C140.627 199.132 140.528 198.803 140.002 198.376C139.575 198.031 139.493 197.834 139.444 197.111C139.395 196.142 139.017 195.583 138.425 195.583C138.195 195.583 137.932 195.419 137.768 195.172C137.62 194.942 137.357 194.762 137.177 194.762C136.996 194.762 136.618 194.581 136.322 194.351C136.026 194.137 135.402 193.858 134.942 193.759C134.334 193.612 134.006 193.431 133.825 193.135C133.053 191.936 132.231 191.016 130.933 189.898C130.145 189.225 129.389 188.469 129.241 188.206C128.781 187.303 128.6 185.347 128.814 183.622C129.027 181.881 129.685 179.745 130.145 179.235C130.309 179.055 130.752 178.332 131.114 177.642C131.475 176.952 132.215 175.785 132.757 175.062C134.104 173.255 135.238 171.316 136.339 169.016C136.848 167.948 137.357 166.962 137.489 166.815C137.62 166.667 137.883 166.223 138.08 165.829C138.507 164.974 139.805 163.956 140.61 163.824C141.415 163.693 141.81 163.282 141.81 162.576C141.81 162.247 142.04 161.278 142.319 160.423C143.321 157.318 143.124 155.067 141.695 152.915L140.955 151.814L141.317 151.518C141.76 151.157 141.908 151.14 142.04 151.469C142.089 151.601 142.253 151.716 142.401 151.716C142.796 151.716 144.734 150.779 145.408 150.27L145.966 149.843L146.229 150.253C146.657 150.943 148.053 152.225 148.661 152.471C148.973 152.603 150.797 153.046 152.703 153.457C161.69 155.363 167.079 156.99 175.704 160.44C184.724 164.054 188.618 166.124 197.753 172.22C202.403 175.309 203.307 175.999 206.724 178.956C209.32 181.207 210.108 181.322 212.984 179.876C215.596 178.578 216.845 177.708 218.291 176.163C219.753 174.602 221.987 171.333 222.48 169.985C222.677 169.476 222.874 168.474 222.94 167.735C223.334 163.216 221.774 157.926 218.455 152.471C215.777 148.052 210.749 142.663 208.005 141.266C207.053 140.79 202.666 139.574 199.396 138.884C198.131 138.621 195.617 138.062 193.81 137.668C190.113 136.847 188.668 136.649 188.224 136.896C187.945 137.044 187.961 137.077 188.405 137.307C188.684 137.454 190.146 137.98 191.674 138.473C196.735 140.149 202.37 143.271 204.67 145.669C205.853 146.902 206.74 148.61 207.71 151.601C208.86 155.1 208.728 156.612 207.151 158.189C205.574 159.733 203.898 160.308 199.971 160.604C196.702 160.851 193.827 160.703 191.592 160.193C185.858 158.863 171.548 154.032 164.844 151.157C161.591 149.76 157.221 147.542 155.118 146.228L153.393 145.144H151.75C150.846 145.144 149.712 145.242 149.236 145.357C148.053 145.669 147.757 145.489 147.363 144.158C147.182 143.566 146.887 142.893 146.722 142.663C146.558 142.416 146.344 142.038 146.262 141.825C146.098 141.398 145.49 141.118 145.326 141.398C145.276 141.48 144.997 140.97 144.701 140.264C144.422 139.557 144.011 138.72 143.781 138.407C143.075 137.405 141.58 135.91 140.939 135.598C140.594 135.417 140.364 135.204 140.413 135.138C140.545 134.908 140.002 134.776 139.674 134.957C139.477 135.056 139.772 134.464 140.413 133.462C141.629 131.54 142.073 130.472 142.418 128.632C142.828 126.43 142.418 122.684 141.448 119.677C140.512 116.736 138.852 114.699 136.388 113.467C135.616 113.073 134.696 112.547 134.334 112.284C133.546 111.709 131.952 111.134 131.13 111.134C130.145 111.134 128.074 111.742 126.842 112.383C124.887 113.418 122.455 116.194 120.582 119.497L119.81 120.877L118.857 120.91C118.332 120.926 117.773 120.992 117.625 121.058C117.411 121.156 117.214 120.992 116.738 120.252C116.409 119.727 115.999 118.938 115.818 118.462C115.161 116.753 114.865 116.227 113.912 115.126C113.222 114.321 112.647 113.845 111.973 113.5C110.971 112.99 109.114 111.249 109.114 110.805C109.114 110.674 108.999 110.378 108.852 110.165C108.638 109.869 108.474 109.803 108.112 109.885C107.701 109.967 107.603 109.902 107.373 109.474C107.143 109.014 107.143 108.932 107.389 108.554C107.636 108.193 107.734 108.16 108.178 108.275C108.474 108.341 109.016 108.407 109.41 108.407L110.117 108.423L110.166 107.109C110.199 106.386 110.248 105.646 110.281 105.482C110.347 105.153 110.149 105.006 108.835 104.48C108.375 104.283 108.129 104.069 108.063 103.806C107.997 103.593 107.652 103.198 107.291 102.935C106.699 102.508 106.502 102.459 105.451 102.459C104.793 102.459 103.808 102.377 103.233 102.262C101.327 101.867 99.7001 102.262 98.4022 103.395C98.1064 103.642 97.4164 103.987 96.8742 104.151C96.332 104.299 95.4119 104.628 94.8205 104.891C94.229 105.137 93.3911 105.433 92.931 105.531C91.7317 105.811 90.483 106.534 90.4173 106.994C90.3023 107.766 91.6495 110.082 93.5554 112.399C94.2619 113.27 94.4919 113.664 94.4262 113.894C94.2619 114.371 93.1118 116.096 92.6682 116.506C91.2059 117.837 91.2059 117.837 91.2059 118.478C91.2059 118.823 91.3538 119.415 91.5345 119.792L91.8467 120.482L91.1895 121.715C90.828 122.405 90.3844 123.456 90.2037 124.064C90.0065 124.672 89.8258 125.214 89.8094 125.231C89.7765 125.264 80.3787 122.027 68.9107 118.051C57.4591 114.075 42.1629 108.752 34.9338 106.238L21.79 101.687L21.6914 101.03C21.5106 99.9452 20.1634 99.2387 19.194 99.7152C18.734 99.9452 18.6519 99.9288 17.6989 99.403C16.3188 98.6308 16.1217 98.5979 15.4973 98.9758ZM102.378 118.314C102.378 118.741 103.003 119.694 103.348 119.792C103.742 119.891 104.35 121.189 104.35 121.945C104.35 122.7 105.023 124.196 105.5 124.475C105.911 124.721 106.65 126.249 106.65 126.857C106.65 127.465 107.061 128.287 107.504 128.582C107.718 128.73 108.03 129.141 108.211 129.519C108.49 130.16 108.49 130.242 108.244 130.768C107.997 131.31 107.964 131.31 107.406 131.145C106.732 130.932 106.666 130.768 107.159 130.521C107.356 130.406 107.471 130.209 107.439 129.995C107.406 129.732 107.094 129.568 105.96 129.19C105.171 128.944 104.235 128.582 103.873 128.402C103.233 128.057 100.111 125.428 99.8644 125.017C99.7987 124.902 99.8151 124.606 99.8973 124.393C99.9794 124.163 100.012 123.818 99.963 123.621C99.8973 123.358 100.012 123.161 100.439 122.799C101.261 122.125 101.491 121.485 101.228 120.663C100.982 119.94 101.146 119.3 101.754 118.527C102.197 117.985 102.378 117.919 102.378 118.314ZM141.235 138.062C143.157 139.163 144.964 141.348 144.57 142.088C144.471 142.285 144.389 142.449 144.373 142.466C144.356 142.482 143.716 141.891 142.943 141.151C142.089 140.313 141.235 139.623 140.709 139.377C139.871 138.999 139.855 138.966 139.838 138.276C139.838 137.422 140.068 137.389 141.235 138.062ZM112.335 148.61C112.105 149.317 111.94 149.662 111.924 149.415C111.907 148.84 112.22 147.575 112.45 147.312C112.778 146.902 112.745 147.362 112.335 148.61ZM141.744 150.483C141.695 150.615 141.383 150.828 141.038 150.976L140.43 151.239L139.855 150.648L139.263 150.073L139.92 150.056C140.282 150.056 140.84 149.958 141.153 149.859C141.662 149.678 141.728 149.695 141.777 149.958C141.81 150.122 141.793 150.368 141.744 150.483ZM124.969 217.846C125.511 218.355 126.366 218.963 126.859 219.193C127.927 219.719 127.844 219.62 129.356 222.019C130.72 224.187 132.428 226.52 135.862 230.858C140.577 236.822 141.76 238.564 143.338 241.702C144.373 243.755 145.391 247.583 145.424 249.489C145.424 249.769 145.096 250.393 144.537 251.132C143.453 252.627 142.664 254.188 141.958 256.226C141.481 257.606 141.317 257.869 140.462 258.69C139.92 259.216 139.345 259.988 139.115 260.481C138.688 261.417 138.688 261.417 138.277 260.185C138.047 259.446 138.031 259.167 138.195 258.181C138.639 255.552 137.637 252.315 136.026 251.165C135.287 250.623 135.221 250.508 133.529 246.548C130.49 239.385 129.8 237.496 128.83 233.782C127.598 229.051 124.673 219.965 123.868 218.355C123.392 217.418 123.359 216.942 123.77 216.942C123.885 216.942 124.427 217.353 124.969 217.846Z" fill="black"/>
    </g>
    <path d="M243.944 314H234.728V312.956C235.664 312.524 236.624 312.236 237.608 312.092V290.744C237.128 290.648 236.648 290.528 236.168 290.384C235.688 290.216 235.208 290.036 234.728 289.844V288.8H243.944V289.844C243.512 290.036 243.044 290.216 242.54 290.384C242.036 290.528 241.544 290.648 241.064 290.744V312.092C241.568 312.188 242.072 312.308 242.576 312.452C243.08 312.596 243.536 312.764 243.944 312.956V314ZM265.348 307.448H266.284C266.404 308.12 266.512 308.972 266.608 310.004C266.704 311.012 266.728 311.996 266.68 312.956C266.32 313.244 265.888 313.484 265.384 313.676C264.88 313.844 264.34 313.988 263.764 314.108C263.212 314.228 262.636 314.312 262.036 314.36C261.46 314.408 260.908 314.432 260.38 314.432C258.364 314.432 256.564 314.18 254.98 313.676C253.396 313.148 252.052 312.356 250.948 311.3C249.868 310.244 249.028 308.9 248.428 307.268C247.852 305.612 247.564 303.656 247.564 301.4C247.564 299.048 247.888 297.056 248.536 295.424C249.184 293.768 250.06 292.424 251.164 291.392C252.268 290.336 253.552 289.568 255.016 289.088C256.48 288.608 258.016 288.368 259.624 288.368C261.208 288.368 262.54 288.476 263.62 288.692C264.7 288.884 265.648 289.184 266.464 289.592C266.464 289.976 266.452 290.432 266.428 290.96C266.404 291.464 266.368 292.004 266.32 292.58C266.272 293.156 266.212 293.72 266.14 294.272C266.068 294.824 265.996 295.328 265.924 295.784H264.988L263.116 290.6C262.852 290.456 262.408 290.36 261.784 290.312C261.184 290.264 260.584 290.24 259.984 290.24C258.784 290.24 257.644 290.468 256.564 290.924C255.508 291.356 254.572 292.04 253.756 292.976C252.964 293.888 252.328 295.052 251.848 296.468C251.368 297.86 251.128 299.504 251.128 301.4C251.128 303.104 251.344 304.652 251.776 306.044C252.208 307.412 252.832 308.588 253.648 309.572C254.464 310.532 255.46 311.276 256.636 311.804C257.812 312.308 259.144 312.56 260.632 312.56C261.424 312.56 262.084 312.5 262.612 312.38C263.14 312.26 263.488 312.104 263.656 311.912L265.348 307.448ZM283.009 288.8H291.289V289.844C290.881 290.012 290.449 290.18 289.993 290.348C289.537 290.492 289.069 290.624 288.589 290.744L282.253 300.5L289.633 312.092C290.785 312.284 291.769 312.572 292.585 312.956V314H283.009V312.956C283.873 312.524 284.785 312.236 285.745 312.092L280.057 303.056L274.585 312.128C275.089 312.2 275.581 312.296 276.061 312.416C276.541 312.512 277.009 312.692 277.465 312.956V314H269.149V312.956C269.605 312.716 270.049 312.536 270.481 312.416C270.937 312.296 271.381 312.188 271.813 312.092L278.869 301.328L272.101 290.744C271.621 290.6 271.141 290.456 270.661 290.312C270.205 290.168 269.737 290.012 269.257 289.844V288.8H278.797V289.844C278.437 289.988 278.029 290.132 277.573 290.276C277.141 290.42 276.637 290.576 276.061 290.744L281.101 298.88L285.997 290.744C285.013 290.528 284.017 290.228 283.009 289.844V288.8Z" fill="#001322"/>
    <defs>
        <filter id="filter0_d" x="13" y="88.7405" width="230" height="229.438" filterUnits="userSpaceOnUse" color-interpolation-filters="sRGB">
            <feFlood flood-opacity="0" result="BackgroundImageFix"/>
            <feColorMatrix in="SourceAlpha" type="matrix" values="0 0 0 0 0 0 0 0 0 0 0 0 0 0 0 0 0 0 127 0"/>
            <feOffset dx="10"/>
            <feGaussianBlur stdDeviation="5"/>
            <feColorMatrix type="matrix" values="0 0 0 0 0.207843 0 0 0 0 0.717647 0 0 0 0 0.729412 0 0 0 1 0"/>
            <feBlend mode="normal" in2="BackgroundImageFix" result="effect1_dropShadow"/>
            <feBlend mode="normal" in="SourceGraphic" in2="effect1_dropShadow" result="shape"/>
        </filter>
    </defs>
</svg>
