<svg width="333" height="320" viewBox="0 0 333 320" fill="none" xmlns="http://www.w3.org/2000/svg">
    <rect x="0.5" y="18.5" width="296" height="299" fill="white" stroke="#034DA5"/>
    <path d="M233.044 284.8H242.908V285.844C242.332 286.06 241.756 286.252 241.18 286.42C240.604 286.564 240.028 286.672 239.452 286.744V308.128H247.732L249.856 302.332H250.792C250.864 302.836 250.924 303.424 250.972 304.096C251.044 304.744 251.092 305.428 251.116 306.148C251.164 306.844 251.188 307.528 251.188 308.2C251.188 308.872 251.176 309.472 251.152 310H233.044V308.956C233.62 308.692 234.148 308.5 234.628 308.38C235.108 308.26 235.564 308.164 235.996 308.092V286.744C235.444 286.648 234.916 286.528 234.412 286.384C233.908 286.216 233.452 286.036 233.044 285.844V284.8ZM264.513 310H254.397V308.956C254.925 308.764 255.453 308.596 255.981 308.452C256.533 308.308 257.121 308.188 257.745 308.092V286.672H252.237L250.329 291.82H249.429C249.357 291.34 249.297 290.8 249.249 290.2C249.201 289.576 249.153 288.952 249.105 288.328C249.081 287.68 249.057 287.056 249.033 286.456C249.009 285.832 248.997 285.28 248.997 284.8H269.913C269.913 285.28 269.901 285.82 269.877 286.42C269.853 287.02 269.817 287.644 269.769 288.292C269.745 288.916 269.709 289.54 269.661 290.164C269.637 290.764 269.589 291.316 269.517 291.82H268.581L266.709 286.672H261.201V308.092C261.825 308.212 262.401 308.332 262.929 308.452C263.481 308.572 264.009 308.74 264.513 308.956V310ZM289.415 303.448H290.351C290.471 304.12 290.579 304.972 290.675 306.004C290.771 307.012 290.795 307.996 290.747 308.956C290.387 309.244 289.955 309.484 289.451 309.676C288.947 309.844 288.407 309.988 287.831 310.108C287.279 310.228 286.703 310.312 286.103 310.36C285.527 310.408 284.975 310.432 284.447 310.432C282.431 310.432 280.631 310.18 279.047 309.676C277.463 309.148 276.119 308.356 275.015 307.3C273.935 306.244 273.095 304.9 272.495 303.268C271.919 301.612 271.631 299.656 271.631 297.4C271.631 295.048 271.955 293.056 272.603 291.424C273.251 289.768 274.127 288.424 275.231 287.392C276.335 286.336 277.619 285.568 279.083 285.088C280.547 284.608 282.083 284.368 283.691 284.368C285.275 284.368 286.607 284.476 287.687 284.692C288.767 284.884 289.715 285.184 290.531 285.592C290.531 285.976 290.519 286.432 290.495 286.96C290.471 287.464 290.435 288.004 290.387 288.58C290.339 289.156 290.279 289.72 290.207 290.272C290.135 290.824 290.063 291.328 289.991 291.784H289.055L287.183 286.6C286.919 286.456 286.475 286.36 285.851 286.312C285.251 286.264 284.651 286.24 284.051 286.24C282.851 286.24 281.711 286.468 280.631 286.924C279.575 287.356 278.639 288.04 277.823 288.976C277.031 289.888 276.395 291.052 275.915 292.468C275.435 293.86 275.195 295.504 275.195 297.4C275.195 299.104 275.411 300.652 275.843 302.044C276.275 303.412 276.899 304.588 277.715 305.572C278.531 306.532 279.527 307.276 280.703 307.804C281.879 308.308 283.211 308.56 284.699 308.56C285.491 308.56 286.151 308.5 286.679 308.38C287.207 308.26 287.555 308.104 287.723 307.912L289.415 303.448Z" fill="#001322"/>
    <rect x="183.5" y="0.5" width="149" height="151" fill="white" stroke="#034DA5"/>
    <path d="M258 151C299.421 151 333 117.421 333 76C333 34.5786 299.421 1 258 1C216.579 1 183 34.5786 183 76C183 117.421 216.579 151 258 151Z" fill="#034DA5"/>
    <path d="M231.891 91.0469L225.188 93.6719L228.422 80.6875L235.172 77.9688L244.922 38.5H268.969L261.844 67.5625L268.453 64.8906L265.266 77.7344L258.609 80.4531L254.625 96.7656H290.812L286.734 113.5H226.359L231.891 91.0469Z" fill="white"/>
    <g filter="url(#filter0_d)">
        <path d="M95.3967 105.304C95.3168 105.48 95.2368 105.752 95.2368 105.912C95.2368 106.359 94.789 106.919 94.4371 106.919C94.2292 106.919 94.0853 106.775 94.0213 106.471C93.9733 106.231 93.8934 105.928 93.8614 105.8C93.8134 105.624 93.5575 105.56 92.9658 105.544C92.502 105.528 91.6543 105.464 91.0786 105.4C90.1349 105.288 89.8471 105.336 88.1838 105.864C86.7924 106.295 86.0727 106.439 85.209 106.439C84.1535 106.439 84.0095 106.487 83.4977 106.919C81.8984 108.327 82.778 110.438 85.0971 110.837C85.7048 110.933 85.7688 110.981 85.8647 111.525C86.2166 113.684 85.6089 115.523 83.5937 118.418C83.0339 119.234 82.1703 120.705 81.6905 121.681C80.3791 124.336 80.1711 124.608 79.4515 124.752C79.0836 124.816 78.3959 125.199 77.7242 125.711C75.885 127.103 75.5491 127.263 74.4935 127.215C73.5819 127.167 73.5659 127.167 73.294 127.71C73.0701 128.142 73.0062 128.638 73.0222 129.949C73.0541 131.837 72.9582 132.14 72.1425 133.132C71.3429 134.092 71.3269 134.571 72.0945 135.787C72.5743 136.555 72.5903 136.667 72.6863 138.746C72.7823 141.225 72.9422 141.688 73.6139 141.513C73.8538 141.465 74.2696 141.321 74.5575 141.193C74.8454 141.081 75.2772 140.985 75.5171 140.985C76.0289 140.985 76.3008 141.289 79.3715 145.095C81.6425 147.894 82.3142 148.55 83.7856 149.285C84.3774 149.573 84.9691 149.973 85.0811 150.165C85.209 150.357 85.3849 150.997 85.4649 151.604C85.6568 152.916 86.2966 154.307 88.0238 157.186C89.1274 159.041 89.7991 160.337 89.7991 160.624C89.7991 160.688 89.3673 160.305 88.8235 159.777C87.592 158.561 87.0642 157.666 87.0003 156.69C86.9523 155.97 86.9203 155.938 86.3286 155.763C85.9927 155.651 85.5609 155.603 85.3689 155.651C85.0811 155.715 85.0011 155.667 85.0011 155.427C85.0011 154.899 84.5533 154.467 83.6097 154.099C82.4262 153.619 82.2183 153.46 81.0028 152.052C80.459 151.412 79.7873 150.773 79.5314 150.645C78.9077 150.325 77.6602 149.941 77.2124 149.941C76.9565 149.941 76.8445 149.845 76.8445 149.637C76.8445 149.125 75.853 148.502 75.0213 148.502C74.4456 148.502 74.1737 148.39 73.5339 147.894L72.7663 147.302L70.959 147.334C69.9515 147.366 69.0078 147.318 68.8639 147.222C68.704 147.142 68.4801 146.854 68.3681 146.582C68.1442 146.039 68.1922 146.055 66.7688 146.087C66.1451 146.103 65.0255 145.959 63.938 145.719C61.7149 145.207 61.3631 145.207 60.0676 145.719C59.14 146.087 58.6922 146.151 55.9893 146.279C52.135 146.47 51.3513 146.614 50.6636 147.302C50.3757 147.59 50.1358 147.99 50.1358 148.182C50.1358 148.55 50.1358 148.55 49.752 148.134C49.2882 147.638 48.5045 147.462 47.321 147.622C46.2814 147.75 46.1375 147.638 46.1375 146.742C46.1375 145.959 45.5777 144.039 45.0179 142.872C44.4902 141.752 44.4742 141.768 43.9944 143.544C43.5146 145.303 43.0188 145.415 42.7949 143.8C42.635 142.616 42.427 142.408 41.8993 142.904C41.0516 143.688 40.6678 144.855 40.06 148.214C39.4363 151.78 38.6206 153.076 36.6055 153.683C36.3496 153.763 36.2376 153.667 35.9977 153.14C35.6139 152.26 34.8302 151.78 33.135 151.412C31.7755 151.109 31.7275 151.109 31.5836 151.38C31.3117 151.892 31.4077 152.276 32.0154 153.156C32.4792 153.843 32.7031 154.435 33.103 156.114C33.3749 157.266 33.7427 158.449 33.9186 158.753C34.0945 159.041 34.6543 159.617 35.1661 160.001L36.0937 160.704L35.438 161.36L34.7823 162.016L34.9422 162.976C35.2461 164.799 35.1661 165.438 34.4464 166.878L33.8067 168.189L34.2065 169.085C34.6863 170.093 34.7343 171.308 34.4624 174.619C34.3344 176.218 34.3504 176.874 34.6383 179.017C34.9742 181.688 34.9422 182.439 34.4464 182.983C34.2705 183.175 34.0945 183.591 34.0306 183.911C33.9506 184.391 34.0306 184.646 34.4304 185.286C35.1661 186.47 35.2621 187.013 35.2621 190.084C35.278 194.914 35.8058 196.114 37.757 195.682C38.4447 195.522 38.4927 195.538 38.8925 196.002C39.3883 196.609 40.172 197.025 41.4515 197.345C42.603 197.649 42.9388 197.665 42.9388 197.425C42.9388 197.329 43.2587 196.897 43.6425 196.465C44.5861 195.426 44.81 194.61 44.922 192.003C45.0339 189.62 45.1779 188.853 45.6737 188.293L45.9935 187.925L45.9136 188.325C45.5457 190.196 45.6897 192.515 46.3294 195.154C46.7452 196.929 46.9371 197.009 47.9447 195.906C49.4481 194.258 49.656 194.05 49.8479 194.114C49.9599 194.162 50.5356 194.978 51.1274 195.938C52.1989 197.713 53.4304 199.04 53.9902 199.04C54.294 199.04 54.358 198.88 54.5179 197.697C54.5979 197.121 54.9818 196.481 55.1577 196.657C55.2057 196.689 55.0457 198.017 54.8218 199.6C54.5179 201.759 54.406 203.263 54.39 205.582L54.358 208.7L53.3984 209.116C52.8866 209.356 52.3429 209.676 52.2149 209.836C52.087 209.996 51.943 210.619 51.8791 211.259C51.8151 212.203 51.7031 212.523 51.2873 213.098C50.4237 214.282 50.6316 215.082 51.8951 215.497C52.1989 215.593 52.6947 215.817 52.9666 215.993C53.4304 216.281 53.4944 216.393 53.4944 217.033C53.4944 218.152 52.8866 220.759 52.3269 221.959C51.911 222.902 51.7991 223.046 51.5112 222.95C51.3193 222.886 50.1038 222.79 48.7764 222.71C46.2494 222.582 45.2259 222.343 43.5146 221.479C42.2511 220.839 40.7797 220.327 40.108 220.295C39.7562 220.279 39.1324 220.423 38.6686 220.647C37.9009 220.983 37.741 220.999 36.9893 220.839C36.2057 220.679 36.0937 220.695 35.502 221.031C35.1501 221.239 34.2385 221.959 33.4708 222.614C31.1838 224.614 27.8572 227.093 24.7225 229.188C23.0752 230.259 21.4599 231.427 21.092 231.779C19.6366 233.186 18.9169 234.673 18.6131 236.896C18.3892 238.544 18.1333 239.263 17.0297 241.343C15.8302 243.63 15.7983 243.805 16.326 245.181C16.7259 246.236 16.7419 246.428 16.6619 248.252C16.5819 250.411 16.6779 250.763 17.4775 250.922C18.0213 251.05 19.5087 250.667 20.5962 250.123C21.6678 249.579 24.1307 247.116 24.9304 245.773C25.858 244.237 26.2099 243.134 26.2099 241.742C26.2259 240.783 26.1619 240.431 25.858 239.935C25.6661 239.599 25.5062 239.247 25.5062 239.167C25.5062 239.071 26.1299 239.023 27.0255 239.039C29.0247 239.071 29.2006 238.912 30.2082 236.225C30.688 234.993 30.736 234.353 30.4481 233.618C30.2882 233.25 30.2722 233.026 30.4001 232.818C30.688 232.338 34.8302 229.667 35.7259 229.38C37.4052 228.836 38.3647 229.012 41.3715 230.403C44.2823 231.747 52.4548 234.865 53.8782 235.185C54.326 235.281 54.7898 235.409 54.9178 235.441C55.2696 235.553 54.326 236.449 52.2149 238.032C51.2073 238.784 49.8799 239.871 49.2562 240.463C48.0727 241.598 47.6728 241.854 46.1855 242.398C45.6737 242.59 45.0819 242.862 44.874 242.99C43.9304 243.614 42.9388 246.093 42.8269 248.14L42.7469 249.499L43.5786 250.619C44.5701 251.946 44.81 252.394 45.6577 254.521C46.4254 256.472 46.7292 257.496 47.6408 261.494C48.9363 267.044 49.608 268.643 51.1274 269.667C51.5272 269.938 52.3109 270.258 52.8546 270.386C54.5819 270.77 55.3816 271.266 56.4531 272.673C57.7806 274.401 57.9085 274.465 60.1956 274.225C62.8664 273.953 64.8656 273.585 65.3134 273.297C65.6493 273.073 65.6812 272.977 65.6013 272.21C65.5053 271.282 64.7376 269.507 63.842 268.083C63.0264 266.82 60.9312 264.661 59.9717 264.117C58.9961 263.557 58.4043 263.541 57.5727 264.053C56.725 264.565 56.6131 264.549 56.3092 263.909C55.9733 263.173 55.9733 263.173 56.6131 263.173C57.3807 263.173 58.0525 262.805 58.2604 262.262C58.4043 261.91 58.7562 259.479 58.7722 258.807C58.7722 258.743 58.5642 258.695 58.3084 258.695C58.0525 258.695 57.7646 258.583 57.6526 258.455C57.5407 258.327 56.725 257.832 55.8454 257.384C54.9658 256.92 53.9422 256.248 53.5903 255.896C52.4068 254.745 50.6156 250.763 50.6156 249.291C50.6156 248.028 52.103 247.196 57.4447 245.485C61.0432 244.333 63.5382 243.246 65.9531 241.758C68.7999 239.999 69.0558 239.967 70.8311 241.183C72.5584 242.382 74.9094 243.182 81.6425 244.909C87.2562 246.364 88.1038 246.604 90.1989 247.34C93.5255 248.508 94.0693 248.635 96.9961 248.875C99.6989 249.083 102.274 249.467 102.722 249.723C102.882 249.819 102.754 249.963 102.226 250.267C101.17 250.891 100.019 252.25 99.1871 253.849C98.4834 255.241 97.188 258.935 97.3479 259.111C97.4119 259.159 97.7158 259.127 98.0516 259.031C98.4035 258.935 99.6829 258.727 100.914 258.551C104.289 258.071 104.609 257.928 106.48 256.168C108.191 254.553 108.591 254.313 109.935 254.137C110.926 254.009 111.55 253.513 111.55 252.858C111.55 252.618 111.614 252.298 111.71 252.138C111.902 251.786 113.965 250.507 115.868 249.579L117.228 248.907L118.827 249.035C119.706 249.115 121.498 249.163 122.793 249.179C124.728 249.179 125.192 249.227 125.304 249.419C125.672 250.075 126.456 251.034 126.808 251.258C127.319 251.594 128.375 251.594 129.302 251.258C129.702 251.114 130.374 250.938 130.806 250.875L131.573 250.747L131.893 251.482C133.093 254.297 133.605 254.889 136.339 256.6C137.795 257.496 138.115 257.624 139.122 257.752C140.898 257.96 140.946 257.992 142.481 259.479C143.456 260.422 144.224 261.014 144.816 261.27C148.398 262.853 148.766 263.189 149.902 265.764C151.405 269.203 152.173 274.609 151.949 280.398C151.757 285.74 151.197 288.267 149.262 292.553C148.063 295.208 147.135 296.567 146.079 297.271C145.6 297.591 145.088 297.991 144.928 298.167C144.512 298.63 144.416 299.478 144.72 300.182C145.04 300.949 145.04 302.437 144.736 304.068C144.384 305.891 144.4 306.035 144.96 306.035C146.239 306.035 149.422 305.092 151.293 304.164C153.692 302.965 155.371 301.381 155.371 300.31C155.371 300.102 155.148 299.526 154.876 299.03C154.38 298.135 154.38 298.103 154.62 297.527C154.892 296.903 154.924 296.887 157.051 296.439C157.834 296.279 158.106 296.135 158.49 295.672C158.762 295.352 159.562 294.52 160.281 293.816C161.577 292.537 162.233 291.497 162.249 290.714C162.249 290.522 162.105 290.058 161.913 289.706C161.657 289.194 161.625 289.002 161.785 288.827C162.121 288.411 161.833 286.859 161.033 284.764L160.265 282.765V280.126C160.249 277.999 160.345 276.944 160.697 274.688C160.953 273.153 161.177 271.794 161.225 271.666C161.273 271.506 161.449 271.618 161.817 272.05C163.256 273.793 164.376 276.208 165.223 279.359C165.527 280.526 166.039 282.381 166.359 283.485C167.878 288.747 167.942 289.322 167.302 291.721C167.095 292.505 166.727 294.168 166.487 295.4C165.863 298.742 165.335 299.718 163.688 300.582C162.361 301.285 162.169 301.701 162.329 303.46C162.584 306.163 162.52 307.139 162.025 308.066C161.481 309.106 161.561 309.474 162.377 309.618C164.568 309.97 167.782 309.218 170.197 307.763C171.461 307.011 172.852 305.46 173.268 304.356C173.716 303.172 173.684 302.517 173.188 301.525C172.836 300.837 172.788 300.598 172.9 300.134L173.044 299.59L174.355 299.574C175.523 299.558 175.731 299.51 176.355 299.078C177.234 298.47 178.034 296.935 178.562 294.808L178.946 293.257L178.562 292.841C178.226 292.473 178.162 292.233 178.066 290.554C177.938 288.395 177.81 287.963 177.122 287.451C176.083 286.683 174.851 283.373 174.084 279.327C173.412 275.68 173.172 274.017 172.964 271.33C172.468 264.869 172.004 261.558 171.461 260.742C171.109 260.199 169.989 259.623 167.99 258.919C166.103 258.263 165.239 257.688 163.864 256.2C162.425 254.633 162.329 254.345 162.345 251.978C162.345 250.219 162.425 249.627 163 247.18C163.816 243.726 164.04 242.302 163.912 241.391C163.816 240.767 163.864 240.623 164.36 240.031C165.319 238.896 165.303 237.296 164.264 232.034C163.768 229.555 163.352 226.709 163.464 226.709C163.48 226.709 163.96 227.156 164.52 227.716C165.799 228.996 169.446 231.491 169.446 231.075C169.446 230.915 169.222 230.499 168.966 230.163C168.246 229.204 168.39 229.14 169.302 229.987C170.341 230.963 172.036 231.731 174.02 232.114C176.946 232.706 177.65 232.658 177.026 231.97C176.579 231.475 176.93 231.347 177.922 231.603C178.402 231.731 179.521 231.827 180.449 231.827H182.096L182.048 231.379L182 230.947L183.6 230.851C185.263 230.755 186.191 230.467 186.83 229.875C187.038 229.683 187.198 229.412 187.198 229.252C187.198 229.044 187.422 228.932 188.126 228.788C189.597 228.484 191.404 227.764 193.691 226.565C194.875 225.941 196.026 225.317 196.25 225.157L196.682 224.885L196.138 224.71C195.85 224.614 195.579 224.438 195.547 224.342C195.515 224.246 196.074 223.462 196.81 222.614C198.425 220.695 199.641 218.84 200.552 216.905C201.656 214.554 201.944 213.562 202.072 211.483C202.168 210.044 202.264 209.484 202.504 209.084C202.68 208.796 203.095 208.125 203.415 207.597C204.055 206.557 204.135 206.317 204.711 203.806C204.919 202.863 205.238 201.791 205.43 201.407C205.814 200.608 205.814 200.64 205.478 200.64C205.318 200.64 204.903 200.864 204.567 201.119C203.575 201.871 203.463 201.727 204.071 200.512C205.222 198.209 205.222 195.986 204.071 191.444C203.655 189.86 203.255 188.197 203.175 187.765C202.919 186.47 202.983 184.774 203.319 183.783L203.623 182.887H203.207C202.983 182.887 202.488 182.999 202.12 183.143C201.736 183.287 201.4 183.383 201.352 183.351C201.224 183.207 201.768 181.016 202.456 178.889C203.751 174.97 203.815 173.531 202.792 170.892C202.136 169.229 201.928 167.853 202.216 167.038C202.312 166.75 202.36 166.494 202.328 166.446C202.28 166.414 201.944 166.638 201.576 166.958C201.192 167.278 200.744 167.534 200.552 167.534C200.233 167.534 200.217 167.47 200.281 166.046C200.329 164.847 200.265 164.143 199.913 162.496C199.337 159.793 199.401 158.625 200.281 156.93C200.425 156.658 198.857 156.85 197.978 157.202C196.842 157.682 196.698 157.586 196.554 156.194C196.394 154.755 196.154 153.891 195.802 153.492C195.371 153.06 195.195 153.044 195.195 153.46C195.195 154.051 194.763 154.851 193.931 155.747C192.972 156.834 192.636 157.442 191.74 159.873C190.988 161.92 190.285 163.199 189.677 163.599C189.469 163.743 189.245 163.855 189.213 163.855C189.165 163.855 189.293 163.423 189.469 162.896C189.741 162.16 189.773 161.888 189.629 161.744C189.533 161.648 189.421 161.584 189.389 161.632C189.357 161.664 188.717 162.736 187.998 164.015C186.318 166.942 184.719 169.293 183.664 170.364C183.216 170.828 182.832 171.212 182.816 171.212C182.784 171.212 182.72 170.988 182.672 170.732C182.528 170.045 182.144 170.14 181.6 171.004C180.897 172.108 180.785 172.603 180.321 176.634C180.145 178.105 180.033 178.505 178.514 182.327L178.018 183.607L178.002 187.285C177.986 191.204 177.842 192.163 177.458 190.852C177.154 189.86 176.834 189.284 176.563 189.284C176.371 189.284 176.323 189.556 176.323 190.676C176.323 192.019 176.147 193.043 175.203 197.361C174.723 199.536 174.723 201.919 175.187 203.359C175.363 203.934 175.523 204.462 175.523 204.542C175.523 204.622 175.203 204.638 174.803 204.59C174.1 204.494 174.1 204.494 174.244 204.878C174.324 205.086 174.579 205.55 174.803 205.901C175.043 206.237 175.331 206.861 175.459 207.293C175.907 208.764 176.611 209.612 179.393 212.027C180.001 212.571 180.593 213.242 180.785 213.642C181.169 214.426 181.217 215.593 180.897 216.473C180.705 216.985 180.625 217.033 180.081 217.033C179.505 217.033 179.441 217.081 179.297 217.593C179.058 218.472 177.282 220.119 175.763 220.903C174.004 221.799 172.916 222.135 172.196 221.991C171.877 221.927 170.677 221.831 169.526 221.783C167.095 221.655 166.615 221.463 164.248 219.736C153.196 211.675 148.798 208.86 144.576 207.133C141.121 205.726 140.738 205.678 135.572 205.726C131.813 205.773 130.886 205.726 130.166 205.518C129.686 205.39 129.302 205.198 129.302 205.134C129.302 205.054 129.542 204.35 129.846 203.55C131.11 200.24 131.701 197.681 131.701 195.506C131.701 194.466 131.717 194.434 132.149 194.354C132.389 194.322 134.02 193.986 135.78 193.635C140.946 192.595 147.327 191.587 159.85 189.844C166.167 188.965 169.286 187.781 169.286 186.278C169.286 185.862 169.206 185.766 168.774 185.622C167.398 185.19 165.543 184.934 163.688 184.934C161.385 184.918 160.457 185.046 155.531 186.006C151.053 186.885 148.127 187.317 140.498 188.245C133.317 189.125 130.23 189.524 128.151 189.86C127.287 190.004 126.504 190.084 126.392 190.036C126.264 189.988 126.696 189.46 127.479 188.693C128.199 188.005 129.127 187.061 129.542 186.582L130.294 185.718L130.198 184.183C130.086 182.791 130.118 182.535 130.486 181.448C130.71 180.792 130.902 180.056 130.902 179.816C130.902 179.289 129.814 177.657 127.783 175.13C125.56 172.364 122.201 168.525 121.274 167.71C120.298 166.846 120.058 166.35 119.323 163.887C118.699 161.76 117.483 159.201 114.749 154.179C113.885 152.596 112.941 150.629 112.653 149.813C112.302 148.789 112.014 148.23 111.726 148.006C111.502 147.83 110.926 147.398 110.478 147.062C110.015 146.71 108.959 145.607 108.143 144.615C106.064 142.136 104.769 141.129 102.498 140.233C101.554 139.881 101.154 139.801 99.7629 139.801H98.1156L97.7318 138.586C97.2839 137.226 96.9481 135.947 96.1004 132.268C95.2208 128.414 94.2932 125.951 93.0617 124.24C92.8058 123.888 92.8218 123.872 93.5415 123.52C94.4052 123.104 94.4691 122.96 93.7814 122.944C93.1737 122.928 92.5819 122.561 92.438 122.113C92.374 121.921 92.358 121.745 92.406 121.697C92.438 121.665 92.9018 121.825 93.4136 122.065C94.2772 122.465 94.5331 122.497 96.2764 122.513H98.1955L98.2755 122.976C98.3715 123.568 98.7553 123.728 98.7553 123.2C98.7553 122.992 98.8513 122.672 98.9792 122.497C99.2031 122.209 99.2351 122.241 99.555 122.992C99.9868 124 99.9868 124 100.291 123.568L100.547 123.216L101.186 123.952C101.858 124.72 102.45 124.992 102.818 124.672C103.01 124.528 103.105 124.576 103.345 124.944C103.489 125.183 104.193 126.143 104.897 127.071C106.4 129.07 106.944 130.173 107.04 131.421C107.072 131.933 107.152 132.348 107.184 132.348C107.232 132.348 107.44 132.204 107.664 132.029C108.207 131.597 108.383 131.629 108.255 132.109C108.175 132.46 108.239 132.54 108.895 132.812C109.647 133.148 109.695 133.212 109.919 134.587C110.031 135.211 110.095 135.307 110.51 135.387C111.422 135.579 111.694 135.867 112.462 137.402C113.261 139.018 113.773 139.497 114.493 139.321C114.813 139.242 114.845 139.289 114.781 139.673C114.717 140.185 115.068 140.585 115.772 140.761L116.252 140.873L115.9 140.313C115.516 139.705 115.436 139.226 115.708 139.226C116.044 139.226 116.796 139.705 116.892 139.977C116.972 140.153 116.892 140.345 116.652 140.521C116.3 140.793 116.3 140.793 117.244 141.241C118.139 141.688 118.299 141.704 120.346 141.704C122.665 141.704 123.673 141.481 124.281 140.809C124.44 140.633 124.504 140.505 124.425 140.537C124.265 140.585 124.185 140.473 124.185 140.169C124.185 140.041 124.425 140.009 124.952 140.073C125.88 140.185 126.024 140.105 126.152 139.401C126.216 139.114 126.6 138.426 126.999 137.898C127.703 136.954 127.735 136.874 127.671 136.043C127.591 135.195 127.559 135.147 126.328 133.996L125.064 132.828L125.448 132.508C125.752 132.252 126.056 132.188 127.047 132.188H128.279L128.455 131.501C128.567 131.133 129.095 130.077 129.638 129.15C130.198 128.222 130.774 127.039 130.934 126.511C131.558 124.528 130.742 122.545 128.903 121.585C127.991 121.121 126.088 121.025 124.984 121.393C123.497 121.889 122.281 123.344 122.265 124.64C122.265 125.119 122.233 125.167 121.914 125.071C121.45 124.928 120.826 124.544 120.826 124.384C120.826 124.32 120.97 124.176 121.146 124.064C121.402 123.904 121.61 123.392 121.434 123.392C121.402 123.392 120.522 123.28 119.467 123.152C118.427 123.024 117.547 122.912 117.531 122.912C117.339 122.912 116.988 122.321 116.988 122.033C116.988 121.489 116.46 121.201 115.26 121.073C114.413 120.977 114.061 120.833 113.181 120.226C112.589 119.842 111.886 119.41 111.598 119.282C110.095 118.658 104.801 117.811 102.386 117.795C100.659 117.795 99.1552 118.146 96.1484 119.234C94.725 119.746 93.1097 120.257 92.5819 120.369L91.6063 120.561L91.1105 121.569C90.6147 122.561 90.2469 122.928 89.5272 123.152C88.7595 123.376 89.1754 122.145 90.6467 119.73C91.4464 118.418 91.4784 118.338 91.4784 117.203C91.4784 116.179 91.5264 115.971 91.9102 115.492C92.6299 114.596 93.8294 114.212 96.0205 114.196L97.8597 114.164L98.0836 113.508C98.2595 112.981 98.3875 112.837 98.6754 112.837C98.8673 112.837 101.298 113.045 104.049 113.316C106.816 113.572 112.558 114.068 116.828 114.436C124.377 115.06 126.344 115.284 132.501 116.115C137.875 116.851 142.881 116.819 146.751 116.035C148.127 115.747 149.934 115.044 149.934 114.772C149.934 114.484 143.968 112.821 140.418 112.133C135.364 111.141 131.286 110.678 120.906 109.878C109.103 108.982 106.544 108.71 101.154 107.863C98.3555 107.415 98.5954 107.559 98.5954 106.279C98.5954 105 98.6114 105 96.8361 105C95.7486 105 95.5407 105.048 95.3967 105.304ZM99.2031 171.34C99.7949 172.044 99.8908 172.22 99.6989 172.348C99.1711 172.715 98.4355 172.955 97.236 173.131C96.5163 173.227 95.5887 173.499 95.1248 173.723C94.5651 174.011 94.1653 174.107 93.8934 174.027C93.6535 173.963 92.9178 173.387 92.2461 172.731C91.5743 172.076 90.7587 171.404 90.4228 171.26C90.087 171.1 89.7991 170.908 89.7991 170.844C89.7991 170.508 90.3908 170.588 91.2705 171.036C92.2461 171.532 92.6779 171.644 92.6779 171.404C92.6779 171.34 92.5979 171.196 92.486 171.084C92.358 170.956 92.31 170.364 92.326 169.293C92.374 167.805 92.342 167.662 91.9902 167.31C91.7822 167.118 91.5264 166.91 91.3984 166.862C91.1105 166.766 91.3824 166.062 92.0541 165.135L92.502 164.511L95.4927 167.502C97.124 169.149 98.8033 170.876 99.2031 171.34ZM199.193 170.828C198.969 171.628 197.93 172.939 197.914 172.428C197.914 172.252 198.169 171.676 198.473 171.116C198.777 170.572 199.033 169.981 199.033 169.821C199.049 169.549 199.049 169.549 199.209 169.821C199.337 170.045 199.337 170.316 199.193 170.828ZM55.1577 176.442C55.5575 177.657 55.8934 179.944 55.8934 181.368C55.8934 183.143 55.6855 183.319 53.2065 183.751C52.3908 183.895 51.4312 184.151 51.0954 184.327C50.7435 184.502 50.4397 184.646 50.4077 184.646C50.3757 184.646 50.4077 184.135 50.4876 183.527C50.7275 181.576 51.2073 180.6 53.8142 176.922C54.294 176.25 54.7259 175.69 54.7898 175.69C54.8538 175.69 55.0137 176.026 55.1577 176.442ZM50.2318 178.041C50.0558 178.217 49.9599 177.977 50.0878 177.673C50.1998 177.385 50.2158 177.385 50.2637 177.657C50.2957 177.817 50.2797 177.993 50.2318 178.041ZM100.978 181.896C101.138 186.678 101.106 187.541 100.706 188.277C100.355 188.933 99.7949 189.412 99.587 189.204C99.523 189.156 99.427 187.925 99.3791 186.47C99.2191 182.727 99.0272 182.103 98.0196 181.768C96.9001 181.4 94.9169 181.944 94.5171 182.743C94.1653 183.415 94.2292 184.071 94.757 185.286C95.2368 186.39 95.3328 186.965 95.1088 187.333C94.9169 187.637 94.1653 186.997 93.8614 186.278C93.6695 185.798 93.2216 181.8 93.3656 181.672C93.3816 181.656 94.5171 181.416 95.8765 181.128C97.8117 180.744 100.914 179.864 100.914 179.704C100.914 179.704 100.946 180.68 100.978 181.896ZM195.467 184.311C195.962 185.046 195.978 186.502 195.499 187.477C195.323 187.861 195.115 188.165 195.051 188.165C194.891 188.165 194.555 185.766 194.555 184.598C194.555 183.799 194.603 183.671 194.827 183.719C194.987 183.751 195.275 184.007 195.467 184.311ZM55.8934 185.638C55.8934 186.406 55.4616 188.085 55.0937 188.805C54.6299 189.7 53.8302 190.58 53.2225 190.82C52.7107 191.044 51.3193 191.124 50.9035 190.964C50.7275 190.9 50.6956 190.66 50.7435 190.02C50.7915 189.332 50.7275 188.965 50.3917 188.245C50.1678 187.733 49.9759 187.301 49.9759 187.269C49.9759 187.253 50.5676 187.045 51.3033 186.821C52.023 186.598 53.3025 186.134 54.1341 185.782C54.9658 185.43 55.7015 185.142 55.7814 185.142C55.8454 185.126 55.8934 185.366 55.8934 185.638ZM42.9388 186.726C43.1307 186.853 43.1307 186.885 42.8589 186.885C42.6829 186.885 42.427 186.805 42.2991 186.726C42.1072 186.598 42.1072 186.566 42.3791 186.566C42.555 186.566 42.8109 186.646 42.9388 186.726ZM122.393 196.034L122.921 196.242L122.553 196.801C121.786 197.921 120.042 198.832 117.835 199.248L117.308 199.344L117.931 198.113C118.571 196.849 119.179 196.146 119.866 195.858C120.362 195.65 121.69 195.73 122.393 196.034Z" fill="black"/>
    </g>
    <defs>
        <filter id="filter0_d" x="16" y="95" width="209.725" height="224.704" filterUnits="userSpaceOnUse" color-interpolation-filters="sRGB">
            <feFlood flood-opacity="0" result="BackgroundImageFix"/>
            <feColorMatrix in="SourceAlpha" type="matrix" values="0 0 0 0 0 0 0 0 0 0 0 0 0 0 0 0 0 0 127 0"/>
            <feOffset dx="10"/>
            <feGaussianBlur stdDeviation="5"/>
            <feColorMatrix type="matrix" values="0 0 0 0 0.0117647 0 0 0 0 0.301961 0 0 0 0 0.647059 0 0 0 1 0"/>
            <feBlend mode="normal" in2="BackgroundImageFix" result="effect1_dropShadow"/>
            <feBlend mode="normal" in="SourceGraphic" in2="effect1_dropShadow" result="shape"/>
        </filter>
    </defs>
</svg>
