<svg width="338" height="320" viewBox="0 0 338 320" fill="none" xmlns="http://www.w3.org/2000/svg">
    <rect x="0.5" y="20.5" width="299" height="299" fill="white" stroke="#1E1F25"/>
    <path d="M251.132 311H242.204V309.956C242.684 309.764 243.164 309.608 243.644 309.488C244.124 309.344 244.616 309.212 245.12 309.092V292.892L245.264 288.68H244.976L243.788 292.532L236.408 311H235.472L228.452 292.532L227.156 288.32H226.832L226.868 292.892V309.092C227.324 309.188 227.78 309.308 228.236 309.452C228.692 309.596 229.148 309.764 229.604 309.956V311H222.08V309.956C222.536 309.764 223.004 309.596 223.484 309.452C223.988 309.284 224.492 309.152 224.996 309.056V287.744C224.492 287.648 223.988 287.528 223.484 287.384C223.004 287.216 222.524 287.036 222.044 286.844V285.8H229.424L235.688 302.252L236.912 305.96H236.948L238.172 302.18L244.652 285.8H251.168V286.844C250.736 287.036 250.292 287.216 249.836 287.384C249.38 287.528 248.912 287.648 248.432 287.744V309.128C248.936 309.224 249.404 309.344 249.836 309.488C250.292 309.608 250.724 309.764 251.132 309.956V311ZM268.419 311H258.303V309.956C258.831 309.764 259.359 309.596 259.887 309.452C260.439 309.308 261.027 309.188 261.651 309.092V287.672H256.143L254.235 292.82H253.335C253.263 292.34 253.203 291.8 253.155 291.2C253.107 290.576 253.059 289.952 253.011 289.328C252.987 288.68 252.963 288.056 252.939 287.456C252.915 286.832 252.903 286.28 252.903 285.8H273.819C273.819 286.28 273.807 286.82 273.783 287.42C273.759 288.02 273.723 288.644 273.675 289.292C273.651 289.916 273.615 290.54 273.567 291.164C273.543 291.764 273.495 292.316 273.423 292.82H272.487L270.615 287.672H265.107V309.092C265.731 309.212 266.307 309.332 266.835 309.452C267.387 309.572 267.915 309.74 268.419 309.956V311ZM275.552 285.8H285.416V286.844C284.84 287.06 284.264 287.252 283.688 287.42C283.112 287.564 282.536 287.672 281.96 287.744V309.128H290.24L292.364 303.332H293.3C293.372 303.836 293.432 304.424 293.48 305.096C293.552 305.744 293.6 306.428 293.624 307.148C293.672 307.844 293.696 308.528 293.696 309.2C293.696 309.872 293.684 310.472 293.66 311H275.552V309.956C276.128 309.692 276.656 309.5 277.136 309.38C277.616 309.26 278.072 309.164 278.504 309.092V287.744C277.952 287.648 277.424 287.528 276.92 287.384C276.416 287.216 275.96 287.036 275.552 286.844V285.8Z" fill="#001322"/>
    <g filter="url(#filter0_d)">
        <mask id="path-3-inside-1" fill="white">
            <path d="M42.3781 30.7795C42.3125 31.3045 42.1594 34.892 42.0281 38.742C41.8969 42.592 41.7 48.542 41.5469 51.9763L41.3062 58.2107L42.4219 60.442L43.5375 62.6514L43.975 68.317C44.2156 71.4232 44.4781 74.967 44.5656 76.192C44.675 77.8982 44.7844 78.4451 45.025 78.4451C45.5062 78.4451 45.6594 79.2107 45.9437 82.9295C46.075 84.8545 46.25 86.9326 46.3156 87.5451L46.4469 88.6607L45.5937 88.792C44.9375 88.9014 44.4781 89.2295 43.4281 90.3014L42.0719 91.6795L41.5469 94.3482L41 96.9951L41.6125 104.848C41.9406 109.158 42.3344 113.314 42.4656 114.101C42.575 114.889 42.7937 117.645 42.9031 120.226C43.2094 126.636 43.8219 129.764 45.4187 132.914C45.9437 133.942 48.5469 137.858 50.3406 140.351L51.2156 141.555L53.075 160.695C54.0812 171.217 55.0219 180.82 55.1531 182.023C55.2844 183.226 56.75 198.386 58.4344 215.711C60.1187 233.036 61.6281 248.633 61.8031 250.383C61.9781 252.133 63.225 264.864 64.5594 278.711C65.8937 292.536 67.0312 304.086 67.0969 304.348C67.1844 304.83 67.2937 304.851 69.1531 304.851H71.1219L71.0125 304.02C70.9469 303.583 69.8094 292.033 68.4969 278.383C65.9156 251.914 65.3906 246.489 64.8875 241.305C64.7125 239.489 63.3781 225.861 61.9344 211.008C60.4906 196.155 59.1562 182.505 58.9812 180.711C58.8062 178.895 58.5219 175.898 58.325 174.039C56.7937 158.573 55.3719 143.545 55.3719 142.976V142.32H57.1875H59.0031L60.6875 143.873C61.6062 144.726 62.3719 145.317 62.3719 145.164C62.3719 145.033 62.4812 144.989 62.5906 145.055C62.7219 145.142 66.9656 143.479 72.0625 141.38C77.1375 139.279 81.4469 137.508 81.6 137.464C81.8406 137.398 82.3875 138.317 83.5031 140.592L85.0781 143.808L85.1219 151.748L85.1656 159.711L84.4 162.095L83.6125 164.501L84.7937 165.748C85.7562 166.755 85.9531 167.083 85.8219 167.498C85.7125 167.936 85.6687 167.958 85.6031 167.63C85.5594 167.389 85.3625 167.258 85.1656 167.301C84.8375 167.367 84.7937 167.805 84.7937 171.108V174.826L84.1375 175.614C83.7875 176.051 83.4156 176.423 83.35 176.423C83.1531 176.445 82.9344 173.404 82.9344 170.561C82.9344 164.173 81.5562 158.989 79.15 156.386C78.2969 155.445 76.9187 154.57 76.3281 154.57C76.0437 154.57 74.1844 157.305 74.1844 157.742C74.1844 157.851 74.7312 158.508 75.3875 159.142C77.8594 161.57 78.5594 163.517 78.7125 168.395C78.8219 171.48 78.8 171.851 78.4719 171.873C78.275 171.895 78.0344 171.917 77.925 171.939C77.4875 171.983 77.225 172.486 77.2906 173.076C77.3344 173.536 77.4875 173.733 77.8594 173.776C78.3844 173.864 78.5375 174.258 78.0125 174.258C77.7719 174.258 77.6844 174.542 77.6844 175.439C77.6844 176.423 77.75 176.62 78.1219 176.73C78.4719 176.817 78.5594 177.036 78.5594 177.845C78.5594 178.414 78.4281 179.048 78.2969 179.289C78.0781 179.639 78.0781 179.814 78.3187 180.208C78.5156 180.514 78.5812 181.258 78.5375 182.548C78.45 185.151 78.7781 189.592 79.0406 189.023C79.1937 188.651 79.2156 188.673 79.1281 189.133C78.4937 192.414 76.8094 204.905 76.9625 205.145C77.0062 205.255 77.3781 205.32 77.7937 205.32H78.5156L78.4281 206.567C78.3625 207.267 78.1437 211.095 77.9031 215.098L77.5094 222.361L78.1437 225.489C78.4937 227.217 78.8219 228.836 78.8875 229.098C78.9969 229.58 79.0844 229.601 81.5125 229.601H84.0062L84.1375 230.52C84.9469 236.623 85.0781 238.876 85.1 247.43C85.1 260.598 84.925 259.33 88.9281 274.73C91.9906 286.476 92.3406 288.008 92.3406 289.626C92.3406 290.611 92.2531 291.508 92.1437 291.639C92.0125 291.748 92.1 292.426 92.3844 293.411L92.8437 294.964L91.7719 296.539C91.1812 297.414 90.2406 298.683 89.6719 299.383C87.6594 301.876 86.3906 303.78 86.325 304.37C86.2812 304.83 86.5875 305.376 87.7906 306.842L89.3 308.723L92.7344 308.876C94.6156 308.942 97.525 309.073 99.1656 309.139L102.162 309.292L103.716 307.805L105.247 306.317V304.173V302.051L106.122 301.001C106.603 300.411 106.997 299.886 106.997 299.82C106.997 299.755 106.756 298.858 106.45 297.83C106.012 296.276 105.947 295.708 106.034 294.133C106.144 292.47 106.1 292.098 105.575 290.742C105.269 289.911 104.941 289.123 104.853 288.992C104.766 288.883 104.7 287.439 104.678 285.82C104.656 284.201 104.547 277.989 104.394 272.039C104.153 261.976 104.087 260.861 103.475 256.289C103.081 253.445 102.687 251.28 102.534 251.148C102.381 251.017 101.878 248.458 101.375 245.395L100.5 239.883L101.572 234.895C102.141 232.161 102.666 229.733 102.731 229.47C102.819 229.033 103.016 229.011 106.603 228.858C108.681 228.792 111.525 228.705 112.903 228.705L115.419 228.661L115.812 229.951C117.497 235.464 118.569 238.483 119.706 240.714L121.019 243.273L121.412 248.633C121.719 252.548 122.069 255.348 122.747 259.023L123.666 264.055L126.684 271.055C129.681 278.011 129.703 278.076 130.272 281.336C130.644 283.545 130.841 285.426 130.841 287.067C130.841 288.401 130.95 289.78 131.059 290.086C131.191 290.414 131.475 291.398 131.716 292.317C132.131 293.892 132.131 294.067 131.781 297.48L131.431 301.045L132.35 302.708L133.269 304.392L134.275 304.458C135.281 304.523 135.303 304.545 136.287 306.142L137.294 307.783L139.481 308.68C142.369 309.883 144.316 310.101 146.372 309.423C147.159 309.183 148.866 308.855 150.2 308.723L152.606 308.461L153.087 307.258C153.437 306.405 153.569 305.595 153.591 304.458C153.591 302.926 153.547 302.817 152.584 301.395C151.95 300.476 151.622 300.126 151.687 300.476L151.819 301.023L151.447 300.476C151.25 300.17 150.616 299.448 150.025 298.88C148.166 297.042 144.622 292.776 144.622 292.405C144.622 292.208 144.95 291.026 145.366 289.823L146.109 287.592L145.366 286.411L144.622 285.208L144.184 278.251C143.878 273.22 143.484 269.108 142.741 263.508L141.712 255.742L139.612 250.951C138.125 247.561 137.403 246.117 137.075 245.964C136.812 245.855 136.506 245.461 136.375 245.111C136.2 244.651 136.2 244.52 136.375 244.63C136.506 244.717 136.55 244.651 136.484 244.455C136.419 244.28 135.85 242.486 135.237 240.451L134.122 236.776V232.423V228.07H134.953C135.762 228.07 135.806 228.114 136.966 230.083C140.4 235.901 146.219 243.908 147.378 244.389C148.844 245.001 148.931 244.87 152.453 237.761C165.753 210.876 171.812 190.205 173.759 164.851C174.109 160.17 174.109 143.829 173.759 139.039C173.125 130.77 172.819 128.255 172.075 125.389C170.566 119.483 168.881 116.508 166.366 115.283L165.162 114.692L157.287 114.539C152.956 114.451 147.203 114.429 144.512 114.495L139.612 114.604L135.762 112.023C131.322 109.07 127.778 107.189 123.687 105.57C121.85 104.848 120.756 104.301 120.691 104.083C120.625 103.864 120.384 103.011 120.144 102.179C119.684 100.583 119.356 98.417 119.137 95.8357C118.919 92.9701 118.525 81.617 118.569 79.4076C118.612 78.1826 118.525 77.0014 118.416 76.7826C118.284 76.542 117.934 75.2732 117.628 73.9389C116.841 70.592 116.141 68.9951 113.231 63.8982C111.853 61.492 110.475 58.867 110.147 58.0357C109.622 56.7451 109.469 56.5701 108.966 56.5701C108.484 56.5701 108.222 56.8107 107.587 57.817C107.15 58.517 105.553 60.5514 104.044 62.367C99.4062 67.8357 97.4812 71.1826 96.7594 74.9451C96.475 76.4107 96.1687 80.6545 95.7094 89.1639C95.1406 100.276 94.4406 103.142 91.925 104.826C91.4656 105.111 89.7375 105.898 88.0531 106.576C82.7156 108.72 80.5719 110.12 78.9094 112.592C77.6844 114.429 74.0969 117.098 67.8625 120.861C64.6687 122.786 61.5844 124.645 61.0375 125.017L60.0094 125.651L60.2062 126.614C60.4906 128.123 60.4469 128.101 59.5281 126.176C59.0687 125.192 57.8437 123.223 56.8156 121.801C55.8094 120.401 54.5406 118.433 53.9937 117.426C53.4687 116.42 52.9437 115.633 52.8344 115.676C52.725 115.72 52.5719 114.954 52.4844 113.992C52.375 113.029 52.1125 110.251 51.8719 107.823L51.4344 103.426L52.5062 102.267C53.3812 101.304 53.5781 100.998 53.4687 100.517C53.4031 100.189 53.4906 99.7076 53.6219 99.4232C53.9937 98.767 54.1906 90.367 53.8625 90.1482C53.7312 90.0826 53.6219 89.7107 53.6219 89.3389C53.6219 88.8357 53.4031 88.4639 52.7031 87.8295C52.1781 87.3482 51.6969 86.9764 51.6312 86.9764C51.5437 86.9764 51.4125 87.217 51.3469 87.5232C51.2156 88.0264 50.275 88.5076 49.9906 88.2232C49.7281 87.9607 49.0937 79.0139 49.2906 78.0514C49.4437 77.242 49.3344 76.4107 48.8094 73.8514C48.4375 72.1014 47.8687 69.0826 47.5187 67.1357L46.9062 63.592L47.6062 61.7764C48 60.7701 48.4375 59.6545 48.5906 59.3045C48.8312 58.7357 48.6781 57.817 47.3875 51.867C45.8344 44.6263 44.6094 38.7857 43.5375 33.492C43.1656 31.6764 42.7937 30.1232 42.6844 30.0139C42.575 29.9264 42.4437 30.2545 42.3781 30.7795ZM50.275 101.326C50.2094 101.392 50.0125 101.414 49.8594 101.348C49.6844 101.283 49.75 101.217 49.9906 101.217C50.2312 101.195 50.3625 101.261 50.275 101.326ZM62.7437 144.333C62.6781 144.508 62.6125 144.442 62.6125 144.201C62.5906 143.961 62.6562 143.829 62.7219 143.917C62.7875 143.983 62.8094 144.18 62.7437 144.333Z"/>
        </mask>
        <path d="M42.3781 30.7795C42.3125 31.3045 42.1594 34.892 42.0281 38.742C41.8969 42.592 41.7 48.542 41.5469 51.9763L41.3062 58.2107L42.4219 60.442L43.5375 62.6514L43.975 68.317C44.2156 71.4232 44.4781 74.967 44.5656 76.192C44.675 77.8982 44.7844 78.4451 45.025 78.4451C45.5062 78.4451 45.6594 79.2107 45.9437 82.9295C46.075 84.8545 46.25 86.9326 46.3156 87.5451L46.4469 88.6607L45.5937 88.792C44.9375 88.9014 44.4781 89.2295 43.4281 90.3014L42.0719 91.6795L41.5469 94.3482L41 96.9951L41.6125 104.848C41.9406 109.158 42.3344 113.314 42.4656 114.101C42.575 114.889 42.7937 117.645 42.9031 120.226C43.2094 126.636 43.8219 129.764 45.4187 132.914C45.9437 133.942 48.5469 137.858 50.3406 140.351L51.2156 141.555L53.075 160.695C54.0812 171.217 55.0219 180.82 55.1531 182.023C55.2844 183.226 56.75 198.386 58.4344 215.711C60.1187 233.036 61.6281 248.633 61.8031 250.383C61.9781 252.133 63.225 264.864 64.5594 278.711C65.8937 292.536 67.0312 304.086 67.0969 304.348C67.1844 304.83 67.2937 304.851 69.1531 304.851H71.1219L71.0125 304.02C70.9469 303.583 69.8094 292.033 68.4969 278.383C65.9156 251.914 65.3906 246.489 64.8875 241.305C64.7125 239.489 63.3781 225.861 61.9344 211.008C60.4906 196.155 59.1562 182.505 58.9812 180.711C58.8062 178.895 58.5219 175.898 58.325 174.039C56.7937 158.573 55.3719 143.545 55.3719 142.976V142.32H57.1875H59.0031L60.6875 143.873C61.6062 144.726 62.3719 145.317 62.3719 145.164C62.3719 145.033 62.4812 144.989 62.5906 145.055C62.7219 145.142 66.9656 143.479 72.0625 141.38C77.1375 139.279 81.4469 137.508 81.6 137.464C81.8406 137.398 82.3875 138.317 83.5031 140.592L85.0781 143.808L85.1219 151.748L85.1656 159.711L84.4 162.095L83.6125 164.501L84.7937 165.748C85.7562 166.755 85.9531 167.083 85.8219 167.498C85.7125 167.936 85.6687 167.958 85.6031 167.63C85.5594 167.389 85.3625 167.258 85.1656 167.301C84.8375 167.367 84.7937 167.805 84.7937 171.108V174.826L84.1375 175.614C83.7875 176.051 83.4156 176.423 83.35 176.423C83.1531 176.445 82.9344 173.404 82.9344 170.561C82.9344 164.173 81.5562 158.989 79.15 156.386C78.2969 155.445 76.9187 154.57 76.3281 154.57C76.0437 154.57 74.1844 157.305 74.1844 157.742C74.1844 157.851 74.7312 158.508 75.3875 159.142C77.8594 161.57 78.5594 163.517 78.7125 168.395C78.8219 171.48 78.8 171.851 78.4719 171.873C78.275 171.895 78.0344 171.917 77.925 171.939C77.4875 171.983 77.225 172.486 77.2906 173.076C77.3344 173.536 77.4875 173.733 77.8594 173.776C78.3844 173.864 78.5375 174.258 78.0125 174.258C77.7719 174.258 77.6844 174.542 77.6844 175.439C77.6844 176.423 77.75 176.62 78.1219 176.73C78.4719 176.817 78.5594 177.036 78.5594 177.845C78.5594 178.414 78.4281 179.048 78.2969 179.289C78.0781 179.639 78.0781 179.814 78.3187 180.208C78.5156 180.514 78.5812 181.258 78.5375 182.548C78.45 185.151 78.7781 189.592 79.0406 189.023C79.1937 188.651 79.2156 188.673 79.1281 189.133C78.4937 192.414 76.8094 204.905 76.9625 205.145C77.0062 205.255 77.3781 205.32 77.7937 205.32H78.5156L78.4281 206.567C78.3625 207.267 78.1437 211.095 77.9031 215.098L77.5094 222.361L78.1437 225.489C78.4937 227.217 78.8219 228.836 78.8875 229.098C78.9969 229.58 79.0844 229.601 81.5125 229.601H84.0062L84.1375 230.52C84.9469 236.623 85.0781 238.876 85.1 247.43C85.1 260.598 84.925 259.33 88.9281 274.73C91.9906 286.476 92.3406 288.008 92.3406 289.626C92.3406 290.611 92.2531 291.508 92.1437 291.639C92.0125 291.748 92.1 292.426 92.3844 293.411L92.8437 294.964L91.7719 296.539C91.1812 297.414 90.2406 298.683 89.6719 299.383C87.6594 301.876 86.3906 303.78 86.325 304.37C86.2812 304.83 86.5875 305.376 87.7906 306.842L89.3 308.723L92.7344 308.876C94.6156 308.942 97.525 309.073 99.1656 309.139L102.162 309.292L103.716 307.805L105.247 306.317V304.173V302.051L106.122 301.001C106.603 300.411 106.997 299.886 106.997 299.82C106.997 299.755 106.756 298.858 106.45 297.83C106.012 296.276 105.947 295.708 106.034 294.133C106.144 292.47 106.1 292.098 105.575 290.742C105.269 289.911 104.941 289.123 104.853 288.992C104.766 288.883 104.7 287.439 104.678 285.82C104.656 284.201 104.547 277.989 104.394 272.039C104.153 261.976 104.087 260.861 103.475 256.289C103.081 253.445 102.687 251.28 102.534 251.148C102.381 251.017 101.878 248.458 101.375 245.395L100.5 239.883L101.572 234.895C102.141 232.161 102.666 229.733 102.731 229.47C102.819 229.033 103.016 229.011 106.603 228.858C108.681 228.792 111.525 228.705 112.903 228.705L115.419 228.661L115.812 229.951C117.497 235.464 118.569 238.483 119.706 240.714L121.019 243.273L121.412 248.633C121.719 252.548 122.069 255.348 122.747 259.023L123.666 264.055L126.684 271.055C129.681 278.011 129.703 278.076 130.272 281.336C130.644 283.545 130.841 285.426 130.841 287.067C130.841 288.401 130.95 289.78 131.059 290.086C131.191 290.414 131.475 291.398 131.716 292.317C132.131 293.892 132.131 294.067 131.781 297.48L131.431 301.045L132.35 302.708L133.269 304.392L134.275 304.458C135.281 304.523 135.303 304.545 136.287 306.142L137.294 307.783L139.481 308.68C142.369 309.883 144.316 310.101 146.372 309.423C147.159 309.183 148.866 308.855 150.2 308.723L152.606 308.461L153.087 307.258C153.437 306.405 153.569 305.595 153.591 304.458C153.591 302.926 153.547 302.817 152.584 301.395C151.95 300.476 151.622 300.126 151.687 300.476L151.819 301.023L151.447 300.476C151.25 300.17 150.616 299.448 150.025 298.88C148.166 297.042 144.622 292.776 144.622 292.405C144.622 292.208 144.95 291.026 145.366 289.823L146.109 287.592L145.366 286.411L144.622 285.208L144.184 278.251C143.878 273.22 143.484 269.108 142.741 263.508L141.712 255.742L139.612 250.951C138.125 247.561 137.403 246.117 137.075 245.964C136.812 245.855 136.506 245.461 136.375 245.111C136.2 244.651 136.2 244.52 136.375 244.63C136.506 244.717 136.55 244.651 136.484 244.455C136.419 244.28 135.85 242.486 135.237 240.451L134.122 236.776V232.423V228.07H134.953C135.762 228.07 135.806 228.114 136.966 230.083C140.4 235.901 146.219 243.908 147.378 244.389C148.844 245.001 148.931 244.87 152.453 237.761C165.753 210.876 171.812 190.205 173.759 164.851C174.109 160.17 174.109 143.829 173.759 139.039C173.125 130.77 172.819 128.255 172.075 125.389C170.566 119.483 168.881 116.508 166.366 115.283L165.162 114.692L157.287 114.539C152.956 114.451 147.203 114.429 144.512 114.495L139.612 114.604L135.762 112.023C131.322 109.07 127.778 107.189 123.687 105.57C121.85 104.848 120.756 104.301 120.691 104.083C120.625 103.864 120.384 103.011 120.144 102.179C119.684 100.583 119.356 98.417 119.137 95.8357C118.919 92.9701 118.525 81.617 118.569 79.4076C118.612 78.1826 118.525 77.0014 118.416 76.7826C118.284 76.542 117.934 75.2732 117.628 73.9389C116.841 70.592 116.141 68.9951 113.231 63.8982C111.853 61.492 110.475 58.867 110.147 58.0357C109.622 56.7451 109.469 56.5701 108.966 56.5701C108.484 56.5701 108.222 56.8107 107.587 57.817C107.15 58.517 105.553 60.5514 104.044 62.367C99.4062 67.8357 97.4812 71.1826 96.7594 74.9451C96.475 76.4107 96.1687 80.6545 95.7094 89.1639C95.1406 100.276 94.4406 103.142 91.925 104.826C91.4656 105.111 89.7375 105.898 88.0531 106.576C82.7156 108.72 80.5719 110.12 78.9094 112.592C77.6844 114.429 74.0969 117.098 67.8625 120.861C64.6687 122.786 61.5844 124.645 61.0375 125.017L60.0094 125.651L60.2062 126.614C60.4906 128.123 60.4469 128.101 59.5281 126.176C59.0687 125.192 57.8437 123.223 56.8156 121.801C55.8094 120.401 54.5406 118.433 53.9937 117.426C53.4687 116.42 52.9437 115.633 52.8344 115.676C52.725 115.72 52.5719 114.954 52.4844 113.992C52.375 113.029 52.1125 110.251 51.8719 107.823L51.4344 103.426L52.5062 102.267C53.3812 101.304 53.5781 100.998 53.4687 100.517C53.4031 100.189 53.4906 99.7076 53.6219 99.4232C53.9937 98.767 54.1906 90.367 53.8625 90.1482C53.7312 90.0826 53.6219 89.7107 53.6219 89.3389C53.6219 88.8357 53.4031 88.4639 52.7031 87.8295C52.1781 87.3482 51.6969 86.9764 51.6312 86.9764C51.5437 86.9764 51.4125 87.217 51.3469 87.5232C51.2156 88.0264 50.275 88.5076 49.9906 88.2232C49.7281 87.9607 49.0937 79.0139 49.2906 78.0514C49.4437 77.242 49.3344 76.4107 48.8094 73.8514C48.4375 72.1014 47.8687 69.0826 47.5187 67.1357L46.9062 63.592L47.6062 61.7764C48 60.7701 48.4375 59.6545 48.5906 59.3045C48.8312 58.7357 48.6781 57.817 47.3875 51.867C45.8344 44.6263 44.6094 38.7857 43.5375 33.492C43.1656 31.6764 42.7937 30.1232 42.6844 30.0139C42.575 29.9264 42.4437 30.2545 42.3781 30.7795ZM50.275 101.326C50.2094 101.392 50.0125 101.414 49.8594 101.348C49.6844 101.283 49.75 101.217 49.9906 101.217C50.2312 101.195 50.3625 101.261 50.275 101.326ZM62.7437 144.333C62.6781 144.508 62.6125 144.442 62.6125 144.201C62.5906 143.961 62.6562 143.829 62.7219 143.917C62.7875 143.983 62.8094 144.18 62.7437 144.333Z" fill="black" stroke="white" stroke-width="2" mask="url(#path-3-inside-1)"/>
    </g>
    <rect x="188.5" y="0.5" width="149" height="149" fill="white" stroke="#1E1F25"/>
    <path d="M263 150C304.421 150 338 116.421 338 75C338 33.5786 304.421 0 263 0C221.579 0 188 33.5786 188 75C188 116.421 221.579 150 263 150Z" fill="#1E1F25"/>
    <path d="M225.5 42.1875H230.188V107.812H225.5V42.1875ZM248.938 56.25H253.625V98.4375H248.938V56.25ZM272.375 65.625H277.062V89.0625H272.375V65.625ZM295.812 42.1875H300.5V107.812H295.812V42.1875Z" fill="white"/>
    <defs>
        <filter id="filter0_d" x="41" y="19.9998" width="153.022" height="299.803" filterUnits="userSpaceOnUse" color-interpolation-filters="sRGB">
            <feFlood flood-opacity="0" result="BackgroundImageFix"/>
            <feColorMatrix in="SourceAlpha" type="matrix" values="0 0 0 0 0 0 0 0 0 0 0 0 0 0 0 0 0 0 127 0"/>
            <feOffset dx="10"/>
            <feGaussianBlur stdDeviation="5"/>
            <feColorMatrix type="matrix" values="0 0 0 0 0.445833 0 0 0 0 0.445833 0 0 0 0 0.445833 0 0 0 1 0"/>
            <feBlend mode="normal" in2="BackgroundImageFix" result="effect1_dropShadow"/>
            <feBlend mode="normal" in="SourceGraphic" in2="effect1_dropShadow" result="shape"/>
        </filter>
    </defs>
</svg>
