<svg width="340" height="323" viewBox="0 0 340 323" fill="none" xmlns="http://www.w3.org/2000/svg">
    <rect x="0.5" y="23.5" width="299" height="299" fill="white" stroke="#58BF01"/>
    <rect x="186.5" y="0.5" width="153" height="153" fill="white" stroke="#58BF01"/>
    <path d="M233.532 287.8H241.308V288.844C240.3 289.516 239.316 289.996 238.356 290.284V313.432H236.304L223.236 293.596L221.832 290.788H221.724L222.048 293.596V310.696C223.032 310.96 223.956 311.38 224.82 311.956V313H217.044V311.956C217.476 311.692 217.932 311.464 218.412 311.272C218.916 311.056 219.444 310.864 219.996 310.696V290.068C219.516 289.876 219.036 289.672 218.556 289.456C218.1 289.24 217.668 289.024 217.26 288.808V287.8H223.344L234.684 304.9L236.34 307.996H236.484L236.304 304.9V290.284C235.8 290.068 235.308 289.84 234.828 289.6C234.372 289.36 233.94 289.108 233.532 288.844V287.8ZM260.475 287.8C260.451 288.76 260.403 289.732 260.331 290.716C260.283 291.676 260.199 292.648 260.079 293.632H259.143L257.667 289.672H249.819V299.212H255.687L257.091 296.548H257.991C258.135 298.924 258.135 301.348 257.991 303.82H257.091L255.687 301.084H249.819V311.128H258.099L259.863 306.808H260.763C260.931 307.816 261.051 308.836 261.123 309.868C261.195 310.9 261.207 311.944 261.159 313H243.411V311.956C244.251 311.572 245.235 311.284 246.363 311.092V289.744C245.883 289.648 245.391 289.528 244.887 289.384C244.383 289.216 243.891 289.036 243.411 288.844V287.8H260.475ZM265.228 300.4C265.228 298.528 265.48 296.8 265.984 295.216C266.512 293.608 267.256 292.228 268.216 291.076C269.2 289.9 270.4 288.988 271.816 288.34C273.232 287.692 274.84 287.368 276.64 287.368C278.44 287.368 280.048 287.692 281.464 288.34C282.88 288.988 284.068 289.9 285.028 291.076C286.012 292.228 286.756 293.608 287.26 295.216C287.788 296.8 288.052 298.528 288.052 300.4C288.052 302.272 287.788 304.012 287.26 305.62C286.756 307.204 286.012 308.584 285.028 309.76C284.068 310.912 282.88 311.812 281.464 312.46C280.048 313.108 278.44 313.432 276.64 313.432C274.84 313.432 273.232 313.108 271.816 312.46C270.4 311.812 269.2 310.912 268.216 309.76C267.256 308.584 266.512 307.204 265.984 305.62C265.48 304.012 265.228 302.272 265.228 300.4ZM269.08 300.4C269.08 301.936 269.236 303.388 269.548 304.756C269.884 306.1 270.376 307.276 271.024 308.284C271.672 309.292 272.488 310.096 273.472 310.696C274.456 311.272 275.62 311.56 276.964 311.56C278.188 311.56 279.256 311.272 280.168 310.696C281.08 310.096 281.824 309.292 282.4 308.284C283 307.276 283.444 306.1 283.732 304.756C284.044 303.388 284.2 301.936 284.2 300.4C284.2 298.864 284.044 297.424 283.732 296.08C283.42 294.712 282.94 293.524 282.292 292.516C281.644 291.508 280.828 290.716 279.844 290.14C278.86 289.54 277.696 289.24 276.352 289.24C275.032 289.24 273.904 289.54 272.968 290.14C272.056 290.716 271.312 291.508 270.736 292.516C270.16 293.524 269.74 294.712 269.476 296.08C269.212 297.424 269.08 298.864 269.08 300.4Z" fill="#001322"/>
    <g filter="url(#filter0_d)">
        <path d="M56.7404 46.3876C52.8237 47.7353 50.739 51.4625 50.739 57.1481C50.739 61.8229 52.5289 68.7298 55.0137 73.6994C55.9192 75.4893 57.7512 78.0373 57.8775 77.6583C57.9196 77.5319 57.7091 76.9002 57.4143 76.2474C55.5612 72.0148 55.2874 64.8973 56.8878 62.2651C58.2987 59.9488 60.4466 60.9595 63.0998 65.15C64.2369 66.9399 64.2791 67.0663 64.0474 67.7612C63.7947 68.5192 63.9211 69.3826 64.3633 70.1196C64.5949 70.4987 64.5528 70.7303 64.0264 71.9095C63.7105 72.6465 63.4157 73.4257 63.4157 73.6363C63.4157 73.8258 62.9314 75.2787 62.3207 76.8581C61.4573 79.1113 61.0994 79.7851 60.6571 80.0378C59.878 80.5011 59.3305 81.7645 59.499 82.6911C59.6043 83.2807 59.2252 84.481 57.1826 89.7033C55.3296 94.5044 54.6136 96.1048 54.2135 96.3996C53.9187 96.6312 53.5396 97.1156 53.3922 97.4946C53.1606 98.0421 52.929 98.2316 52.3604 98.3369C51.9603 98.4001 51.5392 98.5896 51.4128 98.737C51.118 99.095 50.5705 100.927 50.5705 101.622C50.5705 101.938 50.4652 102.422 50.3389 102.717C50.1494 103.117 50.1494 103.559 50.3178 104.402C50.5495 105.539 50.5284 105.602 49.7072 107.413L48.8438 109.266L49.1807 110.361C49.5808 111.603 49.9388 112.045 50.7179 112.235C51.3497 112.403 52.95 111.645 53.4344 110.95C53.6028 110.719 54.0871 109.434 54.5083 108.066L55.2664 105.623L56.0245 105.96C56.4456 106.17 56.8668 106.444 56.951 106.57C57.0352 106.718 57.5406 107.16 58.0671 107.56C58.5935 107.96 58.9094 108.339 58.8041 108.402C58.4671 108.613 59.7306 110.635 60.2149 110.635C60.3202 110.635 61.6258 112.972 63.0998 115.836C64.5739 118.721 66.0479 121.564 66.3848 122.174C66.8481 123.08 66.9113 123.374 66.7428 123.859C66.5744 124.301 66.6375 124.638 66.9744 125.417C67.2271 125.965 67.5641 126.533 67.7325 126.702C67.8799 126.87 68.4274 127.565 68.9118 128.239C69.7119 129.376 69.7751 129.418 69.6698 128.807C69.5435 128.176 69.6909 128.302 71.6071 130.218C72.7443 131.355 74.0919 132.492 74.5763 132.745L75.4607 133.208L74.8921 133.798L74.3025 134.409L73.5866 133.777C73.1865 133.44 72.7864 133.208 72.6811 133.272C72.281 133.524 70.5121 136.199 69.9225 137.462C67.7325 142.137 70.3016 147.822 75.4818 149.781C76.4715 150.139 77.398 150.581 77.5243 150.749C77.6717 150.939 78.1561 151.065 78.6825 151.065H79.5669L79.6933 153.529C79.7775 154.898 80.0302 156.919 80.2829 158.014C80.5145 159.109 80.8093 160.731 80.9146 161.594C81.2937 164.184 80.7672 170.228 80.0092 172.334C79.3774 174.081 79.2721 176.082 79.7565 176.987C80.5145 178.44 80.2408 178.967 77.0821 181.978C72.5968 186.274 69.9646 189.748 67.543 194.57C66.6165 196.424 66.0479 197.371 65.7531 197.455C65.2688 197.582 64.0474 199.203 64.0474 199.73C64.0474 199.94 63.9211 200.193 63.7526 200.277C63.6052 200.361 63.163 201.056 62.784 201.793C62.426 202.53 61.7943 203.625 61.3942 204.236C60.615 205.415 60.2149 206.868 60.6782 206.868C60.8256 206.868 60.8888 207.016 60.8256 207.226C60.7624 207.437 60.4255 208.637 60.0886 209.922C59.7517 211.185 58.9304 213.586 58.2776 215.249C57.6248 216.913 56.9931 218.745 56.8668 219.334C56.6562 220.324 56.6141 220.366 56.3193 219.945C56.1508 219.692 55.8349 219.503 55.6244 219.503C55.0558 219.503 54.6768 220.935 54.1293 225.294C53.8976 227.252 53.6449 228.937 53.5818 229.042C53.3712 229.379 51.5813 230.032 50.8653 230.032C48.9491 230.032 48.6122 227.652 50.0441 224.114C50.6758 222.535 52.0235 220.577 53.1185 219.629C53.8976 218.976 53.9608 218.871 53.5396 218.871C52.213 218.871 48.7174 221.566 46.6959 224.157C43.6425 228.052 42.7792 232.516 44.4217 235.991C45.0323 237.339 45.9168 238.455 46.3169 238.455C46.4222 238.455 47.0539 237.739 47.7067 236.875C49.3071 234.749 50.2757 234.285 51.6445 234.98C52.1077 235.233 52.2341 235.422 52.1498 235.78C52.0867 236.033 52.0024 236.896 51.9603 237.676L51.8972 239.129L52.7395 239.739C53.1817 240.076 53.8976 240.455 54.2767 240.603C54.6768 240.75 54.9926 241.003 54.9926 241.192C54.9926 242.287 54.045 247.341 53.4975 249.194C52.6973 251.953 52.4236 252.605 51.1391 255.027C50.381 256.501 50.0862 257.28 50.002 258.186C49.9598 258.86 49.7703 259.765 49.6019 260.207C49.4334 260.628 49.3071 261.239 49.3071 261.513C49.3071 262.945 46.6959 267.872 45.0323 269.62C43.2846 271.452 42.8424 271.578 38.4834 271.599L35.3669 271.621L34.7773 272.336C34.0824 273.137 33.7875 274.358 34.1666 274.8C34.4403 275.137 37.9359 276.295 40.7576 276.99C42.2317 277.348 43.0529 277.432 44.4427 277.369C46.0431 277.285 46.5906 277.138 49.2018 276.043C50.8232 275.39 52.7184 274.569 53.3922 274.232C54.3188 273.768 54.8031 273.642 55.3085 273.747C55.8139 273.832 56.4667 273.663 57.8565 273.095C61.7311 271.515 63.6263 270.104 63.6263 268.841C63.6263 267.725 62.8471 264.019 62.3839 262.987L61.9417 262.018L62.3839 261.429C62.6787 261.029 62.8261 260.439 62.8893 259.449C63.0156 257.028 63.2051 256.101 64.0895 253.511C64.9108 251.068 67.2482 246.035 69.2066 242.561C69.733 241.634 70.3016 240.392 70.4911 239.823C70.6806 239.234 71.1018 238.476 71.4176 238.139C71.7335 237.781 72.0493 237.339 72.1125 237.149C72.3442 236.517 71.7124 230.916 71.3544 230.369C70.9965 229.842 70.3647 226.641 70.3647 225.441C70.3647 224.83 70.6385 224.472 72.5337 222.619C73.7129 221.461 75.8397 219.566 77.2295 218.429C79.7354 216.407 80.683 215.333 80.683 214.512C80.683 214.133 82.0728 212.575 82.2202 212.785C82.3044 212.891 82.7256 216.597 83.7364 226.241C85.3157 241.297 87.0635 254.627 88.706 264.461C89.3798 268.504 89.5693 269.199 90.1379 269.704C90.4748 269.999 90.6012 269.999 91.4645 269.725C91.991 269.536 92.728 269.073 93.107 268.672C93.7598 267.999 93.7809 267.893 93.6966 266.693L93.6124 265.409L94.7706 264.966C95.9077 264.545 96.6868 264.04 96.6868 263.724C96.6868 263.45 94.0967 264.482 93.5703 264.966C93.1913 265.303 93.107 265.535 93.2123 265.893C93.5703 267.072 93.5703 267.325 93.1913 267.767C92.7912 268.188 91.3382 268.967 90.8749 268.988C90.5801 268.988 90.2221 268.209 90.0326 267.156C89.9484 266.714 89.7167 266.103 89.4851 265.788C89.1692 265.324 89.1271 265.008 89.2324 263.787C89.3377 262.671 89.2535 261.66 88.8323 259.512C88.2006 256.122 87.2319 249.257 86.2633 241.087C85.779 237.065 85.6315 235.022 85.8842 235.97C85.9474 236.244 86.2633 236.033 87.2741 235.022C88.3901 233.906 88.5796 233.59 88.6849 232.79C88.7481 232.264 88.9165 231.8 89.1061 231.716C89.4851 231.527 90.2221 231.211 91.1487 230.874C91.9067 230.579 92.2647 229.821 92.2647 228.452C92.2647 227.968 92.3279 227.505 92.4121 227.42C92.4964 227.357 92.5806 227.126 92.6016 226.936C92.6438 226.726 92.7701 226.368 92.8965 226.115C93.1281 225.715 93.2334 225.694 94.0125 225.862C94.4968 225.967 95.3181 226.241 95.8445 226.494C96.8974 226.978 98.2662 227.02 99.9297 226.662C100.519 226.536 101.214 226.389 101.467 226.325C101.762 226.262 101.951 226.368 102.035 226.599C102.099 226.81 102.099 226.557 102.057 226.031C101.972 225.104 101.972 225.083 102.183 225.799C102.309 226.199 102.351 226.704 102.288 226.936C102.246 227.147 102.246 227.273 102.33 227.189C102.393 227.126 102.667 228.094 102.941 229.337C103.194 230.579 103.636 232.137 103.931 232.769C104.225 233.401 104.52 234.285 104.583 234.727C104.647 235.149 104.984 235.822 105.299 236.202C105.615 236.559 105.952 237.149 106.036 237.507C106.121 237.844 106.31 238.286 106.479 238.455C106.626 238.623 106.795 239.15 106.837 239.613C106.984 240.771 107.995 245.699 108.395 247.046C108.732 248.247 110.395 252.395 111.027 253.637L111.406 254.395L109.995 255.764C109.216 256.543 108.121 257.449 107.553 257.807C106.605 258.396 106.331 258.459 104.752 258.459C103.215 258.459 102.772 258.354 100.898 257.617C98.7926 256.775 96.4763 256.312 96.4763 256.712C96.4763 256.838 97.0027 256.985 97.6344 257.07C98.2662 257.133 99.7613 257.575 100.94 258.059C102.751 258.775 103.341 258.923 104.668 258.923C106.1 258.944 106.394 258.881 107.447 258.291C108.079 257.912 109.216 257.006 109.974 256.248C110.711 255.49 111.385 254.88 111.448 254.88C111.617 254.88 111.701 255.069 112.606 257.659C113.322 259.744 114.038 263.113 114.396 266.146C114.523 267.177 115.007 269.03 115.639 270.884C116.565 273.6 116.671 274.042 116.46 274.674C116.334 275.074 116.165 276.401 116.06 277.622C115.934 279.264 115.723 280.296 115.218 281.623C114.86 282.613 114.291 284.403 113.954 285.624C113.617 286.845 113.196 288.235 113.007 288.74C112.754 289.456 112.733 289.835 112.901 290.425C113.301 291.878 113.07 291.815 117.681 291.667C119.977 291.583 122.398 291.457 123.093 291.373C124.209 291.267 124.336 291.183 124.588 290.593C124.967 289.667 125.325 285.54 125.41 281.202C125.452 278.001 125.536 277.327 125.957 276.148C126.42 274.842 126.547 273.031 126.357 270.252C126.336 269.852 126.399 268.567 126.483 267.409C126.631 265.43 126.61 265.219 126.062 263.724C125.283 261.576 124.904 258.375 125.073 255.09L125.199 252.458L126.673 251.195C128.568 249.573 130.927 247.783 131.748 247.341C132.232 247.088 133.117 247.004 135.433 246.962C137.118 246.941 138.802 246.815 139.202 246.688C139.602 246.562 139.981 246.52 140.087 246.562C140.171 246.625 140.297 246.583 140.382 246.457C140.466 246.33 140.613 246.309 140.739 246.372C140.887 246.478 140.908 246.414 140.824 246.267C140.697 246.099 140.782 246.035 141.034 246.078C141.287 246.12 141.413 246.035 141.371 245.846C141.329 245.656 141.434 245.614 141.645 245.699C141.856 245.762 141.94 245.741 141.856 245.593C141.771 245.467 141.877 245.404 142.087 245.446C142.319 245.488 142.466 245.404 142.445 245.256C142.424 245.13 142.529 244.962 142.719 244.898C142.929 244.814 142.993 244.877 142.908 245.046C142.824 245.172 142.908 245.13 143.077 244.94C143.245 244.73 143.456 244.646 143.54 244.73C143.645 244.814 143.624 244.751 143.54 244.582C143.414 244.351 143.456 244.309 143.688 244.414C143.877 244.477 144.193 244.351 144.404 244.119C144.593 243.909 144.677 243.719 144.593 243.719C144.488 243.719 144.593 243.593 144.804 243.424C145.035 243.256 145.288 243.172 145.372 243.214C145.456 243.256 145.878 242.877 146.299 242.371C146.741 241.845 147.162 241.466 147.246 241.529C147.331 241.571 147.646 241.297 147.983 240.939C148.299 240.56 148.636 240.245 148.741 240.245C148.847 240.245 149.078 240.055 149.247 239.823C149.415 239.592 149.647 239.402 149.773 239.402C149.9 239.402 150.173 239.171 150.405 238.876C150.658 238.581 150.784 238.497 150.7 238.665C150.616 238.834 150.805 238.728 151.1 238.392C151.395 238.076 151.689 237.823 151.753 237.802C151.795 237.802 151.963 237.76 152.111 237.718C152.258 237.676 152.953 237.591 153.648 237.549C154.764 237.486 154.722 237.486 153.227 237.444L151.542 237.402L149.752 238.813C148.762 239.592 146.973 241.087 145.751 242.14C141.919 245.446 138.865 246.878 136.212 246.562C135.538 246.499 134.317 246.499 133.496 246.583C132.19 246.709 131.832 246.836 130.484 247.762C129.642 248.331 128.105 249.51 127.094 250.394L125.22 251.995L124.967 248.984C124.694 245.614 124.42 244.224 123.241 240.118C122.125 236.265 121.724 235.275 120.482 233.464L119.429 231.885L119.197 228.916C119.029 226.873 119.029 225.083 119.155 223.293C119.366 220.808 119.366 220.745 119.429 222.24C119.471 223.42 119.513 223.63 119.619 223.083C119.808 222.009 120.356 222.03 122.862 223.293C124.946 224.367 125.052 224.388 126.336 224.262C127.305 224.178 128.168 223.904 129.495 223.251C130.505 222.767 131.558 222.346 131.853 222.325C132.148 222.303 132.969 222.114 133.706 221.903C134.991 221.566 135.033 221.566 136.191 222.009C136.865 222.261 137.855 222.809 138.423 223.209L139.434 223.967L140.445 223.167C140.992 222.725 142.087 221.714 142.866 220.914C144.088 219.671 144.256 219.419 144.024 219.124C143.877 218.913 144.13 219.103 144.551 219.482C145.456 220.324 145.625 220.661 144.762 219.903L144.172 219.397L144.677 219.966C144.951 220.282 145.246 220.492 145.351 220.45C145.435 220.387 147.015 221.651 148.847 223.251C152.974 226.852 157.164 230.411 160.134 232.853C161.376 233.885 162.387 234.77 162.387 234.812C162.387 234.875 161.755 235.696 160.976 236.644C160.197 237.57 159.523 238.392 159.481 238.455C159.439 238.497 158.912 238.623 158.323 238.707C157.27 238.834 157.291 238.834 158.639 238.792C160.049 238.749 160.997 238.307 160.871 237.739C160.829 237.612 160.913 237.486 161.018 237.444C161.397 237.318 161.966 236.707 161.924 236.475C161.881 236.349 161.966 236.202 162.071 236.18C162.513 236.033 162.829 235.633 162.724 235.359C162.513 234.833 163.44 235.486 166.598 238.118C171.863 242.456 173.947 244.33 177.885 248.183C180.875 251.089 181.865 251.932 182.518 252.121C182.96 252.247 183.402 252.353 183.487 252.353C183.908 252.353 185.677 250.121 186.519 248.478C188.54 244.604 190.204 242.961 192.605 242.456C193.278 242.308 194.352 241.95 194.942 241.655L196.037 241.129L196.332 239.529C196.563 238.37 196.605 237.465 196.479 236.244C196.121 232.537 196.669 231.084 200.08 226.768C201.575 224.851 202.417 223.567 203.997 220.724C204.123 220.514 200.543 218.745 197.701 217.608L195.131 216.576L194.879 215.67C194.752 215.165 194.626 213.522 194.626 211.985C194.605 209.985 194.479 208.7 194.163 207.352C193.552 204.741 193.573 204.762 193.005 204.552C191.783 204.068 187.824 203.457 182.328 202.867C167.399 201.267 158.933 199.645 150.068 196.718C145.562 195.223 136.76 191.854 134.654 190.843C130.316 188.716 125.999 185.537 123.62 182.715C121.556 180.251 120.777 179.114 118.713 175.492C116.839 172.228 116.313 171.639 113.428 169.47C110.648 167.406 110.753 167.469 109.49 166.753C107.868 165.827 106.626 164.458 105.7 162.521C104.457 159.952 104.31 158.709 104.752 154.582C105.299 149.676 105.51 148.602 106.184 147.149C106.521 146.433 106.795 145.696 106.795 145.527C106.795 145.359 106.984 144.811 107.195 144.306C107.405 143.8 108.079 142.2 108.69 140.768C109.785 138.136 110.774 136.262 110.48 137.378C110.395 137.673 110.248 137.989 110.143 138.115C110.037 138.22 109.974 138.536 109.974 138.852C109.995 139.273 110.016 139.294 110.101 138.957C110.164 138.726 110.353 138.346 110.501 138.115C110.774 137.757 110.795 137.841 110.817 138.957L110.838 140.221L111.111 139.21C111.427 138.073 111.638 137.736 111.659 138.346C111.659 138.557 111.869 137.883 112.143 136.851C112.396 135.799 112.712 134.767 112.838 134.535C112.964 134.303 113.175 133.777 113.28 133.377C113.659 132.05 113.554 133.461 113.112 136.03C112.817 137.673 112.754 138.557 112.88 138.81C113.07 139.126 113.091 139.126 113.07 138.747C113.049 137.631 113.533 135.441 113.933 134.935L114.375 134.367V134.914C114.375 135.209 114.27 135.525 114.144 135.588C114.017 135.672 113.975 135.883 114.038 136.051C114.102 136.22 114.08 136.304 113.975 136.241C113.765 136.093 113.533 136.599 113.533 137.125C113.554 137.441 113.575 137.441 113.765 137.104C113.891 136.915 114.08 136.809 114.207 136.872C114.354 136.957 114.375 136.915 114.291 136.788C114.207 136.641 114.228 136.536 114.333 136.536C114.46 136.536 114.607 136.199 114.67 135.799C114.902 134.556 115.197 134.788 115.133 136.199C115.091 137.273 114.923 137.799 114.291 138.936C113.87 139.715 113.638 140.284 113.765 140.2C113.933 140.115 113.954 140.221 113.849 140.558C113.554 141.505 114.923 139.568 115.428 138.325C116.144 136.578 116.165 137.083 115.47 138.978C115.133 139.905 114.796 141.021 114.712 141.484C114.586 142.284 114.607 142.284 115.07 141.168C115.344 140.536 115.807 139.652 116.123 139.21C116.418 138.789 117.071 137.399 117.555 136.114C118.06 134.851 118.503 133.84 118.545 133.882C118.608 133.966 118.166 135.967 117.218 139.799C117.155 140.031 117.071 140.852 117.029 141.61C116.965 142.369 116.86 143.274 116.776 143.611C116.671 144.116 116.692 144.179 116.923 143.948C117.092 143.8 117.176 143.358 117.155 142.895C117.113 142.39 117.155 142.221 117.281 142.39C117.471 142.663 117.808 141.379 118.84 136.388C119.092 135.188 119.324 134.261 119.366 134.303C119.408 134.346 119.261 135.504 119.029 136.872C118.818 138.262 118.566 139.842 118.482 140.431C118.292 142.032 117.913 143.695 117.702 143.821C117.618 143.885 117.534 144.053 117.534 144.179C117.534 144.327 117.702 144.201 117.913 143.906C118.334 143.295 118.797 143.127 118.797 143.59C118.797 143.758 118.692 143.885 118.566 143.843C118.439 143.821 118.271 143.927 118.229 144.074C118.145 144.306 118.208 144.327 118.545 144.137C118.945 143.927 119.282 143.19 119.05 142.979C118.987 142.916 118.818 142.958 118.65 143.084C118.503 143.211 118.376 143.253 118.376 143.148C118.376 142.874 118.797 142.284 118.797 142.537C118.797 142.642 119.029 142.369 119.324 141.905C120.103 140.663 120.672 138.62 120.84 136.557C120.945 135.335 121.03 134.956 121.114 135.377C121.219 135.967 121.261 135.925 121.619 134.788C121.851 134.03 121.956 133.314 121.872 132.914C121.809 132.535 121.809 132.303 121.872 132.387C121.956 132.471 122.146 132.429 122.293 132.303C122.651 132.008 123.198 133.924 123.367 136.072C123.493 137.883 123.177 139.399 122.251 141.231C121.977 141.779 121.851 142.179 121.977 142.095C122.103 142.032 122.525 141.316 122.904 140.515C123.283 139.736 123.641 139.126 123.704 139.189C123.893 139.399 124.567 136.199 124.567 134.935L124.588 133.63L125.325 133.693C126.273 133.756 126.799 133.988 126.799 134.324C126.799 134.746 127.242 134.956 127.431 134.64C127.536 134.451 127.684 134.556 127.873 134.956C128.126 135.419 128.758 135.756 131.453 136.83C133.243 137.567 135.391 138.557 136.212 139.02C137.033 139.505 137.96 139.989 138.255 140.115C138.571 140.221 139.35 140.663 140.024 141.105C141.203 141.863 141.287 141.884 143.582 141.968L145.941 142.053L146.172 143.106C147.057 147.317 141.582 148.833 139.055 145.085L138.381 144.074V144.874C138.381 146.749 140.508 149.802 142.614 150.96C143.54 151.465 143.961 151.55 145.246 151.55C146.551 151.55 146.994 151.444 148.131 150.897C149.436 150.244 152.49 147.633 152.49 147.17C152.49 147.043 151.984 146.643 151.353 146.243C149.268 144.938 149.163 143.485 151.1 142.347C152.132 141.737 152.932 140.873 153.353 139.926C153.521 139.547 153.901 139.189 154.28 139.041C158.302 137.567 160.428 136.957 161.502 136.936C162.155 136.936 162.892 136.851 163.124 136.767C163.671 136.536 167.441 138.389 167.904 139.105C168.093 139.378 168.873 139.884 169.652 140.221C170.957 140.768 171.126 140.789 171.631 140.515C172.431 140.052 172.41 139.61 171.505 138.62L170.705 137.736L171.589 138.199C172.579 138.683 173.547 138.768 173.926 138.389C174.411 137.904 174.221 136.872 173.547 136.22C172.831 135.525 172.874 135.314 173.737 135.441C174.158 135.504 174.474 135.398 174.79 135.083C175.421 134.451 175.358 133.714 174.6 133.166C173.884 132.661 173.8 132.366 174.348 132.177C174.979 131.945 175.443 131.44 175.443 130.913C175.443 130.218 174.495 129.292 173.905 129.46C173.674 129.523 173.358 129.481 173.21 129.355C173.084 129.25 172.305 129.081 171.484 128.976C169.925 128.786 169.483 128.618 167.756 127.523C166.051 126.449 165.545 126.428 164.429 127.46C163.798 128.049 163.313 128.323 162.892 128.323C162.134 128.323 160.239 129.039 159.439 129.629C158.996 129.944 158.323 130.113 156.87 130.26C154.427 130.492 150.11 130.26 149.057 129.839C148.194 129.502 147.457 129.544 144.425 130.113C143.33 130.302 142.445 130.366 142.319 130.26C142.171 130.176 141.645 129.966 141.119 129.797C139.013 129.186 138.255 128.913 137.644 128.534C137.307 128.344 136.633 128.049 136.17 127.902C134.991 127.523 134.675 127.249 135.138 126.996C135.412 126.828 135.243 126.681 134.212 126.196C133.517 125.859 132.59 125.185 132.148 124.701C131.242 123.711 131.2 123.775 133.39 123.164C134.064 122.974 134.549 122.764 134.506 122.659C134.443 122.574 133.854 122.279 133.18 122.048C132.085 121.648 130.59 120.553 130.59 120.153C130.59 120.068 131.011 119.774 131.537 119.5C132.064 119.226 132.464 118.889 132.422 118.784C132.359 118.573 130.611 118.047 129.853 118.005C129.6 117.984 128.716 117.184 127.642 115.983C125.515 113.583 123.914 112.319 121.619 111.245C120.061 110.508 119.871 110.361 119.555 109.519C118.84 107.623 119.261 106.107 120.756 105.328C121.514 104.907 121.935 104.844 123.851 104.865C125.789 104.886 126.315 104.97 128.21 105.623C131.685 106.802 133.917 108.424 135.222 110.719C135.812 111.751 135.833 111.751 135.98 111.182C136.739 108.108 131.748 101.938 126.21 99.1582C123.662 97.8947 121.893 97.5157 118.376 97.4946C116.692 97.4735 114.986 97.5367 114.586 97.642L113.849 97.7894L112.017 94.5886C111.027 92.8198 109.679 90.3139 109.048 89.0505C108.416 87.766 107.595 86.334 107.237 85.8497C106.121 84.3125 103.91 82.0804 103.067 81.6803C102.625 81.4487 101.825 80.9012 101.277 80.4589C99.7613 79.2376 98.9611 78.9639 96.7921 78.9639C93.2965 78.9639 90.4116 80.2694 87.7794 83.049C85.9895 84.9442 85.0419 86.4604 84.1996 88.7978C83.6311 90.356 83.5679 90.8404 83.4837 93.7885C83.3363 98.1474 83.9259 105.518 84.5997 108.276C84.9788 109.792 85.6947 111.414 86.4949 112.446C86.7476 112.804 87.253 113.583 87.5899 114.151L88.2006 115.204L87.1688 115.92C85.9895 116.699 85.2525 117.52 85.442 117.836C85.5052 117.942 85.6105 118.615 85.6526 119.331C85.7368 120.595 85.6947 120.679 85.1472 120.995C84.8314 121.184 84.1365 121.732 83.589 122.195C82.7045 122.974 82.515 123.059 81.4832 123.059C80.8725 123.059 80.0723 123.143 79.6933 123.248C79.1037 123.417 78.9773 123.374 78.7036 122.932C78.2403 122.258 78.2614 122.216 79.1668 122.195C79.7775 122.195 79.8617 122.153 79.5248 122.006C78.9563 121.774 77.9876 120.742 77.5665 119.879C77.3138 119.395 76.8294 118.994 75.924 118.552C74.9974 118.089 73.755 117.057 71.6071 114.994C68.4274 111.961 64.4686 107.729 64.4686 107.371C64.4686 107.076 63.163 105.665 62.805 105.539C62.6366 105.497 61.5205 103.728 60.3413 101.601L58.1513 97.7473L60.7203 91.3879C62.9314 85.8918 63.3736 84.9653 64.0264 84.3967C64.7423 83.765 64.7844 83.6597 64.8055 82.291C64.8266 81.0696 64.995 80.4168 65.9216 78.1005C66.5322 76.5843 67.164 75.2156 67.3114 75.0471C67.4588 74.8787 67.6272 74.5417 67.7115 74.289C67.7746 74.0574 68.1747 73.6994 68.5959 73.5099L69.354 73.1309L70.7227 74.2469C72.3652 75.5946 73.755 77.3635 74.3867 79.006C74.7868 79.9746 74.8711 80.6274 74.8921 82.312C74.8921 84.8179 74.5342 85.8076 72.9759 87.4711C71.4176 89.1347 69.8383 89.3242 67.3535 88.1239C66.7007 87.8081 66.1532 87.5975 66.1532 87.6607C66.1532 87.9976 67.7746 89.7664 68.7433 90.4824C70.8912 92.1038 73.5023 93.0093 76.0503 93.0304C78.4509 93.0514 79.5248 92.6513 80.8936 91.2826C83.1257 89.0084 83.8838 86.5867 83.8627 81.575C83.8627 78.1005 83.5258 75.4893 82.7677 73.194C82.2834 71.6989 82.3676 71.7411 79.7986 72.1412C78.5351 72.3307 78.0508 72.3307 77.5665 72.1201C76.4293 71.6568 75.2291 70.1828 74.0288 67.8243C72.8706 65.5712 72.8706 65.5291 73.1654 64.771C73.5023 63.8866 73.4392 63.5707 72.8495 62.8968L72.4284 62.4336L72.9969 60.9595C73.4181 59.8856 73.5444 59.3381 73.4181 58.8959C73.3128 58.58 73.2707 58.1799 73.2918 58.0536C73.3549 57.5692 72.9127 57.0007 72.2599 56.7269C71.6703 56.4953 71.544 56.5164 70.5753 57.1692C70.0068 57.5692 69.4803 58.0325 69.4171 58.222C69.354 58.4116 68.9539 58.7274 68.5117 58.9169L67.7115 59.2749L66.2585 58.4326C63.1841 56.6427 62.2365 55.0634 61.4152 50.4096C61.1204 48.725 60.8256 47.1457 60.7624 46.8719C60.5729 45.9454 58.6777 45.7138 56.7404 46.3876ZM84.7892 105.897C84.9577 107.055 85.1683 108.276 85.2104 108.634C85.3157 109.182 85.2946 109.161 85.0209 108.487C84.5997 107.413 84.0522 103.391 84.347 103.707C84.4102 103.77 84.5997 104.738 84.7892 105.897ZM86.1369 111.266C86.3686 111.772 86.3686 111.772 86.0738 111.393C85.8842 111.161 85.7368 110.887 85.7368 110.761C85.7368 110.508 85.8421 110.614 86.1369 111.266ZM147.71 129.944C147.562 129.987 147.267 129.987 147.078 129.944C146.867 129.881 146.994 129.839 147.331 129.839C147.689 129.839 147.836 129.881 147.71 129.944ZM116.06 131.44C116.06 131.755 116.018 131.755 115.849 131.482C115.576 131.061 115.576 130.787 115.849 130.955C115.976 131.018 116.06 131.25 116.06 131.44ZM118.313 132.05C118.25 132.261 118.208 132.092 118.208 131.692C118.208 131.292 118.25 131.124 118.313 131.313C118.355 131.524 118.355 131.861 118.313 132.05ZM116.376 134.282L116.039 134.956L116.144 134.114C116.207 133.651 116.27 133.082 116.292 132.85C116.292 132.514 116.355 132.556 116.523 133.019C116.692 133.482 116.65 133.756 116.376 134.282ZM121.472 133.419C121.409 133.587 121.345 133.524 121.345 133.293C121.324 133.061 121.387 132.935 121.451 133.019C121.514 133.082 121.535 133.272 121.472 133.419ZM114.944 134.051C114.881 134.198 114.839 134.093 114.839 133.798C114.839 133.503 114.881 133.398 114.944 133.524C114.986 133.672 114.986 133.924 114.944 134.051ZM123.788 135.104C123.725 135.272 123.662 135.209 123.662 134.977C123.641 134.746 123.704 134.619 123.767 134.704C123.83 134.767 123.851 134.956 123.788 135.104ZM120.292 138.389C120.103 139.631 119.555 141.168 119.324 141.168C119.282 141.168 119.366 140.726 119.534 140.157C119.682 139.61 119.935 138.557 120.082 137.799C120.419 136.051 120.587 136.514 120.292 138.389ZM114.375 139.694C114.249 139.926 114.102 140.115 114.038 140.115C113.996 140.115 114.038 139.926 114.165 139.694C114.291 139.463 114.438 139.273 114.502 139.273C114.544 139.273 114.502 139.463 114.375 139.694ZM118.945 140.894C118.882 141.105 118.84 140.979 118.84 140.642C118.84 140.284 118.882 140.136 118.945 140.263C118.987 140.41 118.987 140.705 118.945 140.894ZM60.9941 206.194C60.7835 206.405 60.6571 206.447 60.7203 206.342C60.7835 206.215 60.8888 205.942 60.9941 205.71C61.0994 205.415 61.1836 205.373 61.2468 205.563C61.3099 205.731 61.1836 206.005 60.9941 206.194ZM192.773 207.71C192.963 208.7 193.152 210.932 193.194 212.68L193.257 215.881L192.773 215.691C192.499 215.586 189.993 214.828 187.172 214.007C184.371 213.185 182.055 212.491 182.013 212.448C181.97 212.406 182.434 211.922 183.023 211.375C183.76 210.68 184.603 210.153 185.571 209.795C186.498 209.437 187.572 208.763 188.646 207.9C190.309 206.531 192.078 205.52 192.31 205.773C192.394 205.857 192.605 206.721 192.773 207.71ZM142.593 217.713C143.224 218.345 143.688 218.871 143.624 218.871C143.582 218.871 143.014 218.345 142.382 217.713C141.75 217.081 141.287 216.555 141.35 216.555C141.392 216.555 141.961 217.081 142.593 217.713ZM197.995 219.629C199.322 219.713 200.333 219.924 201.091 220.261C201.68 220.535 202.186 220.808 202.186 220.872C202.186 221.293 199.954 224.767 198.564 226.494C197.679 227.61 196.605 229.042 196.226 229.695C195.826 230.347 195.468 230.832 195.426 230.769C195.363 230.727 195.321 230.853 195.3 231.042C195.279 231.232 195.174 231.864 195.047 232.453C194.942 233.022 194.879 234.412 194.921 235.507C194.984 236.917 194.942 237.233 194.837 236.559C194.71 235.844 194.668 235.759 194.647 236.223C194.605 236.749 194.563 236.791 194.268 236.538C194.079 236.37 193.742 235.865 193.531 235.401C193.321 234.938 192.92 234.222 192.668 233.822C192.394 233.401 191.994 232.769 191.762 232.39C191.531 232.032 191.236 231.716 191.109 231.716C190.962 231.716 190.878 231.59 190.878 231.442C190.899 231.316 190.73 230.832 190.499 230.39C190.246 229.884 190.183 229.526 190.309 229.4C190.52 229.189 194.184 230.369 194.416 230.727C194.605 231 194.963 230.748 195.089 230.263C195.153 229.968 194.731 229.421 193.447 228.179C190.33 225.146 190.309 225.083 191.046 221.777C191.678 219.018 192.12 218.471 193.299 219.061C193.489 219.166 194.163 219.334 194.795 219.461C195.89 219.65 195.932 219.629 195.511 219.313C194.121 218.218 193.994 218.071 194.942 218.724C195.932 219.397 196.226 219.482 197.995 219.629ZM101.677 223.967C101.614 224.135 101.551 224.072 101.551 223.841C101.53 223.609 101.593 223.483 101.656 223.567C101.72 223.63 101.741 223.82 101.677 223.967ZM101.888 224.809C101.825 224.978 101.762 224.915 101.762 224.683C101.741 224.451 101.804 224.325 101.867 224.409C101.93 224.472 101.951 224.662 101.888 224.809ZM194.963 238.286C194.9 238.434 194.858 238.328 194.858 238.034C194.858 237.739 194.9 237.633 194.963 237.76C195.005 237.907 195.005 238.16 194.963 238.286ZM194.752 239.655C194.689 239.866 194.647 239.739 194.647 239.402C194.647 239.044 194.689 238.897 194.752 239.023C194.795 239.171 194.795 239.465 194.752 239.655ZM148.068 240.624C148.068 240.666 147.857 240.876 147.604 241.108L147.12 241.508L147.52 241.024C147.899 240.582 148.068 240.455 148.068 240.624ZM146.383 242.098C146.383 242.14 146.13 242.392 145.814 242.687L145.225 243.193L145.73 242.603C146.214 242.077 146.383 241.929 146.383 242.098ZM144.488 243.803C144.488 243.845 144.319 244.014 144.13 244.161C143.793 244.435 143.772 244.414 144.046 244.077C144.319 243.74 144.488 243.635 144.488 243.803Z" fill="black"/>
        <path d="M196.458 219.861C196.711 219.903 197.09 219.903 197.3 219.861C197.49 219.797 197.279 219.755 196.816 219.776C196.353 219.776 196.184 219.818 196.458 219.861Z" fill="black"/>
        <path d="M198.774 220.071C199.027 220.114 199.406 220.114 199.617 220.071C199.806 220.008 199.596 219.966 199.132 219.987C198.669 219.987 198.501 220.029 198.774 220.071Z" fill="black"/>
        <path d="M84.7681 120.342C84.368 120.805 84.368 120.805 84.8523 120.51C85.105 120.342 85.3156 120.152 85.3156 120.068C85.3156 119.815 85.1892 119.879 84.7681 120.342Z" fill="black"/>
        <path d="M111.869 139.189C111.869 139.421 111.933 139.484 111.996 139.315C112.059 139.168 112.038 138.979 111.975 138.915C111.911 138.831 111.848 138.957 111.869 139.189Z" fill="black"/>
        <path d="M96.034 259.766C96.1182 260.355 96.1604 260.376 96.2235 259.955C96.2656 259.681 96.2235 259.387 96.1182 259.281C95.9919 259.155 95.9708 259.345 96.034 259.766Z" fill="black"/>
        <path d="M96.3076 261.092C96.3076 261.429 96.3497 261.555 96.4129 261.345C96.455 261.155 96.455 260.86 96.4129 260.713C96.3497 260.587 96.3076 260.734 96.3076 261.092Z" fill="black"/>
        <path d="M92.728 262.461C92.728 262.861 92.7701 263.029 92.8333 262.818C92.8754 262.629 92.8754 262.292 92.8333 262.081C92.7701 261.892 92.728 262.06 92.728 262.461Z" fill="black"/>
        <path d="M96.5394 262.565C96.5394 263.029 96.5815 263.197 96.6236 262.923C96.6658 262.671 96.6658 262.292 96.6236 262.081C96.5605 261.892 96.5184 262.102 96.5394 262.565Z" fill="black"/>
        <path d="M92.9385 264.356C92.9385 264.756 92.9806 264.924 93.0438 264.714C93.0859 264.524 93.0859 264.187 93.0438 263.976C92.9806 263.787 92.9385 263.955 92.9385 264.356Z" fill="black"/>
    </g>
    <path d="M263 152C304.421 152 338 118.421 338 77C338 35.5786 304.421 2 263 2C221.579 2 188 35.5786 188 77C188 118.421 221.579 152 263 152Z" fill="url(#paint0_linear)"/>
    <path d="M305.188 107.844L272.422 92.5625V58.7188L305.188 47.0938V107.844ZM257.469 123.875L225.5 108.969V48.6875L257.469 63.5938V123.875ZM304.391 44.9375L303.875 45.125L272.422 56.2812L271.625 56.5625L258.312 61.25L226.766 46.5781L271.625 30.6406L272.047 30.5L272.844 30.2187L273.125 30.125L304.672 44.8438L304.391 44.9375Z" fill="white"/>
    <defs>
        <filter id="filter0_d" x="34" y="36" width="190" height="265.74" filterUnits="userSpaceOnUse" color-interpolation-filters="sRGB">
            <feFlood flood-opacity="0" result="BackgroundImageFix"/>
            <feColorMatrix in="SourceAlpha" type="matrix" values="0 0 0 0 0 0 0 0 0 0 0 0 0 0 0 0 0 0 127 0"/>
            <feOffset dx="10"/>
            <feGaussianBlur stdDeviation="5"/>
            <feColorMatrix type="matrix" values="0 0 0 0 0.345098 0 0 0 0 0.74902 0 0 0 0 0.00392157 0 0 0 1 0"/>
            <feBlend mode="normal" in2="BackgroundImageFix" result="effect1_dropShadow"/>
            <feBlend mode="normal" in="SourceGraphic" in2="effect1_dropShadow" result="shape"/>
        </filter>
        <linearGradient id="paint0_linear" x1="80972" y1="-5146" x2="80972" y2="116690" gradientUnits="userSpaceOnUse">
            <stop stop-color="#58BF00"/>
            <stop offset="0.23" stop-color="#58BF00"/>
            <stop offset="0.42" stop-color="#58BF00"/>
            <stop offset="0.61" stop-color="#29B800"/>
            <stop offset="0.78" stop-color="#00AE1D"/>
            <stop offset="0.99" stop-color="#00A62C"/>
        </linearGradient>
    </defs>
</svg>
