<svg width="333" height="318" viewBox="0 0 333 318" fill="none" xmlns="http://www.w3.org/2000/svg">
    <rect x="0.5" y="18.5" width="296" height="299" fill="white" stroke="#302C2C"/>
    <path d="M252.26 297.4C252.26 293.08 252.98 289.828 254.42 287.644C255.86 285.46 257.924 284.368 260.612 284.368C263.516 284.368 265.64 285.448 266.984 287.608C268.328 289.744 269 293.008 269 297.4C269 301.72 268.268 304.972 266.804 307.156C265.364 309.34 263.228 310.432 260.396 310.432C258.932 310.432 257.684 310.144 256.652 309.568C255.62 308.968 254.78 308.116 254.132 307.012C253.484 305.884 253.004 304.516 252.692 302.908C252.404 301.3 252.26 299.464 252.26 297.4ZM255.716 297.4C255.716 299.128 255.8 300.7 255.968 302.116C256.136 303.532 256.4 304.756 256.76 305.788C257.144 306.796 257.624 307.576 258.2 308.128C258.8 308.68 259.52 308.956 260.36 308.956C262.256 308.956 263.588 308.02 264.356 306.148C265.148 304.276 265.544 301.36 265.544 297.4C265.544 295.672 265.472 294.1 265.328 292.684C265.184 291.268 264.92 290.056 264.536 289.048C264.152 288.04 263.636 287.26 262.988 286.708C262.364 286.156 261.572 285.88 260.612 285.88C258.812 285.88 257.54 286.816 256.796 288.688C256.076 290.536 255.716 293.44 255.716 297.4ZM280.923 300.352L286.611 308.236C286.947 308.356 287.271 308.488 287.583 308.632C287.919 308.752 288.231 308.908 288.519 309.1V310H281.139V309.136C281.475 308.944 281.787 308.776 282.075 308.632C282.363 308.464 282.651 308.332 282.939 308.236L278.943 302.332L274.911 308.236C275.247 308.356 275.559 308.488 275.847 308.632C276.135 308.776 276.423 308.932 276.711 309.1V310H270.555V309.1C271.227 308.692 271.899 308.404 272.571 308.236L277.935 301.072L272.535 293.8C272.199 293.68 271.887 293.56 271.599 293.44C271.335 293.296 271.059 293.128 270.771 292.936V292H278.007V292.9C277.719 293.092 277.431 293.272 277.143 293.44C276.879 293.584 276.579 293.704 276.243 293.8L279.987 299.2L283.659 293.8C282.843 293.536 282.243 293.248 281.859 292.936V292H287.871V292.936C287.415 293.248 286.743 293.536 285.855 293.8L280.923 300.352Z" fill="#001322"/>
    <rect x="183.5" y="0.5" width="149" height="151" fill="white" stroke="#302C2C"/>
    <path d="M258 151C299.421 151 333 117.421 333 76C333 34.5786 299.421 1 258 1C216.579 1 183 34.5786 183 76C183 117.421 216.579 151 258 151Z" fill="#302C2C"/>
    <path d="M255.656 127.562L251.859 127.141C245.043 126.34 238.458 124.172 232.5 120.766C232.406 120.766 232.359 120.672 232.172 120.531L263.156 97.375L266.297 100.422L271.453 105.484C271.922 105.953 272.203 105.953 272.672 105.672C277.83 103.1 282.237 99.2413 285.469 94.4688L285.937 93.7188L286.359 94.1875L297.14 108.531C297.469 108.953 297.422 109.188 297.14 109.562C288.703 119.078 278.39 124.938 265.828 126.906C264.234 127.188 262.64 127.281 261.047 127.422L260.437 127.562H255.656ZM260.203 24.4375L262.828 24.7187C270.187 25.4219 277.125 27.5781 283.547 31.2812C283.64 31.2812 283.734 31.375 283.875 31.5156L252.375 54.0625L251.156 52.9375C248.953 50.7812 246.703 48.625 244.547 46.4219C244.172 46.0937 243.89 46.0469 243.469 46.2812C238.225 48.8655 233.749 52.7761 230.484 57.625L230.015 58.3281L218.437 42.9531C219.609 41.6875 220.687 40.4688 221.859 39.3438C229.246 32.0049 238.7 27.0984 248.953 25.2812C250.969 24.9062 253.031 24.8125 255.047 24.5781C255.328 24.5781 255.515 24.4844 255.75 24.4375H260.156H260.203ZM213.281 50.3594L236.719 81.0625L231.937 85.9375L228.422 89.5469C228.094 89.875 228.047 90.1094 228.281 90.5312C230.862 95.777 234.773 100.254 239.625 103.516L240.094 103.844L240.234 104.078L224.953 115.562C215.957 108.062 209.803 97.7056 207.515 86.2188C204.937 73.6094 207.047 61.7031 213.281 50.3594ZM279.703 70.8438L284.015 66.3906L287.625 62.6406C288 62.3125 288 61.9844 287.765 61.5625C285.164 56.2495 281.202 51.7207 276.281 48.4375L275.672 47.9688L291.047 36.4375C300.287 44.1782 306.52 54.9142 308.661 66.7765C310.803 78.6389 308.716 90.8766 302.765 101.359L279.703 70.8906V70.8438Z" fill="white"/>
    <g clip-path="url(#clip0)">
        <g filter="url(#filter0_d)">
            <mask id="path-7-inside-1" fill="white">
                <path d="M91.7141 111.241C90.9953 111.456 90.8516 111.582 90.8516 111.942C90.8516 112.265 90.7258 112.391 90.3125 112.481C89.7914 112.589 89.5578 112.93 90.0071 112.93C90.1149 112.93 90.0789 113.02 89.9172 113.128C89.7375 113.217 89.5938 113.397 89.5938 113.523C89.5938 113.667 89.3063 113.721 88.7313 113.685C87.9586 113.631 87.7969 113.685 87.3117 114.17C86.7367 114.745 86.3594 115.859 86.3594 117.009C86.3594 117.386 86.1977 118.303 86 119.039C85.8024 119.776 85.6406 120.405 85.6406 120.441C85.6406 120.477 85.7485 120.441 85.8742 120.369C85.9821 120.279 85.8742 120.513 85.6227 120.854C84.5625 122.274 84.3649 122.597 83.9516 123.729C83.3406 125.364 82.8914 128.617 82.9813 130.629L83.0711 132.246L77.7344 137.547C74.8055 140.458 69.936 145.471 66.9352 148.688C63.9344 151.904 60.8617 155.157 60.125 155.929L58.7774 157.331L57.7352 157.061C57.1781 156.917 56.5313 156.666 56.3156 156.522C55.8664 156.199 54.8063 156.145 54.6445 156.414C54.5906 156.504 54.2313 156.594 53.8539 156.594C53.3688 156.594 53.0633 156.72 52.7578 157.043C52.2188 157.618 52.3445 158.265 53.2789 159.613C53.6563 160.17 54.0336 160.817 54.1055 161.05C54.2313 161.464 54.2133 161.464 53.7102 161.212C53.4406 161.068 53.0453 160.781 52.8656 160.565C52.5781 160.242 51.0867 159.649 50.5836 159.649C50.5117 159.649 50.0625 159.972 49.6133 160.367C49.1641 160.763 48.643 161.086 48.4633 161.086C48.068 161.086 47.6367 161.553 47.457 162.164C47.3852 162.416 47.0797 162.991 46.7922 163.458C46.4148 164.051 46.2891 164.428 46.3789 164.698C46.4508 164.932 46.3789 165.309 46.1992 165.65C45.6422 166.674 46.0195 167.627 47.2773 168.525C47.6188 168.777 47.6008 168.813 46.6484 169.837C46.1094 170.412 45.4625 171.005 45.2109 171.167C44.5102 171.616 43.6477 172.532 42.875 173.646C42.282 174.527 40.4852 176.18 40.1258 176.18C39.9641 176.18 38.257 177.384 37.718 177.869C37.4844 178.067 37.3047 178.354 37.3047 178.516C37.3047 178.678 37.143 178.965 36.9453 179.145C36.2445 179.774 36.6578 181.175 37.6281 181.481C37.9516 181.571 38.1672 181.463 38.6523 180.924C38.9938 180.546 39.2813 180.169 39.2813 180.097C39.2813 180.025 39.5867 179.953 39.9641 179.953C40.7367 179.953 41.0781 179.738 43.0008 178.013C43.8453 177.258 44.3125 176.719 44.3664 176.36C44.4383 176.018 44.6719 175.731 45.0313 175.551C45.3188 175.407 45.732 174.958 45.9297 174.563C46.1273 174.167 46.6844 173.557 47.1695 173.215C47.6367 172.874 48.1039 172.407 48.2117 172.173C48.3195 171.957 48.8227 171.292 49.3438 170.735C50.2602 169.729 50.2961 169.711 51.2125 169.747C51.7156 169.765 53.3508 169.747 54.8242 169.729C57.4836 169.675 57.5555 169.675 59.7656 170.34C62.3531 171.113 63.9164 171.221 65.0664 170.717C65.7492 170.412 65.9289 170.412 68.8938 170.717C71.8406 171.023 72.1281 171.023 74.1945 170.735C75.3985 170.556 76.5844 170.376 76.818 170.304L77.2492 170.196L76.782 170.807C75.9016 171.975 75.5781 172.928 75.5781 174.473C75.5781 176.971 76.0813 178.498 77.5008 180.259C77.8242 180.672 78.0938 181.085 78.0938 181.175C78.0938 181.355 77.0156 184.356 75.9735 187.033C75.7219 187.716 75.2188 188.614 74.8594 189.046C74.518 189.459 73.961 190.285 73.6195 190.86C72.9906 191.921 71.4453 193.52 70.8883 193.699C70.7266 193.753 70.457 194.077 70.2774 194.4C70.0977 194.724 69.7203 195.137 69.4328 195.317C69.1274 195.496 68.8758 195.82 68.8039 196.125C68.75 196.413 68.6063 196.682 68.4625 196.736C68.3188 196.79 68.2109 196.934 68.2109 197.042C68.2109 197.347 69.1274 197.06 69.6125 196.61L70.0438 196.215L69.7203 196.934C69.5406 197.329 69.0914 198.048 68.7141 198.533C67.7797 199.737 67.5461 200.564 67.8156 201.821L68.0313 202.828L67.1149 203.87C66.0547 205.092 65.8211 205.954 66.3063 206.924C66.468 207.248 66.5758 207.517 66.5578 207.535C66.5219 207.553 66.1805 207.679 65.7852 207.841C63.8984 208.596 62.9641 209.027 62.6766 209.278C62.1375 209.764 61.5445 209.997 60.4484 210.141C59.7656 210.249 59.2086 210.428 58.975 210.662C58.6695 210.949 58.5258 210.985 58.3641 210.824C58.2024 210.662 57.807 210.77 56.657 211.291C55.8484 211.668 54.8602 212.135 54.4649 212.315C54.0516 212.495 53.5664 212.836 53.3508 213.088C53.1352 213.339 52.6141 213.627 52.1828 213.735C51.2484 213.986 50.5656 214.346 50.35 214.687C50.0984 215.082 50.3859 215.855 50.8891 216.178C51.3203 216.466 51.3742 216.448 52.632 215.819C53.3508 215.478 54.3391 215.046 54.8242 214.903C55.3274 214.741 56.082 214.417 56.5313 214.202C56.9805 213.968 57.7711 213.645 58.2742 213.465C58.7953 213.303 59.2625 213.088 59.3164 212.998C59.3883 212.908 59.5859 212.836 59.7836 212.836C60.2328 212.836 61.6164 212.225 62.4609 211.65C62.8024 211.417 63.2695 211.219 63.4852 211.219C63.7188 211.219 64.5633 210.949 65.3719 210.608C67.8695 209.584 68.175 209.512 68.5703 209.871C68.8399 210.123 69.1453 210.159 70.1336 210.087C70.7985 210.033 71.5531 209.943 71.8047 209.907C72.0563 209.871 72.5055 209.817 72.811 209.817C73.0985 209.799 73.5117 209.638 73.7094 209.458C74.3742 208.883 75.2367 208.524 75.686 208.632C75.9555 208.703 76.2969 208.632 76.6024 208.434C76.9438 208.2 77.1055 208.164 77.1594 208.326C77.4289 209.135 78.525 209.332 78.7047 208.596C78.8125 208.218 78.8664 208.164 79.0821 208.344C79.2617 208.488 79.6211 208.524 80.0524 208.452C80.4477 208.398 80.8969 208.398 81.0766 208.47C81.4 208.596 81.0586 208.703 77.8242 209.512C76.5125 209.835 75.3086 210.321 73.4219 211.273C70.0258 212.998 66.8992 214.22 62.9102 215.352C61.1313 215.855 57.8609 217.005 55.6328 217.903C53.4047 218.802 50.3859 219.97 48.8945 220.509C43.5039 222.485 39.9461 224.534 37.6641 226.978C35.5078 229.296 34.8789 230.913 34.8789 234.219C34.8969 236.142 34.9508 236.645 35.3281 237.633C36.1188 239.807 37.4844 241.604 39.1016 242.628C39.6406 242.988 41.0781 243.976 42.2641 244.821L44.4563 246.384L43.9352 246.689C43.5219 246.941 43.45 247.067 43.5758 247.318C43.8273 247.785 45.0672 248.882 47.2055 250.517C49.9547 252.655 52.3266 255.26 54.7344 258.836C55.3094 259.681 56.3516 260.974 57.0524 261.711C58.9031 263.652 60.7719 266.311 61.4906 268.018C61.8141 268.827 62.425 269.887 62.8203 270.354C63.4313 271.091 63.5391 271.342 63.593 272.205C63.6289 272.816 63.7727 273.337 63.9524 273.535C64.2399 273.858 64.2399 273.912 63.6109 274.559C62.8024 275.421 61.4188 276.32 58.8852 277.614C57.0703 278.548 56.8367 278.62 56.3695 278.44C55.9742 278.26 55.7406 278.296 55.0578 278.584C53.9258 279.069 50.2781 280.129 48.607 280.471C47.8523 280.632 47.0977 280.812 46.9359 280.866C46.4508 281.064 46.0734 281.944 46.2172 282.645C46.307 283.13 46.2531 283.292 46.0375 283.382C45.4266 283.615 45.732 284.118 46.7922 284.585C49.1641 285.628 51.6617 286.149 54.2313 286.149C56.675 286.149 58.2922 285.933 63.2695 284.981C66.2344 284.424 68.0852 284.172 69.8281 284.082C74.0328 283.885 77.0695 283.346 78.6688 282.537C79.4055 282.16 79.5672 281.621 79.0641 281.333C78.8125 281.189 78.7945 281.046 78.9922 280.147C79.2078 279.051 79.1719 278.62 78.5789 276.769C78.2555 275.709 78.2375 275.493 78.4531 275.098C78.7047 274.613 78.6149 273.93 77.968 271.864C77.4649 270.246 77.375 270.067 76.7641 269.384C76.4227 269.007 76.0274 268.324 75.8477 267.857C75.65 267.317 75.2008 266.689 74.6078 266.114C74.0867 265.61 73.35 264.64 72.9727 263.957C72.5953 263.257 71.9125 262.196 71.4813 261.567C71.05 260.957 70.457 259.86 70.1875 259.142C69.918 258.423 69.4149 257.381 69.0735 256.824C68.732 256.267 68.3008 255.207 68.1211 254.488C67.9594 253.769 67.5281 252.637 67.2047 251.954C66.8633 251.289 66.2344 249.69 65.7852 248.396C65.1563 246.51 65.0125 245.881 65.0844 245.216C65.1742 244.443 65.1024 244.282 64.3117 243.114C63.8266 242.431 63.2875 241.838 63.0899 241.784C62.8922 241.748 62.6227 241.568 62.4969 241.389C62.3711 241.209 62.1734 241.101 62.0477 241.155C61.9219 241.191 61.5086 240.903 61.1133 240.508C60.682 240.077 60.2508 239.789 59.9813 239.789C59.7656 239.789 59.2984 239.574 58.957 239.304L58.3461 238.819L60.9875 238.154C62.4609 237.795 64.6891 237.076 66.0547 236.501C69.2711 235.189 74.4461 233.932 78.0039 233.608C79.9625 233.428 80.7172 233.285 81.3461 232.979L82.1727 232.566L86.1078 232.997C92.2172 233.68 94.1039 233.428 99.5485 231.182C101.884 230.212 102.657 229.96 102.909 230.104C103.088 230.194 103.789 230.769 104.454 231.362C105.622 232.422 107.994 234.057 109.216 234.686C109.539 234.848 109.97 235.117 110.168 235.297C110.366 235.477 111.462 235.98 112.594 236.411C113.744 236.86 115.109 237.471 115.648 237.777C116.188 238.082 117.32 238.675 118.164 239.089C119.727 239.861 121.237 240.832 123.914 242.754C124.759 243.365 126.286 244.443 127.328 245.18C128.37 245.917 129.916 247.031 130.778 247.678L132.323 248.846L130.365 250.912C126.232 255.314 118.667 262.268 113.043 266.814C111.965 267.695 110.743 268.719 110.348 269.078C108.928 270.39 101.417 275.924 97.2664 278.728C94.625 280.489 93.9063 281.064 93.9063 281.351C93.9063 281.603 96.1883 281.387 99.4766 280.848C101.579 280.489 102.891 280.363 104.867 280.363C107.293 280.363 107.545 280.399 108.551 280.83C109.144 281.099 109.916 281.585 110.258 281.908C112.145 283.687 113.277 284.046 116.098 283.813C117.194 283.723 119.656 283.399 121.578 283.094C125.298 282.483 128.622 282.285 130.113 282.555C130.616 282.663 131.964 283.148 133.114 283.633C134.264 284.136 135.396 284.532 135.63 284.532C135.863 284.532 136.295 284.603 136.6 284.693C137.139 284.837 141.793 284.514 142.422 284.28C142.566 284.226 143.213 284.1 143.859 284.01C144.506 283.903 145.71 283.705 146.537 283.561C147.381 283.399 148.873 283.202 149.879 283.094C152.035 282.878 153.581 283.112 155.413 283.974C158.073 285.214 158.324 285.286 159.654 285.376C160.66 285.448 161.199 285.394 161.684 285.196C162.062 285.035 162.403 284.981 162.457 285.071C162.547 285.214 163.751 285.017 164.541 284.693C164.793 284.603 165.314 284.478 165.709 284.442C166.087 284.406 167.183 284.19 168.117 283.992C170.435 283.453 172.538 283.382 173.598 283.759C174.047 283.939 174.406 284.136 174.406 284.208C174.406 284.28 174.514 284.352 174.658 284.352C174.784 284.352 174.999 284.46 175.107 284.603C175.215 284.729 175.484 284.801 175.718 284.765C175.97 284.711 176.239 284.801 176.365 284.963C176.634 285.286 177.731 285.358 177.91 285.053C177.982 284.945 178.162 284.909 178.324 284.981C178.503 285.053 178.737 284.927 178.934 284.675C179.186 284.352 179.294 284.316 179.42 284.496C179.545 284.693 179.707 284.693 180.264 284.532C180.659 284.424 181.54 284.172 182.223 283.992C182.923 283.813 184.361 283.382 185.421 283.004C187.182 282.411 189.662 281.962 190.129 282.142C190.237 282.178 190.578 282.555 190.902 282.986C191.225 283.417 191.764 283.974 192.106 284.19C192.447 284.424 192.824 284.855 192.95 285.142C193.22 285.789 194.424 286.562 195.951 287.065C197.478 287.568 197.82 287.892 198.502 289.545C198.808 290.299 199.149 291 199.239 291.126C199.329 291.252 199.365 291.503 199.311 291.683C199.239 291.881 199.275 292.222 199.365 292.474C199.527 292.905 199.563 292.905 201.395 292.869C203.354 292.833 204.36 292.671 207.109 291.953C210.38 291.072 210.613 291 211.063 290.659C211.638 290.246 211.745 289.509 211.278 289.167C211.081 289.042 210.883 288.61 210.793 288.179C210.613 287.119 210.056 286.364 208.763 285.466C208.134 285.017 207.648 284.657 207.684 284.621C207.774 284.549 211.997 284.855 212.428 284.963C212.931 285.089 213.039 285.682 213.039 288.215C213.039 291.18 213.524 292.114 214.333 290.731C215.124 289.365 215.213 288.377 215.016 282.645C214.764 274.757 214.315 271.594 212.77 267.12C210.524 260.597 206.66 256.303 200.084 252.978C199.149 252.529 197.065 251.631 195.43 250.984C189.033 248.504 187.739 247.965 186.212 247.21C181.881 245.054 178.557 242.197 176.023 238.46C174.766 236.573 174.281 235.746 171.837 231.164C168.495 224.893 166.859 222.216 163.948 218.263C163.266 217.346 162.565 216.196 162.367 215.711C161.828 214.328 160.588 211.938 159.852 210.86C159.492 210.321 158.953 209.422 158.684 208.883C157.965 207.446 156.905 205.792 155.467 203.852C154.048 201.929 153.886 201.48 152.934 197.203C152.574 195.568 151.766 192.657 151.137 190.735C150.508 188.812 149.663 186.135 149.25 184.805C148.388 182.02 147.04 179.612 145.333 177.761C145.081 177.492 144.902 177.24 144.956 177.186C144.991 177.15 147.094 176.252 149.609 175.192C152.125 174.132 155.198 172.82 156.438 172.281C158.773 171.239 160.93 170.035 160.606 169.927C160.157 169.783 158.037 170.574 151.46 173.377C147.597 175.012 144.381 176.36 144.309 176.36C144.255 176.36 143.374 175.731 142.35 174.958C141.326 174.203 139.781 173.071 138.9 172.46C136.744 170.951 134.498 169.136 130.76 165.884C129.035 164.374 126.807 162.47 125.783 161.625C124.489 160.529 123.573 159.559 122.62 158.301C121.884 157.313 120.985 156.235 120.608 155.929C120.248 155.606 119.458 154.761 118.883 154.06C117.481 152.389 115.846 150.988 112.738 148.796C111.282 147.771 108.982 146.891 107.347 146.765C105.712 146.621 105.478 146.37 105.55 144.771C105.586 144.052 105.46 142.848 105.245 141.788C105.029 140.817 104.867 139.883 104.885 139.721C104.903 139.326 105.568 141.464 105.604 142.039C105.64 142.435 105.64 142.435 105.712 142.111C105.748 141.896 105.658 141.177 105.496 140.512C105.263 139.434 105.245 138.949 105.478 139.182C105.658 139.362 106.125 142.129 106.143 143.153C106.161 143.782 106.233 144.519 106.305 144.824L106.43 145.364L106.538 144.735C106.826 143.099 106.862 140.817 106.592 139.524C106.341 138.176 106.089 135.786 106.251 136.289C106.305 136.433 106.466 136.828 106.628 137.17C106.79 137.511 106.97 138.068 107.041 138.428L107.167 139.074L107.185 138.248C107.185 137.781 107.077 137.062 106.934 136.649C106.646 135.822 106.574 135.014 106.844 135.66C106.97 135.948 107.006 135.912 107.006 135.391C107.006 134.618 105.909 131.725 105.694 131.923C105.604 131.995 105.586 131.977 105.64 131.869C105.694 131.761 105.676 130.827 105.604 129.803C105.46 128.042 105.388 127.808 104.454 125.867C103.825 124.556 103.286 123.1 102.98 121.914C101.866 117.404 101.184 115.374 100.357 114.134C99.8539 113.361 99.3867 113.074 97.8953 112.642C97.7696 112.607 97.7156 112.481 97.7875 112.373C97.8594 112.247 97.8414 112.211 97.7156 112.283C97.6258 112.337 97.5 112.301 97.4641 112.193C97.3922 111.996 96.6735 111.834 94.4813 111.564C93.9242 111.492 93.475 111.331 93.4211 111.205C93.3133 110.899 92.7922 110.899 91.7141 111.241ZM97.4102 112.571C97.5899 112.768 97.6617 112.93 97.5539 112.93C97.4641 112.93 97.2305 112.768 97.0508 112.571C96.8711 112.373 96.7992 112.211 96.9071 112.211C96.9969 112.211 97.2305 112.373 97.4102 112.571ZM99.6922 113.774C100.177 114.296 101.166 116.146 101.04 116.272C101.004 116.326 100.734 116.057 100.447 115.679C100.159 115.302 99.7102 114.817 99.4586 114.601C99.1532 114.331 98.9914 114.026 99.0094 113.739C99.0274 113.164 99.1172 113.182 99.6922 113.774ZM88.9469 113.99C89.0188 114.08 88.893 114.116 88.6953 114.062C88.2821 113.954 88.2281 113.828 88.5875 113.828C88.7313 113.828 88.893 113.9 88.9469 113.99ZM88.7672 114.296C89.2164 114.475 89.1086 114.889 88.5696 115.104C88.2821 115.212 87.8867 115.464 87.6711 115.661L87.2578 116.039V115.517C87.2578 114.942 87.8149 114.188 88.2461 114.188C88.3719 114.188 88.6055 114.242 88.7672 114.296ZM86.8446 115.841C86.7906 115.985 86.7367 115.931 86.7367 115.733C86.7188 115.535 86.7727 115.428 86.8266 115.499C86.8805 115.553 86.8985 115.715 86.8446 115.841ZM86.6649 116.739C86.611 116.865 86.575 116.775 86.575 116.524C86.575 116.272 86.611 116.182 86.6649 116.29C86.7008 116.416 86.7008 116.632 86.6649 116.739ZM100.195 117.26C100.195 117.512 100.105 117.458 99.6383 116.955L99.2071 116.47L99.7102 116.793C99.9797 116.955 100.195 117.171 100.195 117.26ZM89.0547 116.937C89.0547 117.242 88.1922 118.069 88.0485 117.907C87.8149 117.692 88.3719 116.703 88.7133 116.703C88.911 116.703 89.0547 116.811 89.0547 116.937ZM101.363 117.638C101.795 118.734 102.172 119.992 102.082 120.081C102.046 120.135 101.92 119.938 101.795 119.65C101.525 118.949 100.986 117.584 100.824 117.189C100.752 117.027 100.77 116.883 100.878 116.883C100.968 116.883 101.202 117.224 101.363 117.638ZM100.285 118.249C100.483 118.357 100.824 118.914 101.04 119.507C101.579 120.98 101.543 121.088 100.86 119.938C100.537 119.381 100.141 118.734 99.9797 118.5C99.8 118.267 99.6563 117.979 99.6563 117.871C99.6563 117.746 99.7102 117.746 99.8 117.871C99.8719 117.961 100.088 118.141 100.285 118.249ZM88.6953 118.105C88.6953 118.177 88.5336 118.339 88.318 118.464C87.9766 118.68 87.9766 118.662 88.1563 118.321C88.336 117.979 88.6953 117.817 88.6953 118.105ZM86.6649 119.255C86.6289 119.489 86.593 119.309 86.593 118.86C86.593 118.41 86.6289 118.231 86.6649 118.446C86.7008 118.68 86.7008 119.039 86.6649 119.255ZM102.244 122.633C102.298 123.118 102.298 123.334 102.19 123.172C102.118 123.028 101.992 122.543 101.938 122.094C101.884 121.645 101.902 121.411 101.974 121.555C102.064 121.699 102.172 122.184 102.244 122.633ZM103.376 124.664C103.861 126.029 103.897 126.245 103.591 125.867C103.142 125.31 102.909 124.735 102.729 123.747C102.495 122.507 102.765 122.885 103.376 124.664ZM103.843 127.97C103.915 128.293 103.897 128.563 103.807 128.563C103.609 128.563 103.43 127.916 103.448 127.215C103.448 126.766 103.484 126.73 103.591 127.035C103.663 127.233 103.789 127.664 103.843 127.97ZM105.352 132.552C105.298 132.696 105.245 132.642 105.245 132.444C105.227 132.246 105.28 132.139 105.334 132.21C105.388 132.264 105.406 132.426 105.352 132.552ZM106.197 133.774C106.359 134.313 106.413 134.672 106.341 134.582C106.197 134.403 105.766 133.073 105.766 132.785C105.766 132.48 105.927 132.821 106.197 133.774ZM105.64 134.403L105.748 134.942L105.496 134.403C105.352 134.097 105.245 133.666 105.245 133.414L105.263 132.965L105.388 133.414C105.46 133.666 105.586 134.097 105.64 134.403ZM104.993 134.708C104.939 134.852 104.885 134.798 104.885 134.6C104.867 134.403 104.921 134.295 104.975 134.367C105.029 134.421 105.047 134.582 104.993 134.708ZM83.3227 138.176C83.4664 139.757 83.6102 140.656 83.6641 140.332C83.8078 139.596 83.9696 140.063 84.1492 141.644C84.2391 142.56 84.293 142.74 84.4008 142.399C84.4727 142.111 84.5266 142.453 84.5446 143.333C84.5625 144.142 84.6344 144.735 84.7422 144.735C84.85 144.735 84.9219 144.627 84.9399 144.501C84.9578 144.393 85.0297 144.483 85.1196 144.735C85.2274 145.058 85.2453 144.914 85.1735 144.232C85.1196 143.657 85.1555 143.297 85.2813 143.297C85.3711 143.297 85.4789 143.513 85.4789 143.782C85.4969 144.232 85.5149 144.214 85.6227 143.657C85.7485 143.046 85.7485 143.046 86.036 144.196C86.2875 145.202 86.3235 145.274 86.3594 144.735L86.3953 144.106L86.6469 144.824L86.8985 145.543L86.7906 144.735C86.593 143.261 86.4313 141.68 86.4852 141.68C86.6289 141.68 87.4375 143.692 87.6172 144.429C87.725 144.914 87.9586 145.597 88.1383 145.956C88.318 146.334 88.6414 147.268 88.875 148.059C89.4141 149.999 89.4141 149.999 89.3063 148.778L89.1985 147.699L89.8094 148.831C90.3125 149.82 90.4203 149.91 90.5102 149.55C90.6 149.155 90.6 149.155 90.7078 149.496C90.7617 149.694 90.8696 149.982 90.9235 150.143C91.0133 150.359 90.8516 150.557 90.2586 150.898C89.8274 151.149 89.0727 151.706 88.5875 152.138C88.1024 152.569 87.4914 153.018 87.2219 153.126C86.5211 153.449 85.3352 154.564 84.886 155.354C84.6703 155.732 84.275 156.127 83.9696 156.253C83.682 156.378 83.0172 156.792 82.5141 157.169C82.011 157.546 81.3102 157.942 80.9508 158.032C80.5914 158.139 79.9985 158.499 79.6391 158.84C79.2617 159.182 78.8305 159.469 78.6508 159.469C78.4891 159.469 77.5008 159.757 76.4766 160.116C74.8774 160.673 74.4102 160.763 73.4219 160.709C71.625 160.601 68.4266 160.691 67.0789 160.889C66.1266 161.032 65.7672 161.014 65.3719 160.799C64.725 160.475 64.0602 160.475 62.7484 160.853C61.9578 161.068 61.6524 161.104 61.5984 160.942C61.5625 160.817 61.3469 160.727 61.1133 160.727C60.7539 160.727 60.6461 160.583 60.4844 159.99C60.3047 159.361 60.3227 159.199 60.6102 158.876C61.0234 158.391 70.4031 148.346 74.4102 144.106C78.7586 139.488 83.0172 135.175 83.0531 135.337C83.0711 135.409 83.1969 136.685 83.3227 138.176ZM105.173 135.786C105.119 135.93 105.065 135.876 105.065 135.678C105.047 135.481 105.101 135.373 105.155 135.445C105.209 135.499 105.227 135.66 105.173 135.786ZM105.352 136.505C105.298 136.649 105.245 136.595 105.245 136.397C105.227 136.199 105.28 136.092 105.334 136.164C105.388 136.217 105.406 136.379 105.352 136.505ZM85.6406 139.703C85.7485 139.901 85.7844 140.063 85.7485 140.063C85.6945 140.063 85.5688 139.901 85.461 139.703C85.3531 139.506 85.3172 139.344 85.3531 139.344C85.4071 139.344 85.5328 139.506 85.6406 139.703ZM86.1258 140.997C86.0719 141.141 86.018 141.087 86.018 140.889C86 140.692 86.0539 140.584 86.1078 140.656C86.1617 140.71 86.1797 140.871 86.1258 140.997ZM87.9227 144.591C87.8688 144.735 87.8149 144.681 87.8149 144.483C87.7969 144.285 87.8508 144.178 87.9047 144.249C87.9586 144.303 87.9766 144.465 87.9227 144.591ZM54.7344 168.849C54.7344 169.172 54.1774 169.208 53.9258 168.885C53.7102 168.579 53.7281 168.525 53.9797 168.435C54.3031 168.31 54.7344 168.561 54.7344 168.849ZM110.24 180.726C111.138 182.541 112.558 185.057 113.384 186.314L114.894 188.614L114.157 188.92C110.366 190.519 106.988 191.831 106.898 191.741C106.826 191.669 106.664 190.393 106.538 188.884C106.341 186.746 106.341 185.757 106.502 184.266C106.808 181.409 108.012 177.438 108.569 177.438C108.587 177.438 109.341 178.929 110.24 180.726ZM116.331 190.249C117.481 191.579 119.35 193.106 121.219 194.239C122.153 194.796 123.357 195.568 123.914 195.946C125.639 197.114 128.73 198.982 129.988 199.611C130.652 199.935 132.737 200.797 134.606 201.516C142.081 204.373 145.638 206.116 149.843 208.937C152.305 210.59 152.161 210.213 151.586 213.914C150.436 221.353 147.795 228.146 143.374 234.938L142.296 236.591L138.972 233.303C136.546 230.877 135.037 229.188 133.33 226.96C128.999 221.299 128.298 220.419 126.52 218.317C125.423 217.023 124.525 216.142 124.166 215.981C123.824 215.837 123.447 215.496 123.267 215.136C122.908 214.435 120.087 211.524 118.757 210.482C117.661 209.62 117.086 208.793 117.086 208.039C117.086 207.266 115.9 205.541 114.067 203.618C111.947 201.39 111.516 200.851 111.516 200.348C111.516 200.007 111.372 199.881 110.851 199.737C110.473 199.629 110.078 199.539 109.952 199.539C109.683 199.539 108.389 197.653 107.814 196.431C107.401 195.514 106.754 193.089 106.898 192.963C106.97 192.891 115.541 189.351 115.577 189.369C115.595 189.387 115.936 189.764 116.331 190.249ZM82.7836 199.09C82.8375 201.049 82.6399 201.983 82.2086 201.839C82.1008 201.803 81.8852 201.372 81.7055 200.851C81.3102 199.665 80.8789 199.036 80.232 198.677C79.5672 198.282 79.657 197.976 80.807 196.664C81.2742 196.125 81.8492 195.317 82.0828 194.867L82.4961 194.059L82.6219 195.586C82.6938 196.431 82.7656 197.994 82.7836 199.09ZM69.0735 199.18C68.9656 199.485 68.9297 199.953 68.9656 200.222C69.0195 200.492 69.0016 200.905 68.9297 201.157C68.8219 201.552 68.7859 201.498 68.6781 200.779C68.5703 200.204 68.6242 199.773 68.8219 199.306C69.1453 198.497 69.343 198.425 69.0735 199.18ZM76.836 206.044C76.836 206.17 76.5844 206.296 76.2969 206.314C75.7219 206.349 75.5602 206.08 76.0813 205.954C76.6563 205.81 76.836 205.828 76.836 206.044ZM82.6219 208.11C82.5141 208.29 82.2086 208.452 81.9211 208.47L81.418 208.506L82.011 208.218C82.3164 208.057 82.586 207.841 82.586 207.751C82.586 207.643 82.6399 207.607 82.6938 207.661C82.7477 207.733 82.7117 207.931 82.6219 208.11Z"/>
            </mask>
            <path d="M91.7141 111.241C90.9953 111.456 90.8516 111.582 90.8516 111.942C90.8516 112.265 90.7258 112.391 90.3125 112.481C89.7914 112.589 89.5578 112.93 90.0071 112.93C90.1149 112.93 90.0789 113.02 89.9172 113.128C89.7375 113.217 89.5938 113.397 89.5938 113.523C89.5938 113.667 89.3063 113.721 88.7313 113.685C87.9586 113.631 87.7969 113.685 87.3117 114.17C86.7367 114.745 86.3594 115.859 86.3594 117.009C86.3594 117.386 86.1977 118.303 86 119.039C85.8024 119.776 85.6406 120.405 85.6406 120.441C85.6406 120.477 85.7485 120.441 85.8742 120.369C85.9821 120.279 85.8742 120.513 85.6227 120.854C84.5625 122.274 84.3649 122.597 83.9516 123.729C83.3406 125.364 82.8914 128.617 82.9813 130.629L83.0711 132.246L77.7344 137.547C74.8055 140.458 69.936 145.471 66.9352 148.688C63.9344 151.904 60.8617 155.157 60.125 155.929L58.7774 157.331L57.7352 157.061C57.1781 156.917 56.5313 156.666 56.3156 156.522C55.8664 156.199 54.8063 156.145 54.6445 156.414C54.5906 156.504 54.2313 156.594 53.8539 156.594C53.3688 156.594 53.0633 156.72 52.7578 157.043C52.2188 157.618 52.3445 158.265 53.2789 159.613C53.6563 160.17 54.0336 160.817 54.1055 161.05C54.2313 161.464 54.2133 161.464 53.7102 161.212C53.4406 161.068 53.0453 160.781 52.8656 160.565C52.5781 160.242 51.0867 159.649 50.5836 159.649C50.5117 159.649 50.0625 159.972 49.6133 160.367C49.1641 160.763 48.643 161.086 48.4633 161.086C48.068 161.086 47.6367 161.553 47.457 162.164C47.3852 162.416 47.0797 162.991 46.7922 163.458C46.4148 164.051 46.2891 164.428 46.3789 164.698C46.4508 164.932 46.3789 165.309 46.1992 165.65C45.6422 166.674 46.0195 167.627 47.2773 168.525C47.6188 168.777 47.6008 168.813 46.6484 169.837C46.1094 170.412 45.4625 171.005 45.2109 171.167C44.5102 171.616 43.6477 172.532 42.875 173.646C42.282 174.527 40.4852 176.18 40.1258 176.18C39.9641 176.18 38.257 177.384 37.718 177.869C37.4844 178.067 37.3047 178.354 37.3047 178.516C37.3047 178.678 37.143 178.965 36.9453 179.145C36.2445 179.774 36.6578 181.175 37.6281 181.481C37.9516 181.571 38.1672 181.463 38.6523 180.924C38.9938 180.546 39.2813 180.169 39.2813 180.097C39.2813 180.025 39.5867 179.953 39.9641 179.953C40.7367 179.953 41.0781 179.738 43.0008 178.013C43.8453 177.258 44.3125 176.719 44.3664 176.36C44.4383 176.018 44.6719 175.731 45.0313 175.551C45.3188 175.407 45.732 174.958 45.9297 174.563C46.1273 174.167 46.6844 173.557 47.1695 173.215C47.6367 172.874 48.1039 172.407 48.2117 172.173C48.3195 171.957 48.8227 171.292 49.3438 170.735C50.2602 169.729 50.2961 169.711 51.2125 169.747C51.7156 169.765 53.3508 169.747 54.8242 169.729C57.4836 169.675 57.5555 169.675 59.7656 170.34C62.3531 171.113 63.9164 171.221 65.0664 170.717C65.7492 170.412 65.9289 170.412 68.8938 170.717C71.8406 171.023 72.1281 171.023 74.1945 170.735C75.3985 170.556 76.5844 170.376 76.818 170.304L77.2492 170.196L76.782 170.807C75.9016 171.975 75.5781 172.928 75.5781 174.473C75.5781 176.971 76.0813 178.498 77.5008 180.259C77.8242 180.672 78.0938 181.085 78.0938 181.175C78.0938 181.355 77.0156 184.356 75.9735 187.033C75.7219 187.716 75.2188 188.614 74.8594 189.046C74.518 189.459 73.961 190.285 73.6195 190.86C72.9906 191.921 71.4453 193.52 70.8883 193.699C70.7266 193.753 70.457 194.077 70.2774 194.4C70.0977 194.724 69.7203 195.137 69.4328 195.317C69.1274 195.496 68.8758 195.82 68.8039 196.125C68.75 196.413 68.6063 196.682 68.4625 196.736C68.3188 196.79 68.2109 196.934 68.2109 197.042C68.2109 197.347 69.1274 197.06 69.6125 196.61L70.0438 196.215L69.7203 196.934C69.5406 197.329 69.0914 198.048 68.7141 198.533C67.7797 199.737 67.5461 200.564 67.8156 201.821L68.0313 202.828L67.1149 203.87C66.0547 205.092 65.8211 205.954 66.3063 206.924C66.468 207.248 66.5758 207.517 66.5578 207.535C66.5219 207.553 66.1805 207.679 65.7852 207.841C63.8984 208.596 62.9641 209.027 62.6766 209.278C62.1375 209.764 61.5445 209.997 60.4484 210.141C59.7656 210.249 59.2086 210.428 58.975 210.662C58.6695 210.949 58.5258 210.985 58.3641 210.824C58.2024 210.662 57.807 210.77 56.657 211.291C55.8484 211.668 54.8602 212.135 54.4649 212.315C54.0516 212.495 53.5664 212.836 53.3508 213.088C53.1352 213.339 52.6141 213.627 52.1828 213.735C51.2484 213.986 50.5656 214.346 50.35 214.687C50.0984 215.082 50.3859 215.855 50.8891 216.178C51.3203 216.466 51.3742 216.448 52.632 215.819C53.3508 215.478 54.3391 215.046 54.8242 214.903C55.3274 214.741 56.082 214.417 56.5313 214.202C56.9805 213.968 57.7711 213.645 58.2742 213.465C58.7953 213.303 59.2625 213.088 59.3164 212.998C59.3883 212.908 59.5859 212.836 59.7836 212.836C60.2328 212.836 61.6164 212.225 62.4609 211.65C62.8024 211.417 63.2695 211.219 63.4852 211.219C63.7188 211.219 64.5633 210.949 65.3719 210.608C67.8695 209.584 68.175 209.512 68.5703 209.871C68.8399 210.123 69.1453 210.159 70.1336 210.087C70.7985 210.033 71.5531 209.943 71.8047 209.907C72.0563 209.871 72.5055 209.817 72.811 209.817C73.0985 209.799 73.5117 209.638 73.7094 209.458C74.3742 208.883 75.2367 208.524 75.686 208.632C75.9555 208.703 76.2969 208.632 76.6024 208.434C76.9438 208.2 77.1055 208.164 77.1594 208.326C77.4289 209.135 78.525 209.332 78.7047 208.596C78.8125 208.218 78.8664 208.164 79.0821 208.344C79.2617 208.488 79.6211 208.524 80.0524 208.452C80.4477 208.398 80.8969 208.398 81.0766 208.47C81.4 208.596 81.0586 208.703 77.8242 209.512C76.5125 209.835 75.3086 210.321 73.4219 211.273C70.0258 212.998 66.8992 214.22 62.9102 215.352C61.1313 215.855 57.8609 217.005 55.6328 217.903C53.4047 218.802 50.3859 219.97 48.8945 220.509C43.5039 222.485 39.9461 224.534 37.6641 226.978C35.5078 229.296 34.8789 230.913 34.8789 234.219C34.8969 236.142 34.9508 236.645 35.3281 237.633C36.1188 239.807 37.4844 241.604 39.1016 242.628C39.6406 242.988 41.0781 243.976 42.2641 244.821L44.4563 246.384L43.9352 246.689C43.5219 246.941 43.45 247.067 43.5758 247.318C43.8273 247.785 45.0672 248.882 47.2055 250.517C49.9547 252.655 52.3266 255.26 54.7344 258.836C55.3094 259.681 56.3516 260.974 57.0524 261.711C58.9031 263.652 60.7719 266.311 61.4906 268.018C61.8141 268.827 62.425 269.887 62.8203 270.354C63.4313 271.091 63.5391 271.342 63.593 272.205C63.6289 272.816 63.7727 273.337 63.9524 273.535C64.2399 273.858 64.2399 273.912 63.6109 274.559C62.8024 275.421 61.4188 276.32 58.8852 277.614C57.0703 278.548 56.8367 278.62 56.3695 278.44C55.9742 278.26 55.7406 278.296 55.0578 278.584C53.9258 279.069 50.2781 280.129 48.607 280.471C47.8523 280.632 47.0977 280.812 46.9359 280.866C46.4508 281.064 46.0734 281.944 46.2172 282.645C46.307 283.13 46.2531 283.292 46.0375 283.382C45.4266 283.615 45.732 284.118 46.7922 284.585C49.1641 285.628 51.6617 286.149 54.2313 286.149C56.675 286.149 58.2922 285.933 63.2695 284.981C66.2344 284.424 68.0852 284.172 69.8281 284.082C74.0328 283.885 77.0695 283.346 78.6688 282.537C79.4055 282.16 79.5672 281.621 79.0641 281.333C78.8125 281.189 78.7945 281.046 78.9922 280.147C79.2078 279.051 79.1719 278.62 78.5789 276.769C78.2555 275.709 78.2375 275.493 78.4531 275.098C78.7047 274.613 78.6149 273.93 77.968 271.864C77.4649 270.246 77.375 270.067 76.7641 269.384C76.4227 269.007 76.0274 268.324 75.8477 267.857C75.65 267.317 75.2008 266.689 74.6078 266.114C74.0867 265.61 73.35 264.64 72.9727 263.957C72.5953 263.257 71.9125 262.196 71.4813 261.567C71.05 260.957 70.457 259.86 70.1875 259.142C69.918 258.423 69.4149 257.381 69.0735 256.824C68.732 256.267 68.3008 255.207 68.1211 254.488C67.9594 253.769 67.5281 252.637 67.2047 251.954C66.8633 251.289 66.2344 249.69 65.7852 248.396C65.1563 246.51 65.0125 245.881 65.0844 245.216C65.1742 244.443 65.1024 244.282 64.3117 243.114C63.8266 242.431 63.2875 241.838 63.0899 241.784C62.8922 241.748 62.6227 241.568 62.4969 241.389C62.3711 241.209 62.1734 241.101 62.0477 241.155C61.9219 241.191 61.5086 240.903 61.1133 240.508C60.682 240.077 60.2508 239.789 59.9813 239.789C59.7656 239.789 59.2984 239.574 58.957 239.304L58.3461 238.819L60.9875 238.154C62.4609 237.795 64.6891 237.076 66.0547 236.501C69.2711 235.189 74.4461 233.932 78.0039 233.608C79.9625 233.428 80.7172 233.285 81.3461 232.979L82.1727 232.566L86.1078 232.997C92.2172 233.68 94.1039 233.428 99.5485 231.182C101.884 230.212 102.657 229.96 102.909 230.104C103.088 230.194 103.789 230.769 104.454 231.362C105.622 232.422 107.994 234.057 109.216 234.686C109.539 234.848 109.97 235.117 110.168 235.297C110.366 235.477 111.462 235.98 112.594 236.411C113.744 236.86 115.109 237.471 115.648 237.777C116.188 238.082 117.32 238.675 118.164 239.089C119.727 239.861 121.237 240.832 123.914 242.754C124.759 243.365 126.286 244.443 127.328 245.18C128.37 245.917 129.916 247.031 130.778 247.678L132.323 248.846L130.365 250.912C126.232 255.314 118.667 262.268 113.043 266.814C111.965 267.695 110.743 268.719 110.348 269.078C108.928 270.39 101.417 275.924 97.2664 278.728C94.625 280.489 93.9063 281.064 93.9063 281.351C93.9063 281.603 96.1883 281.387 99.4766 280.848C101.579 280.489 102.891 280.363 104.867 280.363C107.293 280.363 107.545 280.399 108.551 280.83C109.144 281.099 109.916 281.585 110.258 281.908C112.145 283.687 113.277 284.046 116.098 283.813C117.194 283.723 119.656 283.399 121.578 283.094C125.298 282.483 128.622 282.285 130.113 282.555C130.616 282.663 131.964 283.148 133.114 283.633C134.264 284.136 135.396 284.532 135.63 284.532C135.863 284.532 136.295 284.603 136.6 284.693C137.139 284.837 141.793 284.514 142.422 284.28C142.566 284.226 143.213 284.1 143.859 284.01C144.506 283.903 145.71 283.705 146.537 283.561C147.381 283.399 148.873 283.202 149.879 283.094C152.035 282.878 153.581 283.112 155.413 283.974C158.073 285.214 158.324 285.286 159.654 285.376C160.66 285.448 161.199 285.394 161.684 285.196C162.062 285.035 162.403 284.981 162.457 285.071C162.547 285.214 163.751 285.017 164.541 284.693C164.793 284.603 165.314 284.478 165.709 284.442C166.087 284.406 167.183 284.19 168.117 283.992C170.435 283.453 172.538 283.382 173.598 283.759C174.047 283.939 174.406 284.136 174.406 284.208C174.406 284.28 174.514 284.352 174.658 284.352C174.784 284.352 174.999 284.46 175.107 284.603C175.215 284.729 175.484 284.801 175.718 284.765C175.97 284.711 176.239 284.801 176.365 284.963C176.634 285.286 177.731 285.358 177.91 285.053C177.982 284.945 178.162 284.909 178.324 284.981C178.503 285.053 178.737 284.927 178.934 284.675C179.186 284.352 179.294 284.316 179.42 284.496C179.545 284.693 179.707 284.693 180.264 284.532C180.659 284.424 181.54 284.172 182.223 283.992C182.923 283.813 184.361 283.382 185.421 283.004C187.182 282.411 189.662 281.962 190.129 282.142C190.237 282.178 190.578 282.555 190.902 282.986C191.225 283.417 191.764 283.974 192.106 284.19C192.447 284.424 192.824 284.855 192.95 285.142C193.22 285.789 194.424 286.562 195.951 287.065C197.478 287.568 197.82 287.892 198.502 289.545C198.808 290.299 199.149 291 199.239 291.126C199.329 291.252 199.365 291.503 199.311 291.683C199.239 291.881 199.275 292.222 199.365 292.474C199.527 292.905 199.563 292.905 201.395 292.869C203.354 292.833 204.36 292.671 207.109 291.953C210.38 291.072 210.613 291 211.063 290.659C211.638 290.246 211.745 289.509 211.278 289.167C211.081 289.042 210.883 288.61 210.793 288.179C210.613 287.119 210.056 286.364 208.763 285.466C208.134 285.017 207.648 284.657 207.684 284.621C207.774 284.549 211.997 284.855 212.428 284.963C212.931 285.089 213.039 285.682 213.039 288.215C213.039 291.18 213.524 292.114 214.333 290.731C215.124 289.365 215.213 288.377 215.016 282.645C214.764 274.757 214.315 271.594 212.77 267.12C210.524 260.597 206.66 256.303 200.084 252.978C199.149 252.529 197.065 251.631 195.43 250.984C189.033 248.504 187.739 247.965 186.212 247.21C181.881 245.054 178.557 242.197 176.023 238.46C174.766 236.573 174.281 235.746 171.837 231.164C168.495 224.893 166.859 222.216 163.948 218.263C163.266 217.346 162.565 216.196 162.367 215.711C161.828 214.328 160.588 211.938 159.852 210.86C159.492 210.321 158.953 209.422 158.684 208.883C157.965 207.446 156.905 205.792 155.467 203.852C154.048 201.929 153.886 201.48 152.934 197.203C152.574 195.568 151.766 192.657 151.137 190.735C150.508 188.812 149.663 186.135 149.25 184.805C148.388 182.02 147.04 179.612 145.333 177.761C145.081 177.492 144.902 177.24 144.956 177.186C144.991 177.15 147.094 176.252 149.609 175.192C152.125 174.132 155.198 172.82 156.438 172.281C158.773 171.239 160.93 170.035 160.606 169.927C160.157 169.783 158.037 170.574 151.46 173.377C147.597 175.012 144.381 176.36 144.309 176.36C144.255 176.36 143.374 175.731 142.35 174.958C141.326 174.203 139.781 173.071 138.9 172.46C136.744 170.951 134.498 169.136 130.76 165.884C129.035 164.374 126.807 162.47 125.783 161.625C124.489 160.529 123.573 159.559 122.62 158.301C121.884 157.313 120.985 156.235 120.608 155.929C120.248 155.606 119.458 154.761 118.883 154.06C117.481 152.389 115.846 150.988 112.738 148.796C111.282 147.771 108.982 146.891 107.347 146.765C105.712 146.621 105.478 146.37 105.55 144.771C105.586 144.052 105.46 142.848 105.245 141.788C105.029 140.817 104.867 139.883 104.885 139.721C104.903 139.326 105.568 141.464 105.604 142.039C105.64 142.435 105.64 142.435 105.712 142.111C105.748 141.896 105.658 141.177 105.496 140.512C105.263 139.434 105.245 138.949 105.478 139.182C105.658 139.362 106.125 142.129 106.143 143.153C106.161 143.782 106.233 144.519 106.305 144.824L106.43 145.364L106.538 144.735C106.826 143.099 106.862 140.817 106.592 139.524C106.341 138.176 106.089 135.786 106.251 136.289C106.305 136.433 106.466 136.828 106.628 137.17C106.79 137.511 106.97 138.068 107.041 138.428L107.167 139.074L107.185 138.248C107.185 137.781 107.077 137.062 106.934 136.649C106.646 135.822 106.574 135.014 106.844 135.66C106.97 135.948 107.006 135.912 107.006 135.391C107.006 134.618 105.909 131.725 105.694 131.923C105.604 131.995 105.586 131.977 105.64 131.869C105.694 131.761 105.676 130.827 105.604 129.803C105.46 128.042 105.388 127.808 104.454 125.867C103.825 124.556 103.286 123.1 102.98 121.914C101.866 117.404 101.184 115.374 100.357 114.134C99.8539 113.361 99.3867 113.074 97.8953 112.642C97.7696 112.607 97.7156 112.481 97.7875 112.373C97.8594 112.247 97.8414 112.211 97.7156 112.283C97.6258 112.337 97.5 112.301 97.4641 112.193C97.3922 111.996 96.6735 111.834 94.4813 111.564C93.9242 111.492 93.475 111.331 93.4211 111.205C93.3133 110.899 92.7922 110.899 91.7141 111.241ZM97.4102 112.571C97.5899 112.768 97.6617 112.93 97.5539 112.93C97.4641 112.93 97.2305 112.768 97.0508 112.571C96.8711 112.373 96.7992 112.211 96.9071 112.211C96.9969 112.211 97.2305 112.373 97.4102 112.571ZM99.6922 113.774C100.177 114.296 101.166 116.146 101.04 116.272C101.004 116.326 100.734 116.057 100.447 115.679C100.159 115.302 99.7102 114.817 99.4586 114.601C99.1532 114.331 98.9914 114.026 99.0094 113.739C99.0274 113.164 99.1172 113.182 99.6922 113.774ZM88.9469 113.99C89.0188 114.08 88.893 114.116 88.6953 114.062C88.2821 113.954 88.2281 113.828 88.5875 113.828C88.7313 113.828 88.893 113.9 88.9469 113.99ZM88.7672 114.296C89.2164 114.475 89.1086 114.889 88.5696 115.104C88.2821 115.212 87.8867 115.464 87.6711 115.661L87.2578 116.039V115.517C87.2578 114.942 87.8149 114.188 88.2461 114.188C88.3719 114.188 88.6055 114.242 88.7672 114.296ZM86.8446 115.841C86.7906 115.985 86.7367 115.931 86.7367 115.733C86.7188 115.535 86.7727 115.428 86.8266 115.499C86.8805 115.553 86.8985 115.715 86.8446 115.841ZM86.6649 116.739C86.611 116.865 86.575 116.775 86.575 116.524C86.575 116.272 86.611 116.182 86.6649 116.29C86.7008 116.416 86.7008 116.632 86.6649 116.739ZM100.195 117.26C100.195 117.512 100.105 117.458 99.6383 116.955L99.2071 116.47L99.7102 116.793C99.9797 116.955 100.195 117.171 100.195 117.26ZM89.0547 116.937C89.0547 117.242 88.1922 118.069 88.0485 117.907C87.8149 117.692 88.3719 116.703 88.7133 116.703C88.911 116.703 89.0547 116.811 89.0547 116.937ZM101.363 117.638C101.795 118.734 102.172 119.992 102.082 120.081C102.046 120.135 101.92 119.938 101.795 119.65C101.525 118.949 100.986 117.584 100.824 117.189C100.752 117.027 100.77 116.883 100.878 116.883C100.968 116.883 101.202 117.224 101.363 117.638ZM100.285 118.249C100.483 118.357 100.824 118.914 101.04 119.507C101.579 120.98 101.543 121.088 100.86 119.938C100.537 119.381 100.141 118.734 99.9797 118.5C99.8 118.267 99.6563 117.979 99.6563 117.871C99.6563 117.746 99.7102 117.746 99.8 117.871C99.8719 117.961 100.088 118.141 100.285 118.249ZM88.6953 118.105C88.6953 118.177 88.5336 118.339 88.318 118.464C87.9766 118.68 87.9766 118.662 88.1563 118.321C88.336 117.979 88.6953 117.817 88.6953 118.105ZM86.6649 119.255C86.6289 119.489 86.593 119.309 86.593 118.86C86.593 118.41 86.6289 118.231 86.6649 118.446C86.7008 118.68 86.7008 119.039 86.6649 119.255ZM102.244 122.633C102.298 123.118 102.298 123.334 102.19 123.172C102.118 123.028 101.992 122.543 101.938 122.094C101.884 121.645 101.902 121.411 101.974 121.555C102.064 121.699 102.172 122.184 102.244 122.633ZM103.376 124.664C103.861 126.029 103.897 126.245 103.591 125.867C103.142 125.31 102.909 124.735 102.729 123.747C102.495 122.507 102.765 122.885 103.376 124.664ZM103.843 127.97C103.915 128.293 103.897 128.563 103.807 128.563C103.609 128.563 103.43 127.916 103.448 127.215C103.448 126.766 103.484 126.73 103.591 127.035C103.663 127.233 103.789 127.664 103.843 127.97ZM105.352 132.552C105.298 132.696 105.245 132.642 105.245 132.444C105.227 132.246 105.28 132.139 105.334 132.21C105.388 132.264 105.406 132.426 105.352 132.552ZM106.197 133.774C106.359 134.313 106.413 134.672 106.341 134.582C106.197 134.403 105.766 133.073 105.766 132.785C105.766 132.48 105.927 132.821 106.197 133.774ZM105.64 134.403L105.748 134.942L105.496 134.403C105.352 134.097 105.245 133.666 105.245 133.414L105.263 132.965L105.388 133.414C105.46 133.666 105.586 134.097 105.64 134.403ZM104.993 134.708C104.939 134.852 104.885 134.798 104.885 134.6C104.867 134.403 104.921 134.295 104.975 134.367C105.029 134.421 105.047 134.582 104.993 134.708ZM83.3227 138.176C83.4664 139.757 83.6102 140.656 83.6641 140.332C83.8078 139.596 83.9696 140.063 84.1492 141.644C84.2391 142.56 84.293 142.74 84.4008 142.399C84.4727 142.111 84.5266 142.453 84.5446 143.333C84.5625 144.142 84.6344 144.735 84.7422 144.735C84.85 144.735 84.9219 144.627 84.9399 144.501C84.9578 144.393 85.0297 144.483 85.1196 144.735C85.2274 145.058 85.2453 144.914 85.1735 144.232C85.1196 143.657 85.1555 143.297 85.2813 143.297C85.3711 143.297 85.4789 143.513 85.4789 143.782C85.4969 144.232 85.5149 144.214 85.6227 143.657C85.7485 143.046 85.7485 143.046 86.036 144.196C86.2875 145.202 86.3235 145.274 86.3594 144.735L86.3953 144.106L86.6469 144.824L86.8985 145.543L86.7906 144.735C86.593 143.261 86.4313 141.68 86.4852 141.68C86.6289 141.68 87.4375 143.692 87.6172 144.429C87.725 144.914 87.9586 145.597 88.1383 145.956C88.318 146.334 88.6414 147.268 88.875 148.059C89.4141 149.999 89.4141 149.999 89.3063 148.778L89.1985 147.699L89.8094 148.831C90.3125 149.82 90.4203 149.91 90.5102 149.55C90.6 149.155 90.6 149.155 90.7078 149.496C90.7617 149.694 90.8696 149.982 90.9235 150.143C91.0133 150.359 90.8516 150.557 90.2586 150.898C89.8274 151.149 89.0727 151.706 88.5875 152.138C88.1024 152.569 87.4914 153.018 87.2219 153.126C86.5211 153.449 85.3352 154.564 84.886 155.354C84.6703 155.732 84.275 156.127 83.9696 156.253C83.682 156.378 83.0172 156.792 82.5141 157.169C82.011 157.546 81.3102 157.942 80.9508 158.032C80.5914 158.139 79.9985 158.499 79.6391 158.84C79.2617 159.182 78.8305 159.469 78.6508 159.469C78.4891 159.469 77.5008 159.757 76.4766 160.116C74.8774 160.673 74.4102 160.763 73.4219 160.709C71.625 160.601 68.4266 160.691 67.0789 160.889C66.1266 161.032 65.7672 161.014 65.3719 160.799C64.725 160.475 64.0602 160.475 62.7484 160.853C61.9578 161.068 61.6524 161.104 61.5984 160.942C61.5625 160.817 61.3469 160.727 61.1133 160.727C60.7539 160.727 60.6461 160.583 60.4844 159.99C60.3047 159.361 60.3227 159.199 60.6102 158.876C61.0234 158.391 70.4031 148.346 74.4102 144.106C78.7586 139.488 83.0172 135.175 83.0531 135.337C83.0711 135.409 83.1969 136.685 83.3227 138.176ZM105.173 135.786C105.119 135.93 105.065 135.876 105.065 135.678C105.047 135.481 105.101 135.373 105.155 135.445C105.209 135.499 105.227 135.66 105.173 135.786ZM105.352 136.505C105.298 136.649 105.245 136.595 105.245 136.397C105.227 136.199 105.28 136.092 105.334 136.164C105.388 136.217 105.406 136.379 105.352 136.505ZM85.6406 139.703C85.7485 139.901 85.7844 140.063 85.7485 140.063C85.6945 140.063 85.5688 139.901 85.461 139.703C85.3531 139.506 85.3172 139.344 85.3531 139.344C85.4071 139.344 85.5328 139.506 85.6406 139.703ZM86.1258 140.997C86.0719 141.141 86.018 141.087 86.018 140.889C86 140.692 86.0539 140.584 86.1078 140.656C86.1617 140.71 86.1797 140.871 86.1258 140.997ZM87.9227 144.591C87.8688 144.735 87.8149 144.681 87.8149 144.483C87.7969 144.285 87.8508 144.178 87.9047 144.249C87.9586 144.303 87.9766 144.465 87.9227 144.591ZM54.7344 168.849C54.7344 169.172 54.1774 169.208 53.9258 168.885C53.7102 168.579 53.7281 168.525 53.9797 168.435C54.3031 168.31 54.7344 168.561 54.7344 168.849ZM110.24 180.726C111.138 182.541 112.558 185.057 113.384 186.314L114.894 188.614L114.157 188.92C110.366 190.519 106.988 191.831 106.898 191.741C106.826 191.669 106.664 190.393 106.538 188.884C106.341 186.746 106.341 185.757 106.502 184.266C106.808 181.409 108.012 177.438 108.569 177.438C108.587 177.438 109.341 178.929 110.24 180.726ZM116.331 190.249C117.481 191.579 119.35 193.106 121.219 194.239C122.153 194.796 123.357 195.568 123.914 195.946C125.639 197.114 128.73 198.982 129.988 199.611C130.652 199.935 132.737 200.797 134.606 201.516C142.081 204.373 145.638 206.116 149.843 208.937C152.305 210.59 152.161 210.213 151.586 213.914C150.436 221.353 147.795 228.146 143.374 234.938L142.296 236.591L138.972 233.303C136.546 230.877 135.037 229.188 133.33 226.96C128.999 221.299 128.298 220.419 126.52 218.317C125.423 217.023 124.525 216.142 124.166 215.981C123.824 215.837 123.447 215.496 123.267 215.136C122.908 214.435 120.087 211.524 118.757 210.482C117.661 209.62 117.086 208.793 117.086 208.039C117.086 207.266 115.9 205.541 114.067 203.618C111.947 201.39 111.516 200.851 111.516 200.348C111.516 200.007 111.372 199.881 110.851 199.737C110.473 199.629 110.078 199.539 109.952 199.539C109.683 199.539 108.389 197.653 107.814 196.431C107.401 195.514 106.754 193.089 106.898 192.963C106.97 192.891 115.541 189.351 115.577 189.369C115.595 189.387 115.936 189.764 116.331 190.249ZM82.7836 199.09C82.8375 201.049 82.6399 201.983 82.2086 201.839C82.1008 201.803 81.8852 201.372 81.7055 200.851C81.3102 199.665 80.8789 199.036 80.232 198.677C79.5672 198.282 79.657 197.976 80.807 196.664C81.2742 196.125 81.8492 195.317 82.0828 194.867L82.4961 194.059L82.6219 195.586C82.6938 196.431 82.7656 197.994 82.7836 199.09ZM69.0735 199.18C68.9656 199.485 68.9297 199.953 68.9656 200.222C69.0195 200.492 69.0016 200.905 68.9297 201.157C68.8219 201.552 68.7859 201.498 68.6781 200.779C68.5703 200.204 68.6242 199.773 68.8219 199.306C69.1453 198.497 69.343 198.425 69.0735 199.18ZM76.836 206.044C76.836 206.17 76.5844 206.296 76.2969 206.314C75.7219 206.349 75.5602 206.08 76.0813 205.954C76.6563 205.81 76.836 205.828 76.836 206.044ZM82.6219 208.11C82.5141 208.29 82.2086 208.452 81.9211 208.47L81.418 208.506L82.011 208.218C82.3164 208.057 82.586 207.841 82.586 207.751C82.586 207.643 82.6399 207.607 82.6938 207.661C82.7477 207.733 82.7117 207.931 82.6219 208.11Z" fill="black" stroke="white" stroke-width="2" mask="url(#path-7-inside-1)"/>
            <path d="M87.0541 145.908C87.0636 145.815 87.0435 145.725 87.0059 145.687C86.9707 145.64 86.9355 145.67 86.9204 145.751C86.9189 145.759 86.9176 145.768 86.9165 145.777C86.9117 145.816 86.911 145.865 86.9161 145.921C86.9161 145.944 86.9168 145.964 86.9182 145.983C86.9183 145.985 86.9185 145.987 86.9186 145.989C86.9298 146.129 86.9769 146.154 87.0239 146.029C87.0386 145.994 87.0479 145.957 87.0527 145.921C87.0532 145.917 87.0537 145.912 87.0541 145.908Z" fill="black" stroke="white"/>
        </g>
    </g>
    <defs>
        <filter id="filter0_d" x="34.8789" y="100.98" width="200.226" height="201.903" filterUnits="userSpaceOnUse" color-interpolation-filters="sRGB">
            <feFlood flood-opacity="0" result="BackgroundImageFix"/>
            <feColorMatrix in="SourceAlpha" type="matrix" values="0 0 0 0 0 0 0 0 0 0 0 0 0 0 0 0 0 0 127 0"/>
            <feOffset dx="10"/>
            <feGaussianBlur stdDeviation="5"/>
            <feColorMatrix type="matrix" values="0 0 0 0 0.445833 0 0 0 0 0.445833 0 0 0 0 0.445833 0 0 0 1 0"/>
            <feBlend mode="normal" in2="BackgroundImageFix" result="effect1_dropShadow"/>
            <feBlend mode="normal" in="SourceGraphic" in2="effect1_dropShadow" result="shape"/>
        </filter>
        <clipPath id="clip0">
            <rect x="7" y="107" width="230" height="191.547" fill="white"/>
        </clipPath>
    </defs>
</svg>
