<svg width="338" height="322" viewBox="0 0 338 322" fill="none" xmlns="http://www.w3.org/2000/svg">
    <rect x="0.5" y="22.5" width="299" height="299" fill="white" stroke="#0096DC"/>
    <rect x="188.5" y="0.5" width="149" height="151" fill="white" stroke="#0096DC"/>
    <path d="M208.656 289.744C208.152 289.672 207.648 289.564 207.144 289.42C206.64 289.252 206.112 289.06 205.56 288.844V287.8H213.624V288.844C212.808 289.204 211.944 289.504 211.032 289.744L205.02 313L202.788 313.432L196.992 293.848L191.304 313L189.108 313.432L182.736 289.744C182.256 289.624 181.788 289.492 181.332 289.348C180.876 289.204 180.432 289.036 180 288.844V287.8H189.36V288.844C188.904 289.012 188.436 289.18 187.956 289.348C187.476 289.492 186.96 289.624 186.408 289.744L189.972 304.252L190.764 308.932H190.836L192.096 304.18L196.956 287.8H198.18L203.4 304.18L204.444 308.86H204.516L205.344 304.108L208.656 289.744ZM218.332 313H210.34V311.956C211.204 311.572 212.068 311.284 212.932 311.092L222.04 287.368H223.084L232.192 311.092C232.672 311.188 233.14 311.296 233.596 311.416C234.076 311.536 234.52 311.716 234.928 311.956V313H225.712V311.956C226.192 311.764 226.684 311.596 227.188 311.452C227.692 311.308 228.184 311.188 228.664 311.092L226.216 304.504H217.612L215.236 311.092C216.244 311.236 217.276 311.524 218.332 311.956V313ZM218.332 302.632H225.604L222.76 295L222.076 291.904H222.004L221.104 295.072L218.332 302.632ZM250.843 289.744C250.267 289.624 249.727 289.492 249.223 289.348C248.719 289.18 248.227 289.012 247.747 288.844V287.8H255.847V288.844C255.151 289.228 254.287 289.528 253.255 289.744L245.119 313L243.139 313.432L233.959 289.744C233.479 289.624 233.011 289.492 232.555 289.348C232.099 289.18 231.655 289.012 231.223 288.844V287.8H240.763V288.844C240.355 289.012 239.899 289.18 239.395 289.348C238.891 289.492 238.363 289.624 237.811 289.744L243.967 306.196L244.723 309.076H244.795L245.515 306.124L250.843 289.744ZM273.94 287.8C273.916 288.76 273.868 289.732 273.796 290.716C273.748 291.676 273.664 292.648 273.544 293.632H272.608L271.132 289.672H263.284V299.212H269.152L270.556 296.548H271.456C271.6 298.924 271.6 301.348 271.456 303.82H270.556L269.152 301.084H263.284V311.128H271.564L273.328 306.808H274.228C274.396 307.816 274.516 308.836 274.588 309.868C274.66 310.9 274.672 311.944 274.624 313H256.876V311.956C257.716 311.572 258.7 311.284 259.828 311.092V289.744C259.348 289.648 258.856 289.528 258.352 289.384C257.848 289.216 257.356 289.036 256.876 288.844V287.8H273.94ZM282.185 310.516C282.473 310.804 282.845 311.056 283.301 311.272C283.757 311.464 284.441 311.56 285.353 311.56C286.121 311.56 286.841 311.464 287.513 311.272C288.185 311.056 288.761 310.756 289.241 310.372C289.745 309.964 290.141 309.484 290.429 308.932C290.717 308.356 290.861 307.708 290.861 306.988C290.861 306.028 290.561 305.224 289.961 304.576C289.385 303.928 288.653 303.352 287.765 302.848C286.901 302.344 285.953 301.852 284.921 301.372C283.889 300.892 282.929 300.328 282.041 299.68C281.177 299.008 280.445 298.216 279.845 297.304C279.269 296.368 278.981 295.204 278.981 293.812C278.981 292.804 279.161 291.904 279.521 291.112C279.881 290.32 280.385 289.648 281.033 289.096C281.705 288.544 282.497 288.124 283.409 287.836C284.321 287.524 285.341 287.368 286.469 287.368C287.933 287.368 289.265 287.488 290.465 287.728C291.689 287.944 292.649 288.22 293.345 288.556C293.345 288.964 293.309 289.444 293.237 289.996C293.189 290.524 293.117 291.076 293.021 291.652C292.949 292.228 292.865 292.792 292.769 293.344C292.673 293.872 292.577 294.34 292.481 294.748H291.545L290.105 289.816C289.673 289.624 289.121 289.48 288.449 289.384C287.801 289.288 287.105 289.24 286.361 289.24C285.137 289.24 284.153 289.588 283.409 290.284C282.665 290.956 282.293 291.904 282.293 293.128C282.293 294.112 282.581 294.94 283.157 295.612C283.757 296.284 284.501 296.884 285.389 297.412C286.277 297.94 287.225 298.456 288.233 298.96C289.265 299.44 290.225 300.004 291.113 300.652C292.001 301.3 292.733 302.068 293.309 302.956C293.909 303.844 294.209 304.948 294.209 306.268C294.209 307.348 294.005 308.332 293.597 309.22C293.213 310.108 292.649 310.864 291.905 311.488C291.161 312.112 290.249 312.592 289.169 312.928C288.089 313.264 286.865 313.432 285.497 313.432C283.985 313.432 282.629 313.252 281.429 312.892C280.229 312.532 279.377 312.148 278.873 311.74C278.897 311.332 278.933 310.84 278.981 310.264C279.053 309.688 279.125 309.1 279.197 308.5C279.293 307.876 279.389 307.276 279.485 306.7C279.581 306.124 279.677 305.632 279.773 305.224H280.709L282.185 310.516Z" fill="#001322"/>
    <path d="M263 151C304.421 151 338 117.421 338 76C338 34.5786 304.421 1 263 1C221.579 1 188 34.5786 188 76C188 117.421 221.579 151 263 151Z" fill="#0096DC"/>
    <path d="M293.563 55.4687L270.313 32.125C269.355 31.1612 268.215 30.3964 266.96 29.8745C265.705 29.3526 264.36 29.084 263.001 29.084C261.641 29.084 260.296 29.3526 259.041 29.8745C257.786 30.3964 256.646 31.1612 255.688 32.125L232.532 55.4218C231.891 56.0711 231.531 56.9468 231.531 57.8593C231.531 58.7718 231.891 59.6476 232.532 60.2968L239.563 67.3281L244.251 71.6875C244.919 72.3102 245.798 72.6565 246.711 72.6565C247.625 72.6565 248.504 72.3102 249.172 71.6875L258.547 63.0156C261.126 60.625 265.11 60.625 267.641 63.0156L277.016 71.6875C277.684 72.3102 278.564 72.6565 279.477 72.6565C280.39 72.6565 281.27 72.3102 281.938 71.6875L286.626 67.3281L293.61 60.2968C294.237 59.6497 294.588 58.7839 294.588 57.8828C294.588 56.9816 294.237 56.1158 293.61 55.4687H293.563Z" fill="white"/>
    <path opacity="0.7" d="M219.266 83.3133L255.687 119.876C256.646 120.84 257.785 121.604 259.04 122.126C260.295 122.648 261.641 122.917 263 122.917C264.359 122.917 265.705 122.648 266.96 122.126C268.215 121.604 269.354 120.84 270.312 119.876L306.734 83.3133C313.062 76.9851 308.609 75.1101 303.969 70.7039L298.25 65.2664C297.59 64.6468 296.718 64.302 295.812 64.302C294.907 64.302 294.035 64.6468 293.375 65.2664L284 73.9851C281.422 76.3289 277.437 76.3289 274.859 73.9851L265.484 65.2664C264.819 64.657 263.949 64.319 263.047 64.319C262.144 64.319 261.275 64.657 260.609 65.2664L251.234 73.9851C248.656 76.3289 244.672 76.3289 242.141 73.9851L232.766 65.2664C232.097 64.6436 231.218 64.2974 230.305 64.2974C229.391 64.2974 228.512 64.6436 227.844 65.2664L222.594 70.1414C217.766 74.6414 212.656 76.7039 219.312 83.3133H219.266Z" fill="white"/>
    <g clip-path="url(#clip0)">
        <g filter="url(#filter0_d)">
            <path d="M65.6599 47.2816C65.7228 49.9233 65.9115 53.2779 66.0793 54.7246C66.2889 56.5696 76.3527 108.713 77.6317 114.604C77.8204 115.485 77.1495 115.296 75.8705 114.122C75.1577 113.493 74.298 112.55 73.9416 112.046C72.6836 110.201 72.3272 110.998 72.7465 114.73C72.9143 116.156 73.0191 117.812 72.9562 118.42C72.8723 119.427 72.9352 119.573 73.4804 120.097C73.8158 120.412 74.4238 121.313 74.8012 122.131C75.4931 123.578 77.5898 125.947 79.0784 126.974L79.6654 127.394L78.659 129.344C78.0929 130.413 77.464 131.587 77.2753 131.922C77.0866 132.279 76.8559 133.097 76.793 133.746C76.6672 134.983 76.3947 136.262 76.0173 137.604C75.8076 138.254 75.8286 138.506 76.1011 138.967C76.3318 139.386 76.4576 140.414 76.5414 142.783C76.6253 144.565 76.814 147.018 77.0027 148.213C77.1914 149.408 77.3172 150.876 77.2753 151.442L77.2124 152.469L75.2206 153.287C74.1303 153.748 72.7885 154.251 72.2434 154.44C71.6773 154.608 71.1741 154.88 71.0902 155.027C70.9854 155.153 70.3774 155.447 69.6855 155.656C69.0145 155.866 67.505 156.516 66.3309 157.103C63.5633 158.529 61.0474 160.877 60.3555 162.764C59.5588 164.965 59.9152 166.768 61.4248 168.047C62.4311 168.907 63.1859 169.158 66.0373 169.641C69.371 170.186 70.4193 170.647 71.4886 172.01C71.9498 172.597 72.432 173.079 72.5578 173.079C72.9143 173.079 73.3755 171.297 73.2707 170.291C73.061 168.299 71.1321 166.663 67.5679 165.447C66.4147 165.049 65.4293 164.693 65.3874 164.672C65.2196 164.525 66.3518 163.707 67.6937 163.036C69.8742 161.904 71.0063 161.653 74.6545 161.548C77.9462 161.464 77.9462 161.464 77.9462 161.925C77.9462 162.638 78.659 164.986 79.288 166.286C79.5815 166.936 79.8331 167.544 79.8331 167.649C79.8331 167.754 80.1476 168.299 80.525 168.865C81.2589 169.955 81.2589 170.102 80.6928 172.786C80.6089 173.205 80.5879 173.708 80.6718 173.918C80.7347 174.128 80.6299 175.155 80.3992 176.203C79.917 178.53 79.288 179.642 77.0866 182.074C76.164 183.08 75.4302 183.919 75.4302 183.961C75.4302 183.982 75.0528 185.47 74.5916 187.252C72.474 195.492 71.6144 198.092 70.3774 200.147C69.1823 202.138 68.113 204.843 67.2534 208.072C66.4567 211.007 66.4567 211.615 67.1485 211.93C67.4421 212.076 67.8195 212.181 67.9662 212.181C68.134 212.181 68.5743 212.538 68.9936 212.999C69.8322 213.942 70.1677 215.221 69.7484 215.997C69.329 216.773 67.484 221.993 65.7648 227.235C65.031 229.457 65.7857 229.29 67.1276 226.9C69.7484 222.329 72.5788 217.612 73.2288 216.689C73.6481 216.123 74.319 215.075 74.7174 214.383C75.0948 213.691 75.6609 212.831 75.9544 212.496L76.4995 211.867L76.3947 213.439C76.1221 216.857 75.9963 220.736 76.1221 221.239C76.3318 222.014 76.6882 222.077 78.4074 221.637C79.2461 221.427 80.5879 221.176 81.3846 221.092L82.8313 220.945L82.6846 223.859C82.4749 228.451 83.1039 233.504 84.6764 239.941C86.5004 247.3 86.731 250.382 85.7247 253.82C85.4102 254.973 84.907 256.357 84.6344 256.944C83.9845 258.307 83.9635 260.278 84.6135 261.704C85.3682 263.423 88.1358 265.645 89.5405 265.645C89.7712 265.645 89.897 265.813 89.897 266.127C89.897 266.966 90.505 268.476 91.1969 269.293C92.1194 270.426 93.2306 270.887 95.0756 270.887C96.4384 270.887 96.711 270.803 98.4302 269.922C101.512 268.308 102.057 267.553 102.057 264.932C102.057 262.165 100.757 259.209 99.4366 258.936C99.0802 258.852 98.598 258.684 98.3254 258.538C98.0528 258.391 97.4867 258.307 97.0465 258.349C96.3546 258.412 96.1239 258.286 95.1595 257.426L94.0483 256.42L93.9434 253.862C93.8386 251.032 93.7128 251.619 96.061 244.05C96.7949 241.681 97.8641 236.984 97.8641 236.104C97.8641 235.873 97.927 235.664 98.0319 235.684C98.1157 235.684 98.8076 236.649 99.5624 237.823C100.317 238.997 101.198 240.087 101.491 240.255C101.994 240.528 102.078 240.507 102.686 239.983C103.043 239.689 103.756 238.892 104.28 238.242C104.783 237.571 105.475 236.691 105.831 236.292L106.481 235.559L106.355 239.228C106.23 242.436 106.272 243.023 106.586 243.84C106.817 244.448 106.984 245.56 107.026 246.922C107.11 248.956 107.089 249.082 106.481 250.172C105.664 251.619 104.783 255.246 104.783 257.175C104.783 259.251 105.244 260.425 106.439 261.515L107.446 262.396L107.068 265.331C106.607 268.811 105.915 271.767 104.972 274.346C104.301 276.17 104.28 276.338 104.259 279.588C104.238 281.433 104.154 283.131 104.07 283.362C103.986 283.592 103.232 285.123 102.435 286.737C101.428 288.771 100.925 290.029 100.862 290.721C100.799 291.287 100.485 292.419 100.149 293.258C99.3108 295.334 98.7028 297.996 98.7028 299.632C98.7028 303.385 102.393 306.047 106.984 305.628C111.786 305.167 113.694 301.686 112.666 295.229C112.478 294.055 112.331 292.524 112.331 291.832C112.331 291.098 112.058 289.547 111.702 288.121C110.57 283.823 110.591 282.188 111.807 280.741C112.205 280.259 112.624 279.525 112.75 279.106C113.086 277.848 113.002 275.877 112.52 274.325C112.142 273.088 112.1 272.585 112.205 270.929C112.436 267.721 113.568 261.41 114.008 260.928C114.784 260.068 115.119 259.041 115.266 257.154C115.371 255.665 115.56 254.89 116.147 253.485C117.279 250.78 117.782 248.306 117.761 245.602L117.719 243.316L119.459 239.752C120.403 237.781 121.598 235.622 122.08 234.93C122.562 234.238 123.653 232.456 124.512 230.967L126.043 228.283L126.525 231.072C127.049 234.154 127.469 240.171 127.301 242.478C127.259 243.274 127.07 246.063 126.902 248.663C126.63 252.709 126.504 253.694 125.959 255.56C125.267 257.972 125.162 259.649 125.644 261.012C126.462 263.339 126.211 266.484 124.994 269C124.596 269.839 124.282 270.677 124.282 270.908C124.282 271.117 124.051 272.082 123.778 273.025C123.506 273.99 123.212 275.311 123.129 275.982C122.982 277.135 123.003 277.198 123.611 277.764C124.554 278.665 125.896 278.959 128.789 278.959C131.767 278.959 132.899 278.665 133.884 277.68C134.597 276.967 134.597 276.925 134.471 275.751C134.178 273.256 133.465 270.761 132.417 268.685C131.452 266.715 131.368 266.463 131.263 264.534C131.138 262.647 131.18 262.416 131.62 261.599L132.123 260.718L132.144 251.598C132.186 240.381 132.354 238.221 133.612 233.567C134.807 229.185 134.891 228.535 134.576 226.061C134.324 224.111 134.324 223.943 134.87 221.952C135.163 220.798 135.478 219.729 135.582 219.561C135.771 219.247 135.75 219.205 137.428 222.14C137.889 222.937 138.811 224.551 139.482 225.705C140.174 226.858 141.013 228.367 141.348 229.059C142.145 230.611 142.627 230.736 142.606 229.374C142.585 228.011 142.145 224.237 141.914 223.335C141.809 222.895 141.642 221.26 141.579 219.687L141.432 216.815L142.082 215.976C143.109 214.676 145.122 213.649 146.632 213.649C146.967 213.649 147.428 213.523 147.617 213.376C147.995 213.104 147.932 212.831 146.632 209.351C146.443 208.827 146.359 208.072 146.422 207.359C146.464 206.73 146.611 204.571 146.737 202.6C146.946 199.077 146.967 198.931 147.785 197.148C148.225 196.121 148.603 195.199 148.603 195.073C148.603 194.947 148.749 194.716 148.917 194.57C149.525 194.066 150.154 194.633 151.098 196.54C152.125 198.532 152.586 198.847 152.586 197.484C152.586 196.645 151.873 189.601 151.622 187.986C151.454 187.001 151.852 187.127 152.293 188.196C152.46 188.594 152.691 188.909 152.796 188.909C153.089 188.909 153.047 188.196 152.712 186.707C152.355 185.24 150.573 175.448 150.385 173.918C150.301 173.331 150.049 172.094 149.819 171.129C149.588 170.165 149.441 169.347 149.483 169.284C149.546 169.242 149.798 169.578 150.049 170.039C150.301 170.5 150.636 170.878 150.783 170.878C150.993 170.878 150.846 170.165 150.259 168.362C149.819 166.978 149.399 165.364 149.315 164.798C149.19 163.791 149.211 163.728 149.965 163.015L150.762 162.303L149.923 161.086C149.462 160.416 148.435 158.927 147.659 157.774C145.751 154.943 143.235 151.756 140.866 149.115C138.476 146.452 138.329 146.033 139.168 144.188C140.132 142.049 140.677 140.057 140.531 139.156C140.405 138.422 139.398 137.122 138.937 137.122C138.706 137.122 138.685 136.346 138.937 136.2C139.021 136.137 139.168 135.403 139.231 134.585C139.294 133.746 139.461 133.013 139.566 132.95C139.86 132.761 140.195 130.476 139.964 130.245C139.755 130.035 139.964 129.365 140.237 129.365C140.342 129.365 140.426 128.903 140.426 128.337C140.426 127.331 140.426 127.31 141.201 127.163C142.879 126.849 143.78 125.947 143.78 124.542C143.78 123.431 142.921 119.888 142.25 118.252C140.929 114.982 137.532 110.726 135.541 109.803C133.863 109.027 129.062 107.476 126.315 106.826C124.261 106.344 123.862 106.176 123.988 105.903C125.099 103.199 125.12 102.255 124.177 98.1248C123.506 95.1685 123.003 94.1412 121.703 92.9671C119.061 90.5979 115.14 90.6608 112.582 93.1558C111.408 94.2879 110.968 95.1685 110.234 97.7893C109.899 98.9425 109.438 100.326 109.207 100.85C108.976 101.375 108.767 102.004 108.767 102.276C108.767 102.8 108.221 103.094 106.796 103.345C106.041 103.471 105.873 103.618 105.035 105.002C104.385 106.071 104.007 106.511 103.693 106.511C103.462 106.511 102.33 106.7 101.177 106.931C99.2689 107.329 99.0383 107.329 98.7028 107.035C98.1577 106.553 97.7174 106.658 97.4658 107.35C97.361 107.685 97.2352 107.979 97.1932 108C97.1513 108 95.9981 108.084 94.6144 108.189C93 108.314 91.721 108.524 91.0501 108.776C90.1486 109.132 90.0018 109.279 89.9389 109.824C89.897 110.18 89.9599 110.663 90.0857 110.872C90.2534 111.187 90.1905 111.375 89.8131 111.732C89.5615 111.963 89.1841 112.172 88.9954 112.172C88.8067 112.172 88.639 112.298 88.639 112.466C88.639 112.864 87.6955 113.451 87.2971 113.304C87.0875 113.22 86.9617 112.927 86.9617 112.508C86.9617 111.48 86.4585 110.914 85.515 110.914C84.6344 110.914 84.299 111.187 84.0474 112.067C83.9425 112.508 83.67 112.738 82.9362 113.011L81.9507 113.388L81.7411 112.717C81.6153 112.361 79.0155 99.3828 75.9544 83.8677C69.9371 53.4247 69.7484 52.5651 67.1276 46.0865C66.3938 44.2205 65.7228 42.648 65.639 42.5851C65.5761 42.5222 65.5761 44.6189 65.6599 47.2816ZM138.119 136.179C138.119 136.577 138.036 136.912 137.91 136.912C137.805 136.912 137.7 136.577 137.7 136.179C137.7 135.78 137.805 135.445 137.91 135.445C138.036 135.445 138.119 135.78 138.119 136.179ZM146.904 179.893C147.114 182.43 147.093 182.87 146.485 187.106C146.38 187.923 146.191 192.725 146.066 197.798C145.961 202.872 145.835 207.066 145.772 207.107C145.625 207.275 144.745 205.2 143.948 202.746C143.005 199.895 142.48 197.127 142.48 194.947C142.48 192.117 142.564 191.823 143.109 192.704C143.277 192.955 143.466 193.081 143.571 192.976C143.906 192.641 144.409 185.994 144.409 182.158C144.409 179.474 144.472 178.426 144.661 178.426C144.787 178.426 145.227 178.048 145.625 177.566C146.191 176.895 146.401 176.769 146.527 177C146.632 177.168 146.799 178.468 146.904 179.893ZM80.7347 179.809C80.4621 181.235 80.4831 181.445 80.7766 181.906C81.0492 182.325 81.0702 182.682 80.8815 184.296C80.7557 185.323 80.525 186.477 80.3783 186.854C80.2105 187.231 79.8751 188.238 79.6235 189.097C79.3719 189.936 79.1203 190.586 79.0574 190.502C78.9945 190.439 78.7639 189.684 78.5752 188.846C78.1978 187.294 78.1978 187.273 78.68 185.428C78.9526 184.401 79.4557 182.661 79.7912 181.571C80.1476 180.48 80.4831 179.264 80.567 178.887C80.6508 178.53 80.7766 178.216 80.8815 178.216C80.9653 178.216 80.9024 178.929 80.7347 179.809ZM111.324 230.883L111.136 231.575L110.968 230.988C110.863 230.611 110.905 230.296 111.094 230.086C111.45 229.646 111.555 230.003 111.324 230.883Z" fill="black"/>
        </g>
    </g>
    <defs>
        <filter id="filter0_d" x="59.9426" y="32.5835" width="113.049" height="283.088" filterUnits="userSpaceOnUse" color-interpolation-filters="sRGB">
            <feFlood flood-opacity="0" result="BackgroundImageFix"/>
            <feColorMatrix in="SourceAlpha" type="matrix" values="0 0 0 0 0 0 0 0 0 0 0 0 0 0 0 0 0 0 127 0"/>
            <feOffset dx="10"/>
            <feGaussianBlur stdDeviation="5"/>
            <feColorMatrix type="matrix" values="0 0 0 0 0 0 0 0 0 0.588235 0 0 0 0 0.862745 0 0 0 1 0"/>
            <feBlend mode="normal" in2="BackgroundImageFix" result="effect1_dropShadow"/>
            <feBlend mode="normal" in="SourceGraphic" in2="effect1_dropShadow" result="shape"/>
        </filter>
        <clipPath id="clip0">
            <rect x="1" y="39" width="230" height="268.368" fill="white"/>
        </clipPath>
    </defs>
</svg>
