<svg width="333" height="318" viewBox="0 0 333 318" fill="none" xmlns="http://www.w3.org/2000/svg">
    <rect x="0.5" y="18.5" width="296" height="299" fill="white" stroke="#FF6600"/>
    <path d="M228.22 284.8H236.5V285.844C236.092 286.012 235.66 286.18 235.204 286.348C234.748 286.492 234.28 286.624 233.8 286.744L227.464 296.5L234.844 308.092C235.996 308.284 236.98 308.572 237.796 308.956V310H228.22V308.956C229.084 308.524 229.996 308.236 230.956 308.092L225.268 299.056L219.796 308.128C220.3 308.2 220.792 308.296 221.272 308.416C221.752 308.512 222.22 308.692 222.676 308.956V310H214.36V308.956C214.816 308.716 215.26 308.536 215.692 308.416C216.148 308.296 216.592 308.188 217.024 308.092L224.08 297.328L217.312 286.744C216.832 286.6 216.352 286.456 215.872 286.312C215.416 286.168 214.948 286.012 214.468 285.844V284.8H224.008V285.844C223.648 285.988 223.24 286.132 222.784 286.276C222.352 286.42 221.848 286.576 221.272 286.744L226.312 294.88L231.208 286.744C230.224 286.528 229.228 286.228 228.22 285.844V284.8ZM268.249 310H259.321V308.956C259.801 308.764 260.281 308.608 260.761 308.488C261.241 308.344 261.733 308.212 262.237 308.092V291.892L262.381 287.68H262.093L260.905 291.532L253.525 310H252.589L245.569 291.532L244.273 287.32H243.949L243.985 291.892V308.092C244.441 308.188 244.897 308.308 245.353 308.452C245.809 308.596 246.265 308.764 246.721 308.956V310H239.197V308.956C239.653 308.764 240.121 308.596 240.601 308.452C241.105 308.284 241.609 308.152 242.113 308.056V286.744C241.609 286.648 241.105 286.528 240.601 286.384C240.121 286.216 239.641 286.036 239.161 285.844V284.8H246.541L252.805 301.252L254.029 304.96H254.065L255.289 301.18L261.769 284.8H268.285V285.844C267.853 286.036 267.409 286.216 266.953 286.384C266.497 286.528 266.029 286.648 265.549 286.744V308.128C266.053 308.224 266.521 308.344 266.953 308.488C267.409 308.608 267.841 308.764 268.249 308.956V310ZM276.788 308.092C277.34 308.212 277.868 308.344 278.372 308.488C278.876 308.608 279.368 308.764 279.848 308.956V310H270.38V308.956C270.908 308.716 271.412 308.536 271.892 308.416C272.372 308.296 272.852 308.188 273.332 308.092V286.744C272.708 286.624 272.156 286.492 271.676 286.348C271.196 286.18 270.764 286.012 270.38 285.844V284.8H273.548C274.508 284.8 275.552 284.752 276.68 284.656C277.832 284.56 278.948 284.512 280.028 284.512C281.204 284.512 282.296 284.644 283.304 284.908C284.336 285.172 285.224 285.592 285.968 286.168C286.712 286.744 287.288 287.476 287.696 288.364C288.128 289.252 288.344 290.32 288.344 291.568C288.344 293.32 287.876 294.772 286.94 295.924C286.028 297.076 284.78 297.904 283.196 298.408C284.228 300.04 285.308 301.66 286.436 303.268C287.564 304.876 288.74 306.472 289.964 308.056L291.908 309.1V310H287.552L286.184 308.992C285.512 308.152 284.9 307.336 284.348 306.544C283.796 305.728 283.28 304.912 282.8 304.096C282.32 303.256 281.864 302.416 281.432 301.576C281.024 300.712 280.604 299.8 280.172 298.84H276.788V308.092ZM279.236 286.384C278.66 286.384 278.18 286.396 277.796 286.42C277.436 286.444 277.1 286.492 276.788 286.564V297.328H279.38C281.036 297.328 282.344 296.8 283.304 295.744C284.288 294.688 284.78 293.296 284.78 291.568C284.78 289.792 284.264 288.484 283.232 287.644C282.2 286.804 280.868 286.384 279.236 286.384Z" fill="#001322"/>
    <rect x="183.5" y="0.5" width="149" height="151" fill="white" stroke="#FF6600"/>
    <path d="M258 151C299.421 151 333 117.421 333 76C333 34.5786 299.421 1 258 1C216.579 1 183 34.5786 183 76C183 117.421 216.579 151 258 151Z" fill="#FF6600"/>
    <path d="M257.859 25.5635C285.937 25.5635 308.578 48.2041 308.578 76.2822C308.57 81.7439 307.7 87.1701 306 92.3604H290.812V49.7041L257.812 82.751L224.812 49.751V92.4072H209.719C208.013 87.202 207.143 81.7596 207.14 76.2822C207.14 48.251 229.828 25.5635 257.859 25.5635ZM250.312 90.1572L258 97.751L265.547 90.1572L279.844 75.7197V102.532H301.172C296.657 109.977 290.3 116.131 282.712 120.401C275.125 124.67 266.565 126.911 257.859 126.907C239.578 126.907 223.5 117.11 214.547 102.532H235.875V75.7197L250.312 90.1572Z" fill="white"/>
    <g clip-path="url(#clip0)">
        <g filter="url(#filter0_d)">
            <path d="M74.6248 64.7627C74.6248 64.8189 74.7936 65.5877 75.0186 66.4877C75.5436 68.7002 75.4311 69.1877 74.0436 70.6314C72.7123 72.0189 72.5811 72.6752 73.4998 73.3502C73.9873 73.7064 74.0623 73.8752 74.0623 74.6064C74.0623 75.7689 73.3498 80.6814 73.1623 80.8127C72.9748 80.9252 73.2186 90.9002 73.4061 91.4814C73.4623 91.7064 73.4811 91.8752 73.4248 91.8752C73.0686 91.8752 70.8373 90.8252 67.7248 89.1939L64.1248 87.3002L62.0998 84.2064C60.9748 82.5002 59.8123 80.7002 59.5123 80.2127C58.9873 79.3502 58.6873 79.0877 58.6873 79.5002C58.6873 79.6127 59.2311 80.7002 59.8873 81.9002C60.5436 83.1002 61.2936 84.5439 61.5748 85.0877L62.0811 86.0814L61.3498 85.7064C60.5248 85.2752 60.1873 85.4439 60.1873 86.2502C60.1873 87.4502 60.5436 88.0689 61.8748 89.1377C63.2248 90.2252 64.0498 91.2752 64.5748 92.5127C64.8748 93.2252 64.8748 93.2627 64.4998 93.6752L64.1061 94.0877L63.6936 93.6752C63.4686 93.4502 62.0248 92.2127 60.4686 90.9377C56.6061 87.7314 52.9311 84.5627 49.6311 81.5814C47.5873 79.7439 46.7811 79.1439 46.6311 79.2939C46.4811 79.4439 47.3436 80.4377 49.8936 83.0064C53.0998 86.2877 55.0123 88.3127 59.9811 93.6939L61.9123 95.7939L60.8248 96.2814C59.9061 96.6752 59.6998 96.7127 59.4561 96.5064C59.2873 96.3564 55.9873 94.8377 52.1248 93.0939C44.1186 89.5127 41.0436 88.0877 35.0248 85.1627C31.4061 83.4002 30.7311 83.1377 30.5436 83.3627C30.4123 83.5314 30.3936 83.7002 30.4873 83.7939C30.5811 83.8877 33.5248 85.6127 37.0311 87.6564C45.1873 92.4189 46.7061 93.3377 52.4623 97.0127L57.2248 100.031L56.3998 100.163C55.9686 100.256 55.1998 100.388 54.7123 100.5C54.2248 100.594 50.5123 100.763 46.4623 100.875C42.4123 100.988 38.9061 101.119 38.6811 101.175C38.4373 101.213 38.2498 101.381 38.2498 101.531C38.2498 101.85 38.3061 101.869 46.1248 102.563C53.4936 103.219 53.8686 103.275 54.3186 103.594C54.6373 103.838 54.6186 103.856 54.0936 104.063C53.2311 104.4 49.4998 105.15 46.4998 105.619L43.7811 106.031V106.594V107.156L48.7498 107.288C51.4873 107.363 54.3561 107.494 55.1248 107.588C56.9811 107.831 60.4311 109.088 60.2811 109.481C60.2248 109.631 60.2623 110.531 60.3936 111.45C60.5623 112.856 60.5436 113.513 60.3186 115.2C60.0373 117.169 60.0373 117.244 60.3936 117.731C60.7123 118.163 60.7311 118.294 60.5248 118.875C60.3936 119.231 59.9998 119.944 59.6811 120.45C59.3436 120.938 59.0623 121.519 59.0623 121.706C59.0623 121.913 58.8936 122.381 58.6873 122.756C58.4811 123.15 58.3123 123.638 58.3123 123.863C58.3123 124.556 57.9186 125.4 57.5436 125.494C57.1498 125.606 57.0748 126.019 57.3748 126.563C57.6186 127.013 56.4561 130.369 55.8748 130.913C55.4436 131.325 55.4248 131.494 55.7061 132.038C55.9686 132.544 56.0811 133.688 55.8748 133.688C55.7811 133.688 55.5561 133.969 55.3873 134.288C55.1998 134.625 54.8248 135.206 54.5248 135.581C54.1873 136.013 53.9248 136.575 53.8686 137.081C53.8123 137.531 53.5686 138.3 53.3248 138.788C53.0811 139.275 52.8748 139.819 52.8748 139.969C52.8748 140.138 52.6123 140.888 52.2936 141.6C51.7686 142.8 51.7311 143.006 51.9186 143.625C52.1998 144.563 52.1811 145.275 51.8248 147.281C51.6373 148.388 51.3373 149.306 50.9811 149.925C50.3811 150.994 50.3061 151.594 50.7186 152.194C50.8686 152.419 50.9436 152.719 50.8873 152.888C50.8311 153.056 50.7186 153.788 50.6436 154.538C50.5498 155.663 50.4748 155.906 50.2123 155.906C49.7998 155.906 49.7998 155.963 50.1561 157.163C50.5123 158.381 50.3436 159.544 49.2186 163.5C48.7686 165.094 48.3561 166.688 48.2811 167.025C48.1873 167.475 47.9811 167.719 47.4748 167.981L46.7998 168.319L47.3248 168.656C47.8123 168.975 47.8123 168.994 47.4936 169.35C47.3061 169.556 46.9311 169.856 46.6498 170.006C46.1248 170.325 45.8436 170.925 46.1436 171.094C46.3686 171.244 47.0623 170.85 47.0623 170.55C47.0623 170.419 47.4936 169.969 48.0373 169.519C48.8436 168.863 49.0498 168.769 49.2561 168.994C49.4623 169.2 49.4248 169.444 48.9561 170.456C48.6561 171.113 48.2811 171.975 48.1311 172.35C47.8873 172.931 47.7748 173.044 47.4561 172.913C46.8748 172.706 45.5811 171.394 45.2998 170.738C44.9623 169.95 43.7998 169.556 42.9748 169.969C42.1311 170.4 41.9811 170.681 42.0373 171.769L42.0936 172.744L43.2186 173.231C44.4186 173.756 45.2998 174.319 46.0498 175.069C46.4061 175.425 46.4998 175.706 46.4998 176.419C46.4998 177.281 46.5373 177.356 48.0936 178.931C49.4436 180.3 49.7061 180.675 49.7998 181.35C50.0436 182.831 51.2061 183.525 52.5748 183C53.8123 182.531 52.3498 184.031 50.8311 184.8C50.6623 184.894 50.2123 184.556 49.4998 183.788C48.8998 183.15 48.3373 182.625 48.2061 182.625C48.0936 182.625 47.3623 182.025 46.5936 181.294C45.8248 180.563 45.1873 180.038 45.1873 180.131C45.1873 180.244 45.6373 181.331 46.1998 182.55L47.2123 184.781L48.3748 185.381C49.3311 185.888 49.7436 186 50.7186 186C52.0311 186 52.6873 185.663 54.6748 183.994L55.6498 183.188L55.9311 183.638C56.0998 183.9 56.4373 184.163 56.6623 184.219C56.9061 184.294 57.2811 184.519 57.4873 184.725C57.7123 184.913 57.9748 185.063 58.0686 185.025C58.3311 184.95 62.9248 188.588 64.7623 190.331L66.2623 191.756L65.8123 195.394C65.4561 198.281 65.3623 199.988 65.3436 203.625C65.3248 207.525 65.2686 208.575 64.9123 210.525C64.4061 213.263 64.2186 213.75 63.7123 213.6C63.3936 213.525 63.3561 213.6 63.3936 214.238C63.4123 214.65 63.3373 215.175 63.2436 215.438C62.8498 216.394 62.7748 217.744 63.0748 218.606C63.4873 219.731 63.4498 221.419 62.9998 222.694C62.5686 223.931 62.5498 224.756 62.8311 228.038L63.0561 230.438L62.5498 231.15C61.8748 232.125 61.9311 232.706 62.7748 233.681C62.9811 233.906 63.0936 234.45 63.1311 235.256C63.1498 235.931 63.2623 236.588 63.3748 236.7C63.4686 236.831 63.5061 236.981 63.4498 237.038C63.3936 237.094 63.5623 237.506 63.8248 237.975C64.0686 238.425 64.3498 239.138 64.4248 239.531C64.4998 239.944 64.8561 241.031 65.2123 241.969C65.5686 242.888 65.9623 244.069 66.1123 244.594C66.2623 245.1 66.5436 245.944 66.7311 246.469C67.3123 248.006 67.7436 250.013 67.5186 250.088C67.2561 250.181 67.2561 250.744 67.5373 251.025C67.6686 251.156 67.8561 251.175 68.0811 251.044C68.3623 250.894 68.4936 250.988 68.7936 251.606C68.9998 252 69.3186 252.9 69.4873 253.594C69.6936 254.419 70.1061 255.319 70.6498 256.106C71.7561 257.775 71.9998 258.263 71.9998 258.9C71.9998 259.181 72.0748 259.5 72.1686 259.613C72.5061 259.95 72.5436 261.038 72.2436 261.506C72.0373 261.825 71.9061 262.556 71.8498 263.869C71.7748 265.613 71.8123 265.875 72.2623 266.944C72.7311 268.05 72.8998 269.419 72.6186 269.7C72.5436 269.756 72.4686 270.281 72.4311 270.844C72.3748 271.669 72.4498 271.95 72.7498 272.25C72.9561 272.456 73.2186 272.625 73.3123 272.625C73.4248 272.625 73.7061 272.831 73.9311 273.113C74.4373 273.675 75.3936 273.919 77.2123 273.938C78.3936 273.938 78.7498 274.031 79.9311 274.613C81.7311 275.531 84.2623 276.375 85.1811 276.375C85.5936 276.375 86.2498 276.469 86.6623 276.6C87.2998 276.788 87.4498 276.769 87.9373 276.413C88.5561 275.944 88.8936 275.906 89.1936 276.206C89.3623 276.375 89.5498 276.356 89.9248 276.094C90.3186 275.831 90.5061 275.813 90.8811 275.981C91.4436 276.244 91.4248 276.244 91.7811 275.888C92.0061 275.644 92.1373 275.625 92.3061 275.794C92.6248 276.113 93.1311 276.038 93.4311 275.625C93.5623 275.438 94.0498 275.175 94.5186 275.081C95.3061 274.894 95.9998 274.331 95.9998 273.863C95.9998 273.544 95.7936 273.319 94.9311 272.738C94.0873 272.175 93.7123 271.95 91.8373 270.956C89.0248 269.456 86.9623 267.731 85.8373 265.95C85.5748 265.556 85.1811 265.05 84.9561 264.863C84.1123 264.094 84.6186 264.188 85.5186 264.975C86.0436 265.406 86.7748 266.025 87.1498 266.306C87.9561 266.925 88.3311 267.525 88.1998 267.975C88.1061 268.294 88.7248 268.781 88.9498 268.556C89.1186 268.369 89.0811 267.563 88.8936 267.563C88.7998 267.563 88.6123 267.263 88.4998 266.888C88.3311 266.381 87.9936 266.044 87.2061 265.519C86.6248 265.144 85.8186 264.469 85.4061 264.038C85.0123 263.588 84.1123 262.8 83.4186 262.294C82.1998 261.394 82.1436 261.3 82.0311 260.381C81.9561 259.838 81.3561 257.888 80.6811 256.031C79.5373 252.825 79.3123 252.075 78.6748 249.188C78.1498 246.825 78.1498 246.825 78.8436 245.475L79.4811 244.219L79.2186 243.038C79.0686 242.381 78.8248 241.631 78.6748 241.35C78.5436 241.069 78.3748 240.413 78.3186 239.906C78.2061 239.044 78.2248 239.006 78.4686 239.325C78.6186 239.531 78.7498 239.925 78.7498 240.206C78.7498 240.694 79.1623 241.05 79.5186 240.825C79.7436 240.694 79.7436 239.813 79.5186 239.813C79.2186 239.813 78.7686 238.388 78.5811 236.869C78.3561 235.106 77.6811 232.144 77.4373 231.844C77.3248 231.713 77.3061 231.356 77.3623 231.038C77.4561 230.588 77.3998 230.419 77.1936 230.325C76.9686 230.25 76.9311 230.1 77.0436 229.819C77.1561 229.519 77.0811 229.181 76.7623 228.638C76.3311 227.906 76.3123 227.719 76.4061 225.956C76.4436 224.906 76.5748 223.894 76.6686 223.706C76.7811 223.519 76.9311 222.619 77.0248 221.681C77.1748 220.219 77.3061 219.788 78.0936 218.288C78.5811 217.331 79.1436 216.469 79.3311 216.356C79.7811 216.113 79.7811 215.775 79.3123 215.344C79.0311 215.081 78.9936 214.931 79.1436 214.65C79.2561 214.444 79.5373 213.581 79.7811 212.738C80.0061 211.913 80.6436 210.075 81.1873 208.688C82.9123 204.244 83.4373 202.65 84.1873 199.688C84.5998 198.094 85.1061 196.238 85.3123 195.563C85.7248 194.194 85.7811 193.463 85.4811 192.975C85.3311 192.731 85.5186 191.7 86.2311 188.625C86.7373 186.413 87.2623 184.031 87.3936 183.319C87.7686 181.294 88.0686 181.556 89.6811 185.344C90.2436 186.694 91.1998 188.925 91.7811 190.313C92.4373 191.85 92.8686 193.088 92.8498 193.481C92.8311 194.194 96.0561 200.738 98.5311 205.013C99.2998 206.344 100.069 207.863 100.237 208.388C100.406 208.913 100.706 209.663 100.894 210.038C101.344 210.919 101.344 211.35 100.894 211.763C100.594 212.025 100.556 212.306 100.612 213.694C100.669 215.25 100.65 215.363 100.125 216.075C99.7123 216.6 99.5623 217.031 99.5623 217.575C99.5623 218.981 99.0186 220.894 98.2498 222.319C97.0873 224.438 96.8998 225.075 97.1623 226.013C97.2748 226.425 97.3498 226.856 97.3311 226.969C97.2936 227.063 97.2373 227.569 97.2186 228.056C97.1623 228.75 97.0498 229.069 96.6561 229.425C96.2998 229.744 96.1873 230.006 96.2436 230.306C96.2998 230.531 96.3936 231.563 96.4498 232.594C96.5248 233.625 96.6748 235.125 96.7873 235.931C96.9748 237.263 96.9561 237.413 96.6373 237.638C96.3186 237.881 96.3186 237.919 96.6373 238.631C96.9186 239.269 96.9373 239.625 96.7873 241.763C96.6748 243.075 96.5061 244.256 96.3936 244.369C96.2811 244.481 96.1873 244.819 96.1873 245.119C96.1873 245.644 96.2248 245.663 96.8061 245.569L97.4248 245.475L97.3873 249.113C97.3686 251.475 97.2748 252.956 97.1248 253.331C96.9373 253.763 96.9373 253.931 97.1248 254.156C97.4811 254.588 97.4248 256.406 97.0498 256.781C96.8623 256.988 96.7498 257.4 96.7498 257.981C96.7498 259.2 96.4311 260.025 95.9623 260.1C95.6623 260.138 95.4748 260.419 95.2311 261.188C95.0436 261.75 94.8748 262.369 94.8748 262.556C94.8748 262.894 94.7811 263.138 94.2561 264.094C93.4311 265.594 93.4498 265.481 93.9748 265.931C94.3498 266.25 94.4998 266.644 94.6873 267.713C94.8748 268.894 94.9873 269.138 95.4936 269.513C95.8311 269.756 96.5248 270.094 97.0311 270.244C98.0248 270.563 101.175 270.938 102.862 270.938C104.25 270.938 107.569 272.063 109.012 273.038C109.65 273.469 110.531 274.181 110.981 274.631C111.919 275.569 114 276.338 114.9 276.075C115.181 276 116.175 275.925 117.094 275.925C118.312 275.906 118.95 275.813 119.381 275.569C120.375 275.044 120.431 273.75 119.494 273.6C119.287 273.563 119.006 273.338 118.875 273.094C118.65 272.681 117.994 272.306 116.719 271.913L116.156 271.725L116.756 271.5C117.131 271.369 117.319 271.181 117.262 271.031C117.206 270.9 116.306 270.056 115.256 269.194C114.206 268.313 112.387 266.681 111.244 265.556C109.219 263.606 109.125 263.494 109.125 262.744C109.125 261.975 108.975 261.563 108.281 260.55C107.981 260.081 107.925 259.594 107.869 256.706C107.812 254.719 107.906 252.038 108.094 249.938C108.244 248.025 108.412 245.925 108.469 245.25C108.525 244.594 108.656 243.956 108.75 243.863C108.862 243.75 108.937 243.375 108.937 243C108.937 242.644 109.031 242.044 109.125 241.688C109.237 241.331 109.519 239.813 109.781 238.294C110.044 236.794 110.419 235.069 110.644 234.45C110.85 233.85 111.225 232.725 111.469 231.975C111.712 231.225 112.144 230.344 112.406 230.025C112.8 229.556 112.875 229.313 112.8 228.863C112.65 228.131 112.65 228.056 112.762 227.25C112.819 226.894 112.95 225.75 113.062 224.719C113.175 223.688 113.287 222.525 113.344 222.131C113.381 221.738 113.625 221.156 113.887 220.856C114.169 220.538 114.375 220.144 114.375 219.994C114.375 219.825 114.6 219.3 114.881 218.831C115.312 218.1 115.387 217.688 115.519 215.738C115.669 213.206 116.081 211.294 116.644 210.506L117.019 209.981L116.494 208.969C116.194 208.35 115.856 207.938 115.687 207.938C115.462 207.938 115.312 207.656 115.181 206.944C115.069 206.419 114.637 204.619 114.206 202.969C113.775 201.319 113.381 199.331 113.325 198.563C113.25 197.794 113.1 196.988 112.969 196.763C112.669 196.294 111.862 193.706 111.975 193.594C112.012 193.556 116.231 195.544 121.369 198.038C127.669 201.094 130.725 202.669 130.781 202.913C130.856 203.1 131.119 203.306 131.4 203.363C132.581 203.663 158.475 216.319 160.519 217.613C160.912 217.856 161.381 218.044 161.569 218.025C161.962 217.969 163.594 218.794 170.925 222.713C179.025 227.044 184.012 229.856 184.312 230.269C184.462 230.494 185.062 231.188 185.644 231.806C186.319 232.538 187.087 233.719 187.762 235.013C190.612 240.544 193.106 242.438 197.531 242.438C200.194 242.438 200.962 242.288 201.281 241.706C201.806 240.731 201.75 240.75 203.344 241.2C204.169 241.444 205.687 242.044 206.719 242.513C207.787 243 208.744 243.319 208.931 243.263C209.119 243.206 210 243.506 210.994 243.994C217.931 247.294 223.65 249.563 226.594 250.125C228.412 250.481 236.362 254.813 241.837 258.413C244.05 259.894 244.744 260.269 244.931 260.081C245.081 259.931 245.081 259.781 244.969 259.575C244.687 259.144 240.45 256.481 236.306 254.138C234.337 253.013 232.219 251.813 231.619 251.475L230.531 250.856L231.862 250.95C233.025 251.044 233.531 251.231 235.687 252.281C237.037 252.956 238.612 253.8 239.175 254.156C240.787 255.188 245.062 257.269 245.4 257.213C245.587 257.175 247.387 257.963 249.412 258.975C251.456 259.988 253.2 260.813 253.294 260.813C253.425 260.813 253.687 260.381 253.687 260.156C253.687 260.025 251.7 258.956 250.781 258.6C249.356 258.038 238.744 252.9 237.562 252.206L236.531 251.588L237.412 251.7C238.519 251.831 239.887 252.506 243.225 254.569C245.662 256.069 246.469 256.369 246.469 255.769C246.469 255.619 245.456 254.888 244.219 254.119C241.912 252.713 241.631 252.394 243.412 253.219C244.819 253.875 246.375 254.175 246.581 253.838C246.675 253.688 246.637 253.519 246.506 253.388C246.112 253.031 241.275 251.456 239.906 251.231C238.969 251.081 237.769 250.65 235.687 249.675C234.094 248.925 232.106 248.025 231.281 247.669C230.456 247.331 228.6 246.3 227.156 245.419C225.712 244.538 224.175 243.619 223.744 243.394C222.637 242.831 222.731 242.738 223.931 243.206C230.794 245.981 240.975 248.7 247.031 249.375C250.012 249.713 250.425 249.675 250.256 249.094C250.144 248.756 248.719 248.475 246.544 248.363C242.794 248.156 234.994 246.3 228.712 244.144C222.15 241.875 212.344 237.45 211.969 236.588C211.837 236.306 210.994 235.763 209.437 234.975C208.144 234.319 207.075 233.756 207.037 233.738C207.019 233.7 207.131 233.1 207.3 232.388L207.619 231.094L206.869 229.969C205.819 228.394 204.225 227.344 201.319 226.238C198.881 225.319 197.475 225.131 194.381 225.281C188.044 225.563 187.144 225.488 184.406 224.381C179.081 222.225 165.562 216.394 163.781 215.475C163.481 215.325 163.106 215.044 162.975 214.856C162.844 214.65 162.637 214.5 162.525 214.5C161.756 214.5 133.931 201.263 133.087 200.494C132.9 200.325 132.469 200.194 132.15 200.213C131.7 200.231 128.719 198.881 121.369 195.338L111.206 190.425L110.925 189.113C110.756 188.381 110.569 187.369 110.494 186.863C110.419 186.263 110.212 185.738 109.875 185.363C109.537 184.969 108.975 183.563 108.15 181.125C106.725 176.925 105.056 172.913 103.594 170.213C102.6 168.394 101.775 166.519 101.531 165.544C101.437 165.169 101.625 164.756 102.45 163.519C103.481 161.963 103.575 161.7 103.762 159.281C103.8 158.869 103.725 158.306 103.575 158.025C103.2 157.294 103.237 156.938 103.725 156.938C104.1 156.938 104.119 156.9 103.856 156.656C103.687 156.488 103.312 156.338 103.012 156.319C102.525 156.281 102.469 156.356 102.356 156.938C102.262 157.444 102.225 157.294 102.206 156.319C102.187 155.119 102.206 155.044 102.562 155.156C103.125 155.325 105.825 153.956 105.525 153.656C105.487 153.6 104.925 153.731 104.306 153.919C103.219 154.256 103.125 154.256 102.862 153.956C102.694 153.769 102.562 153.544 102.562 153.431C102.562 153.15 101.737 151.388 101.419 151.013C101.287 150.844 101.156 150.188 101.119 149.513L101.081 148.313L101.756 148.031C102.131 147.863 102.394 147.694 102.319 147.638C102.262 147.581 102.056 147.619 101.85 147.731C101.137 148.125 101.062 147.994 101.062 146.288C101.062 144 101.512 141.3 102.281 138.9C102.956 136.838 102.956 136.838 102.956 133.313C102.956 131.363 102.9 129.263 102.825 128.644C102.712 127.556 102.731 127.481 103.219 127.106C103.594 126.788 103.706 126.581 103.631 126.225C103.556 125.869 103.706 125.513 104.156 124.913C105.281 123.45 105.394 122.456 104.756 119.531C104.569 118.669 104.4 118.35 104.044 118.181C103.8 118.05 102.9 117.506 102.075 116.963C100.669 116.044 100.462 115.838 99.5623 114.319C98.8686 113.156 98.2686 112.425 97.5186 111.825C96.1123 110.681 95.1561 109.256 95.2311 108.413C95.2498 107.888 95.2123 107.794 95.0248 107.963C94.8186 108.113 94.7248 108.038 94.5373 107.625C94.3311 107.156 94.0123 106.95 92.9623 106.613C92.4561 106.463 92.5498 106.275 93.6936 105.431L94.7436 104.625L95.6998 105.15C96.2248 105.431 96.8436 105.806 97.0873 105.956C97.4811 106.2 97.5561 106.181 97.7998 105.863C97.9498 105.656 98.0623 105.225 98.0623 104.925C98.0623 103.781 97.2936 101.569 96.4498 100.275L96.1123 99.7877L97.1623 98.4939C97.7436 97.8002 99.2623 96.1314 100.556 94.8189C101.831 93.5064 102.825 92.4002 102.769 92.3439C102.694 92.3064 101.981 92.8689 101.156 93.5814C100.331 94.3127 98.5873 95.7752 97.2748 96.8627L94.8748 98.8314L94.4061 98.4939C94.0311 98.2314 93.9561 98.0439 94.0123 97.6502C94.1061 97.2002 95.3998 93.8064 96.2623 91.8189C96.4873 91.2939 96.5061 91.1252 96.3373 91.1252C96.2061 91.1439 95.3436 92.5314 94.4061 94.2189L92.7373 97.2939L92.1748 96.9377C91.0686 96.2439 89.2873 94.5189 89.2123 94.0502C89.1373 93.7127 89.2498 93.4502 89.5686 93.1502C89.8311 92.9064 90.2436 92.3252 90.4873 91.8377C91.1061 90.6002 92.4373 87.2814 92.4373 86.9439C92.4373 86.5127 92.7561 86.3814 92.8873 86.7564C93.1123 87.3189 93.3561 86.7377 93.4873 85.4064C93.5623 84.4689 93.4686 83.1189 93.1123 80.6252C92.3248 75.1314 91.7248 73.2377 90.2623 71.7564C89.4373 70.9127 86.4561 69.4314 84.9748 69.1314C83.8311 68.8877 83.2311 68.3064 82.1248 66.3189C81.8061 65.7377 81.4873 65.2502 81.4311 65.2502C81.2436 65.2502 81.5436 67.2189 81.8436 68.0627C81.9936 68.5127 82.0873 68.9064 82.0498 68.9439C82.0123 69.0002 81.1686 68.2689 80.1748 67.3314C79.1998 66.3939 78.2436 65.6252 78.0373 65.6252C77.6248 65.6252 76.9686 66.2814 76.7436 66.9002C76.5936 67.3127 76.5186 67.2377 75.7498 66.0189C75.0373 64.8939 74.6248 64.4252 74.6248 64.7627ZM76.4998 91.1814C76.8748 91.4439 76.8936 91.4814 76.6123 92.0252C76.1998 92.8314 76.0498 92.8689 75.1498 92.4752L74.3436 92.1189L74.3998 90.4127L74.4561 88.6877L75.2811 89.7939C75.7311 90.3939 76.2748 91.0127 76.4998 91.1814ZM74.9998 98.5877V99.0939H73.3873H71.7748L72.2811 98.7189C72.5436 98.5127 73.1248 98.2127 73.5561 98.0439C74.5123 97.6689 74.9998 97.8564 74.9998 98.5877ZM59.6248 123.169C59.6248 123.656 58.7623 125.006 58.5748 124.819C58.4811 124.725 59.3998 122.625 59.5311 122.625C59.5873 122.625 59.6248 122.869 59.6248 123.169ZM77.2686 130.631C77.4748 131.269 77.6248 132.113 77.5873 132.488L77.5311 133.181L76.5936 133.219C76.0873 133.256 74.9998 133.519 74.1748 133.838C73.0873 134.269 72.6186 134.381 72.3561 134.25C71.8873 133.988 71.8311 134.006 71.6436 134.494C71.5311 134.775 71.2123 135 70.7248 135.15C69.4873 135.525 68.9998 136.031 68.9998 136.95C68.9998 137.925 69.6186 138.938 70.3686 139.2C70.7623 139.35 71.1373 139.294 72.0561 138.956C72.6936 138.713 73.5936 138.45 74.0623 138.394C74.5311 138.319 75.0186 138.206 75.1311 138.131C75.2623 138.056 75.8436 138.131 76.4248 138.3C77.0248 138.469 77.7748 138.563 78.1311 138.506L78.7873 138.394L78.6561 139.088C78.5998 139.463 78.4873 140.269 78.4311 140.888L78.3373 141.975L76.7248 141.863C73.9873 141.656 74.1186 141.713 74.1373 140.494C74.1561 139.125 73.8373 139.031 73.1811 140.175C72.4873 141.356 71.9436 141.863 71.2123 142.013C70.8748 142.069 70.4248 142.256 70.1998 142.406C69.7498 142.688 69.6561 143.231 69.4873 146.663C69.4123 148.406 69.6373 148.913 69.8623 147.469L69.9748 146.625L70.5373 147.094C70.9123 147.413 71.3248 147.563 71.8123 147.563C72.4873 147.563 72.5248 147.6 72.5998 148.2C72.6373 148.631 72.5623 148.988 72.3373 149.25C71.7748 149.944 71.9061 150.506 72.6936 150.9C73.3686 151.256 73.3686 151.275 72.9748 151.481C72.3186 151.819 72.4873 152.1 73.1811 151.8C73.7436 151.575 73.8561 151.594 74.8686 152.1C75.4498 152.381 75.9373 152.719 75.9373 152.813C75.9373 152.925 76.0686 153 76.2186 153C76.6873 153 76.5373 153.3 75.6186 154.313C74.7748 155.194 74.5873 155.288 72.9936 155.719C71.2123 156.188 71.1748 156.225 69.0561 158.213C68.3248 158.869 68.3436 158.663 68.8123 161.456C69.0561 162.844 69.0373 162.938 68.5498 164.513C68.0811 165.956 68.0436 166.294 68.1561 167.7L68.2873 169.294L65.1561 167.644C62.5123 166.238 61.9686 165.9 61.7623 165.394C61.6123 165.056 61.3686 164.813 61.1811 164.813C60.9936 164.813 60.6748 164.681 60.4873 164.531C59.6061 163.875 58.4436 164.419 57.6936 165.806L57.2811 166.594L57.2248 165.9C57.1873 165.525 57.3748 164.344 57.6373 163.275C58.1623 161.213 58.2561 159.956 57.9373 159.356C57.7686 159.075 57.8248 158.869 58.1248 158.438C58.3311 158.138 58.6123 157.406 58.7248 156.806C58.8373 156.206 59.1186 155.213 59.3623 154.594C59.6061 153.975 60.1498 152.25 60.5811 150.75C61.1436 148.725 61.4811 147.881 61.8561 147.469C62.7561 146.494 62.9998 146.006 62.9998 145.163C62.9998 144.731 63.1311 144.056 63.2811 143.681C63.4311 143.325 63.5623 142.65 63.5623 142.2C63.5623 141.619 63.7873 140.925 64.3498 139.781C65.0623 138.356 65.1186 138.131 64.9311 137.644C64.8186 137.325 64.7811 137.063 64.8561 137.025C64.9123 136.988 65.1748 136.5 65.4373 135.938C65.6811 135.375 66.2998 134.363 66.7873 133.688C67.6123 132.563 67.6873 132.394 67.6873 131.363C67.6873 130.256 68.0623 129.338 69.0186 128.081C69.2061 127.856 69.4123 127.369 69.4873 127.013C69.6186 126.338 69.7311 126.281 71.1561 126.075C71.6811 126.019 72.2998 125.831 72.5623 125.7C73.0123 125.438 73.0873 125.494 74.9436 127.444C76.6123 129.188 76.9311 129.619 77.2686 130.631ZM77.2498 133.781C77.3811 133.931 77.3998 134.063 77.2873 134.063C77.1936 134.063 77.0061 133.931 76.8748 133.781C76.7436 133.631 76.7248 133.5 76.8373 133.5C76.9311 133.5 77.1186 133.631 77.2498 133.781ZM78.6186 135.788C78.9186 136.181 78.9561 136.444 78.8623 137.138C78.7311 137.925 78.6748 138 78.1123 138.113C77.7561 138.169 77.0811 138.113 76.5748 137.963L75.6561 137.7L76.5936 137.231C77.4186 136.819 77.5498 136.669 77.6998 135.975C77.9061 135.094 78.0748 135.056 78.6186 135.788ZM70.3686 144.975C70.5186 146.006 70.1998 146.213 70.0123 145.219C69.9186 144.638 70.0311 143.831 70.1998 144.019C70.2373 144.056 70.3123 144.488 70.3686 144.975ZM71.6623 145.013C72.2811 145.556 72.3748 145.725 72.3373 146.419C72.3186 147.131 72.2811 147.188 71.7936 147.188C70.7811 147.188 70.6873 147.056 70.6873 145.669C70.6873 144.956 70.7436 144.375 70.8373 144.375C70.9123 144.394 71.2873 144.675 71.6623 145.013ZM74.4373 145.65C74.4373 145.819 73.9686 146.269 73.5561 146.513C73.3873 146.606 73.3123 146.475 73.3123 146.081C73.3123 145.556 73.3686 145.5 73.8748 145.5C74.1936 145.5 74.4373 145.575 74.4373 145.65ZM78.2061 145.988C78.4686 146.138 78.1123 147.038 77.7186 147.188C77.4936 147.281 77.1186 147.619 76.9123 147.975C76.7061 148.313 76.2748 148.838 75.9561 149.138L75.3936 149.681L74.1748 149.138C73.0498 148.631 72.9561 148.538 72.9373 148.013C72.9373 147.525 73.1248 147.3 74.0248 146.569L75.0936 145.706L76.5936 145.819C77.4186 145.875 78.1498 145.95 78.2061 145.988ZM77.9061 149.1C77.6811 149.85 76.9686 150.431 76.4811 150.281C76.0498 150.131 76.0686 150.113 76.8561 149.419C77.7936 148.594 78.0748 148.5 77.9061 149.1ZM71.1936 158.156C71.4748 158.344 71.7936 158.4 72.1123 158.325C72.7123 158.175 72.7311 158.138 71.2123 160.163C70.6123 160.95 69.9561 162 69.7686 162.506L69.3936 163.406L69.3748 162.563C69.3748 162.094 69.2436 161.175 69.0936 160.519C68.7561 159.15 68.8311 158.794 69.5061 158.25C70.0873 157.8 70.6498 157.763 71.1936 158.156ZM102.544 159.731C103.05 160.05 102.056 163.313 101.456 163.313C101.362 163.313 101.325 163.163 101.362 162.975C101.512 162.281 102 159.769 102 159.656C102 159.506 102.244 159.544 102.544 159.731ZM57.5061 161.194C57.4686 161.494 57.4311 161.288 57.4311 160.781C57.4311 160.256 57.4686 160.031 57.5061 160.256C57.5436 160.5 57.5436 160.913 57.5061 161.194ZM68.9061 167.306L68.9248 169.781L68.6623 168.094C68.4561 166.763 68.4373 166.238 68.6061 165.6C68.7373 165.169 68.8498 164.813 68.8686 164.813C68.8873 164.813 68.9061 165.938 68.9061 167.306ZM58.2748 168.863C58.8936 169.2 59.3061 169.313 59.7373 169.256C60.1873 169.181 61.1061 169.5 63.9561 170.775L67.5748 172.406L67.5186 173.288C67.4998 173.85 67.5561 174.188 67.6686 174.188C67.7811 174.188 67.8748 173.963 67.8748 173.663C67.8748 173.381 67.9498 173.044 68.0248 172.913C68.2873 172.519 68.8123 172.856 68.8123 173.419C68.8123 173.944 68.3061 178.575 67.6873 183.938C67.4811 185.738 67.3123 187.275 67.3123 187.369C67.3123 187.744 61.9123 183.844 59.5311 181.744C58.8186 181.088 58.1248 180.563 57.9936 180.563C57.8623 180.563 57.3936 179.831 56.9623 178.913L56.1561 177.281V175.031C56.1561 172.969 56.1186 172.688 55.6311 171.675C55.2373 170.831 55.1998 170.625 55.4436 170.85C55.6311 171 55.8748 171.094 56.0061 171.056C56.1186 171.019 56.2686 171.075 56.3436 171.169C56.5123 171.469 56.7748 171.413 56.9811 171.019C57.1123 170.813 57.1123 170.306 57.0186 169.669C56.7748 168.169 56.9061 168.094 58.2748 168.863ZM53.1748 180.581C53.3436 180.863 53.0811 181.069 52.4061 181.238L51.8436 181.369L52.2936 180.863C52.7998 180.338 52.9686 180.263 53.1748 180.581ZM201.3 227.531C203.944 228.525 206.025 229.988 205.519 230.494C205.387 230.625 204.975 230.363 204.262 229.706C203.625 229.125 202.519 228.413 201.487 227.906C199.556 226.969 199.5 226.856 201.3 227.531ZM200.006 228.656C201.337 229.163 203.081 230.1 203.4 230.494C203.494 230.606 203.531 231 203.494 231.338C203.4 231.863 203.344 231.938 202.987 231.825C202.256 231.6 195.75 228.319 195.75 228.169C195.75 227.7 198.206 227.981 200.006 228.656ZM194.569 237.131C195.506 237.769 197.025 238.65 197.944 239.081C198.844 239.513 199.631 239.888 199.669 239.925C199.687 239.944 199.594 240.169 199.425 240.413C199.256 240.638 199.125 240.975 199.125 241.144C199.125 241.388 198.881 241.463 197.962 241.556C195.187 241.8 192.881 240.788 191.7 238.763C191.006 237.6 191.044 236.869 191.812 236.231C192.15 235.931 192.525 235.763 192.637 235.838C192.75 235.894 193.612 236.475 194.569 237.131ZM222.975 243.863C223.669 244.256 224.212 244.594 224.194 244.631C224.156 244.65 223.219 244.275 222.075 243.788C220.95 243.281 219.3 242.569 218.419 242.175C217.519 241.781 216.506 241.238 216.169 240.938C215.644 240.488 216.112 240.656 218.625 241.781C220.331 242.531 222.281 243.469 222.975 243.863ZM211.125 242.644C211.331 242.906 211.725 243.038 212.531 243.113C213.487 243.188 214.312 243.544 218.7 245.738C221.494 247.144 223.875 248.363 223.969 248.475C224.569 249.038 217.8 246.319 213.75 244.369C212.156 243.6 210.562 242.831 210.206 242.681C209.719 242.475 209.625 242.363 209.831 242.231C210.187 242.025 210.769 242.213 211.125 242.644ZM223.744 246.506C227.55 248.344 230.512 249.881 230.325 249.919C229.35 250.106 227.625 249.45 223.256 247.181C220.762 245.888 218.156 244.538 217.444 244.2C216.319 243.619 215.962 243.188 216.619 243.188C216.75 243.188 219.956 244.688 223.744 246.506ZM223.35 245.175C224.625 245.756 226.462 246.563 227.437 246.956C229.05 247.631 231.675 249.131 231.506 249.3C231.469 249.338 229.031 248.194 226.106 246.769C223.181 245.325 220.837 244.144 220.912 244.144C220.969 244.125 222.075 244.594 223.35 245.175ZM234.562 250.031C235.031 250.275 235.275 250.481 235.125 250.481C234.975 250.5 234.506 250.294 234.094 250.031C233.137 249.45 233.456 249.431 234.562 250.031ZM73.1248 263.531C73.1248 263.85 72.9561 264.431 72.7498 264.844L72.3748 265.575V264.188C72.3748 263.419 72.4311 262.575 72.5061 262.313L72.6373 261.844L72.8623 262.406C72.9936 262.725 73.1061 263.231 73.1248 263.531Z" fill="black"/>
        </g>
    </g>
    <defs>
        <filter id="filter0_d" x="30.4287" y="54.6553" width="243.259" height="232.062" filterUnits="userSpaceOnUse" color-interpolation-filters="sRGB">
            <feFlood flood-opacity="0" result="BackgroundImageFix"/>
            <feColorMatrix in="SourceAlpha" type="matrix" values="0 0 0 0 0 0 0 0 0 0 0 0 0 0 0 0 0 0 127 0"/>
            <feOffset dx="10"/>
            <feGaussianBlur stdDeviation="5"/>
            <feColorMatrix type="matrix" values="0 0 0 0 1 0 0 0 0 0.4 0 0 0 0 0 0 0 0 1 0"/>
            <feBlend mode="normal" in2="BackgroundImageFix" result="effect1_dropShadow"/>
            <feBlend mode="normal" in="SourceGraphic" in2="effect1_dropShadow" result="shape"/>
        </filter>
        <clipPath id="clip0">
            <rect x="24" y="63" width="240" height="216.375" fill="white"/>
        </clipPath>
    </defs>
</svg>
