<svg width="338" height="322" viewBox="0 0 338 322" fill="none" xmlns="http://www.w3.org/2000/svg">
    <rect x="0.5" y="22.5" width="299" height="299" fill="white" stroke="black"/>
    <rect x="188.5" y="0.5" width="149" height="151" fill="white" stroke="black"/>
    <path d="M243.22 288.8H251.5V289.844C251.092 290.012 250.66 290.18 250.204 290.348C249.748 290.492 249.28 290.624 248.8 290.744L242.464 300.5L249.844 312.092C250.996 312.284 251.98 312.572 252.796 312.956V314H243.22V312.956C244.084 312.524 244.996 312.236 245.956 312.092L240.268 303.056L234.796 312.128C235.3 312.2 235.792 312.296 236.272 312.416C236.752 312.512 237.22 312.692 237.676 312.956V314H229.36V312.956C229.816 312.716 230.26 312.536 230.692 312.416C231.148 312.296 231.592 312.188 232.024 312.092L239.08 301.328L232.312 290.744C231.832 290.6 231.352 290.456 230.872 290.312C230.416 290.168 229.948 290.012 229.468 289.844V288.8H239.008V289.844C238.648 289.988 238.24 290.132 237.784 290.276C237.352 290.42 236.848 290.576 236.272 290.744L241.312 298.88L246.208 290.744C245.224 290.528 244.228 290.228 243.22 289.844V288.8ZM260.569 312.092C261.121 312.212 261.649 312.344 262.153 312.488C262.657 312.608 263.149 312.764 263.629 312.956V314H254.161V312.956C254.689 312.716 255.193 312.536 255.673 312.416C256.153 312.296 256.633 312.188 257.113 312.092V290.744C256.489 290.624 255.937 290.492 255.457 290.348C254.977 290.18 254.545 290.012 254.161 289.844V288.8H257.329C258.289 288.8 259.333 288.752 260.461 288.656C261.613 288.56 262.729 288.512 263.809 288.512C264.985 288.512 266.077 288.644 267.085 288.908C268.117 289.172 269.005 289.592 269.749 290.168C270.493 290.744 271.069 291.476 271.477 292.364C271.909 293.252 272.125 294.32 272.125 295.568C272.125 297.32 271.657 298.772 270.721 299.924C269.809 301.076 268.561 301.904 266.977 302.408C268.009 304.04 269.089 305.66 270.217 307.268C271.345 308.876 272.521 310.472 273.745 312.056L275.689 313.1V314H271.333L269.965 312.992C269.293 312.152 268.681 311.336 268.129 310.544C267.577 309.728 267.061 308.912 266.581 308.096C266.101 307.256 265.645 306.416 265.213 305.576C264.805 304.712 264.385 303.8 263.953 302.84H260.569V312.092ZM263.017 290.384C262.441 290.384 261.961 290.396 261.577 290.42C261.217 290.444 260.881 290.492 260.569 290.564V301.328H263.161C264.817 301.328 266.125 300.8 267.085 299.744C268.069 298.688 268.561 297.296 268.561 295.568C268.561 293.792 268.045 292.484 267.013 291.644C265.981 290.804 264.649 290.384 263.017 290.384ZM283.491 312.092C284.139 312.164 284.751 312.284 285.327 312.452C285.903 312.596 286.443 312.764 286.947 312.956V314H277.083V312.956C277.563 312.716 278.055 312.536 278.559 312.416C279.063 312.296 279.555 312.188 280.035 312.092V290.744C279.483 290.648 278.967 290.528 278.487 290.384C278.007 290.216 277.539 290.036 277.083 289.844V288.8H280.323C281.283 288.8 282.327 288.752 283.455 288.656C284.583 288.56 285.663 288.512 286.695 288.512C287.871 288.512 289.023 288.644 290.151 288.908C291.279 289.148 292.275 289.568 293.139 290.168C294.027 290.768 294.735 291.572 295.263 292.58C295.815 293.564 296.091 294.8 296.091 296.288C296.091 297.704 295.815 298.916 295.263 299.924C294.711 300.932 293.967 301.76 293.031 302.408C292.119 303.056 291.075 303.536 289.899 303.848C288.723 304.136 287.511 304.28 286.263 304.28C286.143 304.28 285.951 304.28 285.687 304.28C285.447 304.28 285.183 304.28 284.895 304.28C284.607 304.256 284.331 304.232 284.067 304.208C283.803 304.184 283.611 304.16 283.491 304.136V312.092ZM285.939 290.384C285.363 290.384 284.895 290.396 284.535 290.42C284.175 290.444 283.827 290.492 283.491 290.564V302.228C283.611 302.276 283.779 302.312 283.995 302.336C284.235 302.336 284.475 302.348 284.715 302.372C284.979 302.396 285.231 302.408 285.471 302.408C285.711 302.408 285.903 302.408 286.047 302.408C286.887 302.408 287.679 302.3 288.423 302.084C289.167 301.844 289.815 301.472 290.367 300.968C290.943 300.464 291.399 299.828 291.735 299.06C292.071 298.292 292.239 297.368 292.239 296.288C292.239 294.32 291.675 292.844 290.547 291.86C289.443 290.876 287.907 290.384 285.939 290.384Z" fill="#001322"/>
    <path d="M263 151C282.891 151 301.968 143.098 316.033 129.033C330.098 114.968 338 95.8912 338 76C338 56.1088 330.098 37.0322 316.033 22.967C301.968 8.90176 282.891 1 263 1C243.109 1 224.032 8.90176 209.967 22.967C195.902 37.0322 188 56.1088 188 76C188 95.8912 195.902 114.968 209.967 129.033C224.032 143.098 243.109 151 263 151Z" fill="black"/>
    <path d="M297.218 34H311.234L282.078 64.1875C279.621 66.7775 276.662 68.8401 273.382 70.2496C270.102 71.6591 266.57 72.386 263 72.386C259.43 72.386 255.897 71.6591 252.617 70.2496C249.337 68.8401 246.379 66.7775 243.922 64.1875L214.719 34H228.781L250.906 56.9687C252.465 58.6083 254.341 59.9137 256.42 60.8058C258.499 61.6978 260.737 62.1578 263 62.1578C265.262 62.1578 267.501 61.6978 269.58 60.8058C271.659 59.9137 273.535 58.6083 275.094 56.9687L297.218 34ZM228.594 118H214.578L243.922 87.5781C246.383 84.9868 249.345 82.9234 252.629 81.5133C255.913 80.1033 259.449 79.3761 263.023 79.3761C266.597 79.3761 270.133 80.1033 273.417 81.5133C276.701 82.9234 279.664 84.9868 282.125 87.5781L311.422 118.047H297.406L275.14 94.8438C273.582 93.2042 271.706 91.8988 269.627 91.0067C267.548 90.1147 265.309 89.6547 263.047 89.6547C260.784 89.6547 258.546 90.1147 256.467 91.0067C254.388 91.8988 252.512 93.2042 250.953 94.8438L228.594 118Z" fill="white"/>
    <g filter="url(#filter0_d)">
        <mask id="path-6-inside-1" fill="white">
            <path d="M92.0717 63.1078C91.9692 63.2309 91.8051 63.8463 91.7435 64.4616C91.6615 65.077 91.4769 66.1027 91.3333 66.718C90.923 68.4411 90.5538 72.4001 90.6564 74.0001C90.7179 74.7796 90.8615 76.1745 91.0256 77.077C91.2717 78.677 91.2512 78.8001 90.6564 81.077C89.8564 84.1539 88.9538 86.4309 86.5333 91.436C81.3641 102.103 74.9641 111.169 67.0461 119.005C63.4564 122.554 60.9948 124.687 55.0256 129.446C48.8923 134.349 45.5692 137.221 43.9076 139.026L42.5128 140.544L36.3589 138.226C22.882 133.18 15.7435 130.923 13.1179 130.923C11.5589 130.923 11.4769 131.354 12.8102 132.544C14.841 134.41 20.9743 137.61 32.6871 142.923L39.9076 146.185L40.2564 147.436C40.7282 149.18 41.3846 150.185 42.9641 151.641C46.1846 154.574 52.7692 156.749 58.5128 156.769C59.5999 156.769 60.6666 156.913 61.6923 157.221C63.1487 157.651 63.3333 157.774 65.3435 159.723L67.4564 161.774L67.3333 160.851C67.2717 160.359 67.1692 159.703 67.1282 159.374L67.0256 158.821L67.7025 159.149C68.0512 159.354 68.6871 159.703 69.1179 159.969L69.8564 160.441L70 163.128C70.1846 166.185 70.1846 166.205 72.0923 166.205C72.6871 166.205 73.2205 166.349 73.5897 166.615L74.1641 167.026L73.5487 169.015C73.2205 170.123 72.7692 171.621 72.5435 172.339C72.3179 173.057 72.1538 173.672 72.1948 173.692C72.2974 173.815 78.7589 168.913 79.3333 168.277C79.8256 167.744 80.9948 167.231 81.7538 167.231C81.8974 167.231 82.2666 167.354 82.5743 167.518C84.2769 168.38 84.564 167.949 83.1282 166.636C82.2871 165.857 82.123 165.795 81.0974 165.795C79.9487 165.795 79.3333 165.467 79.3333 164.872C79.3333 164.708 79.5794 164.072 79.8871 163.436C80.4205 162.369 80.482 162.308 81.2205 162.308C81.8564 162.308 82.041 162.41 82.1846 162.759C82.4307 163.374 83.6205 164.482 84.2153 164.667C84.4615 164.728 84.6666 164.872 84.6666 164.974C84.6666 165.057 85.241 165.733 85.9589 166.472C87.1487 167.723 87.4974 167.928 89.1794 168.359C89.8153 168.523 91.1897 168.728 91.3743 168.708C91.4974 168.667 91.9282 168.851 92.2974 169.077C93.282 169.672 93.9589 169.61 94.5948 168.872L95.1076 168.257L95.7846 168.667C97.6923 169.836 100.051 168.544 100.051 166.328C100.051 165.015 98.2461 163.559 96.9333 163.826L96.2974 163.949L96.441 163.108C96.5435 162.492 96.482 162.123 96.2564 161.774C95.8461 161.159 95.7846 161.159 94.9846 161.898C94.6153 162.246 94.3076 162.513 94.2666 162.513C94.1025 162.513 94.2256 159.231 94.4102 159.067C94.5333 158.944 95.0256 158.821 95.5384 158.78C96.2974 158.698 96.6871 158.821 97.7743 159.415C98.923 160.031 99.2717 160.133 100.626 160.133L102.164 160.154L102.492 161.303C102.697 161.98 103.21 162.964 103.826 163.764C104.851 165.118 105.077 165.528 105.261 166.431C105.323 166.739 105.692 167.374 106.082 167.826C106.472 168.298 106.841 168.831 106.903 169.036C107.169 169.918 107.477 173.077 107.477 175.128C107.477 176.995 107.415 177.405 107.149 177.528C106.964 177.631 106.656 177.774 106.472 177.877C106.267 177.959 106.061 178.267 106.041 178.533C106 178.8 105.877 179.108 105.774 179.231C105.467 179.539 105.569 180.051 106.123 181.057L106.656 182L106.02 182.759C105.672 183.19 105.385 183.682 105.385 183.846C105.385 184.031 105.672 184.626 106.02 185.18C106.903 186.554 106.903 187.477 106.041 188.441C105.672 188.851 105.179 189.59 104.954 190.062C104.708 190.533 104.338 191.149 104.133 191.415C103.908 191.682 103.744 192.072 103.744 192.277C103.744 192.482 103.456 193.18 103.128 193.836C102.779 194.492 102.451 195.395 102.39 195.846C102.123 197.549 100.605 203.333 99.723 205.959C99.2102 207.477 98.6974 209.221 98.5948 209.836C98.4717 210.472 98.2051 211.231 97.9794 211.539C97.7538 211.846 97.5897 212.318 97.6307 212.585C97.7128 213.262 96.482 217.036 95.4974 219.128C94.841 220.523 94.6564 221.18 94.5743 222.451C94.4717 223.846 94.3897 224.092 93.8769 224.585C93.5487 224.892 93.282 225.241 93.282 225.344C93.282 225.446 93.0974 225.754 92.8717 226.041C92.5846 226.41 92.4615 226.882 92.4615 227.559C92.4615 228.708 91.9076 231.21 91.5794 231.621C91.3333 231.908 91.0051 234.944 91.0051 236.769C91.0256 238.308 90.841 239.026 90.5128 238.903C90.1025 238.739 89.8769 239.395 90.164 239.867C90.4717 240.359 90.4717 240.933 90.164 241.241C89.9999 241.405 89.9999 241.549 90.164 241.733C90.2666 241.877 90.4307 242.636 90.5128 243.436L90.6564 244.872L89.4256 246.062L88.1948 247.272L87.2717 245.959C86.7794 245.262 85.9179 243.928 85.3641 243.046C84.2153 241.2 83.9282 240.954 83.1487 241.159C82.4102 241.344 82.4102 241.303 84.5025 246.615C86.4717 251.6 86.7179 252.133 87.641 253.139C88.0102 253.569 88.3999 254.164 88.4615 254.451C88.5435 254.739 88.8512 255.272 89.1384 255.621C89.5897 256.133 89.8974 256.277 90.7179 256.38C92.8923 256.626 93.0153 256.769 93.6923 259.846C93.9999 261.262 94.1025 262.472 94.1025 264.995C94.1025 268.38 94.1846 268.769 94.9641 268.769C95.2923 268.769 95.3333 268.974 95.3333 270.533C95.3333 271.498 95.4358 272.687 95.5589 273.2C95.8461 274.328 96.7692 275.19 97.5076 275.005C97.9794 274.882 97.9999 274.923 97.9999 276.01C97.9999 276.626 98.1435 277.528 98.3282 278.021C98.5128 278.513 98.6564 279.169 98.6358 279.457C98.6153 279.764 98.7999 280.626 99.0461 281.364L99.4564 282.739L98.2051 284.174C97.5076 284.954 96.8102 285.59 96.6461 285.59C96.5025 285.59 95.6615 285.98 94.7794 286.431C93.6512 287.046 92.9128 287.292 92.2358 287.313C91.0051 287.354 88.7487 288.482 87.641 289.59C86.7179 290.513 86.1025 292.072 86.1025 293.508C86.1025 294.328 86.1435 294.41 86.6153 294.41C86.9025 294.41 87.4358 294.533 87.8051 294.698C88.1743 294.841 89.7128 295.272 91.2102 295.621C94.0615 296.318 96.4205 296.482 97.7128 296.092C98.123 295.969 99.4564 295.949 101.2 296.072C105.2 296.298 105.179 296.298 105.179 295.928C105.179 295.744 105.303 295.641 105.467 295.703C105.61 295.764 106.677 296.031 107.805 296.277C109.754 296.708 110.02 296.728 111.682 296.482C112.687 296.339 113.938 296.195 114.492 296.154C115.928 296.051 116.503 295.887 117.015 295.395C117.364 295.067 117.426 294.882 117.282 294.513C116.892 293.508 116.851 291.58 117.159 289.344C117.426 287.19 117.528 286.923 118.41 285.487C119.149 284.298 119.333 283.887 119.149 283.662C118.985 283.457 119.026 283.292 119.354 283.005C119.6 282.8 119.99 282.246 120.256 281.795C120.769 280.913 121.938 277.282 122.041 276.257C122.103 275.662 122.082 275.641 121.303 275.662C120.81 275.682 119.744 276.072 118.41 276.749C117.241 277.323 116.195 277.795 116.092 277.795C115.908 277.795 115.395 276.749 115.313 276.236C115.292 276.113 115.046 275.785 114.759 275.498C114.267 274.985 114.246 274.964 114.554 273.877C114.718 273.262 114.882 271.969 114.903 271.005C114.964 269.774 115.087 269.077 115.333 268.708C115.744 268.051 115.703 267.354 115.005 264.831C114.574 263.251 114.554 262.923 114.759 261.713C114.882 260.933 115.395 259.498 115.99 258.267L116.974 256.154V253.754C116.974 251.662 116.913 251.292 116.544 250.8C115.723 249.672 115.108 249.385 113.426 249.323L111.846 249.241L111.19 248.195C110.82 247.6 110.513 246.862 110.513 246.513C110.513 246.185 110.287 245.426 110.02 244.851C109.754 244.277 109.549 243.559 109.549 243.251C109.549 242.533 109.097 242.082 107.846 241.487C107.272 241.221 106.82 240.913 106.82 240.81C106.82 240.38 109.015 236.421 110.041 235.026C111.497 233.015 112.851 230.41 112.564 230.123C112.195 229.754 112.338 229.282 113.179 228.154C113.631 227.539 114.164 226.677 114.369 226.205C114.554 225.754 115.026 224.79 115.395 224.051C115.785 223.313 116.318 222.267 116.585 221.733C116.872 221.2 117.528 220.133 118.082 219.374C118.636 218.615 119.661 216.892 120.379 215.539C121.097 214.185 122.144 212.441 122.697 211.682C123.703 210.287 123.723 210.287 123.969 210.759C124.113 211.046 124.482 212.215 124.769 213.385C125.282 215.436 125.303 215.6 125.097 218.082C124.974 219.498 124.81 221.057 124.749 221.549C124.667 222.185 124.708 222.554 124.974 222.944C125.282 223.415 125.282 223.58 124.995 224.851C124.81 225.61 124.687 226.923 124.687 227.764C124.687 228.605 124.687 230.39 124.667 231.744C124.626 233.098 124.687 235.169 124.769 236.359C124.831 237.549 124.892 239.313 124.892 240.298C124.872 241.508 125.015 242.78 125.364 244.298C125.631 245.508 125.918 246.841 125.979 247.272C126.061 247.744 126.308 248.133 126.615 248.339C126.944 248.564 127.108 248.831 127.067 249.118C127.046 249.426 127.169 249.651 127.456 249.774C127.682 249.877 128.072 250.267 128.318 250.636C128.728 251.272 128.749 251.395 128.482 252.4C128.338 252.995 128.133 253.487 128.031 253.487C127.928 253.467 127.169 253.139 126.328 252.708C124.769 251.949 124.461 251.928 123.867 252.646C123.723 252.81 123.661 253.139 123.744 253.364C124.072 254.451 132.031 261.672 133.877 262.554C134.841 263.026 135.067 263.067 135.785 262.882L136.585 262.677L137.774 264.133C140.072 266.964 141.487 268.954 142.944 271.354C144.872 274.554 145.672 275.621 146.513 276.154L147.231 276.605V278.287V279.99L148.256 280.954C148.81 281.467 149.364 281.898 149.487 281.898C149.631 281.898 149.631 282.041 149.467 282.349C149.323 282.615 149.261 283.436 149.323 284.544C149.385 285.61 149.323 286.759 149.159 287.477C148.851 288.81 147.723 290.698 147.005 291.108C146.226 291.539 145.528 292.544 145.056 293.918C144.831 294.615 144.482 295.354 144.297 295.539C144.113 295.723 143.949 296.072 143.949 296.318C143.969 296.872 144.831 297.898 145.303 297.898C145.487 297.898 145.918 298.144 146.267 298.431C146.882 298.944 146.985 298.964 148.461 298.841C150.574 298.636 157.979 298.267 159.251 298.287C160.236 298.308 160.338 298.267 161.159 297.344C161.918 296.523 162.02 296.298 161.938 295.723C161.836 295.169 161.959 294.923 162.554 294.226C163.128 293.528 163.251 293.262 163.149 292.81C162.492 290.164 162.554 289.713 163.579 289.692C164.072 289.692 164.236 289.508 164.626 288.462C165.344 286.595 165.344 286.349 164.79 283.498L164.277 280.769L164.769 278.615C165.056 277.426 165.282 275.949 165.303 275.333C165.323 273.898 164.585 271.846 163.128 269.2C162.41 267.949 161.938 266.8 161.815 266.041C161.692 265.405 161.508 264.687 161.385 264.462C160.872 263.518 159.846 264.154 158.308 266.349C157.938 266.903 157.61 267.333 157.61 267.333C157.59 267.333 157.59 265.651 157.61 263.58C157.61 261.528 157.549 259.559 157.446 259.21C157.344 258.8 156.933 258.328 156.338 257.898C155.128 257.036 154.615 256.195 154.615 255.026C154.615 254.328 154.431 253.815 153.897 252.933C153.344 252.031 153.138 251.415 152.974 250.226C152.749 248.4 152.215 247.251 151.272 246.533C150.472 245.918 148.236 244.872 147.292 244.687C146.779 244.564 146.513 244.318 146.103 243.6C145.754 242.944 145.651 242.574 145.795 242.431C146.061 242.164 146.061 241.344 145.795 241.18C145.692 241.118 145.303 241.036 144.933 240.995C144.564 240.954 143.805 240.646 143.272 240.298C142.718 239.949 141.938 239.621 141.528 239.539L140.769 239.415L140.728 237.221C140.687 235.805 140.79 234.657 140.974 234C141.59 231.826 142.103 229.446 142.103 228.708C142.103 228.298 142.39 227.251 142.738 226.369C143.292 224.995 143.395 224.462 143.436 222.615C143.456 221.405 143.682 219.641 143.908 218.615C144.154 217.528 144.318 215.99 144.318 214.903C144.338 213.898 144.482 212.359 144.667 211.518C144.851 210.698 145.056 209.672 145.118 209.282C145.282 208.215 146.205 205.426 146.738 204.339C147.005 203.826 147.149 203.21 147.108 202.964C147.046 202.739 147.313 201.508 147.703 200.215C148.174 198.657 148.523 196.872 148.769 194.8L149.138 191.703L148.667 189.262C148.42 187.928 147.805 185.569 147.292 184.051C146.472 181.549 146.41 181.159 146.533 179.99C146.636 179.026 146.595 178.533 146.349 178.041C146.185 177.672 145.897 177.036 145.713 176.605C145.405 175.887 143.067 173.262 141.303 171.662C140.482 170.903 137.528 166.677 136.626 164.954C136.256 164.257 135.826 163.539 135.661 163.354C134.944 162.574 134.718 161.508 134.636 158.698C134.574 156.564 134.636 155.785 134.841 155.354C135.046 155.005 135.128 154.308 135.087 153.262C135.046 151.805 135.087 151.662 135.641 150.985C135.99 150.595 136.646 150.021 137.138 149.713C138.554 148.831 138.205 147.744 136.523 147.744H135.846L136.051 145.836C136.174 144.81 136.379 143.744 136.523 143.477C136.687 143.21 137.2 142.821 137.692 142.615C138.677 142.185 138.923 141.61 138.451 140.81C138.246 140.482 137.959 140.359 137.467 140.359C136.851 140.359 136.769 140.298 136.769 139.846C136.769 139.559 136.81 139.333 136.872 139.333C136.933 139.333 137.487 139.682 138.123 140.092C138.861 140.585 139.21 140.933 139.128 141.139C138.595 142.513 138.779 143.21 139.846 143.928C140.831 144.564 141.077 144.585 141.754 144.051L142.287 143.621L144.031 144.913C144.995 145.631 147.518 147.374 149.651 148.769L153.528 151.333L154.185 153.959C155.128 157.754 156.092 160.421 157.118 162.123C157.631 162.964 158.246 164.092 158.492 164.667C159.026 165.877 159.764 166.718 160.769 167.231C161.651 167.682 163.005 167.518 164.154 166.841C164.585 166.595 164.933 166.41 164.954 166.451C164.974 166.492 165.2 166.78 165.446 167.108C165.918 167.744 166.041 168.851 165.672 169.221C165.508 169.385 165.528 169.569 165.713 169.918C165.856 170.185 166.144 170.985 166.328 171.662C166.595 172.728 166.615 172.995 166.39 173.405C166.246 173.672 166.123 174.328 166.103 174.841C166.103 175.703 166.041 175.826 165.569 175.928C165.118 176.051 165.056 176.154 165.179 176.626C165.241 176.933 165.508 177.405 165.754 177.651C166.144 178.062 166.349 178.123 167.169 178.041C168.277 177.939 168.564 178.144 168.954 179.313C169.261 180.215 170.144 181.385 170.533 181.385C170.718 181.385 171.067 181.877 171.354 182.554C172.215 184.523 172.318 184.687 172.872 184.954C173.446 185.262 174.472 185.077 174.738 184.626C174.985 184.257 174.964 182.862 174.738 182.041C174.636 181.692 174.574 181.385 174.595 181.385C174.636 181.385 175.067 181.528 175.559 181.713C176.051 181.898 177.056 182.205 177.795 182.41C179.415 182.841 180.954 183.785 181.61 184.749C182.061 185.405 182.082 185.569 181.897 186.431C181.733 187.128 181.446 187.621 180.872 188.195C179.908 189.098 179.867 189.344 180.544 189.98L181.056 190.451L181.979 190.021C183.518 189.262 184.256 188.318 184.954 186.205C185.508 184.523 185.549 184.195 185.385 183.108C185.097 181.159 184.81 180.462 183.949 179.477C183.497 178.964 183.128 178.431 183.128 178.267C183.128 177.426 181.487 175.518 180.585 175.313C179.559 175.087 179.538 175.005 180.544 174.369C181.077 174.041 181.549 173.651 181.631 173.467C181.692 173.303 181.405 172.667 180.995 172.051C180.133 170.739 180.092 170.595 180.728 171.026C180.974 171.19 181.59 171.969 182.103 172.769C182.615 173.549 183.128 174.205 183.272 174.205C183.723 174.205 184.01 173.344 184.031 171.969C184.031 170.862 183.887 170.185 183.149 168.154C182.656 166.8 182.082 165.344 181.856 164.913C181.651 164.482 181.487 163.928 181.508 163.682C181.59 162.657 181.426 162.308 179.846 160.462C178.944 159.395 178.205 158.472 178.205 158.369C178.205 158.287 178.451 157.713 178.759 157.077C179.272 156.051 179.292 155.887 179.046 155.272C178.903 154.923 178.779 154.513 178.8 154.41C178.8 154.287 178.82 153.836 178.841 153.364C178.861 152.913 178.718 152.01 178.533 151.374C178.123 150 177.938 149.898 175.354 149.898C173.733 149.898 173.59 149.877 173.056 149.344C172.626 148.913 172.297 148.769 171.682 148.769C170.985 148.769 170.841 148.687 170.738 148.277C170.677 147.99 170.697 147.539 170.82 147.231C171.128 146.39 171.067 146.123 170.41 145.467C169.897 144.933 169.713 144.872 169.097 144.974C168.277 145.139 167.128 144.585 167.128 144.031C167.128 143.846 166.861 143.58 166.513 143.436C166.185 143.292 165.897 143.169 165.897 143.128C165.897 143.108 165.2 141.2 164.359 138.903C163.497 136.605 162.267 132.831 161.59 130.513C160.933 128.195 159.456 123.313 158.349 119.641C153.61 104.195 152.564 99.5181 151.436 88.4616C151.272 86.718 150.944 84.318 150.718 83.1283C150.267 80.7283 149.692 75.3129 149.692 73.4668C149.692 72.4001 149.631 72.236 149.097 71.8668C148.379 71.3539 148.092 71.3334 147.477 71.7642C147.128 72.0103 147.026 72.2565 147.046 72.8309C147.067 73.3232 146.636 74.8411 145.836 76.9745C145.159 78.8411 144.585 80.5437 144.523 80.7693C144.461 81.118 144.318 81.1796 143.395 81.118C142 81.0155 141.344 81.3847 140.318 82.8616C139.395 84.195 137.364 87.6821 136.4 89.6104C135.559 91.2719 134.431 92.0309 129.61 94.1232C128.667 94.5334 128.933 94.6975 130.02 94.3898C130.513 94.2462 131.436 94.1232 132.051 94.1027C132.667 94.0822 133.364 94.0001 133.569 93.8975C133.897 93.7539 133.938 93.795 133.815 94.1232C133.733 94.3283 133.61 94.7386 133.569 95.0257C133.508 95.3129 132.892 96.1129 132.215 96.8103C131.518 97.5078 131.005 98.1437 131.087 98.2257C131.272 98.4104 132.81 97.118 135.005 94.9232C136.277 93.6514 136.708 93.3027 136.42 93.795C136.195 94.1847 135.477 95.3745 134.841 96.4411C133.754 98.2462 133.487 98.9232 133.856 98.9232C134.02 98.9027 136.133 95.8257 137.261 93.918C138.123 92.4821 138.164 92.5232 137.549 94.1437C137.303 94.8001 137.077 95.3745 137.077 95.436C137.056 95.4975 136.892 96.0719 136.687 96.7488C136.318 98.0206 136.42 98.4924 136.913 97.7334C137.344 97.118 137.631 97.1591 137.385 97.8155C137.261 98.1027 137.22 98.4104 137.261 98.4924C137.323 98.5745 137.241 99.0668 137.077 99.6001C136.667 100.954 137.077 101.036 137.692 99.7232C138.164 98.6975 138.185 98.677 138.328 99.2104C138.39 99.5181 138.308 100.421 138.103 101.282C137.569 103.539 138.02 103.744 138.738 101.59C139.067 100.626 139.128 100.544 139.19 101.015C139.251 101.528 139.641 101.857 139.641 101.426C139.641 101.323 139.826 101.036 140.051 100.769C140.564 100.195 140.564 100.277 140.051 102.287C139.744 103.457 139.415 104.215 138.841 104.954C137.979 106.082 137.733 106.739 137.385 108.769C137.056 110.574 136.667 111.457 136.277 111.313C136.092 111.251 135.272 111.559 134.41 112.031C133.549 112.503 132.769 112.831 132.667 112.769C132.564 112.708 132.42 112.769 132.359 112.872C132.195 113.159 131.436 112.544 131.436 112.133C131.436 111.99 131.723 111.58 132.051 111.231C132.728 110.533 132.831 109.733 132.379 108.667C132.195 108.215 132.174 107.826 132.318 107.231C132.626 106 132.544 102.492 132.174 100.79C131.661 98.3488 131.6 98.4104 130.595 102.39C130.164 104.092 129.303 106.739 128.687 108.298C127.908 110.328 127.477 111.744 127.231 113.282C127.046 114.472 126.8 115.764 126.697 116.174C126.513 116.913 126.513 116.913 125.672 116.769C125.2 116.687 124.585 116.421 124.277 116.215C123.764 115.805 123.744 115.744 123.723 113.569C123.723 111.867 123.6 110.841 123.19 109.241L122.636 107.128L123.128 106.267C123.723 105.159 124.092 103.231 124.051 101.2C124.031 100.339 124.092 98.5745 124.174 97.2822C124.461 92.3796 123.313 89.2616 120.359 86.8821C119.62 86.3078 118.841 85.4668 118.595 85.036C117.364 82.7386 116.769 82.0822 114.903 80.9539C113.036 79.8052 111.333 79.8052 109.938 80.9539C109.631 81.2206 108.933 81.6924 108.379 82.0001C107.169 82.6975 105.138 84.7488 105.261 85.118C105.323 85.2616 105.241 85.3847 105.056 85.3847C104.892 85.3847 104.708 85.6514 104.626 86.0001C104.564 86.3898 104.174 86.9232 103.579 87.436L102.656 88.2155L102.02 87.7437C101.138 87.0668 100.174 85.3847 99.4564 83.3334C99.1282 82.3693 98.6358 80.995 98.3487 80.2565C97.7743 78.7796 97.6512 77.9796 97.3846 74.5129C97.2205 72.0309 96.6666 69.9796 95.2102 66.2668C94.8205 65.2822 94.5128 64.3386 94.5128 64.1745C94.5128 64.0103 94.4102 63.6411 94.2871 63.3539C94.082 62.9027 93.9179 62.8411 93.1589 62.8616C92.6666 62.8616 92.1743 62.9847 92.0717 63.1078ZM92.6051 68.9129C92.564 69.3437 92.523 69.036 92.523 68.2565C92.523 67.4565 92.564 67.1283 92.6051 67.477C92.6461 67.8463 92.6461 68.5027 92.6051 68.9129ZM148.379 75.1693C148.318 75.6616 148.215 76.6052 148.154 77.2822C147.949 79.395 147.579 81.6924 147.436 81.6924C147.374 81.6924 147.149 81.5693 146.944 81.4257C146.595 81.1796 146.615 81.036 147.128 78.8206C147.415 77.5283 147.764 75.9693 147.908 75.3745C148.174 74.1027 148.523 73.9386 148.379 75.1693ZM139.703 85.3232C139.559 85.9796 139.395 86.7386 139.333 87.0257C139.251 87.5181 137.015 90.2052 136.851 90.0411C136.81 90.0001 137.056 89.4257 137.405 88.7488C139.005 85.7539 139.867 84.1539 139.928 84.1539C139.949 84.1539 139.867 84.6873 139.703 85.3232ZM100.236 88.1745C100.318 88.1129 100.605 88.5642 100.892 89.1796C101.179 89.795 101.282 90.2052 101.138 90.0822C100.872 89.836 99.8461 88.0719 99.8666 87.8668C99.8666 87.8052 99.9282 87.8668 99.9897 88.0103C100.031 88.1334 100.154 88.2155 100.236 88.1745ZM101.836 89.4462L101.61 89.9386L101.364 89.2616C101.22 88.8719 101.097 88.4001 101.097 88.195C101.077 87.8873 101.179 87.9283 101.569 88.4001C101.979 88.8719 102.02 89.036 101.836 89.4462ZM100.441 90.0206C100.851 90.6155 101.015 91.0462 100.913 91.2309C100.81 91.436 100.605 91.1693 100.215 90.3078C99.9282 89.6309 99.7025 89.077 99.7435 89.077C99.7846 89.077 100.092 89.5078 100.441 90.0206ZM100.051 91.477C100.4 92.2565 100.461 92.6668 100.338 93.4873L100.195 94.5129L99.9282 93.877C99.7846 93.5283 99.5179 93.1796 99.3333 93.118C98.882 92.9334 98.9846 90.5129 99.4564 90.5129C99.5384 90.5129 99.8256 90.9437 100.051 91.477ZM134.944 92.318C134.82 92.5437 134.041 92.995 133.179 93.3437C132.318 93.6719 131.661 93.8975 131.723 93.836C131.826 93.7334 134.903 92.0103 135.087 91.9693C135.108 91.9488 135.046 92.1129 134.944 92.318ZM136.359 92.6257C136.359 92.6463 135.867 93.1386 135.292 93.6924L134.205 94.718L135.231 93.6309C136.174 92.6463 136.359 92.4616 136.359 92.6257ZM138.513 93.9386C138.451 94.2668 138.308 94.595 138.205 94.6975C138.103 94.8001 138.123 94.5539 138.246 94.1437C138.513 93.2616 138.718 93.118 138.513 93.9386ZM95.0051 98.6975C95.0871 99.5386 95.4769 101.221 95.8666 102.451C96.2564 103.682 96.564 104.831 96.564 104.974C96.564 105.139 96.3384 105.59 96.0717 105.98C95.6615 106.574 95.5589 107.067 95.4358 108.913C95.1897 112.872 94.9846 113.877 94.2051 115.026C93.4256 116.174 92.1128 119.518 91.9487 120.769C91.9076 121.221 91.7641 121.918 91.641 122.308C91.3128 123.457 91.3948 125.036 91.8461 126.062C92.1948 126.821 92.2358 127.231 92.1333 128.544C92.0102 129.98 92.0307 130.103 92.3794 130.103C92.8307 130.123 93.7743 131.908 93.7948 132.769C93.7948 133.18 93.9999 133.385 94.8615 133.795C95.7846 134.246 95.9282 134.41 96.1333 135.169C96.482 136.482 96.1128 139.333 95.4358 140.544C93.9384 143.231 92.6051 146.759 92.3589 148.667C92.2564 149.508 92.1128 149.774 91.5999 150.144C91.0871 150.492 90.9025 150.533 90.5948 150.349C90.2871 150.144 90.123 150.185 89.7538 150.554L89.3025 151.026L89.7948 151.539C90.2256 151.99 90.2461 152.113 89.9999 152.257C89.8358 152.359 89.6307 152.462 89.5487 152.462C89.4666 152.462 88.7897 153.036 88.0512 153.713L86.7179 154.985L85.8153 154.636C84.8717 154.267 84.3999 153.754 83.2512 151.846C82.3692 150.39 81.2615 149.241 80.4615 148.974L79.8256 148.769L81.1794 147.374C83.4153 145.098 85.4051 141.426 86.882 136.831C88.7692 131.067 89.7128 126.082 91.641 111.662C92.5435 104.954 93.282 99.9078 93.8358 96.9745L94.164 95.1283L94.5128 96.1539C94.6974 96.7078 94.923 97.8565 95.0051 98.6975ZM137.713 96.2155C137.344 96.5437 137.344 96.5437 137.59 96.0924C137.713 95.8257 137.877 95.6616 137.959 95.7232C138.02 95.8052 137.918 96.0103 137.713 96.2155ZM147.538 109.569C147.928 113.59 148.461 118.103 149.179 123.333C149.467 125.426 149.692 127.21 149.692 127.292C149.692 127.374 149.344 127.21 148.933 126.923C147.969 126.287 147.169 126.267 146.061 126.903L145.179 127.415L144.79 126.841C144.564 126.533 144.236 125.898 144.031 125.405C143.661 124.482 143.149 124.154 142.082 124.154C141.754 124.154 140.872 123.887 140.133 123.539C138.882 122.985 138.779 122.882 138.903 122.41C138.985 122.062 138.861 121.569 138.513 120.872C138.226 120.318 138 119.662 138 119.415C138 119.169 138.39 118.103 138.841 117.036C139.744 115.005 139.805 114.226 139.108 113.467C138.656 112.974 138.82 112.585 140.359 110.328C141.077 109.262 142.164 107.498 142.738 106.39C143.333 105.262 144.195 103.805 144.646 103.128C145.118 102.451 145.815 101.241 146.205 100.462L146.923 99.0462L147.067 102.595C147.149 104.564 147.354 107.703 147.538 109.569ZM78.3897 150.595C78.6564 150.882 78.7179 151.21 78.6358 151.846C78.5128 152.892 77.4666 155.354 77.1794 155.272C76.9128 155.169 76.7076 153.774 76.6871 151.908C76.6666 150.677 76.7282 150.431 77.0358 150.349C77.7538 150.164 78.041 150.205 78.3897 150.595ZM175.292 150.657C175.764 151.128 175.559 151.436 174.82 151.436C174.369 151.436 174.103 151.333 174.103 151.169C174.103 150.841 174.513 150.41 174.82 150.41C174.944 150.41 175.149 150.513 175.292 150.657ZM83.2512 154.636C83.9076 155.333 84.7076 155.744 85.4871 155.744C85.8153 155.744 86.1025 155.785 86.1025 155.826C86.1025 155.887 85.7333 156.462 85.3025 157.139C84.1743 158.821 83.3743 159.005 82.7589 157.692C82.5743 157.303 82.2871 156.974 82.1025 156.974C81.8564 156.974 81.7948 156.708 81.7948 155.682C81.7948 154.964 81.8564 154.308 81.9384 154.246C82.2256 153.959 82.7589 154.123 83.2512 154.636ZM178.82 168.236C178.82 168.462 178.738 168.441 178.513 168.133C178.349 167.928 178.226 167.6 178.226 167.436C178.226 167.21 178.287 167.231 178.513 167.518C178.677 167.744 178.82 168.072 178.82 168.236ZM106.656 189.426C106.328 190.021 106 190.657 105.938 190.821C105.856 191.046 105.815 191.005 105.815 190.718C105.795 190.328 106.903 188.359 107.149 188.359C107.21 188.359 106.985 188.851 106.656 189.426ZM156.256 260.174C156.4 260.4 156.544 261.118 156.605 261.754L156.708 262.923L156.051 262.226C155.518 261.672 155.415 261.426 155.518 260.913C155.579 260.564 155.538 260.174 155.415 260.031C155.231 259.805 155.272 259.744 155.6 259.744C155.846 259.744 156.133 259.928 156.256 260.174ZM101.364 272.81C101.631 273.241 101.897 273.959 101.959 274.41L102.082 275.231L101.077 274.103C100.01 272.913 99.9076 272.687 100.297 272.298C100.687 271.908 100.831 271.99 101.364 272.81ZM163.826 273.221C163.949 273.857 164.01 274.41 163.969 274.451C163.928 274.513 163.682 274.431 163.436 274.308C163.108 274.144 163.026 273.939 163.108 273.631C163.169 273.385 163.231 272.933 163.231 272.605C163.231 271.641 163.579 271.99 163.826 273.221Z"/>
        </mask>
        <path d="M92.0717 63.1078C91.9692 63.2309 91.8051 63.8463 91.7435 64.4616C91.6615 65.077 91.4769 66.1027 91.3333 66.718C90.923 68.4411 90.5538 72.4001 90.6564 74.0001C90.7179 74.7796 90.8615 76.1745 91.0256 77.077C91.2717 78.677 91.2512 78.8001 90.6564 81.077C89.8564 84.1539 88.9538 86.4309 86.5333 91.436C81.3641 102.103 74.9641 111.169 67.0461 119.005C63.4564 122.554 60.9948 124.687 55.0256 129.446C48.8923 134.349 45.5692 137.221 43.9076 139.026L42.5128 140.544L36.3589 138.226C22.882 133.18 15.7435 130.923 13.1179 130.923C11.5589 130.923 11.4769 131.354 12.8102 132.544C14.841 134.41 20.9743 137.61 32.6871 142.923L39.9076 146.185L40.2564 147.436C40.7282 149.18 41.3846 150.185 42.9641 151.641C46.1846 154.574 52.7692 156.749 58.5128 156.769C59.5999 156.769 60.6666 156.913 61.6923 157.221C63.1487 157.651 63.3333 157.774 65.3435 159.723L67.4564 161.774L67.3333 160.851C67.2717 160.359 67.1692 159.703 67.1282 159.374L67.0256 158.821L67.7025 159.149C68.0512 159.354 68.6871 159.703 69.1179 159.969L69.8564 160.441L70 163.128C70.1846 166.185 70.1846 166.205 72.0923 166.205C72.6871 166.205 73.2205 166.349 73.5897 166.615L74.1641 167.026L73.5487 169.015C73.2205 170.123 72.7692 171.621 72.5435 172.339C72.3179 173.057 72.1538 173.672 72.1948 173.692C72.2974 173.815 78.7589 168.913 79.3333 168.277C79.8256 167.744 80.9948 167.231 81.7538 167.231C81.8974 167.231 82.2666 167.354 82.5743 167.518C84.2769 168.38 84.564 167.949 83.1282 166.636C82.2871 165.857 82.123 165.795 81.0974 165.795C79.9487 165.795 79.3333 165.467 79.3333 164.872C79.3333 164.708 79.5794 164.072 79.8871 163.436C80.4205 162.369 80.482 162.308 81.2205 162.308C81.8564 162.308 82.041 162.41 82.1846 162.759C82.4307 163.374 83.6205 164.482 84.2153 164.667C84.4615 164.728 84.6666 164.872 84.6666 164.974C84.6666 165.057 85.241 165.733 85.9589 166.472C87.1487 167.723 87.4974 167.928 89.1794 168.359C89.8153 168.523 91.1897 168.728 91.3743 168.708C91.4974 168.667 91.9282 168.851 92.2974 169.077C93.282 169.672 93.9589 169.61 94.5948 168.872L95.1076 168.257L95.7846 168.667C97.6923 169.836 100.051 168.544 100.051 166.328C100.051 165.015 98.2461 163.559 96.9333 163.826L96.2974 163.949L96.441 163.108C96.5435 162.492 96.482 162.123 96.2564 161.774C95.8461 161.159 95.7846 161.159 94.9846 161.898C94.6153 162.246 94.3076 162.513 94.2666 162.513C94.1025 162.513 94.2256 159.231 94.4102 159.067C94.5333 158.944 95.0256 158.821 95.5384 158.78C96.2974 158.698 96.6871 158.821 97.7743 159.415C98.923 160.031 99.2717 160.133 100.626 160.133L102.164 160.154L102.492 161.303C102.697 161.98 103.21 162.964 103.826 163.764C104.851 165.118 105.077 165.528 105.261 166.431C105.323 166.739 105.692 167.374 106.082 167.826C106.472 168.298 106.841 168.831 106.903 169.036C107.169 169.918 107.477 173.077 107.477 175.128C107.477 176.995 107.415 177.405 107.149 177.528C106.964 177.631 106.656 177.774 106.472 177.877C106.267 177.959 106.061 178.267 106.041 178.533C106 178.8 105.877 179.108 105.774 179.231C105.467 179.539 105.569 180.051 106.123 181.057L106.656 182L106.02 182.759C105.672 183.19 105.385 183.682 105.385 183.846C105.385 184.031 105.672 184.626 106.02 185.18C106.903 186.554 106.903 187.477 106.041 188.441C105.672 188.851 105.179 189.59 104.954 190.062C104.708 190.533 104.338 191.149 104.133 191.415C103.908 191.682 103.744 192.072 103.744 192.277C103.744 192.482 103.456 193.18 103.128 193.836C102.779 194.492 102.451 195.395 102.39 195.846C102.123 197.549 100.605 203.333 99.723 205.959C99.2102 207.477 98.6974 209.221 98.5948 209.836C98.4717 210.472 98.2051 211.231 97.9794 211.539C97.7538 211.846 97.5897 212.318 97.6307 212.585C97.7128 213.262 96.482 217.036 95.4974 219.128C94.841 220.523 94.6564 221.18 94.5743 222.451C94.4717 223.846 94.3897 224.092 93.8769 224.585C93.5487 224.892 93.282 225.241 93.282 225.344C93.282 225.446 93.0974 225.754 92.8717 226.041C92.5846 226.41 92.4615 226.882 92.4615 227.559C92.4615 228.708 91.9076 231.21 91.5794 231.621C91.3333 231.908 91.0051 234.944 91.0051 236.769C91.0256 238.308 90.841 239.026 90.5128 238.903C90.1025 238.739 89.8769 239.395 90.164 239.867C90.4717 240.359 90.4717 240.933 90.164 241.241C89.9999 241.405 89.9999 241.549 90.164 241.733C90.2666 241.877 90.4307 242.636 90.5128 243.436L90.6564 244.872L89.4256 246.062L88.1948 247.272L87.2717 245.959C86.7794 245.262 85.9179 243.928 85.3641 243.046C84.2153 241.2 83.9282 240.954 83.1487 241.159C82.4102 241.344 82.4102 241.303 84.5025 246.615C86.4717 251.6 86.7179 252.133 87.641 253.139C88.0102 253.569 88.3999 254.164 88.4615 254.451C88.5435 254.739 88.8512 255.272 89.1384 255.621C89.5897 256.133 89.8974 256.277 90.7179 256.38C92.8923 256.626 93.0153 256.769 93.6923 259.846C93.9999 261.262 94.1025 262.472 94.1025 264.995C94.1025 268.38 94.1846 268.769 94.9641 268.769C95.2923 268.769 95.3333 268.974 95.3333 270.533C95.3333 271.498 95.4358 272.687 95.5589 273.2C95.8461 274.328 96.7692 275.19 97.5076 275.005C97.9794 274.882 97.9999 274.923 97.9999 276.01C97.9999 276.626 98.1435 277.528 98.3282 278.021C98.5128 278.513 98.6564 279.169 98.6358 279.457C98.6153 279.764 98.7999 280.626 99.0461 281.364L99.4564 282.739L98.2051 284.174C97.5076 284.954 96.8102 285.59 96.6461 285.59C96.5025 285.59 95.6615 285.98 94.7794 286.431C93.6512 287.046 92.9128 287.292 92.2358 287.313C91.0051 287.354 88.7487 288.482 87.641 289.59C86.7179 290.513 86.1025 292.072 86.1025 293.508C86.1025 294.328 86.1435 294.41 86.6153 294.41C86.9025 294.41 87.4358 294.533 87.8051 294.698C88.1743 294.841 89.7128 295.272 91.2102 295.621C94.0615 296.318 96.4205 296.482 97.7128 296.092C98.123 295.969 99.4564 295.949 101.2 296.072C105.2 296.298 105.179 296.298 105.179 295.928C105.179 295.744 105.303 295.641 105.467 295.703C105.61 295.764 106.677 296.031 107.805 296.277C109.754 296.708 110.02 296.728 111.682 296.482C112.687 296.339 113.938 296.195 114.492 296.154C115.928 296.051 116.503 295.887 117.015 295.395C117.364 295.067 117.426 294.882 117.282 294.513C116.892 293.508 116.851 291.58 117.159 289.344C117.426 287.19 117.528 286.923 118.41 285.487C119.149 284.298 119.333 283.887 119.149 283.662C118.985 283.457 119.026 283.292 119.354 283.005C119.6 282.8 119.99 282.246 120.256 281.795C120.769 280.913 121.938 277.282 122.041 276.257C122.103 275.662 122.082 275.641 121.303 275.662C120.81 275.682 119.744 276.072 118.41 276.749C117.241 277.323 116.195 277.795 116.092 277.795C115.908 277.795 115.395 276.749 115.313 276.236C115.292 276.113 115.046 275.785 114.759 275.498C114.267 274.985 114.246 274.964 114.554 273.877C114.718 273.262 114.882 271.969 114.903 271.005C114.964 269.774 115.087 269.077 115.333 268.708C115.744 268.051 115.703 267.354 115.005 264.831C114.574 263.251 114.554 262.923 114.759 261.713C114.882 260.933 115.395 259.498 115.99 258.267L116.974 256.154V253.754C116.974 251.662 116.913 251.292 116.544 250.8C115.723 249.672 115.108 249.385 113.426 249.323L111.846 249.241L111.19 248.195C110.82 247.6 110.513 246.862 110.513 246.513C110.513 246.185 110.287 245.426 110.02 244.851C109.754 244.277 109.549 243.559 109.549 243.251C109.549 242.533 109.097 242.082 107.846 241.487C107.272 241.221 106.82 240.913 106.82 240.81C106.82 240.38 109.015 236.421 110.041 235.026C111.497 233.015 112.851 230.41 112.564 230.123C112.195 229.754 112.338 229.282 113.179 228.154C113.631 227.539 114.164 226.677 114.369 226.205C114.554 225.754 115.026 224.79 115.395 224.051C115.785 223.313 116.318 222.267 116.585 221.733C116.872 221.2 117.528 220.133 118.082 219.374C118.636 218.615 119.661 216.892 120.379 215.539C121.097 214.185 122.144 212.441 122.697 211.682C123.703 210.287 123.723 210.287 123.969 210.759C124.113 211.046 124.482 212.215 124.769 213.385C125.282 215.436 125.303 215.6 125.097 218.082C124.974 219.498 124.81 221.057 124.749 221.549C124.667 222.185 124.708 222.554 124.974 222.944C125.282 223.415 125.282 223.58 124.995 224.851C124.81 225.61 124.687 226.923 124.687 227.764C124.687 228.605 124.687 230.39 124.667 231.744C124.626 233.098 124.687 235.169 124.769 236.359C124.831 237.549 124.892 239.313 124.892 240.298C124.872 241.508 125.015 242.78 125.364 244.298C125.631 245.508 125.918 246.841 125.979 247.272C126.061 247.744 126.308 248.133 126.615 248.339C126.944 248.564 127.108 248.831 127.067 249.118C127.046 249.426 127.169 249.651 127.456 249.774C127.682 249.877 128.072 250.267 128.318 250.636C128.728 251.272 128.749 251.395 128.482 252.4C128.338 252.995 128.133 253.487 128.031 253.487C127.928 253.467 127.169 253.139 126.328 252.708C124.769 251.949 124.461 251.928 123.867 252.646C123.723 252.81 123.661 253.139 123.744 253.364C124.072 254.451 132.031 261.672 133.877 262.554C134.841 263.026 135.067 263.067 135.785 262.882L136.585 262.677L137.774 264.133C140.072 266.964 141.487 268.954 142.944 271.354C144.872 274.554 145.672 275.621 146.513 276.154L147.231 276.605V278.287V279.99L148.256 280.954C148.81 281.467 149.364 281.898 149.487 281.898C149.631 281.898 149.631 282.041 149.467 282.349C149.323 282.615 149.261 283.436 149.323 284.544C149.385 285.61 149.323 286.759 149.159 287.477C148.851 288.81 147.723 290.698 147.005 291.108C146.226 291.539 145.528 292.544 145.056 293.918C144.831 294.615 144.482 295.354 144.297 295.539C144.113 295.723 143.949 296.072 143.949 296.318C143.969 296.872 144.831 297.898 145.303 297.898C145.487 297.898 145.918 298.144 146.267 298.431C146.882 298.944 146.985 298.964 148.461 298.841C150.574 298.636 157.979 298.267 159.251 298.287C160.236 298.308 160.338 298.267 161.159 297.344C161.918 296.523 162.02 296.298 161.938 295.723C161.836 295.169 161.959 294.923 162.554 294.226C163.128 293.528 163.251 293.262 163.149 292.81C162.492 290.164 162.554 289.713 163.579 289.692C164.072 289.692 164.236 289.508 164.626 288.462C165.344 286.595 165.344 286.349 164.79 283.498L164.277 280.769L164.769 278.615C165.056 277.426 165.282 275.949 165.303 275.333C165.323 273.898 164.585 271.846 163.128 269.2C162.41 267.949 161.938 266.8 161.815 266.041C161.692 265.405 161.508 264.687 161.385 264.462C160.872 263.518 159.846 264.154 158.308 266.349C157.938 266.903 157.61 267.333 157.61 267.333C157.59 267.333 157.59 265.651 157.61 263.58C157.61 261.528 157.549 259.559 157.446 259.21C157.344 258.8 156.933 258.328 156.338 257.898C155.128 257.036 154.615 256.195 154.615 255.026C154.615 254.328 154.431 253.815 153.897 252.933C153.344 252.031 153.138 251.415 152.974 250.226C152.749 248.4 152.215 247.251 151.272 246.533C150.472 245.918 148.236 244.872 147.292 244.687C146.779 244.564 146.513 244.318 146.103 243.6C145.754 242.944 145.651 242.574 145.795 242.431C146.061 242.164 146.061 241.344 145.795 241.18C145.692 241.118 145.303 241.036 144.933 240.995C144.564 240.954 143.805 240.646 143.272 240.298C142.718 239.949 141.938 239.621 141.528 239.539L140.769 239.415L140.728 237.221C140.687 235.805 140.79 234.657 140.974 234C141.59 231.826 142.103 229.446 142.103 228.708C142.103 228.298 142.39 227.251 142.738 226.369C143.292 224.995 143.395 224.462 143.436 222.615C143.456 221.405 143.682 219.641 143.908 218.615C144.154 217.528 144.318 215.99 144.318 214.903C144.338 213.898 144.482 212.359 144.667 211.518C144.851 210.698 145.056 209.672 145.118 209.282C145.282 208.215 146.205 205.426 146.738 204.339C147.005 203.826 147.149 203.21 147.108 202.964C147.046 202.739 147.313 201.508 147.703 200.215C148.174 198.657 148.523 196.872 148.769 194.8L149.138 191.703L148.667 189.262C148.42 187.928 147.805 185.569 147.292 184.051C146.472 181.549 146.41 181.159 146.533 179.99C146.636 179.026 146.595 178.533 146.349 178.041C146.185 177.672 145.897 177.036 145.713 176.605C145.405 175.887 143.067 173.262 141.303 171.662C140.482 170.903 137.528 166.677 136.626 164.954C136.256 164.257 135.826 163.539 135.661 163.354C134.944 162.574 134.718 161.508 134.636 158.698C134.574 156.564 134.636 155.785 134.841 155.354C135.046 155.005 135.128 154.308 135.087 153.262C135.046 151.805 135.087 151.662 135.641 150.985C135.99 150.595 136.646 150.021 137.138 149.713C138.554 148.831 138.205 147.744 136.523 147.744H135.846L136.051 145.836C136.174 144.81 136.379 143.744 136.523 143.477C136.687 143.21 137.2 142.821 137.692 142.615C138.677 142.185 138.923 141.61 138.451 140.81C138.246 140.482 137.959 140.359 137.467 140.359C136.851 140.359 136.769 140.298 136.769 139.846C136.769 139.559 136.81 139.333 136.872 139.333C136.933 139.333 137.487 139.682 138.123 140.092C138.861 140.585 139.21 140.933 139.128 141.139C138.595 142.513 138.779 143.21 139.846 143.928C140.831 144.564 141.077 144.585 141.754 144.051L142.287 143.621L144.031 144.913C144.995 145.631 147.518 147.374 149.651 148.769L153.528 151.333L154.185 153.959C155.128 157.754 156.092 160.421 157.118 162.123C157.631 162.964 158.246 164.092 158.492 164.667C159.026 165.877 159.764 166.718 160.769 167.231C161.651 167.682 163.005 167.518 164.154 166.841C164.585 166.595 164.933 166.41 164.954 166.451C164.974 166.492 165.2 166.78 165.446 167.108C165.918 167.744 166.041 168.851 165.672 169.221C165.508 169.385 165.528 169.569 165.713 169.918C165.856 170.185 166.144 170.985 166.328 171.662C166.595 172.728 166.615 172.995 166.39 173.405C166.246 173.672 166.123 174.328 166.103 174.841C166.103 175.703 166.041 175.826 165.569 175.928C165.118 176.051 165.056 176.154 165.179 176.626C165.241 176.933 165.508 177.405 165.754 177.651C166.144 178.062 166.349 178.123 167.169 178.041C168.277 177.939 168.564 178.144 168.954 179.313C169.261 180.215 170.144 181.385 170.533 181.385C170.718 181.385 171.067 181.877 171.354 182.554C172.215 184.523 172.318 184.687 172.872 184.954C173.446 185.262 174.472 185.077 174.738 184.626C174.985 184.257 174.964 182.862 174.738 182.041C174.636 181.692 174.574 181.385 174.595 181.385C174.636 181.385 175.067 181.528 175.559 181.713C176.051 181.898 177.056 182.205 177.795 182.41C179.415 182.841 180.954 183.785 181.61 184.749C182.061 185.405 182.082 185.569 181.897 186.431C181.733 187.128 181.446 187.621 180.872 188.195C179.908 189.098 179.867 189.344 180.544 189.98L181.056 190.451L181.979 190.021C183.518 189.262 184.256 188.318 184.954 186.205C185.508 184.523 185.549 184.195 185.385 183.108C185.097 181.159 184.81 180.462 183.949 179.477C183.497 178.964 183.128 178.431 183.128 178.267C183.128 177.426 181.487 175.518 180.585 175.313C179.559 175.087 179.538 175.005 180.544 174.369C181.077 174.041 181.549 173.651 181.631 173.467C181.692 173.303 181.405 172.667 180.995 172.051C180.133 170.739 180.092 170.595 180.728 171.026C180.974 171.19 181.59 171.969 182.103 172.769C182.615 173.549 183.128 174.205 183.272 174.205C183.723 174.205 184.01 173.344 184.031 171.969C184.031 170.862 183.887 170.185 183.149 168.154C182.656 166.8 182.082 165.344 181.856 164.913C181.651 164.482 181.487 163.928 181.508 163.682C181.59 162.657 181.426 162.308 179.846 160.462C178.944 159.395 178.205 158.472 178.205 158.369C178.205 158.287 178.451 157.713 178.759 157.077C179.272 156.051 179.292 155.887 179.046 155.272C178.903 154.923 178.779 154.513 178.8 154.41C178.8 154.287 178.82 153.836 178.841 153.364C178.861 152.913 178.718 152.01 178.533 151.374C178.123 150 177.938 149.898 175.354 149.898C173.733 149.898 173.59 149.877 173.056 149.344C172.626 148.913 172.297 148.769 171.682 148.769C170.985 148.769 170.841 148.687 170.738 148.277C170.677 147.99 170.697 147.539 170.82 147.231C171.128 146.39 171.067 146.123 170.41 145.467C169.897 144.933 169.713 144.872 169.097 144.974C168.277 145.139 167.128 144.585 167.128 144.031C167.128 143.846 166.861 143.58 166.513 143.436C166.185 143.292 165.897 143.169 165.897 143.128C165.897 143.108 165.2 141.2 164.359 138.903C163.497 136.605 162.267 132.831 161.59 130.513C160.933 128.195 159.456 123.313 158.349 119.641C153.61 104.195 152.564 99.5181 151.436 88.4616C151.272 86.718 150.944 84.318 150.718 83.1283C150.267 80.7283 149.692 75.3129 149.692 73.4668C149.692 72.4001 149.631 72.236 149.097 71.8668C148.379 71.3539 148.092 71.3334 147.477 71.7642C147.128 72.0103 147.026 72.2565 147.046 72.8309C147.067 73.3232 146.636 74.8411 145.836 76.9745C145.159 78.8411 144.585 80.5437 144.523 80.7693C144.461 81.118 144.318 81.1796 143.395 81.118C142 81.0155 141.344 81.3847 140.318 82.8616C139.395 84.195 137.364 87.6821 136.4 89.6104C135.559 91.2719 134.431 92.0309 129.61 94.1232C128.667 94.5334 128.933 94.6975 130.02 94.3898C130.513 94.2462 131.436 94.1232 132.051 94.1027C132.667 94.0822 133.364 94.0001 133.569 93.8975C133.897 93.7539 133.938 93.795 133.815 94.1232C133.733 94.3283 133.61 94.7386 133.569 95.0257C133.508 95.3129 132.892 96.1129 132.215 96.8103C131.518 97.5078 131.005 98.1437 131.087 98.2257C131.272 98.4104 132.81 97.118 135.005 94.9232C136.277 93.6514 136.708 93.3027 136.42 93.795C136.195 94.1847 135.477 95.3745 134.841 96.4411C133.754 98.2462 133.487 98.9232 133.856 98.9232C134.02 98.9027 136.133 95.8257 137.261 93.918C138.123 92.4821 138.164 92.5232 137.549 94.1437C137.303 94.8001 137.077 95.3745 137.077 95.436C137.056 95.4975 136.892 96.0719 136.687 96.7488C136.318 98.0206 136.42 98.4924 136.913 97.7334C137.344 97.118 137.631 97.1591 137.385 97.8155C137.261 98.1027 137.22 98.4104 137.261 98.4924C137.323 98.5745 137.241 99.0668 137.077 99.6001C136.667 100.954 137.077 101.036 137.692 99.7232C138.164 98.6975 138.185 98.677 138.328 99.2104C138.39 99.5181 138.308 100.421 138.103 101.282C137.569 103.539 138.02 103.744 138.738 101.59C139.067 100.626 139.128 100.544 139.19 101.015C139.251 101.528 139.641 101.857 139.641 101.426C139.641 101.323 139.826 101.036 140.051 100.769C140.564 100.195 140.564 100.277 140.051 102.287C139.744 103.457 139.415 104.215 138.841 104.954C137.979 106.082 137.733 106.739 137.385 108.769C137.056 110.574 136.667 111.457 136.277 111.313C136.092 111.251 135.272 111.559 134.41 112.031C133.549 112.503 132.769 112.831 132.667 112.769C132.564 112.708 132.42 112.769 132.359 112.872C132.195 113.159 131.436 112.544 131.436 112.133C131.436 111.99 131.723 111.58 132.051 111.231C132.728 110.533 132.831 109.733 132.379 108.667C132.195 108.215 132.174 107.826 132.318 107.231C132.626 106 132.544 102.492 132.174 100.79C131.661 98.3488 131.6 98.4104 130.595 102.39C130.164 104.092 129.303 106.739 128.687 108.298C127.908 110.328 127.477 111.744 127.231 113.282C127.046 114.472 126.8 115.764 126.697 116.174C126.513 116.913 126.513 116.913 125.672 116.769C125.2 116.687 124.585 116.421 124.277 116.215C123.764 115.805 123.744 115.744 123.723 113.569C123.723 111.867 123.6 110.841 123.19 109.241L122.636 107.128L123.128 106.267C123.723 105.159 124.092 103.231 124.051 101.2C124.031 100.339 124.092 98.5745 124.174 97.2822C124.461 92.3796 123.313 89.2616 120.359 86.8821C119.62 86.3078 118.841 85.4668 118.595 85.036C117.364 82.7386 116.769 82.0822 114.903 80.9539C113.036 79.8052 111.333 79.8052 109.938 80.9539C109.631 81.2206 108.933 81.6924 108.379 82.0001C107.169 82.6975 105.138 84.7488 105.261 85.118C105.323 85.2616 105.241 85.3847 105.056 85.3847C104.892 85.3847 104.708 85.6514 104.626 86.0001C104.564 86.3898 104.174 86.9232 103.579 87.436L102.656 88.2155L102.02 87.7437C101.138 87.0668 100.174 85.3847 99.4564 83.3334C99.1282 82.3693 98.6358 80.995 98.3487 80.2565C97.7743 78.7796 97.6512 77.9796 97.3846 74.5129C97.2205 72.0309 96.6666 69.9796 95.2102 66.2668C94.8205 65.2822 94.5128 64.3386 94.5128 64.1745C94.5128 64.0103 94.4102 63.6411 94.2871 63.3539C94.082 62.9027 93.9179 62.8411 93.1589 62.8616C92.6666 62.8616 92.1743 62.9847 92.0717 63.1078ZM92.6051 68.9129C92.564 69.3437 92.523 69.036 92.523 68.2565C92.523 67.4565 92.564 67.1283 92.6051 67.477C92.6461 67.8463 92.6461 68.5027 92.6051 68.9129ZM148.379 75.1693C148.318 75.6616 148.215 76.6052 148.154 77.2822C147.949 79.395 147.579 81.6924 147.436 81.6924C147.374 81.6924 147.149 81.5693 146.944 81.4257C146.595 81.1796 146.615 81.036 147.128 78.8206C147.415 77.5283 147.764 75.9693 147.908 75.3745C148.174 74.1027 148.523 73.9386 148.379 75.1693ZM139.703 85.3232C139.559 85.9796 139.395 86.7386 139.333 87.0257C139.251 87.5181 137.015 90.2052 136.851 90.0411C136.81 90.0001 137.056 89.4257 137.405 88.7488C139.005 85.7539 139.867 84.1539 139.928 84.1539C139.949 84.1539 139.867 84.6873 139.703 85.3232ZM100.236 88.1745C100.318 88.1129 100.605 88.5642 100.892 89.1796C101.179 89.795 101.282 90.2052 101.138 90.0822C100.872 89.836 99.8461 88.0719 99.8666 87.8668C99.8666 87.8052 99.9282 87.8668 99.9897 88.0103C100.031 88.1334 100.154 88.2155 100.236 88.1745ZM101.836 89.4462L101.61 89.9386L101.364 89.2616C101.22 88.8719 101.097 88.4001 101.097 88.195C101.077 87.8873 101.179 87.9283 101.569 88.4001C101.979 88.8719 102.02 89.036 101.836 89.4462ZM100.441 90.0206C100.851 90.6155 101.015 91.0462 100.913 91.2309C100.81 91.436 100.605 91.1693 100.215 90.3078C99.9282 89.6309 99.7025 89.077 99.7435 89.077C99.7846 89.077 100.092 89.5078 100.441 90.0206ZM100.051 91.477C100.4 92.2565 100.461 92.6668 100.338 93.4873L100.195 94.5129L99.9282 93.877C99.7846 93.5283 99.5179 93.1796 99.3333 93.118C98.882 92.9334 98.9846 90.5129 99.4564 90.5129C99.5384 90.5129 99.8256 90.9437 100.051 91.477ZM134.944 92.318C134.82 92.5437 134.041 92.995 133.179 93.3437C132.318 93.6719 131.661 93.8975 131.723 93.836C131.826 93.7334 134.903 92.0103 135.087 91.9693C135.108 91.9488 135.046 92.1129 134.944 92.318ZM136.359 92.6257C136.359 92.6463 135.867 93.1386 135.292 93.6924L134.205 94.718L135.231 93.6309C136.174 92.6463 136.359 92.4616 136.359 92.6257ZM138.513 93.9386C138.451 94.2668 138.308 94.595 138.205 94.6975C138.103 94.8001 138.123 94.5539 138.246 94.1437C138.513 93.2616 138.718 93.118 138.513 93.9386ZM95.0051 98.6975C95.0871 99.5386 95.4769 101.221 95.8666 102.451C96.2564 103.682 96.564 104.831 96.564 104.974C96.564 105.139 96.3384 105.59 96.0717 105.98C95.6615 106.574 95.5589 107.067 95.4358 108.913C95.1897 112.872 94.9846 113.877 94.2051 115.026C93.4256 116.174 92.1128 119.518 91.9487 120.769C91.9076 121.221 91.7641 121.918 91.641 122.308C91.3128 123.457 91.3948 125.036 91.8461 126.062C92.1948 126.821 92.2358 127.231 92.1333 128.544C92.0102 129.98 92.0307 130.103 92.3794 130.103C92.8307 130.123 93.7743 131.908 93.7948 132.769C93.7948 133.18 93.9999 133.385 94.8615 133.795C95.7846 134.246 95.9282 134.41 96.1333 135.169C96.482 136.482 96.1128 139.333 95.4358 140.544C93.9384 143.231 92.6051 146.759 92.3589 148.667C92.2564 149.508 92.1128 149.774 91.5999 150.144C91.0871 150.492 90.9025 150.533 90.5948 150.349C90.2871 150.144 90.123 150.185 89.7538 150.554L89.3025 151.026L89.7948 151.539C90.2256 151.99 90.2461 152.113 89.9999 152.257C89.8358 152.359 89.6307 152.462 89.5487 152.462C89.4666 152.462 88.7897 153.036 88.0512 153.713L86.7179 154.985L85.8153 154.636C84.8717 154.267 84.3999 153.754 83.2512 151.846C82.3692 150.39 81.2615 149.241 80.4615 148.974L79.8256 148.769L81.1794 147.374C83.4153 145.098 85.4051 141.426 86.882 136.831C88.7692 131.067 89.7128 126.082 91.641 111.662C92.5435 104.954 93.282 99.9078 93.8358 96.9745L94.164 95.1283L94.5128 96.1539C94.6974 96.7078 94.923 97.8565 95.0051 98.6975ZM137.713 96.2155C137.344 96.5437 137.344 96.5437 137.59 96.0924C137.713 95.8257 137.877 95.6616 137.959 95.7232C138.02 95.8052 137.918 96.0103 137.713 96.2155ZM147.538 109.569C147.928 113.59 148.461 118.103 149.179 123.333C149.467 125.426 149.692 127.21 149.692 127.292C149.692 127.374 149.344 127.21 148.933 126.923C147.969 126.287 147.169 126.267 146.061 126.903L145.179 127.415L144.79 126.841C144.564 126.533 144.236 125.898 144.031 125.405C143.661 124.482 143.149 124.154 142.082 124.154C141.754 124.154 140.872 123.887 140.133 123.539C138.882 122.985 138.779 122.882 138.903 122.41C138.985 122.062 138.861 121.569 138.513 120.872C138.226 120.318 138 119.662 138 119.415C138 119.169 138.39 118.103 138.841 117.036C139.744 115.005 139.805 114.226 139.108 113.467C138.656 112.974 138.82 112.585 140.359 110.328C141.077 109.262 142.164 107.498 142.738 106.39C143.333 105.262 144.195 103.805 144.646 103.128C145.118 102.451 145.815 101.241 146.205 100.462L146.923 99.0462L147.067 102.595C147.149 104.564 147.354 107.703 147.538 109.569ZM78.3897 150.595C78.6564 150.882 78.7179 151.21 78.6358 151.846C78.5128 152.892 77.4666 155.354 77.1794 155.272C76.9128 155.169 76.7076 153.774 76.6871 151.908C76.6666 150.677 76.7282 150.431 77.0358 150.349C77.7538 150.164 78.041 150.205 78.3897 150.595ZM175.292 150.657C175.764 151.128 175.559 151.436 174.82 151.436C174.369 151.436 174.103 151.333 174.103 151.169C174.103 150.841 174.513 150.41 174.82 150.41C174.944 150.41 175.149 150.513 175.292 150.657ZM83.2512 154.636C83.9076 155.333 84.7076 155.744 85.4871 155.744C85.8153 155.744 86.1025 155.785 86.1025 155.826C86.1025 155.887 85.7333 156.462 85.3025 157.139C84.1743 158.821 83.3743 159.005 82.7589 157.692C82.5743 157.303 82.2871 156.974 82.1025 156.974C81.8564 156.974 81.7948 156.708 81.7948 155.682C81.7948 154.964 81.8564 154.308 81.9384 154.246C82.2256 153.959 82.7589 154.123 83.2512 154.636ZM178.82 168.236C178.82 168.462 178.738 168.441 178.513 168.133C178.349 167.928 178.226 167.6 178.226 167.436C178.226 167.21 178.287 167.231 178.513 167.518C178.677 167.744 178.82 168.072 178.82 168.236ZM106.656 189.426C106.328 190.021 106 190.657 105.938 190.821C105.856 191.046 105.815 191.005 105.815 190.718C105.795 190.328 106.903 188.359 107.149 188.359C107.21 188.359 106.985 188.851 106.656 189.426ZM156.256 260.174C156.4 260.4 156.544 261.118 156.605 261.754L156.708 262.923L156.051 262.226C155.518 261.672 155.415 261.426 155.518 260.913C155.579 260.564 155.538 260.174 155.415 260.031C155.231 259.805 155.272 259.744 155.6 259.744C155.846 259.744 156.133 259.928 156.256 260.174ZM101.364 272.81C101.631 273.241 101.897 273.959 101.959 274.41L102.082 275.231L101.077 274.103C100.01 272.913 99.9076 272.687 100.297 272.298C100.687 271.908 100.831 271.99 101.364 272.81ZM163.826 273.221C163.949 273.857 164.01 274.41 163.969 274.451C163.928 274.513 163.682 274.431 163.436 274.308C163.108 274.144 163.026 273.939 163.108 273.631C163.169 273.385 163.231 272.933 163.231 272.605C163.231 271.641 163.579 271.99 163.826 273.221Z" fill="black" stroke="white" stroke-width="2" mask="url(#path-6-inside-1)"/>
    </g>
    <defs>
        <filter id="filter0_d" x="11.8745" y="52.8584" width="193.594" height="256.046" filterUnits="userSpaceOnUse" color-interpolation-filters="sRGB">
            <feFlood flood-opacity="0" result="BackgroundImageFix"/>
            <feColorMatrix in="SourceAlpha" type="matrix" values="0 0 0 0 0 0 0 0 0 0 0 0 0 0 0 0 0 0 127 0"/>
            <feOffset dx="10"/>
            <feGaussianBlur stdDeviation="5"/>
            <feColorMatrix type="matrix" values="0 0 0 0 0.0235294 0 0 0 0 0.117647 0 0 0 0 0.196078 0 0 0 0.95 0"/>
            <feBlend mode="normal" in2="BackgroundImageFix" result="effect1_dropShadow"/>
            <feBlend mode="normal" in="SourceGraphic" in2="effect1_dropShadow" result="shape"/>
        </filter>
    </defs>
</svg>
