<svg width="333" height="320" viewBox="0 0 333 320" fill="none" xmlns="http://www.w3.org/2000/svg">
    <rect x="0.5" y="18.5" width="296" height="299" fill="white" stroke="#ECB244"/>
    <path d="M242.188 303.088H243.124C243.196 303.568 243.256 304.108 243.304 304.708C243.376 305.308 243.424 305.92 243.448 306.544C243.496 307.168 243.52 307.78 243.52 308.38C243.544 308.98 243.544 309.52 243.52 310H224.404V308.164L239.38 286.672H228.292L226.096 291.712H225.196C225.124 291.208 225.052 290.656 224.98 290.056C224.932 289.456 224.884 288.844 224.836 288.22C224.812 287.596 224.788 286.996 224.764 286.42C224.764 285.82 224.764 285.28 224.764 284.8H243.16V286.672L228.256 308.128H239.992L242.188 303.088ZM263.081 284.8C263.057 285.76 263.009 286.732 262.937 287.716C262.889 288.676 262.805 289.648 262.685 290.632H261.749L260.273 286.672H252.425V296.212H258.293L259.697 293.548H260.597C260.741 295.924 260.741 298.348 260.597 300.82H259.697L258.293 298.084H252.425V308.128H260.705L262.469 303.808H263.369C263.537 304.816 263.657 305.836 263.729 306.868C263.801 307.9 263.813 308.944 263.765 310H246.017V308.956C246.857 308.572 247.841 308.284 248.969 308.092V286.744C248.489 286.648 247.997 286.528 247.493 286.384C246.989 286.216 246.497 286.036 246.017 285.844V284.8H263.081ZM285.618 303.448H286.554C286.674 304.12 286.782 304.972 286.878 306.004C286.974 307.012 286.998 307.996 286.95 308.956C286.59 309.244 286.158 309.484 285.654 309.676C285.15 309.844 284.61 309.988 284.034 310.108C283.482 310.228 282.906 310.312 282.306 310.36C281.73 310.408 281.178 310.432 280.65 310.432C278.634 310.432 276.834 310.18 275.25 309.676C273.666 309.148 272.322 308.356 271.218 307.3C270.138 306.244 269.298 304.9 268.698 303.268C268.122 301.612 267.834 299.656 267.834 297.4C267.834 295.048 268.158 293.056 268.806 291.424C269.454 289.768 270.33 288.424 271.434 287.392C272.538 286.336 273.822 285.568 275.286 285.088C276.75 284.608 278.286 284.368 279.894 284.368C281.478 284.368 282.81 284.476 283.89 284.692C284.97 284.884 285.918 285.184 286.734 285.592C286.734 285.976 286.722 286.432 286.698 286.96C286.674 287.464 286.638 288.004 286.59 288.58C286.542 289.156 286.482 289.72 286.41 290.272C286.338 290.824 286.266 291.328 286.194 291.784H285.258L283.386 286.6C283.122 286.456 282.678 286.36 282.054 286.312C281.454 286.264 280.854 286.24 280.254 286.24C279.054 286.24 277.914 286.468 276.834 286.924C275.778 287.356 274.842 288.04 274.026 288.976C273.234 289.888 272.598 291.052 272.118 292.468C271.638 293.86 271.398 295.504 271.398 297.4C271.398 299.104 271.614 300.652 272.046 302.044C272.478 303.412 273.102 304.588 273.918 305.572C274.734 306.532 275.73 307.276 276.906 307.804C278.082 308.308 279.414 308.56 280.902 308.56C281.694 308.56 282.354 308.5 282.882 308.38C283.41 308.26 283.758 308.104 283.926 307.912L285.618 303.448Z" fill="#001322"/>
    <rect x="183.5" y="0.5" width="149" height="151" fill="white" stroke="#ECB244"/>
    <path d="M258 151C299.421 151 333 117.421 333 76C333 34.5786 299.421 1 258 1C216.579 1 183 34.5786 183 76C183 117.421 216.579 151 258 151Z" fill="#ECB244"/>
    <path d="M253.782 94.0469H283.313V109.75H265.125L265.875 122.875H250.594V109.891H232.407C232.407 104.734 231.797 99.625 232.735 94.8438C233.203 92.2656 235.922 90.0156 237.563 87.8125C243.314 80.6037 249.111 73.4317 254.953 66.2969L262.078 57.9531H233.766V42.25H250.594V29.125H265.266V41.9219H283.547C283.547 47.2187 284.203 52.375 283.266 57.1562C282.797 59.7344 280.125 61.9844 278.297 64.1875C272.531 71.3965 266.718 78.5685 260.86 85.7031C258.588 88.558 256.228 91.3406 253.782 94.0469Z" fill="white"/>
    <g filter="url(#filter0_d)">
        <path d="M143.619 71.3025C143.395 71.4704 142.667 71.8063 142.052 72.0303C137.069 73.8777 136.36 74.1763 128.485 77.6845C122.682 80.2597 119.397 81.5659 114.583 83.2267C112.12 84.0665 109.638 84.9622 109.078 85.2234C108.518 85.4847 107.716 85.8019 107.305 85.9326C106.895 86.0632 105.42 86.679 104.04 87.2948C102.659 87.9106 100.102 88.8996 98.3667 89.4781C96.6313 90.0753 94.9704 90.7471 94.6905 90.9523C94.392 91.1763 94.0561 91.3442 93.9254 91.3442C93.7948 91.3442 93.2163 91.6614 92.6565 92.0347C91.8541 92.5758 91.4809 92.7064 90.921 92.6691C90.5105 92.6505 90.044 92.7438 89.876 92.8931C89.5401 93.173 87.7487 93.9567 87.4315 93.9567C87.3195 93.9567 86.6664 94.218 85.9946 94.5352C85.2108 94.8898 84.595 95.0764 84.2778 95.0204C83.9232 94.9457 83.6247 95.0764 83.1022 95.5615C82.3371 96.252 82.0572 96.3453 81.9079 95.9348C81.8519 95.7855 81.516 95.6175 81.1614 95.5429C80.7696 95.4682 80.1351 95.095 79.5379 94.5539C77.5412 92.7438 77.6719 92.7811 74.7794 92.8931C72.2976 93.005 71.0286 93.1356 70.4501 93.3409C70.3008 93.3969 69.7224 93.4715 69.1625 93.5089C68.1549 93.5648 67.1472 94.0127 66.8859 94.5165C66.8113 94.6658 66.6993 95.0204 66.6247 95.3003C66.5687 95.6548 66.4007 95.8228 66.1768 95.8228C65.5423 95.8228 65.3371 96.3266 64.9639 98.6406C64.7213 100.133 64.8706 100.787 65.7103 101.925C65.9902 102.317 65.9715 102.335 65.4304 102.615C65.1318 102.783 64.6839 102.914 64.4414 102.914C63.9375 102.914 62.7246 103.324 61.3623 103.959C60.8025 104.201 60.224 104.407 60.0374 104.407C59.8508 104.407 59.4216 104.575 59.067 104.78C56.6038 106.198 49.662 109.203 45.9112 110.49C44.4743 110.975 43.1307 111.479 42.9254 111.61C42.7202 111.722 41.8431 112.058 40.9661 112.338C40.089 112.636 38.2043 113.401 36.7674 114.054C33.3338 115.641 28.7059 117.507 26.0374 118.402C25.4776 118.589 23.4249 119.298 21.4655 119.989C19.5248 120.66 16.707 121.631 15.2141 122.135C13.7213 122.638 11.1274 123.59 9.44794 124.281C7.76847 124.952 6.089 125.568 5.73444 125.643C5.36123 125.717 5.04399 125.867 5.00667 125.979C4.89471 126.333 6.21962 127.863 6.92873 128.199C7.52588 128.479 7.91776 128.517 9.50393 128.405C12.6949 128.181 17.3415 127.416 23.7981 126.016C26.6159 125.419 29.359 124.822 29.8629 124.728C31.5983 124.355 35.0879 123.422 35.741 123.124C36.0956 122.974 37.0286 122.732 37.7937 122.601C38.5588 122.47 40.3316 122.06 41.7125 121.705C43.0934 121.351 44.6609 121.015 45.1647 120.94C46.359 120.791 48.8782 120.063 54.5325 118.216C57.0144 117.395 59.4589 116.63 59.9441 116.536C60.4293 116.424 60.9518 116.219 61.1197 116.088C61.269 115.958 61.6982 115.753 62.0528 115.622C62.6126 115.435 62.7432 115.454 62.9298 115.734C63.0605 115.902 63.1724 116.107 63.1724 116.182C63.1724 116.238 63.415 116.406 63.7136 116.518C64.1428 116.704 64.4227 116.686 65.3371 116.368C65.9342 116.163 66.9419 115.883 67.5577 115.734C69.1252 115.342 73.0067 114.204 75.1527 113.513L76.9628 112.935L80.0045 114.764C84.0165 117.171 84.2778 117.395 87.5808 120.959C88.9057 122.396 89.1109 122.657 89.1109 123.086C89.1109 123.534 87.1516 126.035 85.9759 127.08C83.662 129.17 81.0868 134.376 81.0868 136.989C81.0868 137.343 81.3481 138.519 81.6839 139.638L82.2624 141.635L82.0572 145.181C81.9265 147.121 81.8332 149.902 81.8332 151.339V153.951L82.617 155.575C83.0462 156.489 83.494 157.217 83.606 157.217C84.0725 157.217 84.2591 158.318 84.4457 162.069C84.6697 166.939 85.0616 168.469 87.1516 172.967C87.6181 173.956 87.6367 174.105 87.4315 174.758C87.1516 175.598 87.2449 176.176 88.01 178.397C88.4578 179.666 88.6444 180.618 88.7751 182.316C88.8684 183.547 88.999 185.059 89.055 185.675C89.2789 188.212 89.0363 191.068 88.4578 192.523C88.3645 192.747 88.5325 193.027 89.0176 193.475C89.8387 194.221 89.8201 194.538 88.887 196.535C88.4951 197.375 88.2899 198.14 88.2152 198.998C88.1219 200.51 88.3272 200.827 89.2976 200.473C89.8574 200.286 89.9507 200.305 90.2679 200.697C90.7904 201.331 90.8651 201.928 90.6225 203.29C90.3799 204.634 90.5292 205.754 91.1263 206.948C91.7981 208.347 92.3019 208.478 93.1417 207.47C93.8695 206.612 94.224 206.724 94.7652 207.974C94.9704 208.478 95.269 208.945 95.4183 209.001C95.5489 209.057 96.0341 209.001 96.5006 208.889C97.8442 208.553 97.9375 208.665 97.8442 210.512C97.8069 211.389 97.8255 212.136 97.9002 212.192C98.0308 212.266 98.7026 214.375 99.4677 217.118C99.6356 217.678 99.9342 218.648 100.158 219.264C100.363 219.88 100.625 220.72 100.737 221.13C101.054 222.399 101.968 224.937 102.267 225.385C102.416 225.609 102.864 226.691 103.275 227.773C103.666 228.856 104.133 229.994 104.301 230.33C104.842 231.356 104.954 231.188 101.24 235.294C100.569 236.04 99.7103 237.066 99.3184 237.57C98.3107 238.858 94.28 242.478 92.9364 243.281C92.3206 243.654 91.4436 244.064 90.977 244.176C90.0813 244.419 89.8387 244.643 90.0067 245.072C90.0813 245.296 90.4545 245.333 92.3579 245.221C94.9145 245.091 98.1241 244.643 99.3557 244.251C99.8223 244.102 100.419 243.99 100.699 243.99C101.352 243.99 105.29 242.665 106.764 241.937C107.399 241.62 107.958 241.377 108.033 241.377C108.089 241.377 108.145 241.844 108.145 242.403C108.145 243.392 108.182 243.486 109.134 244.512C111.131 246.677 111.355 247.181 112.4 251.547C112.698 252.779 113.37 255.13 113.874 256.772C114.396 258.414 115.031 260.803 115.292 262.091C115.572 263.378 116.02 265.058 116.281 265.823C116.542 266.588 117.046 268.025 117.401 269.014C117.737 270.003 118.166 271.122 118.371 271.477C118.558 271.832 119.211 273.642 119.789 275.47C120.386 277.299 121.114 279.538 121.431 280.472C121.73 281.386 122.215 282.897 122.514 283.83C123.279 286.294 126.974 294.504 127.925 295.867C128.728 297.005 130.053 299.599 130.351 300.625C130.538 301.241 131.004 302.491 131.396 303.424C132.012 304.88 132.105 305.29 132.105 306.503C132.105 307.268 132.031 308.276 131.938 308.724C131.751 309.75 131.9 309.862 133.729 309.862H135.147L135.912 309.06C137.013 307.847 138.189 305.216 138.189 303.928C138.189 303.107 138.282 302.771 138.674 302.249C139.159 301.614 139.178 301.577 139.047 299.524C138.935 297.714 138.842 297.285 138.282 296.109C137.946 295.382 137.554 294.728 137.461 294.654C137.125 294.467 136.528 293.18 136.323 292.228C136.155 291.463 136.211 291.034 136.771 288.72C137.219 286.854 137.442 285.473 137.498 284.036L137.592 282.02L136.939 281.293C136.528 280.845 135.968 280.472 135.371 280.285C134.867 280.117 134.457 279.93 134.457 279.856C134.457 279.8 134.681 279.501 134.961 279.221C135.315 278.848 135.651 278.699 136.08 278.699C136.453 278.699 136.752 278.587 136.808 278.437C136.939 278.12 139.514 276.833 140.036 276.833C140.633 276.833 141.249 276.478 141.548 275.956C141.753 275.638 142.201 275.377 143.041 275.097C144.142 274.724 144.254 274.631 144.216 274.201C144.198 273.772 144.347 273.66 145.504 273.119C146.642 272.597 146.792 272.466 146.698 272.111C146.624 271.776 146.81 271.533 147.762 270.805C148.396 270.32 149.068 269.798 149.273 269.667C149.553 269.48 149.591 269.368 149.404 269.032C149.217 268.678 149.273 268.585 149.927 268.155C150.71 267.67 151.625 266.327 151.625 265.674C151.625 265.431 151.83 265.17 152.147 265.002C153.006 264.554 153.733 263.658 153.621 263.192C153.547 262.874 153.715 262.594 154.424 261.904C155.002 261.344 155.394 260.766 155.525 260.299C155.655 259.833 156.047 259.254 156.57 258.732C157.428 257.892 157.652 257.183 157.186 256.716C156.719 256.25 156.122 256.511 154.704 257.799C153.491 258.9 151.251 260.411 150.822 260.411C150.542 260.411 150.729 259.59 151.27 258.452C151.681 257.575 151.811 257.034 151.774 256.455C151.718 255.709 151.681 255.653 151.121 255.597C150.598 255.541 150.524 255.597 150.318 256.231C149.74 257.967 149.161 258.937 148.303 259.571C147.818 259.926 147.053 260.486 146.605 260.822C144.72 262.221 140.186 264.013 138.599 263.975C138.189 263.975 137.069 264.461 135.091 265.487C131.415 267.409 131.116 267.764 130.893 270.469C130.631 273.436 130.295 275.041 129.922 274.911C129.81 274.873 129.717 272.335 129.68 268.995C129.624 262.445 129.53 260.579 129.288 259.758C129.157 259.366 129.194 259.068 129.362 258.732C129.68 258.116 129.661 257.593 129.306 257.09C129.064 256.735 129.045 256.567 129.232 256.119C129.4 255.709 129.4 255.373 129.213 254.589C129.101 254.048 128.933 253.059 128.858 252.387C128.616 250.353 128.187 248.412 127.795 247.628C127.571 247.218 127.272 246.341 127.104 245.669C126.936 244.997 126.414 243.803 125.966 243.001C125.5 242.217 124.94 241.116 124.734 240.575C124.529 240.052 124.231 239.418 124.1 239.212C123.951 238.989 123.54 238.242 123.167 237.533C122.551 236.395 122.476 236.04 122.309 234.062L122.122 231.86L122.98 230.871C123.465 230.349 124.175 229.714 124.566 229.49C124.94 229.266 125.462 228.744 125.742 228.352C126.003 227.941 127.048 226.747 128.056 225.683C129.064 224.601 130.743 222.772 131.807 221.597C132.852 220.421 134.121 219.115 134.606 218.704C135.091 218.312 135.95 217.454 136.509 216.801C137.685 215.457 142.332 211.259 143.265 210.699C143.619 210.475 144.272 210.008 144.739 209.635C145.187 209.262 145.933 208.833 146.381 208.646C146.81 208.478 147.482 208.124 147.855 207.881C148.228 207.62 148.639 207.414 148.751 207.414C148.863 207.414 149.068 207.302 149.18 207.153C149.516 206.761 152.054 205.922 152.95 205.922C153.621 205.922 153.827 206.034 154.442 206.668C155.152 207.414 155.189 207.433 156.122 207.302C156.719 207.228 157.279 207.004 157.615 206.724C158.511 205.959 158.38 205.212 156.85 202.395C156.141 201.07 155.543 199.894 155.543 199.801C155.543 199.558 157.167 198.215 158.716 197.17C159.388 196.703 160.115 196.181 160.339 195.975C160.824 195.546 161.366 195.677 161.795 196.349C162.093 196.778 162.187 196.815 163.064 196.684C164.146 196.554 165.172 195.994 165.34 195.472C165.396 195.285 165.826 194.949 166.292 194.725C166.852 194.445 167.244 194.091 167.468 193.624C167.673 193.251 168.009 192.784 168.233 192.579C168.457 192.374 168.811 191.87 169.017 191.459C169.222 191.049 169.614 190.433 169.875 190.079C170.136 189.724 170.397 189.127 170.472 188.772C170.565 188.194 170.64 188.101 171.032 188.156C173.197 188.436 173.458 188.418 174.111 187.933C174.895 187.335 175.044 186.869 174.708 186.216C174.484 185.768 174.484 185.637 174.727 185.208C175.007 184.742 174.988 184.686 174.242 183.697C173.085 182.204 172.543 181.7 171.424 181.159C169.726 180.319 168.718 180.636 168.494 182.073C168.419 182.465 168.289 182.838 168.214 182.894C168.121 182.95 167.561 182.502 166.964 181.886C166.385 181.271 165.471 180.468 164.93 180.114C163.213 178.919 161.328 176.699 161.328 175.84C161.328 175.542 161.142 175.131 160.918 174.907C160.507 174.497 160.003 173.358 159.63 171.959C159.425 171.231 159.201 170.69 158.697 169.701C158.492 169.328 158.343 168.861 158.343 168.675C158.343 168.488 158.137 168.115 157.876 167.854C157.428 167.387 156.794 165.969 156.495 164.774C156.421 164.457 156.253 164.009 156.122 163.767C155.991 163.543 155.935 163.151 155.991 162.908C156.085 162.573 155.973 162.386 155.543 162.069C155.245 161.845 154.928 161.453 154.853 161.173C154.797 160.893 154.629 160.501 154.498 160.296C154.368 160.091 154.163 159.549 154.051 159.083C153.789 158.131 153.043 156.974 152.203 156.247C151.886 155.985 151.625 155.575 151.625 155.369C151.625 155.146 151.457 154.642 151.27 154.268C150.878 153.485 150.225 153.093 148.098 152.365C146.978 151.992 146.642 151.787 146.4 151.339C146.232 151.021 145.821 150.592 145.504 150.368C145.168 150.163 144.627 149.622 144.291 149.193C143.321 147.924 142.014 146.767 140.633 145.946C138.002 144.397 134.419 141.878 134.326 141.542C134.27 141.337 134.065 141.131 133.878 141.075C133.468 140.945 132.777 140.03 132.777 139.601C132.777 139.452 132.535 139.041 132.255 138.705C131.956 138.369 131.49 137.604 131.228 137.007C130.967 136.429 130.65 135.944 130.557 135.944C130.445 135.944 130.351 135.869 130.351 135.776C130.351 135.346 127.384 132.603 126.526 132.23C126.022 132.006 125.145 131.39 124.585 130.849C124.007 130.308 123.242 129.674 122.868 129.45C122.141 129.002 121.693 128.33 121.805 127.807C121.861 127.509 122.532 127.005 124.063 126.147C124.548 125.867 124.641 125.867 124.902 126.128C125.089 126.277 125.462 126.501 125.761 126.613C126.395 126.856 126.731 126.65 126.899 125.885L127.011 125.363L130.034 125.139C133.916 124.84 136.099 124.467 137.237 123.889C137.741 123.646 138.226 123.441 138.32 123.441C138.394 123.441 139.01 122.974 139.682 122.396C142.145 120.287 142.63 119.727 143.171 118.458C144.664 114.931 144.925 113.924 144.869 112.02C144.851 111.237 144.869 110.528 144.925 110.472C145 110.416 145.579 110.677 146.232 111.05C147.575 111.815 149.255 112.114 151.177 111.927L152.315 111.834L152.408 113.196C152.464 113.961 152.651 114.95 152.838 115.417C154.088 118.682 154.219 119.242 154.237 120.866C154.237 121.78 154.069 123.254 153.845 124.318C153.118 127.826 152.931 128.964 152.651 131.278C152.11 135.776 152.39 142.587 153.229 145.74C153.491 146.767 153.789 147.942 153.901 148.334C154.181 149.547 155.282 151.432 156.682 153.111C157.41 153.989 158.455 155.276 158.996 156.004C160.339 157.777 161.422 158.784 161.776 158.654C162.317 158.448 162.093 157.777 161.179 156.788C160.078 155.593 159.089 154.324 159.089 154.101C159.089 154.007 158.846 153.597 158.529 153.186C158.231 152.776 157.932 152.066 157.857 151.637C157.783 151.189 157.54 150.611 157.298 150.312C157.055 150.032 156.887 149.659 156.943 149.51C157.055 149.23 156.234 145.311 155.898 144.528C155.357 143.277 155.357 137.38 155.917 135.197C156.812 131.577 157.951 128.479 160.302 123.161C161.366 120.772 162.261 118.16 162.728 116.144C162.877 115.473 163.232 114.521 163.493 114.036C163.81 113.457 163.941 112.991 163.885 112.655C163.829 112.375 163.903 111.106 164.034 109.818C164.165 108.531 164.221 107.448 164.146 107.393C163.81 107.187 163.754 106.31 164.053 106.068C164.239 105.918 164.295 105.694 164.221 105.452C163.997 104.687 163.549 102.802 163.437 102.167C163.381 101.813 163.25 101.421 163.157 101.29C163.064 101.16 163.026 100.899 163.082 100.712C163.157 100.488 163.045 100.077 162.821 99.7042C162.616 99.3497 162.28 98.5659 162.075 97.9688C161.869 97.3716 161.552 96.6625 161.366 96.4013C161.198 96.1214 160.955 95.6922 160.843 95.4309C160.712 95.151 160.209 94.4792 159.705 93.9194C159.22 93.3782 158.268 92.2772 157.596 91.4935C156.476 90.1499 156.253 89.982 154.275 89.0116C149.833 86.8283 147.202 86.2871 142.705 86.6603C141.193 86.7723 139.421 86.9962 138.749 87.1642C138.077 87.3135 137.163 87.5187 136.696 87.6307C135.744 87.836 135.52 88.0039 135.614 88.4704C135.651 88.6944 136.024 88.9183 136.827 89.1422C137.741 89.4221 138.208 89.702 139.103 90.5604C139.868 91.2882 140.279 91.8294 140.354 92.2399C140.503 93.0237 141.063 93.3969 142.033 93.3969C143.115 93.3969 144.254 93.8447 145.429 94.7218C147.538 96.308 147.762 98.8085 145.802 98.8085C145.243 98.8085 145.075 98.6966 144.571 97.9874C143.601 96.6439 142.276 96.0094 141.753 96.6439C141.585 96.8491 141.641 97.0358 142.052 97.5023L142.556 98.1181L141.417 97.9874C140.708 97.9128 140.111 97.9315 139.831 98.0807C139.421 98.2487 139.197 98.1927 138.077 97.5582C137.368 97.1664 135.95 96.4759 134.923 96.0467C133.897 95.5989 132.927 95.1697 132.759 95.0764C132.217 94.7964 129.698 94.3299 129.269 94.4606C129.045 94.5165 128.858 94.4792 128.858 94.3859C128.858 94.162 126.992 94.3113 126.675 94.5539C126.545 94.6472 126.433 95.0764 126.395 95.5056C126.339 96.2147 126.283 96.2893 125.798 96.3453C125.5 96.3826 125.182 96.3266 125.07 96.2147C124.958 96.1027 124.622 96.0094 124.343 96.0094C123.913 96.0094 123.82 96.084 123.82 96.4573C123.82 97.0358 123.316 97.5396 122.887 97.409C122.7 97.353 121.394 97.2783 119.976 97.241C118.558 97.2037 117.363 97.0917 117.345 96.9984C117.233 96.6812 115.647 96.8865 115.068 97.297C114.564 97.6516 114.508 97.8195 114.452 98.7712L114.396 99.8349H113.781C113.258 99.8349 113.071 99.9655 112.624 100.6C112.344 101.029 112.045 101.552 111.989 101.757C111.914 101.981 111.691 102.205 111.504 102.261C111.019 102.41 110.869 102.989 111.131 103.772C111.448 104.724 111.224 104.892 109.918 104.631C108.686 104.388 108.425 104.481 107.343 105.489C106.727 106.086 106.671 106.236 106.764 106.833C106.951 107.859 107.268 108.326 108.686 109.706C110.104 111.069 110.235 111.367 110.608 113.663C110.832 115.099 110.72 115.939 110.272 116.107C109.992 116.219 109.414 115.753 107.996 114.241C107.492 113.719 107.007 113.439 106.018 113.14C105.29 112.935 104.562 112.655 104.413 112.524C104.264 112.394 103.722 112.207 103.237 112.076C102.733 111.964 102.136 111.74 101.931 111.591C101.296 111.199 97.1724 110.005 96.4073 110.005C96.0341 110.005 95.5116 109.856 95.2504 109.669C94.9704 109.501 94.2613 109.035 93.6642 108.624C92.3952 107.803 91.1636 106.665 91.1636 106.347C91.1636 106.217 91.5742 105.769 92.0967 105.34C92.8991 104.668 93.0111 104.481 92.9737 103.978C92.9364 103.436 93.0297 103.343 93.7762 102.97C94.2427 102.746 95.0264 102.429 95.5303 102.261C96.0154 102.111 97.7322 101.365 99.2998 100.581C100.886 99.8162 102.211 99.1817 102.248 99.1817C102.565 99.1817 111.597 94.7218 112.306 94.218C112.792 93.8634 113.818 93.2476 114.583 92.8371C115.348 92.4452 116.225 91.9413 116.524 91.7361C116.822 91.5121 117.158 91.3442 117.27 91.3442C117.382 91.3442 118.035 90.971 118.726 90.5045C119.416 90.0379 120.069 89.6647 120.2 89.6647C120.573 89.6647 124.324 87.6494 128.019 85.466C129.978 84.3091 132.423 82.8722 133.468 82.275C135.222 81.2487 139.7 78.2816 142.108 76.5462C144.44 74.8667 145.056 73.9337 144.813 72.4408C144.571 70.8733 144.44 70.7427 143.619 71.3025ZM122.607 146.338C123.969 146.916 124.902 147.569 125.5 148.39C125.761 148.726 127.142 150.051 128.56 151.357C130.986 153.522 131.322 153.783 133.636 154.903C135.632 155.873 136.285 156.302 136.939 157.03C137.797 157.982 138.562 159.382 138.562 159.979C138.562 160.147 138.823 160.613 139.122 160.986C139.439 161.36 139.999 162.405 140.372 163.319C141.305 165.577 142.033 166.659 143.731 168.357C146.381 171.007 147.781 172.817 148.863 175.001C149.927 177.184 151.326 179.442 152.296 180.58C153.509 181.998 154.237 183.155 154.237 183.659C154.237 183.902 153.901 184.63 153.491 185.245C152.838 186.253 152.744 186.533 152.744 187.485C152.744 188.324 152.614 188.828 152.184 189.687C151.699 190.638 151.625 191.012 151.625 192.243C151.625 193.493 151.569 193.773 151.177 194.259L150.729 194.818L149.647 194.072C149.049 193.661 148.247 193.064 147.893 192.747C147.538 192.411 146.903 192.019 146.512 191.851C145.802 191.553 145.765 191.553 145.149 191.963C144.534 192.392 143.601 193.941 143.601 194.576C143.601 194.781 143.843 195.005 144.216 195.154C145.168 195.565 145.336 195.901 145.224 197.114C145 199.614 142.014 203.888 139.122 205.847C138.767 206.09 138.133 206.575 137.704 206.911C134.811 209.206 133.99 209.84 133.057 210.493C132.46 210.904 131.602 211.594 131.116 212.005C130.65 212.434 130.015 212.919 129.698 213.087C129.4 213.255 128.765 213.684 128.299 214.039C127.832 214.394 127.16 214.897 126.806 215.14C126.451 215.383 125.276 216.297 124.193 217.174C123.111 218.051 122.178 218.704 122.103 218.648C122.029 218.574 121.879 217.006 121.767 215.159C121.674 213.311 121.525 211.259 121.469 210.587C121.394 209.915 121.32 209.075 121.301 208.721C121.245 207.9 120.573 205.492 120.088 204.354C119.584 203.178 119.733 202.861 120.722 203.029C121.152 203.085 122.178 203.197 123.036 203.234C124.958 203.365 126.003 203.048 127.534 201.891C128.131 201.443 128.709 201.07 128.784 201.07C128.877 201.07 129.213 200.865 129.512 200.622C130.202 200.062 130.034 199.838 128.802 199.596C128.299 199.502 127.869 199.39 127.795 199.334C127.739 199.278 127.925 199.017 128.187 198.774C128.523 198.457 129.157 198.215 130.127 198.009C131.9 197.618 133.542 196.834 134.793 195.77L135.744 194.949L134.905 194.352C134.401 193.997 134.084 193.643 134.121 193.456C134.214 192.952 135.017 192.672 136.006 192.784C136.771 192.896 136.957 192.859 137.368 192.467C137.797 192.075 137.834 191.926 137.722 191.105C137.648 190.601 137.386 189.743 137.144 189.183C136.659 188.101 136.64 188.156 137.816 187.858C138.394 187.709 138.469 187.634 138.45 187.111C138.413 186.384 137.89 185.637 136.715 184.667C136.006 184.07 135.464 183.809 134.345 183.529C133.561 183.323 132.665 183.155 132.385 183.155C131.583 183.155 131.228 182.969 131.471 182.67C131.938 182.129 130.631 180.841 129.437 180.636C129.026 180.58 128.261 180.226 127.702 179.871C127.16 179.535 126.19 178.994 125.537 178.677C124.511 178.173 124.324 178.005 123.988 177.221C123.615 176.344 122.962 175.504 122.663 175.504C122.253 175.504 117.718 173.582 117.195 173.191C116.58 172.705 115.236 170.559 115.236 170.018C115.236 169.682 115.759 169.589 118.315 169.458C119.565 169.402 120.498 169.234 121.17 168.992C121.711 168.768 122.234 168.6 122.327 168.6C122.588 168.6 123.447 170.018 123.82 171.045C124.007 171.511 124.492 172.351 124.921 172.892C125.35 173.433 126.041 174.571 126.451 175.43C127.702 178.08 128.56 178.77 130.837 178.975C132.292 179.106 135.296 178.77 136.248 178.378L136.901 178.117L137.237 178.919C137.424 179.367 137.797 179.871 138.077 180.039C138.394 180.263 138.655 180.692 138.842 181.364C139.141 182.372 139.476 182.931 140.428 183.995C140.708 184.294 140.988 184.835 141.063 185.189C141.119 185.525 141.473 186.309 141.846 186.906C142.425 187.877 142.5 188.101 142.388 188.847C142.238 189.817 142.388 190.62 142.723 190.62C142.873 190.62 143.078 190.023 143.283 189.09C143.526 187.933 143.731 187.429 144.086 187.093C144.459 186.757 144.534 186.552 144.44 186.16C144.384 185.899 144.254 185.133 144.16 184.462C143.88 182.372 143.638 181.42 143.171 180.394C142.779 179.554 142.556 179.33 141.79 178.957C141.305 178.733 140.54 178.192 140.111 177.762C139.682 177.352 139.197 176.997 139.047 176.997C138.543 176.997 138.711 176.605 139.682 175.579C140.484 174.739 140.615 174.497 140.615 173.844C140.615 173.433 140.503 172.817 140.354 172.481C140.204 172.146 139.85 171.231 139.57 170.466C139.215 169.589 138.786 168.824 138.357 168.395C137.685 167.723 134.028 165.801 133.43 165.801C133.262 165.801 132.833 165.521 132.479 165.166C131.77 164.457 130.65 163.748 130.239 163.748C130.09 163.748 129.325 163.412 128.56 163.002C127.776 162.591 127.048 162.255 126.918 162.255C126.806 162.255 126.097 161.714 125.332 161.061C124.081 159.941 123.801 159.792 121.898 159.176C118.931 158.243 117.326 158.001 114.284 158.075L111.691 158.131V157.403C111.691 155.724 112.605 154.268 114.508 152.888C116.169 151.675 117.643 149.883 118.073 148.558C118.184 148.241 118.595 147.551 118.987 147.028C119.397 146.506 119.715 146.002 119.715 145.908C119.715 145.423 120.144 145.293 120.816 145.591C121.189 145.74 121.991 146.076 122.607 146.338ZM120.088 163.002C121.767 163.58 123.074 164.308 123.074 164.681C123.074 164.924 120.33 165.764 118.763 166.006C118.035 166.118 117.009 166.155 116.486 166.099C113.407 165.764 113.575 165.82 113.09 165.073C112.754 164.513 112.493 164.327 111.84 164.196C111.243 164.065 111.019 163.935 110.981 163.636C110.944 163.431 111.056 163.151 111.205 163.02C111.709 162.61 114.135 162.274 116.262 162.33C117.998 162.386 118.576 162.479 120.088 163.002ZM128.765 165.353C130.687 166.361 130.743 166.678 129.381 168.563C127.963 170.466 127.142 170.709 125.929 169.533C125.238 168.861 124.94 167.667 125.35 167.126C127.291 164.495 127.216 164.551 128.765 165.353ZM157.801 191.366C158.287 191.627 158.249 192.075 157.745 192.299C157.503 192.392 156.775 192.934 156.103 193.493C155.45 194.072 154.834 194.538 154.76 194.538C154.256 194.538 155.282 192.262 156.141 191.497C156.57 191.142 157.26 191.086 157.801 191.366Z" fill="black"/>
    </g>
    <defs>
        <filter id="filter0_d" x="5" y="61" width="189.893" height="258.862" filterUnits="userSpaceOnUse" color-interpolation-filters="sRGB">
            <feFlood flood-opacity="0" result="BackgroundImageFix"/>
            <feColorMatrix in="SourceAlpha" type="matrix" values="0 0 0 0 0 0 0 0 0 0 0 0 0 0 0 0 0 0 127 0"/>
            <feOffset dx="10"/>
            <feGaussianBlur stdDeviation="5"/>
            <feColorMatrix type="matrix" values="0 0 0 0 0.92549 0 0 0 0 0.698039 0 0 0 0 0.266667 0 0 0 1 0"/>
            <feBlend mode="normal" in2="BackgroundImageFix" result="effect1_dropShadow"/>
            <feBlend mode="normal" in="SourceGraphic" in2="effect1_dropShadow" result="shape"/>
        </filter>
    </defs>
</svg>
