<svg width="150" height="150" viewBox="0 0 150 150" fill="none" xmlns="http://www.w3.org/2000/svg">
    <path d="M75 150C116.421 150 150 116.421 150 75C150 33.5786 116.421 0 75 0C33.5786 0 0 33.5786 0 75C0 116.421 33.5786 150 75 150Z" fill="#F7931A"/>
    <path d="M99.375 49.3594C95.7656 40.125 86.6719 39.2812 76.0313 41.3906L72.2813 28.125L64.2188 30.4688L67.9219 43.2656L61.5 45.1875L57.7969 32.25L49.8281 34.5938L53.5781 47.7188L48.4688 49.3125V49.2656L37.4062 52.4063L39.8438 60.9844C39.8438 60.9844 45.75 59.1562 45.7031 59.2969C48.9375 58.3594 50.5312 59.9531 51.3281 61.5L55.6406 76.5L56.4844 76.3594L55.6406 76.5938L61.6875 97.6406C61.8281 98.7188 61.6875 100.5 59.4375 101.156C59.5313 101.203 53.5781 102.844 53.5781 102.844L54.75 112.875L65.1562 109.875L70.9219 108.281L74.7656 121.594L82.7344 119.297L78.9844 106.125C81.1314 105.554 83.2721 104.961 85.4063 104.344L89.1563 117.469L97.2188 115.172L93.375 101.859C106.641 97.2188 115.125 91.0781 112.688 78.0938C110.672 67.6406 104.578 64.4531 96.4219 64.8281C100.359 61.0781 102.047 56.1094 99.4219 49.3594H99.375ZM96.375 81.0937C99.1875 91.0781 81.8438 94.8281 76.4063 96.4219L71.3438 78.75C76.7813 77.1562 93.375 70.7344 96.375 81.0937ZM85.5 57.2344C88.0781 66.3281 73.5469 69.3281 69 70.6406L64.4063 54.6094C68.9531 53.3437 82.7813 47.8125 85.5 57.2813V57.2344Z" fill="white"/>
</svg>
