<svg width="236" height="231" viewBox="0 0 236 231" fill="none" xmlns="http://www.w3.org/2000/svg">
    <g filter="url(#filter0_d)">
        <path d="M97.3436 10.4281C97.3436 10.7203 97.4639 11.4766 97.6186 12.1469C97.7733 12.8 97.8936 13.5219 97.8764 13.7281C97.8592 14.2781 98.9592 17.0453 99.9561 18.9703C101.056 21.0844 102.586 23.0266 104.356 24.5391C105.68 25.6735 106.058 26.1375 105.508 25.9141C105.301 25.8453 105.25 26.0516 105.233 27.1516C105.181 29.9531 105.267 30.2797 106.178 30.2797C106.797 30.2797 107.828 30.8469 107.828 31.2078C107.828 31.3281 108 31.6375 108.189 31.8953C108.395 32.1531 108.533 32.3766 108.498 32.4109C108.275 32.6 107.158 32.8578 106.625 32.8578C105.748 32.8578 105.078 33.4078 105.078 34.1125C105.078 34.8 105.903 36.261 106.642 36.8797C106.934 37.1375 107.158 37.361 107.123 37.3953C107.089 37.4297 106.711 37.3953 106.281 37.3438C105.319 37.1891 104.683 37.3953 104.39 37.9281C104.27 38.1688 104.098 38.3578 104.047 38.3578C103.806 38.3578 103.067 39.6469 103.119 39.9734C103.136 40.1453 102.981 40.575 102.758 40.9188C102.242 41.675 101.933 43.0672 102.07 43.8406L102.173 44.4078L102.603 44.0125C103.153 43.4969 103.153 43.875 102.586 44.9406C102.19 45.6625 102.156 45.886 102.259 46.8313L102.362 47.8969L101.709 46.9172C101.331 46.3844 100.575 45.3188 100.008 44.5625C99.4405 43.7891 98.5983 42.6375 98.117 41.9844C96.1749 39.3031 94.3874 37.1375 92.978 35.7797C92.153 34.9719 90.8467 33.7 90.0733 32.9438C89.2999 32.1875 88.1655 31.2078 87.5467 30.761C85.4327 29.2485 80.9124 24.1953 78.678 20.861C78.0077 19.8641 77.7499 19.8469 77.0624 20.8266C76.753 21.2735 76.7186 21.4797 76.8045 22.2875C76.8733 22.8031 76.8905 23.2328 76.8389 23.2328C76.7702 23.2328 76.3405 23.0781 75.8592 22.8891C75.378 22.7 74.9311 22.5453 74.8452 22.5453C74.5702 22.5453 73.0749 24.1438 72.8342 24.711C72.6108 25.2266 72.6108 25.3641 72.8514 25.811C73.2811 26.6531 72.9545 26.8078 72.3186 26.086L71.7514 25.45L70.3249 26.9281C68.4686 28.8703 67.3686 30.8297 67.0077 32.875C66.7327 34.3703 66.6811 36.4328 66.853 37.5328C66.9561 38.1516 66.9733 38.1516 67.3514 37.9109C67.6264 37.7391 67.7811 37.7047 67.867 37.825C67.9186 37.9281 68.1249 38.0141 68.3139 38.0141C68.503 38.0141 68.778 38.2203 68.9327 38.4953C69.0874 38.7703 69.3795 39.0625 69.5686 39.1485C70.153 39.4063 70.0499 39.6297 69.1045 40.0594L68.2108 40.4719L66.6639 40.0938C65.8217 39.8703 64.4983 39.5266 63.7592 39.2859C63.0202 39.0625 62.3499 38.9078 62.2983 38.9594C62.2295 38.9938 61.6452 38.8735 60.992 38.6844C60.3217 38.4953 59.3249 38.3063 58.7577 38.2719C57.692 38.2031 56.0077 37.9109 55.7499 37.7563C55.5608 37.636 53.9108 37.3094 53.1717 37.2406C49.3561 36.9141 45.5405 36.8453 45.1967 37.1375C45.0077 37.2922 43.3405 37.5156 42.0858 37.55C39.2842 37.636 25.3624 36.9485 24.967 36.725C24.8983 36.6735 24.0045 36.4844 22.9733 36.3125C21.9592 36.1235 19.9655 35.6078 18.5389 35.1781C15.6858 34.2844 14.9811 34.0953 12.0936 33.4422C8.89674 32.7375 6.54205 32.2906 5.90611 32.2735C5.35611 32.2563 5.28736 32.3078 5.14986 32.875C4.84049 34.1297 6.0608 35.5906 8.08893 36.3985C8.50143 36.5531 8.82799 36.725 8.82799 36.7938C8.82799 36.8453 7.88268 36.8625 6.73111 36.8453C4.1358 36.7594 3.43111 36.9485 3.00143 37.825C2.46861 38.8563 2.43424 39.1656 2.72643 39.8016C3.0358 40.4375 4.47955 41.2797 6.00924 41.7094L6.85143 41.9328L5.56236 41.8641C4.85768 41.8297 3.84361 41.761 3.32799 41.7094C2.24518 41.6235 1.91861 41.7953 1.50611 42.6719C1.35143 42.9985 1.05924 43.5828 0.852989 43.9953C0.560802 44.5453 0.492052 44.975 0.509239 45.8172C0.543614 47.2094 0.612364 47.3125 1.26549 47.0719C1.64361 46.9344 1.83268 46.9344 1.97018 47.0719C2.12486 47.2266 1.98736 47.3125 1.45455 47.4672C0.663927 47.6735 0.543614 47.8453 0.182677 49.2375C-0.0579481 50.1141 -0.0579481 50.3375 0.165489 51.0766C0.302989 51.5235 0.543614 52.0735 0.732677 52.2969C1.05924 52.6922 1.19674 52.7266 2.84674 52.8125C3.94674 52.8641 3.96393 52.9844 2.93268 53.5C2.53736 53.7063 2.03893 53.9641 1.83268 54.0672C1.42018 54.2735 1.09361 54.8578 1.09361 55.3735C1.09361 55.8891 1.86705 57.4875 2.29674 57.8313C3.32799 58.6906 3.7233 58.811 5.30455 58.811C7.12643 58.811 8.63893 58.5875 9.37799 58.2094C9.67018 58.0719 10.0139 57.9516 10.1514 57.9516C10.2717 57.9516 10.3749 57.8828 10.3749 57.7969C10.3749 57.625 11.7155 57.2469 12.678 57.1609L13.3483 57.0922L12.5061 57.7453C12.0249 58.0891 11.4577 58.5703 11.2171 58.7938C10.9936 59 10.6155 59.3094 10.3749 59.4813C9.96236 59.7391 9.67018 59.9797 8.89674 60.65C8.55299 60.9422 8.14049 61.8875 8.14049 62.3688C8.14049 62.4891 8.38111 62.7469 8.69049 62.936C9.41236 63.3828 10.9764 63.5719 14.2421 63.6235C15.7889 63.6406 16.0639 63.675 15.8061 63.8469C15.6171 63.9672 15.3421 64.1735 15.1702 64.3453C15.0155 64.5 14.7405 64.6547 14.5686 64.6891C14.3967 64.7234 14.1217 64.9813 13.9499 65.2906C13.6233 65.8235 13.6233 65.8406 13.9842 66.5281C14.1733 66.9235 14.2592 67.2328 14.1561 67.2328C14.0702 67.2328 14.2249 67.611 14.5171 68.0922C14.8092 68.5563 15.153 68.9516 15.2905 68.9516C15.428 68.9516 15.5311 69.0203 15.5311 69.1235C15.5311 69.2094 15.6858 69.2953 15.8749 69.2953C16.0639 69.2953 16.2186 69.3985 16.2186 69.5359C16.2186 69.6735 16.3905 69.7766 16.6139 69.7766C16.8202 69.7766 17.3014 69.8625 17.6796 69.9656C18.0577 70.0688 18.4874 70.1031 18.642 70.0516C18.8999 69.9828 18.9342 70.1375 18.917 71.2547C18.8827 72.9219 19.192 73.3688 20.6014 73.7985C21.1342 73.9703 21.667 74.0563 21.7702 73.9875C21.8733 73.9188 22.2686 73.8844 22.6639 73.9188C23.0592 73.936 23.592 73.8672 23.8499 73.7641L24.3311 73.5922L23.8842 74.3141C23.1795 75.5172 22.7327 76.4969 22.6295 77.1328C22.5436 77.6485 22.578 77.7516 22.9045 77.8375C23.0936 77.8891 23.2655 77.9922 23.2655 78.0953C23.2655 78.336 21.942 79.6078 21.6842 79.6078C21.4952 79.6078 21.4952 79.6422 21.6842 79.7625C21.8733 79.8656 21.8561 79.9516 21.6327 80.1922C21.3749 80.45 21.3749 80.4844 21.6327 80.5703C21.7874 80.6391 22.0967 80.5875 22.3202 80.4672C22.6467 80.2953 22.7842 80.2953 22.9905 80.45C23.1967 80.6219 23.4717 80.5703 24.4514 80.1578C25.1217 79.8656 25.6717 79.6938 25.6717 79.7797C25.6717 79.9 23.678 82.2891 22.6983 83.3031C22.0795 83.9563 21.3061 85.4516 21.4952 85.6235C21.7186 85.8469 24.8467 85.5031 25.4139 85.211C25.7061 85.0563 26.1014 84.936 26.3249 84.936C26.5483 84.936 26.9264 84.8328 27.1842 84.6953C27.9749 84.2828 28.9202 84.0766 28.8342 84.3344C28.7827 84.4547 28.5592 84.6438 28.3186 84.7813C27.8545 85.0219 26.8749 86.1563 26.8749 86.4313C26.8749 86.5172 26.428 86.8953 25.878 87.2906C25.1733 87.7891 24.7952 87.9438 24.6061 87.8406C24.417 87.7375 24.1592 87.875 23.6952 88.2875C23.3342 88.6141 22.9045 88.8891 22.7327 88.8891C22.5608 88.8891 22.303 89.061 22.1655 89.2672C22.0108 89.4734 21.7874 89.6625 21.667 89.6797C21.3577 89.7141 20.6874 90.2813 20.6874 90.4875C20.6874 90.5735 20.4983 90.7969 20.2577 90.986C20.017 91.175 19.8624 91.3985 19.9139 91.4844C19.9827 91.5703 19.9311 91.6391 19.8108 91.6391C19.6905 91.6391 19.6561 91.6906 19.7077 91.7594C19.7764 91.811 19.7421 91.9656 19.6389 92.086C19.5186 92.2406 19.553 92.3266 19.8108 92.4125C20.017 92.4641 20.1717 92.6016 20.1717 92.6875C20.1717 92.7906 20.4467 92.8078 20.8249 92.7563L21.4608 92.6531L21.0311 92.9969C20.5155 93.4094 20.8764 93.375 21.7186 92.9453L22.3202 92.6188L21.8905 93.1C21.6499 93.375 21.5639 93.5297 21.7014 93.4438C21.8389 93.375 21.9936 93.4094 22.0795 93.5469C22.1827 93.7016 22.2858 93.7188 22.3545 93.6156C22.4405 93.5125 22.6811 93.2891 22.9217 93.1L23.3514 92.7563L23.0249 93.1516C22.7499 93.461 22.7327 93.5813 22.9045 93.7531C23.0592 93.9078 23.1795 93.8735 23.4374 93.5297C23.678 93.2375 23.7811 93.186 23.7811 93.3578C23.7811 93.5125 23.7124 93.7016 23.6264 93.7875C23.5405 93.8906 23.6092 94.1656 23.7983 94.475C23.9702 94.75 24.1249 94.8875 24.1249 94.7672C24.1249 94.3547 24.4514 94.5781 24.5545 95.0766C24.6577 95.5063 24.7264 95.5922 25.0186 95.4891C25.3108 95.4031 25.3624 95.4375 25.2764 95.661C25.1733 95.9016 25.2249 95.936 25.4999 95.85C25.7061 95.7813 25.8436 95.8156 25.8436 95.936C25.8436 96.0391 25.9295 96.0735 26.0155 96.0219C26.1186 95.9703 26.1874 96.0906 26.1874 96.2969C26.1874 96.6063 26.2217 96.6235 26.4452 96.4516C26.6686 96.2797 26.703 96.2969 26.703 96.6235C26.703 96.9328 26.7545 96.9672 26.9436 96.8125C27.1327 96.6578 27.2186 96.6578 27.3045 96.8125C27.4077 96.95 27.4764 96.9328 27.5795 96.7781C27.6999 96.5891 27.7342 96.6235 27.7342 96.8641C27.7342 97.2078 27.7342 97.2078 27.992 96.8641C28.2327 96.5547 28.2327 96.5547 28.2499 96.9672C28.267 97.3625 28.2842 97.3797 28.4905 97.0875C28.6108 96.9328 28.7655 96.7953 28.8342 96.7953C28.8858 96.7953 28.9374 96.9328 28.9374 97.0875C28.9545 97.3281 28.9889 97.311 29.178 97.0016C29.367 96.6406 29.4186 96.6406 29.6077 96.8641C29.7452 97.0188 29.7795 97.3281 29.7108 97.6375C29.6077 98.1016 29.6764 98.1875 30.2952 98.5828C30.6733 98.8406 31.0686 99.0297 31.1717 99.0297C31.2749 99.0297 31.6014 99.15 31.8936 99.3047C32.2889 99.511 32.4608 99.5281 32.5467 99.3735C32.7874 98.9781 33.8358 99.4766 34.8155 100.473C35.3483 101.006 35.8983 101.436 36.053 101.436C36.2592 101.436 36.2764 101.573 36.2077 102.072C36.0702 102.88 35.7092 103.172 34.3514 103.567C33.4233 103.825 33.217 103.963 32.9936 104.427C32.8561 104.736 32.7702 105.131 32.8217 105.32C32.9077 105.613 32.7358 105.767 31.9795 106.163C31.4639 106.438 31.0686 106.747 31.103 106.85C31.2233 107.142 32.5983 107.452 33.2858 107.331C33.6295 107.28 34.042 107.297 34.2139 107.348C34.4717 107.452 34.4202 107.555 33.8358 108.07C32.3749 109.342 31.3436 110.064 30.7249 110.236C30.3811 110.322 29.7795 110.597 29.4186 110.82C28.903 111.147 28.7655 111.336 28.7655 111.731C28.7655 112.023 28.6795 112.453 28.5936 112.711C28.4905 112.969 28.4561 113.313 28.5249 113.45C28.5936 113.605 28.6624 113.759 28.6795 113.811C28.8342 114.413 29.0233 114.653 29.3327 114.705C29.5389 114.739 29.7108 114.877 29.7108 115.014C29.7108 115.203 29.8827 115.272 30.278 115.255C30.6561 115.238 30.828 115.306 30.828 115.478C30.828 115.667 30.9139 115.702 31.1374 115.616C32.0139 115.238 32.1514 115.289 32.2889 116.08C32.5124 117.386 32.4436 117.644 31.6014 118.538C30.2264 119.998 29.3842 121.288 30.0202 120.927C30.192 120.823 30.192 120.858 30.0202 121.047C29.728 121.356 29.7452 121.545 30.0545 121.545C30.3467 121.545 30.3983 121.82 30.1233 121.975C30.003 122.061 30.0717 122.216 30.2952 122.422C30.742 122.834 30.742 122.938 30.3124 123.402C29.9514 123.797 29.8483 124.038 30.1405 123.866C30.4155 123.694 30.1577 124.656 29.8311 125.017C29.5905 125.292 29.6077 125.327 29.8999 125.344C30.0717 125.361 30.4155 125.395 30.6561 125.43C30.8967 125.447 31.7389 125.361 32.5295 125.223C33.3202 125.086 33.9905 125 34.042 125.052C34.1795 125.189 33.4577 125.498 32.5124 125.688C31.5499 125.877 30.9139 126.066 30.0202 126.461C29.728 126.598 29.3842 126.702 29.2467 126.702C28.9202 126.719 28.4217 127.475 28.4389 127.939C28.4561 128.163 28.4045 128.816 28.3358 129.4C28.2499 130.088 28.267 130.483 28.3702 130.483C28.4905 130.483 28.4905 130.758 28.4217 131.205C28.267 131.978 28.4045 132.477 28.9374 133.233C29.1264 133.491 29.2295 133.748 29.178 133.8C29.0749 133.903 30.1749 133.817 30.828 133.663C31.2577 133.577 31.2577 133.577 30.9139 133.869C30.192 134.488 29.1092 136.756 29.1092 137.633C29.1092 138.131 29.8483 138.836 30.7592 139.18C31.3952 139.42 31.6014 139.438 31.928 139.266C32.1514 139.145 32.478 139.059 32.6499 139.094C33.028 139.145 34.4202 138.75 34.7467 138.509C34.867 138.423 35.0045 138.389 35.0561 138.441C35.1249 138.492 34.4889 139.266 33.6639 140.142C32.0311 141.895 31.3952 142.841 31.3092 143.631C31.2577 144.13 31.292 144.147 31.9967 144.198C32.392 144.233 33.303 144.095 34.0249 143.889C36.1389 143.322 36.9811 142.841 39.4045 140.847C39.7311 140.589 40.0405 140.366 40.092 140.366C40.1436 140.366 40.7624 139.902 41.467 139.334C42.1545 138.767 42.8764 138.217 43.0483 138.114C43.2374 138.011 43.5639 137.753 43.7874 137.547C43.9936 137.358 44.2514 137.186 44.3545 137.186C44.4577 137.186 44.6295 137.083 44.7327 136.945C44.9733 136.67 46.2108 135.983 46.4686 135.983C46.5717 135.983 46.967 135.828 47.3795 135.656C48.4967 135.158 49.6139 134.745 49.992 134.677C50.1811 134.659 50.7999 134.436 51.367 134.195L52.3983 133.766L52.5358 134.402C52.6733 135.055 53.7733 136.223 54.0655 136.052C54.1514 136 54.3233 136.034 54.4436 136.138C54.5639 136.241 54.8045 136.292 54.9592 136.223C55.1483 136.155 55.2342 136.206 55.2342 136.395C55.2342 136.636 55.303 136.653 55.578 136.498C55.853 136.361 55.9217 136.361 55.9217 136.55C55.9217 136.688 56.0592 136.842 56.2311 136.877C56.5233 136.963 56.5405 137.169 56.4717 139.695C56.3342 144.903 56.2999 144.388 56.8499 144.852C57.2967 145.247 57.3139 145.298 57.0561 145.591C56.7639 145.9 56.8327 146.467 57.1592 146.467C57.2624 146.467 57.2967 146.588 57.228 146.725C57.1764 146.863 57.2452 147.069 57.3655 147.189C57.4858 147.309 57.5545 147.498 57.5202 147.602C57.4858 147.705 57.6577 147.894 57.8983 148.014C58.2764 148.22 58.328 148.358 58.3108 148.959C58.2764 149.389 58.3967 149.87 58.5858 150.197C58.8264 150.609 58.8608 150.798 58.7061 150.97C58.5858 151.108 58.5514 151.469 58.603 151.83C58.6717 152.191 58.6374 152.483 58.517 152.552C58.4139 152.62 58.328 152.861 58.328 153.084C58.328 153.411 58.3967 153.48 58.6374 153.394C58.8952 153.291 58.9124 153.308 58.6717 153.6C58.3967 153.927 58.3452 154.219 58.2592 155.886C58.2077 156.797 58.2592 157.003 58.5342 157.192C58.9295 157.467 60.0295 156.573 48.7717 165.288C43.5295 169.344 40.5733 171.75 39.0952 173.194C36.7233 175.497 35.503 176.923 35.8124 177.027C36.1217 177.13 39.4733 175.445 40.8483 174.483C41.5358 174.019 45.2139 171.2 49.0295 168.227C52.8452 165.253 56.0592 162.864 56.1624 162.898C56.5233 163.053 57.4686 164.497 57.4686 164.892C57.4686 165.116 57.3483 165.511 57.2108 165.769C57.0733 166.044 57.0561 166.198 57.1592 166.13C57.2967 166.044 57.3139 166.095 57.2452 166.284C57.1764 166.456 57.0733 166.697 57.0045 166.869C56.9358 167.058 56.953 167.109 57.0905 167.023C57.3655 166.852 57.3483 167.144 57.0905 167.419C56.9014 167.591 56.9186 167.608 57.1764 167.522C57.6061 167.35 57.5545 167.78 57.0389 168.467C56.5405 169.155 56.5233 169.172 56.867 169.052C57.2108 168.914 57.1936 169.138 56.8327 169.533C56.5749 169.825 56.5749 169.842 56.8327 169.842C57.142 169.842 57.228 170.1 56.9702 170.255C56.7639 170.392 56.7811 172.077 56.9874 172.077C57.0733 172.077 57.1249 172.18 57.1077 172.283C57.0561 172.781 57.142 172.919 57.417 172.816C57.6749 172.713 57.6749 172.73 57.4342 173.073C57.2108 173.4 57.2108 173.572 57.3999 174.345C57.5374 174.844 57.5889 175.394 57.5374 175.566C57.4686 175.789 57.503 175.858 57.6233 175.789C57.8811 175.617 57.8639 177.181 57.5717 178.642C57.4342 179.347 57.417 179.863 57.5202 179.966C57.6061 180.052 57.6061 180.155 57.4858 180.223C57.2452 180.378 57.2452 181.134 57.4686 181.272C57.5717 181.323 57.6405 181.53 57.6405 181.719C57.6405 181.891 57.7092 182.045 57.7952 182.045C57.8983 182.045 57.9499 182.183 57.9499 182.338C57.8983 182.956 60.2358 188.13 61.267 189.763C61.8514 190.673 62.4358 191.584 62.5733 191.808C62.7795 192.134 62.8655 192.169 63.0717 191.997C63.2092 191.894 63.3124 191.636 63.3124 191.43C63.3295 191.241 63.4327 190.759 63.5702 190.381C63.7249 189.952 63.7592 189.642 63.6561 189.539C63.553 189.436 63.5874 189.264 63.7592 189.058C63.9139 188.903 64.0342 188.542 64.0342 188.284C64.017 188.027 64.103 187.631 64.2233 187.408C64.378 187.098 64.3608 186.978 64.1717 186.858C63.9827 186.738 63.9827 186.669 64.1545 186.445C64.292 186.291 64.3436 185.998 64.2749 185.758C64.2061 185.5 64.2749 185.277 64.4295 185.139C65.1858 184.52 66.2858 181.856 66.5092 180.172C66.5608 179.845 66.6983 179.502 66.8186 179.398C66.9389 179.295 67.1452 178.848 67.2655 178.402C67.3858 177.955 67.592 177.491 67.7124 177.388C67.8499 177.284 67.953 177.095 67.953 176.958C67.953 176.838 68.1077 176.648 68.2967 176.545C68.4686 176.442 68.7092 176.064 68.8124 175.686C68.9155 175.308 69.0702 174.998 69.1389 174.998C69.2249 174.998 69.3967 174.741 69.517 174.431C69.6374 174.139 69.8608 173.744 69.9983 173.572C70.4108 173.108 71.2186 171.509 71.2186 171.166C71.2186 171.011 71.2874 170.873 71.3733 170.873C71.4592 170.873 71.5967 170.616 71.6483 170.323C71.717 170.014 71.8374 169.67 71.9061 169.584C71.9749 169.481 72.0952 169.223 72.1639 168.983C72.2327 168.742 72.9374 167.23 73.7108 165.631C74.5358 163.93 75.1717 162.4 75.2233 161.953C75.2749 161.541 75.4124 161.145 75.5155 161.077C75.6186 161.008 75.7217 160.836 75.7561 160.681C75.8077 160.269 76.5811 158.842 76.753 158.842C76.8217 158.842 76.8905 158.619 76.8905 158.361C76.8905 158.086 77.0108 157.622 77.1655 157.313C77.3202 156.986 77.4749 156.161 77.5092 155.353C77.6124 153.256 77.6983 152.741 78.2827 150.85C79.2108 147.791 79.2624 147.602 79.2108 146.897C79.1764 146.519 79.1249 145.9 79.0905 145.539L79.0389 144.852L82.2014 142.394C83.9545 141.036 85.5014 139.953 85.6389 139.97C85.8452 140.005 85.9483 140.314 86.0342 141.139C86.2233 142.909 86.2749 143.373 86.378 143.459C86.5499 143.648 87.6327 142.652 87.6499 142.291C87.6499 142.084 87.7358 141.758 87.8561 141.552C87.9592 141.363 88.0967 140.795 88.1655 140.297C88.2858 139.334 88.3202 139.3 89.2655 138.681C89.592 138.475 90.1249 137.908 90.4514 137.444C90.8639 136.808 91.1217 136.602 91.3795 136.636C91.5858 136.653 91.9467 136.602 92.2045 136.516C92.5483 136.395 92.7202 136.43 92.9264 136.619C93.2702 136.963 93.8545 136.653 94.0092 136.069C94.1124 135.639 95.1436 134.608 95.453 134.608C95.5389 134.608 95.8139 134.298 96.0545 133.92C96.2952 133.542 96.6045 133.233 96.742 133.233C97.1374 133.233 97.7217 131.927 97.6014 131.342C97.4983 130.895 97.6358 130.758 99.5952 129.211C100.747 128.3 101.83 127.561 102.019 127.561C102.19 127.561 102.844 127.063 103.445 126.444C104.115 125.756 104.683 125.327 104.906 125.327C105.542 125.327 106.109 124.588 106.109 123.711C106.109 123.298 106.058 122.817 106.006 122.663C105.851 122.284 105.026 121.889 104.339 121.889C103.72 121.889 102.844 122.439 102.844 122.817C102.844 123.058 101.933 123.78 101.606 123.78C101.28 123.78 100.094 124.656 100.094 124.897C100.094 125.086 97.017 127.63 96.192 128.128C96.0374 128.231 95.9858 128.025 95.9858 127.355C96.003 126.856 95.9514 126.203 95.8827 125.928C95.728 125.189 96.5014 123.453 98.5124 120.102C102.672 113.141 105.147 108.5 106.006 106.077C106.264 105.372 106.573 104.633 106.694 104.444C106.814 104.255 106.969 103.722 107.037 103.275C107.158 102.519 107.192 102.467 107.398 102.759C107.622 103.052 107.639 103.052 107.742 102.759C107.811 102.605 107.828 102.227 107.794 101.952C107.742 101.659 107.776 101.436 107.845 101.436C107.983 101.436 108.344 102.519 108.344 102.931C108.344 103.034 108.412 103.172 108.498 103.241C108.601 103.292 108.636 102.863 108.584 102.123C108.515 101.247 108.55 100.92 108.687 100.92C108.911 100.92 108.859 99.6485 108.601 98.686L108.498 98.2563L108.756 98.686C108.894 98.9266 109.048 99.4938 109.117 99.975C109.289 101.436 109.392 101.78 109.581 101.677C109.89 101.488 109.581 99.425 109.1 98.4797C108.859 98.0156 108.705 97.5344 108.739 97.4313C108.773 97.311 108.928 97.4828 109.1 97.775C109.255 98.0844 109.444 98.3422 109.53 98.3422C109.615 98.3422 109.736 98.5485 109.805 98.8063L109.925 99.2875L110.097 98.8406C110.217 98.4969 110.165 98.1016 109.89 97.3281C109.461 96.0047 109.461 95.9188 109.942 96.6235C110.32 97.1906 110.698 97.2938 110.63 96.7953C110.595 96.6578 110.526 96.2453 110.475 95.8844C110.355 95.1797 110.664 94.9735 110.905 95.6266C110.99 95.8672 111.076 95.9188 111.162 95.7985C111.403 95.4031 111.575 95.5922 111.695 96.4C111.815 97.1391 111.833 97.1735 111.97 96.8125C112.056 96.5891 112.125 95.85 112.108 95.1625C112.09 94.4578 112.176 93.7531 112.297 93.5297L112.52 93.1172L112.761 93.6156C112.984 94.0281 113.053 94.0625 113.173 93.8219C113.259 93.6672 113.259 93.3922 113.173 93.1344C113.036 92.7735 113.122 92.6188 113.895 91.8453C114.531 91.2266 114.944 90.9688 115.356 90.9172C115.889 90.8656 115.958 90.9172 116.508 91.9656C118.278 95.2828 118.931 97.7235 118.776 100.405C118.673 102.227 118.261 103.67 117.539 104.684C116.972 105.527 112.812 109.738 112.692 109.617C112.64 109.566 112.434 109.6 112.262 109.703C111.987 109.841 111.936 109.995 112.022 110.391C112.09 110.769 111.97 111.198 111.592 111.972C110.458 114.189 107.776 121.442 106.9 124.639C105.817 128.609 105.748 132.666 106.608 140.967C107.261 147.258 107.415 148.444 108.533 155.319C109.392 160.63 109.392 160.664 109.323 163.827C109.237 167.247 109.048 168.467 108.069 172.077C107.347 174.792 107.158 175.995 106.969 179.261C106.762 183.008 107.02 185.878 108.412 194.85C109.306 200.608 109.426 203.564 108.928 207.775C108.859 208.273 108.911 209.013 109.014 209.442C109.169 210.113 109.151 210.336 108.79 211.298C108.223 212.777 107.914 213.464 106.762 215.595C106.212 216.609 105.765 217.623 105.765 217.864C105.765 218.311 106.161 218.827 106.505 218.827C106.642 218.827 106.625 218.895 106.487 219.033C106.144 219.377 106.247 219.48 107.398 219.841C108.481 220.184 111.695 220.614 112.159 220.477C112.28 220.425 112.589 220.356 112.83 220.305C113.259 220.219 113.775 219.48 113.706 219.05C113.672 218.947 113.844 218.569 114.05 218.208C114.342 217.709 114.445 217.228 114.48 216.334C114.497 215.681 114.634 214.702 114.789 214.186C115.012 213.447 115.047 212.828 114.961 211.333C114.875 209.769 114.909 209.288 115.133 208.755C115.373 208.17 115.39 207.895 115.201 206.692C114.755 203.667 115.476 196.517 117.006 188.577C117.78 184.589 117.883 183.523 117.797 180.069C117.762 178.264 117.728 175.755 117.745 174.483C117.745 172.266 117.78 172.077 118.45 170.014C119.619 166.37 120.065 163.328 120.547 155.491C120.736 152.363 120.976 149.148 121.062 148.341C121.148 147.533 121.303 144.439 121.406 141.466C121.492 138.492 121.612 135.605 121.664 135.038C121.75 134.109 121.595 132.184 121.32 130.878L121.217 130.397L121.475 130.827C121.612 131.084 122.059 131.394 122.558 131.566C123.159 131.789 123.555 132.098 124.001 132.7C124.345 133.147 125.101 133.852 125.669 134.281C126.683 135.02 126.769 135.123 128.126 137.873C129.931 141.534 131.255 143.786 132.99 146.175C134.125 147.739 134.967 149.252 137.27 153.858C138.851 157.02 141.017 161.317 142.083 163.397C143.165 165.477 144.248 167.814 144.506 168.588C145.039 170.169 145.039 170.048 144.265 175.686C144.094 176.958 143.887 178.402 143.836 178.883C143.595 180.825 144.145 183.609 146.328 191.413C148.236 198.219 148.94 201.227 149.336 204.2C149.525 205.644 149.542 206.486 149.387 208.669C149.095 212.484 149.112 214.513 149.422 215.114C149.834 215.939 150.608 216.266 152.378 216.403C153.237 216.455 153.976 216.592 154.011 216.695C154.045 216.816 153.684 216.833 152.825 216.73C151.673 216.609 150.78 216.661 150.384 216.902C150.212 216.988 151.261 217.606 151.622 217.623C151.965 217.623 154.595 218.689 154.509 218.792C154.165 219.119 157.483 220.717 158.961 220.941C159.975 221.095 161.951 220.803 162.45 220.425C162.983 220.03 163.12 219.686 162.759 219.686C162.57 219.686 162.725 219.445 163.189 218.964C163.773 218.345 163.876 218.156 163.79 217.727C163.653 217.039 163.344 216.73 161.986 215.922C159.064 214.186 155.3 208.841 155.042 206.022C154.973 205.455 155.076 202.67 155.265 199.834C155.437 196.998 155.644 193.097 155.695 191.155C155.747 189.213 155.833 187.013 155.867 186.273C155.919 185.534 155.85 182.939 155.695 180.516C155.558 178.092 155.403 173.675 155.386 170.702L155.334 165.288L154.715 163.483C154.389 162.486 153.942 160.63 153.736 159.358C153.237 156.264 151.553 147.138 151.123 145.092C149.68 138.355 147.617 133.559 143.63 127.595C142.478 125.842 141.43 124.106 141.326 123.711C141.206 123.298 141.155 122.027 141.206 120.6C141.258 118.452 141.292 118.142 141.601 117.816C141.911 117.489 143.44 113.553 143.973 111.714C144.197 110.923 144.094 110.82 143.2 110.803C142.787 110.803 142.461 110.717 142.426 110.58C142.375 110.442 142.598 110.373 143.234 110.373C144.351 110.373 144.712 110.184 144.85 109.497C144.953 108.964 145.005 109.033 146.775 111.594C147.789 113.055 148.975 114.756 149.422 115.375C149.869 115.994 150.367 116.75 150.522 117.042C150.831 117.661 150.917 119.191 150.659 119.844C150.556 120.084 150.487 120.566 150.487 120.927C150.487 121.27 150.453 121.597 150.419 121.631C150.281 121.769 148.408 120.411 148.253 120.067C148.098 119.775 147.428 119.363 146.019 118.727C145.795 118.641 145.486 118.348 145.331 118.073C144.936 117.403 144.3 117.18 143.44 117.42C142.444 117.678 142.203 117.988 142.203 118.984C142.203 119.689 142.289 119.913 142.65 120.256C142.908 120.497 143.269 120.686 143.44 120.686C143.905 120.686 144.764 121.219 144.867 121.563C144.97 121.889 146.208 122.748 146.569 122.748C146.706 122.748 147.789 123.419 148.975 124.244C151.037 125.653 151.14 125.756 151.14 126.323C151.14 126.633 151.261 127.114 151.398 127.355C151.656 127.819 153.633 134.986 153.908 136.498C154.165 137.822 154.887 139.145 154.939 138.338C154.939 138.234 155.025 138.32 155.111 138.544C155.197 138.767 155.231 139.094 155.18 139.266C155.128 139.42 155.162 139.609 155.248 139.661C155.351 139.73 155.386 139.867 155.351 139.988C155.3 140.108 155.369 140.727 155.506 141.397C155.781 142.875 155.901 142.634 156.022 140.228C156.125 138.269 156.451 137.066 156.469 138.595C156.469 139.059 156.52 139.42 156.606 139.42C156.675 139.42 156.744 139.678 156.744 139.97C156.761 140.28 156.847 140.967 156.933 141.483L157.087 142.428L157.208 141.655C157.517 139.489 157.655 135.914 157.517 133.663C157.362 131.342 157.397 131.016 157.861 130.998C157.912 130.998 158.187 131.342 158.497 131.772C158.806 132.219 159.39 132.734 159.889 133.009C160.662 133.439 160.765 133.577 160.937 134.316C161.023 134.78 161.195 135.313 161.315 135.519C161.419 135.725 161.522 136.034 161.539 136.189C161.556 136.361 161.608 136.516 161.642 136.55C161.676 136.584 161.934 136.773 162.209 136.98C162.88 137.495 163.069 137.461 162.948 136.842C162.88 136.567 162.914 136.292 163.017 136.223C163.137 136.155 163.189 135.725 163.137 135.123C163.069 134.161 163.086 134.127 163.498 134.144C163.79 134.144 167.056 136.292 173.312 140.589C178.469 144.147 188.712 151.211 196.086 156.298C206.536 163.5 209.939 165.769 211.555 166.577C213.669 167.625 215.078 168.192 215.215 168.055C215.456 167.797 211.898 164.48 209.509 162.727C208.839 162.228 198.544 155.147 186.633 146.983C174.722 138.819 164.701 131.944 164.34 131.703C163.997 131.445 163.687 131.067 163.636 130.809C163.584 130.569 163.275 129.984 162.948 129.503C162.605 129.005 162.312 128.283 162.244 127.853C162.175 127.441 162.02 126.942 161.883 126.77C161.745 126.581 161.625 126.272 161.625 126.066C161.625 125.619 160.697 124.897 160.319 125.052C160.147 125.12 160.095 125.275 160.181 125.567C160.233 125.791 160.215 126.014 160.13 126.066C160.044 126.117 159.408 125.034 158.72 123.642L157.448 121.116L157.397 117.678C157.345 113.828 157.053 110.236 156.348 104.53C155.884 100.783 155.867 100.439 155.919 93.6156C155.987 84.4719 155.678 80.5016 154.217 71.0141C153.392 65.686 153.392 65.875 153.289 48.2406C153.255 42.7063 152.567 37.275 152.017 38.1688C151.914 38.3235 151.828 38.3406 151.759 38.2031C151.587 37.9281 150.694 37.9797 150.453 38.2719C150.333 38.4094 150.04 38.5297 149.817 38.5297C149.284 38.5297 147.875 39.6641 147.875 40.0938C147.875 40.2828 147.772 40.4203 147.651 40.4203C147.531 40.4203 147.256 40.575 147.05 40.7813C146.844 40.9703 146.603 41.0906 146.517 41.0391C146.448 40.9875 146.208 41.1938 145.984 41.4688C145.675 41.8985 145.623 42.1391 145.709 42.6891C145.778 43.0672 145.761 43.325 145.675 43.2735C145.589 43.2219 145.52 43.3938 145.503 43.6516C145.486 44.2016 145.4 44.6828 145.211 45.1125C145.108 45.3531 145.039 45.3703 144.85 45.2156C144.695 45.0781 144.609 45.0781 144.609 45.1985C144.609 45.3016 144.455 45.4219 144.283 45.4906C144.094 45.5422 143.905 45.7313 143.853 45.886C143.801 46.0406 143.509 46.2813 143.2 46.4188C142.306 46.8141 141.498 47.3985 141.275 47.8453C141.155 48.0516 140.88 48.5328 140.69 48.8938C140.467 49.2891 140.312 49.8391 140.312 50.2859C140.312 50.8016 140.175 51.2313 139.883 51.6609C139.642 52.0047 139.436 52.4688 139.436 52.675C139.419 52.9672 139.401 52.9844 139.333 52.7438C139.23 52.3656 138.937 52.5375 138.937 52.9844C138.937 53.4313 138.628 53.3969 138.542 52.9156C138.473 52.5375 138.473 52.5375 138.439 52.95C138.439 53.1735 138.25 53.5 138.061 53.6719C137.82 53.8781 137.717 54.1188 137.786 54.3422C137.837 54.5313 137.803 54.6516 137.717 54.5828C137.631 54.5313 137.562 54.7375 137.562 55.0125C137.562 55.5453 137.322 55.7344 137.167 55.3219C137.115 55.2188 137.064 55.3735 137.064 55.6656C137.047 56.2328 136.703 56.4906 136.703 55.9235C136.703 55.6828 136.669 55.6828 136.548 55.8719C136.445 56.0266 136.445 56.25 136.548 56.4391C136.669 56.6453 136.651 56.7485 136.514 56.7485C136.394 56.7485 136.359 56.9203 136.411 57.2125L136.497 57.6938L136.136 57.2641C135.809 56.8688 135.809 56.9203 136.119 57.6938C136.17 57.8313 136.153 57.9516 136.05 57.9516C135.947 57.9516 135.844 57.8484 135.792 57.7281C135.758 57.625 135.74 57.9 135.775 58.3813C135.809 59.1547 135.792 59.2063 135.569 58.9141C135.294 58.5359 135.242 58.6735 135.483 59.1375C135.586 59.3094 135.586 59.5328 135.5 59.6703C135.38 59.8766 135.328 59.8766 135.225 59.6188C135.036 59.086 134.83 59.3094 135.001 59.8766C135.19 60.5813 135.19 60.5813 134.984 60.4438C134.726 60.2719 134.778 60.4781 135.087 60.7875C135.242 60.9422 135.397 61.3031 135.431 61.5781C135.465 61.8531 135.569 62.2313 135.672 62.4203C135.964 62.9531 135.861 63.0563 135.5 62.5922L135.173 62.1625L135.431 62.9188C135.706 63.7094 135.62 64.1391 135.345 63.4344C135.208 63.1078 135.19 63.1766 135.259 63.7953C135.328 64.3625 135.311 64.5 135.173 64.311C134.915 63.95 134.915 64.3797 135.173 64.861C135.311 65.1188 135.311 65.2563 135.173 65.3938C134.933 65.6344 134.623 65.2563 134.761 64.8953C134.795 64.7922 134.744 64.6375 134.623 64.5516C134.486 64.4656 134.451 64.5 134.555 64.6547C134.64 64.8094 134.589 64.8266 134.297 64.7406C133.936 64.6203 133.936 64.6375 134.211 65.0672C134.383 65.3078 134.434 65.5141 134.331 65.5141C134.245 65.5141 134.108 65.3766 134.056 65.2219C133.97 65.0156 133.901 64.9813 133.815 65.1188C133.73 65.2563 133.609 65.2563 133.369 65.0672C133.076 64.861 133.059 64.6719 133.128 63.2453C133.197 62.0078 133.18 61.8016 133.059 62.3344C132.973 62.7125 132.922 63.9156 132.956 64.9985C133.025 66.7859 133.025 66.8719 132.87 65.8578C132.767 65.2391 132.647 64.7063 132.595 64.6547C132.544 64.6031 132.492 63.9844 132.475 63.2797C132.475 62.3516 132.509 62.1281 132.595 62.5063C132.715 62.936 132.733 62.9016 132.681 62.2828C132.647 61.8875 132.681 61.5953 132.767 61.6641C132.853 61.7156 132.922 61.561 132.922 61.3375C132.922 61.0969 133.025 60.65 133.162 60.3406C133.403 59.7906 133.403 59.7735 133.489 60.186C133.558 60.5641 133.558 60.5469 133.592 60.0828C133.592 59.7735 134.159 58.4156 134.83 57.0406C135.5 55.6656 136.101 54.1703 136.187 53.7063C136.256 53.2594 136.325 52.9844 136.342 53.1219C136.359 53.2938 136.411 53.311 136.6 53.1563C137.012 52.8125 137.39 51.4375 137.511 49.9594C137.562 49.2031 137.683 48.4985 137.751 48.3953C137.837 48.2922 137.923 48.0344 137.958 47.7938C137.992 47.5703 138.112 47.3641 138.215 47.3641C138.336 47.3469 138.559 47.3297 138.731 47.3125C138.972 47.2953 138.92 47.1922 138.508 46.8484L137.992 46.4016L138.559 46.5047L139.126 46.6078L138.748 46.0578C138.525 45.7656 138.439 45.5766 138.559 45.6453C138.68 45.7141 138.765 45.6969 138.765 45.5938C138.765 45.5078 138.628 45.336 138.473 45.25C138.301 45.1469 138.25 45.061 138.37 45.061C138.49 45.061 138.542 44.9406 138.49 44.8031C138.422 44.6141 138.559 44.4766 138.955 44.3391L139.539 44.1328L139.023 44.0297L138.508 43.9266L139.195 43.6172L139.883 43.325L139.247 43.1016C138.525 42.8438 137.975 42.3797 138.284 42.2766C138.576 42.1735 138.284 41.7953 137.906 41.7953C137.648 41.7953 137.597 41.6922 137.665 41.1422C137.717 40.6953 137.683 40.575 137.58 40.7641C137.476 40.9016 137.356 40.9531 137.287 40.8844C137.219 40.8156 137.253 40.6609 137.356 40.5578C137.476 40.4375 137.562 40.2141 137.562 40.0422C137.562 39.7672 137.511 39.75 137.201 39.9047C136.926 40.0594 136.858 40.0422 136.875 39.8703C136.926 39.475 136.669 38.8735 136.497 38.9766C136.394 39.0453 136.376 38.9422 136.445 38.7016C136.548 38.375 136.514 38.3235 136.29 38.4094C136.084 38.4953 135.895 38.2719 135.5 37.5156C135.225 36.9656 135.053 36.4672 135.105 36.3985C135.173 36.3469 135.105 36.2953 134.95 36.2953C134.812 36.2953 134.022 35.6078 133.197 34.7485C132.355 33.9063 131.615 33.2531 131.53 33.3047C131.444 33.3563 131.426 33.4766 131.478 33.5797C131.547 33.6828 131.495 33.7344 131.358 33.6828C131.22 33.6313 131.134 33.425 131.169 33.1844C131.22 32.6344 130.894 32.1703 129.175 30.3656C127.817 28.9391 127.714 28.8703 127.147 28.9563C126.562 29.0594 126.562 29.0594 126.562 28.3891C126.562 27.925 126.425 27.5469 126.098 27.1516C125.308 26.1719 124.087 24.9516 123.898 24.9516C123.623 24.9516 122.472 27.3922 121.75 29.5406C121.097 31.4828 121.045 31.9985 121.32 33.6656C121.44 34.3188 121.303 34.3703 120.203 33.975C119.533 33.7344 119.498 33.7344 119.705 34.0094C119.928 34.25 119.894 34.2844 119.378 34.1985C118.725 34.1125 118.725 34.1297 119.189 34.5938C119.584 34.9891 119.498 35.2641 119.086 34.9203C118.862 34.7313 118.845 34.7485 118.931 34.9891C119.017 35.2125 118.914 35.2641 118.226 35.2641C117.522 35.2641 117.436 35.2985 117.625 35.5219C117.797 35.7281 117.78 35.7797 117.522 35.7797C117.264 35.7797 117.247 35.8141 117.436 35.9344C117.59 36.0375 117.608 36.1235 117.47 36.1922C117.161 36.3985 117.006 36.1922 116.078 34.4734C115.047 32.5828 113.19 29.7297 111.781 27.8735C110.114 25.6906 108.911 23.7141 107.656 21.136C106.556 18.9016 106.333 18.5406 105.147 17.3891C104.27 16.5297 103.875 16.2375 103.961 16.4781C104.167 17.1828 103.789 16.8906 103.205 15.8594C102.62 14.8453 100.661 12.9203 100.214 12.9203C100.076 12.9203 99.8358 12.6281 99.6811 12.25C99.4233 11.7 97.4983 9.55157 97.7217 10.0844C97.7561 10.1703 97.928 10.5485 98.0999 10.9094C98.2545 11.2875 98.3577 11.6656 98.3233 11.7688C98.2889 11.8891 98.1514 11.6656 98.0311 11.2875C97.9108 10.9094 97.7045 10.4453 97.5842 10.2563C97.3608 9.9469 97.3436 9.9469 97.3436 10.4281ZM101.022 14.5531L101.125 15.0688L100.781 14.4672C100.386 13.7625 100.334 13.436 100.678 13.7797C100.798 13.9172 100.953 14.261 101.022 14.5531ZM104.889 18.85C104.889 18.936 104.786 18.8328 104.648 18.5922C104.511 18.3516 104.408 18.0766 104.408 17.9906C104.408 17.8875 104.511 18.0078 104.648 18.2485C104.786 18.4891 104.889 18.7469 104.889 18.85ZM107.639 25.1578C107.639 25.2438 107.501 25.2953 107.33 25.2953C106.986 25.2953 106.247 24.5219 105.697 23.5422C105.422 23.061 105.525 23.1297 106.487 24.0063C107.106 24.5735 107.622 25.0891 107.639 25.1578ZM140.398 52.2453C140.347 52.2969 140.312 52.2453 140.312 52.125C140.312 52.0047 140.244 51.9703 140.14 52.0219C139.934 52.1422 139.934 52.0735 140.089 51.6609C140.192 51.4031 140.209 51.4203 140.347 51.7641C140.433 51.9875 140.45 52.1938 140.398 52.2453ZM112.881 64.1735C114.015 65.7031 114.342 66.2875 114.445 66.8891C114.497 67.3188 114.6 67.8 114.634 67.9547C114.686 68.1266 114.634 68.2641 114.531 68.2641C114.428 68.2641 113.844 67.2328 113.259 65.9781C112.658 64.7234 111.97 63.3656 111.712 62.9703C110.905 61.6985 111.403 62.1969 112.881 64.1735ZM132.114 64.3797C132.251 65.2563 131.959 64.9641 131.805 64.0531C131.719 63.6063 131.736 63.4172 131.839 63.5375C131.942 63.6235 132.062 64.0188 132.114 64.3797ZM131.822 65.2735C131.77 65.4281 131.787 65.4797 131.908 65.4281C132.011 65.3594 132.045 65.4797 131.976 65.8063C131.89 66.1844 131.908 66.236 132.045 66.0297C132.2 65.8235 132.217 65.8922 132.131 66.2875C132.062 66.5625 131.994 66.8375 131.959 66.8719C131.822 67.0438 131.547 65.9266 131.547 65.2047C131.564 64.5516 131.598 64.4656 131.736 64.7063C131.839 64.8781 131.873 65.136 131.822 65.2735ZM133.592 65.3938C133.833 65.686 134.005 66.9406 133.781 66.8031C133.678 66.7344 133.609 66.8031 133.609 66.9235C133.609 67.0781 133.558 67.0781 133.437 66.8891C133.351 66.7516 133.265 66.511 133.265 66.3735C133.265 66.15 133.283 66.15 133.437 66.3735C133.575 66.5969 133.609 66.5797 133.609 66.3219C133.609 66.15 133.489 65.8922 133.351 65.7547C133.059 65.4625 133.008 65.1703 133.248 65.1703C133.334 65.1703 133.489 65.2735 133.592 65.3938ZM24.417 88.236C24.3655 88.3735 24.3139 88.3219 24.3139 88.1328C24.2967 87.9438 24.3483 87.8406 24.3999 87.9094C24.4514 87.961 24.4686 88.1156 24.417 88.236ZM149.714 100.044C149.972 99.8375 149.989 99.8375 149.886 100.13C149.783 100.388 149.8 100.422 149.989 100.267C150.126 100.147 150.281 100.113 150.35 100.181C150.401 100.25 150.573 100.147 150.711 99.9578C150.934 99.6656 150.951 99.7 150.9 100.405C150.865 100.834 150.78 101.9 150.694 102.759C150.625 103.636 150.522 104.358 150.47 104.358C150.401 104.358 150.247 104.066 150.126 103.705C149.989 103.361 149.559 102.278 149.147 101.316C148.734 100.336 148.39 99.4938 148.39 99.425C148.39 99.3563 148.614 99.5281 148.906 99.8031C149.353 100.233 149.439 100.25 149.714 100.044ZM92.428 122.714C92.153 123.161 91.242 125.258 90.3827 127.372C88.9733 130.878 88.4061 131.875 88.5436 130.603C88.6124 130.019 88.3545 130.002 87.5983 130.586C87.1858 130.895 87.0311 131.136 87.0827 131.359C87.1342 131.531 87.0655 131.806 86.9452 131.978C86.8249 132.15 86.6702 132.752 86.6014 133.302C86.5155 133.92 86.3092 134.556 86.0514 134.934C85.828 135.278 85.5358 135.88 85.4327 136.292C85.2608 136.963 85.0374 137.186 83.078 138.681C80.328 140.795 80.3452 140.778 80.7061 140.348C81.3249 139.627 82.2014 137.409 82.3561 136.206C82.442 135.381 82.6139 134.848 82.8717 134.505C83.542 133.645 84.7967 131.703 84.7967 131.531C84.7967 131.445 84.8655 131.342 84.9342 131.308C85.2264 131.205 86.7733 128.025 86.9452 127.217C87.0139 126.891 87.2889 126.169 87.5639 125.636C88.1483 124.484 89.7124 123.092 90.4342 123.092C90.692 123.092 91.0874 123.041 91.3108 122.972L91.7233 122.869L91.3108 122.542C90.9327 122.25 90.9327 122.216 91.242 122.25C91.4311 122.267 91.7061 122.267 91.8436 122.25C92.067 122.233 92.067 122.216 91.8436 122.061C91.6374 121.923 91.6889 121.889 92.0499 121.889C92.3077 121.889 92.5655 121.803 92.6342 121.683C92.7374 121.528 92.7889 121.528 92.8405 121.683C92.8749 121.803 92.6858 122.267 92.428 122.714ZM159.923 128.128C159.7 128.352 159.665 128.111 159.855 127.613C159.975 127.32 159.992 127.32 160.044 127.63C160.078 127.802 160.026 128.025 159.923 128.128ZM88.9905 133.508C89.042 133.645 89.0249 133.714 88.9217 133.663C88.8186 133.611 88.7499 133.491 88.7499 133.388C88.7499 133.147 88.8702 133.198 88.9905 133.508Z" fill="black"/>
        <path d="M133.3 61.1311C133.3 61.4061 133.334 61.5092 133.386 61.3374C133.42 61.1827 133.42 60.9421 133.386 60.8218C133.334 60.7186 133.3 60.8389 133.3 61.1311Z" fill="black"/>
        <path d="M134.675 63.4517C134.675 63.6923 134.709 63.7782 134.761 63.6579C134.795 63.5548 134.795 63.3485 134.761 63.2282C134.709 63.1251 134.675 63.211 134.675 63.4517Z" fill="black"/>
    </g>
    <defs>
        <filter id="filter0_d" x="0" y="0" width="235.227" height="230.983" filterUnits="userSpaceOnUse" color-interpolation-filters="sRGB">
            <feFlood flood-opacity="0" result="BackgroundImageFix"/>
            <feColorMatrix in="SourceAlpha" type="matrix" values="0 0 0 0 0 0 0 0 0 0 0 0 0 0 0 0 0 0 127 0"/>
            <feOffset dx="10"/>
            <feGaussianBlur stdDeviation="5"/>
            <feColorMatrix type="matrix" values="0 0 0 0 0.968627 0 0 0 0 0.576471 0 0 0 0 0.101961 0 0 0 1 0"/>
            <feBlend mode="normal" in2="BackgroundImageFix" result="effect1_dropShadow"/>
            <feBlend mode="normal" in="SourceGraphic" in2="effect1_dropShadow" result="shape"/>
        </filter>
    </defs>
</svg>
