<svg width="150" height="150" viewBox="0 0 150 150" fill="none" xmlns="http://www.w3.org/2000/svg">
    <path d="M75 150C116.421 150 150 116.421 150 75C150 33.5786 116.421 0 75 0C33.5786 0 0 33.5786 0 75C0 116.421 33.5786 150 75 150Z" fill="#FF6600"/>
    <path d="M74.8589 24.5635C102.937 24.5635 125.578 47.2041 125.578 75.2822C125.57 80.7439 124.7 86.1701 123 91.3604H107.812V48.7041L74.812 81.751L41.812 48.751V91.4072H26.7183C25.0132 86.202 24.1431 80.7596 24.1401 75.2822C24.1401 47.251 46.8276 24.5635 74.8589 24.5635ZM67.312 89.1572L74.9995 96.751L82.5464 89.1572L96.8433 74.7197V101.532H118.171C113.657 108.977 107.299 115.131 99.7122 119.401C92.125 123.67 83.565 125.911 74.8589 125.907C56.5776 125.907 40.4995 116.11 31.5464 101.532H52.8745V74.7197L67.312 89.1572Z" fill="white"/>
</svg>
