<svg width="244" height="233" viewBox="0 0 244 233" fill="none" xmlns="http://www.w3.org/2000/svg">
    <g filter="url(#filter0_d)">
        <path d="M44.1961 10.1074C44.1961 10.1637 44.3649 10.9324 44.5899 11.8324C45.1149 14.0449 45.0024 14.5324 43.6149 15.9762C42.2836 17.3636 42.1524 18.0199 43.0711 18.6949C43.5586 19.0511 43.6336 19.2199 43.6336 19.9512C43.6336 21.1136 42.9211 26.0262 42.7336 26.1574C42.5461 26.2699 42.7899 36.2449 42.9774 36.8262C43.0336 37.0511 43.0524 37.2199 42.9961 37.2199C42.6399 37.2199 40.4086 36.1699 37.2961 34.5387L33.6961 32.6449L31.6711 29.5511C30.5461 27.8449 29.3836 26.0449 29.0836 25.5574C28.5586 24.6949 28.2586 24.4324 28.2586 24.8449C28.2586 24.9574 28.8024 26.0449 29.4586 27.2449C30.1149 28.4449 30.8649 29.8887 31.1461 30.4324L31.6524 31.4261L30.9211 31.0511C30.0961 30.6199 29.7586 30.7887 29.7586 31.5949C29.7586 32.7949 30.1149 33.4137 31.4461 34.4824C32.7961 35.5699 33.6211 36.6199 34.1461 37.8574C34.4461 38.5699 34.4461 38.6074 34.0711 39.0199L33.6774 39.4324L33.2649 39.0199C33.0399 38.7949 31.5961 37.5574 30.0399 36.2824C26.1773 33.0762 22.5023 29.9074 19.2023 26.9261C17.1586 25.0887 16.3523 24.4886 16.2023 24.6387C16.0523 24.7887 16.9148 25.7824 19.4648 28.3512C22.6711 31.6324 24.5836 33.6574 29.5524 39.0387L31.4836 41.1387L30.3961 41.6262C29.4774 42.0199 29.2711 42.0574 29.0274 41.8512C28.8586 41.7012 25.5586 40.1824 21.6961 38.4387C13.6898 34.8574 10.6148 33.4324 4.59609 30.5074C0.977344 28.7449 0.302344 28.4824 0.114844 28.7074C-0.0164063 28.8762 -0.0351563 29.0449 0.0585938 29.1387C0.152344 29.2324 3.09609 30.9574 6.60235 33.0012C14.7586 37.7637 16.2773 38.6824 22.0336 42.3574L26.7961 45.3761L25.9711 45.5074C25.5399 45.6012 24.7711 45.7324 24.2836 45.8449C23.7961 45.9386 20.0836 46.1074 16.0336 46.2199C11.9836 46.3324 8.47735 46.4637 8.25235 46.5199C8.0086 46.5574 7.8211 46.7262 7.8211 46.8761C7.8211 47.1949 7.87735 47.2137 15.6961 47.9074C23.0648 48.5636 23.4398 48.6199 23.8898 48.9386C24.2086 49.1824 24.1898 49.2012 23.6649 49.4074C22.8023 49.7449 19.0711 50.4949 16.0711 50.9637L13.3523 51.3761V51.9386V52.5011L18.3211 52.6324C21.0586 52.7074 23.9273 52.8387 24.6961 52.9324C26.5524 53.1761 30.0024 54.4324 29.8524 54.8262C29.7961 54.9762 29.8336 55.8761 29.9649 56.7949C30.1336 58.2012 30.1149 58.8574 29.8899 60.5449C29.6086 62.5137 29.6086 62.5887 29.9649 63.0762C30.2836 63.5074 30.3024 63.6387 30.0961 64.2199C29.9649 64.5762 29.5711 65.2887 29.2523 65.7949C28.9149 66.2824 28.6336 66.8636 28.6336 67.0511C28.6336 67.2574 28.4649 67.7262 28.2586 68.1012C28.0524 68.4949 27.8836 68.9824 27.8836 69.2074C27.8836 69.9012 27.4899 70.7449 27.1149 70.8387C26.7211 70.9512 26.6461 71.3636 26.9461 71.9074C27.1898 72.3574 26.0273 75.7137 25.4461 76.2574C25.0149 76.6699 24.9961 76.8387 25.2773 77.3824C25.5399 77.8887 25.6523 79.0324 25.4461 79.0324C25.3524 79.0324 25.1273 79.3136 24.9586 79.6324C24.7711 79.9699 24.3961 80.5511 24.0961 80.9261C23.7586 81.3574 23.4961 81.9199 23.4398 82.4261C23.3836 82.8761 23.1398 83.6449 22.8961 84.1324C22.6523 84.6199 22.4461 85.1637 22.4461 85.3136C22.4461 85.4824 22.1836 86.2324 21.8648 86.9449C21.3398 88.1449 21.3023 88.3512 21.4898 88.9699C21.7711 89.9074 21.7523 90.6199 21.3961 92.6261C21.2086 93.7324 20.9086 94.6511 20.5523 95.2699C19.9523 96.3386 19.8773 96.9387 20.2898 97.5387C20.4398 97.7636 20.5148 98.0637 20.4586 98.2324C20.4023 98.4011 20.2898 99.1324 20.2148 99.8824C20.1211 101.007 20.0461 101.251 19.7836 101.251C19.3711 101.251 19.3711 101.307 19.7273 102.507C20.0836 103.726 19.9148 104.889 18.7898 108.845C18.3398 110.439 17.9273 112.032 17.8523 112.37C17.7586 112.82 17.5523 113.064 17.0461 113.326L16.3711 113.664L16.8961 114.001C17.3836 114.32 17.3836 114.339 17.0648 114.695C16.8773 114.901 16.5023 115.201 16.2211 115.351C15.6961 115.67 15.4148 116.27 15.7148 116.439C15.9398 116.589 16.6336 116.195 16.6336 115.895C16.6336 115.764 17.0648 115.314 17.6086 114.864C18.4148 114.207 18.6211 114.114 18.8273 114.339C19.0336 114.545 18.9961 114.789 18.5273 115.801C18.2273 116.457 17.8523 117.32 17.7023 117.695C17.4586 118.276 17.3461 118.389 17.0273 118.257C16.4461 118.051 15.1523 116.739 14.8711 116.082C14.5336 115.295 13.3711 114.901 12.5461 115.314C11.7023 115.745 11.5523 116.026 11.6086 117.114L11.6648 118.089L12.7898 118.576C13.9898 119.101 14.8711 119.664 15.6211 120.414C15.9773 120.77 16.0711 121.051 16.0711 121.764C16.0711 122.626 16.1086 122.701 17.6648 124.276C19.0148 125.645 19.2773 126.02 19.3711 126.695C19.6148 128.176 20.7773 128.87 22.1461 128.345C23.3836 127.876 21.9211 129.376 20.4023 130.145C20.2336 130.239 19.7836 129.901 19.0711 129.132C18.4711 128.495 17.9086 127.97 17.7773 127.97C17.6648 127.97 16.9336 127.37 16.1648 126.639C15.3961 125.907 14.7586 125.382 14.7586 125.476C14.7586 125.589 15.2086 126.676 15.7711 127.895L16.7836 130.126L17.9461 130.726C18.9023 131.232 19.3148 131.345 20.2898 131.345C21.6023 131.345 22.2586 131.007 24.2461 129.339L25.2211 128.532L25.5023 128.982C25.6711 129.245 26.0086 129.507 26.2336 129.564C26.4774 129.639 26.8524 129.864 27.0586 130.07C27.2836 130.257 27.5461 130.407 27.6399 130.37C27.9023 130.295 32.4961 133.932 34.3336 135.676L35.8336 137.101L35.3836 140.739C35.0274 143.626 34.9336 145.332 34.9149 148.97C34.8961 152.87 34.8399 153.92 34.4836 155.87C33.9774 158.607 33.7899 159.095 33.2836 158.945C32.9649 158.87 32.9274 158.945 32.9649 159.582C32.9836 159.995 32.9086 160.52 32.8148 160.782C32.4211 161.739 32.3461 163.089 32.6461 163.951C33.0586 165.076 33.0211 166.764 32.5711 168.039C32.1399 169.276 32.1211 170.101 32.4024 173.382L32.6273 175.782L32.1211 176.495C31.4461 177.47 31.5024 178.051 32.3461 179.026C32.5524 179.251 32.6649 179.795 32.7024 180.601C32.7211 181.276 32.8336 181.932 32.9461 182.045C33.0399 182.176 33.0774 182.326 33.0211 182.382C32.9649 182.439 33.1336 182.851 33.3961 183.32C33.6399 183.77 33.9211 184.482 33.9961 184.876C34.0711 185.289 34.4274 186.376 34.7836 187.314C35.1399 188.232 35.5336 189.414 35.6836 189.939C35.8336 190.445 36.1149 191.289 36.3024 191.814C36.8836 193.351 37.3149 195.357 37.0899 195.432C36.8274 195.526 36.8274 196.089 37.1086 196.37C37.2399 196.501 37.4274 196.52 37.6524 196.389C37.9336 196.239 38.0649 196.332 38.3649 196.951C38.5711 197.345 38.8899 198.245 39.0586 198.939C39.2649 199.764 39.6774 200.664 40.2211 201.451C41.3274 203.12 41.5711 203.607 41.5711 204.245C41.5711 204.526 41.6461 204.845 41.7399 204.957C42.0774 205.295 42.1149 206.382 41.8149 206.851C41.6086 207.17 41.4774 207.901 41.4211 209.214C41.3461 210.957 41.3836 211.22 41.8336 212.289C42.3024 213.395 42.4711 214.764 42.1899 215.045C42.1149 215.101 42.0399 215.626 42.0024 216.189C41.9461 217.014 42.0211 217.295 42.3211 217.595C42.5274 217.801 42.7899 217.97 42.8836 217.97C42.9961 217.97 43.2774 218.176 43.5024 218.457C44.0086 219.02 44.9649 219.264 46.7836 219.282C47.9649 219.282 48.3211 219.376 49.5024 219.957C51.3024 220.876 53.8336 221.72 54.7524 221.72C55.1649 221.72 55.8211 221.814 56.2336 221.945C56.8711 222.132 57.0211 222.114 57.5086 221.757C58.1274 221.289 58.4649 221.251 58.7649 221.551C58.9336 221.72 59.1211 221.701 59.4961 221.439C59.8899 221.176 60.0774 221.157 60.4524 221.326C61.0149 221.589 60.9961 221.589 61.3524 221.232C61.5774 220.989 61.7086 220.97 61.8774 221.139C62.1961 221.457 62.7024 221.382 63.0024 220.97C63.1336 220.782 63.6211 220.52 64.0899 220.426C64.8774 220.239 65.5711 219.676 65.5711 219.207C65.5711 218.889 65.3649 218.664 64.5024 218.082C63.6586 217.52 63.2836 217.295 61.4086 216.301C58.5961 214.801 56.5336 213.076 55.4086 211.295C55.1461 210.901 54.7524 210.395 54.5274 210.207C53.6836 209.439 54.1899 209.532 55.0899 210.32C55.6149 210.751 56.3461 211.37 56.7211 211.651C57.5274 212.27 57.9024 212.87 57.7711 213.32C57.6774 213.639 58.2961 214.126 58.5211 213.901C58.6899 213.714 58.6524 212.907 58.4649 212.907C58.3711 212.907 58.1836 212.607 58.0711 212.232C57.9024 211.726 57.5649 211.389 56.7774 210.864C56.1961 210.489 55.3899 209.814 54.9774 209.382C54.5836 208.932 53.6836 208.145 52.9899 207.639C51.7711 206.739 51.7149 206.645 51.6024 205.726C51.5274 205.182 50.9274 203.232 50.2524 201.376C49.1086 198.17 48.8836 197.42 48.2461 194.532C47.7211 192.17 47.7211 192.17 48.4149 190.82L49.0524 189.564L48.7899 188.382C48.6399 187.726 48.3961 186.976 48.2461 186.695C48.1149 186.414 47.9461 185.757 47.8899 185.251C47.7774 184.389 47.7961 184.351 48.0399 184.67C48.1899 184.876 48.3211 185.27 48.3211 185.551C48.3211 186.039 48.7336 186.395 49.0899 186.17C49.3149 186.039 49.3149 185.157 49.0899 185.157C48.7899 185.157 48.3399 183.732 48.1524 182.214C47.9274 180.451 47.2524 177.489 47.0086 177.189C46.8961 177.057 46.8774 176.701 46.9336 176.382C47.0274 175.932 46.9711 175.764 46.7649 175.67C46.5399 175.595 46.5024 175.445 46.6149 175.164C46.7274 174.864 46.6524 174.526 46.3336 173.982C45.9024 173.251 45.8836 173.064 45.9774 171.301C46.0149 170.251 46.1461 169.239 46.2399 169.051C46.3524 168.864 46.5024 167.964 46.5961 167.026C46.7461 165.564 46.8774 165.132 47.6649 163.632C48.1524 162.676 48.7149 161.814 48.9024 161.701C49.3524 161.457 49.3524 161.12 48.8836 160.689C48.6024 160.426 48.5649 160.276 48.7149 159.995C48.8274 159.789 49.1086 158.926 49.3524 158.082C49.5774 157.257 50.2149 155.42 50.7586 154.032C52.4836 149.589 53.0086 147.995 53.7586 145.032C54.1711 143.439 54.6774 141.582 54.8836 140.907C55.2961 139.539 55.3524 138.807 55.0524 138.32C54.9024 138.076 55.0899 137.045 55.8024 133.97C56.3086 131.757 56.8336 129.376 56.9649 128.664C57.3399 126.639 57.6399 126.901 59.2524 130.689C59.8149 132.039 60.7711 134.27 61.3524 135.657C62.0086 137.195 62.4399 138.432 62.4211 138.826C62.4024 139.539 65.6274 146.082 68.1024 150.357C68.8711 151.689 69.6399 153.207 69.8086 153.732C69.9774 154.257 70.2774 155.007 70.4649 155.382C70.9149 156.264 70.9149 156.695 70.4649 157.107C70.1649 157.37 70.1274 157.651 70.1836 159.039C70.2399 160.595 70.2211 160.707 69.6961 161.42C69.2836 161.945 69.1336 162.376 69.1336 162.92C69.1336 164.326 68.5899 166.239 67.8211 167.664C66.6586 169.782 66.4711 170.42 66.7336 171.357C66.8461 171.77 66.9211 172.201 66.9024 172.314C66.8649 172.407 66.8086 172.914 66.7899 173.401C66.7336 174.095 66.6211 174.414 66.2274 174.77C65.8711 175.089 65.7586 175.351 65.8149 175.651C65.8711 175.876 65.9649 176.907 66.0211 177.939C66.0961 178.97 66.2461 180.47 66.3586 181.276C66.5461 182.607 66.5274 182.757 66.2086 182.982C65.8899 183.226 65.8899 183.264 66.2086 183.976C66.4899 184.614 66.5086 184.97 66.3586 187.107C66.2461 188.42 66.0774 189.601 65.9649 189.714C65.8524 189.826 65.7586 190.164 65.7586 190.464C65.7586 190.989 65.7961 191.007 66.3774 190.914L66.9961 190.82L66.9586 194.457C66.9399 196.82 66.8461 198.301 66.6961 198.676C66.5086 199.107 66.5086 199.276 66.6961 199.501C67.0524 199.932 66.9961 201.751 66.6211 202.126C66.4336 202.332 66.3211 202.745 66.3211 203.326C66.3211 204.545 66.0024 205.37 65.5336 205.445C65.2336 205.482 65.0461 205.764 64.8024 206.532C64.6149 207.095 64.4461 207.714 64.4461 207.901C64.4461 208.239 64.3524 208.482 63.8274 209.439C63.0024 210.939 63.0211 210.826 63.5461 211.276C63.9211 211.595 64.0711 211.989 64.2586 213.057C64.4461 214.239 64.5586 214.482 65.0649 214.857C65.4024 215.101 66.0961 215.439 66.6024 215.589C67.5961 215.907 70.7461 216.282 72.4336 216.282C73.8211 216.282 77.1399 217.407 78.5836 218.382C79.2211 218.814 80.1024 219.526 80.5524 219.976C81.4899 220.914 83.5711 221.682 84.4711 221.42C84.7524 221.345 85.7461 221.27 86.6649 221.27C87.8836 221.251 88.5211 221.157 88.9524 220.914C89.9461 220.389 90.0024 219.095 89.0649 218.945C88.8586 218.907 88.5774 218.682 88.4461 218.439C88.2211 218.026 87.5649 217.651 86.2899 217.257L85.7274 217.07L86.3274 216.845C86.7024 216.714 86.8899 216.526 86.8336 216.376C86.7774 216.245 85.8774 215.401 84.8274 214.539C83.7774 213.657 81.9586 212.026 80.8149 210.901C78.7899 208.951 78.6961 208.839 78.6961 208.089C78.6961 207.32 78.5461 206.907 77.8524 205.895C77.5524 205.426 77.4961 204.939 77.4399 202.051C77.3836 200.064 77.4774 197.382 77.6649 195.282C77.8149 193.37 77.9836 191.27 78.0399 190.595C78.0961 189.939 78.2274 189.301 78.3211 189.207C78.4336 189.095 78.5086 188.72 78.5086 188.345C78.5086 187.989 78.6024 187.389 78.6961 187.032C78.8086 186.676 79.0899 185.157 79.3524 183.639C79.6149 182.139 79.9899 180.414 80.2149 179.795C80.4211 179.195 80.7961 178.07 81.0399 177.32C81.2836 176.57 81.7149 175.689 81.9774 175.37C82.3711 174.901 82.4461 174.657 82.3711 174.207C82.2211 173.476 82.2211 173.401 82.3336 172.595C82.3899 172.239 82.5211 171.095 82.6336 170.064C82.7461 169.032 82.8586 167.87 82.9149 167.476C82.9524 167.082 83.1961 166.501 83.4586 166.201C83.7399 165.882 83.9461 165.489 83.9461 165.339C83.9461 165.17 84.1711 164.645 84.4524 164.176C84.8836 163.445 84.9586 163.032 85.0899 161.082C85.2399 158.551 85.6524 156.639 86.2149 155.851L86.5899 155.326L86.0649 154.314C85.7649 153.695 85.4274 153.282 85.2586 153.282C85.0336 153.282 84.8836 153.001 84.7524 152.289C84.6399 151.764 84.2086 149.964 83.7774 148.314C83.3461 146.664 82.9524 144.676 82.8961 143.907C82.8211 143.139 82.6711 142.332 82.5399 142.107C82.2399 141.639 81.4336 139.051 81.5461 138.939C81.5836 138.901 85.8024 140.889 90.9399 143.382C97.2399 146.439 100.296 148.014 100.352 148.257C100.427 148.445 100.69 148.651 100.971 148.707C102.152 149.007 128.046 161.664 130.09 162.957C130.484 163.201 130.952 163.389 131.14 163.37C131.534 163.314 133.165 164.139 140.496 168.057C148.596 172.389 153.584 175.201 153.884 175.614C154.034 175.839 154.634 176.532 155.215 177.151C155.89 177.882 156.659 179.064 157.334 180.357C160.184 185.889 162.677 187.782 167.102 187.782C169.765 187.782 170.534 187.632 170.852 187.051C171.377 186.076 171.321 186.095 172.915 186.545C173.74 186.789 175.259 187.389 176.29 187.857C177.359 188.345 178.315 188.664 178.502 188.607C178.69 188.551 179.571 188.851 180.565 189.339C187.502 192.639 193.221 194.907 196.165 195.47C197.984 195.826 205.934 200.157 211.409 203.757C213.621 205.239 214.315 205.614 214.502 205.426C214.652 205.276 214.652 205.126 214.54 204.92C214.259 204.489 210.021 201.826 205.877 199.482C203.909 198.357 201.79 197.157 201.19 196.82L200.102 196.201L201.434 196.295C202.596 196.389 203.102 196.576 205.259 197.626C206.609 198.301 208.184 199.145 208.746 199.501C210.359 200.532 214.634 202.614 214.971 202.557C215.159 202.52 216.959 203.307 218.984 204.32C221.027 205.332 222.771 206.157 222.865 206.157C222.996 206.157 223.259 205.726 223.259 205.501C223.259 205.37 221.271 204.301 220.352 203.945C218.927 203.382 208.315 198.245 207.134 197.551L206.102 196.932L206.984 197.045C208.09 197.176 209.459 197.851 212.796 199.914C215.234 201.414 216.04 201.714 216.04 201.114C216.04 200.964 215.027 200.232 213.79 199.464C211.484 198.057 211.202 197.739 212.984 198.564C214.39 199.22 215.946 199.52 216.152 199.182C216.246 199.032 216.209 198.864 216.077 198.732C215.684 198.376 210.846 196.801 209.477 196.576C208.54 196.426 207.34 195.995 205.259 195.02C203.665 194.27 201.677 193.37 200.852 193.014C200.027 192.676 198.171 191.645 196.727 190.764C195.284 189.882 193.746 188.964 193.315 188.739C192.209 188.176 192.302 188.082 193.502 188.551C200.365 191.326 210.546 194.045 216.602 194.72C219.584 195.057 219.996 195.02 219.827 194.439C219.715 194.101 218.29 193.82 216.115 193.707C212.365 193.501 204.565 191.645 198.284 189.489C191.721 187.22 181.915 182.795 181.54 181.932C181.409 181.651 180.565 181.107 179.009 180.32C177.715 179.664 176.646 179.101 176.609 179.082C176.59 179.045 176.702 178.445 176.871 177.732L177.19 176.439L176.44 175.314C175.39 173.739 173.796 172.689 170.89 171.582C168.452 170.664 167.046 170.476 163.952 170.626C157.615 170.907 156.715 170.832 153.977 169.726C148.652 167.57 135.134 161.739 133.352 160.82C133.052 160.67 132.677 160.389 132.546 160.201C132.415 159.995 132.209 159.845 132.096 159.845C131.327 159.845 103.502 146.607 102.659 145.839C102.471 145.67 102.04 145.539 101.721 145.557C101.271 145.576 98.2899 144.226 90.9399 140.682L80.7774 135.77L80.4961 134.457C80.3274 133.726 80.1399 132.714 80.0649 132.207C79.9899 131.607 79.7836 131.082 79.4461 130.707C79.1086 130.314 78.5461 128.907 77.7211 126.47C76.2961 122.27 74.6274 118.257 73.1649 115.557C72.1711 113.739 71.3461 111.864 71.1024 110.889C71.0086 110.514 71.1961 110.101 72.0211 108.864C73.0524 107.307 73.1461 107.045 73.3336 104.626C73.3711 104.214 73.2961 103.651 73.1461 103.37C72.7711 102.639 72.8086 102.282 73.2961 102.282C73.6711 102.282 73.6899 102.245 73.4274 102.001C73.2586 101.832 72.8836 101.682 72.5836 101.664C72.0961 101.626 72.0399 101.701 71.9274 102.282C71.8336 102.789 71.7961 102.639 71.7774 101.664C71.7586 100.464 71.7774 100.389 72.1336 100.501C72.6961 100.67 75.3961 99.3011 75.0961 99.0012C75.0586 98.9449 74.4961 99.0761 73.8774 99.2636C72.7899 99.6012 72.6961 99.6012 72.4336 99.3011C72.2649 99.1136 72.1336 98.8886 72.1336 98.7761C72.1336 98.4949 71.3086 96.7324 70.9899 96.3574C70.8586 96.1887 70.7274 95.5324 70.6899 94.8574L70.6524 93.6574L71.3274 93.3761C71.7024 93.2074 71.9649 93.0387 71.8899 92.9824C71.8336 92.9261 71.6274 92.9637 71.4211 93.0762C70.7086 93.4699 70.6336 93.3387 70.6336 91.6324C70.6336 89.3449 71.0836 86.6449 71.8524 84.2449C72.5274 82.1824 72.5274 82.1824 72.5274 78.6574C72.5274 76.7074 72.4711 74.6074 72.3961 73.9886C72.2836 72.9012 72.3024 72.8262 72.7899 72.4512C73.1649 72.1324 73.2774 71.9261 73.2024 71.5699C73.1274 71.2137 73.2774 70.8574 73.7274 70.2574C74.8524 68.7949 74.9649 67.8011 74.3274 64.8761C74.1399 64.0137 73.9711 63.6949 73.6149 63.5262C73.3711 63.3949 72.4711 62.8512 71.6461 62.3074C70.2399 61.3887 70.0336 61.1824 69.1336 59.6637C68.4399 58.5011 67.8399 57.7699 67.0899 57.1699C65.6836 56.0262 64.7274 54.6012 64.8024 53.7574C64.8211 53.2324 64.7836 53.1387 64.5961 53.3074C64.3899 53.4574 64.2961 53.3824 64.1086 52.9699C63.9024 52.5011 63.5836 52.2949 62.5336 51.9574C62.0274 51.8074 62.1211 51.6199 63.2649 50.7762L64.3149 49.9699L65.2711 50.4949C65.7961 50.7762 66.4149 51.1512 66.6586 51.3011C67.0524 51.5449 67.1274 51.5262 67.3711 51.2074C67.5211 51.0011 67.6336 50.5699 67.6336 50.2699C67.6336 49.1261 66.8649 46.9137 66.0211 45.6199L65.6836 45.1324L66.7336 43.8387C67.3149 43.1449 68.8336 41.4762 70.1274 40.1637C71.4024 38.8512 72.3961 37.7449 72.3399 37.6887C72.2649 37.6512 71.5524 38.2137 70.7274 38.9261C69.9024 39.6574 68.1586 41.1199 66.8461 42.2074L64.4461 44.1761L63.9774 43.8387C63.6024 43.5762 63.5274 43.3887 63.5836 42.9949C63.6774 42.5449 64.9711 39.1512 65.8336 37.1637C66.0586 36.6387 66.0774 36.4699 65.9086 36.4699C65.7774 36.4886 64.9149 37.8762 63.9774 39.5637L62.3086 42.6387L61.7461 42.2824C60.6399 41.5887 58.8586 39.8636 58.7836 39.3949C58.7086 39.0574 58.8211 38.7949 59.1399 38.4949C59.4024 38.2512 59.8149 37.6699 60.0586 37.1824C60.6774 35.9449 62.0086 32.6262 62.0086 32.2887C62.0086 31.8574 62.3274 31.7262 62.4586 32.1012C62.6836 32.6637 62.9274 32.0824 63.0586 30.7512C63.1336 29.8137 63.0399 28.4637 62.6836 25.9699C61.8961 20.4762 61.2961 18.5824 59.8336 17.1012C59.0086 16.2574 56.0274 14.7762 54.5461 14.4762C53.4024 14.2324 52.8024 13.6512 51.6961 11.6637C51.3774 11.0824 51.0586 10.5949 51.0024 10.5949C50.8149 10.5949 51.1149 12.5637 51.4149 13.4074C51.5649 13.8574 51.6586 14.2512 51.6211 14.2887C51.5836 14.3449 50.7399 13.6136 49.7461 12.6761C48.7711 11.7386 47.8149 10.9699 47.6086 10.9699C47.1961 10.9699 46.5399 11.6262 46.3149 12.2449C46.1649 12.6574 46.0899 12.5824 45.3211 11.3636C44.6086 10.2386 44.1961 9.7699 44.1961 10.1074ZM46.0711 36.5262C46.4461 36.7887 46.4649 36.8262 46.1836 37.3699C45.7711 38.1761 45.6211 38.2137 44.7211 37.8199L43.9149 37.4637L43.9711 35.7574L44.0274 34.0324L44.8524 35.1387C45.3024 35.7386 45.8461 36.3574 46.0711 36.5262ZM44.5711 43.9324V44.4386H42.9586H41.3461L41.8524 44.0636C42.1149 43.8574 42.6961 43.5574 43.1274 43.3887C44.0836 43.0137 44.5711 43.2012 44.5711 43.9324ZM29.1961 68.5137C29.1961 69.0011 28.3336 70.3512 28.1461 70.1637C28.0524 70.0699 28.9711 67.9699 29.1024 67.9699C29.1586 67.9699 29.1961 68.2137 29.1961 68.5137ZM46.8399 75.9762C47.0461 76.6136 47.1961 77.4574 47.1586 77.8324L47.1024 78.5262L46.1649 78.5636C45.6586 78.6012 44.5711 78.8636 43.7461 79.1824C42.6586 79.6136 42.1899 79.7262 41.9274 79.5949C41.4586 79.3324 41.4024 79.3512 41.2149 79.8387C41.1024 80.1199 40.7836 80.3449 40.2961 80.4949C39.0586 80.8699 38.5711 81.3761 38.5711 82.2949C38.5711 83.2699 39.1899 84.2824 39.9399 84.5449C40.3336 84.6949 40.7086 84.6387 41.6274 84.3011C42.2649 84.0574 43.1649 83.7949 43.6336 83.7386C44.1024 83.6637 44.5899 83.5511 44.7024 83.4762C44.8336 83.4012 45.4149 83.4762 45.9961 83.6449C46.5961 83.8136 47.3461 83.9074 47.7024 83.8512L48.3586 83.7386L48.2274 84.4324C48.1711 84.8074 48.0586 85.6136 48.0024 86.2324L47.9086 87.3199L46.2961 87.2074C43.5586 87.0011 43.6899 87.0574 43.7086 85.8387C43.7274 84.4699 43.4086 84.3761 42.7524 85.5199C42.0586 86.7012 41.5149 87.2074 40.7836 87.3574C40.4461 87.4137 39.9961 87.6012 39.7711 87.7511C39.3211 88.0324 39.2274 88.5762 39.0586 92.0074C38.9836 93.7511 39.2086 94.2574 39.4336 92.8136L39.5461 91.9699L40.1086 92.4386C40.4836 92.7574 40.8961 92.9074 41.3836 92.9074C42.0586 92.9074 42.0961 92.9449 42.1711 93.5449C42.2086 93.9762 42.1336 94.3324 41.9086 94.5949C41.3461 95.2887 41.4774 95.8512 42.2649 96.2449C42.9399 96.6012 42.9399 96.6199 42.5461 96.8261C41.8899 97.1637 42.0586 97.4449 42.7524 97.1449C43.3149 96.9199 43.4274 96.9387 44.4399 97.4449C45.0211 97.7262 45.5086 98.0637 45.5086 98.1574C45.5086 98.2699 45.6399 98.3449 45.7899 98.3449C46.2586 98.3449 46.1086 98.6449 45.1899 99.6574C44.3461 100.539 44.1586 100.632 42.5649 101.064C40.7836 101.532 40.7461 101.57 38.6274 103.557C37.8961 104.214 37.9149 104.007 38.3836 106.801C38.6274 108.189 38.6086 108.282 38.1211 109.857C37.6524 111.301 37.6149 111.639 37.7274 113.045L37.8586 114.639L34.7274 112.989C32.0836 111.582 31.5399 111.245 31.3336 110.739C31.1836 110.401 30.9399 110.157 30.7524 110.157C30.5649 110.157 30.2461 110.026 30.0586 109.876C29.1774 109.22 28.0149 109.764 27.2649 111.151L26.8524 111.939L26.7961 111.245C26.7586 110.87 26.9461 109.689 27.2086 108.62C27.7336 106.557 27.8274 105.301 27.5086 104.701C27.3398 104.42 27.3961 104.214 27.6961 103.782C27.9023 103.482 28.1836 102.751 28.2961 102.151C28.4086 101.551 28.6898 100.557 28.9336 99.9387C29.1774 99.3199 29.7211 97.5949 30.1524 96.0949C30.7149 94.0699 31.0524 93.2262 31.4274 92.8136C32.3274 91.8387 32.5711 91.3512 32.5711 90.5074C32.5711 90.0762 32.7024 89.4012 32.8524 89.0262C33.0023 88.6699 33.1336 87.9949 33.1336 87.5449C33.1336 86.9637 33.3586 86.2699 33.9211 85.1261C34.6336 83.7012 34.6899 83.4762 34.5024 82.9886C34.3899 82.6699 34.3524 82.4074 34.4274 82.3699C34.4836 82.3324 34.7461 81.8449 35.0086 81.2824C35.2524 80.7199 35.8711 79.7074 36.3586 79.0324C37.1836 77.9074 37.2586 77.7386 37.2586 76.7074C37.2586 75.6012 37.6336 74.6824 38.5899 73.4261C38.7774 73.2012 38.9836 72.7137 39.0586 72.3574C39.1899 71.6824 39.3024 71.6261 40.7274 71.4199C41.2524 71.3636 41.8711 71.1761 42.1336 71.0449C42.5836 70.7824 42.6586 70.8387 44.5149 72.7887C46.1836 74.5324 46.5024 74.9637 46.8399 75.9762ZM46.8211 79.1261C46.9524 79.2762 46.9711 79.4074 46.8586 79.4074C46.7649 79.4074 46.5774 79.2762 46.4461 79.1261C46.3149 78.9762 46.2961 78.8449 46.4086 78.8449C46.5024 78.8449 46.6899 78.9762 46.8211 79.1261ZM48.1899 81.1324C48.4899 81.5262 48.5274 81.7887 48.4336 82.4824C48.3024 83.2699 48.2461 83.3449 47.6836 83.4574C47.3274 83.5137 46.6524 83.4574 46.1461 83.3074L45.2274 83.0449L46.1649 82.5762C46.9899 82.1637 47.1211 82.0137 47.2711 81.3199C47.4774 80.4386 47.6461 80.4012 48.1899 81.1324ZM39.9399 90.3199C40.0899 91.3512 39.7711 91.5574 39.5836 90.5636C39.4899 89.9824 39.6024 89.1761 39.7711 89.3636C39.8086 89.4012 39.8836 89.8324 39.9399 90.3199ZM41.2336 90.3574C41.8524 90.9012 41.9461 91.0699 41.9086 91.7637C41.8899 92.4762 41.8524 92.5324 41.3649 92.5324C40.3524 92.5324 40.2586 92.4012 40.2586 91.0137C40.2586 90.3011 40.3149 89.7199 40.4086 89.7199C40.4836 89.7386 40.8586 90.0199 41.2336 90.3574ZM44.0086 90.9949C44.0086 91.1637 43.5399 91.6136 43.1274 91.8574C42.9586 91.9512 42.8836 91.8199 42.8836 91.4261C42.8836 90.9012 42.9399 90.8449 43.4461 90.8449C43.7649 90.8449 44.0086 90.9199 44.0086 90.9949ZM47.7774 91.3324C48.0399 91.4824 47.6836 92.3824 47.2899 92.5324C47.0649 92.6261 46.6899 92.9637 46.4836 93.3199C46.2774 93.6574 45.8461 94.1824 45.5274 94.4824L44.9649 95.0261L43.7461 94.4824C42.6211 93.9762 42.5274 93.8824 42.5086 93.3574C42.5086 92.8699 42.6961 92.6449 43.5961 91.9137L44.6649 91.0511L46.1649 91.1637C46.9899 91.2199 47.7211 91.2949 47.7774 91.3324ZM47.4774 94.4449C47.2524 95.1949 46.5399 95.7761 46.0524 95.6262C45.6211 95.4762 45.6399 95.4574 46.4274 94.7636C47.3649 93.9386 47.6461 93.8449 47.4774 94.4449ZM40.7649 103.501C41.0461 103.689 41.3649 103.745 41.6836 103.67C42.2836 103.52 42.3024 103.482 40.7836 105.507C40.1836 106.295 39.5274 107.345 39.3399 107.851L38.9649 108.751L38.9461 107.907C38.9461 107.439 38.8149 106.52 38.6649 105.864C38.3274 104.495 38.4024 104.139 39.0774 103.595C39.6586 103.145 40.2211 103.107 40.7649 103.501ZM72.1149 105.076C72.6211 105.395 71.6274 108.657 71.0274 108.657C70.9336 108.657 70.8961 108.507 70.9336 108.32C71.0836 107.626 71.5711 105.114 71.5711 105.001C71.5711 104.851 71.8149 104.889 72.1149 105.076ZM27.0774 106.539C27.0399 106.839 27.0023 106.632 27.0023 106.126C27.0023 105.601 27.0399 105.376 27.0774 105.601C27.1149 105.845 27.1149 106.257 27.0774 106.539ZM38.4774 112.651L38.4961 115.126L38.2336 113.439C38.0274 112.107 38.0086 111.582 38.1774 110.945C38.3086 110.514 38.4211 110.157 38.4399 110.157C38.4586 110.157 38.4774 111.282 38.4774 112.651ZM27.8461 114.207C28.4649 114.545 28.8773 114.657 29.3086 114.601C29.7586 114.526 30.6774 114.845 33.5274 116.12L37.1461 117.751L37.0899 118.632C37.0711 119.195 37.1274 119.532 37.2399 119.532C37.3524 119.532 37.4461 119.307 37.4461 119.007C37.4461 118.726 37.5211 118.389 37.5961 118.257C37.8586 117.864 38.3836 118.201 38.3836 118.764C38.3836 119.289 37.8774 123.92 37.2586 129.282C37.0524 131.082 36.8836 132.62 36.8836 132.714C36.8836 133.089 31.4836 129.189 29.1024 127.089C28.3899 126.432 27.6961 125.907 27.5648 125.907C27.4336 125.907 26.9648 125.176 26.5336 124.257L25.7274 122.626V120.376C25.7274 118.314 25.6898 118.032 25.2024 117.02C24.8086 116.176 24.7711 115.97 25.0149 116.195C25.2024 116.345 25.4461 116.439 25.5774 116.401C25.6898 116.364 25.8398 116.42 25.9149 116.514C26.0836 116.814 26.3461 116.757 26.5524 116.364C26.6836 116.157 26.6836 115.651 26.5898 115.014C26.3461 113.514 26.4774 113.439 27.8461 114.207ZM22.7461 125.926C22.9148 126.207 22.6523 126.414 21.9773 126.582L21.4148 126.714L21.8648 126.207C22.3711 125.682 22.5398 125.607 22.7461 125.926ZM170.871 172.876C173.515 173.87 175.596 175.332 175.09 175.839C174.959 175.97 174.546 175.707 173.834 175.051C173.196 174.47 172.09 173.757 171.059 173.251C169.127 172.314 169.071 172.201 170.871 172.876ZM169.577 174.001C170.909 174.507 172.652 175.445 172.971 175.839C173.065 175.951 173.102 176.345 173.065 176.682C172.971 177.207 172.915 177.282 172.559 177.17C171.827 176.945 165.321 173.664 165.321 173.514C165.321 173.045 167.777 173.326 169.577 174.001ZM164.14 182.476C165.077 183.114 166.596 183.995 167.515 184.426C168.415 184.857 169.202 185.232 169.24 185.27C169.259 185.289 169.165 185.514 168.996 185.757C168.827 185.982 168.696 186.32 168.696 186.489C168.696 186.732 168.452 186.807 167.534 186.901C164.759 187.145 162.452 186.132 161.271 184.107C160.577 182.945 160.615 182.214 161.384 181.576C161.721 181.276 162.096 181.107 162.209 181.182C162.321 181.239 163.184 181.82 164.14 182.476ZM192.546 189.207C193.24 189.601 193.784 189.939 193.765 189.976C193.727 189.995 192.79 189.62 191.646 189.132C190.521 188.626 188.871 187.914 187.99 187.52C187.09 187.126 186.077 186.582 185.74 186.282C185.215 185.832 185.684 186.001 188.196 187.126C189.902 187.876 191.852 188.814 192.546 189.207ZM180.696 187.989C180.902 188.251 181.296 188.382 182.102 188.457C183.059 188.532 183.884 188.889 188.271 191.082C191.065 192.489 193.446 193.707 193.54 193.82C194.14 194.382 187.371 191.664 183.321 189.714C181.727 188.945 180.134 188.176 179.777 188.026C179.29 187.82 179.196 187.707 179.402 187.576C179.759 187.37 180.34 187.557 180.696 187.989ZM193.315 191.851C197.121 193.689 200.084 195.226 199.896 195.264C198.921 195.451 197.196 194.795 192.827 192.526C190.334 191.232 187.727 189.882 187.015 189.545C185.89 188.964 185.534 188.532 186.19 188.532C186.321 188.532 189.527 190.032 193.315 191.851ZM192.921 190.52C194.196 191.101 196.034 191.907 197.009 192.301C198.621 192.976 201.246 194.476 201.077 194.645C201.04 194.682 198.602 193.539 195.677 192.114C192.752 190.67 190.409 189.489 190.484 189.489C190.54 189.47 191.646 189.939 192.921 190.52ZM204.134 195.376C204.602 195.62 204.846 195.826 204.696 195.826C204.546 195.845 204.077 195.639 203.665 195.376C202.709 194.795 203.027 194.776 204.134 195.376ZM42.6961 208.876C42.6961 209.195 42.5274 209.776 42.3211 210.189L41.9461 210.92V209.532C41.9461 208.764 42.0024 207.92 42.0774 207.657L42.2086 207.189L42.4336 207.751C42.5649 208.07 42.6774 208.576 42.6961 208.876Z" fill="black"/>
    </g>
    <defs>
        <filter id="filter0_d" x="0" y="0" width="243.259" height="232.062" filterUnits="userSpaceOnUse" color-interpolation-filters="sRGB">
            <feFlood flood-opacity="0" result="BackgroundImageFix"/>
            <feColorMatrix in="SourceAlpha" type="matrix" values="0 0 0 0 0 0 0 0 0 0 0 0 0 0 0 0 0 0 127 0"/>
            <feOffset dx="10"/>
            <feGaussianBlur stdDeviation="5"/>
            <feColorMatrix type="matrix" values="0 0 0 0 1 0 0 0 0 0.4 0 0 0 0 0 0 0 0 1 0"/>
            <feBlend mode="normal" in2="BackgroundImageFix" result="effect1_dropShadow"/>
            <feBlend mode="normal" in="SourceGraphic" in2="effect1_dropShadow" result="shape"/>
        </filter>
    </defs>
</svg>
