<svg width="150" height="150" viewBox="0 0 150 150" fill="none" xmlns="http://www.w3.org/2000/svg">
    <path d="M75 150C116.421 150 150 116.421 150 75C150 33.5786 116.421 0 75 0C33.5786 0 0 33.5786 0 75C0 116.421 33.5786 150 75 150Z" fill="#ECB244"/>
    <path d="M70.7816 93.0469H100.313V108.75H82.1253L82.8753 121.875H67.5941V108.891H49.4066C49.4066 103.734 48.7972 98.625 49.7347 93.8438C50.2035 91.2656 52.9222 89.0156 54.5628 86.8125C60.3139 79.6037 66.1109 72.4317 71.9535 65.2969L79.0785 56.9531H50.766V41.25H67.5941V28.125H82.266V40.9219H100.547C100.547 46.2187 101.203 51.375 100.266 56.1562C99.7972 58.7344 97.1253 60.9844 95.2972 63.1875C89.5306 70.3965 83.718 77.5685 77.8597 84.7031C75.5885 87.558 73.2279 90.3406 70.7816 93.0469Z" fill="white"/>
</svg>
