<svg width="190" height="259" viewBox="0 0 190 259" fill="none" xmlns="http://www.w3.org/2000/svg">
    <g filter="url(#filter0_d)">
        <path d="M31.2732 10.3025C31.4972 10.4704 32.2249 10.8063 32.8407 11.0303C37.8231 12.8777 38.5322 13.1763 46.4069 16.6845C52.2103 19.2597 55.4945 20.5659 60.3089 22.2267C62.7721 23.0665 65.254 23.9622 65.8138 24.2234C66.3736 24.4847 67.176 24.8019 67.5865 24.9326C67.9971 25.0632 69.4712 25.679 70.8521 26.2948C72.233 26.9106 74.7895 27.8996 76.5249 28.4781C78.2603 29.0753 79.9211 29.7471 80.201 29.9523C80.4996 30.1763 80.8355 30.3442 80.9661 30.3442C81.0967 30.3442 81.6752 30.6614 82.235 31.0347C83.0374 31.5758 83.4106 31.7064 83.9704 31.6691C84.3809 31.6505 84.8475 31.7438 85.0154 31.8931C85.3513 32.173 87.1427 32.9567 87.4599 32.9567C87.5719 32.9567 88.225 33.218 88.8968 33.5352C89.6805 33.8898 90.2963 34.0764 90.6135 34.0204C90.9681 33.9457 91.2667 34.0764 91.7892 34.5615C92.5542 35.252 92.8341 35.3453 92.9834 34.9348C93.0394 34.7855 93.3753 34.6175 93.7298 34.5429C94.1217 34.4682 94.7562 34.095 95.3533 33.5539C97.35 31.7438 97.2194 31.7811 100.112 31.8931C102.594 32.005 103.862 32.1356 104.441 32.3409C104.59 32.3969 105.169 32.4715 105.729 32.5089C106.736 32.5648 107.744 33.0127 108.005 33.5165C108.08 33.6658 108.192 34.0204 108.266 34.3003C108.322 34.6548 108.49 34.8228 108.714 34.8228C109.349 34.8228 109.554 35.3266 109.927 37.6406C110.17 39.1334 110.02 39.7866 109.181 40.9249C108.901 41.3168 108.919 41.3354 109.461 41.6153C109.759 41.7833 110.207 41.9139 110.45 41.9139C110.953 41.9139 112.166 42.3244 113.529 42.9589C114.088 43.2015 114.667 43.4068 114.853 43.4068C115.04 43.4068 115.469 43.5747 115.824 43.78C118.287 45.1982 125.229 48.2026 128.979 49.4902C130.416 49.9754 131.76 50.4792 131.965 50.6098C132.17 50.7218 133.047 51.0577 133.924 51.3376C134.802 51.6362 136.686 52.4013 138.123 53.0544C141.557 54.6406 146.184 56.5067 148.853 57.4024C149.413 57.589 151.465 58.2981 153.425 58.9885C155.365 59.6603 158.183 60.6307 159.676 61.1345C161.169 61.6384 163.763 62.5901 165.442 63.2805C167.121 63.9523 168.801 64.5681 169.155 64.6428C169.529 64.7174 169.846 64.8667 169.883 64.9787C169.995 65.3332 168.67 66.8634 167.961 67.1993C167.364 67.4792 166.972 67.5165 165.386 67.4046C162.195 67.1806 157.549 66.4155 151.092 65.016C148.274 64.4188 145.531 63.8217 145.027 63.7284C143.292 63.3552 139.803 62.4221 139.149 62.1236C138.795 61.9743 137.862 61.7317 137.097 61.6011C136.332 61.4704 134.559 61.0599 133.178 60.7053C131.797 60.3508 130.23 60.0149 129.726 59.9402C128.532 59.791 126.012 59.0632 120.358 57.2158C117.876 56.3947 115.432 55.6296 114.947 55.5363C114.462 55.4243 113.939 55.2191 113.771 55.0884C113.622 54.9578 113.193 54.7525 112.838 54.6219C112.278 54.4353 112.148 54.454 111.961 54.7339C111.83 54.9018 111.719 55.1071 111.719 55.1817C111.719 55.2377 111.476 55.4057 111.177 55.5176C110.748 55.7042 110.468 55.6856 109.554 55.3683C108.957 55.1631 107.949 54.8832 107.333 54.7339C105.766 54.342 101.884 53.2037 99.7385 52.5132L97.9284 51.9348L94.8868 53.7635C90.8748 56.1708 90.6135 56.3947 87.3106 59.9589C85.9857 61.3958 85.7805 61.657 85.7805 62.0862C85.7805 62.5341 87.7398 65.0347 88.9154 66.0797C91.2293 68.1697 93.8045 73.376 93.8045 75.9885C93.8045 76.3431 93.5432 77.5187 93.2074 78.6384L92.6289 80.6351L92.8341 84.1806C92.9648 86.1214 93.0581 88.9018 93.0581 90.3387V92.9512L92.2743 94.5747C91.8451 95.4891 91.3973 96.2169 91.2853 96.2169C90.8188 96.2169 90.6322 97.3179 90.4456 101.069C90.2217 105.939 89.8298 107.469 87.7398 111.967C87.2733 112.956 87.2547 113.105 87.4599 113.758C87.7398 114.598 87.6465 115.176 86.8814 117.397C86.4336 118.666 86.247 119.618 86.1164 121.316C86.0231 122.547 85.8924 124.059 85.8365 124.675C85.6125 127.212 85.8551 130.068 86.4336 131.523C86.5269 131.747 86.359 132.027 85.8738 132.475C85.0527 133.221 85.0714 133.538 86.0044 135.535C86.3963 136.375 86.6015 137.14 86.6762 137.998C86.7695 139.51 86.5642 139.827 85.5939 139.473C85.0341 139.286 84.9408 139.305 84.6235 139.697C84.101 140.331 84.0264 140.928 84.269 142.29C84.5116 143.634 84.3623 144.754 83.7652 145.948C83.0934 147.347 82.5895 147.478 81.7498 146.47C81.0221 145.612 80.6675 145.724 80.1264 146.974C79.9211 147.478 79.6225 147.945 79.4732 148.001C79.3426 148.057 78.8574 148.001 78.3909 147.889C77.0474 147.553 76.9541 147.665 77.0474 149.512C77.0847 150.389 77.066 151.136 76.9914 151.192C76.8608 151.266 76.189 153.375 75.4239 156.118C75.256 156.678 74.9574 157.648 74.7335 158.264C74.5282 158.88 74.267 159.72 74.155 160.13C73.8378 161.399 72.9234 163.937 72.6248 164.385C72.4756 164.609 72.0277 165.691 71.6172 166.773C71.2253 167.856 70.7588 168.994 70.5909 169.33C70.0497 170.356 69.9377 170.188 73.6512 174.294C74.323 175.04 75.1813 176.066 75.5732 176.57C76.5809 177.858 80.6115 181.478 81.9551 182.281C82.5709 182.654 83.4479 183.064 83.9144 183.176C84.8101 183.419 85.0527 183.643 84.8848 184.072C84.8101 184.296 84.4369 184.333 82.5336 184.221C79.9771 184.091 76.7675 183.643 75.5359 183.251C75.0694 183.102 74.4722 182.99 74.1923 182.99C73.5392 182.99 69.6019 181.665 68.1277 180.937C67.4932 180.62 66.9334 180.377 66.8588 180.377C66.8028 180.377 66.7468 180.844 66.7468 181.403C66.7468 182.392 66.7095 182.486 65.7578 183.512C63.7611 185.677 63.5372 186.181 62.4922 190.547C62.1936 191.779 61.5219 194.13 61.018 195.772C60.4955 197.414 59.8611 199.803 59.5998 201.091C59.3199 202.378 58.8721 204.058 58.6108 204.823C58.3496 205.588 57.8458 207.025 57.4912 208.014C57.1553 209.003 56.7261 210.122 56.5209 210.477C56.3343 210.832 55.6811 212.642 55.1027 214.47C54.5055 216.299 53.7778 218.538 53.4605 219.472C53.162 220.386 52.6768 221.897 52.3782 222.83C51.6132 225.294 47.9184 233.504 46.9667 234.867C46.1643 236.005 44.8394 238.599 44.5408 239.625C44.3542 240.241 43.8877 241.491 43.4959 242.424C42.8801 243.88 42.7868 244.29 42.7868 245.503C42.7868 246.268 42.8614 247.276 42.9547 247.724C43.1413 248.75 42.992 248.862 41.1633 248.862H39.7451L38.98 248.06C37.8791 246.847 36.7034 244.216 36.7034 242.928C36.7034 242.107 36.6101 241.771 36.2183 241.249C35.7331 240.614 35.7144 240.577 35.8451 238.524C35.957 236.714 36.0503 236.285 36.6101 235.109C36.946 234.382 37.3379 233.728 37.4312 233.654C37.7671 233.467 38.3642 232.18 38.5695 231.228C38.7374 230.463 38.6815 230.034 38.1216 227.72C37.6738 225.854 37.4499 224.473 37.3939 223.036L37.3006 221.02L37.9537 220.293C38.3642 219.845 38.924 219.472 39.5212 219.285C40.025 219.117 40.4355 218.93 40.4355 218.856C40.4355 218.8 40.2116 218.501 39.9317 218.221C39.5771 217.848 39.2413 217.699 38.8121 217.699C38.4389 217.699 38.1403 217.587 38.0843 217.437C37.9537 217.12 35.3786 215.833 34.856 215.833C34.2589 215.833 33.6431 215.478 33.3446 214.956C33.1393 214.638 32.6914 214.377 31.8517 214.097C30.7507 213.724 30.6388 213.631 30.6761 213.201C30.6948 212.772 30.5455 212.66 29.3885 212.119C28.2502 211.597 28.101 211.466 28.1943 211.111C28.2689 210.776 28.0823 210.533 27.1306 209.805C26.4962 209.32 25.8244 208.798 25.6191 208.667C25.3392 208.48 25.3019 208.368 25.4885 208.032C25.6751 207.678 25.6191 207.585 24.966 207.155C24.1823 206.67 23.2679 205.327 23.2679 204.674C23.2679 204.431 23.0626 204.17 22.7454 204.002C21.887 203.554 21.1593 202.658 21.2712 202.192C21.3459 201.874 21.1779 201.594 20.4688 200.904C19.8904 200.344 19.4985 199.766 19.3679 199.299C19.2372 198.833 18.8454 198.254 18.3229 197.732C17.4645 196.892 17.2406 196.183 17.7071 195.716C18.1736 195.25 18.7707 195.511 20.1889 196.799C21.4019 197.9 23.6411 199.411 24.0703 199.411C24.3502 199.411 24.1636 198.59 23.6225 197.452C23.2119 196.575 23.0813 196.034 23.1186 195.455C23.1746 194.709 23.2119 194.653 23.7717 194.597C24.2942 194.541 24.3689 194.597 24.5741 195.231C25.1526 196.967 25.7311 197.937 26.5895 198.571C27.0746 198.926 27.8397 199.486 28.2876 199.822C30.1723 201.221 34.7068 203.013 36.2929 202.975C36.7034 202.975 37.8231 203.461 39.8011 204.487C43.4772 206.409 43.7758 206.764 43.9997 209.469C44.2609 212.436 44.5968 214.041 44.97 213.911C45.082 213.873 45.1753 211.335 45.2126 207.995C45.2686 201.445 45.3619 199.579 45.6045 198.758C45.7351 198.366 45.6978 198.068 45.5298 197.732C45.2126 197.116 45.2313 196.593 45.5858 196.09C45.8284 195.735 45.8471 195.567 45.6605 195.119C45.4925 194.709 45.4925 194.373 45.6791 193.589C45.7911 193.048 45.959 192.059 46.0337 191.387C46.2763 189.353 46.7055 187.412 47.0973 186.628C47.3213 186.218 47.6198 185.341 47.7878 184.669C47.9557 183.997 48.4782 182.803 48.926 182.001C49.3926 181.217 49.9524 180.116 50.1576 179.575C50.3629 179.052 50.6615 178.418 50.7921 178.212C50.9414 177.989 51.3519 177.242 51.7251 176.533C52.3409 175.395 52.4156 175.04 52.5835 173.062L52.7701 170.86L51.9117 169.871C51.4266 169.349 50.7175 168.714 50.3256 168.49C49.9524 168.266 49.4299 167.744 49.15 167.352C48.8887 166.941 47.8437 165.747 46.8361 164.683C45.8284 163.601 44.149 161.772 43.0853 160.597C42.0403 159.421 40.7714 158.115 40.2863 157.704C39.8011 157.312 38.9427 156.454 38.3829 155.801C37.2073 154.457 32.5608 150.259 31.6278 149.699C31.2732 149.475 30.6201 149.008 30.1536 148.635C29.7058 148.262 28.9594 147.833 28.5115 147.646C28.0823 147.478 27.4105 147.124 27.0373 146.881C26.6641 146.62 26.2536 146.414 26.1416 146.414C26.0296 146.414 25.8244 146.302 25.7124 146.153C25.3765 145.761 22.8387 144.922 21.943 144.922C21.2712 144.922 21.066 145.034 20.4502 145.668C19.7411 146.414 19.7038 146.433 18.7707 146.302C18.1736 146.228 17.6138 146.004 17.2779 145.724C16.3822 144.959 16.5128 144.212 18.043 141.395C18.7521 140.07 19.3492 138.894 19.3492 138.801C19.3492 138.558 17.7257 137.215 16.1769 136.17C15.5051 135.703 14.7774 135.181 14.5535 134.975C14.0683 134.546 13.5271 134.677 13.0979 135.349C12.7994 135.778 12.7061 135.815 11.829 135.684C10.7467 135.554 9.7204 134.994 9.55246 134.472C9.49648 134.285 9.06729 133.949 8.60077 133.725C8.04095 133.445 7.64909 133.091 7.42517 132.624C7.21989 132.251 6.884 131.784 6.66008 131.579C6.43616 131.374 6.0816 130.87 5.87634 130.459C5.67108 130.049 5.27921 129.433 5.01796 129.079C4.75671 128.724 4.49547 128.127 4.42082 127.772C4.32753 127.194 4.25288 127.101 3.86101 127.156C1.6964 127.436 1.43515 127.418 0.782043 126.933C-0.00170898 126.335 -0.150986 125.869 0.184906 125.216C0.408829 124.768 0.408829 124.637 0.166245 124.208C-0.113663 123.742 -0.0950012 123.686 0.651413 122.697C1.80836 121.204 2.34952 120.7 3.46915 120.159C5.16725 119.319 6.17491 119.636 6.39883 121.073C6.47348 121.465 6.6041 121.838 6.67874 121.894C6.77205 121.95 7.33186 121.502 7.929 120.886C8.50748 120.271 9.42183 119.468 9.96298 119.114C11.6797 117.919 13.5645 115.699 13.5645 114.84C13.5645 114.542 13.7511 114.131 13.975 113.907C14.3855 113.497 14.8894 112.358 15.2626 110.959C15.4678 110.231 15.6918 109.69 16.1956 108.701C16.4008 108.328 16.5501 107.861 16.5501 107.675C16.5501 107.488 16.7554 107.115 17.0166 106.854C17.4645 106.387 18.099 104.969 18.3975 103.774C18.4722 103.457 18.6401 103.009 18.7707 102.767C18.9014 102.543 18.9573 102.151 18.9014 101.908C18.808 101.573 18.92 101.386 19.3492 101.069C19.6478 100.845 19.965 100.453 20.0396 100.173C20.0956 99.8931 20.2636 99.5012 20.3942 99.2959C20.5248 99.0906 20.7301 98.5495 20.842 98.0829C21.1033 97.1312 21.8497 95.9743 22.6894 95.2465C23.0067 94.9852 23.2679 94.5747 23.2679 94.3694C23.2679 94.1455 23.4359 93.6417 23.6225 93.2685C24.0143 92.4847 24.6674 92.0928 26.7947 91.3651C27.9144 90.9918 28.2502 90.7866 28.4928 90.3387C28.6608 90.0215 29.0713 89.5923 29.3885 89.3683C29.7244 89.1631 30.2656 88.6219 30.6015 88.1927C31.5718 86.9238 32.8781 85.7668 34.2589 84.9457C36.89 83.3969 40.4729 80.8777 40.5662 80.5418C40.6221 80.3365 40.8274 80.1312 41.014 80.0753C41.4245 79.9446 42.115 79.0303 42.115 78.6011C42.115 78.4518 42.3576 78.0412 42.6375 77.7053C42.936 77.3694 43.4025 76.6044 43.6638 76.0072C43.925 75.4287 44.2423 74.9435 44.3356 74.9435C44.4475 74.9435 44.5408 74.8689 44.5408 74.7756C44.5408 74.3464 47.5079 71.6033 48.3662 71.23C48.8701 71.0061 49.7471 70.3903 50.3069 69.8491C50.8854 69.308 51.6505 68.6735 52.0237 68.4496C52.7514 68.0017 53.1993 67.3299 53.0873 66.8074C53.0314 66.5089 52.3596 66.005 50.8294 65.1466C50.3442 64.8667 50.2509 64.8667 49.9897 65.128C49.8031 65.2772 49.4299 65.5012 49.1313 65.6131C48.4969 65.8557 48.161 65.6505 47.993 64.8854L47.8811 64.3629L44.8581 64.1389C40.9767 63.8404 38.7934 63.4671 37.6551 62.8887C37.1513 62.6461 36.6661 62.4408 36.5728 62.4408C36.4982 62.4408 35.8824 61.9743 35.2106 61.3958C32.7474 59.2871 32.2623 58.7273 31.7211 57.4584C30.2283 53.9315 29.967 52.9238 30.023 51.0204C30.0417 50.2366 30.023 49.5275 29.967 49.4715C29.8924 49.4155 29.3139 49.6768 28.6608 50.05C27.3172 50.8151 25.6378 51.1137 23.7158 50.9271L22.5775 50.8338L22.4842 52.196C22.4282 52.9611 22.2416 53.9501 22.055 54.4166C20.8047 57.6823 20.6741 58.2421 20.6554 59.8656C20.6554 60.78 20.8234 62.2542 21.0473 63.3179C21.7751 66.8261 21.9617 67.9644 22.2416 70.2783C22.7827 74.7756 22.5028 81.5868 21.6631 84.7405C21.4019 85.7668 21.1033 86.9424 20.9913 87.3343C20.7114 88.5473 19.6105 90.432 18.2109 92.1115C17.4832 92.9885 16.4382 94.2761 15.897 95.0039C14.5535 96.7767 13.4712 97.7844 13.1166 97.6537C12.5755 97.4485 12.7994 96.7767 13.7137 95.7877C14.8147 94.5934 15.8037 93.3244 15.8037 93.1005C15.8037 93.0072 16.0463 92.5967 16.3635 92.1861C16.6621 91.7756 16.9607 91.0665 17.0353 90.6373C17.11 90.1894 17.3525 89.6109 17.5951 89.3124C17.8377 89.0325 18.0056 88.6592 17.9497 88.5099C17.8377 88.23 18.6588 84.3113 18.9947 83.5275C19.5358 82.2772 19.5358 76.3804 18.976 74.1971C18.0803 70.5769 16.942 67.4792 14.5908 62.1609C13.5271 59.7723 12.6314 57.1598 12.1649 55.1444C12.0156 54.4726 11.6611 53.5209 11.3998 53.0358C11.0826 52.4573 10.952 51.9907 11.008 51.6548C11.0639 51.3749 10.9893 50.106 10.8587 48.8184C10.7281 47.5308 10.6721 46.4485 10.7467 46.3925C11.0826 46.1872 11.1386 45.3102 10.84 45.0676C10.6534 44.9183 10.5974 44.6944 10.6721 44.4518C10.896 43.6867 11.3439 41.8019 11.4558 41.1675C11.5118 40.8129 11.6424 40.421 11.7357 40.2904C11.829 40.1598 11.8663 39.8985 11.8104 39.7119C11.7357 39.488 11.8477 39.0775 12.0716 38.7042C12.2769 38.3497 12.6128 37.5659 12.818 36.9688C13.0233 36.3716 13.3405 35.6625 13.5271 35.4013C13.6951 35.1214 13.9377 34.6922 14.0496 34.4309C14.1803 34.151 14.6841 33.4792 15.1879 32.9194C15.6731 32.3782 16.6248 31.2772 17.2966 30.4935C18.4162 29.1499 18.6401 28.982 20.6181 28.0116C25.0593 25.8283 27.6904 25.2871 32.1876 25.6603C33.6991 25.7723 35.4718 25.9962 36.1436 26.1642C36.8154 26.3135 37.7298 26.5187 38.1963 26.6307C39.148 26.836 39.3719 27.0039 39.2786 27.4704C39.2413 27.6944 38.8681 27.9183 38.0657 28.1422C37.1513 28.4221 36.6848 28.702 35.7891 29.5604C35.024 30.2882 34.6135 30.8294 34.5388 31.2399C34.3895 32.0237 33.8297 32.3969 32.8594 32.3969C31.7771 32.3969 30.6388 32.8447 29.4632 33.7218C27.3546 35.308 27.1306 37.8085 29.09 37.8085C29.6498 37.8085 29.8177 37.6966 30.3216 36.9874C31.2919 35.6439 32.6168 35.0094 33.1393 35.6439C33.3072 35.8491 33.2513 36.0358 32.8407 36.5023L32.3369 37.1181L33.4752 36.9874C34.1843 36.9128 34.7814 36.9315 35.0613 37.0807C35.4718 37.2487 35.6958 37.1927 36.8154 36.5582C37.5245 36.1664 38.9427 35.4759 39.969 35.0467C40.9953 34.5989 41.9657 34.1697 42.1336 34.0764C42.6748 33.7964 45.194 33.3299 45.6231 33.4606C45.8471 33.5165 46.0337 33.4792 46.0337 33.3859C46.0337 33.162 47.8997 33.3113 48.2169 33.5539C48.3476 33.6472 48.4595 34.0764 48.4969 34.5056C48.5528 35.2147 48.6088 35.2893 49.094 35.3453C49.3926 35.3826 49.7098 35.3266 49.8218 35.2147C49.9337 35.1027 50.2696 35.0094 50.5495 35.0094C50.9787 35.0094 51.072 35.084 51.072 35.4573C51.072 36.0358 51.5758 36.5396 52.005 36.409C52.1916 36.353 53.4979 36.2783 54.9161 36.241C56.3343 36.2037 57.5285 36.0917 57.5472 35.9984C57.6591 35.6812 59.2453 35.8865 59.8238 36.297C60.3276 36.6516 60.3836 36.8195 60.4396 37.7712L60.4955 38.8349H61.1113C61.6338 38.8349 61.8204 38.9655 62.2683 39.6C62.5482 40.0292 62.8468 40.5517 62.9027 40.7569C62.9774 40.9809 63.2013 41.2048 63.3879 41.2608C63.8731 41.4101 64.0224 41.9885 63.7611 42.7723C63.4439 43.724 63.6678 43.892 64.9741 43.6307C66.2057 43.3881 66.4669 43.4814 67.5492 44.4891C68.165 45.0862 68.221 45.2355 68.1277 45.8327C67.9411 46.859 67.6238 47.3255 66.2057 48.7064C64.7875 50.0687 64.6568 50.3672 64.2836 52.6625C64.0597 54.0994 64.1717 54.9391 64.6195 55.1071C64.8994 55.2191 65.4779 54.7525 66.8961 53.241C67.3999 52.7185 67.8851 52.4386 68.8741 52.14C69.6019 51.9348 70.3296 51.6548 70.4789 51.5242C70.6282 51.3936 71.1693 51.207 71.6545 51.0764C72.1583 50.9644 72.7555 50.7405 72.9607 50.5912C73.5952 50.1993 77.7192 49.005 78.4842 49.005C78.8574 49.005 79.3799 48.8557 79.6412 48.6691C79.9211 48.5012 80.6302 48.0347 81.2273 47.6241C82.4962 46.803 83.7278 45.6647 83.7278 45.3475C83.7278 45.2169 83.3173 44.769 82.7948 44.3398C81.9924 43.668 81.8804 43.4814 81.9178 42.9776C81.9551 42.4364 81.8618 42.3431 81.1154 41.9699C80.6488 41.746 79.8651 41.4287 79.3613 41.2608C78.8761 41.1115 77.1593 40.3651 75.5919 39.5813C74.0057 38.8162 72.6808 38.1817 72.6435 38.1817C72.3263 38.1817 63.2946 33.7218 62.5855 33.218C62.1003 32.8634 61.074 32.2476 60.3089 31.8371C59.5439 31.4452 58.6668 30.9413 58.3682 30.7361C58.0697 30.5121 57.7338 30.3442 57.6218 30.3442C57.5099 30.3442 56.8568 29.971 56.1663 29.5045C55.4759 29.0379 54.8228 28.6647 54.6921 28.6647C54.3189 28.6647 50.5682 26.6494 46.8734 24.466C44.914 23.3091 42.4695 21.8722 41.4245 21.275C39.6705 20.2487 35.1919 17.2816 32.7847 15.5462C30.4522 13.8667 29.8364 12.9337 30.079 11.4408C30.3216 9.87329 30.4522 9.74266 31.2732 10.3025ZM52.2849 85.3376C50.9227 85.9161 49.9897 86.5692 49.3926 87.3903C49.1313 87.7262 47.7504 89.0511 46.3322 90.3574C43.9064 92.522 43.5705 92.7833 41.2566 93.9029C39.2599 94.8733 38.6068 95.3025 37.9537 96.0303C37.0953 96.982 36.3302 98.3815 36.3302 98.9787C36.3302 99.1466 36.069 99.6131 35.7704 99.9863C35.4532 100.36 34.8934 101.405 34.5202 102.319C33.5871 104.577 32.8594 105.659 31.1613 107.357C28.5115 110.007 27.112 111.817 26.0296 114.001C24.966 116.184 23.5665 118.442 22.5961 119.58C21.3832 120.998 20.6554 122.155 20.6554 122.659C20.6554 122.902 20.9913 123.63 21.4019 124.245C22.055 125.253 22.1483 125.533 22.1483 126.485C22.1483 127.324 22.2789 127.828 22.7081 128.687C23.1933 129.638 23.2679 130.012 23.2679 131.243C23.2679 132.493 23.3239 132.773 23.7158 133.259L24.1636 133.818L25.2459 133.072C25.843 132.661 26.6454 132.064 27 131.747C27.3546 131.411 27.989 131.019 28.3809 130.851C29.09 130.553 29.1273 130.553 29.7431 130.963C30.3589 131.392 31.2919 132.941 31.2919 133.576C31.2919 133.781 31.0493 134.005 30.6761 134.154C29.7244 134.565 29.5565 134.901 29.6684 136.114C29.8924 138.614 32.8781 142.888 35.7704 144.847C36.125 145.09 36.7594 145.575 37.1886 145.911C40.081 148.206 40.9021 148.84 41.8351 149.493C42.4322 149.904 43.2906 150.594 43.7758 151.005C44.2423 151.434 44.8767 151.919 45.194 152.087C45.4925 152.255 46.127 152.684 46.5935 153.039C47.06 153.394 47.7318 153.897 48.0863 154.14C48.4409 154.383 49.6165 155.297 50.6988 156.174C51.7811 157.051 52.7141 157.704 52.7888 157.648C52.8634 157.574 53.0127 156.006 53.1247 154.159C53.218 152.311 53.3672 150.259 53.4232 149.587C53.4979 148.915 53.5725 148.075 53.5912 147.721C53.6471 146.9 54.3189 144.492 54.8041 143.354C55.3079 142.178 55.1586 141.861 54.1696 142.029C53.7405 142.085 52.7141 142.197 51.8557 142.234C49.9337 142.365 48.8887 142.048 47.3586 140.891C46.7614 140.443 46.183 140.07 46.1083 140.07C46.015 140.07 45.6791 139.865 45.3806 139.622C44.6901 139.062 44.8581 138.838 46.0897 138.596C46.5935 138.502 47.0227 138.39 47.0973 138.334C47.1533 138.278 46.9667 138.017 46.7055 137.774C46.3696 137.457 45.7351 137.215 44.7648 137.009C42.992 136.618 41.3499 135.834 40.0997 134.77L39.148 133.949L39.9877 133.352C40.4915 132.997 40.8087 132.643 40.7714 132.456C40.6781 131.952 39.8757 131.672 38.8867 131.784C38.1216 131.896 37.935 131.859 37.5245 131.467C37.0953 131.075 37.058 130.926 37.17 130.105C37.2446 129.601 37.5058 128.743 37.7484 128.183C38.2336 127.101 38.2523 127.156 37.0766 126.858C36.4982 126.709 36.4235 126.634 36.4422 126.111C36.4795 125.384 37.002 124.637 38.1776 123.667C38.8867 123.07 39.4279 122.809 40.5475 122.529C41.3312 122.323 42.2269 122.155 42.5069 122.155C43.3092 122.155 43.6638 121.969 43.4212 121.67C42.9547 121.129 44.2609 119.841 45.4552 119.636C45.8657 119.58 46.6308 119.226 47.1906 118.871C47.7318 118.535 48.7021 117.994 49.3552 117.677C50.3816 117.173 50.5682 117.005 50.9041 116.221C51.2773 115.344 51.9304 114.504 52.229 114.504C52.6395 114.504 57.174 112.582 57.6965 112.191C58.3123 111.705 59.6558 109.559 59.6558 109.018C59.6558 108.682 59.1333 108.589 56.5768 108.458C55.3266 108.402 54.3936 108.234 53.7218 107.992C53.1806 107.768 52.6581 107.6 52.5648 107.6C52.3036 107.6 51.4452 109.018 51.072 110.045C50.8854 110.511 50.4002 111.351 49.971 111.892C49.5418 112.433 48.8514 113.571 48.4409 114.43C47.1906 117.08 46.3322 117.77 44.0557 117.975C42.6002 118.106 39.5958 117.77 38.6441 117.378L37.991 117.117L37.6551 117.919C37.4685 118.367 37.0953 118.871 36.8154 119.039C36.4982 119.263 36.2369 119.692 36.0503 120.364C35.7518 121.372 35.4159 121.931 34.4642 122.995C34.1843 123.294 33.9044 123.835 33.8297 124.189C33.7737 124.525 33.4192 125.309 33.046 125.906C32.4675 126.877 32.3929 127.101 32.5048 127.847C32.6541 128.817 32.5048 129.62 32.1689 129.62C32.0197 129.62 31.8144 129.023 31.6091 128.09C31.3665 126.933 31.1613 126.429 30.8067 126.093C30.4335 125.757 30.3589 125.552 30.4522 125.16C30.5082 124.899 30.6388 124.133 30.7321 123.462C31.012 121.372 31.2546 120.42 31.7211 119.394C32.113 118.554 32.3369 118.33 33.102 117.957C33.5871 117.733 34.3522 117.192 34.7814 116.762C35.2106 116.352 35.6958 115.997 35.8451 115.997C36.3489 115.997 36.181 115.605 35.2106 114.579C34.4082 113.739 34.2776 113.497 34.2776 112.844C34.2776 112.433 34.3895 111.817 34.5388 111.481C34.6881 111.146 35.0427 110.231 35.3226 109.466C35.6771 108.589 36.1063 107.824 36.5355 107.395C37.2073 106.723 40.8647 104.801 41.4619 104.801C41.6298 104.801 42.059 104.521 42.4135 104.166C43.1226 103.457 44.2423 102.748 44.6528 102.748C44.8021 102.748 45.5672 102.412 46.3322 102.002C47.116 101.591 47.8437 101.255 47.9744 101.255C48.0863 101.255 48.7954 100.714 49.5605 100.061C50.8108 98.9413 51.0907 98.7921 52.994 98.1763C55.9611 97.2432 57.5658 97.0006 60.6075 97.0753L63.2013 97.1312V96.4035C63.2013 94.724 62.2869 93.2685 60.3836 91.8876C58.7228 90.6746 57.2486 88.8832 56.8194 87.5582C56.7075 87.241 56.2969 86.5506 55.9051 86.0281C55.4945 85.5056 55.1773 85.0017 55.1773 84.9084C55.1773 84.4232 54.7481 84.2926 54.0763 84.5912C53.7031 84.7405 52.9007 85.0764 52.2849 85.3376ZM54.8041 102.002C53.1247 102.58 51.8184 103.308 51.8184 103.681C51.8184 103.924 54.5615 104.764 56.129 105.006C56.8568 105.118 57.8831 105.155 58.4056 105.099C61.4846 104.764 61.3166 104.82 61.8018 104.073C62.1377 103.513 62.3989 103.327 63.052 103.196C63.6492 103.065 63.8731 102.935 63.9104 102.636C63.9477 102.431 63.8358 102.151 63.6865 102.02C63.1826 101.61 60.7568 101.274 58.6295 101.33C56.8941 101.386 56.3156 101.479 54.8041 102.002ZM46.127 104.353C44.2049 105.361 44.149 105.678 45.5112 107.563C46.9294 109.466 47.7504 109.709 48.9634 108.533C49.6538 107.861 49.9524 106.667 49.5418 106.126C47.6012 103.495 47.6758 103.551 46.127 104.353ZM17.0913 130.366C16.6061 130.627 16.6434 131.075 17.1473 131.299C17.3899 131.392 18.1176 131.934 18.7894 132.493C19.4425 133.072 20.0583 133.538 20.1329 133.538C20.6368 133.538 19.6105 131.262 18.7521 130.497C18.3229 130.142 17.6324 130.086 17.0913 130.366Z" fill="black"/>
    </g>
    <defs>
        <filter id="filter0_d" x="0" y="0" width="189.89" height="258.862" filterUnits="userSpaceOnUse" color-interpolation-filters="sRGB">
            <feFlood flood-opacity="0" result="BackgroundImageFix"/>
            <feColorMatrix in="SourceAlpha" type="matrix" values="0 0 0 0 0 0 0 0 0 0 0 0 0 0 0 0 0 0 127 0"/>
            <feOffset dx="10"/>
            <feGaussianBlur stdDeviation="5"/>
            <feColorMatrix type="matrix" values="0 0 0 0 0.92549 0 0 0 0 0.698039 0 0 0 0 0.266667 0 0 0 1 0"/>
            <feBlend mode="normal" in2="BackgroundImageFix" result="effect1_dropShadow"/>
            <feBlend mode="normal" in="SourceGraphic" in2="effect1_dropShadow" result="shape"/>
        </filter>
    </defs>
</svg>
