<svg width="190" height="259" viewBox="0 0 190 259" fill="none" xmlns="http://www.w3.org/2000/svg">
    <g filter="url(#filter0_d)">
        <path d="M138.619 10.3025C138.395 10.4704 137.667 10.8063 137.052 11.0303C132.069 12.8777 131.36 13.1763 123.485 16.6845C117.682 19.2597 114.397 20.5659 109.583 22.2267C107.12 23.0665 104.638 23.9622 104.078 24.2234C103.518 24.4847 102.716 24.8019 102.305 24.9326C101.895 25.0632 100.42 25.679 99.0396 26.2948C97.6587 26.9106 95.1022 27.8996 93.3667 28.4781C91.6313 29.0753 89.9704 29.7471 89.6905 29.9523C89.392 30.1763 89.0561 30.3442 88.9254 30.3442C88.7948 30.3442 88.2163 30.6614 87.6565 31.0347C86.8541 31.5758 86.4809 31.7064 85.921 31.6691C85.5105 31.6505 85.044 31.7438 84.876 31.8931C84.5401 32.173 82.7487 32.9567 82.4315 32.9567C82.3195 32.9567 81.6664 33.218 80.9946 33.5352C80.2108 33.8898 79.595 34.0764 79.2778 34.0204C78.9232 33.9457 78.6247 34.0764 78.1022 34.5615C77.3371 35.252 77.0572 35.3453 76.9079 34.9348C76.8519 34.7855 76.516 34.6175 76.1614 34.5429C75.7696 34.4682 75.1351 34.095 74.5379 33.5539C72.5412 31.7438 72.6719 31.7811 69.7794 31.8931C67.2976 32.005 66.0286 32.1356 65.4501 32.3409C65.3008 32.3969 64.7224 32.4715 64.1625 32.5089C63.1549 32.5648 62.1472 33.0127 61.8859 33.5165C61.8113 33.6658 61.6993 34.0204 61.6247 34.3003C61.5687 34.6548 61.4007 34.8228 61.1768 34.8228C60.5423 34.8228 60.3371 35.3266 59.9639 37.6406C59.7213 39.1334 59.8706 39.7866 60.7103 40.9249C60.9902 41.3168 60.9715 41.3354 60.4304 41.6153C60.1318 41.7833 59.6839 41.9139 59.4414 41.9139C58.9375 41.9139 57.7246 42.3244 56.3623 42.9589C55.8025 43.2015 55.224 43.4068 55.0374 43.4068C54.8508 43.4068 54.4216 43.5747 54.067 43.78C51.6038 45.1982 44.662 48.2026 40.9112 49.4902C39.4743 49.9754 38.1307 50.4792 37.9254 50.6098C37.7202 50.7218 36.8431 51.0577 35.9661 51.3376C35.089 51.6362 33.2043 52.4013 31.7674 53.0544C28.3338 54.6406 23.7059 56.5067 21.0374 57.4024C20.4776 57.589 18.4249 58.2981 16.4655 58.9885C14.5248 59.6603 11.707 60.6307 10.2141 61.1345C8.72127 61.6384 6.12742 62.5901 4.44794 63.2805C2.76847 63.9523 1.089 64.5681 0.734442 64.6428C0.361226 64.7174 0.0439918 64.8667 0.00667017 64.9787C-0.105295 65.3332 1.21962 66.8634 1.92873 67.1993C2.52588 67.4792 2.91776 67.5165 4.50393 67.4046C7.69492 67.1806 12.3415 66.4155 18.7981 65.016C21.6159 64.4188 24.359 63.8217 24.8629 63.7284C26.5983 63.3552 30.0879 62.4221 30.741 62.1236C31.0956 61.9743 32.0286 61.7317 32.7937 61.6011C33.5588 61.4704 35.3316 61.0599 36.7125 60.7053C38.0934 60.3508 39.6609 60.0149 40.1647 59.9402C41.359 59.791 43.8782 59.0632 49.5325 57.2158C52.0144 56.3947 54.4589 55.6296 54.9441 55.5363C55.4293 55.4243 55.9518 55.2191 56.1197 55.0884C56.269 54.9578 56.6982 54.7525 57.0528 54.6219C57.6126 54.4353 57.7432 54.454 57.9298 54.7339C58.0605 54.9018 58.1724 55.1071 58.1724 55.1817C58.1724 55.2377 58.415 55.4057 58.7136 55.5176C59.1428 55.7042 59.4227 55.6856 60.3371 55.3683C60.9342 55.1631 61.9419 54.8832 62.5577 54.7339C64.1252 54.342 68.0067 53.2037 70.1527 52.5132L71.9628 51.9348L75.0045 53.7635C79.0165 56.1708 79.2778 56.3947 82.5808 59.9589C83.9057 61.3958 84.1109 61.657 84.1109 62.0862C84.1109 62.5341 82.1516 65.0347 80.9759 66.0797C78.662 68.1697 76.0868 73.376 76.0868 75.9885C76.0868 76.3431 76.3481 77.5187 76.6839 78.6384L77.2624 80.6351L77.0572 84.1806C76.9265 86.1214 76.8332 88.9018 76.8332 90.3387V92.9512L77.617 94.5747C78.0462 95.4891 78.494 96.2169 78.606 96.2169C79.0725 96.2169 79.2591 97.3179 79.4457 101.069C79.6697 105.939 80.0616 107.469 82.1516 111.967C82.6181 112.956 82.6367 113.105 82.4315 113.758C82.1516 114.598 82.2449 115.176 83.01 117.397C83.4578 118.666 83.6444 119.618 83.7751 121.316C83.8684 122.547 83.999 124.059 84.055 124.675C84.2789 127.212 84.0363 130.068 83.4578 131.523C83.3645 131.747 83.5325 132.027 84.0176 132.475C84.8387 133.221 84.8201 133.538 83.887 135.535C83.4951 136.375 83.2899 137.14 83.2152 137.998C83.1219 139.51 83.3272 139.827 84.2976 139.473C84.8574 139.286 84.9507 139.305 85.2679 139.697C85.7904 140.331 85.8651 140.928 85.6225 142.29C85.3799 143.634 85.5292 144.754 86.1263 145.948C86.7981 147.347 87.3019 147.478 88.1417 146.47C88.8695 145.612 89.224 145.724 89.7652 146.974C89.9704 147.478 90.269 147.945 90.4183 148.001C90.5489 148.057 91.0341 148.001 91.5006 147.889C92.8442 147.553 92.9375 147.665 92.8442 149.512C92.8069 150.389 92.8255 151.136 92.9002 151.192C93.0308 151.266 93.7026 153.375 94.4677 156.118C94.6356 156.678 94.9342 157.648 95.1581 158.264C95.3634 158.88 95.6247 159.72 95.7366 160.13C96.0539 161.399 96.9682 163.937 97.2668 164.385C97.4161 164.609 97.864 165.691 98.2745 166.773C98.6664 167.856 99.1329 168.994 99.3008 169.33C99.842 170.356 99.954 170.188 96.2405 174.294C95.5687 175.04 94.7103 176.066 94.3184 176.57C93.3107 177.858 89.28 181.478 87.9364 182.281C87.3206 182.654 86.4436 183.064 85.977 183.176C85.0813 183.419 84.8387 183.643 85.0067 184.072C85.0813 184.296 85.4545 184.333 87.3579 184.221C89.9145 184.091 93.1241 183.643 94.3557 183.251C94.8223 183.102 95.4194 182.99 95.6993 182.99C96.3524 182.99 100.29 181.665 101.764 180.937C102.399 180.62 102.958 180.377 103.033 180.377C103.089 180.377 103.145 180.844 103.145 181.403C103.145 182.392 103.182 182.486 104.134 183.512C106.131 185.677 106.355 186.181 107.4 190.547C107.698 191.779 108.37 194.13 108.874 195.772C109.396 197.414 110.031 199.803 110.292 201.091C110.572 202.378 111.02 204.058 111.281 204.823C111.542 205.588 112.046 207.025 112.401 208.014C112.737 209.003 113.166 210.122 113.371 210.477C113.558 210.832 114.211 212.642 114.789 214.47C115.386 216.299 116.114 218.538 116.431 219.472C116.73 220.386 117.215 221.897 117.514 222.83C118.279 225.294 121.974 233.504 122.925 234.867C123.728 236.005 125.053 238.599 125.351 239.625C125.538 240.241 126.004 241.491 126.396 242.424C127.012 243.88 127.105 244.29 127.105 245.503C127.105 246.268 127.031 247.276 126.938 247.724C126.751 248.75 126.9 248.862 128.729 248.862H130.147L130.912 248.06C132.013 246.847 133.189 244.216 133.189 242.928C133.189 242.107 133.282 241.771 133.674 241.249C134.159 240.614 134.178 240.577 134.047 238.524C133.935 236.714 133.842 236.285 133.282 235.109C132.946 234.382 132.554 233.728 132.461 233.654C132.125 233.467 131.528 232.18 131.323 231.228C131.155 230.463 131.211 230.034 131.771 227.72C132.219 225.854 132.442 224.473 132.498 223.036L132.592 221.02L131.939 220.293C131.528 219.845 130.968 219.472 130.371 219.285C129.867 219.117 129.457 218.93 129.457 218.856C129.457 218.8 129.681 218.501 129.961 218.221C130.315 217.848 130.651 217.699 131.08 217.699C131.453 217.699 131.752 217.587 131.808 217.437C131.939 217.12 134.514 215.833 135.036 215.833C135.633 215.833 136.249 215.478 136.548 214.956C136.753 214.638 137.201 214.377 138.041 214.097C139.142 213.724 139.254 213.631 139.216 213.201C139.198 212.772 139.347 212.66 140.504 212.119C141.642 211.597 141.792 211.466 141.698 211.111C141.624 210.776 141.81 210.533 142.762 209.805C143.396 209.32 144.068 208.798 144.273 208.667C144.553 208.48 144.591 208.368 144.404 208.032C144.217 207.678 144.273 207.585 144.927 207.155C145.71 206.67 146.625 205.327 146.625 204.674C146.625 204.431 146.83 204.17 147.147 204.002C148.006 203.554 148.733 202.658 148.621 202.192C148.547 201.874 148.715 201.594 149.424 200.904C150.002 200.344 150.394 199.766 150.525 199.299C150.655 198.833 151.047 198.254 151.57 197.732C152.428 196.892 152.652 196.183 152.186 195.716C151.719 195.25 151.122 195.511 149.704 196.799C148.491 197.9 146.251 199.411 145.822 199.411C145.542 199.411 145.729 198.59 146.27 197.452C146.681 196.575 146.811 196.034 146.774 195.455C146.718 194.709 146.681 194.653 146.121 194.597C145.598 194.541 145.524 194.597 145.318 195.231C144.74 196.967 144.161 197.937 143.303 198.571C142.818 198.926 142.053 199.486 141.605 199.822C139.72 201.221 135.186 203.013 133.599 202.975C133.189 202.975 132.069 203.461 130.091 204.487C126.415 206.409 126.116 206.764 125.893 209.469C125.631 212.436 125.295 214.041 124.922 213.911C124.81 213.873 124.717 211.335 124.68 207.995C124.624 201.445 124.53 199.579 124.288 198.758C124.157 198.366 124.194 198.068 124.362 197.732C124.68 197.116 124.661 196.593 124.306 196.09C124.064 195.735 124.045 195.567 124.232 195.119C124.4 194.709 124.4 194.373 124.213 193.589C124.101 193.048 123.933 192.059 123.858 191.387C123.616 189.353 123.187 187.412 122.795 186.628C122.571 186.218 122.272 185.341 122.104 184.669C121.936 183.997 121.414 182.803 120.966 182.001C120.5 181.217 119.94 180.116 119.734 179.575C119.529 179.052 119.231 178.418 119.1 178.212C118.951 177.989 118.54 177.242 118.167 176.533C117.551 175.395 117.476 175.04 117.309 173.062L117.122 170.86L117.98 169.871C118.465 169.349 119.175 168.714 119.566 168.49C119.94 168.266 120.462 167.744 120.742 167.352C121.003 166.941 122.048 165.747 123.056 164.683C124.064 163.601 125.743 161.772 126.807 160.597C127.852 159.421 129.121 158.115 129.606 157.704C130.091 157.312 130.95 156.454 131.509 155.801C132.685 154.457 137.332 150.259 138.265 149.699C138.619 149.475 139.272 149.008 139.739 148.635C140.187 148.262 140.933 147.833 141.381 147.646C141.81 147.478 142.482 147.124 142.855 146.881C143.228 146.62 143.639 146.414 143.751 146.414C143.863 146.414 144.068 146.302 144.18 146.153C144.516 145.761 147.054 144.922 147.95 144.922C148.621 144.922 148.827 145.034 149.442 145.668C150.152 146.414 150.189 146.433 151.122 146.302C151.719 146.228 152.279 146.004 152.615 145.724C153.511 144.959 153.38 144.212 151.85 141.395C151.141 140.07 150.543 138.894 150.543 138.801C150.543 138.558 152.167 137.215 153.716 136.17C154.388 135.703 155.115 135.181 155.339 134.975C155.824 134.546 156.366 134.677 156.795 135.349C157.093 135.778 157.187 135.815 158.064 135.684C159.146 135.554 160.172 134.994 160.34 134.472C160.396 134.285 160.826 133.949 161.292 133.725C161.852 133.445 162.244 133.091 162.468 132.624C162.673 132.251 163.009 131.784 163.233 131.579C163.457 131.374 163.811 130.87 164.017 130.459C164.222 130.049 164.614 129.433 164.875 129.079C165.136 128.724 165.397 128.127 165.472 127.772C165.565 127.194 165.64 127.101 166.032 127.156C168.197 127.436 168.458 127.418 169.111 126.933C169.895 126.335 170.044 125.869 169.708 125.216C169.484 124.768 169.484 124.637 169.727 124.208C170.007 123.742 169.988 123.686 169.242 122.697C168.085 121.204 167.543 120.7 166.424 120.159C164.726 119.319 163.718 119.636 163.494 121.073C163.419 121.465 163.289 121.838 163.214 121.894C163.121 121.95 162.561 121.502 161.964 120.886C161.385 120.271 160.471 119.468 159.93 119.114C158.213 117.919 156.328 115.699 156.328 114.84C156.328 114.542 156.142 114.131 155.918 113.907C155.507 113.497 155.003 112.358 154.63 110.959C154.425 110.231 154.201 109.69 153.697 108.701C153.492 108.328 153.343 107.861 153.343 107.675C153.343 107.488 153.137 107.115 152.876 106.854C152.428 106.387 151.794 104.969 151.495 103.774C151.421 103.457 151.253 103.009 151.122 102.767C150.991 102.543 150.935 102.151 150.991 101.908C151.085 101.573 150.973 101.386 150.543 101.069C150.245 100.845 149.928 100.453 149.853 100.173C149.797 99.8931 149.629 99.5012 149.498 99.2959C149.368 99.0906 149.163 98.5495 149.051 98.0829C148.789 97.1312 148.043 95.9743 147.203 95.2465C146.886 94.9852 146.625 94.5747 146.625 94.3694C146.625 94.1455 146.457 93.6417 146.27 93.2685C145.878 92.4847 145.225 92.0928 143.098 91.3651C141.978 90.9918 141.642 90.7866 141.4 90.3387C141.232 90.0215 140.821 89.5923 140.504 89.3683C140.168 89.1631 139.627 88.6219 139.291 88.1927C138.321 86.9238 137.014 85.7668 135.633 84.9457C133.002 83.3969 129.419 80.8777 129.326 80.5418C129.27 80.3365 129.065 80.1312 128.878 80.0753C128.468 79.9446 127.777 79.0303 127.777 78.6011C127.777 78.4518 127.535 78.0412 127.255 77.7053C126.956 77.3694 126.49 76.6044 126.228 76.0072C125.967 75.4287 125.65 74.9435 125.557 74.9435C125.445 74.9435 125.351 74.8689 125.351 74.7756C125.351 74.3464 122.384 71.6033 121.526 71.23C121.022 71.0061 120.145 70.3903 119.585 69.8491C119.007 69.308 118.242 68.6735 117.868 68.4496C117.141 68.0017 116.693 67.3299 116.805 66.8074C116.861 66.5089 117.532 66.005 119.063 65.1466C119.548 64.8667 119.641 64.8667 119.902 65.128C120.089 65.2772 120.462 65.5012 120.761 65.6131C121.395 65.8557 121.731 65.6505 121.899 64.8854L122.011 64.3629L125.034 64.1389C128.916 63.8404 131.099 63.4671 132.237 62.8887C132.741 62.6461 133.226 62.4408 133.32 62.4408C133.394 62.4408 134.01 61.9743 134.682 61.3958C137.145 59.2871 137.63 58.7273 138.171 57.4584C139.664 53.9315 139.925 52.9238 139.869 51.0204C139.851 50.2366 139.869 49.5275 139.925 49.4715C140 49.4155 140.579 49.6768 141.232 50.05C142.575 50.8151 144.255 51.1137 146.177 50.9271L147.315 50.8338L147.408 52.196C147.464 52.9611 147.651 53.9501 147.838 54.4166C149.088 57.6823 149.219 58.2421 149.237 59.8656C149.237 60.78 149.069 62.2542 148.845 63.3179C148.118 66.8261 147.931 67.9644 147.651 70.2783C147.11 74.7756 147.39 81.5868 148.229 84.7405C148.491 85.7668 148.789 86.9424 148.901 87.3343C149.181 88.5473 150.282 90.432 151.682 92.1115C152.41 92.9885 153.455 94.2761 153.996 95.0039C155.339 96.7767 156.422 97.7844 156.776 97.6537C157.317 97.4485 157.093 96.7767 156.179 95.7877C155.078 94.5934 154.089 93.3244 154.089 93.1005C154.089 93.0072 153.846 92.5967 153.529 92.1861C153.231 91.7756 152.932 91.0665 152.857 90.6373C152.783 90.1894 152.54 89.6109 152.298 89.3124C152.055 89.0325 151.887 88.6592 151.943 88.5099C152.055 88.23 151.234 84.3113 150.898 83.5275C150.357 82.2772 150.357 76.3804 150.917 74.1971C151.812 70.5769 152.951 67.4792 155.302 62.1609C156.366 59.7723 157.261 57.1598 157.728 55.1444C157.877 54.4726 158.232 53.5209 158.493 53.0358C158.81 52.4573 158.941 51.9907 158.885 51.6548C158.829 51.3749 158.903 50.106 159.034 48.8184C159.165 47.5308 159.221 46.4485 159.146 46.3925C158.81 46.1872 158.754 45.3102 159.053 45.0676C159.239 44.9183 159.295 44.6944 159.221 44.4518C158.997 43.6867 158.549 41.8019 158.437 41.1675C158.381 40.8129 158.25 40.421 158.157 40.2904C158.064 40.1598 158.026 39.8985 158.082 39.7119C158.157 39.488 158.045 39.0775 157.821 38.7042C157.616 38.3497 157.28 37.5659 157.075 36.9688C156.869 36.3716 156.552 35.6625 156.366 35.4013C156.198 35.1214 155.955 34.6922 155.843 34.4309C155.712 34.151 155.209 33.4792 154.705 32.9194C154.22 32.3782 153.268 31.2772 152.596 30.4935C151.476 29.1499 151.253 28.982 149.275 28.0116C144.833 25.8283 142.202 25.2871 137.705 25.6603C136.193 25.7723 134.421 25.9962 133.749 26.1642C133.077 26.3135 132.163 26.5187 131.696 26.6307C130.744 26.836 130.52 27.0039 130.614 27.4704C130.651 27.6944 131.024 27.9183 131.827 28.1422C132.741 28.4221 133.208 28.702 134.103 29.5604C134.868 30.2882 135.279 30.8294 135.354 31.2399C135.503 32.0237 136.063 32.3969 137.033 32.3969C138.115 32.3969 139.254 32.8447 140.429 33.7218C142.538 35.308 142.762 37.8085 140.802 37.8085C140.243 37.8085 140.075 37.6966 139.571 36.9874C138.601 35.6439 137.276 35.0094 136.753 35.6439C136.585 35.8491 136.641 36.0358 137.052 36.5023L137.556 37.1181L136.417 36.9874C135.708 36.9128 135.111 36.9315 134.831 37.0807C134.421 37.2487 134.197 37.1927 133.077 36.5582C132.368 36.1664 130.95 35.4759 129.923 35.0467C128.897 34.5989 127.927 34.1697 127.759 34.0764C127.217 33.7964 124.698 33.3299 124.269 33.4606C124.045 33.5165 123.858 33.4792 123.858 33.3859C123.858 33.162 121.992 33.3113 121.675 33.5539C121.545 33.6472 121.433 34.0764 121.395 34.5056C121.339 35.2147 121.283 35.2893 120.798 35.3453C120.5 35.3826 120.182 35.3266 120.07 35.2147C119.958 35.1027 119.622 35.0094 119.343 35.0094C118.913 35.0094 118.82 35.084 118.82 35.4573C118.82 36.0358 118.316 36.5396 117.887 36.409C117.7 36.353 116.394 36.2783 114.976 36.241C113.558 36.2037 112.363 36.0917 112.345 35.9984C112.233 35.6812 110.647 35.8865 110.068 36.297C109.564 36.6516 109.508 36.8195 109.452 37.7712L109.396 38.8349H108.781C108.258 38.8349 108.071 38.9655 107.624 39.6C107.344 40.0292 107.045 40.5517 106.989 40.7569C106.914 40.9809 106.691 41.2048 106.504 41.2608C106.019 41.4101 105.869 41.9885 106.131 42.7723C106.448 43.724 106.224 43.892 104.918 43.6307C103.686 43.3881 103.425 43.4814 102.343 44.4891C101.727 45.0862 101.671 45.2355 101.764 45.8327C101.951 46.859 102.268 47.3255 103.686 48.7064C105.104 50.0687 105.235 50.3672 105.608 52.6625C105.832 54.0994 105.72 54.9391 105.272 55.1071C104.992 55.2191 104.414 54.7525 102.996 53.241C102.492 52.7185 102.007 52.4386 101.018 52.14C100.29 51.9348 99.5621 51.6548 99.4128 51.5242C99.2635 51.3936 98.7224 51.207 98.2372 51.0764C97.7333 50.9644 97.1362 50.7405 96.9309 50.5912C96.2965 50.1993 92.1724 49.005 91.4073 49.005C91.0341 49.005 90.5116 48.8557 90.2504 48.6691C89.9704 48.5012 89.2613 48.0347 88.6642 47.6241C87.3952 46.803 86.1636 45.6647 86.1636 45.3475C86.1636 45.2169 86.5742 44.769 87.0967 44.3398C87.8991 43.668 88.0111 43.4814 87.9737 42.9776C87.9364 42.4364 88.0297 42.3431 88.7762 41.9699C89.2427 41.746 90.0264 41.4287 90.5303 41.2608C91.0154 41.1115 92.7322 40.3651 94.2998 39.5813C95.8859 38.8162 97.2108 38.1817 97.2482 38.1817C97.5654 38.1817 106.597 33.7218 107.306 33.218C107.792 32.8634 108.818 32.2476 109.583 31.8371C110.348 31.4452 111.225 30.9413 111.524 30.7361C111.822 30.5121 112.158 30.3442 112.27 30.3442C112.382 30.3442 113.035 29.971 113.726 29.5045C114.416 29.0379 115.069 28.6647 115.2 28.6647C115.573 28.6647 119.324 26.6494 123.019 24.466C124.978 23.3091 127.423 21.8722 128.468 21.275C130.222 20.2487 134.7 17.2816 137.108 15.5462C139.44 13.8667 140.056 12.9337 139.813 11.4408C139.571 9.87329 139.44 9.74266 138.619 10.3025ZM117.607 85.3376C118.969 85.9161 119.902 86.5692 120.5 87.3903C120.761 87.7262 122.142 89.0511 123.56 90.3574C125.986 92.522 126.322 92.7833 128.636 93.9029C130.632 94.8733 131.285 95.3025 131.939 96.0303C132.797 96.982 133.562 98.3815 133.562 98.9787C133.562 99.1466 133.823 99.6131 134.122 99.9863C134.439 100.36 134.999 101.405 135.372 102.319C136.305 104.577 137.033 105.659 138.731 107.357C141.381 110.007 142.781 111.817 143.863 114.001C144.927 116.184 146.326 118.442 147.296 119.58C148.509 120.998 149.237 122.155 149.237 122.659C149.237 122.902 148.901 123.63 148.491 124.245C147.838 125.253 147.744 125.533 147.744 126.485C147.744 127.324 147.614 127.828 147.184 128.687C146.699 129.638 146.625 130.012 146.625 131.243C146.625 132.493 146.569 132.773 146.177 133.259L145.729 133.818L144.647 133.072C144.049 132.661 143.247 132.064 142.893 131.747C142.538 131.411 141.903 131.019 141.512 130.851C140.802 130.553 140.765 130.553 140.149 130.963C139.534 131.392 138.601 132.941 138.601 133.576C138.601 133.781 138.843 134.005 139.216 134.154C140.168 134.565 140.336 134.901 140.224 136.114C140 138.614 137.014 142.888 134.122 144.847C133.767 145.09 133.133 145.575 132.704 145.911C129.811 148.206 128.99 148.84 128.057 149.493C127.46 149.904 126.602 150.594 126.116 151.005C125.65 151.434 125.015 151.919 124.698 152.087C124.4 152.255 123.765 152.684 123.299 153.039C122.832 153.394 122.16 153.897 121.806 154.14C121.451 154.383 120.276 155.297 119.193 156.174C118.111 157.051 117.178 157.704 117.103 157.648C117.029 157.574 116.879 156.006 116.767 154.159C116.674 152.311 116.525 150.259 116.469 149.587C116.394 148.915 116.32 148.075 116.301 147.721C116.245 146.9 115.573 144.492 115.088 143.354C114.584 142.178 114.733 141.861 115.722 142.029C116.152 142.085 117.178 142.197 118.036 142.234C119.958 142.365 121.003 142.048 122.534 140.891C123.131 140.443 123.709 140.07 123.784 140.07C123.877 140.07 124.213 139.865 124.512 139.622C125.202 139.062 125.034 138.838 123.802 138.596C123.299 138.502 122.869 138.39 122.795 138.334C122.739 138.278 122.925 138.017 123.187 137.774C123.523 137.457 124.157 137.215 125.127 137.009C126.9 136.618 128.542 135.834 129.793 134.77L130.744 133.949L129.905 133.352C129.401 132.997 129.084 132.643 129.121 132.456C129.214 131.952 130.017 131.672 131.006 131.784C131.771 131.896 131.957 131.859 132.368 131.467C132.797 131.075 132.834 130.926 132.722 130.105C132.648 129.601 132.386 128.743 132.144 128.183C131.659 127.101 131.64 127.156 132.816 126.858C133.394 126.709 133.469 126.634 133.45 126.111C133.413 125.384 132.89 124.637 131.715 123.667C131.006 123.07 130.464 122.809 129.345 122.529C128.561 122.323 127.665 122.155 127.385 122.155C126.583 122.155 126.228 121.969 126.471 121.67C126.938 121.129 125.631 119.841 124.437 119.636C124.026 119.58 123.261 119.226 122.702 118.871C122.16 118.535 121.19 117.994 120.537 117.677C119.511 117.173 119.324 117.005 118.988 116.221C118.615 115.344 117.962 114.504 117.663 114.504C117.253 114.504 112.718 112.582 112.195 112.191C111.58 111.705 110.236 109.559 110.236 109.018C110.236 108.682 110.759 108.589 113.315 108.458C114.565 108.402 115.498 108.234 116.17 107.992C116.711 107.768 117.234 107.6 117.327 107.6C117.588 107.6 118.447 109.018 118.82 110.045C119.007 110.511 119.492 111.351 119.921 111.892C120.35 112.433 121.041 113.571 121.451 114.43C122.702 117.08 123.56 117.77 125.837 117.975C127.292 118.106 130.296 117.77 131.248 117.378L131.901 117.117L132.237 117.919C132.424 118.367 132.797 118.871 133.077 119.039C133.394 119.263 133.655 119.692 133.842 120.364C134.141 121.372 134.476 121.931 135.428 122.995C135.708 123.294 135.988 123.835 136.063 124.189C136.119 124.525 136.473 125.309 136.846 125.906C137.425 126.877 137.5 127.101 137.388 127.847C137.238 128.817 137.388 129.62 137.723 129.62C137.873 129.62 138.078 129.023 138.283 128.09C138.526 126.933 138.731 126.429 139.086 126.093C139.459 125.757 139.534 125.552 139.44 125.16C139.384 124.899 139.254 124.133 139.16 123.462C138.88 121.372 138.638 120.42 138.171 119.394C137.779 118.554 137.556 118.33 136.79 117.957C136.305 117.733 135.54 117.192 135.111 116.762C134.682 116.352 134.197 115.997 134.047 115.997C133.543 115.997 133.711 115.605 134.682 114.579C135.484 113.739 135.615 113.497 135.615 112.844C135.615 112.433 135.503 111.817 135.354 111.481C135.204 111.146 134.85 110.231 134.57 109.466C134.215 108.589 133.786 107.824 133.357 107.395C132.685 106.723 129.028 104.801 128.43 104.801C128.262 104.801 127.833 104.521 127.479 104.166C126.77 103.457 125.65 102.748 125.239 102.748C125.09 102.748 124.325 102.412 123.56 102.002C122.776 101.591 122.048 101.255 121.918 101.255C121.806 101.255 121.097 100.714 120.332 100.061C119.081 98.9413 118.801 98.7921 116.898 98.1763C113.931 97.2432 112.326 97.0006 109.284 97.0753L106.691 97.1312V96.4035C106.691 94.724 107.605 93.2685 109.508 91.8876C111.169 90.6746 112.643 88.8832 113.073 87.5582C113.184 87.241 113.595 86.5506 113.987 86.0281C114.397 85.5056 114.715 85.0017 114.715 84.9084C114.715 84.4232 115.144 84.2926 115.816 84.5912C116.189 84.7405 116.991 85.0764 117.607 85.3376ZM115.088 102.002C116.767 102.58 118.074 103.308 118.074 103.681C118.074 103.924 115.33 104.764 113.763 105.006C113.035 105.118 112.009 105.155 111.486 105.099C108.407 104.764 108.575 104.82 108.09 104.073C107.754 103.513 107.493 103.327 106.84 103.196C106.243 103.065 106.019 102.935 105.981 102.636C105.944 102.431 106.056 102.151 106.205 102.02C106.709 101.61 109.135 101.274 111.262 101.33C112.998 101.386 113.576 101.479 115.088 102.002ZM123.765 104.353C125.687 105.361 125.743 105.678 124.381 107.563C122.963 109.466 122.142 109.709 120.929 108.533C120.238 107.861 119.94 106.667 120.35 106.126C122.291 103.495 122.216 103.551 123.765 104.353ZM152.801 130.366C153.287 130.627 153.249 131.075 152.745 131.299C152.503 131.392 151.775 131.934 151.103 132.493C150.45 133.072 149.834 133.538 149.76 133.538C149.256 133.538 150.282 131.262 151.141 130.497C151.57 130.142 152.26 130.086 152.801 130.366Z" fill="black"/>
    </g>
    <defs>
        <filter id="filter0_d" x="0" y="0" width="189.893" height="258.862" filterUnits="userSpaceOnUse" color-interpolation-filters="sRGB">
            <feFlood flood-opacity="0" result="BackgroundImageFix"/>
            <feColorMatrix in="SourceAlpha" type="matrix" values="0 0 0 0 0 0 0 0 0 0 0 0 0 0 0 0 0 0 127 0"/>
            <feOffset dx="10"/>
            <feGaussianBlur stdDeviation="5"/>
            <feColorMatrix type="matrix" values="0 0 0 0 0.92549 0 0 0 0 0.698039 0 0 0 0 0.266667 0 0 0 1 0"/>
            <feBlend mode="normal" in2="BackgroundImageFix" result="effect1_dropShadow"/>
            <feBlend mode="normal" in="SourceGraphic" in2="effect1_dropShadow" result="shape"/>
        </filter>
    </defs>
</svg>
