<svg width="201" height="275" viewBox="0 0 201 275" fill="none" xmlns="http://www.w3.org/2000/svg">
    <g filter="url(#filter0_d)">
        <path d="M177.69 11.8453C172.716 16.403 163.434 26.5591 136.108 57.2771C120.916 74.3635 114.922 81.0024 114.714 81.0024C114.422 81.0024 112.279 77.5269 111.03 75.0503C107.721 68.4946 106.285 61.8973 106.015 52.0742C105.952 49.6185 105.827 46.3302 105.702 44.7485C105.578 42.7298 105.578 41.606 105.744 40.7943C105.973 39.7121 105.89 36.0701 105.557 33.2397C105.432 32.1367 105.349 31.991 104.912 31.9285C103.913 31.7829 103.455 32.0534 103.33 32.8859C103.247 33.3021 102.789 34.5924 102.289 35.7371C101.436 37.7142 101.374 37.8183 100.77 37.8183C100.375 37.8391 99.8959 38.0264 99.5838 38.3385C99.0219 38.8588 96.6077 42.5425 95.3174 44.8734C94.5265 46.247 93.9646 46.6008 91.2383 47.2876C90.3434 47.5165 89.5734 47.7662 89.5109 47.8287C89.282 48.0784 91.6337 47.683 92.82 47.2876C93.4443 47.0794 93.9854 46.9337 94.0271 46.9546C94.2976 47.2251 93.5276 47.8703 92.2164 48.4946C90.5723 49.2439 90.4891 49.6393 92.0916 49.0773C92.6327 48.9109 93.0281 48.8484 93.0281 48.9733C93.0281 49.0773 92.6327 49.556 92.154 49.9931C91.6545 50.4509 91.384 50.8255 91.5505 50.8255C91.9043 50.8255 93.7565 49.4728 95.2133 48.12C96.0666 47.3292 96.1707 47.2876 95.8377 47.8078C94.9011 49.2647 93.4235 51.9285 93.5068 52.0118C93.6316 52.1159 94.8387 50.4717 96.2747 48.2033C96.9199 47.1835 97.3985 46.5383 97.3361 46.7673C97.2737 46.9962 96.8366 48.349 96.3372 49.7849C95.5463 52.1575 95.3798 52.4905 94.36 53.5311C93.0073 54.9254 92.8408 55.4665 94.1519 54.1762C94.6722 53.6559 95.1717 53.3438 95.3174 53.427C95.4422 53.5102 95.6712 53.4478 95.8377 53.3229C96.2123 53.0108 96.2539 53.3438 95.9001 53.6975C95.4839 54.1138 95.9209 54.2386 96.3788 53.8224C96.8158 53.427 96.8366 53.427 96.6909 53.864C96.6077 54.1138 96.5036 54.6757 96.462 55.1127L96.358 55.8828L96.8158 55.4874C97.128 55.196 97.232 55.1752 97.1488 55.4041C97.0864 55.5706 96.8158 56.6528 96.5661 57.7974C96.2331 59.1918 95.8793 60.1492 95.4631 60.7319C95.0468 61.3354 94.7971 62.043 94.6306 63.0628L94.4017 64.5404L93.5068 64.8734C93.0281 65.0607 92.3621 65.1856 92.0499 65.144C91.5297 65.0815 91.4672 64.9983 91.4048 64.1658C91.3424 63.4374 91.4256 63.146 91.8418 62.709C92.5494 61.9598 92.6951 61.3562 92.3829 60.503C92.154 59.8786 92.1748 59.5664 92.487 58.3594C92.924 56.7152 93.153 53.4686 92.924 51.7412C92.7992 50.6799 92.7367 50.5758 92.5078 50.888C92.3621 51.0961 91.9459 52.1159 91.5713 53.1564C90.8637 55.2168 88.845 59.3791 88.7409 59.0461C88.6993 58.9213 88.4287 56.9234 88.1374 54.6133C87.0343 45.6642 85.6608 42.0014 82.1228 38.4634C79.3756 35.7163 74.8803 34.3635 71.6753 35.3208C71.0926 35.4873 70.2185 36.0076 69.6358 36.5071C69.0739 36.9858 68.1374 37.5477 67.5754 37.7558C64.9116 38.6923 62.0812 41.7933 58.3975 47.7662C57.8356 48.6403 56.7742 50.0139 56.0042 50.7839C55.2549 51.5539 54.8803 51.9494 55.1925 51.6788C55.5255 51.3875 55.7752 51.2626 55.7752 51.3875C55.7752 51.8037 55.026 52.2615 54.5265 52.1575C52.9449 51.8037 52.0708 51.3875 51.6545 50.8463L51.2175 50.2428L51.8835 50.4301C52.2373 50.5342 53.2986 50.5966 54.2144 50.5966L55.8793 50.555L54.4225 50.3885C53.6316 50.3052 52.4246 50.1179 51.7586 49.9723C50.5515 49.7225 50.5515 49.7225 48.8866 47.5789C46.7846 44.8318 45.4527 43.3333 44.7451 42.8755C44.4537 42.6674 43.7461 42.4801 43.1842 42.4384C42.1644 42.376 42.1436 42.376 41.3736 41.0441C40.9365 40.2948 40.5411 39.3999 40.4579 39.0253C40.333 38.3385 39.9792 37.9223 39.5005 37.8391C39.3548 37.8183 39.1051 37.735 38.9386 37.6309C38.7721 37.5269 38.5224 37.5893 38.2934 37.8391C37.9396 38.2137 37.9188 38.4634 38.127 41.7725C38.3975 45.9556 38.1686 48.5571 37.2529 52.1783C36.5036 55.196 35.4839 57.4853 33.4027 60.9192C30.8221 65.1648 28.3455 70.5134 25.2862 78.401C24.5369 80.3365 23.6629 82.3552 23.3715 82.8755C23.0593 83.3958 21.3528 85.2688 19.563 87.0378C15.0468 91.5331 12.6951 94.9879 8.55359 103.271C6.30593 107.808 5.14048 110.555 3.01769 116.382C2.35172 118.151 1.41519 120.441 0.915713 121.439C0.416233 122.459 0 123.313 0 123.354C0 123.396 0.37461 123.541 0.853278 123.666C1.56087 123.854 1.74818 124.041 2.08117 124.79C2.28928 125.269 2.60146 126.413 2.78876 127.308C2.99688 128.349 3.37149 129.327 3.76691 129.951L4.41207 130.95H5.61915C6.26431 130.95 7.30489 130.867 7.88762 130.742C10.4058 130.264 13.2778 131.533 16.5453 134.551C19.3548 137.152 25.5983 140.316 30.3642 141.564C34.6722 142.688 40.1041 142.647 44.0583 141.46C47.1592 140.524 48.6785 139.483 50.5931 137.007C51.1759 136.257 51.1759 136.257 52.7159 136.882C53.1946 137.069 53.1946 136.424 52.7159 135.904C52.5286 135.695 52.4246 135.487 52.4662 135.467C52.5078 135.425 53.3403 134.905 54.3184 134.322C55.2966 133.739 56.462 132.969 56.9199 132.615L57.7523 131.949L57.8148 133.323C57.8772 134.717 57.6275 135.529 57.1696 135.529C56.6285 135.529 55.796 136.07 55.5671 136.57C55.359 137.007 55.4006 137.131 55.8585 137.464C56.5245 137.943 56.5661 138.9 55.9834 139.795C55.7544 140.128 55.5671 140.628 55.5671 140.878C55.5671 141.148 55.4631 141.356 55.359 141.356C55.2341 141.356 55.1509 141.606 55.1717 141.939C55.1925 142.251 55.026 142.834 54.7763 143.25C54.4641 143.75 54.3392 144.291 54.3392 145.019C54.3809 146.289 54.1727 146.996 53.6733 147.35C53.4443 147.496 53.2778 147.745 53.2778 147.912C53.2778 148.078 53.0905 148.515 52.8616 148.911C52.5702 149.41 52.4662 149.931 52.487 150.638C52.5078 151.325 52.3829 151.97 52.0916 152.595C51.5505 153.739 51.3215 154.759 51.384 155.675C51.4048 156.049 51.3215 156.507 51.1759 156.674C50.9886 156.903 50.9886 157.048 51.155 157.215C51.5921 157.652 51.4464 158.796 50.9469 159.067C50.6764 159.213 50.4058 159.421 50.3226 159.546C50.0728 159.92 50.1561 160.982 50.4475 161.544C50.6972 161.981 50.6972 162.126 50.4058 162.626C50.1353 163.104 50.1145 163.271 50.3434 163.708C50.5515 164.062 50.5723 164.478 50.4683 165.019C50.385 165.456 50.3226 166.83 50.3226 168.078C50.3434 169.868 50.281 170.472 49.9896 170.95C49.719 171.429 49.6982 171.616 49.9063 171.949C50.1561 172.366 50.0728 172.865 49.6358 173.406C49.4693 173.593 49.3236 174.759 49.2612 176.424C49.1988 178.089 49.0739 179.15 48.9282 179.192C48.6368 179.296 48.6368 180.003 48.9074 180.17C49.1571 180.316 49.0323 181.481 48.5744 183.5C48.4079 184.187 48.283 185.144 48.283 185.623C48.283 186.101 48.1998 186.559 48.0749 186.622C47.9709 186.684 47.8876 187.038 47.8876 187.412C47.9501 188.724 47.4506 192.262 47.0968 193.281C46.4516 195.009 46.0354 195.55 44.8907 195.987C43.5796 196.507 43.0801 197.152 42.9761 198.547C42.9344 199.296 42.7471 199.816 42.4142 200.212C42.1436 200.524 41.769 201.148 41.5817 201.606C40.8949 203.229 40.3746 204.332 39.9584 205.04C39.6046 205.643 39.5421 206.122 39.5421 208.078C39.5421 210.18 39.5005 210.493 39.0219 211.304C38.7305 211.804 38.5016 212.449 38.5016 212.74C38.5016 213.032 38.3559 213.448 38.1894 213.656C37.7523 214.239 37.2321 216.174 37.2529 217.173C37.2737 217.652 37.0031 219.067 36.6493 220.336C35.9001 223.042 35.8585 224.624 36.3996 226.851C36.6285 227.725 36.8783 229.285 36.9407 230.326C37.0656 232.053 37.0239 232.366 36.4412 234.176C35.9834 235.571 35.4839 236.611 34.7138 237.735C34.0895 238.609 33.2362 240.087 32.7992 241.023L31.9875 242.751L32.2581 244.915C32.4246 246.268 32.487 247.87 32.3829 249.161C32.2581 251.096 32.2789 251.263 32.6951 251.679C33.1322 252.116 33.1322 252.137 32.7992 254.343C32.5078 256.403 32.5078 256.57 32.8408 256.819C33.1322 257.027 33.1322 257.152 32.924 257.485C32.5911 258.026 32.6119 258.526 32.9865 259.025C33.153 259.254 33.2986 259.629 33.2986 259.879C33.2986 260.128 33.5692 260.69 33.923 261.148C34.256 261.585 34.5473 262.085 34.5473 262.23C34.5473 262.584 35.0676 262.751 37.9813 263.375C41.4152 264.103 46.4932 264.52 47.7003 264.166C48.5536 263.916 49.6774 262.959 50.1561 262.043C50.385 261.627 50.2601 260.815 49.9688 260.815C49.8855 260.815 49.6774 260.274 49.5317 259.608C49.2404 258.297 48.6993 257.09 48.1998 256.674C48.0125 256.507 47.8668 256.278 47.8668 256.153C47.8668 256.028 47.5754 255.383 47.2425 254.697C46.6389 253.51 46.6389 253.469 46.8262 251.596C46.9303 250.576 46.9303 249.577 46.847 249.39C46.743 249.202 46.6181 248.432 46.5349 247.683C46.3892 246.247 46.6597 244.728 47.4506 242.189C48.0957 240.108 48.0957 239.65 47.4714 236.736L46.8887 234.01L47.3465 232.782C47.9709 231.138 48.6368 229.847 49.3236 228.973C50.2185 227.829 50.9261 226.268 51.5921 223.999C51.9459 222.751 52.4037 221.648 52.7159 221.273C53.257 220.628 53.7981 218.672 53.59 218.13C53.2986 217.381 56.5245 210.93 58.5432 208.203C59.7711 206.538 59.8751 205.914 59.334 203.958C58.7721 202.001 58.7721 200.69 59.3132 199.775C59.6462 199.213 59.6878 198.963 59.5213 198.359C59.2716 197.548 59.4173 196.57 59.9792 195.279C60.1873 194.78 60.4579 193.947 60.5619 193.448C60.6868 192.948 60.9365 192.282 61.1446 191.97C61.3319 191.679 61.6025 191.013 61.7482 190.493C61.8731 189.972 62.2893 188.599 62.6223 187.454C63.7045 183.958 64.5369 180.461 64.3913 180.024C64.308 179.754 64.4745 179.317 64.8699 178.755C65.3694 178.006 65.4527 177.673 65.4735 176.32C65.4943 174.863 65.5567 174.613 66.5765 172.595C67.18 171.387 68.4495 169.265 69.4069 167.87C70.6139 166.08 71.1967 164.998 71.3632 164.291C71.488 163.729 71.8626 162.542 72.2164 161.668C72.5494 160.794 72.8408 159.962 72.8408 159.816C72.8408 159.338 74.256 156.674 75.2133 155.321C75.7336 154.572 76.1707 153.822 76.1707 153.635C76.1707 153.323 77.1696 152.178 77.232 152.407C77.2529 152.449 77.2945 152.678 77.3153 152.907C77.3361 153.156 77.461 153.656 77.5858 154.051C77.794 154.738 78.1061 157.86 78.6889 165.186C78.8137 166.913 78.8762 168.703 78.7929 169.14C78.7097 169.598 78.6472 170.201 78.6472 170.493C78.6472 170.784 78.6472 172.782 78.6472 174.946C78.6472 177.527 78.564 179.025 78.4183 179.317C78.127 179.858 78.0853 184.02 78.3351 189.119C78.4391 191.179 78.5432 193.385 78.5432 194.01C78.564 194.634 78.6472 195.425 78.7305 195.779C78.8554 196.32 78.7929 196.465 78.1894 196.84C77.8356 197.069 77.5442 197.402 77.565 197.569C77.6067 197.881 77.898 199.025 78.2102 200.274C78.3767 200.961 78.3559 201.023 77.8148 201.273C77.0864 201.585 77.0239 201.793 76.9407 204.936L76.8783 207.433L75.8169 208.515C75.2341 209.119 74.6306 209.951 74.5057 210.368C74.1311 211.471 74.36 212.823 75.1093 214.01C75.5671 214.759 75.7544 215.321 75.7544 215.945C75.7544 216.528 75.9001 217.027 76.1707 217.381C76.9199 218.318 76.9199 219.67 76.1915 221.648C75.3798 223.812 75.3798 224.291 76.1915 225.872C77.4818 228.432 78.7513 232.095 78.3559 232.095C78.3143 232.095 77.9188 231.866 77.5026 231.575C76.0874 230.617 75.4422 231.013 75.6712 232.678C75.7752 233.531 75.692 234.051 75.1717 235.571C74.8387 236.57 74.4849 238.068 74.4225 238.859C74.2768 240.274 74.2976 240.357 75.1509 241.96C76.0666 243.708 76.8574 245.872 77.0864 247.204C77.1696 247.662 77.128 248.869 76.9823 249.889C76.5869 252.678 76.6077 253.614 77.0447 253.698C77.2529 253.739 77.6899 253.635 78.0021 253.469C78.564 253.198 78.6056 253.219 78.9386 253.781C79.334 254.468 80.4162 254.988 81.4568 254.988C81.873 254.988 82.206 255.113 82.2685 255.279C82.3309 255.446 82.9344 255.862 83.6004 256.195C84.2664 256.528 85.1405 257.09 85.5359 257.444C85.9313 257.818 86.4516 258.11 86.7014 258.11C86.9511 258.11 87.513 258.255 87.9501 258.443C88.9906 258.88 90.9261 258.734 94.4017 257.943C97.232 257.298 97.794 257.007 98.5432 255.82C99.1467 254.884 99.2092 254.322 98.7513 253.947C98.5848 253.802 98.1478 253.136 97.794 252.47C97.4194 251.783 96.7326 250.888 96.2331 250.472C95.7336 250.035 94.7555 249.14 94.0687 248.495C93.4027 247.829 92.7367 247.288 92.6327 247.288C92.5078 247.288 92.3205 246.913 92.1956 246.455C92.0708 245.997 91.8626 245.623 91.717 245.623C91.3007 245.623 90.3642 243.854 90.1353 242.584C90.0104 241.918 89.9063 240.586 89.9063 239.629C89.9063 238.151 89.9688 237.777 90.385 237.236C91.0926 236.216 91.0094 233.843 90.1769 231.304L89.5317 229.369L90.2185 228.224C90.9261 227.059 91.3215 225.623 92.82 218.921C93.2986 216.736 93.4235 215.695 93.4027 213.885C93.4027 212.053 93.5276 211.013 94.0479 208.578C94.4849 206.559 94.7555 204.707 94.8387 202.938C94.9636 200.295 94.7971 199.421 94.1936 199.421C93.8189 199.421 93.4235 197.985 93.3403 196.32C93.3195 195.571 93.2154 194.426 93.153 193.802C92.8616 191.242 92.8616 190.638 93.153 189.951C93.3195 189.556 93.4443 188.682 93.4443 188.016C93.4443 187.142 93.5484 186.642 93.8189 186.289C94.1311 185.914 94.256 185.144 94.4433 182.98C94.5682 181.439 94.8179 179.754 95.0052 179.233C95.1925 178.713 95.2966 177.985 95.2341 177.61C95.1717 177.236 95.2758 176.465 95.4422 175.883C95.6296 175.258 95.7128 174.488 95.6296 173.968C95.5255 173.177 95.7128 172.053 96.5453 168.724C96.6701 168.266 96.9199 166.767 97.0864 165.394C97.2945 163.958 97.6275 162.501 97.8772 161.96C98.1478 161.377 98.2726 160.69 98.2518 160.149C98.2102 159.67 98.3559 158.734 98.564 158.068C98.8137 157.277 98.9594 156.07 98.9802 154.572C99.001 153.302 99.1051 152.053 99.23 151.762C99.4173 151.304 99.4589 151.304 99.4797 151.658C99.4797 151.887 99.667 152.49 99.8959 152.99C100.25 153.76 100.375 153.864 100.791 153.76C101.186 153.677 101.353 153.76 101.582 154.197C101.769 154.53 101.79 154.78 101.665 154.821C100.916 155.071 100.874 155.258 101.311 155.987L101.748 156.736L101.228 157.069C100.708 157.402 100.541 158.172 100.999 158.318C101.124 158.359 101.582 158.443 101.998 158.484C103.226 158.63 103.33 158.817 102.518 159.4C101.873 159.816 101.79 159.962 101.977 160.295C102.331 160.961 102.851 161.127 103.85 160.898C105.203 160.586 105.432 160.774 104.787 161.627C103.809 162.896 104.454 163.521 106.181 163.021C107.014 162.771 107.804 162.98 107.804 163.458C107.804 163.583 108.72 164.582 109.844 165.685C112.3 168.078 112.425 168.245 120.812 180.357C128.866 192.012 132.799 197.485 134.797 199.837C139.334 205.144 140.042 205.956 140.375 206.122C141.29 206.642 140.895 205.643 138.772 202.126C137.919 200.69 136.857 198.88 136.42 198.089C135.359 196.153 130.593 188.994 123.933 179.338C118.023 170.763 115.713 167.1 115.713 166.309C115.734 165.852 115.817 165.893 116.608 166.809C117.086 167.35 117.544 167.787 117.648 167.787C117.732 167.787 117.794 167.475 117.794 167.079C117.794 166.601 117.565 166.08 117.066 165.435C116.629 164.853 116.337 164.249 116.337 163.874C116.337 163.437 116.191 163.208 115.796 162.98C115.484 162.834 114.422 161.835 113.424 160.774L111.613 158.859L111.467 157.444C111.384 156.674 111.093 155.362 110.801 154.53C110.219 152.74 110.219 152.719 110.614 152.886C110.801 152.948 111.009 152.823 111.134 152.574C111.322 152.262 111.238 151.908 110.843 150.971C108.866 146.393 108.241 144.936 108.117 144.499C107.846 143.625 107.971 142.126 108.325 141.939C108.845 141.627 108.72 140.42 108.117 139.962C107.055 139.171 106.764 135.425 107.492 131.616C108.054 128.703 108.117 127.974 107.804 127.079C107.534 126.268 106.556 120.628 106.368 118.672C106.139 116.424 105.952 116.153 104.37 115.924C103.663 115.82 103.767 115.196 104.641 114.364C105.349 113.698 105.453 113.469 105.369 112.969C105.286 112.595 105.016 112.241 104.579 111.991C103.996 111.637 103.913 111.45 103.704 110.118C103.58 109.306 103.33 108.495 103.143 108.286C102.747 107.849 102.706 106.788 103.059 106.434C103.267 106.226 103.267 106.143 103.059 105.997C102.352 105.56 102.914 104.54 106.035 100.586C107.763 98.4218 109.22 96.632 109.282 96.632C109.49 96.6112 111.946 100.149 112.529 101.294C113.049 102.293 113.465 104.936 113.111 104.936C113.028 104.936 112.549 104.561 112.029 104.103C110.572 102.834 109.948 103.021 109.074 104.936C108.429 106.351 108.595 108.661 109.344 108.952C109.49 109.015 110.198 108.765 110.884 108.432C111.592 108.078 112.612 107.745 113.174 107.704C114.027 107.621 114.381 107.725 115.921 108.536C117.17 109.202 118.189 109.577 119.438 109.806C121.582 110.222 122.289 110.222 124.142 109.827C124.953 109.639 126.493 109.41 127.575 109.285C129.844 109.036 132.487 108.453 133.985 107.891C134.568 107.662 136.171 106.809 137.565 105.976C139.459 104.832 140.791 104.207 143.038 103.458C144.662 102.896 146.223 102.314 146.514 102.147C146.805 101.981 147.388 101.793 147.825 101.71C151.571 101.002 154.755 97.5269 156.171 92.5737C156.753 90.5758 156.816 90.2844 156.524 90.4509C156.42 90.5134 156.233 90.4509 156.108 90.2844C155.942 90.0763 155.609 90.0555 154.839 90.1804C153.34 90.4093 151.821 91.325 150.968 92.4697C149.22 94.8422 145.723 97.4853 143.288 98.2761C142.83 98.4218 142.102 98.8172 141.686 99.171C141.02 99.6913 140.832 99.7537 140.062 99.6289C137.711 99.2334 127.721 93.4686 123.309 89.9931C121.249 88.349 118.418 85.7683 118.418 85.5394C118.418 85.2896 123.767 78.838 133.59 67.2667C167.7 27.0586 176.92 15.862 179.542 11.5331C180.812 9.38953 180.271 9.49358 177.69 11.8453ZM104.037 37.0274C103.788 38.4426 103.517 39.5872 103.434 39.5872C103.351 39.5872 103.122 39.3999 102.934 39.1918C102.581 38.8172 102.601 38.6715 103.247 36.4239C104.391 32.3656 104.828 32.6986 104.037 37.0274ZM40.6452 42.0846C41.3528 43.8328 41.3944 44.0409 41.103 44.3739C40.9365 44.5612 40.7908 45.0815 40.7908 45.5394C40.77 46.1013 40.7284 46.247 40.6035 46.0388C40.333 45.581 39.3757 41.9598 39.2092 40.7527C39.0843 39.8162 39.1051 39.7745 39.4589 39.9619C39.6878 40.0867 40.2081 41.0232 40.6452 42.0846ZM98.3143 41.2938C98.127 42.7506 97.6483 43.6039 96.5036 44.6028L95.4214 45.5186L96.129 44.2699C97.2737 42.2511 98.3351 40.4197 98.3975 40.4197C98.4183 40.4197 98.3975 40.8151 98.3143 41.2938ZM98.8762 44.4988C98.7721 44.8318 98.6681 44.9358 98.6681 44.7485C98.6472 44.3739 98.8762 43.6871 98.9802 43.812C99.0219 43.8328 98.9594 44.145 98.8762 44.4988ZM47.7419 46.6424C48.616 47.8078 49.282 48.7444 49.2196 48.7444C49.1571 48.7444 48.7409 48.5571 48.3039 48.3281C47.3049 47.8287 46.6181 46.9962 46.6181 46.2678C46.6181 45.9764 46.4308 45.4145 46.2019 45.0399C45.4735 43.8744 46.0354 44.4572 47.7419 46.6424ZM98.0853 47.454C97.898 48.2657 97.5234 49.2022 97.2529 49.5144C96.8158 50.0555 96.8366 49.9098 97.5026 48.0368C97.898 46.9129 98.231 45.9348 98.231 45.8724C98.231 45.8099 98.2726 45.8099 98.3351 45.8724C98.3975 45.9348 98.2934 46.6424 98.0853 47.454ZM47.0968 49.7849C47.1592 50.0139 47.1384 50.1596 47.0343 50.0971C46.9511 50.0347 46.8262 49.8058 46.7638 49.5768C46.7014 49.3479 46.7222 49.2022 46.8262 49.2647C46.9095 49.3271 47.0343 49.556 47.0968 49.7849ZM50.385 50.3469L50.8845 50.888L50.2185 50.4093C49.5109 49.889 49.4069 49.7849 49.6982 49.7849C49.8023 49.7849 50.0937 50.0347 50.385 50.3469ZM49.948 52.9067C50.3642 53.427 50.9677 54.1762 51.2799 54.6133L51.8418 55.3625L51.155 55.8203L50.4683 56.2782L51.0926 55.7371C51.821 55.0919 51.488 55.0087 50.718 55.6122L50.1769 56.0493L50.0312 55.4665C49.948 55.1544 49.7399 54.6965 49.5526 54.4884C49.3652 54.2595 49.3444 54.1554 49.4901 54.2386C49.948 54.5092 49.7607 53.7808 48.9074 52.1783C47.9501 50.3469 47.846 49.9514 48.6368 51.1377C48.9282 51.5956 49.5317 52.3864 49.948 52.9067ZM51.0302 51.9077C51.6337 52.2615 52.3413 52.8026 52.5911 53.094L53.0281 53.6351L52.487 54.2386L51.9251 54.863L52.5494 54.4884L53.1738 54.1138L52.6951 54.5924L52.2164 55.0919L51.5921 54.4051C50.9677 53.6975 50.9053 53.2397 51.5088 53.7392C52.2164 54.3427 51.7586 53.4894 50.7596 52.4072C50.1769 51.7621 49.7607 51.2418 49.8231 51.2418C49.8855 51.2418 50.4266 51.5331 51.0302 51.9077ZM53.7149 52.657C53.5692 52.6986 53.3403 52.6362 53.2362 52.5321C53.0697 52.3656 53.153 52.3448 53.5068 52.428C53.7773 52.5113 53.8814 52.5945 53.7149 52.657ZM48.3663 53.0316C48.4287 53.1981 48.4079 53.2813 48.283 53.2189C48.1582 53.1564 48.0749 53.0108 48.0749 52.8859C48.0749 52.5945 48.2206 52.657 48.3663 53.0316ZM42.1644 56.2366C42.3309 56.9858 42.4558 57.7766 42.4558 58.0056C42.4558 58.4218 42.6639 58.8588 43.4964 60.2532L43.975 61.0441L43.5172 61.1689C43.2882 61.2314 43.1217 61.3562 43.1842 61.4395C43.2466 61.5435 43.0593 61.7933 42.768 62.043C42.4558 62.2719 42.2268 62.5009 42.2477 62.5841C42.2477 62.6466 41.9771 63.042 41.6233 63.479C41.2695 63.8952 41.0822 64.2699 41.2071 64.3115C41.3528 64.3739 41.3528 64.478 41.1863 64.6861C40.77 65.2064 41.1238 64.9983 41.6441 64.4155C41.9147 64.1242 42.0187 63.9369 41.8522 64.0409C41.6441 64.145 41.6025 64.1242 41.7066 63.9577C41.7898 63.8328 41.9355 63.7704 42.0395 63.8328C42.1436 63.8952 42.2685 63.8536 42.3309 63.7496C42.3933 63.6455 42.9553 63.146 43.5588 62.6674L44.641 61.7516L43.8502 62.6882C41.2279 65.8307 40.2706 67.0586 39.8335 67.9327C39.23 69.119 39.3132 69.2439 39.9792 68.1408C40.6868 66.9962 42.3517 64.9775 42.9136 64.6028L43.3923 64.2699L42.9969 64.8734C42.7888 65.2272 42.4142 65.7267 42.1644 66.018C40.8741 67.4957 41.3736 67.1211 43.3091 65.1648C44.4953 63.9369 44.8907 63.6039 44.1831 64.3739C43.0177 65.6642 42.4974 66.4759 43.0801 66.1221C43.205 66.0388 43.2258 66.1429 43.1426 66.3718C43.0593 66.5591 43.4547 66.2678 44.0167 65.7059C44.5786 65.1231 45.0156 64.6028 44.9948 64.5404C44.974 64.4572 45.1821 64.2282 45.4318 64.0201L45.8897 63.6247L45.4943 64.0826C45.2654 64.3531 45.1821 64.5612 45.2862 64.5612C45.3694 64.5612 44.9532 65.0815 44.3288 65.7059C43.7253 66.3302 43.1634 66.8089 43.1217 66.7464C43.0801 66.7048 42.6431 67.2459 42.1852 67.9535C41.7066 68.6611 41.2071 69.3271 41.0822 69.452C40.9365 69.556 40.77 69.889 40.6868 70.1596C40.5203 70.6799 40.8741 70.3677 43.3091 67.7662C44.3704 66.6008 46.0978 65.1856 45.9729 65.5602C45.9313 65.6851 45.3278 66.247 44.6618 66.7881C43.4339 67.787 41.4152 70.1804 41.4152 70.659C41.4152 70.7839 41.6649 70.5342 41.9563 70.0763C42.6015 69.0982 44.1207 67.4749 44.3913 67.4749C44.4953 67.4749 44.1415 67.9535 43.6212 68.5571C42.7888 69.5144 41.4152 71.9077 41.4152 72.3864C41.4152 72.4905 41.7274 72.0118 42.102 71.3042C42.7888 70.0347 44.5369 67.8287 44.7242 68.016C44.7867 68.0576 44.7034 68.2241 44.5786 68.349C44.1831 68.7444 44.2872 69.0149 44.7034 68.7027C45.0364 68.4322 44.8699 68.7027 44.1415 69.556C44.0999 69.6185 44.1207 69.4728 44.1831 69.2439L44.3288 68.8276L43.9958 69.2439C43.8293 69.4728 43.5796 69.8474 43.4755 70.0763C43.2882 70.4509 43.2882 70.4717 43.5588 70.1387C43.7253 69.9306 43.8918 69.8266 43.9542 69.8682C44.0167 69.9306 44.1831 69.8474 44.3288 69.6601C44.4745 69.4936 44.7242 69.3479 44.8907 69.3479C45.2029 69.3479 44.7034 70.1596 43.6004 71.4291C42.9136 72.2199 43.2466 72.0118 44.8907 70.6382C45.4943 70.1179 45.9521 69.6393 45.8897 69.556C45.8273 69.452 45.8897 69.3063 46.0146 69.223C46.1811 69.119 46.2019 69.1606 46.0978 69.3479C45.9729 69.5352 46.0562 69.556 46.4308 69.452C46.9095 69.3063 46.9095 69.3063 46.5973 69.6809C46.41 69.9098 46.1811 70.3052 46.0978 70.5966C45.9729 71.0128 46.077 70.9504 46.7222 70.222C47.1384 69.7433 47.5546 69.3895 47.6587 69.452C47.7627 69.5144 47.8668 69.4312 47.9292 69.3063C47.9709 69.1606 48.0749 69.0774 48.1374 69.1398C48.3455 69.3271 47.4922 70.5966 47.076 70.7423C46.6389 70.9088 43.9958 73.5102 44.2664 73.5102C44.3913 73.5102 44.9116 73.1356 45.4527 72.657C45.9729 72.1991 46.41 71.8661 46.41 71.9286C46.41 71.991 45.7856 72.9691 45.0364 74.093C44.2872 75.196 43.9334 75.7995 44.2664 75.4249C45.0156 74.5508 45.3278 74.5508 44.7242 75.4249C44.3913 75.8828 44.3704 76.0076 44.5994 75.8203C44.7867 75.6747 44.9532 75.6122 44.9532 75.7163C44.9532 75.7995 45.1821 75.6538 45.4735 75.3833C46.1186 74.7798 46.3476 74.9462 45.8897 75.6747C45.6816 75.966 45.5983 76.2158 45.7024 76.2158C45.7856 76.2158 45.7648 76.3198 45.6191 76.4655C45.1197 76.965 45.3902 77.1107 45.9521 76.6112L46.514 76.1117L46.0146 76.6736C45.7232 77.0066 45.4735 77.2147 45.411 77.1523C45.3694 77.1107 45.0364 77.2147 44.7034 77.3812C44.3496 77.5685 44.1415 77.7558 44.204 77.8183C44.2664 77.8807 44.4537 77.8183 44.641 77.6726C44.8283 77.5269 45.0156 77.4644 45.0989 77.5269C45.1613 77.6101 45.3902 77.5685 45.5983 77.4436C46.0146 77.2355 46.1811 77.5269 45.7856 77.7766C45.6816 77.8391 45.64 78.0264 45.7024 78.172C45.7856 78.3594 45.5567 78.5467 45.0572 78.7132C43.8918 79.0878 44.308 79.171 45.6816 78.8172C46.3476 78.6299 46.9303 78.5467 46.9719 78.5883C47.0343 78.6507 46.6181 79.1918 46.077 79.7954L45.078 80.8984L46.1603 79.8578C46.9927 79.067 47.2425 78.9213 47.2425 79.2334C47.2425 79.608 47.2425 79.608 47.5338 79.2334C47.7003 79.0045 47.7836 78.7548 47.7419 78.6923C47.7003 78.6091 47.8252 78.4218 48.0333 78.2761C48.3455 78.0264 48.3663 78.0264 48.1374 78.2969C47.9709 78.505 47.9501 78.734 48.0749 78.9213C48.2414 79.1918 48.283 79.1918 48.283 78.9421C48.283 78.5883 48.8866 77.8807 49.1571 77.8807C49.2612 77.8807 49.282 77.9639 49.2196 78.0888C49.1571 78.1929 49.1988 78.2969 49.3444 78.2969C49.4901 78.2969 49.4485 78.4634 49.2196 78.7132C49.0114 78.9421 48.9282 79.1294 49.0114 79.1294C49.1155 79.1294 48.9698 79.3791 48.6785 79.6913L48.179 80.2532L48.7617 79.8786C49.4901 79.4416 49.6774 79.5664 49.3652 80.2948C49.1988 80.6278 49.0114 80.7527 48.845 80.6694C48.7201 80.5862 48.6576 80.5862 48.7409 80.6903C48.9074 80.8776 48.0749 81.5643 47.8044 81.4603C47.7003 81.4395 47.6795 81.5019 47.7419 81.606C47.8252 81.71 47.7003 81.8557 47.4922 81.9182C47.2841 81.9806 46.743 82.4384 46.2851 82.9171C45.6191 83.6247 45.5775 83.7079 46.0978 83.3333C46.4516 83.0836 47.3257 82.4384 48.0333 81.939L49.3652 80.9816L49.2196 81.8765C49.1363 82.376 48.9074 82.9171 48.6785 83.1044C48.4703 83.2917 48.0333 83.6871 47.7211 83.9577C47.3881 84.2282 46.9927 84.6237 46.8262 84.8526C46.6597 85.0815 46.847 84.9775 47.2425 84.6237C47.6379 84.2907 48.1374 83.8745 48.3455 83.7079C48.6993 83.4582 48.6993 83.479 48.512 83.9369C48.4079 84.2074 48.2622 84.6861 48.1998 84.9775C48.1374 85.2688 47.846 85.6226 47.513 85.7891C47.18 85.9556 46.5765 86.4135 46.1394 86.8089C44.8491 88.0368 44.3288 90.6382 45.0572 92.3656C45.307 92.9899 45.307 93.2813 44.9948 94.9046C44.8075 95.9036 44.6618 97.0898 44.6826 97.5477C44.7242 98.6507 44.3913 101.294 44.1623 101.752C43.3715 103.313 43.0593 105.768 43.5172 106.622C43.6837 106.934 43.6629 107.121 43.4755 107.35C43.1426 107.766 42.4766 109.702 42.4558 110.284C42.4558 110.534 42.3725 110.784 42.2685 110.867C42.0395 110.992 41.9355 110.118 41.5193 104.52C41.3319 102.168 41.0198 98.3802 40.7908 96.0909C40.5619 93.8016 40.2289 90.326 40.0624 88.3906C39.8959 86.4343 39.4589 82.8755 39.0843 80.4821C38.5016 76.5904 38.4183 75.6122 38.4183 71.5331C38.4183 66.5591 38.5432 65.5602 39.8543 59.9827C40.4162 57.5477 40.999 54.3219 40.999 53.5727C40.999 53.4894 41.2071 53.76 41.436 54.1554C41.6857 54.5508 42.0187 55.4874 42.1644 56.2366ZM49.4901 55.3625C49.9063 55.9868 49.719 55.9452 49.0947 55.2792C48.8241 54.9671 48.7201 54.7589 48.8866 54.8214C49.0531 54.863 49.3236 55.1127 49.4901 55.3625ZM47.7627 55.5498L48.1374 56.1325L47.7003 55.7371C47.4506 55.5081 47.2425 55.2584 47.2425 55.1544C47.2425 54.863 47.3881 54.9671 47.7627 55.5498ZM53.0697 55.1544C53.0697 55.4041 51.9251 56.9858 51.6129 57.1731C51.1967 57.4436 51.155 57.1107 51.5297 56.5071C52.2581 55.3833 53.0697 54.6549 53.0697 55.1544ZM52.7784 56.6112C52.4246 56.9442 52.4037 56.9442 52.6743 56.5071C52.82 56.2574 52.9865 56.0909 53.0489 56.1533C53.1113 56.1949 52.9865 56.4031 52.7784 56.6112ZM48.3663 56.7777C48.7409 57.1315 48.8241 57.5893 48.4912 57.3812C48.2622 57.2355 47.8044 56.4447 47.9501 56.4447C47.9917 56.4447 48.1998 56.5904 48.3663 56.7777ZM56.6285 57.7974C56.2331 58.6923 55.7752 58.9213 55.7752 58.2137C55.7752 57.9015 56.8158 56.5904 56.9615 56.736C57.0239 56.7777 56.8574 57.2563 56.6285 57.7974ZM50.3642 57.4853C50.3642 57.5893 50.1769 57.7766 49.948 57.9015C49.615 58.068 49.5317 58.068 49.5317 57.8183C49.5317 57.6101 49.6566 57.5477 49.8439 57.6101C50.0728 57.7142 50.1145 57.6517 50.0104 57.3604C49.9272 57.1107 49.948 57.0482 50.1145 57.1523C50.2601 57.2355 50.3642 57.3812 50.3642 57.4853ZM50.8221 57.735C50.6764 57.8807 50.5723 57.9015 50.5723 57.7766C50.5723 57.4853 50.8221 57.2355 50.9677 57.3812C51.0094 57.4436 50.9469 57.6101 50.8221 57.735ZM50.1145 60.607C49.615 61.2938 49.3236 61.3979 49.3236 60.94C49.3236 60.6486 50.0728 59.9827 50.4266 59.9827C50.5099 59.9827 50.385 60.2532 50.1145 60.607ZM99.8751 61.8557C99.6462 64.478 99.667 72.095 99.8959 74.2386C100.458 79.2959 101.852 84.0201 104.058 88.4322L105.432 91.1793L103.559 93.1981C101.394 95.529 101.415 95.529 101.02 92.4489L100.749 90.4717L101.478 89.889C102.206 89.2647 102.31 88.9109 102.06 87.6622C101.873 86.8089 101.145 86.4967 100.062 86.7881C99.334 86.9546 99.2716 86.9546 99.2716 86.5383C99.2716 86.3094 99.4173 85.7059 99.6046 85.2272C99.9376 84.3739 99.9376 84.2699 99.5005 83.1044C99.2716 82.4384 99.0635 81.5227 99.0635 81.0857C99.0635 79.2334 97.8356 76.6736 96.795 76.3198C96.6077 76.2574 96.2747 76.0701 96.0666 75.9036C95.6712 75.6122 95.692 75.5706 96.2539 74.7589C96.8366 73.9265 96.8366 73.9057 96.5036 73.1772C96.0458 72.2199 96.0666 71.1377 96.5661 69.6601C97.0656 68.2241 97.0864 67.454 96.6701 66.6424C96.3788 66.0597 96.3996 65.9972 97.6483 64.1034C98.3559 63.042 99.1467 61.6684 99.4381 61.0649C99.7086 60.4613 99.9584 59.9827 99.9792 60.0243C100.021 60.0659 99.9584 60.8776 99.8751 61.8557ZM46.6181 64.2074C46.6181 64.2491 46.2227 64.6028 45.744 64.9775L44.8491 65.6642L45.5567 64.915C46.1811 64.2491 46.6181 63.9577 46.6181 64.2074ZM46.2435 67.1003C46.0978 67.2459 45.9938 67.2667 45.9938 67.1419C45.9938 66.8505 46.2435 66.6008 46.3892 66.7464C46.4308 66.8089 46.3684 66.9754 46.2435 67.1003ZM48.9074 74.6549C48.9074 74.6965 48.6993 74.8422 48.4495 74.9671C47.9917 75.196 47.9917 75.1752 48.3663 74.8838C48.8033 74.53 48.9074 74.4884 48.9074 74.6549ZM50.1561 74.6133C50.1561 74.6549 49.9063 74.9046 49.5942 75.196L49.0114 75.6955L49.5109 75.1127C49.9896 74.5924 50.1561 74.4468 50.1561 74.6133ZM47.8668 75.0295C47.8668 75.0711 47.6587 75.2792 47.409 75.5082L46.9303 75.9036L47.3257 75.4249C47.7003 74.9879 47.8668 74.863 47.8668 75.0295ZM46.7222 75.5706C46.6597 75.6955 46.3892 75.9036 46.1394 76.0284C45.7024 76.2574 45.7024 76.2366 46.1811 75.7163C46.6597 75.196 47.0135 75.1127 46.7222 75.5706ZM46.8678 76.6736C46.7222 76.8193 46.6181 76.8401 46.6181 76.7152C46.6181 76.4239 46.8678 76.1741 47.0135 76.3198C47.0552 76.3822 46.9927 76.5487 46.8678 76.6736ZM48.6993 76.736C48.5536 76.9025 48.3455 77.0482 48.2414 77.0482C48.1165 77.0482 48.1374 76.9025 48.283 76.736C48.4287 76.5695 48.6368 76.4239 48.7409 76.4239C48.8658 76.4239 48.845 76.5695 48.6993 76.736ZM47.7211 77.1731C47.5754 77.2355 47.5338 77.4228 47.5963 77.5893C47.6587 77.7766 47.4922 77.9431 47.1384 78.0888C46.3476 78.3802 46.2435 78.1929 46.9719 77.7974C47.2841 77.631 47.4714 77.4853 47.3881 77.4644C47.2841 77.4644 47.2841 77.3604 47.3465 77.2563C47.409 77.1315 47.5963 77.0482 47.7211 77.069C47.9084 77.069 47.9084 77.1107 47.7211 77.1731ZM50.3642 78.1929C50.3642 78.3594 49.4485 79.1294 49.2404 79.1294C49.1155 79.1294 49.3028 78.9005 49.6358 78.6091C50.3018 78.068 50.3642 78.0264 50.3642 78.1929ZM58.4808 103.979C58.4808 104.603 58.3767 105.186 58.2518 105.248C58.0021 105.415 58.2102 107.059 58.5432 107.246C58.6472 107.329 58.7929 107.87 58.8554 108.453C58.9386 109.41 58.897 109.577 58.2934 110.243C57.4818 111.179 57.461 111.97 58.1894 112.719C58.5016 113.011 58.8345 113.26 58.9178 113.26C59.0219 113.26 59.1051 113.489 59.1051 113.781C59.1051 114.343 59.4173 114.488 59.6046 113.989C59.8127 113.406 60.1457 113.677 60.1457 114.468C60.1457 114.884 60.2289 115.55 60.3538 115.945C60.4579 116.32 60.6452 117.34 60.77 118.214C60.9573 119.587 60.9365 119.816 60.6452 120.17C60.1873 120.649 59.9376 120.649 59.9376 120.149C59.9376 119.941 59.7919 119.65 59.6254 119.504C59.4589 119.358 59.3132 119.129 59.3132 118.984C59.3132 118.817 59.0843 118.422 58.7929 118.089C58.5016 117.735 58.2726 117.194 58.2726 116.861C58.2726 115.8 57.8772 114.863 57.0656 114.01C55.796 112.678 55.3798 111.783 55.5047 110.721C55.5879 110.139 55.796 109.66 56.129 109.327C56.5245 108.952 56.6285 108.682 56.5453 108.203C56.5036 107.849 56.6285 107.183 56.8158 106.726C57.0239 106.247 57.3569 105.186 57.565 104.353C58.0437 102.522 58.4808 102.334 58.4808 103.979ZM91.5713 117.402C91.5713 117.964 91.1342 119.088 90.9261 119.088C90.6556 119.088 90.6972 117.548 90.9886 117.256C91.3424 116.903 91.5713 116.944 91.5713 117.402ZM93.0697 123.042C93.486 123.042 93.5068 123.063 93.3195 123.541C93.2154 123.833 93.153 123.833 92.6951 123.521C92.4246 123.354 92.1956 123.063 92.1956 122.875C92.1956 122.626 92.2581 122.605 92.4454 122.792C92.591 122.938 92.8616 123.042 93.0697 123.042ZM93.2986 124.353C93.3611 124.52 93.3195 124.769 93.2154 124.936C93.0905 125.144 93.0281 125.082 93.0281 124.644C93.0281 124.041 93.1322 123.916 93.2986 124.353ZM94.693 128.932C95.0676 130.097 94.7971 130.118 94.4017 128.952C94.0271 127.829 94.0062 127.662 94.256 127.933C94.36 128.058 94.5473 128.495 94.693 128.932ZM106.972 130.388C106.972 130.659 106.826 131.054 106.66 131.283C106.327 131.741 106.327 131.741 106.285 130.68C106.243 130.076 106.327 129.91 106.618 129.91C106.847 129.91 106.972 130.076 106.972 130.388ZM96.462 131.679C97.2529 131.991 97.3569 132.116 97.7523 133.365C98.0437 134.239 98.1061 134.634 97.9396 134.509C97.794 134.384 97.6067 134.343 97.5234 134.426C97.461 134.509 97.2529 134.364 97.0656 134.114C96.8783 133.843 96.5869 133.677 96.4204 133.698C96.1915 133.739 95.9625 133.365 95.6296 132.366C94.9428 130.368 94.8387 129.889 95.2549 130.68C95.4839 131.138 95.8793 131.471 96.462 131.679ZM97.8564 136.403C97.7107 136.549 97.6067 136.57 97.6067 136.445C97.6067 136.153 97.8564 135.904 98.0021 136.049C98.0437 136.112 97.9813 136.278 97.8564 136.403ZM98.3975 137.173C98.4599 137.34 98.3767 137.423 98.2102 137.36C98.0645 137.319 97.898 137.152 97.8564 137.007C97.794 136.84 97.8772 136.757 98.0437 136.819C98.1894 136.861 98.3559 137.027 98.3975 137.173ZM98.3143 138.755C98.3767 138.921 98.3351 139.067 98.231 139.067C98.1061 139.067 98.0229 138.921 98.0229 138.755C98.0229 138.588 98.0645 138.443 98.1061 138.443C98.1478 138.443 98.231 138.588 98.3143 138.755ZM99.1675 140.524C99.23 140.628 99.1883 140.732 99.0843 140.732C98.9594 140.732 98.8554 140.628 98.8554 140.524C98.8554 140.399 98.897 140.316 98.9386 140.316C99.001 140.316 99.1051 140.399 99.1675 140.524ZM100.021 143.854C100.291 144.332 100.52 144.853 100.52 145.019C100.52 145.186 100.666 145.31 100.832 145.31C101.082 145.31 101.145 145.602 101.145 146.746C101.145 148.016 101.082 148.203 100.728 148.328C100.146 148.515 99.4797 149.431 99.4589 150.076C99.4589 150.555 99.4173 150.513 99.1467 149.806C98.8554 148.994 98.8137 148.474 98.897 146.767C98.9802 144.832 98.9594 143.729 98.7721 143.042C98.6056 142.355 98.6056 142.334 99.0635 142.667C99.334 142.855 99.7503 143.396 100.021 143.854ZM101.977 153.864C101.977 153.989 101.894 154.01 101.769 153.947C101.665 153.885 101.561 153.718 101.561 153.614C101.561 153.489 101.665 153.469 101.769 153.531C101.894 153.593 101.977 153.76 101.977 153.864ZM78.0437 225.061C78.0437 225.331 77.9396 225.685 77.8356 225.852C77.6691 226.101 77.6275 226.08 77.6275 225.706C77.6275 225.456 77.565 225.123 77.5026 224.936C77.4194 224.707 77.4818 224.603 77.7107 224.603C77.9188 224.603 78.0437 224.769 78.0437 225.061ZM37.5442 226.226C37.6067 226.642 37.5858 227.371 37.5026 227.829C37.3361 228.64 37.3361 228.62 37.0864 227.038C36.7742 224.957 36.7742 224.915 37.128 225.206C37.2945 225.352 37.4818 225.81 37.5442 226.226ZM47.0135 238.484L47.0343 239.775L46.3892 239.546C45.8273 239.358 45.7856 239.275 45.9105 238.672C45.9729 238.318 46.1811 237.652 46.3684 237.215C46.6389 236.507 46.7222 236.445 46.847 236.798C46.9303 237.007 47.0135 237.777 47.0135 238.484ZM76.1498 239.837C76.1707 239.941 76.0874 240.003 75.9625 240.003C75.8585 240.003 75.7544 239.754 75.7752 239.421C75.7752 238.921 75.796 238.9 75.9625 239.275C76.0666 239.504 76.1498 239.754 76.1498 239.837ZM33.8189 241.877C33.6316 242.459 33.3819 242.917 33.2778 242.917C32.9865 242.917 33.0489 242.522 33.5484 241.044C33.9438 239.941 34.0479 239.795 34.0895 240.274C34.1311 240.586 34.0062 241.315 33.8189 241.877Z" fill="black"/>
        <path d="M42.4764 66.7048C42.2059 67.1418 42.2267 67.1418 42.5805 66.8088C42.7886 66.6007 42.9135 66.3926 42.8511 66.351C42.7886 66.2885 42.6221 66.455 42.4764 66.7048Z" fill="black"/>
        <path d="M41.894 67.5168C41.5818 67.933 41.3737 68.3076 41.4778 68.3076C41.5402 68.3076 41.7275 68.0787 41.9148 67.7873C42.2686 67.2462 42.2478 67.0589 41.894 67.5168Z" fill="black"/>
        <path d="M47.2423 69.9724C47.1174 70.2014 47.0758 70.3887 47.1174 70.3887C47.1799 70.3887 47.3255 70.2014 47.4504 69.9724C47.5753 69.7435 47.6169 69.5562 47.5753 69.5562C47.5128 69.5562 47.3672 69.7435 47.2423 69.9724Z" fill="black"/>
        <path d="M40.2915 71.1168C40.1041 71.6579 40.1458 71.7827 40.3955 71.3665C40.5204 71.1584 40.5828 70.9295 40.5204 70.8878C40.4788 70.8254 40.3747 70.9295 40.2915 71.1168Z" fill="black"/>
        <path d="M40.9157 74.8629C40.7284 75.404 40.77 75.5288 41.0198 75.1126C41.1446 74.9045 41.2071 74.6756 41.1446 74.6339C41.103 74.5715 40.999 74.6756 40.9157 74.8629Z" fill="black"/>
    </g>
    <defs>
        <filter id="filter0_d" x="0" y="0" width="200.2" height="274.294" filterUnits="userSpaceOnUse" color-interpolation-filters="sRGB">
            <feFlood flood-opacity="0" result="BackgroundImageFix"/>
            <feColorMatrix in="SourceAlpha" type="matrix" values="0 0 0 0 0 0 0 0 0 0 0 0 0 0 0 0 0 0 127 0"/>
            <feOffset dx="10"/>
            <feGaussianBlur stdDeviation="5"/>
            <feColorMatrix type="matrix" values="0 0 0 0 1 0 0 0 0 0.313726 0 0 0 0 0 0 0 0 1 0"/>
            <feBlend mode="normal" in2="BackgroundImageFix" result="effect1_dropShadow"/>
            <feBlend mode="normal" in="SourceGraphic" in2="effect1_dropShadow" result="shape"/>
        </filter>
    </defs>
</svg>
